<svg xmlns="http://www.w3.org/2000/svg" xmlns:xlink="http://www.w3.org/1999/xlink" width="335" height="221.522" viewBox="0 0 335 221.522">
  <defs>
    <clipPath id="clip-path">
      <path id="Path_3236" data-name="Path 3236" d="M0-44.341H167.346V-192.023H0Z" transform="translate(0 192.023)" fill="none"/>
    </clipPath>
  </defs>
  <g id="Group_7333" data-name="Group 7333" transform="translate(-678 -2171.023)">
    <g id="Group_5931" data-name="Group 5931" transform="translate(678 2171.023)">
      <g id="Group_5100" data-name="Group 5100" transform="translate(0 0)">
        <path id="Path_3234" data-name="Path 3234" d="M.125-44.376H167.311V-191.9H.125Z" transform="translate(-0.045 191.978)" fill="#fff"/>
        <g id="Group_5099" data-name="Group 5099" transform="translate(0 0)" clip-path="url(#clip-path)">
          <path id="Path_3235" data-name="Path 3235" d="M.125-44.409h167.14V-191.9H.125Z" transform="translate(-0.022 191.994)" fill="none" stroke="#c6c9ce" stroke-width="0.25"/>
        </g>
      </g>
      <g id="Group_5101" data-name="Group 5101" transform="translate(167.345 0)">
        <path id="Path_3237" data-name="Path 3237" d="M9-45.341H176.655V-193.023H9Z" transform="translate(-9 193.023)" fill="#42454a"/>
      </g>
      <g id="Group_5102" data-name="Group 5102" transform="translate(0 147.682)">
        <path id="Path_3238" data-name="Path 3238" d="M0-118.315H167.346v-73.841H0Z" transform="translate(0 192.156)" fill="#c6c9ce"/>
      </g>
      <g id="Group_5103" data-name="Group 5103" transform="translate(167.345 147.682)">
        <path id="Path_3239" data-name="Path 3239" d="M0-118.315H167.655v-73.841H0Z" transform="translate(0 192.156)" fill="#e3e9f0"/>
      </g>
      <g id="Group_6698" data-name="Group 6698" transform="translate(12.861 12.164)">
        <path id="Path_5250" data-name="Path 5250" d="M.083-6.631,1.87,0H3.911L5-3.633,6.1,0H8.14L9.927-6.631H8.306L7.012-1.7,5.645-6.533H4.365L3-1.7,1.7-6.631ZM12.247,0V-2.607a.744.744,0,0,1,.781-.771.756.756,0,0,1,.786.771V0h1.538V-3.047a1.682,1.682,0,0,0-1.733-1.738,1.886,1.886,0,0,0-1.377.5V-6.875H10.7V0Zm4.317-6.128a.8.8,0,0,0,.84.84.807.807,0,0,0,.85-.84.809.809,0,0,0-.85-.845A.8.8,0,0,0,16.563-6.128Zm.1,1.44V0H18.2V-4.687ZM19.02-3.433h.747V-1.67A1.634,1.634,0,0,0,21.618.1a3,3,0,0,0,1.245-.264l-.107-1.25A2.265,2.265,0,0,1,22-1.255c-.405,0-.693-.156-.693-.664V-3.433h1.372V-4.687H21.256v-1.5H19.767v1.5H19.02Zm4.19,1.089A2.377,2.377,0,0,0,25.729.1,2.383,2.383,0,0,0,27.775-.923L26.8-1.782a1.407,1.407,0,0,1-1.05.581.949.949,0,0,1-1.035-.747h3.164a3.632,3.632,0,0,0,.044-.547,2.214,2.214,0,0,0-2.344-2.29A2.3,2.3,0,0,0,23.21-2.344Zm2.412-1.23a.841.841,0,0,1,.879.723H24.714A.854.854,0,0,1,25.622-3.574Z" transform="translate(0 4)" fill="#42454a"/>
        <g id="Group" transform="translate(0 9.277)">
          <path id="Path_5249" data-name="Path 5249" d="M.34-2.652A2.7,2.7,0,0,0,3.086.078,2.7,2.7,0,0,0,5.418-1.211L4.8-1.637A2.023,2.023,0,0,1,3.086-.7,1.855,1.855,0,0,1,1.2-2.652,1.844,1.844,0,0,1,3.066-4.605a1.957,1.957,0,0,1,1.7.961L5.4-4.09A2.7,2.7,0,0,0,3.066-5.383,2.686,2.686,0,0,0,.34-2.652ZM6.309,0h.828V-3.8L8.82-.375h.586L11.09-3.8V0h.828V-5.3h-.969L9.113-1.531,7.281-5.3H6.309Zm6.355-5.3,2.012,3.266V0h.816V-2.039L17.5-5.3h-.977l-1.445,2.4L13.641-5.3ZM18.25,0h.82V-1.6l.918-.988L21.691,0h1L20.566-3.141,22.559-5.3H21.5L19.07-2.668V-5.3h-.82Zm4.918-3.348a.469.469,0,0,0,.477.477.472.472,0,0,0,.48-.477.475.475,0,0,0-.48-.48A.472.472,0,0,0,23.168-3.348Zm0,2.949a.469.469,0,0,0,.477.477.472.472,0,0,0,.48-.477.475.475,0,0,0-.48-.48A.472.472,0,0,0,23.168-.4Zm5.781.477c1.293,0,2.113-1.066,2.113-2.73s-.82-2.73-2.113-2.73-2.117,1.07-2.117,2.73S27.656.078,28.949.078Zm0-4.687c.773,0,1.293.758,1.293,1.957S29.723-.7,28.949-.7s-1.3-.75-1.3-1.953S28.172-4.609,28.949-4.609Zm5,4.688c1.293,0,2.113-1.066,2.113-2.73s-.82-2.73-2.113-2.73-2.117,1.07-2.117,2.73S32.652.078,33.945.078Zm0-4.687c.773,0,1.293.758,1.293,1.957S34.719-.7,33.945-.7s-1.3-.75-1.3-1.953S33.168-4.609,33.945-4.609ZM42.02-5.973h-.84L38.113,1.563h.836ZM46.184.078c1.293,0,2.113-1.066,2.113-2.73s-.82-2.73-2.113-2.73-2.117,1.07-2.117,2.73S44.891.078,46.184.078Zm0-4.687c.773,0,1.293.758,1.293,1.957S46.957-.7,46.184-.7s-1.3-.75-1.3-1.953S45.406-4.609,46.184-4.609Zm5,4.688c1.293,0,2.113-1.066,2.113-2.73s-.82-2.73-2.113-2.73-2.117,1.07-2.117,2.73S49.887.078,51.18.078Zm0-4.687c.773,0,1.293.758,1.293,1.957S51.953-.7,51.18-.7s-1.3-.75-1.3-1.953S50.4-4.609,51.18-4.609Zm8.074-1.363h-.84L55.348,1.563h.836ZM63.418.078c1.293,0,2.113-1.066,2.113-2.73s-.82-2.73-2.113-2.73S61.3-4.312,61.3-2.652,62.125.078,63.418.078Zm0-4.687c.773,0,1.293.758,1.293,1.957S64.191-.7,63.418-.7s-1.3-.75-1.3-1.953S62.641-4.609,63.418-4.609Zm5,4.688c1.293,0,2.113-1.066,2.113-2.73s-.82-2.73-2.113-2.73S66.3-4.312,66.3-2.652,67.121.078,68.414.078Zm0-4.687c.773,0,1.293.758,1.293,1.957S69.188-.7,68.414-.7s-1.3-.75-1.3-1.953S67.637-4.609,68.414-4.609Zm8.074-1.363h-.84L72.582,1.563h.836ZM80.652.078c1.293,0,2.113-1.066,2.113-2.73s-.82-2.73-2.113-2.73-2.117,1.07-2.117,2.73S79.359.078,80.652.078Zm0-4.687c.773,0,1.293.758,1.293,1.957S81.426-.7,80.652-.7s-1.3-.75-1.3-1.953S79.875-4.609,80.652-4.609Zm5,4.688c1.293,0,2.113-1.066,2.113-2.73s-.82-2.73-2.113-2.73-2.117,1.07-2.117,2.73S84.355.078,85.648.078Zm0-4.687c.773,0,1.293.758,1.293,1.957S86.422-.7,85.648-.7s-1.3-.75-1.3-1.953S84.871-4.609,85.648-4.609Z" transform="translate(0 8)" fill="#42454a"/>
          <path id="Path_5248" data-name="Path 5248" d="M.688-5.3V0h.82V-2.082H2.832L4.031,0h.953L3.7-2.2a1.529,1.529,0,0,0,1.074-1.5A1.6,1.6,0,0,0,2.969-5.3Zm2.242.738c.652,0,.988.344.988.871s-.336.879-.988.879H1.508v-1.75ZM8.25.078a2.449,2.449,0,0,0,2.57-2.543,2.768,2.768,0,0,0-.016-.309H8.125v.742H9.953A1.582,1.582,0,0,1,8.25-.7,1.858,1.858,0,0,1,6.359-2.652,1.847,1.847,0,0,1,8.23-4.605a1.9,1.9,0,0,1,1.629.871L10.5-4.18a2.66,2.66,0,0,0-2.266-1.2A2.686,2.686,0,0,0,5.5-2.652,2.7,2.7,0,0,0,8.25.078Zm6-.078a1.565,1.565,0,0,0,1.66-1.535,1.3,1.3,0,0,0-.781-1.215,1.252,1.252,0,0,0,.582-1.07A1.5,1.5,0,0,0,14.1-5.3H11.809V0ZM12.633-3.047V-4.574H14.1a.761.761,0,0,1,.789.773.751.751,0,0,1-.789.754Zm0,.691h1.621a.821.821,0,0,1,.848.8.809.809,0,0,1-.848.816H12.633Zm4.121-.992a.469.469,0,0,0,.477.477.472.472,0,0,0,.48-.477.475.475,0,0,0-.48-.48A.472.472,0,0,0,16.754-3.348Zm0,2.949a.469.469,0,0,0,.477.477.472.472,0,0,0,.48-.477.475.475,0,0,0-.48-.48A.472.472,0,0,0,16.754-.4Zm3.574-3.75.691.332a1.157,1.157,0,0,1,1.063-.789.86.86,0,0,1,.934.867c0,.52-.406.852-1.059,1.352s-1.551,1.1-1.551,2.031V0h3.555V-.777H21.355c.016-.219.59-.656,1.035-.992.7-.531,1.484-.961,1.484-1.984a1.646,1.646,0,0,0-1.793-1.629A1.875,1.875,0,0,0,20.328-4.148ZM26.406.078a1.767,1.767,0,0,0,1.906-1.742,1.7,1.7,0,0,0-1.828-1.742,1.347,1.347,0,0,0-.82.246l.129-1.367h2.262V-5.3H25.09l-.25,2.754.621.254a1.389,1.389,0,0,1,.961-.387.982.982,0,0,1,1.051,1.02.979.979,0,0,1-1.051.973,1.234,1.234,0,0,1-1.172-.82l-.684.379A1.905,1.905,0,0,0,26.406.078Zm4.313,0a1.767,1.767,0,0,0,1.906-1.742A1.7,1.7,0,0,0,30.8-3.406a1.347,1.347,0,0,0-.82.246l.129-1.367h2.262V-5.3H29.4l-.25,2.754.621.254a1.389,1.389,0,0,1,.961-.387.982.982,0,0,1,1.051,1.02.979.979,0,0,1-1.051.973,1.234,1.234,0,0,1-1.172-.82l-.684.379A1.905,1.905,0,0,0,30.719.078Zm7.8-6.051h-.84L34.617,1.563h.836ZM40.48-4.148l.691.332a1.157,1.157,0,0,1,1.063-.789.86.86,0,0,1,.934.867c0,.52-.406.852-1.059,1.352s-1.551,1.1-1.551,2.031V0h3.555V-.777H41.508c.016-.219.59-.656,1.035-.992.7-.531,1.484-.961,1.484-1.984a1.646,1.646,0,0,0-1.793-1.629A1.875,1.875,0,0,0,40.48-4.148ZM46.559.078a1.767,1.767,0,0,0,1.906-1.742,1.7,1.7,0,0,0-1.828-1.742,1.347,1.347,0,0,0-.82.246l.129-1.367h2.262V-5.3H45.242l-.25,2.754.621.254a1.389,1.389,0,0,1,.961-.387.982.982,0,0,1,1.051,1.02.979.979,0,0,1-1.051.973,1.234,1.234,0,0,1-1.172-.82l-.684.379A1.905,1.905,0,0,0,46.559.078Zm4.313,0a1.767,1.767,0,0,0,1.906-1.742,1.7,1.7,0,0,0-1.828-1.742,1.347,1.347,0,0,0-.82.246l.129-1.367H52.52V-5.3H49.555L49.3-2.551l.621.254a1.389,1.389,0,0,1,.961-.387.982.982,0,0,1,1.051,1.02.979.979,0,0,1-1.051.973,1.234,1.234,0,0,1-1.172-.82l-.684.379A1.905,1.905,0,0,0,50.871.078Zm7.8-6.051h-.84L54.77,1.563h.836Zm1.957,1.824.691.332a1.157,1.157,0,0,1,1.063-.789.86.86,0,0,1,.934.867c0,.52-.406.852-1.059,1.352s-1.551,1.1-1.551,2.031V0h3.555V-.777H61.66c.016-.219.59-.656,1.035-.992.7-.531,1.484-.961,1.484-1.984a1.646,1.646,0,0,0-1.793-1.629A1.875,1.875,0,0,0,60.633-4.148ZM66.711.078a1.767,1.767,0,0,0,1.906-1.742,1.7,1.7,0,0,0-1.828-1.742,1.347,1.347,0,0,0-.82.246L66.1-4.527h2.262V-5.3H65.395l-.25,2.754.621.254a1.389,1.389,0,0,1,.961-.387.982.982,0,0,1,1.051,1.02.979.979,0,0,1-1.051.973,1.234,1.234,0,0,1-1.172-.82l-.684.379A1.905,1.905,0,0,0,66.711.078Zm4.313,0A1.767,1.767,0,0,0,72.93-1.664,1.7,1.7,0,0,0,71.1-3.406a1.347,1.347,0,0,0-.82.246l.129-1.367h2.262V-5.3H69.707l-.25,2.754.621.254a1.389,1.389,0,0,1,.961-.387.982.982,0,0,1,1.051,1.02.979.979,0,0,1-1.051.973,1.234,1.234,0,0,1-1.172-.82l-.684.379A1.905,1.905,0,0,0,71.023.078Z" transform="translate(0 18.137)" fill="#42454a"/>
          <path id="Path_5247" data-name="Path 5247" d="M.117-5.3,1.594,0H2.918L3.98-3.93,5.047,0H6.371L7.848-5.3H7.023L5.707-.738,4.422-5.219H3.543L2.258-.738.938-5.3ZM8.972,0h3.8V-.746H9.793V-2.352h2.488V-3.1H9.793V-4.559h2.9V-5.3H8.972Zm7.593,0a1.565,1.565,0,0,0,1.66-1.535,1.3,1.3,0,0,0-.781-1.215,1.252,1.252,0,0,0,.582-1.07A1.5,1.5,0,0,0,16.41-5.3H14.12V0ZM14.945-3.047V-4.574H16.41A.761.761,0,0,1,17.2-3.8a.751.751,0,0,1-.789.754Zm0,.691h1.621a.821.821,0,0,1,.848.8.809.809,0,0,1-.848.816H14.945Zm4.441-.992a.469.469,0,0,0,.477.477.472.472,0,0,0,.48-.477.475.475,0,0,0-.48-.48A.472.472,0,0,0,19.386-3.348Zm0,2.949a.469.469,0,0,0,.477.477.472.472,0,0,0,.48-.477.475.475,0,0,0-.48-.48A.472.472,0,0,0,19.386-.4Zm4.8-2.7V0h.773V-3.094h1.094V-3.75H24.944v-.363c0-.543.234-.785.738-.785a1.385,1.385,0,0,1,.5.1l.082-.641a1.365,1.365,0,0,0-.621-.137,1.33,1.33,0,0,0-1.453,1.422v.406h-.719v.656Zm3.179,0V0h.773V-3.094h1.094V-3.75H28.123v-.363c0-.543.234-.785.738-.785a1.385,1.385,0,0,1,.5.1l.082-.641a1.365,1.365,0,0,0-.621-.137,1.33,1.33,0,0,0-1.453,1.422v.406h-.719v.656Zm3.179,0V0h.773V-3.094h1.094V-3.75H31.3v-.363c0-.543.234-.785.738-.785a1.385,1.385,0,0,1,.5.1l.082-.641a1.365,1.365,0,0,0-.621-.137,1.33,1.33,0,0,0-1.453,1.422v.406h-.719v.656Zm3.179,0V0h.773V-3.094h1.094V-3.75H34.482v-.363c0-.543.234-.785.738-.785a1.385,1.385,0,0,1,.5.1l.082-.641a1.365,1.365,0,0,0-.621-.137,1.33,1.33,0,0,0-1.453,1.422v.406h-.719v.656Zm3.179,0V0h.773V-3.094h1.094V-3.75H37.661v-.363c0-.543.234-.785.738-.785a1.385,1.385,0,0,1,.5.1l.082-.641a1.365,1.365,0,0,0-.621-.137,1.33,1.33,0,0,0-1.453,1.422v.406h-.719v.656Zm3.179,0V0h.773V-3.094h1.094V-3.75H40.841v-.363c0-.543.234-.785.738-.785a1.385,1.385,0,0,1,.5.1l.082-.641a1.365,1.365,0,0,0-.621-.137,1.33,1.33,0,0,0-1.453,1.422v.406h-.719v.656Z" transform="translate(0 28.275)" fill="#42454a"/>
        </g>
      </g>
      <g id="Group_6699" data-name="Group 6699" transform="translate(180.208 12.164)">
        <path id="Path_5255" data-name="Path 5255" d="M4.116,0a1.859,1.859,0,0,0,2.07-1.812A1.534,1.534,0,0,0,5.078-3.354,1.672,1.672,0,0,0,6-4.863c0-1.1-.869-1.768-2.1-1.768H.8V0ZM2.4-3.931V-5.288H3.6a.691.691,0,0,1,.732.679.657.657,0,0,1-.684.679Zm0,2.593V-2.7H3.711a.684.684,0,0,1,.732.688.7.7,0,0,1-.732.674ZM8.834-6.875H7.3V0H8.834ZM11.682.1a1.555,1.555,0,0,0,1.25-.576V0h1.46V-2.783c0-1.25-.859-2-2.285-2A2.888,2.888,0,0,0,10-3.818l.85.913a1.546,1.546,0,0,1,1.128-.522c.557,0,.879.269.879.635V-2.7a3.542,3.542,0,0,0-.937-.122c-1.064,0-1.982.562-1.982,1.494C9.934-.439,10.691.1,11.682.1Zm-.273-1.519c0-.3.3-.469.781-.469a1.83,1.83,0,0,1,.664.122.792.792,0,0,1-.835.815C11.663-.952,11.409-1.143,11.409-1.421ZM17.866.1A2.517,2.517,0,0,0,20.1-1.123l-1.162-.85a1.183,1.183,0,0,1-1.025.669.984.984,0,0,1-1-1.04.98.98,0,0,1,1-1.025,1.049,1.049,0,0,1,.991.684l1.187-.845a2.451,2.451,0,0,0-2.178-1.255,2.416,2.416,0,0,0-2.52,2.441A2.375,2.375,0,0,0,17.866.1Zm3.209-6.973V0h1.538V-1.333l.425-.42L24.293,0h1.875l-2.1-2.705L26.09-4.687H24.083l-1.47,1.479V-6.875Z" transform="translate(0 5)" fill="#fff"/>
        <g id="Group-2" data-name="Group" transform="translate(0 9.917)">
          <path id="Path_5254" data-name="Path 5254" d="M1.723,0v-1.82H2.984a1.733,1.733,0,0,0,1.9-1.73,1.724,1.724,0,0,0-1.9-1.75H.664V0Zm0-4.387h1.2a.8.8,0,0,1,.883.836.8.8,0,0,1-.883.816h-1.2ZM6.866.078a1.242,1.242,0,0,0,1.063-.5V0h.953V-2.309c0-.937-.684-1.52-1.781-1.52a2.053,2.053,0,0,0-1.6.781l.574.574a1.328,1.328,0,0,1,.992-.473.74.74,0,0,1,.813.715v.086a2.456,2.456,0,0,0-.789-.129c-1,0-1.645.492-1.645,1.2S6.014.078,6.866.078Zm.3-1.684a1.747,1.747,0,0,1,.719.145.8.8,0,0,1-.859.793c-.383,0-.625-.18-.625-.461S6.705-1.605,7.162-1.605ZM11.063,0V-2.1a.781.781,0,0,1,.832-.8.738.738,0,0,1,.777.8V0h1V-2.355a1.4,1.4,0,0,0-1.48-1.473,1.429,1.429,0,0,0-1.156.512l-.02-.434h-.953V0ZM15-2.918V-1.23A1.224,1.224,0,0,0,16.378.078a2.286,2.286,0,0,0,.906-.187L17.19-.941a1.779,1.779,0,0,1-.637.129A.5.5,0,0,1,16-1.375V-2.918h1.1V-3.75H15.976v-1.2H15v1.2h-.637v.832Zm4.7,3a1.932,1.932,0,0,0,2-1.953,1.934,1.934,0,0,0-2-1.953,1.937,1.937,0,0,0-2,1.953A1.934,1.934,0,0,0,19.7.078ZM18.689-1.875A1,1,0,0,1,19.7-2.918.993.993,0,0,1,20.7-1.875.994.994,0,0,1,19.7-.828,1,1,0,0,1,18.689-1.875ZM23.656,0V-2.1a.781.781,0,0,1,.832-.8.738.738,0,0,1,.777.8V0h1V-2.355a1.4,1.4,0,0,0-1.48-1.473,1.429,1.429,0,0,0-1.156.512l-.02-.434h-.953V0ZM29.15.082a1.934,1.934,0,0,0,1.668-.9l-.711-.531a1.1,1.1,0,0,1-.934.527.987.987,0,0,1-1-.75h2.711A2.72,2.72,0,0,0,30.92-2,1.731,1.731,0,0,0,29.1-3.828a1.872,1.872,0,0,0-1.93,1.949A1.9,1.9,0,0,0,29.15.082Zm-.961-2.328a.881.881,0,0,1,.926-.738.842.842,0,0,1,.871.738ZM34.022,0h2.613a1.494,1.494,0,0,0,1.648-1.473,1.331,1.331,0,0,0-.891-1.285,1.188,1.188,0,0,0,.711-1.1A1.49,1.49,0,0,0,36.463-5.3H34.022Zm2.262-4.4a.658.658,0,0,1,.73.66.629.629,0,0,1-.691.637H35.077V-4.4Zm.18,2.129a.661.661,0,0,1,.7.715.643.643,0,0,1-.7.652H35.077V-2.27ZM40.274-5.5h-1V0h1Zm2.4,5.578a1.242,1.242,0,0,0,1.063-.5V0h.953V-2.309c0-.937-.684-1.52-1.781-1.52a2.053,2.053,0,0,0-1.6.781l.574.574a1.328,1.328,0,0,1,.992-.473.74.74,0,0,1,.813.715v.086a2.456,2.456,0,0,0-.789-.129c-1,0-1.645.492-1.645,1.2S41.823.078,42.675.078Zm.3-1.684a1.747,1.747,0,0,1,.719.145.8.8,0,0,1-.859.793c-.383,0-.625-.18-.625-.461S42.515-1.605,42.972-1.605Zm4.6,1.684A1.936,1.936,0,0,0,49.318-.969L48.6-1.477a1.1,1.1,0,0,1-1,.648,1,1,0,0,1-1-1.035,1.007,1.007,0,0,1,1.02-1.055,1.082,1.082,0,0,1,.965.633l.762-.484A1.917,1.917,0,0,0,47.6-3.84a1.963,1.963,0,0,0-2,1.957A1.941,1.941,0,0,0,47.572.078ZM50.218-5.5V0h.992V-1.117L51.6-1.5,52.707,0h1.238L52.269-2.152l1.641-1.6H52.578l-1.367,1.4V-5.5ZM59.149.078A2.741,2.741,0,0,0,61.532-1.25l-.777-.562A1.892,1.892,0,0,1,59.149-.9a1.649,1.649,0,0,1-1.668-1.754,1.63,1.63,0,0,1,1.641-1.754,1.757,1.757,0,0,1,1.543.941l.832-.594a2.783,2.783,0,0,0-2.375-1.324A2.671,2.671,0,0,0,56.4-2.652,2.7,2.7,0,0,0,59.149.078Z" transform="translate(0 8)" fill="#fff"/>
          <path id="Path_5253" data-name="Path 5253" d="M.34-2.652A2.7,2.7,0,0,0,3.086.078,2.7,2.7,0,0,0,5.418-1.211L4.8-1.637A2.023,2.023,0,0,1,3.086-.7,1.855,1.855,0,0,1,1.2-2.652,1.844,1.844,0,0,1,3.066-4.605a1.957,1.957,0,0,1,1.7.961L5.4-4.09A2.7,2.7,0,0,0,3.066-5.383,2.686,2.686,0,0,0,.34-2.652ZM6.309,0h.828V-3.8L8.82-.375h.586L11.09-3.8V0h.828V-5.3h-.969L9.113-1.531,7.281-5.3H6.309Zm6.355-5.3,2.012,3.266V0h.816V-2.039L17.5-5.3h-.977l-1.445,2.4L13.641-5.3ZM18.25,0h.82V-1.6l.918-.988L21.691,0h1L20.566-3.141,22.559-5.3H21.5L19.07-2.668V-5.3h-.82Zm4.918-3.348a.469.469,0,0,0,.477.477.472.472,0,0,0,.48-.477.475.475,0,0,0-.48-.48A.472.472,0,0,0,23.168-3.348Zm0,2.949a.469.469,0,0,0,.477.477.472.472,0,0,0,.48-.477.475.475,0,0,0-.48-.48A.472.472,0,0,0,23.168-.4Zm5.781.477c1.293,0,2.113-1.066,2.113-2.73s-.82-2.73-2.113-2.73-2.117,1.07-2.117,2.73S27.656.078,28.949.078Zm0-4.687c.773,0,1.293.758,1.293,1.957S29.723-.7,28.949-.7s-1.3-.75-1.3-1.953S28.172-4.609,28.949-4.609Zm5,4.688c1.293,0,2.113-1.066,2.113-2.73s-.82-2.73-2.113-2.73-2.117,1.07-2.117,2.73S32.652.078,33.945.078Zm0-4.687c.773,0,1.293.758,1.293,1.957S34.719-.7,33.945-.7s-1.3-.75-1.3-1.953S33.168-4.609,33.945-4.609ZM42.02-5.973h-.84L38.113,1.563h.836ZM46.184.078c1.293,0,2.113-1.066,2.113-2.73s-.82-2.73-2.113-2.73-2.117,1.07-2.117,2.73S44.891.078,46.184.078Zm0-4.687c.773,0,1.293.758,1.293,1.957S46.957-.7,46.184-.7s-1.3-.75-1.3-1.953S45.406-4.609,46.184-4.609Zm5,4.688c1.293,0,2.113-1.066,2.113-2.73s-.82-2.73-2.113-2.73-2.117,1.07-2.117,2.73S49.887.078,51.18.078Zm0-4.687c.773,0,1.293.758,1.293,1.957S51.953-.7,51.18-.7s-1.3-.75-1.3-1.953S50.4-4.609,51.18-4.609Zm8.074-1.363h-.84L55.348,1.563h.836ZM63.418.078c1.293,0,2.113-1.066,2.113-2.73s-.82-2.73-2.113-2.73S61.3-4.312,61.3-2.652,62.125.078,63.418.078Zm0-4.687c.773,0,1.293.758,1.293,1.957S64.191-.7,63.418-.7s-1.3-.75-1.3-1.953S62.641-4.609,63.418-4.609Zm5,4.688c1.293,0,2.113-1.066,2.113-2.73s-.82-2.73-2.113-2.73S66.3-4.312,66.3-2.652,67.121.078,68.414.078Zm0-4.687c.773,0,1.293.758,1.293,1.957S69.188-.7,68.414-.7s-1.3-.75-1.3-1.953S67.637-4.609,68.414-4.609Zm8.074-1.363h-.84L72.582,1.563h.836Zm3.824,4.125a1.4,1.4,0,0,0,1.258-.625c-.035,1.188-.719,1.8-1.59,1.8a1.874,1.874,0,0,1-.988-.3l-.277.7a2.3,2.3,0,0,0,1.32.359c1.648,0,2.371-1.211,2.371-2.922,0-1.4-.6-2.539-2.043-2.539a1.737,1.737,0,0,0-1.91,1.8A1.69,1.69,0,0,0,80.313-1.848Zm.082-2.82A1.03,1.03,0,0,1,81.438-3.6a1,1,0,0,1-1.047,1.023.968.968,0,0,1-1.1-1.035A1.009,1.009,0,0,1,80.395-4.668ZM85.289.078c1.293,0,2.113-1.066,2.113-2.73s-.82-2.73-2.113-2.73-2.117,1.07-2.117,2.73S84,.078,85.289.078Zm0-4.687c.773,0,1.293.758,1.293,1.957S86.063-.7,85.289-.7s-1.3-.75-1.3-1.953S84.512-4.609,85.289-4.609Z" transform="translate(0 20.498)" fill="#fff"/>
          <path id="Path_5252" data-name="Path 5252" d="M.688-5.3V0h.82V-2.082H2.832L4.031,0h.953L3.7-2.2a1.529,1.529,0,0,0,1.074-1.5A1.6,1.6,0,0,0,2.969-5.3Zm2.242.738c.652,0,.988.344.988.871s-.336.879-.988.879H1.508v-1.75ZM8.25.078a2.449,2.449,0,0,0,2.57-2.543,2.768,2.768,0,0,0-.016-.309H8.125v.742H9.953A1.582,1.582,0,0,1,8.25-.7,1.858,1.858,0,0,1,6.359-2.652,1.847,1.847,0,0,1,8.23-4.605a1.9,1.9,0,0,1,1.629.871L10.5-4.18a2.66,2.66,0,0,0-2.266-1.2A2.686,2.686,0,0,0,5.5-2.652,2.7,2.7,0,0,0,8.25.078Zm6-.078a1.565,1.565,0,0,0,1.66-1.535,1.3,1.3,0,0,0-.781-1.215,1.252,1.252,0,0,0,.582-1.07A1.5,1.5,0,0,0,14.1-5.3H11.809V0ZM12.633-3.047V-4.574H14.1a.761.761,0,0,1,.789.773.751.751,0,0,1-.789.754Zm0,.691h1.621a.821.821,0,0,1,.848.8.809.809,0,0,1-.848.816H12.633Zm4.121-.992a.469.469,0,0,0,.477.477.472.472,0,0,0,.48-.477.475.475,0,0,0-.48-.48A.472.472,0,0,0,16.754-3.348Zm0,2.949a.469.469,0,0,0,.477.477.472.472,0,0,0,.48-.477.475.475,0,0,0-.48-.48A.472.472,0,0,0,16.754-.4Zm3.461-.969h2.52V0h.809V-1.371h.781V-2.09h-.781V-5.3h-.969L20.215-2.051Zm2.52-2.926v2.2H21.168ZM25.617,0h.82V-5.3H24.605v.742h1.012Zm7.09-5.973h-.84L28.8,1.563h.836Zm1.844,4.605h2.52V0h.809V-1.371h.781V-2.09h-.781V-5.3H36.91L34.551-2.051Zm2.52-2.926v2.2H35.5ZM39.953,0h.82V-5.3H38.941v.742h1.012Zm7.09-5.973H46.2L43.137,1.563h.836Zm1.844,4.605h2.52V0h.809V-1.371H53V-2.09h-.781V-5.3h-.969L48.887-2.051Zm2.52-2.926v2.2H49.84ZM54.289,0h.82V-5.3H53.277v.742h1.012Z" transform="translate(0 30.636)" fill="#fff"/>
          <path id="Path_5251" data-name="Path 5251" d="M.117-5.3,1.594,0H2.918L3.98-3.93,5.047,0H6.371L7.848-5.3H7.023L5.707-.738,4.422-5.219H3.543L2.258-.738.938-5.3ZM8.8,0h3.8V-.746H9.617V-2.352H12.1V-3.1H9.617V-4.559h2.9V-5.3H8.8Zm7.417,0a1.565,1.565,0,0,0,1.66-1.535,1.3,1.3,0,0,0-.781-1.215,1.252,1.252,0,0,0,.582-1.07A1.5,1.5,0,0,0,16.058-5.3H13.768V0ZM14.593-3.047V-4.574h1.465a.761.761,0,0,1,.789.773.751.751,0,0,1-.789.754Zm0,.691h1.621a.821.821,0,0,1,.848.8.809.809,0,0,1-.848.816H14.593Zm4.265-.992a.469.469,0,0,0,.477.477.472.472,0,0,0,.48-.477.475.475,0,0,0-.48-.48A.472.472,0,0,0,18.858-3.348Zm0,2.949a.469.469,0,0,0,.477.477.472.472,0,0,0,.48-.477.475.475,0,0,0-.48-.48A.472.472,0,0,0,18.858-.4Zm3.862-3.75.691.332a1.157,1.157,0,0,1,1.063-.789.86.86,0,0,1,.934.867c0,.52-.406.852-1.059,1.352S22.8-1.289,22.8-.355V0h3.555V-.777H23.747c.016-.219.59-.656,1.035-.992.7-.531,1.484-.961,1.484-1.984a1.646,1.646,0,0,0-1.793-1.629A1.875,1.875,0,0,0,22.72-4.148Zm6.3,2.3a1.4,1.4,0,0,0,1.258-.625c-.035,1.188-.719,1.8-1.59,1.8a1.874,1.874,0,0,1-.988-.3l-.277.7a2.3,2.3,0,0,0,1.32.359c1.648,0,2.371-1.211,2.371-2.922,0-1.4-.6-2.539-2.043-2.539a1.737,1.737,0,0,0-1.91,1.8A1.69,1.69,0,0,0,29.016-1.848Zm.082-2.82A1.03,1.03,0,0,1,30.141-3.6a1,1,0,0,1-1.047,1.023A.968.968,0,0,1,28-3.609,1.009,1.009,0,0,1,29.1-4.668Zm2.831.52.691.332a1.157,1.157,0,0,1,1.063-.789.86.86,0,0,1,.934.867c0,.52-.406.852-1.059,1.352s-1.551,1.1-1.551,2.031V0h3.555V-.777H32.957c.016-.219.59-.656,1.035-.992.7-.531,1.484-.961,1.484-1.984a1.646,1.646,0,0,0-1.793-1.629A1.875,1.875,0,0,0,31.93-4.148Zm6.3,2.3a1.4,1.4,0,0,0,1.258-.625c-.035,1.188-.719,1.8-1.59,1.8a1.874,1.874,0,0,1-.988-.3l-.277.7a2.3,2.3,0,0,0,1.32.359c1.648,0,2.371-1.211,2.371-2.922,0-1.4-.6-2.539-2.043-2.539a1.737,1.737,0,0,0-1.91,1.8A1.69,1.69,0,0,0,38.226-1.848Zm.082-2.82A1.03,1.03,0,0,1,39.351-3.6,1,1,0,0,1,38.3-2.574a.968.968,0,0,1-1.1-1.035A1.009,1.009,0,0,1,38.308-4.668Zm2.832.52.691.332a1.157,1.157,0,0,1,1.063-.789.86.86,0,0,1,.934.867c0,.52-.406.852-1.059,1.352s-1.551,1.1-1.551,2.031V0h3.555V-.777H42.167c.016-.219.59-.656,1.035-.992.7-.531,1.484-.961,1.484-1.984a1.646,1.646,0,0,0-1.793-1.629A1.875,1.875,0,0,0,41.14-4.148Zm6.3,2.3a1.4,1.4,0,0,0,1.258-.625c-.035,1.188-.719,1.8-1.59,1.8a1.874,1.874,0,0,1-.988-.3l-.277.7a2.3,2.3,0,0,0,1.32.359c1.648,0,2.371-1.211,2.371-2.922,0-1.4-.6-2.539-2.043-2.539a1.737,1.737,0,0,0-1.91,1.8A1.69,1.69,0,0,0,47.436-1.848Zm.082-2.82A1.03,1.03,0,0,1,48.561-3.6a1,1,0,0,1-1.047,1.023.968.968,0,0,1-1.1-1.035A1.009,1.009,0,0,1,47.518-4.668Z" transform="translate(0 40.773)" fill="#fff"/>
        </g>
      </g>
      <g id="Group_6700" data-name="Group 6700" transform="translate(12.861 159.846)">
        <g id="Group-3" data-name="Group" transform="translate(0.031 0)">
          <path id="Path_5260" data-name="Path 5260" d="M3.7,0A3.346,3.346,0,0,0,7.075-3.32,3.335,3.335,0,0,0,3.7-6.631H.8V0ZM2.4-1.348V-5.278H3.54A1.871,1.871,0,0,1,5.415-3.32,1.886,1.886,0,0,1,3.54-1.348ZM9.441.1a1.555,1.555,0,0,0,1.25-.576V0h1.46V-2.783c0-1.25-.859-2-2.285-2a2.888,2.888,0,0,0-2.109.967l.85.913a1.546,1.546,0,0,1,1.128-.522c.557,0,.879.269.879.635V-2.7a3.542,3.542,0,0,0-.938-.122c-1.064,0-1.982.562-1.982,1.494C7.693-.439,8.45.1,9.441.1ZM9.167-1.421c0-.3.3-.469.781-.469a1.83,1.83,0,0,1,.664.122.792.792,0,0,1-.835.815C9.421-.952,9.167-1.143,9.167-1.421ZM14.868,0V-2.256c0-.874.493-1.191,1.074-1.191a1.792,1.792,0,0,1,.591.1l.093-1.343a1.848,1.848,0,0,0-.571-.1,1.315,1.315,0,0,0-1.226.737l-.049-.64H13.33V0ZM17.3-6.875V0H18.84V-1.333l.425-.42L20.52,0h1.875l-2.1-2.705,2.026-1.982H20.31L18.84-3.208V-6.875ZM24.787-3.32A3.4,3.4,0,0,0,28.283.1,3.15,3.15,0,0,0,31.608-3a6.924,6.924,0,0,0-.029-.693H28.127v1.348h1.748a1.547,1.547,0,0,1-1.592.938A1.8,1.8,0,0,1,26.432-3.32a1.8,1.8,0,0,1,1.851-1.9,1.923,1.923,0,0,1,1.611.9l1.235-.913a3.5,3.5,0,0,0-2.847-1.489A3.392,3.392,0,0,0,24.787-3.32ZM34.023,0V-2.256c0-.874.493-1.191,1.074-1.191a1.792,1.792,0,0,1,.591.1l.093-1.343a1.848,1.848,0,0,0-.571-.1,1.315,1.315,0,0,0-1.226.737l-.049-.64h-1.45V0Zm3.723.1A1.555,1.555,0,0,0,39-.479V0h1.46V-2.783c0-1.25-.859-2-2.285-2a2.888,2.888,0,0,0-2.109.967l.85.913a1.546,1.546,0,0,1,1.128-.522c.557,0,.879.269.879.635V-2.7a3.542,3.542,0,0,0-.937-.122C36.916-2.822,36-2.261,36-1.328,36-.439,36.754.1,37.746.1Zm-.273-1.519c0-.3.3-.469.781-.469a1.83,1.83,0,0,1,.664.122.792.792,0,0,1-.835.815C37.726-.952,37.472-1.143,37.472-1.421ZM42.787,0a.918.918,0,0,1-.913.718A1.349,1.349,0,0,1,41.327.6l-.21,1.211a2.3,2.3,0,0,0,1.011.244A2.051,2.051,0,0,0,44.12.688l2.173-5.376H44.574l-.967,3.135-.991-3.135H40.9Z" transform="translate(0 5)" fill="#42454a"/>
        </g>
        <g id="Group-4" data-name="Group" transform="translate(0 9.917)">
          <path id="Path_5259" data-name="Path 5259" d="M1.723,0v-1.82H2.984a1.733,1.733,0,0,0,1.9-1.73,1.724,1.724,0,0,0-1.9-1.75H.664V0Zm0-4.387h1.2a.8.8,0,0,1,.883.836.8.8,0,0,1-.883.816h-1.2ZM6.77.078a1.242,1.242,0,0,0,1.063-.5V0h.953V-2.309c0-.937-.684-1.52-1.781-1.52a2.053,2.053,0,0,0-1.6.781l.574.574a1.328,1.328,0,0,1,.992-.473.74.74,0,0,1,.813.715v.086A2.456,2.456,0,0,0,7-2.273c-1,0-1.645.492-1.645,1.2S5.918.078,6.77.078Zm.3-1.684a1.747,1.747,0,0,1,.719.145.8.8,0,0,1-.859.793c-.383,0-.625-.18-.625-.461S6.609-1.605,7.066-1.605ZM10.871,0V-2.1a.781.781,0,0,1,.832-.8.738.738,0,0,1,.777.8V0h1V-2.355A1.4,1.4,0,0,0,12-3.828a1.429,1.429,0,0,0-1.156.512l-.02-.434H9.871V0Zm3.84-2.918V-1.23A1.224,1.224,0,0,0,16.09.078,2.286,2.286,0,0,0,17-.109L16.9-.941a1.779,1.779,0,0,1-.637.129.5.5,0,0,1-.555-.562V-2.918h1.1V-3.75H15.688v-1.2h-.973v1.2h-.637v.832Zm4.6,3a1.932,1.932,0,0,0,2-1.953,1.934,1.934,0,0,0-2-1.953,1.937,1.937,0,0,0-2,1.953A1.934,1.934,0,0,0,19.313.078ZM18.3-1.875a1,1,0,0,1,1.008-1.043A.993.993,0,0,1,20.32-1.875.994.994,0,0,1,19.313-.828,1,1,0,0,1,18.3-1.875ZM23.176,0V-2.1a.781.781,0,0,1,.832-.8.738.738,0,0,1,.777.8V0h1V-2.355A1.4,1.4,0,0,0,24.3-3.828a1.429,1.429,0,0,0-1.156.512l-.02-.434h-.953V0Zm5.4.082a1.934,1.934,0,0,0,1.668-.9l-.711-.531a1.1,1.1,0,0,1-.934.527.987.987,0,0,1-1-.75h2.711A2.72,2.72,0,0,0,30.344-2a1.731,1.731,0,0,0-1.816-1.828A1.872,1.872,0,0,0,26.6-1.879,1.9,1.9,0,0,0,28.574.082Zm-.961-2.328a.881.881,0,0,1,.926-.738.842.842,0,0,1,.871.738Zm7.641.914V0h1.012V-1.332H37v-.9h-.734V-5.3H35.027L32.746-2.148v.816Zm-1.359-.9L35.254-4.1V-2.23ZM37.5-4.07l.887.422a1.034,1.034,0,0,1,.949-.785.736.736,0,0,1,.8.77c0,.434-.387.762-1.016,1.223-.645.473-1.508,1.113-1.508,2V0H41.3V-.922H38.844a3.488,3.488,0,0,1,.844-.742c.719-.523,1.539-1.059,1.539-2.012a1.747,1.747,0,0,0-1.9-1.707A1.966,1.966,0,0,0,37.5-4.07Zm4.488,1.438c0,1.461.676,2.711,2.234,2.711s2.238-1.25,2.238-2.711-.664-2.75-2.238-2.75S41.988-4.094,41.988-2.633Zm2.234-1.8c.832,0,1.16.875,1.16,1.785,0,.938-.328,1.785-1.16,1.785s-1.156-.848-1.156-1.785C43.066-3.562,43.391-4.437,44.223-4.437ZM51.832.078A2.741,2.741,0,0,0,54.215-1.25l-.777-.562A1.892,1.892,0,0,1,51.832-.9a1.649,1.649,0,0,1-1.668-1.754A1.63,1.63,0,0,1,51.8-4.406a1.757,1.757,0,0,1,1.543.941l.832-.594A2.783,2.783,0,0,0,51.8-5.383a2.671,2.671,0,0,0-2.723,2.73A2.7,2.7,0,0,0,51.832.078Z" transform="translate(0 8)" fill="#42454a"/>
          <path id="Path_5258" data-name="Path 5258" d="M.34-2.652A2.7,2.7,0,0,0,3.086.078,2.7,2.7,0,0,0,5.418-1.211L4.8-1.637A2.023,2.023,0,0,1,3.086-.7,1.855,1.855,0,0,1,1.2-2.652,1.844,1.844,0,0,1,3.066-4.605a1.957,1.957,0,0,1,1.7.961L5.4-4.09A2.7,2.7,0,0,0,3.066-5.383,2.686,2.686,0,0,0,.34-2.652ZM6.309,0h.828V-3.8L8.82-.375h.586L11.09-3.8V0h.828V-5.3h-.969L9.113-1.531,7.281-5.3H6.309Zm6.355-5.3,2.012,3.266V0h.816V-2.039L17.5-5.3h-.977l-1.445,2.4L13.641-5.3ZM18.25,0h.82V-1.6l.918-.988L21.691,0h1L20.566-3.141,22.559-5.3H21.5L19.07-2.668V-5.3h-.82Zm4.918-3.348a.469.469,0,0,0,.477.477.472.472,0,0,0,.48-.477.475.475,0,0,0-.48-.48A.472.472,0,0,0,23.168-3.348Zm0,2.949a.469.469,0,0,0,.477.477.472.472,0,0,0,.48-.477.475.475,0,0,0-.48-.48A.472.472,0,0,0,23.168-.4Zm3.574-3.75.691.332A1.157,1.157,0,0,1,28.5-4.605a.86.86,0,0,1,.934.867c0,.52-.406.852-1.059,1.352S26.82-1.289,26.82-.355V0h3.555V-.777H27.77c.016-.219.59-.656,1.035-.992.7-.531,1.484-.961,1.484-1.984A1.646,1.646,0,0,0,28.5-5.383,1.875,1.875,0,0,0,26.742-4.148ZM31.887,0h.82V-5.3H30.875v.742h1.012Zm7.09-5.973h-.84L35.07,1.563h.836ZM41.793,0h.82V-5.3H40.781v.742h1.012Zm3.672-1.848a1.4,1.4,0,0,0,1.258-.625c-.035,1.188-.719,1.8-1.59,1.8a1.874,1.874,0,0,1-.988-.3l-.277.7a2.3,2.3,0,0,0,1.32.359c1.648,0,2.371-1.211,2.371-2.922,0-1.4-.6-2.539-2.043-2.539a1.737,1.737,0,0,0-1.91,1.8A1.69,1.69,0,0,0,45.465-1.848Zm.082-2.82A1.03,1.03,0,0,1,46.59-3.6a1,1,0,0,1-1.047,1.023.968.968,0,0,1-1.1-1.035A1.009,1.009,0,0,1,45.547-4.668Zm7.973-1.3h-.84L49.613,1.563h.836ZM56.336,0h.82V-5.3H55.324v.742h1.012Zm1.691-1.367h2.52V0h.809V-1.371h.781V-2.09h-.781V-5.3h-.969L58.027-2.051Zm2.52-2.926v2.2H58.98Zm7.426-1.68h-.84L64.066,1.563H64.9ZM72.137.078c1.293,0,2.113-1.066,2.113-2.73s-.82-2.73-2.113-2.73-2.117,1.07-2.117,2.73S70.844.078,72.137.078Zm0-4.687c.773,0,1.293.758,1.293,1.957S72.91-.7,72.137-.7s-1.3-.75-1.3-1.953S71.359-4.609,72.137-4.609Zm5,4.688c1.293,0,2.113-1.066,2.113-2.73s-.82-2.73-2.113-2.73-2.117,1.07-2.117,2.73S75.84.078,77.133.078Zm0-4.687c.773,0,1.293.758,1.293,1.957S77.906-.7,77.133-.7s-1.3-.75-1.3-1.953S76.355-4.609,77.133-4.609Z" transform="translate(0 20.498)" fill="#42454a"/>
          <path id="Path_5257" data-name="Path 5257" d="M.688-5.3V0h.82V-2.082H2.832L4.031,0h.953L3.7-2.2a1.529,1.529,0,0,0,1.074-1.5A1.6,1.6,0,0,0,2.969-5.3Zm2.242.738c.652,0,.988.344.988.871s-.336.879-.988.879H1.508v-1.75ZM8.25.078a2.449,2.449,0,0,0,2.57-2.543,2.768,2.768,0,0,0-.016-.309H8.125v.742H9.953A1.582,1.582,0,0,1,8.25-.7,1.858,1.858,0,0,1,6.359-2.652,1.847,1.847,0,0,1,8.23-4.605a1.9,1.9,0,0,1,1.629.871L10.5-4.18a2.66,2.66,0,0,0-2.266-1.2A2.686,2.686,0,0,0,5.5-2.652,2.7,2.7,0,0,0,8.25.078Zm6-.078a1.565,1.565,0,0,0,1.66-1.535,1.3,1.3,0,0,0-.781-1.215,1.252,1.252,0,0,0,.582-1.07A1.5,1.5,0,0,0,14.1-5.3H11.809V0ZM12.633-3.047V-4.574H14.1a.761.761,0,0,1,.789.773.751.751,0,0,1-.789.754Zm0,.691h1.621a.821.821,0,0,1,.848.8.809.809,0,0,1-.848.816H12.633Zm4.121-.992a.469.469,0,0,0,.477.477.472.472,0,0,0,.48-.477.475.475,0,0,0-.48-.48A.472.472,0,0,0,16.754-3.348Zm0,2.949a.469.469,0,0,0,.477.477.472.472,0,0,0,.48-.477.475.475,0,0,0-.48-.48A.472.472,0,0,0,16.754-.4Zm3.574-3.75.691.332a1.157,1.157,0,0,1,1.063-.789.86.86,0,0,1,.934.867c0,.52-.406.852-1.059,1.352s-1.551,1.1-1.551,2.031V0h3.555V-.777H21.355c.016-.219.59-.656,1.035-.992.7-.531,1.484-.961,1.484-1.984a1.646,1.646,0,0,0-1.793-1.629A1.875,1.875,0,0,0,20.328-4.148ZM26.82.078c1.293,0,2.113-1.066,2.113-2.73s-.82-2.73-2.113-2.73S24.7-4.312,24.7-2.652,25.527.078,26.82.078Zm0-4.687c.773,0,1.293.758,1.293,1.957S27.594-.7,26.82-.7s-1.3-.75-1.3-1.953S26.043-4.609,26.82-4.609ZM31.793.078a1.763,1.763,0,0,0,1.879-1.8,1.7,1.7,0,0,0-1.84-1.734,1.517,1.517,0,0,0-1.316.625c.066-1.3.7-1.809,1.609-1.809a2.091,2.091,0,0,1,1.008.258l.238-.7a2.452,2.452,0,0,0-1.262-.3c-1.676,0-2.41,1.211-2.41,2.922C29.7-1.059,30.313.078,31.793.078Zm-.07-2.809A.99.99,0,0,1,32.832-1.7,1.025,1.025,0,0,1,31.738-.637a1.039,1.039,0,0,1-1.09-1.07A1,1,0,0,1,31.723-2.73Zm7.816-3.242H38.7L35.633,1.563h.836ZM41.5-4.148l.691.332a1.157,1.157,0,0,1,1.063-.789.86.86,0,0,1,.934.867c0,.52-.406.852-1.059,1.352s-1.551,1.1-1.551,2.031V0h3.555V-.777H42.523c.016-.219.59-.656,1.035-.992.7-.531,1.484-.961,1.484-1.984A1.646,1.646,0,0,0,43.25-5.383,1.875,1.875,0,0,0,41.5-4.148ZM47.988.078c1.293,0,2.113-1.066,2.113-2.73s-.82-2.73-2.113-2.73-2.117,1.07-2.117,2.73S46.7.078,47.988.078Zm0-4.687c.773,0,1.293.758,1.293,1.957S48.762-.7,47.988-.7s-1.3-.75-1.3-1.953S47.211-4.609,47.988-4.609Zm5,4.688c1.293,0,2.113-1.066,2.113-2.73s-.82-2.73-2.113-2.73-2.117,1.07-2.117,2.73S51.691.078,52.984.078Zm0-4.687c.773,0,1.293.758,1.293,1.957S53.758-.7,52.984-.7s-1.3-.75-1.3-1.953S52.207-4.609,52.984-4.609Zm8.074-1.363h-.84L57.152,1.563h.836Zm1.957,1.824.691.332a1.157,1.157,0,0,1,1.063-.789.86.86,0,0,1,.934.867c0,.52-.406.852-1.059,1.352s-1.551,1.1-1.551,2.031V0h3.555V-.777H64.043c.016-.219.59-.656,1.035-.992.7-.531,1.484-.961,1.484-1.984A1.646,1.646,0,0,0,64.77-5.383,1.875,1.875,0,0,0,63.016-4.148ZM69.508.078c1.293,0,2.113-1.066,2.113-2.73s-.82-2.73-2.113-2.73-2.117,1.07-2.117,2.73S68.215.078,69.508.078Zm0-4.687c.773,0,1.293.758,1.293,1.957S70.281-.7,69.508-.7s-1.3-.75-1.3-1.953S68.73-4.609,69.508-4.609Zm2.8,3.5A1.929,1.929,0,0,0,74.172.078a1.628,1.628,0,0,0,1.789-1.551,1.293,1.293,0,0,0-.887-1.242,1.238,1.238,0,0,0,.762-1.172,1.581,1.581,0,0,0-1.777-1.5A1.847,1.847,0,0,0,72.3-4.23l.684.367a1.2,1.2,0,0,1,1.086-.762c.543,0,.922.309.922.75a.849.849,0,0,1-.957.832h-.66v.715h.66c.641,0,1.082.344,1.082.844a.864.864,0,0,1-.965.793,1.232,1.232,0,0,1-1.164-.8Z" transform="translate(0 30.636)" fill="#42454a"/>
          <path id="Path_5256" data-name="Path 5256" d="M.117-5.3,1.594,0H2.918L3.98-3.93,5.047,0H6.371L7.848-5.3H7.023L5.707-.738,4.422-5.219H3.543L2.258-.738.938-5.3ZM8.652,0h3.8V-.746H9.473V-2.352h2.488V-3.1H9.473V-4.559h2.9V-5.3H8.652Zm7.273,0a1.565,1.565,0,0,0,1.66-1.535A1.3,1.3,0,0,0,16.8-2.75a1.252,1.252,0,0,0,.582-1.07A1.5,1.5,0,0,0,15.77-5.3H13.48V0ZM14.3-3.047V-4.574H15.77a.761.761,0,0,1,.789.773.751.751,0,0,1-.789.754Zm0,.691h1.621a.821.821,0,0,1,.848.8.809.809,0,0,1-.848.816H14.3Zm4.121-.992a.469.469,0,0,0,.477.477.472.472,0,0,0,.48-.477.475.475,0,0,0-.48-.48A.472.472,0,0,0,18.426-3.348Zm0,2.949A.469.469,0,0,0,18.9.078a.472.472,0,0,0,.48-.477.475.475,0,0,0-.48-.48A.472.472,0,0,0,18.426-.4Zm5.586.477a1.957,1.957,0,0,0,1.734-1.02l-.582-.41a1.308,1.308,0,0,1-1.152.7A1.194,1.194,0,0,1,22.8-1.879,1.186,1.186,0,0,1,24.027-3.1a1.288,1.288,0,0,1,1.125.707l.6-.406a1.908,1.908,0,0,0-1.707-1.027,1.961,1.961,0,0,0-2.02,1.949A1.941,1.941,0,0,0,24.012.078Zm2.27-1.949A1.905,1.905,0,0,0,28.246.078a1.933,1.933,0,0,0,1.7-.953l-.57-.414a1.261,1.261,0,0,1-1.125.641,1.106,1.106,0,0,1-1.164-1h2.91a1.889,1.889,0,0,0,.031-.359,1.751,1.751,0,0,0-1.8-1.816A1.885,1.885,0,0,0,26.281-1.871Zm.82-.359a1.09,1.09,0,0,1,1.109-.9,1,1,0,0,1,1.027.9ZM32.652.078a1.957,1.957,0,0,0,1.734-1.02l-.582-.41a1.308,1.308,0,0,1-1.152.7,1.194,1.194,0,0,1-1.207-1.23A1.186,1.186,0,0,1,32.668-3.1a1.288,1.288,0,0,1,1.125.707l.6-.406a1.908,1.908,0,0,0-1.707-1.027,1.961,1.961,0,0,0-2.02,1.949A1.941,1.941,0,0,0,32.652.078Zm4.273,0c1.164,0,1.934-.625,1.934-1.566a1.333,1.333,0,0,0-.93-1.3,1.194,1.194,0,0,0,.734-1.148c0-.883-.687-1.457-1.738-1.457S35.2-4.816,35.2-3.934a1.2,1.2,0,0,0,.7,1.145A1.337,1.337,0,0,0,35-1.488C35-.547,35.777.078,36.926.078ZM36.012-3.9a.813.813,0,0,1,.914-.766c.566,0,.93.332.93.766,0,.477-.363.781-.93.781S36.012-3.422,36.012-3.9Zm.914,1.488c.688,0,1.121.336,1.121.867,0,.516-.434.9-1.121.9-.668,0-1.105-.383-1.105-.9C35.82-2.074,36.258-2.41,36.926-2.41ZM41.531.078a1.957,1.957,0,0,0,1.734-1.02l-.582-.41a1.308,1.308,0,0,1-1.152.7,1.194,1.194,0,0,1-1.207-1.23A1.186,1.186,0,0,1,41.547-3.1a1.288,1.288,0,0,1,1.125.707l.6-.406a1.908,1.908,0,0,0-1.707-1.027,1.961,1.961,0,0,0-2.02,1.949A1.941,1.941,0,0,0,41.531.078ZM44.105,0h.773V-.512a1.587,1.587,0,0,0,1.336.59A1.875,1.875,0,0,0,48.1-1.895a1.842,1.842,0,0,0-1.883-1.934,1.587,1.587,0,0,0-1.336.59V-5.5h-.773Zm.777-1.895a1.212,1.212,0,0,1,1.238-1.238,1.181,1.181,0,0,1,1.2,1.238,1.214,1.214,0,0,1-1.2,1.277A1.242,1.242,0,0,1,44.883-1.895Z" transform="translate(0 40.773)" fill="#42454a"/>
        </g>
      </g>
      <g id="Group_6701" data-name="Group 6701" transform="translate(180.208 159.846)">
        <path id="Path_5265" data-name="Path 5265" d="M5.767-1.348H2.4V-6.631H.8V0H5.767Zm.714-4.78a.8.8,0,0,0,.84.84.807.807,0,0,0,.85-.84.809.809,0,0,0-.85-.845A.8.8,0,0,0,6.48-6.128Zm.1,1.44V0H8.116V-4.687ZM9.191,1.035a3.047,3.047,0,0,0,2.373,1.016c1.309,0,2.729-.669,2.729-2.217V-4.687H12.8l-.049.493a1.722,1.722,0,0,0-1.382-.591A2.256,2.256,0,0,0,9.206-2.339,2.247,2.247,0,0,0,11.374.1a1.708,1.708,0,0,0,1.382-.591v.264c0,.7-.688.962-1.211.962A1.921,1.921,0,0,1,10.1.122ZM11.74-3.418a1,1,0,0,1,1.011,1.079A1,1,0,0,1,11.74-1.26a1,1,0,0,1-1.011-1.079A1,1,0,0,1,11.74-3.418ZM17.21,0V-2.607a.744.744,0,0,1,.781-.771.756.756,0,0,1,.786.771V0h1.538V-3.047a1.682,1.682,0,0,0-1.733-1.738,1.886,1.886,0,0,0-1.377.5V-6.875H15.667V0Zm3.824-3.433h.747V-1.67A1.634,1.634,0,0,0,23.632.1a3,3,0,0,0,1.245-.264l-.107-1.25a2.265,2.265,0,0,1-.757.161c-.405,0-.693-.156-.693-.664V-3.433h1.372V-4.687H23.27v-1.5H21.781v1.5h-.747Zm6.677.112A3.4,3.4,0,0,0,31.207.1,3.15,3.15,0,0,0,34.532-3a6.924,6.924,0,0,0-.029-.693H31.051v1.348H32.8a1.547,1.547,0,0,1-1.592.938A1.8,1.8,0,0,1,29.356-3.32a1.8,1.8,0,0,1,1.851-1.9,1.923,1.923,0,0,1,1.611.9l1.235-.913a3.5,3.5,0,0,0-2.847-1.489A3.392,3.392,0,0,0,27.711-3.32ZM37.1,0V-2.256c0-.874.493-1.191,1.074-1.191a1.792,1.792,0,0,1,.591.1l.093-1.343a1.848,1.848,0,0,0-.571-.1,1.315,1.315,0,0,0-1.226.737l-.049-.64h-1.45V0Zm3.873.1a1.555,1.555,0,0,0,1.25-.576V0h1.46V-2.783c0-1.25-.859-2-2.285-2a2.888,2.888,0,0,0-2.109.967l.85.913a1.546,1.546,0,0,1,1.128-.522c.557,0,.879.269.879.635V-2.7a3.542,3.542,0,0,0-.937-.122c-1.064,0-1.982.562-1.982,1.494C39.221-.439,39.978.1,40.969.1ZM40.7-1.421c0-.3.3-.469.781-.469a1.83,1.83,0,0,1,.664.122.792.792,0,0,1-.835.815C40.95-.952,40.7-1.143,40.7-1.421ZM46.161,0a.918.918,0,0,1-.913.718A1.349,1.349,0,0,1,44.7.6l-.21,1.211a2.3,2.3,0,0,0,1.011.244A2.051,2.051,0,0,0,47.494.688l2.173-5.376H47.948l-.967,3.135L45.99-4.687H44.276Z" transform="translate(0 5)" fill="#42454a"/>
        <g id="Group-5" data-name="Group" transform="translate(0 9.917)">
          <path id="Path_5264" data-name="Path 5264" d="M1.723,0v-1.82H2.984a1.733,1.733,0,0,0,1.9-1.73,1.724,1.724,0,0,0-1.9-1.75H.664V0Zm0-4.387h1.2a.8.8,0,0,1,.883.836.8.8,0,0,1-.883.816h-1.2ZM6.77.078a1.242,1.242,0,0,0,1.063-.5V0h.953V-2.309c0-.937-.684-1.52-1.781-1.52a2.053,2.053,0,0,0-1.6.781l.574.574a1.328,1.328,0,0,1,.992-.473.74.74,0,0,1,.813.715v.086A2.456,2.456,0,0,0,7-2.273c-1,0-1.645.492-1.645,1.2S5.918.078,6.77.078Zm.3-1.684a1.747,1.747,0,0,1,.719.145.8.8,0,0,1-.859.793c-.383,0-.625-.18-.625-.461S6.609-1.605,7.066-1.605ZM10.871,0V-2.1a.781.781,0,0,1,.832-.8.738.738,0,0,1,.777.8V0h1V-2.355A1.4,1.4,0,0,0,12-3.828a1.429,1.429,0,0,0-1.156.512l-.02-.434H9.871V0Zm3.84-2.918V-1.23A1.224,1.224,0,0,0,16.09.078,2.286,2.286,0,0,0,17-.109L16.9-.941a1.779,1.779,0,0,1-.637.129.5.5,0,0,1-.555-.562V-2.918h1.1V-3.75H15.688v-1.2h-.973v1.2h-.637v.832Zm4.6,3a1.932,1.932,0,0,0,2-1.953,1.934,1.934,0,0,0-2-1.953,1.937,1.937,0,0,0-2,1.953A1.934,1.934,0,0,0,19.313.078ZM18.3-1.875a1,1,0,0,1,1.008-1.043A.993.993,0,0,1,20.32-1.875.994.994,0,0,1,19.313-.828,1,1,0,0,1,18.3-1.875ZM23.176,0V-2.1a.781.781,0,0,1,.832-.8.738.738,0,0,1,.777.8V0h1V-2.355A1.4,1.4,0,0,0,24.3-3.828a1.429,1.429,0,0,0-1.156.512l-.02-.434h-.953V0Zm5.4.082a1.934,1.934,0,0,0,1.668-.9l-.711-.531a1.1,1.1,0,0,1-.934.527.987.987,0,0,1-1-.75h2.711A2.72,2.72,0,0,0,30.344-2a1.731,1.731,0,0,0-1.816-1.828A1.872,1.872,0,0,0,26.6-1.879,1.9,1.9,0,0,0,28.574.082Zm-.961-2.328a.881.881,0,0,1,.926-.738.842.842,0,0,1,.871.738ZM35.656.078A2.741,2.741,0,0,0,38.039-1.25l-.777-.562A1.892,1.892,0,0,1,35.656-.9a1.649,1.649,0,0,1-1.668-1.754,1.63,1.63,0,0,1,1.641-1.754,1.757,1.757,0,0,1,1.543.941L38-4.059a2.783,2.783,0,0,0-2.375-1.324,2.671,2.671,0,0,0-2.723,2.73A2.7,2.7,0,0,0,35.656.078Zm4.855,0a1.932,1.932,0,0,0,2-1.953,1.934,1.934,0,0,0-2-1.953,1.937,1.937,0,0,0-2,1.953A1.934,1.934,0,0,0,40.512.078ZM39.5-1.875a1,1,0,0,1,1.008-1.043A.993.993,0,0,1,41.52-1.875.994.994,0,0,1,40.512-.828,1,1,0,0,1,39.5-1.875ZM45.1.078a1.932,1.932,0,0,0,2-1.953,1.934,1.934,0,0,0-2-1.953,1.937,1.937,0,0,0-2,1.953A1.934,1.934,0,0,0,45.1.078ZM44.094-1.875A1,1,0,0,1,45.1-2.918a.993.993,0,0,1,1.008,1.043A.994.994,0,0,1,45.1-.828,1,1,0,0,1,44.094-1.875ZM48.965-5.5h-1V0h1ZM54.547.078a2.47,2.47,0,0,0,2.586-2.543,3.927,3.927,0,0,0-.02-.426H54.441v.91h1.605A1.42,1.42,0,0,1,54.547-.9a1.649,1.649,0,0,1-1.668-1.754A1.63,1.63,0,0,1,54.52-4.406a1.743,1.743,0,0,1,1.492.863l.832-.594A2.792,2.792,0,0,0,54.52-5.383,2.671,2.671,0,0,0,51.8-2.652,2.7,2.7,0,0,0,54.547.078ZM57.977,0h1V-1.922c0-.773.465-1.012.906-1.012a1.405,1.405,0,0,1,.465.086l.078-.895a1.519,1.519,0,0,0-.488-.086,1.042,1.042,0,0,0-.977.59l-.02-.512h-.969Zm4.188.078a1.242,1.242,0,0,0,1.063-.5V0h.953V-2.309c0-.937-.684-1.52-1.781-1.52a2.053,2.053,0,0,0-1.6.781l.574.574a1.328,1.328,0,0,1,.992-.473.74.74,0,0,1,.813.715v.086a2.456,2.456,0,0,0-.789-.129c-1,0-1.645.492-1.645,1.2S61.313.078,62.164.078Zm.3-1.684a1.747,1.747,0,0,1,.719.145.8.8,0,0,1-.859.793c-.383,0-.625-.18-.625-.461S62-1.605,62.461-1.605ZM66.23,0A.874.874,0,0,1,65.4.77a1.273,1.273,0,0,1-.473-.1l-.125.8a1.621,1.621,0,0,0,.715.164A1.58,1.58,0,0,0,67.082.512l1.77-4.262H67.738L66.77-1.02l-.98-2.73H64.68Zm5.723,0h1.055V-5.3H70.824v.926h1.129Zm6.734.078A2.741,2.741,0,0,0,81.07-1.25l-.777-.562A1.892,1.892,0,0,1,78.688-.9,1.649,1.649,0,0,1,77.02-2.652,1.63,1.63,0,0,1,78.66-4.406a1.757,1.757,0,0,1,1.543.941l.832-.594A2.783,2.783,0,0,0,78.66-5.383a2.671,2.671,0,0,0-2.723,2.73A2.7,2.7,0,0,0,78.688.078Z" transform="translate(0 8)" fill="#42454a"/>
          <path id="Path_5263" data-name="Path 5263" d="M.34-2.652A2.7,2.7,0,0,0,3.086.078,2.7,2.7,0,0,0,5.418-1.211L4.8-1.637A2.023,2.023,0,0,1,3.086-.7,1.855,1.855,0,0,1,1.2-2.652,1.844,1.844,0,0,1,3.066-4.605a1.957,1.957,0,0,1,1.7.961L5.4-4.09A2.7,2.7,0,0,0,3.066-5.383,2.686,2.686,0,0,0,.34-2.652ZM6.309,0h.828V-3.8L8.82-.375h.586L11.09-3.8V0h.828V-5.3h-.969L9.113-1.531,7.281-5.3H6.309Zm6.355-5.3,2.012,3.266V0h.816V-2.039L17.5-5.3h-.977l-1.445,2.4L13.641-5.3ZM18.25,0h.82V-1.6l.918-.988L21.691,0h1L20.566-3.141,22.559-5.3H21.5L19.07-2.668V-5.3h-.82Zm4.918-3.348a.469.469,0,0,0,.477.477.472.472,0,0,0,.48-.477.475.475,0,0,0-.48-.48A.472.472,0,0,0,23.168-3.348Zm0,2.949a.469.469,0,0,0,.477.477.472.472,0,0,0,.48-.477.475.475,0,0,0-.48-.48A.472.472,0,0,0,23.168-.4ZM27.6,0h.82V-5.3H26.59v.742H27.6Zm4.012.078c1.293,0,2.113-1.066,2.113-2.73s-.82-2.73-2.113-2.73S29.5-4.312,29.5-2.652,30.32.078,31.613.078Zm0-4.687c.773,0,1.293.758,1.293,1.957S32.387-.7,31.613-.7s-1.3-.75-1.3-1.953S30.836-4.609,31.613-4.609Zm8.074-1.363h-.84L35.781,1.563h.836Zm1.875.668v.777h2.484A20.941,20.941,0,0,0,41.914,0H42.8a23.015,23.015,0,0,1,2.18-4.633V-5.3Zm9.152-.668h-.84L46.809,1.563h.836ZM52.68-1.113A1.929,1.929,0,0,0,54.547.078a1.628,1.628,0,0,0,1.789-1.551,1.293,1.293,0,0,0-.887-1.242,1.238,1.238,0,0,0,.762-1.172,1.581,1.581,0,0,0-1.777-1.5A1.847,1.847,0,0,0,52.68-4.23l.684.367a1.2,1.2,0,0,1,1.086-.762c.543,0,.922.309.922.75a.849.849,0,0,1-.957.832h-.66v.715h.66c.641,0,1.082.344,1.082.844a.864.864,0,0,1-.965.793,1.232,1.232,0,0,1-1.164-.8ZM62.3-5.973h-.84L58.391,1.563h.836ZM66.461.078c1.293,0,2.113-1.066,2.113-2.73s-.82-2.73-2.113-2.73-2.117,1.07-2.117,2.73S65.168.078,66.461.078Zm0-4.687c.773,0,1.293.758,1.293,1.957S67.234-.7,66.461-.7s-1.3-.75-1.3-1.953S65.684-4.609,66.461-4.609Zm5,4.688c1.293,0,2.113-1.066,2.113-2.73s-.82-2.73-2.113-2.73-2.117,1.07-2.117,2.73S70.164.078,71.457.078Zm0-4.687c.773,0,1.293.758,1.293,1.957S72.23-.7,71.457-.7s-1.3-.75-1.3-1.953S70.68-4.609,71.457-4.609Z" transform="translate(0 20.498)" fill="#42454a"/>
          <path id="Path_5262" data-name="Path 5262" d="M.688-5.3V0h.82V-2.082H2.832L4.031,0h.953L3.7-2.2a1.529,1.529,0,0,0,1.074-1.5A1.6,1.6,0,0,0,2.969-5.3Zm2.242.738c.652,0,.988.344.988.871s-.336.879-.988.879H1.508v-1.75ZM8.25.078a2.449,2.449,0,0,0,2.57-2.543,2.768,2.768,0,0,0-.016-.309H8.125v.742H9.953A1.582,1.582,0,0,1,8.25-.7,1.858,1.858,0,0,1,6.359-2.652,1.847,1.847,0,0,1,8.23-4.605a1.9,1.9,0,0,1,1.629.871L10.5-4.18a2.66,2.66,0,0,0-2.266-1.2A2.686,2.686,0,0,0,5.5-2.652,2.7,2.7,0,0,0,8.25.078Zm6-.078a1.565,1.565,0,0,0,1.66-1.535,1.3,1.3,0,0,0-.781-1.215,1.252,1.252,0,0,0,.582-1.07A1.5,1.5,0,0,0,14.1-5.3H11.809V0ZM12.633-3.047V-4.574H14.1a.761.761,0,0,1,.789.773.751.751,0,0,1-.789.754Zm0,.691h1.621a.821.821,0,0,1,.848.8.809.809,0,0,1-.848.816H12.633Zm4.121-.992a.469.469,0,0,0,.477.477.472.472,0,0,0,.48-.477.475.475,0,0,0-.48-.48A.472.472,0,0,0,16.754-3.348Zm0,2.949a.469.469,0,0,0,.477.477.472.472,0,0,0,.48-.477.475.475,0,0,0-.48-.48A.472.472,0,0,0,16.754-.4Zm3.574-3.75.691.332a1.157,1.157,0,0,1,1.063-.789.86.86,0,0,1,.934.867c0,.52-.406.852-1.059,1.352s-1.551,1.1-1.551,2.031V0h3.555V-.777H21.355c.016-.219.59-.656,1.035-.992.7-.531,1.484-.961,1.484-1.984a1.646,1.646,0,0,0-1.793-1.629A1.875,1.875,0,0,0,20.328-4.148Zm4.293,3.035A1.929,1.929,0,0,0,26.488.078a1.628,1.628,0,0,0,1.789-1.551,1.293,1.293,0,0,0-.887-1.242,1.238,1.238,0,0,0,.762-1.172,1.581,1.581,0,0,0-1.777-1.5A1.847,1.847,0,0,0,24.621-4.23l.684.367a1.2,1.2,0,0,1,1.086-.762c.543,0,.922.309.922.75a.849.849,0,0,1-.957.832H25.7v.715h.66c.641,0,1.082.344,1.082.844a.864.864,0,0,1-.965.793,1.232,1.232,0,0,1-1.164-.8Zm4.34,0A1.929,1.929,0,0,0,30.828.078a1.628,1.628,0,0,0,1.789-1.551,1.293,1.293,0,0,0-.887-1.242,1.238,1.238,0,0,0,.762-1.172,1.581,1.581,0,0,0-1.777-1.5A1.847,1.847,0,0,0,28.961-4.23l.684.367a1.2,1.2,0,0,1,1.086-.762c.543,0,.922.309.922.75a.849.849,0,0,1-.957.832h-.66v.715h.66c.641,0,1.082.344,1.082.844a.864.864,0,0,1-.965.793,1.232,1.232,0,0,1-1.164-.8Zm9.617-4.859h-.84L34.672,1.563h.836Zm1.957,1.824.691.332a1.157,1.157,0,0,1,1.063-.789.86.86,0,0,1,.934.867c0,.52-.406.852-1.059,1.352s-1.551,1.1-1.551,2.031V0h3.555V-.777H41.563c.016-.219.59-.656,1.035-.992.7-.531,1.484-.961,1.484-1.984a1.646,1.646,0,0,0-1.793-1.629A1.875,1.875,0,0,0,40.535-4.148Zm4.293,3.035A1.929,1.929,0,0,0,46.7.078a1.628,1.628,0,0,0,1.789-1.551A1.293,1.293,0,0,0,47.6-2.715a1.238,1.238,0,0,0,.762-1.172,1.581,1.581,0,0,0-1.777-1.5A1.847,1.847,0,0,0,44.828-4.23l.684.367A1.2,1.2,0,0,1,46.6-4.625c.543,0,.922.309.922.75a.849.849,0,0,1-.957.832H45.9v.715h.66c.641,0,1.082.344,1.082.844a.864.864,0,0,1-.965.793,1.232,1.232,0,0,1-1.164-.8ZM49.16-4.148l.691.332a1.157,1.157,0,0,1,1.063-.789.86.86,0,0,1,.934.867c0,.52-.406.852-1.059,1.352s-1.551,1.1-1.551,2.031V0h3.555V-.777H50.188c.016-.219.59-.656,1.035-.992.7-.531,1.484-.961,1.484-1.984a1.646,1.646,0,0,0-1.793-1.629A1.875,1.875,0,0,0,49.16-4.148Zm9.57-1.824h-.84L54.824,1.563h.836Zm1.957,1.824.691.332a1.157,1.157,0,0,1,1.063-.789.86.86,0,0,1,.934.867c0,.52-.406.852-1.059,1.352s-1.551,1.1-1.551,2.031V0H64.32V-.777H61.715c.016-.219.59-.656,1.035-.992.7-.531,1.484-.961,1.484-1.984a1.646,1.646,0,0,0-1.793-1.629A1.875,1.875,0,0,0,60.688-4.148ZM64.98-1.113A1.929,1.929,0,0,0,66.848.078a1.628,1.628,0,0,0,1.789-1.551,1.293,1.293,0,0,0-.887-1.242,1.238,1.238,0,0,0,.762-1.172,1.581,1.581,0,0,0-1.777-1.5A1.847,1.847,0,0,0,64.98-4.23l.684.367a1.2,1.2,0,0,1,1.086-.762c.543,0,.922.309.922.75a.849.849,0,0,1-.957.832h-.66v.715h.66c.641,0,1.082.344,1.082.844a.864.864,0,0,1-.965.793,1.232,1.232,0,0,1-1.164-.8ZM69.23-5.3v.777h2.484A20.941,20.941,0,0,0,69.582,0h.891a23.015,23.015,0,0,1,2.18-4.633V-5.3Z" transform="translate(0 30.636)" fill="#42454a"/>
          <path id="Path_5261" data-name="Path 5261" d="M.117-5.3,1.594,0H2.918L3.98-3.93,5.047,0H6.371L7.848-5.3H7.023L5.707-.738,4.422-5.219H3.543L2.258-.738.938-5.3ZM8.82,0h3.8V-.746H9.641V-2.352h2.488V-3.1H9.641V-4.559h2.9V-5.3H8.82Zm7.441,0a1.565,1.565,0,0,0,1.66-1.535,1.3,1.3,0,0,0-.781-1.215,1.252,1.252,0,0,0,.582-1.07A1.5,1.5,0,0,0,16.106-5.3H13.816V0ZM14.641-3.047V-4.574h1.465a.761.761,0,0,1,.789.773.751.751,0,0,1-.789.754Zm0,.691h1.621a.821.821,0,0,1,.848.8.809.809,0,0,1-.848.816H14.641Zm4.289-.992a.469.469,0,0,0,.477.477.472.472,0,0,0,.48-.477.475.475,0,0,0-.48-.48A.472.472,0,0,0,18.93-3.348Zm0,2.949a.469.469,0,0,0,.477.477.472.472,0,0,0,.48-.477.475.475,0,0,0-.48-.48A.472.472,0,0,0,18.93-.4Zm3.938-1.473A1.905,1.905,0,0,0,24.832.078a1.933,1.933,0,0,0,1.7-.953l-.57-.414a1.261,1.261,0,0,1-1.125.641,1.106,1.106,0,0,1-1.164-1h2.91a1.889,1.889,0,0,0,.031-.359,1.751,1.751,0,0,0-1.8-1.816A1.885,1.885,0,0,0,22.867-1.871Zm.82-.359a1.09,1.09,0,0,1,1.109-.9,1,1,0,0,1,1.027.9Zm5.574.383a1.4,1.4,0,0,0,1.258-.625c-.035,1.188-.719,1.8-1.59,1.8a1.874,1.874,0,0,1-.988-.3l-.277.7a2.3,2.3,0,0,0,1.32.359c1.648,0,2.371-1.211,2.371-2.922,0-1.4-.6-2.539-2.043-2.539a1.737,1.737,0,0,0-1.91,1.8A1.69,1.69,0,0,0,29.262-1.848Zm.082-2.82A1.03,1.03,0,0,1,30.387-3.6,1,1,0,0,1,29.34-2.574a.968.968,0,0,1-1.1-1.035A1.009,1.009,0,0,1,29.344-4.668Zm2.883,2.8A1.905,1.905,0,0,0,34.192.078a1.933,1.933,0,0,0,1.7-.953l-.57-.414a1.261,1.261,0,0,1-1.125.641,1.106,1.106,0,0,1-1.164-1h2.91a1.889,1.889,0,0,0,.031-.359,1.751,1.751,0,0,0-1.8-1.816A1.885,1.885,0,0,0,32.227-1.871Zm.82-.359a1.09,1.09,0,0,1,1.109-.9,1,1,0,0,1,1.027.9ZM38.754.078c1.164,0,1.934-.625,1.934-1.566a1.333,1.333,0,0,0-.93-1.3,1.194,1.194,0,0,0,.734-1.148c0-.883-.687-1.457-1.738-1.457s-1.723.574-1.723,1.457a1.2,1.2,0,0,0,.7,1.145,1.337,1.337,0,0,0-.906,1.3C36.828-.547,37.606.078,38.754.078ZM37.84-3.9a.813.813,0,0,1,.914-.766c.566,0,.93.332.93.766,0,.477-.363.781-.93.781S37.84-3.422,37.84-3.9Zm.914,1.488c.688,0,1.121.336,1.121.867,0,.516-.434.9-1.121.9-.668,0-1.105-.383-1.105-.9C37.649-2.074,38.086-2.41,38.754-2.41Zm2.789.539A1.905,1.905,0,0,0,43.508.078a1.933,1.933,0,0,0,1.7-.953l-.57-.414a1.261,1.261,0,0,1-1.125.641,1.106,1.106,0,0,1-1.164-1h2.91a1.889,1.889,0,0,0,.031-.359,1.751,1.751,0,0,0-1.8-1.816A1.885,1.885,0,0,0,41.543-1.871Zm.82-.359a1.09,1.09,0,0,1,1.109-.9,1,1,0,0,1,1.027.9Zm3.738.336A1.875,1.875,0,0,0,47.985.078a1.587,1.587,0,0,0,1.336-.59V0h.773V-5.5h-.773v2.262a1.587,1.587,0,0,0-1.336-.59A1.842,1.842,0,0,0,46.1-1.895Zm1.977-1.238a1.212,1.212,0,0,1,1.238,1.238A1.242,1.242,0,0,1,48.078-.617a1.214,1.214,0,0,1-1.2-1.277A1.181,1.181,0,0,1,48.078-3.133Z" transform="translate(0 40.773)" fill="#42454a"/>
        </g>
      </g>
    </g>
  </g>
</svg>
