<svg xmlns="http://www.w3.org/2000/svg" xmlns:xlink="http://www.w3.org/1999/xlink" width="335" height="309.253" viewBox="0 0 335 309.253">
  <defs>
    <clipPath id="clip-path">
      <path id="Path_4558" data-name="Path 4558" d="M282-239.01H412.059V-412.7H282Z" transform="translate(-282 412.703)" fill="none"/>
    </clipPath>
    <linearGradient id="linear-gradient" x1="0.396" y1="0.192" x2="0.843" y2="0.192" gradientUnits="objectBoundingBox">
      <stop offset="0" stop-color="#a88457"/>
      <stop offset="0.1" stop-color="#af8c60"/>
      <stop offset="0.2" stop-color="#b5946a"/>
      <stop offset="0.3" stop-color="#bc9d74"/>
      <stop offset="0.4" stop-color="#c3a67f"/>
      <stop offset="0.5" stop-color="#cbaf8b"/>
      <stop offset="0.6" stop-color="#c3a67f"/>
      <stop offset="0.7" stop-color="#bc9d74"/>
      <stop offset="0.8" stop-color="#b5946a"/>
      <stop offset="0.9" stop-color="#af8c60"/>
      <stop offset="1" stop-color="#a88457"/>
    </linearGradient>
  </defs>
  <g id="Group_6668" data-name="Group 6668" transform="translate(-679.383 -519.574)">
    <g id="Group_6667" data-name="Group 6667" transform="translate(679.383 519.574)">
      <path id="Path_4555" data-name="Path 4555" d="M9-239.009H213.941V-412.7H9Z" transform="translate(-9 412.703)" fill="#085a9c"/>
      <path id="Path_4556" data-name="Path 4556" d="M9-45.955H213.941V-181.327H9Z" transform="translate(-9 355.021)" fill="#00305f"/>
      <g id="Group_6666" data-name="Group 6666" transform="translate(204.941 0)" clip-path="url(#clip-path)">
        <g id="Group_6665" data-name="Group 6665" transform="translate(-130.865 -150.482) rotate(29.1)">
          <path id="Path_4557" data-name="Path 4557" d="M0,166.208,298.617,0l153.23,275.3L153.23,441.508Z" fill="url(#linear-gradient)"/>
        </g>
      </g>
      <path id="Path_4559" data-name="Path 4559" d="M282-113.547H412.059v-67.781H282Z" transform="translate(-77.059 355.021)" fill="#a6845a"/>
      <path id="Path_4560" data-name="Path 4560" d="M282-23.259H412.059V-91.038H282Z" transform="translate(-77.059 332.512)" fill="#caae8b"/>
      <g id="Group" transform="translate(12.011 18.092)">
        <path id="Path_5227" data-name="Path 5227" d="M2.877,0V-2.742h1.33L5.713.006h2.08L6.129-2.971a2.538,2.538,0,0,0,1.564-2.4A2.6,2.6,0,0,0,4.975-7.957H.955V0Zm0-6.316H4.559c.732,0,1.16.416,1.16.943a1.026,1.026,0,0,1-1.16.99H2.877ZM8.79-7.354A.963.963,0,0,0,9.8-6.346a.969.969,0,0,0,1.02-1.008A.97.97,0,0,0,9.8-8.367.964.964,0,0,0,8.79-7.354Zm.117,1.729V0h1.846V-5.625ZM14.973.117a3.02,3.02,0,0,0,2.684-1.465l-1.395-1.02a1.419,1.419,0,0,1-1.23.8,1.181,1.181,0,0,1-1.2-1.248,1.176,1.176,0,0,1,1.2-1.23,1.259,1.259,0,0,1,1.189.82l1.424-1.014a2.941,2.941,0,0,0-2.613-1.506,2.9,2.9,0,0,0-3.023,2.93A2.85,2.85,0,0,0,14.973.117ZM20.652,0V-3.129a.893.893,0,0,1,.938-.926.907.907,0,0,1,.943.926V0h1.846V-3.656A2.019,2.019,0,0,0,22.3-5.742a2.263,2.263,0,0,0-1.652.6V-8.25H18.8V0ZM32.894,0a2.231,2.231,0,0,0,2.484-2.174,1.841,1.841,0,0,0-1.33-1.852,2.006,2.006,0,0,0,1.107-1.811c0-1.318-1.043-2.121-2.525-2.121H28.91V0ZM30.838-4.717V-6.346h1.436a.829.829,0,0,1,.879.814.788.788,0,0,1-.82.814Zm0,3.111V-3.24h1.57a.821.821,0,0,1,.879.826.835.835,0,0,1-.879.809ZM38.532-8.25H36.686V0h1.846ZM42.207.176a2.184,2.184,0,0,0,1.74-.709L44.006,0H45.7V-5.625H43.854v3.188a.893.893,0,0,1-.937.926.907.907,0,0,1-.943-.926V-5.625H40.127V-1.91A2.019,2.019,0,0,0,42.207.176ZM46.96-2.812A2.853,2.853,0,0,0,49.984.117a2.86,2.86,0,0,0,2.455-1.225L51.267-2.139a1.689,1.689,0,0,1-1.26.7,1.139,1.139,0,0,1-1.242-.9h3.8a4.359,4.359,0,0,0,.053-.656A2.657,2.657,0,0,0,49.8-5.742,2.758,2.758,0,0,0,46.96-2.812Zm2.895-1.477a1.009,1.009,0,0,1,1.055.867H48.765A1.024,1.024,0,0,1,49.855-4.289Z" transform="translate(0 5)" fill="#fff"/>
        <path id="Path_5222" data-name="Path 5222" d="M.434-3.984a4.08,4.08,0,0,0,4.2,4.1A3.78,3.78,0,0,0,8.619-3.6a8.309,8.309,0,0,0-.035-.832H4.441v1.617h2.1a1.856,1.856,0,0,1-1.91,1.125,2.162,2.162,0,0,1-2.221-2.3A2.155,2.155,0,0,1,4.629-6.27,2.307,2.307,0,0,1,6.563-5.191l1.482-1.1A4.194,4.194,0,0,0,4.629-8.074,4.07,4.07,0,0,0,.434-3.984ZM9.555-2.812A2.9,2.9,0,0,0,12.578.117,2.9,2.9,0,0,0,15.6-2.812a2.9,2.9,0,0,0-3.023-2.93A2.9,2.9,0,0,0,9.555-2.812Zm1.828,0a1.176,1.176,0,0,1,1.2-1.23,1.176,1.176,0,0,1,1.2,1.23,1.181,1.181,0,0,1-1.2,1.248A1.181,1.181,0,0,1,11.383-2.812ZM18.822-8.25H16.977V0h1.846ZM22.834.117a2.372,2.372,0,0,0,1.652-.551L24.545,0h1.787V-8.25H24.539v3.217a2.041,2.041,0,0,0-1.705-.709A2.675,2.675,0,0,0,20.209-2.8,2.661,2.661,0,0,0,22.834.117Zm-.768-2.93A1.2,1.2,0,0,1,23.309-4.09a1.194,1.194,0,0,1,1.2,1.277,1.2,1.2,0,0,1-1.2,1.277A1.223,1.223,0,0,1,22.066-2.812Zm8.592-1.172a4.08,4.08,0,0,0,4.2,4.1A3.78,3.78,0,0,0,38.844-3.6a8.309,8.309,0,0,0-.035-.832H34.666v1.617h2.1a1.856,1.856,0,0,1-1.91,1.125,2.162,2.162,0,0,1-2.221-2.3A2.155,2.155,0,0,1,34.854-6.27a2.307,2.307,0,0,1,1.934,1.078l1.482-1.1a4.194,4.194,0,0,0-3.416-1.787A4.07,4.07,0,0,0,30.658-3.984ZM42.041,0V-2.707c0-1.049.592-1.43,1.289-1.43a2.15,2.15,0,0,1,.709.123l.111-1.611a2.218,2.218,0,0,0-.686-.117,1.578,1.578,0,0,0-1.471.885l-.059-.768H40.2V0Zm4.768.117a1.865,1.865,0,0,0,1.5-.691V0h1.752V-3.34c0-1.5-1.031-2.4-2.742-2.4a3.466,3.466,0,0,0-2.531,1.16l1.02,1.1a1.855,1.855,0,0,1,1.354-.627c.668,0,1.055.322,1.055.762v.111a4.25,4.25,0,0,0-1.125-.146c-1.277,0-2.379.674-2.379,1.793C44.711-.527,45.619.117,46.809.117Zm-.328-1.822c0-.363.363-.562.938-.562a2.2,2.2,0,0,1,.8.146.951.951,0,0,1-1,.979C46.785-1.143,46.481-1.371,46.481-1.705ZM54,.117a2.372,2.372,0,0,0,1.652-.551L55.707,0h1.787V-8.25H55.7v3.217A2.041,2.041,0,0,0,54-5.742,2.675,2.675,0,0,0,51.371-2.8,2.661,2.661,0,0,0,54,.117Zm-.768-2.93A1.2,1.2,0,0,1,54.471-4.09a1.194,1.194,0,0,1,1.2,1.277,1.2,1.2,0,0,1-1.2,1.277A1.223,1.223,0,0,1,53.229-2.812Zm5.939-4.541a.963.963,0,0,0,1.008,1.008A.969.969,0,0,0,61.2-7.354a.97.97,0,0,0-1.02-1.014A.964.964,0,0,0,59.168-7.354Zm.117,1.729V0h1.846V-5.625Zm3.227,2.813A2.853,2.853,0,0,0,65.535.117a2.86,2.86,0,0,0,2.455-1.225L66.819-2.139a1.689,1.689,0,0,1-1.26.7,1.139,1.139,0,0,1-1.242-.9h3.8a4.359,4.359,0,0,0,.053-.656,2.657,2.657,0,0,0-2.812-2.748A2.758,2.758,0,0,0,62.512-2.812Zm2.895-1.477a1.009,1.009,0,0,1,1.055.867H64.317A1.024,1.024,0,0,1,65.407-4.289ZM71.241,0V-3.129a.893.893,0,0,1,.938-.926.907.907,0,0,1,.943.926V0h1.846V-3.656a2.019,2.019,0,0,0-2.08-2.086,2.184,2.184,0,0,0-1.74.709l-.059-.592H69.395V0ZM75.8-4.119h.9V-2A1.961,1.961,0,0,0,78.914.117,3.6,3.6,0,0,0,80.409-.2L80.28-1.7a2.718,2.718,0,0,1-.908.193c-.486,0-.832-.187-.832-.8V-4.119h1.646V-5.625H78.481v-1.8H76.694v1.8h-.9Z" transform="translate(199.649 5)" fill="#fff"/>
        <path id="Path_5219" data-name="Path 5219" d="M4.436,0A4.015,4.015,0,0,0,8.49-3.984,4,4,0,0,0,4.436-7.957H.955V0ZM2.883-1.617V-6.334H4.248A2.245,2.245,0,0,1,6.5-3.984a2.263,2.263,0,0,1-2.25,2.367ZM11.461.117a1.865,1.865,0,0,0,1.5-.691V0h1.752V-3.34c0-1.5-1.031-2.4-2.742-2.4a3.466,3.466,0,0,0-2.531,1.16l1.02,1.1a1.855,1.855,0,0,1,1.354-.627c.668,0,1.055.322,1.055.762v.111a4.25,4.25,0,0,0-1.125-.146c-1.277,0-2.379.674-2.379,1.793C9.363-.527,10.271.117,11.461.117Zm-.328-1.822c0-.363.363-.562.938-.562a2.2,2.2,0,0,1,.8.146.951.951,0,0,1-1,.979C11.438-1.143,11.133-1.371,11.133-1.705ZM18.105,0V-2.707c0-1.049.592-1.43,1.289-1.43a2.15,2.15,0,0,1,.709.123l.111-1.611a2.218,2.218,0,0,0-.686-.117,1.578,1.578,0,0,0-1.471.885L18-5.625H16.26V0Zm3.053-8.25V0H23V-1.6l.51-.5L25.02,0h2.25L24.744-3.246l2.432-2.379H24.768L23-3.85v-4.4ZM30.4-3.984a4.08,4.08,0,0,0,4.2,4.1A3.78,3.78,0,0,0,38.59-3.6a8.309,8.309,0,0,0-.035-.832H34.412v1.617h2.1A1.856,1.856,0,0,1,34.6-1.687a2.162,2.162,0,0,1-2.221-2.3A2.155,2.155,0,0,1,34.6-6.27a2.307,2.307,0,0,1,1.934,1.078l1.482-1.1A4.194,4.194,0,0,0,34.6-8.074,4.07,4.07,0,0,0,30.4-3.984Zm8.953,1.172A2.9,2.9,0,0,0,42.381.117,2.9,2.9,0,0,0,45.4-2.812a2.9,2.9,0,0,0-3.023-2.93A2.9,2.9,0,0,0,39.357-2.812Zm1.828,0a1.176,1.176,0,0,1,1.2-1.23,1.176,1.176,0,0,1,1.2,1.23,1.181,1.181,0,0,1-1.2,1.248A1.181,1.181,0,0,1,41.186-2.812ZM48.457-8.25H46.611V0h1.846ZM52.3.117a2.372,2.372,0,0,0,1.652-.551L54.012,0H55.8V-8.25H54.006v3.217A2.041,2.041,0,0,0,52.3-5.742,2.675,2.675,0,0,0,49.676-2.8,2.661,2.661,0,0,0,52.3.117Zm-.768-2.93A1.2,1.2,0,0,1,52.775-4.09a1.194,1.194,0,0,1,1.2,1.277,1.2,1.2,0,0,1-1.2,1.277A1.223,1.223,0,0,1,51.533-2.812Z" transform="translate(199.649 169.126)" fill="#fff"/>
        <path id="Path_5232" data-name="Path 5232" d="M6.92-1.617H2.883v-6.34H.955V0H6.92Zm.857-5.736A.963.963,0,0,0,8.784-6.346.969.969,0,0,0,9.8-7.354a.97.97,0,0,0-1.02-1.014A.964.964,0,0,0,7.777-7.354Zm.117,1.729V0H9.739V-5.625ZM11.03,1.242a3.657,3.657,0,0,0,2.848,1.219c1.57,0,3.275-.8,3.275-2.66V-5.625H15.366l-.059.592a2.067,2.067,0,0,0-1.658-.709,2.707,2.707,0,0,0-2.6,2.936,2.7,2.7,0,0,0,2.6,2.924,2.049,2.049,0,0,0,1.658-.709v.316c0,.838-.826,1.154-1.453,1.154A2.305,2.305,0,0,1,12.125.146ZM14.088-4.1A1.2,1.2,0,0,1,15.3-2.807a1.2,1.2,0,0,1-1.213,1.295,1.2,1.2,0,0,1-1.213-1.295A1.2,1.2,0,0,1,14.088-4.1ZM20.652,0V-3.129a.893.893,0,0,1,.938-.926.907.907,0,0,1,.943.926V0h1.846V-3.656A2.019,2.019,0,0,0,22.3-5.742a2.263,2.263,0,0,0-1.652.6V-8.25H18.8V0Zm4.589-4.119h.9V-2A1.961,1.961,0,0,0,28.358.117,3.6,3.6,0,0,0,29.852-.2l-.129-1.5a2.718,2.718,0,0,1-.908.193c-.486,0-.832-.187-.832-.8V-4.119h1.646V-5.625H27.924v-1.8H26.137v1.8h-.9Zm8.012.135a4.08,4.08,0,0,0,4.2,4.1A3.78,3.78,0,0,0,41.438-3.6,8.309,8.309,0,0,0,41.4-4.43H37.261v1.617h2.1a1.856,1.856,0,0,1-1.91,1.125,2.162,2.162,0,0,1-2.221-2.3A2.155,2.155,0,0,1,37.448-6.27a2.307,2.307,0,0,1,1.934,1.078l1.482-1.1a4.194,4.194,0,0,0-3.416-1.787A4.07,4.07,0,0,0,33.253-3.984Zm9,1.172A2.9,2.9,0,0,0,45.277.117,2.9,2.9,0,0,0,48.3-2.812a2.9,2.9,0,0,0-3.023-2.93A2.9,2.9,0,0,0,42.254-2.812Zm1.828,0a1.176,1.176,0,0,1,1.2-1.23,1.176,1.176,0,0,1,1.2,1.23,1.181,1.181,0,0,1-1.2,1.248A1.181,1.181,0,0,1,44.082-2.812ZM51.4-8.25H49.556V0H51.4ZM55.293.117a2.372,2.372,0,0,0,1.652-.551L57,0h1.787V-8.25H57v3.217a2.041,2.041,0,0,0-1.705-.709A2.675,2.675,0,0,0,52.668-2.8,2.661,2.661,0,0,0,55.293.117Zm-.768-2.93A1.2,1.2,0,0,1,55.768-4.09a1.194,1.194,0,0,1,1.2,1.277,1.2,1.2,0,0,1-1.2,1.277A1.223,1.223,0,0,1,54.526-2.812Z" transform="translate(199.649 236.906)" fill="#fff"/>
      </g>
      <g id="Group-2" data-name="Group" transform="translate(12.011 28.986)">
        <path id="Path_5226" data-name="Path 5226" d="M1.723,0v-1.82H2.984a1.733,1.733,0,0,0,1.9-1.73,1.724,1.724,0,0,0-1.9-1.75H.664V0Zm0-4.387h1.2a.8.8,0,0,1,.883.836.8.8,0,0,1-.883.816h-1.2ZM6.77.078a1.242,1.242,0,0,0,1.063-.5V0h.953V-2.309c0-.937-.684-1.52-1.781-1.52a2.053,2.053,0,0,0-1.6.781l.574.574a1.328,1.328,0,0,1,.992-.473.74.74,0,0,1,.813.715v.086A2.456,2.456,0,0,0,7-2.273c-1,0-1.645.492-1.645,1.2S5.918.078,6.77.078Zm.3-1.684a1.747,1.747,0,0,1,.719.145.8.8,0,0,1-.859.793c-.383,0-.625-.18-.625-.461S6.609-1.605,7.066-1.605ZM10.871,0V-2.1a.781.781,0,0,1,.832-.8.738.738,0,0,1,.777.8V0h1V-2.355A1.4,1.4,0,0,0,12-3.828a1.429,1.429,0,0,0-1.156.512l-.02-.434H9.871V0Zm3.84-2.918V-1.23A1.224,1.224,0,0,0,16.09.078,2.286,2.286,0,0,0,17-.109L16.9-.941a1.779,1.779,0,0,1-.637.129.5.5,0,0,1-.555-.562V-2.918h1.1V-3.75H15.688v-1.2h-.973v1.2h-.637v.832Zm4.6,3a1.932,1.932,0,0,0,2-1.953,1.934,1.934,0,0,0-2-1.953,1.937,1.937,0,0,0-2,1.953A1.934,1.934,0,0,0,19.313.078ZM18.3-1.875a1,1,0,0,1,1.008-1.043A.993.993,0,0,1,20.32-1.875.994.994,0,0,1,19.313-.828,1,1,0,0,1,18.3-1.875ZM23.176,0V-2.1a.781.781,0,0,1,.832-.8.738.738,0,0,1,.777.8V0h1V-2.355A1.4,1.4,0,0,0,24.3-3.828a1.429,1.429,0,0,0-1.156.512l-.02-.434h-.953V0Zm5.4.082a1.934,1.934,0,0,0,1.668-.9l-.711-.531a1.1,1.1,0,0,1-.934.527.987.987,0,0,1-1-.75h2.711A2.72,2.72,0,0,0,30.344-2a1.731,1.731,0,0,0-1.816-1.828A1.872,1.872,0,0,0,26.6-1.879,1.9,1.9,0,0,0,28.574.082Zm-.961-2.328a.881.881,0,0,1,.926-.738.842.842,0,0,1,.871.738ZM32.777-5.3v.957h2.352a19.818,19.818,0,0,0-2,4.348h1.141a19.146,19.146,0,0,1,2.059-4.516V-5.3Zm5.945,3.973V0h1.012V-1.332h.734v-.9h-.734V-5.3H38.5L36.215-2.148v.816Zm-1.359-.9L38.723-4.1V-2.23Zm5.5,2.309a1.823,1.823,0,0,0,1.973-1.8,1.668,1.668,0,0,0-1.762-1.742,1.416,1.416,0,0,0-.863.258l.125-1.168H44.57V-5.3H41.48l-.312,2.816.723.324a1.3,1.3,0,0,1,.918-.391.851.851,0,0,1,.945.848.85.85,0,0,1-.914.836,1.139,1.139,0,0,1-1.066-.8l-.852.441A1.988,1.988,0,0,0,42.863.078Zm4.43,0a1.823,1.823,0,0,0,1.973-1.8A1.668,1.668,0,0,0,47.5-3.465a1.416,1.416,0,0,0-.863.258l.125-1.168H49V-5.3H45.91L45.6-2.488l.723.324a1.3,1.3,0,0,1,.918-.391.851.851,0,0,1,.945.848.85.85,0,0,1-.914.836,1.139,1.139,0,0,1-1.066-.8l-.852.441A1.988,1.988,0,0,0,47.293.078Zm7.281,0A2.741,2.741,0,0,0,56.957-1.25l-.777-.562A1.892,1.892,0,0,1,54.574-.9a1.649,1.649,0,0,1-1.668-1.754,1.63,1.63,0,0,1,1.641-1.754,1.757,1.757,0,0,1,1.543.941l.832-.594a2.783,2.783,0,0,0-2.375-1.324,2.671,2.671,0,0,0-2.723,2.73A2.7,2.7,0,0,0,54.574.078Z" transform="translate(0 5)" fill="#fff"/>
        <path id="Path_5225" data-name="Path 5225" d="M.34-2.652A2.7,2.7,0,0,0,3.086.078,2.7,2.7,0,0,0,5.418-1.211L4.8-1.637A2.023,2.023,0,0,1,3.086-.7,1.855,1.855,0,0,1,1.2-2.652,1.844,1.844,0,0,1,3.066-4.605a1.957,1.957,0,0,1,1.7.961L5.4-4.09A2.7,2.7,0,0,0,3.066-5.383,2.686,2.686,0,0,0,.34-2.652ZM6.309,0h.828V-3.8L8.82-.375h.586L11.09-3.8V0h.828V-5.3h-.969L9.113-1.531,7.281-5.3H6.309Zm6.355-5.3,2.012,3.266V0h.816V-2.039L17.5-5.3h-.977l-1.445,2.4L13.641-5.3ZM18.25,0h.82V-1.6l.918-.988L21.691,0h1L20.566-3.141,22.559-5.3H21.5L19.07-2.668V-5.3h-.82Zm4.918-3.348a.469.469,0,0,0,.477.477.472.472,0,0,0,.48-.477.475.475,0,0,0-.48-.48A.472.472,0,0,0,23.168-3.348Zm0,2.949a.469.469,0,0,0,.477.477.472.472,0,0,0,.48-.477.475.475,0,0,0-.48-.48A.472.472,0,0,0,23.168-.4Zm5.441-1.449a1.4,1.4,0,0,0,1.258-.625c-.035,1.188-.719,1.8-1.59,1.8a1.874,1.874,0,0,1-.988-.3l-.277.7a2.3,2.3,0,0,0,1.32.359C29.98.078,30.7-1.133,30.7-2.844c0-1.4-.6-2.539-2.043-2.539a1.737,1.737,0,0,0-1.91,1.8A1.69,1.69,0,0,0,28.609-1.848Zm.082-2.82A1.03,1.03,0,0,1,29.734-3.6a1,1,0,0,1-1.047,1.023.968.968,0,0,1-1.1-1.035A1.009,1.009,0,0,1,28.691-4.668ZM33.563.078a1.763,1.763,0,0,0,1.879-1.8A1.7,1.7,0,0,0,33.6-3.457a1.517,1.517,0,0,0-1.316.625c.066-1.3.7-1.809,1.609-1.809a2.091,2.091,0,0,1,1.008.258l.238-.7a2.452,2.452,0,0,0-1.262-.3c-1.676,0-2.41,1.211-2.41,2.922C31.469-1.059,32.082.078,33.563.078Zm-.07-2.809A.99.99,0,0,1,34.6-1.7,1.025,1.025,0,0,1,33.508-.637a1.039,1.039,0,0,1-1.09-1.07A1,1,0,0,1,33.492-2.73Zm7.816-3.242h-.84L37.4,1.563h.836Zm1.875.668v.777h2.484A20.941,20.941,0,0,0,43.535,0h.891a23.015,23.015,0,0,1,2.18-4.633V-5.3Zm6,5.383C50.48.078,51.3-.988,51.3-2.652s-.82-2.73-2.113-2.73-2.117,1.07-2.117,2.73S47.895.078,49.188.078Zm0-4.687c.773,0,1.293.758,1.293,1.957S49.961-.7,49.188-.7s-1.3-.75-1.3-1.953S48.41-4.609,49.188-4.609Zm8.074-1.363h-.84L53.355,1.563h.836ZM60.078,0h.82V-5.3H59.066v.742h1.012ZM64.09.078c1.293,0,2.113-1.066,2.113-2.73s-.82-2.73-2.113-2.73-2.117,1.07-2.117,2.73S62.8.078,64.09.078Zm0-4.687c.773,0,1.293.758,1.293,1.957S64.863-.7,64.09-.7s-1.3-.75-1.3-1.953S63.313-4.609,64.09-4.609Zm8.074-1.363h-.84L68.258,1.563h.836ZM76.328.078c1.293,0,2.113-1.066,2.113-2.73s-.82-2.73-2.113-2.73-2.117,1.07-2.117,2.73S75.035.078,76.328.078Zm0-4.687c.773,0,1.293.758,1.293,1.957S77.1-.7,76.328-.7s-1.3-.75-1.3-1.953S75.551-4.609,76.328-4.609ZM79.895,0h.82V-5.3H78.883v.742h1.012Z" transform="translate(0 21.207)" fill="#fff"/>
        <path id="Path_5224" data-name="Path 5224" d="M.688-5.3V0h.82V-2.082H2.832L4.031,0h.953L3.7-2.2a1.529,1.529,0,0,0,1.074-1.5A1.6,1.6,0,0,0,2.969-5.3Zm2.242.738c.652,0,.988.344.988.871s-.336.879-.988.879H1.508v-1.75ZM8.25.078a2.449,2.449,0,0,0,2.57-2.543,2.768,2.768,0,0,0-.016-.309H8.125v.742H9.953A1.582,1.582,0,0,1,8.25-.7,1.858,1.858,0,0,1,6.359-2.652,1.847,1.847,0,0,1,8.23-4.605a1.9,1.9,0,0,1,1.629.871L10.5-4.18a2.66,2.66,0,0,0-2.266-1.2A2.686,2.686,0,0,0,5.5-2.652,2.7,2.7,0,0,0,8.25.078Zm6-.078a1.565,1.565,0,0,0,1.66-1.535,1.3,1.3,0,0,0-.781-1.215,1.252,1.252,0,0,0,.582-1.07A1.5,1.5,0,0,0,14.1-5.3H11.809V0ZM12.633-3.047V-4.574H14.1a.761.761,0,0,1,.789.773.751.751,0,0,1-.789.754Zm0,.691h1.621a.821.821,0,0,1,.848.8.809.809,0,0,1-.848.816H12.633Zm4.121-.992a.469.469,0,0,0,.477.477.472.472,0,0,0,.48-.477.475.475,0,0,0-.48-.48A.472.472,0,0,0,16.754-3.348Zm0,2.949a.469.469,0,0,0,.477.477.472.472,0,0,0,.48-.477.475.475,0,0,0-.48-.48A.472.472,0,0,0,16.754-.4Zm5.758.477a1.763,1.763,0,0,0,1.879-1.8,1.7,1.7,0,0,0-1.84-1.734,1.517,1.517,0,0,0-1.316.625c.066-1.3.7-1.809,1.609-1.809a2.091,2.091,0,0,1,1.008.258l.238-.7a2.452,2.452,0,0,0-1.262-.3c-1.676,0-2.41,1.211-2.41,2.922C20.418-1.059,21.031.078,22.512.078Zm-.07-2.809A.99.99,0,0,1,23.551-1.7,1.025,1.025,0,0,1,22.457-.637a1.039,1.039,0,0,1-1.09-1.07A1,1,0,0,1,22.441-2.73ZM25.832,0h.82V-5.3H24.82v.742h1.012Zm7.09-5.973h-.84L29.016,1.563h.836ZM34.8-5.3v.777h2.484A20.941,20.941,0,0,0,35.148,0h.891a23.015,23.015,0,0,1,2.18-4.633V-5.3Zm3.785,0v.777h2.484A20.941,20.941,0,0,0,38.934,0h.891A23.015,23.015,0,0,1,42-4.633V-5.3Zm9.152-.668h-.84L43.828,1.563h.836ZM50.551,0h.82V-5.3H49.539v.742h1.012Zm1.691-1.367h2.52V0h.809V-1.371h.781V-2.09H55.57V-5.3H54.6L52.242-2.051Zm2.52-2.926v2.2H53.2Zm2.141.145.691.332a1.157,1.157,0,0,1,1.063-.789.86.86,0,0,1,.934.867c0,.52-.406.852-1.059,1.352S56.98-1.289,56.98-.355V0h3.555V-.777H57.93c.016-.219.59-.656,1.035-.992.7-.531,1.484-.961,1.484-1.984a1.646,1.646,0,0,0-1.793-1.629A1.875,1.875,0,0,0,56.9-4.148Z" transform="translate(0 31.413)" fill="#fff"/>
        <path id="Path_5223" data-name="Path 5223" d="M.117-5.3,1.594,0H2.918L3.98-3.93,5.047,0H6.371L7.848-5.3H7.023L5.707-.738,4.422-5.219H3.543L2.258-.738.938-5.3ZM8.828,0h3.8V-.746H9.649V-2.352h2.488V-3.1H9.649V-4.559h2.9V-5.3H8.828Zm7.449,0a1.565,1.565,0,0,0,1.66-1.535,1.3,1.3,0,0,0-.781-1.215,1.252,1.252,0,0,0,.582-1.07A1.5,1.5,0,0,0,16.122-5.3H13.832V0ZM14.657-3.047V-4.574h1.465a.761.761,0,0,1,.789.773.751.751,0,0,1-.789.754Zm0,.691h1.621a.821.821,0,0,1,.848.8.809.809,0,0,1-.848.816H14.657Zm4.3-.992a.469.469,0,0,0,.477.477.472.472,0,0,0,.48-.477.475.475,0,0,0-.48-.48A.472.472,0,0,0,18.954-3.348Zm0,2.949a.469.469,0,0,0,.477.477.472.472,0,0,0,.48-.477.475.475,0,0,0-.48-.48A.472.472,0,0,0,18.954-.4Zm3.934-.715A1.929,1.929,0,0,0,24.755.078a1.628,1.628,0,0,0,1.789-1.551,1.293,1.293,0,0,0-.887-1.242,1.238,1.238,0,0,0,.762-1.172,1.581,1.581,0,0,0-1.777-1.5A1.847,1.847,0,0,0,22.888-4.23l.684.367a1.2,1.2,0,0,1,1.086-.762c.543,0,.922.309.922.75a.849.849,0,0,1-.957.832h-.66v.715h.66c.641,0,1.082.344,1.082.844a.864.864,0,0,1-.965.793,1.232,1.232,0,0,1-1.164-.8Zm4.539-.781A1.875,1.875,0,0,0,29.31.078a1.587,1.587,0,0,0,1.336-.59V0h.773V-5.5h-.773v2.262a1.587,1.587,0,0,0-1.336-.59A1.842,1.842,0,0,0,27.427-1.895ZM29.4-3.133a1.212,1.212,0,0,1,1.238,1.238A1.242,1.242,0,0,1,29.4-.617a1.214,1.214,0,0,1-1.2-1.277A1.181,1.181,0,0,1,29.4-3.133Zm2.965,1.766h2.52V0H35.7V-1.371h.781V-2.09H35.7V-5.3h-.969L32.369-2.051Zm2.52-2.926v2.2H33.322Zm2.348,2.4A1.875,1.875,0,0,0,39.119.078a1.587,1.587,0,0,0,1.336-.59V0h.773V-5.5h-.773v2.262a1.587,1.587,0,0,0-1.336-.59A1.842,1.842,0,0,0,37.236-1.895Zm1.977-1.238a1.212,1.212,0,0,1,1.238,1.238A1.242,1.242,0,0,1,39.213-.617a1.214,1.214,0,0,1-1.2-1.277A1.181,1.181,0,0,1,39.213-3.133ZM44.291.078c1.164,0,1.934-.625,1.934-1.566a1.333,1.333,0,0,0-.93-1.3,1.194,1.194,0,0,0,.734-1.148c0-.883-.687-1.457-1.738-1.457s-1.723.574-1.723,1.457a1.2,1.2,0,0,0,.7,1.145,1.337,1.337,0,0,0-.906,1.3C42.365-.547,43.143.078,44.291.078ZM43.377-3.9a.813.813,0,0,1,.914-.766c.566,0,.93.332.93.766,0,.477-.363.781-.93.781S43.377-3.422,43.377-3.9Zm.914,1.488c.688,0,1.121.336,1.121.867,0,.516-.434.9-1.121.9-.668,0-1.105-.383-1.105-.9C43.186-2.074,43.623-2.41,44.291-2.41Zm2.8.539A1.905,1.905,0,0,0,49.053.078a1.933,1.933,0,0,0,1.7-.953l-.57-.414a1.261,1.261,0,0,1-1.125.641,1.106,1.106,0,0,1-1.164-1H50.8a1.889,1.889,0,0,0,.031-.359,1.751,1.751,0,0,0-1.8-1.816A1.885,1.885,0,0,0,47.088-1.871Zm.82-.359a1.09,1.09,0,0,1,1.109-.9,1,1,0,0,1,1.027.9Z" transform="translate(0 41.62)" fill="#fff"/>
        <path id="Path_5220" data-name="Path 5220" d="M.664,0h2.2A2.623,2.623,0,0,0,5.6-2.648,2.627,2.627,0,0,0,2.859-5.3H.664Zm1.055-4.4H2.828A1.667,1.667,0,0,1,4.52-2.648,1.659,1.659,0,0,1,2.828-.906H1.719ZM7.652.078a1.242,1.242,0,0,0,1.063-.5V0h.953V-2.309c0-.937-.684-1.52-1.781-1.52a2.053,2.053,0,0,0-1.6.781l.574.574a1.328,1.328,0,0,1,.992-.473.74.74,0,0,1,.813.715v.086a2.456,2.456,0,0,0-.789-.129c-1,0-1.645.492-1.645,1.2S6.8.078,7.652.078Zm.3-1.684a1.747,1.747,0,0,1,.719.145.8.8,0,0,1-.859.793c-.383,0-.625-.18-.625-.461S7.492-1.605,7.949-1.605ZM10.754,0h1V-1.922c0-.773.465-1.012.906-1.012a1.405,1.405,0,0,1,.465.086l.078-.895a1.519,1.519,0,0,0-.488-.086,1.042,1.042,0,0,0-.977.59l-.02-.512h-.969Zm3.137-5.5V0h.992V-1.117L15.27-1.5,16.379,0h1.238L15.941-2.152l1.641-1.6H16.25l-1.367,1.4V-5.5ZM19.84-1.426c0,.891.793,1.5,2.051,1.5a2.615,2.615,0,0,0,1.563-.484L23.879,0h1.395L24.117-1.113a2.088,2.088,0,0,0,.34-1.2,5.221,5.221,0,0,0-.039-.594h-.973a3.727,3.727,0,0,1,.039.508,1.583,1.583,0,0,1-.105.641l-.941-.9c.77-.387,1.172-.789,1.172-1.352a1.438,1.438,0,0,0-1.594-1.375,1.488,1.488,0,0,0-1.66,1.43,1.566,1.566,0,0,0,.578,1.109A1.691,1.691,0,0,0,19.84-1.426Zm2.168-3.059c.3,0,.582.156.582.484,0,.27-.258.516-.773.766a.959.959,0,0,1-.422-.73A.562.562,0,0,1,22.008-4.484Zm-.457,2.23,1.227,1.18a1.561,1.561,0,0,1-.879.238c-.57,0-.988-.234-.988-.656A.917.917,0,0,1,21.551-2.254ZM31.5-.91H28.648V-5.3H27.594V0H31.5ZM32.1-4.953a.547.547,0,0,0,.574.574.551.551,0,0,0,.578-.574.552.552,0,0,0-.578-.578A.551.551,0,0,0,32.1-4.953ZM33.18,0V-3.75h-1V0Zm.883-1.879A1.823,1.823,0,0,0,35.879.078a1.5,1.5,0,0,0,1.219-.5v.129A1.045,1.045,0,0,1,35.922.742,1.672,1.672,0,0,1,34.758.2l-.645.633a2.4,2.4,0,0,0,1.809.813A1.968,1.968,0,0,0,38.09-.395L38.1-3.75h-.961l-.02.453a1.485,1.485,0,0,0-1.238-.531A1.812,1.812,0,0,0,34.063-1.879ZM36.086-2.93a1,1,0,0,1,1.02,1.047A1.021,1.021,0,0,1,36.086-.82,1.013,1.013,0,0,1,35.07-1.883.993.993,0,0,1,36.086-2.93ZM40.223,0V-2.1a.779.779,0,0,1,.828-.8.733.733,0,0,1,.766.8V0h1V-2.355a1.394,1.394,0,0,0-1.473-1.473,1.45,1.45,0,0,0-1.125.477V-5.5h-1V0Zm3.828-2.918V-1.23A1.224,1.224,0,0,0,45.43.078a2.286,2.286,0,0,0,.906-.187l-.094-.832a1.779,1.779,0,0,1-.637.129.5.5,0,0,1-.555-.562V-2.918h1.1V-3.75H45.027v-1.2h-.973v1.2h-.637v.832Zm7.41,3a2.47,2.47,0,0,0,2.586-2.543,3.927,3.927,0,0,0-.02-.426H51.355v.91h1.605A1.42,1.42,0,0,1,51.461-.9a1.649,1.649,0,0,1-1.668-1.754,1.63,1.63,0,0,1,1.641-1.754,1.743,1.743,0,0,1,1.492.863l.832-.594a2.792,2.792,0,0,0-2.324-1.246,2.671,2.671,0,0,0-2.723,2.73A2.7,2.7,0,0,0,51.461.078Zm5.156,0a1.932,1.932,0,0,0,2-1.953,1.934,1.934,0,0,0-2-1.953,1.937,1.937,0,0,0-2,1.953A1.934,1.934,0,0,0,56.617.078ZM55.609-1.875a1,1,0,0,1,1.008-1.043.993.993,0,0,1,1.008,1.043A.994.994,0,0,1,56.617-.828,1,1,0,0,1,55.609-1.875ZM60.48-5.5h-1V0h1Zm.867,3.621A1.823,1.823,0,0,0,63.164.078,1.564,1.564,0,0,0,64.383-.4l.02.4h.984V-5.5H64.4v2.2a1.485,1.485,0,0,0-1.238-.531A1.812,1.812,0,0,0,61.348-1.879ZM63.371-2.93a1,1,0,0,1,1.02,1.047A1.021,1.021,0,0,1,63.371-.82a1.013,1.013,0,0,1-1.016-1.062A.993.993,0,0,1,63.371-2.93Z" transform="translate(199.65 13)" fill="#fff"/>
        <path id="Path_5221" data-name="Path 5221" d="M4.574-.91H1.719V-5.3H.664V0h3.91Zm.69-4.043a.547.547,0,0,0,.574.574.551.551,0,0,0,.578-.574.552.552,0,0,0-.578-.578A.551.551,0,0,0,5.264-4.953ZM6.346,0V-3.75h-1V0ZM8.579,0V-2.1a.781.781,0,0,1,.832-.8.738.738,0,0,1,.777.8V0h1V-2.355a1.4,1.4,0,0,0-1.48-1.473,1.429,1.429,0,0,0-1.156.512l-.02-.434H7.579V0Zm5.494.082a1.934,1.934,0,0,0,1.668-.9l-.711-.531a1.1,1.1,0,0,1-.934.527.987.987,0,0,1-1-.75h2.711A2.72,2.72,0,0,0,15.843-2a1.731,1.731,0,0,0-1.816-1.828A1.872,1.872,0,0,0,12.1-1.879,1.9,1.9,0,0,0,14.073.082Zm-.961-2.328a.881.881,0,0,1,.926-.738.842.842,0,0,1,.871.738ZM17.974.078a1.242,1.242,0,0,0,1.063-.5V0h.953V-2.309c0-.937-.684-1.52-1.781-1.52a2.053,2.053,0,0,0-1.6.781l.574.574a1.328,1.328,0,0,1,.992-.473.74.74,0,0,1,.813.715v.086a2.456,2.456,0,0,0-.789-.129c-1,0-1.645.492-1.645,1.2S17.122.078,17.974.078Zm.3-1.684a1.747,1.747,0,0,1,.719.145.8.8,0,0,1-.859.793c-.383,0-.625-.18-.625-.461S17.814-1.605,18.271-1.605ZM21.171,0h1V-1.922c0-.773.465-1.012.906-1.012a1.405,1.405,0,0,1,.465.086l.078-.895a1.519,1.519,0,0,0-.488-.086,1.042,1.042,0,0,0-.977.59l-.02-.512h-.969Zm7.6.078a2.47,2.47,0,0,0,2.586-2.543,3.927,3.927,0,0,0-.02-.426H28.664v.91H30.27A1.42,1.42,0,0,1,28.77-.9,1.649,1.649,0,0,1,27.1-2.652a1.63,1.63,0,0,1,1.641-1.754,1.743,1.743,0,0,1,1.492.863l.832-.594a2.792,2.792,0,0,0-2.324-1.246,2.671,2.671,0,0,0-2.723,2.73A2.7,2.7,0,0,0,28.77.078ZM32.3,0h1V-1.922c0-.773.465-1.012.906-1.012a1.405,1.405,0,0,1,.465.086l.078-.895a1.519,1.519,0,0,0-.488-.086,1.042,1.042,0,0,0-.977.59l-.02-.512H32.3Zm4.284.078a1.242,1.242,0,0,0,1.063-.5V0h.953V-2.309c0-.937-.684-1.52-1.781-1.52a2.053,2.053,0,0,0-1.6.781l.574.574a1.328,1.328,0,0,1,.992-.473.74.74,0,0,1,.813.715v.086a2.456,2.456,0,0,0-.789-.129c-1,0-1.645.492-1.645,1.2S35.727.078,36.579.078Zm.3-1.684a1.747,1.747,0,0,1,.719.145.8.8,0,0,1-.859.793c-.383,0-.625-.18-.625-.461S36.419-1.605,36.876-1.605Zm2.631-.273A1.823,1.823,0,0,0,41.323.078,1.564,1.564,0,0,0,42.542-.4l.02.4h.984V-5.5h-.984v2.2a1.485,1.485,0,0,0-1.238-.531A1.812,1.812,0,0,0,39.507-1.879ZM41.53-2.93a1,1,0,0,1,1.02,1.047A1.021,1.021,0,0,1,41.53-.82a1.013,1.013,0,0,1-1.016-1.062A.993.993,0,0,1,41.53-2.93ZM44.7-4.953a.547.547,0,0,0,.574.574.551.551,0,0,0,.578-.574.552.552,0,0,0-.578-.578A.551.551,0,0,0,44.7-4.953ZM45.783,0V-3.75h-1V0Zm2.936.082a1.934,1.934,0,0,0,1.668-.9l-.711-.531a1.1,1.1,0,0,1-.934.527.987.987,0,0,1-1-.75h2.711A2.72,2.72,0,0,0,50.488-2a1.731,1.731,0,0,0-1.816-1.828,1.872,1.872,0,0,0-1.93,1.949A1.9,1.9,0,0,0,48.718.082Zm-.961-2.328a.881.881,0,0,1,.926-.738.842.842,0,0,1,.871.738ZM52.451,0V-2.1a.781.781,0,0,1,.832-.8.738.738,0,0,1,.777.8V0h1V-2.355a1.4,1.4,0,0,0-1.48-1.473,1.429,1.429,0,0,0-1.156.512L52.4-3.75h-.953V0Zm3.936-2.918V-1.23A1.224,1.224,0,0,0,57.766.078a2.286,2.286,0,0,0,.906-.187l-.094-.832a1.779,1.779,0,0,1-.637.129.5.5,0,0,1-.555-.562V-2.918h1.1V-3.75H57.364v-1.2h-.973v1.2h-.637v.832Z" transform="translate(199.65 25.413)" fill="#fff"/>
        <path id="Path_5218" data-name="Path 5218" d="M1.723,0v-1.82H2.984a1.733,1.733,0,0,0,1.9-1.73,1.724,1.724,0,0,0-1.9-1.75H.664V0Zm0-4.387h1.2a.8.8,0,0,1,.883.836.8.8,0,0,1-.883.816h-1.2ZM6.866.078a1.242,1.242,0,0,0,1.063-.5V0h.953V-2.309c0-.937-.684-1.52-1.781-1.52a2.053,2.053,0,0,0-1.6.781l.574.574a1.328,1.328,0,0,1,.992-.473.74.74,0,0,1,.813.715v.086a2.456,2.456,0,0,0-.789-.129c-1,0-1.645.492-1.645,1.2S6.014.078,6.866.078Zm.3-1.684a1.747,1.747,0,0,1,.719.145.8.8,0,0,1-.859.793c-.383,0-.625-.18-.625-.461S6.705-1.605,7.162-1.605ZM11.063,0V-2.1a.781.781,0,0,1,.832-.8.738.738,0,0,1,.777.8V0h1V-2.355a1.4,1.4,0,0,0-1.48-1.473,1.429,1.429,0,0,0-1.156.512l-.02-.434h-.953V0ZM15-2.918V-1.23A1.224,1.224,0,0,0,16.378.078a2.286,2.286,0,0,0,.906-.187L17.19-.941a1.779,1.779,0,0,1-.637.129A.5.5,0,0,1,16-1.375V-2.918h1.1V-3.75H15.976v-1.2H15v1.2h-.637v.832Zm4.7,3a1.932,1.932,0,0,0,2-1.953,1.934,1.934,0,0,0-2-1.953,1.937,1.937,0,0,0-2,1.953A1.934,1.934,0,0,0,19.7.078ZM18.689-1.875A1,1,0,0,1,19.7-2.918.993.993,0,0,1,20.7-1.875.994.994,0,0,1,19.7-.828,1,1,0,0,1,18.689-1.875ZM23.656,0V-2.1a.781.781,0,0,1,.832-.8.738.738,0,0,1,.777.8V0h1V-2.355a1.4,1.4,0,0,0-1.48-1.473,1.429,1.429,0,0,0-1.156.512l-.02-.434h-.953V0ZM29.15.082a1.934,1.934,0,0,0,1.668-.9l-.711-.531a1.1,1.1,0,0,1-.934.527.987.987,0,0,1-1-.75h2.711A2.72,2.72,0,0,0,30.92-2,1.731,1.731,0,0,0,29.1-3.828a1.872,1.872,0,0,0-1.93,1.949A1.9,1.9,0,0,0,29.15.082Zm-.961-2.328a.881.881,0,0,1,.926-.738.842.842,0,0,1,.871.738ZM33.545-5.3v.957H35.9A19.818,19.818,0,0,0,33.9,0h1.141A19.146,19.146,0,0,1,37.1-4.516V-5.3ZM39.485.078a1.823,1.823,0,0,0,1.973-1.8A1.668,1.668,0,0,0,39.7-3.465a1.416,1.416,0,0,0-.863.258l.125-1.168h2.234V-5.3H38.1L37.79-2.488l.723.324a1.3,1.3,0,0,1,.918-.391.851.851,0,0,1,.945.848.85.85,0,0,1-.914.836,1.139,1.139,0,0,1-1.066-.8l-.852.441A1.988,1.988,0,0,0,39.485.078Zm4.83,0a1.824,1.824,0,0,0,2-1.855,1.68,1.68,0,0,0-1.836-1.738,1.435,1.435,0,0,0-1.207.539,1.415,1.415,0,0,1,1.48-1.512,2.117,2.117,0,0,1,1.027.254l.25-.84a2.723,2.723,0,0,0-1.352-.309c-1.617,0-2.477,1.156-2.477,2.957C42.206-1.055,42.8.078,44.315.078ZM44.3-2.652a.872.872,0,0,1,.957.91A.9.9,0,0,1,44.3-.82a.886.886,0,0,1-.93-.93A.871.871,0,0,1,44.3-2.652ZM46.947-4.07l.887.422a1.034,1.034,0,0,1,.949-.785.736.736,0,0,1,.8.77c0,.434-.387.762-1.016,1.223-.645.473-1.508,1.113-1.508,2V0h3.68V-.922H48.29a3.488,3.488,0,0,1,.844-.742c.719-.523,1.539-1.059,1.539-2.012a1.747,1.747,0,0,0-1.9-1.707A1.966,1.966,0,0,0,46.947-4.07ZM56.283.078A2.741,2.741,0,0,0,58.666-1.25l-.777-.562A1.892,1.892,0,0,1,56.283-.9a1.649,1.649,0,0,1-1.668-1.754,1.63,1.63,0,0,1,1.641-1.754,1.757,1.757,0,0,1,1.543.941l.832-.594a2.783,2.783,0,0,0-2.375-1.324,2.671,2.671,0,0,0-2.723,2.73A2.7,2.7,0,0,0,56.283.078Z" transform="translate(199.65 169.127)" fill="#fff"/>
        <path id="Path_5217" data-name="Path 5217" d="M.34-2.652A2.7,2.7,0,0,0,3.086.078,2.7,2.7,0,0,0,5.418-1.211L4.8-1.637A2.023,2.023,0,0,1,3.086-.7,1.855,1.855,0,0,1,1.2-2.652,1.844,1.844,0,0,1,3.066-4.605a1.957,1.957,0,0,1,1.7.961L5.4-4.09A2.7,2.7,0,0,0,3.066-5.383,2.686,2.686,0,0,0,.34-2.652ZM6.309,0h.828V-3.8L8.82-.375h.586L11.09-3.8V0h.828V-5.3h-.969L9.113-1.531,7.281-5.3H6.309Zm6.355-5.3,2.012,3.266V0h.816V-2.039L17.5-5.3h-.977l-1.445,2.4L13.641-5.3ZM18.25,0h.82V-1.6l.918-.988L21.691,0h1L20.566-3.141,22.559-5.3H21.5L19.07-2.668V-5.3h-.82Zm4.918-3.348a.469.469,0,0,0,.477.477.472.472,0,0,0,.48-.477.475.475,0,0,0-.48-.48A.472.472,0,0,0,23.168-3.348Zm0,2.949a.469.469,0,0,0,.477.477.472.472,0,0,0,.48-.477.475.475,0,0,0-.48-.48A.472.472,0,0,0,23.168-.4Zm3.582-.715A1.929,1.929,0,0,0,28.617.078a1.628,1.628,0,0,0,1.789-1.551,1.293,1.293,0,0,0-.887-1.242,1.238,1.238,0,0,0,.762-1.172,1.581,1.581,0,0,0-1.777-1.5A1.847,1.847,0,0,0,26.75-4.23l.684.367a1.2,1.2,0,0,1,1.086-.762c.543,0,.922.309.922.75a.849.849,0,0,1-.957.832h-.66v.715h.66c.641,0,1.082.344,1.082.844a.864.864,0,0,1-.965.793,1.232,1.232,0,0,1-1.164-.8Zm4.34,0A1.929,1.929,0,0,0,32.957.078a1.628,1.628,0,0,0,1.789-1.551,1.293,1.293,0,0,0-.887-1.242,1.238,1.238,0,0,0,.762-1.172,1.581,1.581,0,0,0-1.777-1.5A1.847,1.847,0,0,0,31.09-4.23l.684.367a1.2,1.2,0,0,1,1.086-.762c.543,0,.922.309.922.75a.849.849,0,0,1-.957.832h-.66v.715h.66c.641,0,1.082.344,1.082.844a.864.864,0,0,1-.965.793,1.232,1.232,0,0,1-1.164-.8Zm9.617-4.859h-.84L36.8,1.563h.836Zm1.844,4.605h2.52V0h.809V-1.371h.781V-2.09h-.781V-5.3H44.91L42.551-2.051Zm2.52-2.926v2.2H43.5ZM49,.078A1.767,1.767,0,0,0,50.91-1.664a1.7,1.7,0,0,0-1.828-1.742,1.347,1.347,0,0,0-.82.246l.129-1.367h2.262V-5.3H47.688l-.25,2.754.621.254a1.389,1.389,0,0,1,.961-.387.982.982,0,0,1,1.051,1.02.979.979,0,0,1-1.051.973,1.234,1.234,0,0,1-1.172-.82l-.684.379A1.905,1.905,0,0,0,49,.078Zm7.8-6.051h-.84L52.9,1.563h.836Zm1.875.668v.777h2.484A20.941,20.941,0,0,0,59.035,0h.891a23.015,23.015,0,0,1,2.18-4.633V-5.3ZM63.41,0h.82V-5.3H62.4v.742H63.41ZM70.5-5.973h-.84L66.594,1.563h.836ZM74.664.078c1.293,0,2.113-1.066,2.113-2.73s-.82-2.73-2.113-2.73-2.117,1.07-2.117,2.73S73.371.078,74.664.078Zm0-4.687c.773,0,1.293.758,1.293,1.957S75.438-.7,74.664-.7s-1.3-.75-1.3-1.953S73.887-4.609,74.664-4.609ZM79.453.078c1.164,0,1.934-.625,1.934-1.566a1.333,1.333,0,0,0-.93-1.3,1.194,1.194,0,0,0,.734-1.148c0-.883-.687-1.457-1.738-1.457s-1.723.574-1.723,1.457a1.2,1.2,0,0,0,.7,1.145,1.337,1.337,0,0,0-.906,1.3C77.527-.547,78.3.078,79.453.078ZM78.539-3.9a.813.813,0,0,1,.914-.766c.566,0,.93.332.93.766,0,.477-.363.781-.93.781S78.539-3.422,78.539-3.9Zm.914,1.488c.688,0,1.121.336,1.121.867,0,.516-.434.9-1.121.9-.668,0-1.105-.383-1.105-.9C78.348-2.074,78.785-2.41,79.453-2.41Z" transform="translate(199.65 181.334)" fill="#fff"/>
        <path id="Path_5216" data-name="Path 5216" d="M.688-5.3V0h.82V-2.082H2.832L4.031,0h.953L3.7-2.2a1.529,1.529,0,0,0,1.074-1.5A1.6,1.6,0,0,0,2.969-5.3Zm2.242.738c.652,0,.988.344.988.871s-.336.879-.988.879H1.508v-1.75ZM8.25.078a2.449,2.449,0,0,0,2.57-2.543,2.768,2.768,0,0,0-.016-.309H8.125v.742H9.953A1.582,1.582,0,0,1,8.25-.7,1.858,1.858,0,0,1,6.359-2.652,1.847,1.847,0,0,1,8.23-4.605a1.9,1.9,0,0,1,1.629.871L10.5-4.18a2.66,2.66,0,0,0-2.266-1.2A2.686,2.686,0,0,0,5.5-2.652,2.7,2.7,0,0,0,8.25.078Zm6-.078a1.565,1.565,0,0,0,1.66-1.535,1.3,1.3,0,0,0-.781-1.215,1.252,1.252,0,0,0,.582-1.07A1.5,1.5,0,0,0,14.1-5.3H11.809V0ZM12.633-3.047V-4.574H14.1a.761.761,0,0,1,.789.773.751.751,0,0,1-.789.754Zm0,.691h1.621a.821.821,0,0,1,.848.8.809.809,0,0,1-.848.816H12.633Zm4.121-.992a.469.469,0,0,0,.477.477.472.472,0,0,0,.48-.477.475.475,0,0,0-.48-.48A.472.472,0,0,0,16.754-3.348Zm0,2.949a.469.469,0,0,0,.477.477.472.472,0,0,0,.48-.477.475.475,0,0,0-.48-.48A.472.472,0,0,0,16.754-.4Zm4.434.4h.82V-5.3H20.176v.742h1.012Zm3.6.078a1.767,1.767,0,0,0,1.906-1.742,1.7,1.7,0,0,0-1.828-1.742,1.347,1.347,0,0,0-.82.246l.129-1.367h2.262V-5.3H23.469l-.25,2.754.621.254a1.389,1.389,0,0,1,.961-.387.982.982,0,0,1,1.051,1.02A.979.979,0,0,1,24.8-.691a1.234,1.234,0,0,1-1.172-.82l-.684.379A1.905,1.905,0,0,0,24.785.078ZM27.223-5.3v.777h2.484A20.941,20.941,0,0,0,27.574,0h.891a23.015,23.015,0,0,1,2.18-4.633V-5.3Zm9.152-.668h-.84L32.469,1.563H33.3ZM39.191,0h.82V-5.3H38.18v.742h1.012ZM41-1.113A1.929,1.929,0,0,0,42.871.078,1.628,1.628,0,0,0,44.66-1.473a1.293,1.293,0,0,0-.887-1.242,1.238,1.238,0,0,0,.762-1.172,1.581,1.581,0,0,0-1.777-1.5A1.847,1.847,0,0,0,41-4.23l.684.367a1.2,1.2,0,0,1,1.086-.762c.543,0,.922.309.922.75a.849.849,0,0,1-.957.832h-.66v.715h.66c.641,0,1.082.344,1.082.844a.864.864,0,0,1-.965.793,1.232,1.232,0,0,1-1.164-.8ZM47.129.078a1.767,1.767,0,0,0,1.906-1.742,1.7,1.7,0,0,0-1.828-1.742,1.347,1.347,0,0,0-.82.246l.129-1.367h2.262V-5.3H45.813l-.25,2.754.621.254a1.389,1.389,0,0,1,.961-.387A.982.982,0,0,1,48.2-1.664a.979.979,0,0,1-1.051.973,1.234,1.234,0,0,1-1.172-.82l-.684.379A1.905,1.905,0,0,0,47.129.078Zm7.8-6.051h-.84L51.027,1.563h.836ZM58.891.078c1.164,0,1.934-.625,1.934-1.566a1.333,1.333,0,0,0-.93-1.3,1.194,1.194,0,0,0,.734-1.148c0-.883-.687-1.457-1.738-1.457s-1.723.574-1.723,1.457a1.2,1.2,0,0,0,.7,1.145,1.337,1.337,0,0,0-.906,1.3C56.965-.547,57.742.078,58.891.078ZM57.977-3.9a.813.813,0,0,1,.914-.766c.566,0,.93.332.93.766,0,.477-.363.781-.93.781S57.977-3.422,57.977-3.9Zm.914,1.488c.688,0,1.121.336,1.121.867,0,.516-.434.9-1.121.9-.668,0-1.105-.383-1.105-.9C57.785-2.074,58.223-2.41,58.891-2.41Zm4.461.563a1.4,1.4,0,0,0,1.258-.625c-.035,1.188-.719,1.8-1.59,1.8a1.874,1.874,0,0,1-.988-.3l-.277.7a2.3,2.3,0,0,0,1.32.359c1.648,0,2.371-1.211,2.371-2.922,0-1.4-.6-2.539-2.043-2.539a1.737,1.737,0,0,0-1.91,1.8A1.69,1.69,0,0,0,63.352-1.848Zm.082-2.82A1.03,1.03,0,0,1,64.477-3.6,1,1,0,0,1,63.43-2.574a.968.968,0,0,1-1.1-1.035A1.009,1.009,0,0,1,63.434-4.668Z" transform="translate(199.65 190.747)" fill="#fff"/>
        <path id="Path_5215" data-name="Path 5215" d="M.117-5.3,1.594,0H2.918L3.98-3.93,5.047,0H6.371L7.848-5.3H7.023L5.707-.738,4.422-5.219H3.543L2.258-.738.938-5.3ZM8.812,0h3.8V-.746H9.633V-2.352h2.488V-3.1H9.633V-4.559h2.9V-5.3H8.812Zm7.433,0a1.565,1.565,0,0,0,1.66-1.535,1.3,1.3,0,0,0-.781-1.215,1.252,1.252,0,0,0,.582-1.07A1.5,1.5,0,0,0,16.09-5.3H13.8V0ZM14.625-3.047V-4.574H16.09a.761.761,0,0,1,.789.773.751.751,0,0,1-.789.754Zm0,.691h1.621a.821.821,0,0,1,.848.8.809.809,0,0,1-.848.816H14.625Zm4.281-.992a.469.469,0,0,0,.477.477.472.472,0,0,0,.48-.477.475.475,0,0,0-.48-.48A.472.472,0,0,0,18.906-3.348Zm0,2.949a.469.469,0,0,0,.477.477.472.472,0,0,0,.48-.477.475.475,0,0,0-.48-.48A.472.472,0,0,0,18.906-.4Zm5.761-1.449a1.4,1.4,0,0,0,1.258-.625c-.035,1.188-.719,1.8-1.59,1.8a1.874,1.874,0,0,1-.988-.3l-.277.7a2.3,2.3,0,0,0,1.32.359c1.648,0,2.371-1.211,2.371-2.922,0-1.4-.6-2.539-2.043-2.539a1.737,1.737,0,0,0-1.91,1.8A1.69,1.69,0,0,0,24.667-1.848Zm.082-2.82A1.03,1.03,0,0,1,25.792-3.6a1,1,0,0,1-1.047,1.023.968.968,0,0,1-1.1-1.035A1.009,1.009,0,0,1,24.749-4.668Zm2.879,2.773A1.875,1.875,0,0,0,29.511.078a1.587,1.587,0,0,0,1.336-.59V0h.773V-5.5h-.773v2.262a1.587,1.587,0,0,0-1.336-.59A1.842,1.842,0,0,0,27.628-1.895ZM29.6-3.133a1.212,1.212,0,0,1,1.238,1.238A1.242,1.242,0,0,1,29.6-.617a1.214,1.214,0,0,1-1.2-1.277A1.181,1.181,0,0,1,29.6-3.133ZM34.667.078c1.164,0,1.934-.625,1.934-1.566a1.333,1.333,0,0,0-.93-1.3,1.194,1.194,0,0,0,.734-1.148c0-.883-.687-1.457-1.738-1.457s-1.723.574-1.723,1.457a1.2,1.2,0,0,0,.7,1.145,1.337,1.337,0,0,0-.906,1.3C32.741-.547,33.518.078,34.667.078ZM33.753-3.9a.813.813,0,0,1,.914-.766c.566,0,.93.332.93.766,0,.477-.363.781-.93.781S33.753-3.422,33.753-3.9Zm.914,1.488c.688,0,1.121.336,1.121.867,0,.516-.434.9-1.121.9-.668,0-1.105-.383-1.105-.9C33.561-2.074,34-2.41,34.667-2.41ZM37.339-5.3v.777h2.484A20.941,20.941,0,0,0,37.69,0h.891a23.015,23.015,0,0,1,2.18-4.633V-5.3ZM43.159.078a1.767,1.767,0,0,0,1.906-1.742,1.7,1.7,0,0,0-1.828-1.742,1.347,1.347,0,0,0-.82.246l.129-1.367h2.262V-5.3H41.842l-.25,2.754.621.254a1.389,1.389,0,0,1,.961-.387.982.982,0,0,1,1.051,1.02.979.979,0,0,1-1.051.973A1.234,1.234,0,0,1,42-1.512l-.684.379A1.905,1.905,0,0,0,43.159.078Zm4.68,0c1.164,0,1.934-.625,1.934-1.566a1.333,1.333,0,0,0-.93-1.3,1.194,1.194,0,0,0,.734-1.148c0-.883-.687-1.457-1.738-1.457s-1.723.574-1.723,1.457a1.2,1.2,0,0,0,.7,1.145,1.337,1.337,0,0,0-.906,1.3C45.912-.547,46.69.078,47.838.078ZM46.924-3.9a.813.813,0,0,1,.914-.766c.566,0,.93.332.93.766,0,.477-.363.781-.93.781S46.924-3.422,46.924-3.9Zm.914,1.488c.688,0,1.121.336,1.121.867,0,.516-.434.9-1.121.9-.668,0-1.105-.383-1.105-.9C46.733-2.074,47.17-2.41,47.838-2.41Z" transform="translate(199.65 199.688)" fill="#fff"/>
        <path id="Path_5231" data-name="Path 5231" d="M1.723,0v-1.82H2.984a1.733,1.733,0,0,0,1.9-1.73,1.724,1.724,0,0,0-1.9-1.75H.664V0Zm0-4.387h1.2a.8.8,0,0,1,.883.836.8.8,0,0,1-.883.816h-1.2ZM6.77.078a1.242,1.242,0,0,0,1.063-.5V0h.953V-2.309c0-.937-.684-1.52-1.781-1.52a2.053,2.053,0,0,0-1.6.781l.574.574a1.328,1.328,0,0,1,.992-.473.74.74,0,0,1,.813.715v.086A2.456,2.456,0,0,0,7-2.273c-1,0-1.645.492-1.645,1.2S5.918.078,6.77.078Zm.3-1.684a1.747,1.747,0,0,1,.719.145.8.8,0,0,1-.859.793c-.383,0-.625-.18-.625-.461S6.609-1.605,7.066-1.605ZM10.871,0V-2.1a.781.781,0,0,1,.832-.8.738.738,0,0,1,.777.8V0h1V-2.355A1.4,1.4,0,0,0,12-3.828a1.429,1.429,0,0,0-1.156.512l-.02-.434H9.871V0Zm3.84-2.918V-1.23A1.224,1.224,0,0,0,16.09.078,2.286,2.286,0,0,0,17-.109L16.9-.941a1.779,1.779,0,0,1-.637.129.5.5,0,0,1-.555-.562V-2.918h1.1V-3.75H15.688v-1.2h-.973v1.2h-.637v.832Zm4.6,3a1.932,1.932,0,0,0,2-1.953,1.934,1.934,0,0,0-2-1.953,1.937,1.937,0,0,0-2,1.953A1.934,1.934,0,0,0,19.313.078ZM18.3-1.875a1,1,0,0,1,1.008-1.043A.993.993,0,0,1,20.32-1.875.994.994,0,0,1,19.313-.828,1,1,0,0,1,18.3-1.875ZM23.176,0V-2.1a.781.781,0,0,1,.832-.8.738.738,0,0,1,.777.8V0h1V-2.355A1.4,1.4,0,0,0,24.3-3.828a1.429,1.429,0,0,0-1.156.512l-.02-.434h-.953V0Zm5.4.082a1.934,1.934,0,0,0,1.668-.9l-.711-.531a1.1,1.1,0,0,1-.934.527.987.987,0,0,1-1-.75h2.711A2.72,2.72,0,0,0,30.344-2a1.731,1.731,0,0,0-1.816-1.828A1.872,1.872,0,0,0,26.6-1.879,1.9,1.9,0,0,0,28.574.082Zm-.961-2.328a.881.881,0,0,1,.926-.738.842.842,0,0,1,.871.738ZM32.777-5.3v.957h2.352a19.818,19.818,0,0,0-2,4.348h1.141a19.146,19.146,0,0,1,2.059-4.516V-5.3ZM38.621.078a1.823,1.823,0,0,0,1.973-1.8,1.668,1.668,0,0,0-1.762-1.742,1.416,1.416,0,0,0-.863.258l.125-1.168h2.234V-5.3h-3.09l-.312,2.816.723.324a1.3,1.3,0,0,1,.918-.391.851.851,0,0,1,.945.848.85.85,0,0,1-.914.836,1.139,1.139,0,0,1-1.066-.8l-.852.441A1.988,1.988,0,0,0,38.621.078Zm2.625-2.711c0,1.461.676,2.711,2.234,2.711s2.238-1.25,2.238-2.711-.664-2.75-2.238-2.75S41.246-4.094,41.246-2.633Zm2.234-1.8c.832,0,1.16.875,1.16,1.785,0,.938-.328,1.785-1.16,1.785s-1.156-.848-1.156-1.785C42.324-3.562,42.648-4.437,43.48-4.437ZM47.238,0h1.055V-5.3H46.109v.926h1.129Zm6.734.078A2.741,2.741,0,0,0,56.355-1.25l-.777-.562A1.892,1.892,0,0,1,53.973-.9,1.649,1.649,0,0,1,52.3-2.652a1.63,1.63,0,0,1,1.641-1.754,1.757,1.757,0,0,1,1.543.941l.832-.594a2.783,2.783,0,0,0-2.375-1.324,2.671,2.671,0,0,0-2.723,2.73A2.7,2.7,0,0,0,53.973.078Z" transform="translate(199.65 236.906)" fill="#fff"/>
        <path id="Path_5230" data-name="Path 5230" d="M.34-2.652A2.7,2.7,0,0,0,3.086.078,2.7,2.7,0,0,0,5.418-1.211L4.8-1.637A2.023,2.023,0,0,1,3.086-.7,1.855,1.855,0,0,1,1.2-2.652,1.844,1.844,0,0,1,3.066-4.605a1.957,1.957,0,0,1,1.7.961L5.4-4.09A2.7,2.7,0,0,0,3.066-5.383,2.686,2.686,0,0,0,.34-2.652ZM6.309,0h.828V-3.8L8.82-.375h.586L11.09-3.8V0h.828V-5.3h-.969L9.113-1.531,7.281-5.3H6.309Zm6.355-5.3,2.012,3.266V0h.816V-2.039L17.5-5.3h-.977l-1.445,2.4L13.641-5.3ZM18.25,0h.82V-1.6l.918-.988L21.691,0h1L20.566-3.141,22.559-5.3H21.5L19.07-2.668V-5.3h-.82Zm4.918-3.348a.469.469,0,0,0,.477.477.472.472,0,0,0,.48-.477.475.475,0,0,0-.48-.48A.472.472,0,0,0,23.168-3.348Zm0,2.949a.469.469,0,0,0,.477.477.472.472,0,0,0,.48-.477.475.475,0,0,0-.48-.48A.472.472,0,0,0,23.168-.4Zm3.574-3.75.691.332A1.157,1.157,0,0,1,28.5-4.605a.86.86,0,0,1,.934.867c0,.52-.406.852-1.059,1.352S26.82-1.289,26.82-.355V0h3.555V-.777H27.77c.016-.219.59-.656,1.035-.992.7-.531,1.484-.961,1.484-1.984A1.646,1.646,0,0,0,28.5-5.383,1.875,1.875,0,0,0,26.742-4.148Zm4.285,0,.691.332a1.157,1.157,0,0,1,1.063-.789.86.86,0,0,1,.934.867c0,.52-.406.852-1.059,1.352s-1.551,1.1-1.551,2.031V0H34.66V-.777H32.055c.016-.219.59-.656,1.035-.992.7-.531,1.484-.961,1.484-1.984a1.646,1.646,0,0,0-1.793-1.629A1.875,1.875,0,0,0,31.027-4.148ZM40.6-5.973h-.84L36.691,1.563h.836Zm1.965,4.859A1.929,1.929,0,0,0,44.43.078a1.628,1.628,0,0,0,1.789-1.551,1.293,1.293,0,0,0-.887-1.242,1.238,1.238,0,0,0,.762-1.172,1.581,1.581,0,0,0-1.777-1.5A1.847,1.847,0,0,0,42.563-4.23l.684.367a1.2,1.2,0,0,1,1.086-.762c.543,0,.922.309.922.75a.849.849,0,0,1-.957.832h-.66v.715h.66c.641,0,1.082.344,1.082.844a.864.864,0,0,1-.965.793,1.232,1.232,0,0,1-1.164-.8ZM49.1.078c1.293,0,2.113-1.066,2.113-2.73s-.82-2.73-2.113-2.73-2.117,1.07-2.117,2.73S47.809.078,49.1.078Zm0-4.687c.773,0,1.293.758,1.293,1.957S49.875-.7,49.1-.7s-1.3-.75-1.3-1.953S48.324-4.609,49.1-4.609Zm8.074-1.363h-.84L53.27,1.563h.836ZM59.02-1.367h2.52V0h.809V-1.371h.781V-2.09h-.781V-5.3h-.969L59.02-2.051Zm2.52-2.926v2.2H59.973ZM65.68.078c1.164,0,1.934-.625,1.934-1.566a1.333,1.333,0,0,0-.93-1.3,1.194,1.194,0,0,0,.734-1.148c0-.883-.687-1.457-1.738-1.457s-1.723.574-1.723,1.457a1.2,1.2,0,0,0,.7,1.145,1.337,1.337,0,0,0-.906,1.3C63.754-.547,64.531.078,65.68.078ZM64.766-3.9a.813.813,0,0,1,.914-.766c.566,0,.93.332.93.766,0,.477-.363.781-.93.781S64.766-3.422,64.766-3.9ZM65.68-2.41c.688,0,1.121.336,1.121.867,0,.516-.434.9-1.121.9-.668,0-1.105-.383-1.105-.9C64.574-2.074,65.012-2.41,65.68-2.41Zm7.879-3.562h-.84L69.652,1.563h.836ZM77.723.078c1.293,0,2.113-1.066,2.113-2.73s-.82-2.73-2.113-2.73-2.117,1.07-2.117,2.73S76.43.078,77.723.078Zm0-4.687c.773,0,1.293.758,1.293,1.957S78.5-.7,77.723-.7s-1.3-.75-1.3-1.953S76.945-4.609,77.723-4.609Zm5,4.688c1.293,0,2.113-1.066,2.113-2.73s-.82-2.73-2.113-2.73S80.6-4.312,80.6-2.652,81.426.078,82.719.078Zm0-4.687c.773,0,1.293.758,1.293,1.957S83.492-.7,82.719-.7s-1.3-.75-1.3-1.953S81.941-4.609,82.719-4.609Z" transform="translate(199.65 249.058)" fill="#fff"/>
        <path id="Path_5229" data-name="Path 5229" d="M.688-5.3V0h.82V-2.082H2.832L4.031,0h.953L3.7-2.2a1.529,1.529,0,0,0,1.074-1.5A1.6,1.6,0,0,0,2.969-5.3Zm2.242.738c.652,0,.988.344.988.871s-.336.879-.988.879H1.508v-1.75ZM8.25.078a2.449,2.449,0,0,0,2.57-2.543,2.768,2.768,0,0,0-.016-.309H8.125v.742H9.953A1.582,1.582,0,0,1,8.25-.7,1.858,1.858,0,0,1,6.359-2.652,1.847,1.847,0,0,1,8.23-4.605a1.9,1.9,0,0,1,1.629.871L10.5-4.18a2.66,2.66,0,0,0-2.266-1.2A2.686,2.686,0,0,0,5.5-2.652,2.7,2.7,0,0,0,8.25.078Zm6-.078a1.565,1.565,0,0,0,1.66-1.535,1.3,1.3,0,0,0-.781-1.215,1.252,1.252,0,0,0,.582-1.07A1.5,1.5,0,0,0,14.1-5.3H11.809V0ZM12.633-3.047V-4.574H14.1a.761.761,0,0,1,.789.773.751.751,0,0,1-.789.754Zm0,.691h1.621a.821.821,0,0,1,.848.8.809.809,0,0,1-.848.816H12.633Zm4.121-.992a.469.469,0,0,0,.477.477.472.472,0,0,0,.48-.477.475.475,0,0,0-.48-.48A.472.472,0,0,0,16.754-3.348Zm0,2.949a.469.469,0,0,0,.477.477.472.472,0,0,0,.48-.477.475.475,0,0,0-.48-.48A.472.472,0,0,0,16.754-.4Zm4.434.4h.82V-5.3H20.176v.742h1.012Zm3.672-1.848a1.4,1.4,0,0,0,1.258-.625c-.035,1.188-.719,1.8-1.59,1.8a1.874,1.874,0,0,1-.988-.3l-.277.7a2.3,2.3,0,0,0,1.32.359c1.648,0,2.371-1.211,2.371-2.922,0-1.4-.6-2.539-2.043-2.539A1.737,1.737,0,0,0,23-3.582,1.69,1.69,0,0,0,24.859-1.848Zm.082-2.82A1.03,1.03,0,0,1,25.984-3.6a1,1,0,0,1-1.047,1.023.968.968,0,0,1-1.1-1.035A1.009,1.009,0,0,1,24.941-4.668ZM27.484-5.3v.777h2.484A20.941,20.941,0,0,0,27.836,0h.891a23.015,23.015,0,0,1,2.18-4.633V-5.3Zm9.152-.668H35.8L32.73,1.563h.836ZM39.453,0h.82V-5.3H38.441v.742h1.012Zm1.723-5.3v.777H43.66A20.941,20.941,0,0,0,41.527,0h.891A23.015,23.015,0,0,1,44.6-4.633V-5.3ZM47.043.078c1.164,0,1.934-.625,1.934-1.566a1.333,1.333,0,0,0-.93-1.3,1.194,1.194,0,0,0,.734-1.148c0-.883-.687-1.457-1.738-1.457s-1.723.574-1.723,1.457a1.2,1.2,0,0,0,.7,1.145,1.337,1.337,0,0,0-.906,1.3C45.117-.547,45.895.078,47.043.078ZM46.129-3.9a.813.813,0,0,1,.914-.766c.566,0,.93.332.93.766,0,.477-.363.781-.93.781S46.129-3.422,46.129-3.9Zm.914,1.488c.688,0,1.121.336,1.121.867,0,.516-.434.9-1.121.9-.668,0-1.105-.383-1.105-.9C45.938-2.074,46.375-2.41,47.043-2.41Zm7.879-3.562h-.84L51.016,1.563h.836ZM57.738,0h.82V-5.3H56.727v.742h1.012Zm1.813-1.113A1.929,1.929,0,0,0,61.418.078a1.628,1.628,0,0,0,1.789-1.551,1.293,1.293,0,0,0-.887-1.242,1.238,1.238,0,0,0,.762-1.172,1.581,1.581,0,0,0-1.777-1.5A1.847,1.847,0,0,0,59.551-4.23l.684.367a1.2,1.2,0,0,1,1.086-.762c.543,0,.922.309.922.75a.849.849,0,0,1-.957.832h-.66v.715h.66c.641,0,1.082.344,1.082.844a.864.864,0,0,1-.965.793,1.232,1.232,0,0,1-1.164-.8Zm6.2-.734a1.4,1.4,0,0,0,1.258-.625c-.035,1.188-.719,1.8-1.59,1.8a1.874,1.874,0,0,1-.988-.3l-.277.7a2.3,2.3,0,0,0,1.32.359c1.648,0,2.371-1.211,2.371-2.922,0-1.4-.6-2.539-2.043-2.539a1.737,1.737,0,0,0-1.91,1.8A1.69,1.69,0,0,0,65.75-1.848Zm.082-2.82A1.03,1.03,0,0,1,66.875-3.6a1,1,0,0,1-1.047,1.023.968.968,0,0,1-1.1-1.035A1.009,1.009,0,0,1,65.832-4.668Z" transform="translate(199.65 258.526)" fill="#fff"/>
        <path id="Path_5228" data-name="Path 5228" d="M.117-5.3,1.594,0H2.918L3.98-3.93,5.047,0H6.371L7.848-5.3H7.023L5.707-.738,4.422-5.219H3.543L2.258-.738.938-5.3ZM8.764,0h3.8V-.746H9.585V-2.352h2.488V-3.1H9.585V-4.559h2.9V-5.3H8.764ZM16.15,0a1.565,1.565,0,0,0,1.66-1.535,1.3,1.3,0,0,0-.781-1.215,1.252,1.252,0,0,0,.582-1.07A1.5,1.5,0,0,0,15.994-5.3H13.7V0ZM14.529-3.047V-4.574h1.465a.761.761,0,0,1,.789.773.751.751,0,0,1-.789.754Zm0,.691H16.15a.821.821,0,0,1,.848.8.809.809,0,0,1-.848.816H14.529Zm4.233-.992a.469.469,0,0,0,.477.477.472.472,0,0,0,.48-.477.475.475,0,0,0-.48-.48A.472.472,0,0,0,18.762-3.348Zm0,2.949a.469.469,0,0,0,.477.477.472.472,0,0,0,.48-.477.475.475,0,0,0-.48-.48A.472.472,0,0,0,18.762-.4Zm5.81.477a1.957,1.957,0,0,0,1.734-1.02l-.582-.41a1.308,1.308,0,0,1-1.152.7,1.194,1.194,0,0,1-1.207-1.23A1.186,1.186,0,0,1,24.587-3.1a1.288,1.288,0,0,1,1.125.707l.6-.406A1.908,1.908,0,0,0,24.6-3.828a1.961,1.961,0,0,0-2.02,1.949A1.941,1.941,0,0,0,24.572.078Zm4.178,0a1.767,1.767,0,0,0,1.906-1.742,1.7,1.7,0,0,0-1.828-1.742,1.347,1.347,0,0,0-.82.246l.129-1.367H30.4V-5.3H27.434l-.25,2.754L27.8-2.3a1.389,1.389,0,0,1,.961-.387.982.982,0,0,1,1.051,1.02.979.979,0,0,1-1.051.973,1.234,1.234,0,0,1-1.172-.82l-.684.379A1.905,1.905,0,0,0,28.75.078ZM31.682,0h.773V-.512a1.587,1.587,0,0,0,1.336.59,1.875,1.875,0,0,0,1.883-1.973,1.842,1.842,0,0,0-1.883-1.934,1.587,1.587,0,0,0-1.336.59V-5.5h-.773Zm.777-1.895A1.212,1.212,0,0,1,33.7-3.133a1.181,1.181,0,0,1,1.2,1.238A1.214,1.214,0,0,1,33.7-.617,1.242,1.242,0,0,1,32.46-1.895ZM36.4-4.148l.691.332a1.157,1.157,0,0,1,1.063-.789.86.86,0,0,1,.934.867c0,.52-.406.852-1.059,1.352s-1.551,1.1-1.551,2.031V0h3.555V-.777H37.431c.016-.219.59-.656,1.035-.992.7-.531,1.484-.961,1.484-1.984a1.646,1.646,0,0,0-1.793-1.629A1.875,1.875,0,0,0,36.4-4.148ZM42.8.078c1.164,0,1.934-.625,1.934-1.566a1.333,1.333,0,0,0-.93-1.3,1.194,1.194,0,0,0,.734-1.148c0-.883-.687-1.457-1.738-1.457s-1.723.574-1.723,1.457a1.2,1.2,0,0,0,.7,1.145,1.337,1.337,0,0,0-.906,1.3C40.875-.547,41.653.078,42.8.078ZM41.887-3.9a.813.813,0,0,1,.914-.766c.566,0,.93.332.93.766,0,.477-.363.781-.93.781S41.887-3.422,41.887-3.9ZM42.8-2.41c.688,0,1.121.336,1.121.867,0,.516-.434.9-1.121.9-.668,0-1.105-.383-1.105-.9C41.7-2.074,42.133-2.41,42.8-2.41ZM45.807,0h.773V-.512a1.587,1.587,0,0,0,1.336.59A1.875,1.875,0,0,0,49.8-1.895a1.842,1.842,0,0,0-1.883-1.934,1.587,1.587,0,0,0-1.336.59V-5.5h-.773Zm.777-1.895a1.212,1.212,0,0,1,1.238-1.238,1.181,1.181,0,0,1,1.2,1.238,1.214,1.214,0,0,1-1.2,1.277A1.242,1.242,0,0,1,46.585-1.895Z" transform="translate(199.595 267.995)" fill="#fff"/>
      </g>
      <path id="Path_5234" data-name="Path 5234" d="M4.436,0A4.015,4.015,0,0,0,8.49-3.984,4,4,0,0,0,4.436-7.957H.955V0ZM2.883-1.617V-6.334H4.248A2.245,2.245,0,0,1,6.5-3.984a2.263,2.263,0,0,1-2.25,2.367ZM11.509.117a1.865,1.865,0,0,0,1.5-.691V0h1.752V-3.34c0-1.5-1.031-2.4-2.742-2.4a3.466,3.466,0,0,0-2.531,1.16l1.02,1.1a1.855,1.855,0,0,1,1.354-.627c.668,0,1.055.322,1.055.762v.111a4.25,4.25,0,0,0-1.125-.146c-1.277,0-2.379.674-2.379,1.793C9.411-.527,10.319.117,11.509.117Zm-.328-1.822c0-.363.363-.562.938-.562a2.2,2.2,0,0,1,.8.146.951.951,0,0,1-1,.979C11.486-1.143,11.181-1.371,11.181-1.705ZM18.2,0V-2.707c0-1.049.592-1.43,1.289-1.43a2.15,2.15,0,0,1,.709.123l.111-1.611a2.218,2.218,0,0,0-.686-.117,1.578,1.578,0,0,0-1.471.885L18.1-5.625h-1.74V0Zm3.1-8.25V0h1.846V-1.6l.51-.5L25.164,0h2.25L24.888-3.246,27.32-5.625H24.912L23.148-3.85v-4.4ZM35.15,0a2.231,2.231,0,0,0,2.484-2.174A1.841,1.841,0,0,0,36.3-4.025a2.006,2.006,0,0,0,1.107-1.811c0-1.318-1.043-2.121-2.525-2.121H31.166V0ZM33.094-4.717V-6.346h1.436a.829.829,0,0,1,.879.814.788.788,0,0,1-.82.814Zm0,3.111V-3.24h1.57a.821.821,0,0,1,.879.826.835.835,0,0,1-.879.809ZM40.788-8.25H38.942V0h1.846ZM44.463.176A2.184,2.184,0,0,0,46.2-.533L46.262,0h1.693V-5.625H46.109v3.188a.893.893,0,0,1-.937.926.907.907,0,0,1-.943-.926V-5.625H42.383V-1.91A2.019,2.019,0,0,0,44.463.176Zm4.753-2.988A2.853,2.853,0,0,0,52.239.117a2.86,2.86,0,0,0,2.455-1.225L53.523-2.139a1.689,1.689,0,0,1-1.26.7,1.139,1.139,0,0,1-1.242-.9h3.8a4.359,4.359,0,0,0,.053-.656,2.657,2.657,0,0,0-2.812-2.748A2.758,2.758,0,0,0,49.216-2.812Zm2.895-1.477a1.009,1.009,0,0,1,1.055.867H51.021A1.024,1.024,0,0,1,52.111-4.289Z" transform="translate(12.011 187.221)" fill="#fff"/>
      <g id="Group-3" data-name="Group" transform="translate(12.011 193.115)">
        <path id="Path_5233" data-name="Path 5233" d="M1.723,0v-1.82H2.984a1.733,1.733,0,0,0,1.9-1.73,1.724,1.724,0,0,0-1.9-1.75H.664V0Zm0-4.387h1.2a.8.8,0,0,1,.883.836.8.8,0,0,1-.883.816h-1.2ZM6.77.078a1.242,1.242,0,0,0,1.063-.5V0h.953V-2.309c0-.937-.684-1.52-1.781-1.52a2.053,2.053,0,0,0-1.6.781l.574.574a1.328,1.328,0,0,1,.992-.473.74.74,0,0,1,.813.715v.086A2.456,2.456,0,0,0,7-2.273c-1,0-1.645.492-1.645,1.2S5.918.078,6.77.078Zm.3-1.684a1.747,1.747,0,0,1,.719.145.8.8,0,0,1-.859.793c-.383,0-.625-.18-.625-.461S6.609-1.605,7.066-1.605ZM10.871,0V-2.1a.781.781,0,0,1,.832-.8.738.738,0,0,1,.777.8V0h1V-2.355A1.4,1.4,0,0,0,12-3.828a1.429,1.429,0,0,0-1.156.512l-.02-.434H9.871V0Zm3.84-2.918V-1.23A1.224,1.224,0,0,0,16.09.078,2.286,2.286,0,0,0,17-.109L16.9-.941a1.779,1.779,0,0,1-.637.129.5.5,0,0,1-.555-.562V-2.918h1.1V-3.75H15.688v-1.2h-.973v1.2h-.637v.832Zm4.6,3a1.932,1.932,0,0,0,2-1.953,1.934,1.934,0,0,0-2-1.953,1.937,1.937,0,0,0-2,1.953A1.934,1.934,0,0,0,19.313.078ZM18.3-1.875a1,1,0,0,1,1.008-1.043A.993.993,0,0,1,20.32-1.875.994.994,0,0,1,19.313-.828,1,1,0,0,1,18.3-1.875ZM23.176,0V-2.1a.781.781,0,0,1,.832-.8.738.738,0,0,1,.777.8V0h1V-2.355A1.4,1.4,0,0,0,24.3-3.828a1.429,1.429,0,0,0-1.156.512l-.02-.434h-.953V0Zm5.4.082a1.934,1.934,0,0,0,1.668-.9l-.711-.531a1.1,1.1,0,0,1-.934.527.987.987,0,0,1-1-.75h2.711A2.72,2.72,0,0,0,30.344-2a1.731,1.731,0,0,0-1.816-1.828A1.872,1.872,0,0,0,26.6-1.879,1.9,1.9,0,0,0,28.574.082Zm-.961-2.328a.881.881,0,0,1,.926-.738.842.842,0,0,1,.871.738ZM32.859-4.07l.887.422a1.034,1.034,0,0,1,.949-.785.736.736,0,0,1,.8.77c0,.434-.387.762-1.016,1.223-.645.473-1.508,1.113-1.508,2V0h3.68V-.922H34.2a3.488,3.488,0,0,1,.844-.742c.719-.523,1.539-1.059,1.539-2.012a1.747,1.747,0,0,0-1.9-1.707A1.966,1.966,0,0,0,32.859-4.07ZM37.176-5.3v.957h2.352a19.818,19.818,0,0,0-2,4.348h1.141A19.146,19.146,0,0,1,40.73-4.516V-5.3ZM43.02.078a1.823,1.823,0,0,0,1.973-1.8A1.668,1.668,0,0,0,43.23-3.465a1.416,1.416,0,0,0-.863.258l.125-1.168h2.234V-5.3h-3.09l-.312,2.816.723.324a1.3,1.3,0,0,1,.918-.391.851.851,0,0,1,.945.848A.85.85,0,0,1,43-.871a1.139,1.139,0,0,1-1.066-.8l-.852.441A1.988,1.988,0,0,0,43.02.078Zm4.734,0a1.824,1.824,0,0,0,2-1.855,1.68,1.68,0,0,0-1.836-1.738,1.435,1.435,0,0,0-1.207.539A1.415,1.415,0,0,1,48.2-4.488a2.117,2.117,0,0,1,1.027.254l.25-.84a2.723,2.723,0,0,0-1.352-.309c-1.617,0-2.477,1.156-2.477,2.957C45.645-1.055,46.238.078,47.754.078Zm-.012-2.73a.872.872,0,0,1,.957.91.9.9,0,0,1-.957.922.886.886,0,0,1-.93-.93A.871.871,0,0,1,47.742-2.652ZM55.035.078A2.741,2.741,0,0,0,57.418-1.25l-.777-.562A1.892,1.892,0,0,1,55.035-.9a1.649,1.649,0,0,1-1.668-1.754,1.63,1.63,0,0,1,1.641-1.754,1.757,1.757,0,0,1,1.543.941l.832-.594a2.783,2.783,0,0,0-2.375-1.324,2.671,2.671,0,0,0-2.723,2.73A2.7,2.7,0,0,0,55.035.078Z" transform="translate(0 5)" fill="#fff"/>
        <path id="Path_5214" data-name="Path 5214" d="M.212-.423A2.689,2.689,0,0,0,2.95,2.3,2.686,2.686,0,0,0,5.275,1.014L4.663.59a2.017,2.017,0,0,1-1.713.935A1.849,1.849,0,0,1,1.069-.423,1.838,1.838,0,0,1,2.931-2.37a1.951,1.951,0,0,1,1.69.958l.635-.444A2.7,2.7,0,0,0,2.931-3.145,2.678,2.678,0,0,0,.212-.423Zm5.95,2.644h.826V-1.568L8.667,1.847h.584l1.678-3.415V2.221h.826V-3.067h-.966L8.959.695,7.132-3.067h-.97ZM12.5-3.067,14.5.189V2.221h.814V.189l2.006-3.256H16.35L14.909-.676,13.472-3.067Zm5.569,5.288h.818V.629L19.8-.357l1.7,2.578h1L20.377-.91l1.986-2.157H21.307L18.885-.438V-3.067h-.818Zm4.9-3.337a.467.467,0,0,0,.475.475.471.471,0,0,0,.479-.475.474.474,0,0,0-.479-.479A.47.47,0,0,0,22.97-1.116Zm0,2.94a.477.477,0,0,0,.954,0,.477.477,0,1,0-.954,0ZM28.395.379a1.4,1.4,0,0,0,1.254-.623c-.035,1.184-.717,1.8-1.585,1.8a1.868,1.868,0,0,1-.985-.3l-.276.693a2.3,2.3,0,0,0,1.316.358c1.643,0,2.364-1.207,2.364-2.913,0-1.4-.6-2.531-2.037-2.531a1.731,1.731,0,0,0-1.9,1.8A1.685,1.685,0,0,0,28.395.379Zm.082-2.812a1.027,1.027,0,0,1,1.04,1.067,1,1,0,0,1-1.044,1.02.965.965,0,0,1-1.094-1.032A1,1,0,0,1,28.477-2.432ZM33.333,2.3A1.757,1.757,0,0,0,35.206.5a1.694,1.694,0,0,0-1.834-1.729A1.512,1.512,0,0,0,32.059-.6c.066-1.3.693-1.8,1.6-1.8a2.085,2.085,0,0,1,1,.257l.238-.7a2.445,2.445,0,0,0-1.258-.3c-1.671,0-2.4,1.207-2.4,2.913C31.245,1.166,31.857,2.3,33.333,2.3Zm-.07-2.8A.987.987,0,0,1,34.368.531a1.021,1.021,0,0,1-1.09,1.055A1.036,1.036,0,0,1,32.192.52,1,1,0,0,1,33.262-.5Zm7.792-3.232h-.837L37.161,3.779h.833Zm1.869.666v.775H45.4a20.877,20.877,0,0,0-2.126,4.513h.888A22.944,22.944,0,0,1,46.335-2.4v-.67ZM48.909,2.3c1.289,0,2.107-1.063,2.107-2.722S50.2-3.145,48.909-3.145,46.8-2.078,46.8-.423,47.62,2.3,48.909,2.3Zm0-4.673c.771,0,1.289.755,1.289,1.951s-.518,1.947-1.289,1.947S47.617.777,47.617-.423,48.134-2.374,48.909-2.374Zm8.049-1.359h-.837L53.065,3.779H53.9Zm2.808,5.954h.818V-3.067H58.758v.74h1.009Zm4,.078c1.289,0,2.107-1.063,2.107-2.722s-.818-2.722-2.107-2.722S61.655-2.078,61.655-.423,62.477,2.3,63.766,2.3Zm0-4.673c.771,0,1.289.755,1.289,1.951s-.518,1.947-1.289,1.947S62.473.777,62.473-.423,62.991-2.374,63.766-2.374Zm8.049-1.359h-.837L67.921,3.779h.833ZM75.554,2.3a1.761,1.761,0,0,0,1.9-1.737,1.7,1.7,0,0,0-1.822-1.737,1.343,1.343,0,0,0-.818.245l.129-1.363H77.2v-.775H74.241L73.992-.322l.619.253a1.384,1.384,0,0,1,.958-.386A.979.979,0,0,1,76.617.562a.976.976,0,0,1-1.048.97A1.23,1.23,0,0,1,74.4.714l-.681.378A1.9,1.9,0,0,0,75.554,2.3Zm4.712,0c1.289,0,2.107-1.063,2.107-2.722s-.818-2.722-2.107-2.722S78.155-2.078,78.155-.423,78.977,2.3,80.266,2.3Zm0-4.673c.771,0,1.289.755,1.289,1.951s-.518,1.947-1.289,1.947S78.973.777,78.973-.423,79.491-2.374,80.266-2.374Z" transform="translate(-0.139 15.207)" fill="#fff"/>
        <path id="Path_5212" data-name="Path 5212" d="M.43-3.063V2.221h.818V.146h1.32l1.2,2.076h.95L3.432.033A1.524,1.524,0,0,0,4.5-1.459a1.6,1.6,0,0,0-1.8-1.6Zm2.235.736c.65,0,.985.343.985.868s-.335.876-.985.876H1.247V-2.327ZM7.969,2.3A2.441,2.441,0,0,0,10.531-.236a2.759,2.759,0,0,0-.016-.308H7.844V.2H9.667a1.577,1.577,0,0,1-1.7,1.328A1.852,1.852,0,0,1,6.084-.423,1.841,1.841,0,0,1,7.949-2.37,1.89,1.89,0,0,1,9.573-1.5l.635-.444a2.652,2.652,0,0,0-2.259-1.2A2.678,2.678,0,0,0,5.231-.423,2.689,2.689,0,0,0,7.969,2.3Zm5.985-.078A1.56,1.56,0,0,0,15.609.691,1.3,1.3,0,0,0,14.83-.52a1.248,1.248,0,0,0,.58-1.067A1.491,1.491,0,0,0,13.8-3.067H11.516V2.221ZM12.338-.816V-2.339H13.8a.758.758,0,0,1,.787.771.748.748,0,0,1-.787.752Zm0,.689h1.616a.819.819,0,0,1,.845.8.807.807,0,0,1-.845.814H12.338Zm4.108-.989a.467.467,0,0,0,.475.475.471.471,0,0,0,.479-.475.474.474,0,0,0-.479-.479A.47.47,0,0,0,16.447-1.116Zm0,2.94a.477.477,0,0,0,.954,0,.477.477,0,1,0-.954,0Zm3.571-.713A1.923,1.923,0,0,0,21.879,2.3,1.623,1.623,0,0,0,23.662.753a1.289,1.289,0,0,0-.884-1.238,1.234,1.234,0,0,0,.759-1.168,1.576,1.576,0,0,0-1.772-1.491A1.841,1.841,0,0,0,20.018-2l.681.366a1.194,1.194,0,0,1,1.083-.759c.541,0,.919.308.919.748a.846.846,0,0,1-.954.829h-.658V-.1h.658c.639,0,1.079.343,1.079.841a.861.861,0,0,1-.962.791,1.228,1.228,0,0,1-1.16-.8Zm6.5,1.188A1.757,1.757,0,0,0,28.386.5a1.694,1.694,0,0,0-1.834-1.729A1.512,1.512,0,0,0,25.24-.6c.066-1.3.693-1.8,1.6-1.8a2.085,2.085,0,0,1,1,.257l.238-.7a2.445,2.445,0,0,0-1.258-.3c-1.671,0-2.4,1.207-2.4,2.913C24.426,1.166,25.037,2.3,26.513,2.3Zm-.07-2.8A.987.987,0,0,1,27.549.531a1.021,1.021,0,0,1-1.09,1.055A1.036,1.036,0,0,1,25.372.52,1,1,0,0,1,26.443-.5Zm7.792-3.232H33.4L30.341,3.779h.833ZM36.073.858h2.512V2.225h.806V.854h.779V.138h-.779v-3.2h-.966L36.073.177Zm2.512-2.917v2.2H37.024ZM42.507,2.3a1.761,1.761,0,0,0,1.9-1.737,1.7,1.7,0,0,0-1.822-1.737,1.343,1.343,0,0,0-.818.245L41.9-2.292H44.15v-.775H41.194L40.945-.322l.619.253a1.384,1.384,0,0,1,.958-.386A.979.979,0,0,1,43.57.562a.976.976,0,0,1-1.048.97A1.23,1.23,0,0,1,41.354.714l-.681.378A1.9,1.9,0,0,0,42.507,2.3Zm7.781-6.032H49.45L46.393,3.779h.833ZM54.232,2.3c1.16,0,1.928-.623,1.928-1.562a1.329,1.329,0,0,0-.927-1.293A1.19,1.19,0,0,0,55.965-1.7c0-.88-.685-1.453-1.733-1.453S52.515-2.58,52.515-1.7a1.2,1.2,0,0,0,.7,1.141,1.333,1.333,0,0,0-.9,1.3C52.312,1.676,53.087,2.3,54.232,2.3Zm-.911-3.964a.811.811,0,0,1,.911-.763c.565,0,.927.331.927.763,0,.475-.362.779-.927.779S53.321-1.19,53.321-1.665Zm.911,1.484c.685,0,1.118.335,1.118.865,0,.514-.432.9-1.118.9-.666,0-1.1-.382-1.1-.9C53.13.154,53.566-.181,54.232-.181Zm2.594,1.293A1.923,1.923,0,0,0,58.687,2.3,1.623,1.623,0,0,0,60.47.753a1.289,1.289,0,0,0-.884-1.238,1.234,1.234,0,0,0,.759-1.168,1.576,1.576,0,0,0-1.772-1.491A1.841,1.841,0,0,0,56.826-2l.681.366a1.194,1.194,0,0,1,1.083-.759c.541,0,.919.308.919.748a.846.846,0,0,1-.954.829H57.9V-.1h.658c.639,0,1.079.343,1.079.841a.861.861,0,0,1-.962.791,1.228,1.228,0,0,1-1.16-.8Z" transform="translate(0.235 24.702)" fill="#fff"/>
        <path id="Path_5213" data-name="Path 5213" d="M.073-3.243,1.545,2.046h1.32L3.925-1.872,4.988,2.046h1.32L7.78-3.243H6.958L5.646,1.31,4.365-3.157H3.488L2.207,1.31.891-3.243ZM8.55,2.046h3.789V1.3H9.368V-.3h2.481v-.744H9.368V-2.5h2.889v-.744H8.55Zm7.219,0A1.56,1.56,0,0,0,17.424.515,1.3,1.3,0,0,0,16.645-.7a1.248,1.248,0,0,0,.58-1.067,1.491,1.491,0,0,0-1.612-1.48H13.332V2.046ZM14.153-.992V-2.515h1.46a.758.758,0,0,1,.787.771.748.748,0,0,1-.787.752Zm0,.689h1.616a.819.819,0,0,1,.845.8.807.807,0,0,1-.845.814H14.153Zm4.076-.989a.467.467,0,0,0,.475.475.471.471,0,0,0,.479-.475.474.474,0,0,0-.479-.479A.47.47,0,0,0,18.23-1.292Zm0,2.94a.477.477,0,0,0,.954,0,.477.477,0,1,0-.954,0Zm3.5-3.738.689.331a1.153,1.153,0,0,1,1.059-.787.857.857,0,0,1,.931.865c0,.518-.4.849-1.055,1.347S21.807.76,21.807,1.691v.354h3.544V1.271h-2.6c.016-.218.588-.654,1.032-.989.7-.53,1.48-.958,1.48-1.978a1.641,1.641,0,0,0-1.787-1.624A1.869,1.869,0,0,0,21.729-2.09ZM25.856.683h2.512V2.049h.806V.679h.779V-.038h-.779v-3.2h-.966L25.856,0Zm2.512-2.917v2.2H26.806Zm2.1.144.689.331a1.153,1.153,0,0,1,1.059-.787.857.857,0,0,1,.931.865c0,.518-.4.849-1.055,1.347S30.548.76,30.548,1.691v.354h3.544V1.271h-2.6c.016-.218.588-.654,1.032-.989.7-.53,1.48-.958,1.48-1.978a1.641,1.641,0,0,0-1.787-1.624A1.869,1.869,0,0,0,30.47-2.09ZM34.741.157a1.869,1.869,0,0,0,1.877,1.967,1.583,1.583,0,0,0,1.332-.588v.51h.771V-3.437H37.95v2.255a1.583,1.583,0,0,0-1.332-.588A1.836,1.836,0,0,0,34.741.157Zm1.97-1.234A1.208,1.208,0,0,1,37.946.157,1.239,1.239,0,0,1,36.712,1.43a1.21,1.21,0,0,1-1.2-1.273A1.177,1.177,0,0,1,36.712-1.078Zm4.649,3.2a1.761,1.761,0,0,0,1.9-1.737A1.7,1.7,0,0,0,41.439-1.35a1.343,1.343,0,0,0-.818.245l.129-1.363H43v-.775H40.048L39.8-.5l.619.253a1.384,1.384,0,0,1,.958-.386A.979.979,0,0,1,42.424.387a.976.976,0,0,1-1.048.97A1.23,1.23,0,0,1,40.208.538l-.681.378A1.9,1.9,0,0,0,41.361,2.123ZM43.848.936A1.923,1.923,0,0,0,45.71,2.123,1.623,1.623,0,0,0,47.493.577a1.289,1.289,0,0,0-.884-1.238,1.234,1.234,0,0,0,.759-1.168A1.576,1.576,0,0,0,45.6-3.321a1.841,1.841,0,0,0-1.748,1.149l.681.366a1.194,1.194,0,0,1,1.083-.759c.541,0,.919.308.919.748a.846.846,0,0,1-.954.829h-.658v.713h.658c.639,0,1.079.343,1.079.841a.861.861,0,0,1-.962.791,1.228,1.228,0,0,1-1.16-.8Z" transform="translate(0 33.902)" fill="#fff"/>
      </g>
    </g>
  </g>
</svg>
