<svg xmlns="http://www.w3.org/2000/svg" xmlns:xlink="http://www.w3.org/1999/xlink" width="335" height="220.883" viewBox="0 0 335 220.883">
  <defs>
    <clipPath id="clip-path">
      <path id="Path_4584" data-name="Path 4584" d="M0-5.613H76.871v-9.95H0Z" transform="translate(0 15.563)" fill="none"/>
    </clipPath>
  </defs>
  <g id="Group_7332" data-name="Group 7332" transform="translate(-678 -1465.954)">
    <g id="Group_5930" data-name="Group 5930" transform="translate(678 1465.954)">
      <g id="Group_5090" data-name="Group 5090" transform="translate(0 0)">
        <path id="Path_3229" data-name="Path 3229" d="M0,.775H167.985V-146.267H0Z" transform="translate(0 146.267)" fill="#269691"/>
      </g>
      <g id="Group_5091" data-name="Group 5091" transform="translate(167.345 0)">
        <path id="Path_3230" data-name="Path 3230" d="M0,9.725H167.654V-137.317H0Z" transform="translate(0 137.317)" fill="#6f2f6e"/>
      </g>
      <g id="Group_5092" data-name="Group 5092" transform="translate(0 147.042)">
        <path id="Path_3231" data-name="Path 3231" d="M0,19.2H167.346V-54.639H0Z" transform="translate(0 54.639)" fill="#1f7c79"/>
      </g>
      <g id="Group_5093" data-name="Group 5093" transform="translate(167.345 147.042)">
        <path id="Path_3232" data-name="Path 3232" d="M0,19.2H167.654V-54.639H0Z" transform="translate(0 54.639)" fill="#5c2459"/>
      </g>
      <g id="Group_6694" data-name="Group 6694" transform="translate(12.713 12.381)">
        <path id="Path_5239" data-name="Path 5239" d="M.434-3.984a4.08,4.08,0,0,0,4.2,4.1A3.78,3.78,0,0,0,8.619-3.6a8.309,8.309,0,0,0-.035-.832H4.441v1.617h2.1a1.856,1.856,0,0,1-1.91,1.125,2.162,2.162,0,0,1-2.221-2.3A2.155,2.155,0,0,1,4.629-6.27,2.307,2.307,0,0,1,6.563-5.191l1.482-1.1A4.194,4.194,0,0,0,4.629-8.074,4.07,4.07,0,0,0,.434-3.984ZM11.816,0V-2.707c0-1.049.592-1.43,1.289-1.43a2.15,2.15,0,0,1,.709.123l.111-1.611a2.218,2.218,0,0,0-.686-.117,1.578,1.578,0,0,0-1.471.885l-.059-.768H9.971V0ZM14.4-2.812A2.853,2.853,0,0,0,17.428.117a2.86,2.86,0,0,0,2.455-1.225L18.711-2.139a1.689,1.689,0,0,1-1.26.7,1.139,1.139,0,0,1-1.242-.9h3.8a4.359,4.359,0,0,0,.053-.656,2.657,2.657,0,0,0-2.812-2.748A2.758,2.758,0,0,0,14.4-2.812ZM17.3-4.289a1.009,1.009,0,0,1,1.055.867H16.209A1.024,1.024,0,0,1,17.3-4.289Zm3.736,1.477A2.853,2.853,0,0,0,24.059.117a2.86,2.86,0,0,0,2.455-1.225L25.342-2.139a1.689,1.689,0,0,1-1.26.7,1.139,1.139,0,0,1-1.242-.9h3.8a4.359,4.359,0,0,0,.053-.656,2.657,2.657,0,0,0-2.812-2.748A2.758,2.758,0,0,0,21.035-2.812ZM23.93-4.289a1.009,1.009,0,0,1,1.055.867H22.84A1.024,1.024,0,0,1,23.93-4.289ZM29.764,0V-3.129a.893.893,0,0,1,.938-.926.907.907,0,0,1,.943.926V0H33.49V-3.656a2.019,2.019,0,0,0-2.08-2.086,2.184,2.184,0,0,0-1.74.709l-.059-.592H27.918V0Z" transform="translate(0 4)" fill="#fff"/>
        <g id="Group" transform="translate(0 9.917)">
          <path id="Path_5238" data-name="Path 5238" d="M1.723,0v-1.82H2.984a1.733,1.733,0,0,0,1.9-1.73,1.724,1.724,0,0,0-1.9-1.75H.664V0Zm0-4.387h1.2a.8.8,0,0,1,.883.836.8.8,0,0,1-.883.816h-1.2ZM6.77.078a1.242,1.242,0,0,0,1.063-.5V0h.953V-2.309c0-.937-.684-1.52-1.781-1.52a2.053,2.053,0,0,0-1.6.781l.574.574a1.328,1.328,0,0,1,.992-.473.74.74,0,0,1,.813.715v.086A2.456,2.456,0,0,0,7-2.273c-1,0-1.645.492-1.645,1.2S5.918.078,6.77.078Zm.3-1.684a1.747,1.747,0,0,1,.719.145.8.8,0,0,1-.859.793c-.383,0-.625-.18-.625-.461S6.609-1.605,7.066-1.605ZM10.871,0V-2.1a.781.781,0,0,1,.832-.8.738.738,0,0,1,.777.8V0h1V-2.355A1.4,1.4,0,0,0,12-3.828a1.429,1.429,0,0,0-1.156.512l-.02-.434H9.871V0Zm3.84-2.918V-1.23A1.224,1.224,0,0,0,16.09.078,2.286,2.286,0,0,0,17-.109L16.9-.941a1.779,1.779,0,0,1-.637.129.5.5,0,0,1-.555-.562V-2.918h1.1V-3.75H15.688v-1.2h-.973v1.2h-.637v.832Zm4.6,3a1.932,1.932,0,0,0,2-1.953,1.934,1.934,0,0,0-2-1.953,1.937,1.937,0,0,0-2,1.953A1.934,1.934,0,0,0,19.313.078ZM18.3-1.875a1,1,0,0,1,1.008-1.043A.993.993,0,0,1,20.32-1.875.994.994,0,0,1,19.313-.828,1,1,0,0,1,18.3-1.875ZM23.176,0V-2.1a.781.781,0,0,1,.832-.8.738.738,0,0,1,.777.8V0h1V-2.355A1.4,1.4,0,0,0,24.3-3.828a1.429,1.429,0,0,0-1.156.512l-.02-.434h-.953V0Zm5.4.082a1.934,1.934,0,0,0,1.668-.9l-.711-.531a1.1,1.1,0,0,1-.934.527.987.987,0,0,1-1-.75h2.711A2.72,2.72,0,0,0,30.344-2a1.731,1.731,0,0,0-1.816-1.828A1.872,1.872,0,0,0,26.6-1.879,1.9,1.9,0,0,0,28.574.082Zm-.961-2.328a.881.881,0,0,1,.926-.738.842.842,0,0,1,.871.738ZM32.777-5.3v.957h2.352a19.818,19.818,0,0,0-2,4.348h1.141a19.146,19.146,0,0,1,2.059-4.516V-5.3Zm3.867,0v.957H39A19.818,19.818,0,0,0,37,0h1.141A19.146,19.146,0,0,1,40.2-4.516V-5.3ZM41.57,0h1.055V-5.3H40.441v.926H41.57Zm4.188.078a1.824,1.824,0,0,0,2-1.855,1.68,1.68,0,0,0-1.836-1.738,1.435,1.435,0,0,0-1.207.539A1.415,1.415,0,0,1,46.2-4.488a2.117,2.117,0,0,1,1.027.254l.25-.84a2.723,2.723,0,0,0-1.352-.309c-1.617,0-2.477,1.156-2.477,2.957C43.648-1.055,44.242.078,45.758.078Zm-.012-2.73a.872.872,0,0,1,.957.91.9.9,0,0,1-.957.922.886.886,0,0,1-.93-.93A.871.871,0,0,1,45.746-2.652ZM53.039.078A2.741,2.741,0,0,0,55.422-1.25l-.777-.562A1.892,1.892,0,0,1,53.039-.9a1.649,1.649,0,0,1-1.668-1.754,1.63,1.63,0,0,1,1.641-1.754,1.757,1.757,0,0,1,1.543.941l.832-.594a2.783,2.783,0,0,0-2.375-1.324,2.671,2.671,0,0,0-2.723,2.73A2.7,2.7,0,0,0,53.039.078Z" transform="translate(0 3)" fill="#fff"/>
          <path id="Path_5237" data-name="Path 5237" d="M.34-2.652A2.7,2.7,0,0,0,3.086.078,2.7,2.7,0,0,0,5.418-1.211L4.8-1.637A2.023,2.023,0,0,1,3.086-.7,1.855,1.855,0,0,1,1.2-2.652,1.844,1.844,0,0,1,3.066-4.605a1.957,1.957,0,0,1,1.7.961L5.4-4.09A2.7,2.7,0,0,0,3.066-5.383,2.686,2.686,0,0,0,.34-2.652ZM6.309,0h.828V-3.8L8.82-.375h.586L11.09-3.8V0h.828V-5.3h-.969L9.113-1.531,7.281-5.3H6.309Zm6.355-5.3,2.012,3.266V0h.816V-2.039L17.5-5.3h-.977l-1.445,2.4L13.641-5.3ZM18.25,0h.82V-1.6l.918-.988L21.691,0h1L20.566-3.141,22.559-5.3H21.5L19.07-2.668V-5.3h-.82Zm4.918-3.348a.469.469,0,0,0,.477.477.472.472,0,0,0,.48-.477.475.475,0,0,0-.48-.48A.472.472,0,0,0,23.168-3.348Zm0,2.949a.469.469,0,0,0,.477.477.472.472,0,0,0,.48-.477.475.475,0,0,0-.48-.48A.472.472,0,0,0,23.168-.4Zm5.574.477c1.164,0,1.934-.625,1.934-1.566a1.333,1.333,0,0,0-.93-1.3,1.194,1.194,0,0,0,.734-1.148c0-.883-.687-1.457-1.738-1.457s-1.723.574-1.723,1.457a1.2,1.2,0,0,0,.7,1.145,1.337,1.337,0,0,0-.906,1.3C26.816-.547,27.594.078,28.742.078ZM27.828-3.9a.813.813,0,0,1,.914-.766c.566,0,.93.332.93.766,0,.477-.363.781-.93.781S27.828-3.422,27.828-3.9Zm.914,1.488c.688,0,1.121.336,1.121.867,0,.516-.434.9-1.121.9-.668,0-1.105-.383-1.105-.9C27.637-2.074,28.074-2.41,28.742-2.41Zm2.6,1.3A1.929,1.929,0,0,0,33.211.078,1.628,1.628,0,0,0,35-1.473a1.293,1.293,0,0,0-.887-1.242,1.238,1.238,0,0,0,.762-1.172,1.581,1.581,0,0,0-1.777-1.5A1.847,1.847,0,0,0,31.344-4.23l.684.367a1.2,1.2,0,0,1,1.086-.762c.543,0,.922.309.922.75a.849.849,0,0,1-.957.832h-.66v.715h.66c.641,0,1.082.344,1.082.844a.864.864,0,0,1-.965.793,1.232,1.232,0,0,1-1.164-.8Zm9.617-4.859h-.84L37.055,1.563h.836Zm1.957,1.824.691.332a1.157,1.157,0,0,1,1.063-.789.86.86,0,0,1,.934.867c0,.52-.406.852-1.059,1.352S43-1.289,43-.355V0h3.555V-.777H43.945c.016-.219.59-.656,1.035-.992.7-.531,1.484-.961,1.484-1.984a1.646,1.646,0,0,0-1.793-1.629A1.875,1.875,0,0,0,42.918-4.148ZM47.09-1.367h2.52V0h.809V-1.371H51.2V-2.09h-.781V-5.3h-.969L47.09-2.051Zm2.52-2.926v2.2H48.043Zm7.426-1.68H56.2L53.129,1.563h.836Zm1.844,4.605H61.4V0h.809V-1.371h.781V-2.09h-.781V-5.3h-.969L58.879-2.051ZM61.4-4.293v2.2H59.832ZM65.723.078a1.763,1.763,0,0,0,1.879-1.8,1.7,1.7,0,0,0-1.84-1.734,1.517,1.517,0,0,0-1.316.625c.066-1.3.7-1.809,1.609-1.809a2.091,2.091,0,0,1,1.008.258l.238-.7a2.452,2.452,0,0,0-1.262-.3c-1.676,0-2.41,1.211-2.41,2.922C63.629-1.059,64.242.078,65.723.078Zm-.07-2.809A.99.99,0,0,1,66.762-1.7,1.025,1.025,0,0,1,65.668-.637a1.039,1.039,0,0,1-1.09-1.07A1,1,0,0,1,65.652-2.73Zm7.816-3.242h-.84L69.563,1.563H70.4ZM77.633.078c1.293,0,2.113-1.066,2.113-2.73s-.82-2.73-2.113-2.73-2.117,1.07-2.117,2.73S76.34.078,77.633.078Zm0-4.687c.773,0,1.293.758,1.293,1.957S78.406-.7,77.633-.7s-1.3-.75-1.3-1.953S76.855-4.609,77.633-4.609Zm2.8,3.5A1.929,1.929,0,0,0,82.3.078a1.628,1.628,0,0,0,1.789-1.551A1.293,1.293,0,0,0,83.2-2.715a1.238,1.238,0,0,0,.762-1.172,1.581,1.581,0,0,0-1.777-1.5A1.847,1.847,0,0,0,80.43-4.23l.684.367A1.2,1.2,0,0,1,82.2-4.625c.543,0,.922.309.922.75a.849.849,0,0,1-.957.832H81.5v.715h.66c.641,0,1.082.344,1.082.844a.864.864,0,0,1-.965.793,1.232,1.232,0,0,1-1.164-.8Z" transform="translate(0 15.498)" fill="#fff"/>
          <path id="Path_5236" data-name="Path 5236" d="M.688-5.3V0h.82V-2.082H2.832L4.031,0h.953L3.7-2.2a1.529,1.529,0,0,0,1.074-1.5A1.6,1.6,0,0,0,2.969-5.3Zm2.242.738c.652,0,.988.344.988.871s-.336.879-.988.879H1.508v-1.75ZM8.25.078a2.449,2.449,0,0,0,2.57-2.543,2.768,2.768,0,0,0-.016-.309H8.125v.742H9.953A1.582,1.582,0,0,1,8.25-.7,1.858,1.858,0,0,1,6.359-2.652,1.847,1.847,0,0,1,8.23-4.605a1.9,1.9,0,0,1,1.629.871L10.5-4.18a2.66,2.66,0,0,0-2.266-1.2A2.686,2.686,0,0,0,5.5-2.652,2.7,2.7,0,0,0,8.25.078Zm6-.078a1.565,1.565,0,0,0,1.66-1.535,1.3,1.3,0,0,0-.781-1.215,1.252,1.252,0,0,0,.582-1.07A1.5,1.5,0,0,0,14.1-5.3H11.809V0ZM12.633-3.047V-4.574H14.1a.761.761,0,0,1,.789.773.751.751,0,0,1-.789.754Zm0,.691h1.621a.821.821,0,0,1,.848.8.809.809,0,0,1-.848.816H12.633Zm4.121-.992a.469.469,0,0,0,.477.477.472.472,0,0,0,.48-.477.475.475,0,0,0-.48-.48A.472.472,0,0,0,16.754-3.348Zm0,2.949a.469.469,0,0,0,.477.477.472.472,0,0,0,.48-.477.475.475,0,0,0-.48-.48A.472.472,0,0,0,16.754-.4Zm5.574.477c1.164,0,1.934-.625,1.934-1.566a1.333,1.333,0,0,0-.93-1.3,1.194,1.194,0,0,0,.734-1.148c0-.883-.687-1.457-1.738-1.457s-1.723.574-1.723,1.457a1.2,1.2,0,0,0,.7,1.145,1.337,1.337,0,0,0-.906,1.3C20.4-.547,21.18.078,22.328.078ZM21.414-3.9a.813.813,0,0,1,.914-.766c.566,0,.93.332.93.766,0,.477-.363.781-.93.781S21.414-3.422,21.414-3.9Zm.914,1.488c.688,0,1.121.336,1.121.867,0,.516-.434.9-1.121.9-.668,0-1.105-.383-1.105-.9C21.223-2.074,21.66-2.41,22.328-2.41ZM26.715.078a1.767,1.767,0,0,0,1.906-1.742,1.7,1.7,0,0,0-1.828-1.742,1.347,1.347,0,0,0-.82.246L26.1-4.527h2.262V-5.3H25.4l-.25,2.754.621.254a1.389,1.389,0,0,1,.961-.387.982.982,0,0,1,1.051,1.02.979.979,0,0,1-1.051.973,1.234,1.234,0,0,1-1.172-.82l-.684.379A1.905,1.905,0,0,0,26.715.078Zm7.8-6.051h-.84L30.613,1.563h.836ZM37.336,0h.82V-5.3H36.324v.742h1.012Zm1.691-1.367h2.52V0h.809V-1.371h.781V-2.09h-.781V-5.3h-.969L39.027-2.051Zm2.52-2.926v2.2H39.98ZM45.895.078c1.293,0,2.113-1.066,2.113-2.73s-.82-2.73-2.113-2.73-2.117,1.07-2.117,2.73S44.6.078,45.895.078Zm0-4.687c.773,0,1.293.758,1.293,1.957S46.668-.7,45.895-.7s-1.3-.75-1.3-1.953S45.117-4.609,45.895-4.609Zm8.074-1.363h-.84L50.063,1.563H50.9ZM56.785,0h.82V-5.3H55.773v.742h1.012Zm1.691-1.367H61V0H61.8V-1.371h.781V-2.09H61.8V-5.3h-.969L58.477-2.051ZM61-4.293v2.2H59.43ZM65.344.078c1.293,0,2.113-1.066,2.113-2.73s-.82-2.73-2.113-2.73-2.117,1.07-2.117,2.73S64.051.078,65.344.078Zm0-4.687c.773,0,1.293.758,1.293,1.957S66.117-.7,65.344-.7s-1.3-.75-1.3-1.953S64.566-4.609,65.344-4.609Z" transform="translate(0 25.636)" fill="#fff"/>
          <path id="Path_5235" data-name="Path 5235" d="M.117-5.3,1.594,0H2.918L3.98-3.93,5.047,0H6.371L7.848-5.3H7.023L5.707-.738,4.422-5.219H3.543L2.258-.738.938-5.3ZM8.82,0h3.8V-.746H9.641V-2.352h2.488V-3.1H9.641V-4.559h2.9V-5.3H8.82Zm7.441,0a1.565,1.565,0,0,0,1.66-1.535,1.3,1.3,0,0,0-.781-1.215,1.252,1.252,0,0,0,.582-1.07A1.5,1.5,0,0,0,16.106-5.3H13.816V0ZM14.641-3.047V-4.574h1.465a.761.761,0,0,1,.789.773.751.751,0,0,1-.789.754Zm0,.691h1.621a.821.821,0,0,1,.848.8.809.809,0,0,1-.848.816H14.641Zm4.289-.992a.469.469,0,0,0,.477.477.472.472,0,0,0,.48-.477.475.475,0,0,0-.48-.48A.472.472,0,0,0,18.93-3.348Zm0,2.949a.469.469,0,0,0,.477.477.472.472,0,0,0,.48-.477.475.475,0,0,0-.48-.48A.472.472,0,0,0,18.93-.4Zm5.7.477a1.767,1.767,0,0,0,1.906-1.742,1.7,1.7,0,0,0-1.828-1.742,1.347,1.347,0,0,0-.82.246l.129-1.367h2.262V-5.3H23.317l-.25,2.754.621.254a1.389,1.389,0,0,1,.961-.387A.982.982,0,0,1,25.7-1.664a.979.979,0,0,1-1.051.973,1.234,1.234,0,0,1-1.172-.82l-.684.379A1.905,1.905,0,0,0,24.633.078Zm4.48,0A1.767,1.767,0,0,0,31.02-1.664a1.7,1.7,0,0,0-1.828-1.742,1.347,1.347,0,0,0-.82.246L28.5-4.527h2.262V-5.3H27.8l-.25,2.754.621.254a1.389,1.389,0,0,1,.961-.387.982.982,0,0,1,1.051,1.02.979.979,0,0,1-1.051.973,1.234,1.234,0,0,1-1.172-.82l-.684.379A1.905,1.905,0,0,0,29.113.078Zm4.688,0c1.164,0,1.934-.625,1.934-1.566a1.333,1.333,0,0,0-.93-1.3,1.194,1.194,0,0,0,.734-1.148c0-.883-.687-1.457-1.738-1.457s-1.723.574-1.723,1.457a1.2,1.2,0,0,0,.7,1.145,1.337,1.337,0,0,0-.906,1.3C31.875-.547,32.653.078,33.8.078ZM32.887-3.9a.813.813,0,0,1,.914-.766c.566,0,.93.332.93.766,0,.477-.363.781-.93.781S32.887-3.422,32.887-3.9ZM33.8-2.41c.688,0,1.121.336,1.121.867,0,.516-.434.9-1.121.9-.668,0-1.105-.383-1.105-.9C32.7-2.074,33.133-2.41,33.8-2.41ZM38.574.078a1.957,1.957,0,0,0,1.734-1.02l-.582-.41a1.308,1.308,0,0,1-1.152.7,1.194,1.194,0,0,1-1.207-1.23A1.186,1.186,0,0,1,38.59-3.1a1.288,1.288,0,0,1,1.125.707l.6-.406a1.908,1.908,0,0,0-1.707-1.027,1.961,1.961,0,0,0-2.02,1.949A1.941,1.941,0,0,0,38.574.078Zm4.441,0c1.164,0,1.934-.625,1.934-1.566a1.333,1.333,0,0,0-.93-1.3,1.194,1.194,0,0,0,.734-1.148c0-.883-.687-1.457-1.738-1.457s-1.723.574-1.723,1.457A1.2,1.2,0,0,0,42-2.789a1.337,1.337,0,0,0-.906,1.3C41.09-.547,41.867.078,43.016.078ZM42.1-3.9a.813.813,0,0,1,.914-.766c.566,0,.93.332.93.766,0,.477-.363.781-.93.781S42.1-3.422,42.1-3.9Zm.914,1.488c.688,0,1.121.336,1.121.867,0,.516-.434.9-1.121.9-.668,0-1.105-.383-1.105-.9C41.91-2.074,42.348-2.41,43.016-2.41ZM47.789.078a1.957,1.957,0,0,0,1.734-1.02l-.582-.41a1.308,1.308,0,0,1-1.152.7,1.194,1.194,0,0,1-1.207-1.23A1.186,1.186,0,0,1,47.805-3.1a1.288,1.288,0,0,1,1.125.707l.6-.406a1.908,1.908,0,0,0-1.707-1.027A1.961,1.961,0,0,0,45.8-1.879,1.941,1.941,0,0,0,47.789.078Z" transform="translate(0 35.773)" fill="#fff"/>
        </g>
      </g>
      <g id="Group_6695" data-name="Group 6695" transform="translate(180.213 12.381)">
        <path id="Path_5244" data-name="Path 5244" d="M2.877,0V-2.6H4.916A2.675,2.675,0,0,0,7.635-5.3a2.635,2.635,0,0,0-2.719-2.66H.955V0Zm0-6.316H4.5A1.043,1.043,0,0,1,5.66-5.3,1.089,1.089,0,0,1,4.5-4.242H2.877ZM10.717.176a2.184,2.184,0,0,0,1.74-.709L12.516,0H14.21V-5.625H12.364v3.188a.893.893,0,0,1-.937.926.907.907,0,0,1-.943-.926V-5.625H8.637V-1.91A2.019,2.019,0,0,0,10.717.176ZM17.7,0V-2.707c0-1.049.592-1.43,1.289-1.43a2.15,2.15,0,0,1,.709.123l.111-1.611a2.218,2.218,0,0,0-.686-.117,1.578,1.578,0,0,0-1.471.885L17.6-5.625h-1.74V0Zm3.077,2.344h1.846V-.416a2.455,2.455,0,0,0,1.652.533A2.661,2.661,0,0,0,26.9-2.8a2.675,2.675,0,0,0-2.625-2.941,2.041,2.041,0,0,0-1.705.709l-.059-.592H20.779ZM23.8-4.09a1.2,1.2,0,0,1,1.242,1.277A1.223,1.223,0,0,1,23.8-1.535a1.2,1.2,0,0,1-1.2-1.277A1.194,1.194,0,0,1,23.8-4.09Zm6.188-4.16H28.145V0h1.846Zm1.237,5.438A2.853,2.853,0,0,0,34.251.117a2.86,2.86,0,0,0,2.455-1.225L35.534-2.139a1.689,1.689,0,0,1-1.26.7,1.139,1.139,0,0,1-1.242-.9h3.8a4.359,4.359,0,0,0,.053-.656,2.657,2.657,0,0,0-2.812-2.748A2.758,2.758,0,0,0,31.227-2.812Zm2.895-1.477a1.009,1.009,0,0,1,1.055.867H33.032A1.024,1.024,0,0,1,34.122-4.289Z" transform="translate(0 4)" fill="#fff"/>
        <g id="Group-2" data-name="Group" transform="translate(0 9.917)">
          <path id="Path_5243" data-name="Path 5243" d="M1.723,0v-1.82H2.984a1.733,1.733,0,0,0,1.9-1.73,1.724,1.724,0,0,0-1.9-1.75H.664V0Zm0-4.387h1.2a.8.8,0,0,1,.883.836.8.8,0,0,1-.883.816h-1.2ZM6.77.078a1.242,1.242,0,0,0,1.063-.5V0h.953V-2.309c0-.937-.684-1.52-1.781-1.52a2.053,2.053,0,0,0-1.6.781l.574.574a1.328,1.328,0,0,1,.992-.473.74.74,0,0,1,.813.715v.086A2.456,2.456,0,0,0,7-2.273c-1,0-1.645.492-1.645,1.2S5.918.078,6.77.078Zm.3-1.684a1.747,1.747,0,0,1,.719.145.8.8,0,0,1-.859.793c-.383,0-.625-.18-.625-.461S6.609-1.605,7.066-1.605ZM10.871,0V-2.1a.781.781,0,0,1,.832-.8.738.738,0,0,1,.777.8V0h1V-2.355A1.4,1.4,0,0,0,12-3.828a1.429,1.429,0,0,0-1.156.512l-.02-.434H9.871V0Zm3.84-2.918V-1.23A1.224,1.224,0,0,0,16.09.078,2.286,2.286,0,0,0,17-.109L16.9-.941a1.779,1.779,0,0,1-.637.129.5.5,0,0,1-.555-.562V-2.918h1.1V-3.75H15.688v-1.2h-.973v1.2h-.637v.832Zm4.6,3a1.932,1.932,0,0,0,2-1.953,1.934,1.934,0,0,0-2-1.953,1.937,1.937,0,0,0-2,1.953A1.934,1.934,0,0,0,19.313.078ZM18.3-1.875a1,1,0,0,1,1.008-1.043A.993.993,0,0,1,20.32-1.875.994.994,0,0,1,19.313-.828,1,1,0,0,1,18.3-1.875ZM23.176,0V-2.1a.781.781,0,0,1,.832-.8.738.738,0,0,1,.777.8V0h1V-2.355A1.4,1.4,0,0,0,24.3-3.828a1.429,1.429,0,0,0-1.156.512l-.02-.434h-.953V0Zm5.4.082a1.934,1.934,0,0,0,1.668-.9l-.711-.531a1.1,1.1,0,0,1-.934.527.987.987,0,0,1-1-.75h2.711A2.72,2.72,0,0,0,30.344-2a1.731,1.731,0,0,0-1.816-1.828A1.872,1.872,0,0,0,26.6-1.879,1.9,1.9,0,0,0,28.574.082Zm-.961-2.328a.881.881,0,0,1,.926-.738.842.842,0,0,1,.871.738ZM32.859-4.07l.887.422a1.034,1.034,0,0,1,.949-.785.736.736,0,0,1,.8.77c0,.434-.387.762-1.016,1.223-.645.473-1.508,1.113-1.508,2V0h3.68V-.922H34.2a3.488,3.488,0,0,1,.844-.742c.719-.523,1.539-1.059,1.539-2.012a1.747,1.747,0,0,0-1.9-1.707A1.966,1.966,0,0,0,32.859-4.07Zm6.793,2.738V0h1.012V-1.332H41.4v-.9h-.734V-5.3H39.426L37.145-2.148v.816Zm-1.359-.9L39.652-4.1V-2.23Zm5.426.422a1.541,1.541,0,0,0,1.242-.516,1.4,1.4,0,0,1-1.445,1.5,1.957,1.957,0,0,1-1.094-.34l-.3.844a2.433,2.433,0,0,0,1.434.4c1.668,0,2.48-1.172,2.48-3,0-1.348-.609-2.465-2.164-2.465a1.832,1.832,0,0,0-2.027,1.836A1.719,1.719,0,0,0,43.719-1.809ZM43.9-4.48a.917.917,0,0,1,.965.906.9.9,0,0,1-.969.887.885.885,0,0,1-.992-.891A.905.905,0,0,1,43.9-4.48ZM51.406.078A2.741,2.741,0,0,0,53.789-1.25l-.777-.562A1.892,1.892,0,0,1,51.406-.9a1.649,1.649,0,0,1-1.668-1.754,1.63,1.63,0,0,1,1.641-1.754,1.757,1.757,0,0,1,1.543.941l.832-.594a2.783,2.783,0,0,0-2.375-1.324,2.671,2.671,0,0,0-2.723,2.73A2.7,2.7,0,0,0,51.406.078Z" transform="translate(0 3)" fill="#fff"/>
          <path id="Path_5242" data-name="Path 5242" d="M.34-2.652A2.7,2.7,0,0,0,3.086.078,2.7,2.7,0,0,0,5.418-1.211L4.8-1.637A2.023,2.023,0,0,1,3.086-.7,1.855,1.855,0,0,1,1.2-2.652,1.844,1.844,0,0,1,3.066-4.605a1.957,1.957,0,0,1,1.7.961L5.4-4.09A2.7,2.7,0,0,0,3.066-5.383,2.686,2.686,0,0,0,.34-2.652ZM6.309,0h.828V-3.8L8.82-.375h.586L11.09-3.8V0h.828V-5.3h-.969L9.113-1.531,7.281-5.3H6.309Zm6.355-5.3,2.012,3.266V0h.816V-2.039L17.5-5.3h-.977l-1.445,2.4L13.641-5.3ZM18.25,0h.82V-1.6l.918-.988L21.691,0h1L20.566-3.141,22.559-5.3H21.5L19.07-2.668V-5.3h-.82Zm4.918-3.348a.469.469,0,0,0,.477.477.472.472,0,0,0,.48-.477.475.475,0,0,0-.48-.48A.472.472,0,0,0,23.168-3.348Zm0,2.949a.469.469,0,0,0,.477.477.472.472,0,0,0,.48-.477.475.475,0,0,0-.48-.48A.472.472,0,0,0,23.168-.4Zm5.367.477a1.767,1.767,0,0,0,1.906-1.742,1.7,1.7,0,0,0-1.828-1.742,1.347,1.347,0,0,0-.82.246l.129-1.367h2.262V-5.3H27.219l-.25,2.754.621.254a1.389,1.389,0,0,1,.961-.387A.982.982,0,0,1,29.6-1.664a.979.979,0,0,1-1.051.973,1.234,1.234,0,0,1-1.172-.82l-.684.379A1.905,1.905,0,0,0,28.535.078ZM30.973-5.3v.777h2.484A20.941,20.941,0,0,0,31.324,0h.891a23.015,23.015,0,0,1,2.18-4.633V-5.3Zm9.152-.668h-.84L36.219,1.563h.836Zm3.824,4.125a1.4,1.4,0,0,0,1.258-.625c-.035,1.188-.719,1.8-1.59,1.8a1.874,1.874,0,0,1-.988-.3l-.277.7a2.3,2.3,0,0,0,1.32.359c1.648,0,2.371-1.211,2.371-2.922,0-1.4-.6-2.539-2.043-2.539a1.737,1.737,0,0,0-1.91,1.8A1.69,1.69,0,0,0,43.949-1.848Zm.082-2.82A1.03,1.03,0,0,1,45.074-3.6a1,1,0,0,1-1.047,1.023.968.968,0,0,1-1.1-1.035A1.009,1.009,0,0,1,44.031-4.668Zm2.7,3.555A1.929,1.929,0,0,0,48.594.078a1.628,1.628,0,0,0,1.789-1.551A1.293,1.293,0,0,0,49.5-2.715a1.238,1.238,0,0,0,.762-1.172,1.581,1.581,0,0,0-1.777-1.5A1.847,1.847,0,0,0,46.727-4.23l.684.367A1.2,1.2,0,0,1,48.5-4.625c.543,0,.922.309.922.75a.849.849,0,0,1-.957.832H47.8v.715h.66c.641,0,1.082.344,1.082.844a.864.864,0,0,1-.965.793,1.232,1.232,0,0,1-1.164-.8Zm9.617-4.859H55.5L52.438,1.563h.836ZM58.3-4.148l.691.332a1.157,1.157,0,0,1,1.063-.789.86.86,0,0,1,.934.867c0,.52-.406.852-1.059,1.352s-1.551,1.1-1.551,2.031V0h3.555V-.777H59.328c.016-.219.59-.656,1.035-.992.7-.531,1.484-.961,1.484-1.984a1.646,1.646,0,0,0-1.793-1.629A1.875,1.875,0,0,0,58.3-4.148ZM64.586.078c1.164,0,1.934-.625,1.934-1.566a1.333,1.333,0,0,0-.93-1.3,1.194,1.194,0,0,0,.734-1.148c0-.883-.687-1.457-1.738-1.457s-1.723.574-1.723,1.457a1.2,1.2,0,0,0,.7,1.145,1.337,1.337,0,0,0-.906,1.3C62.66-.547,63.438.078,64.586.078ZM63.672-3.9a.813.813,0,0,1,.914-.766c.566,0,.93.332.93.766,0,.477-.363.781-.93.781S63.672-3.422,63.672-3.9Zm.914,1.488c.688,0,1.121.336,1.121.867,0,.516-.434.9-1.121.9-.668,0-1.105-.383-1.105-.9C63.48-2.074,63.918-2.41,64.586-2.41Zm7.879-3.562h-.84L68.559,1.563h.836ZM75.281,0h.82V-5.3H74.27v.742h1.012Zm1.8-4.148.691.332a1.157,1.157,0,0,1,1.063-.789.86.86,0,0,1,.934.867c0,.52-.406.852-1.059,1.352s-1.551,1.1-1.551,2.031V0h3.555V-.777H78.113c.016-.219.59-.656,1.035-.992.7-.531,1.484-.961,1.484-1.984A1.646,1.646,0,0,0,78.84-5.383,1.875,1.875,0,0,0,77.086-4.148Z" transform="translate(0 15.498)" fill="#fff"/>
          <path id="Path_5241" data-name="Path 5241" d="M.688-5.3V0h.82V-2.082H2.832L4.031,0h.953L3.7-2.2a1.529,1.529,0,0,0,1.074-1.5A1.6,1.6,0,0,0,2.969-5.3Zm2.242.738c.652,0,.988.344.988.871s-.336.879-.988.879H1.508v-1.75ZM8.25.078a2.449,2.449,0,0,0,2.57-2.543,2.768,2.768,0,0,0-.016-.309H8.125v.742H9.953A1.582,1.582,0,0,1,8.25-.7,1.858,1.858,0,0,1,6.359-2.652,1.847,1.847,0,0,1,8.23-4.605a1.9,1.9,0,0,1,1.629.871L10.5-4.18a2.66,2.66,0,0,0-2.266-1.2A2.686,2.686,0,0,0,5.5-2.652,2.7,2.7,0,0,0,8.25.078Zm6-.078a1.565,1.565,0,0,0,1.66-1.535,1.3,1.3,0,0,0-.781-1.215,1.252,1.252,0,0,0,.582-1.07A1.5,1.5,0,0,0,14.1-5.3H11.809V0ZM12.633-3.047V-4.574H14.1a.761.761,0,0,1,.789.773.751.751,0,0,1-.789.754Zm0,.691h1.621a.821.821,0,0,1,.848.8.809.809,0,0,1-.848.816H12.633Zm4.121-.992a.469.469,0,0,0,.477.477.472.472,0,0,0,.48-.477.475.475,0,0,0-.48-.48A.472.472,0,0,0,16.754-3.348Zm0,2.949a.469.469,0,0,0,.477.477.472.472,0,0,0,.48-.477.475.475,0,0,0-.48-.48A.472.472,0,0,0,16.754-.4Zm4.434.4h.82V-5.3H20.176v.742h1.012ZM25.2.078c1.293,0,2.113-1.066,2.113-2.73s-.82-2.73-2.113-2.73-2.117,1.07-2.117,2.73S23.906.078,25.2.078Zm0-4.687c.773,0,1.293.758,1.293,1.957S25.973-.7,25.2-.7s-1.3-.75-1.3-1.953S24.422-4.609,25.2-4.609Zm2.676,3.242h2.52V0H31.2V-1.371h.781V-2.09H31.2V-5.3h-.969L27.875-2.051Zm2.52-2.926v2.2H28.828Zm7.426-1.68h-.84L33.914,1.563h.836Zm1.844,4.605h2.52V0h.809V-1.371h.781V-2.09h-.781V-5.3h-.969L39.664-2.051Zm2.52-2.926v2.2H40.617ZM46.531.078c1.293,0,2.113-1.066,2.113-2.73s-.82-2.73-2.113-2.73-2.117,1.07-2.117,2.73S45.238.078,46.531.078Zm0-4.687c.773,0,1.293.758,1.293,1.957S47.3-.7,46.531-.7s-1.3-.75-1.3-1.953S45.754-4.609,46.531-4.609Zm8.074-1.363h-.84L50.7,1.563h.836ZM58.43-1.848a1.4,1.4,0,0,0,1.258-.625c-.035,1.188-.719,1.8-1.59,1.8a1.874,1.874,0,0,1-.988-.3l-.277.7a2.3,2.3,0,0,0,1.32.359c1.648,0,2.371-1.211,2.371-2.922,0-1.4-.6-2.539-2.043-2.539a1.737,1.737,0,0,0-1.91,1.8A1.69,1.69,0,0,0,58.43-1.848Zm.082-2.82A1.03,1.03,0,0,1,59.555-3.6a1,1,0,0,1-1.047,1.023.968.968,0,0,1-1.1-1.035A1.009,1.009,0,0,1,58.512-4.668ZM63.383.078a1.763,1.763,0,0,0,1.879-1.8,1.7,1.7,0,0,0-1.84-1.734,1.517,1.517,0,0,0-1.316.625c.066-1.3.7-1.809,1.609-1.809a2.091,2.091,0,0,1,1.008.258l.238-.7a2.452,2.452,0,0,0-1.262-.3c-1.676,0-2.41,1.211-2.41,2.922C61.289-1.059,61.9.078,63.383.078Zm-.07-2.809A.99.99,0,0,1,64.422-1.7,1.025,1.025,0,0,1,63.328-.637a1.039,1.039,0,0,1-1.09-1.07A1,1,0,0,1,63.313-2.73Z" transform="translate(0 25.636)" fill="#fff"/>
          <path id="Path_5240" data-name="Path 5240" d="M.117-5.3,1.594,0H2.918L3.98-3.93,5.047,0H6.371L7.848-5.3H7.023L5.707-.738,4.422-5.219H3.543L2.258-.738.938-5.3ZM8.764,0h3.8V-.746H9.585V-2.352h2.488V-3.1H9.585V-4.559h2.9V-5.3H8.764ZM16.15,0a1.565,1.565,0,0,0,1.66-1.535,1.3,1.3,0,0,0-.781-1.215,1.252,1.252,0,0,0,.582-1.07A1.5,1.5,0,0,0,15.994-5.3H13.7V0ZM14.529-3.047V-4.574h1.465a.761.761,0,0,1,.789.773.751.751,0,0,1-.789.754Zm0,.691H16.15a.821.821,0,0,1,.848.8.809.809,0,0,1-.848.816H14.529Zm4.233-.992a.469.469,0,0,0,.477.477.472.472,0,0,0,.48-.477.475.475,0,0,0-.48-.48A.472.472,0,0,0,18.762-3.348Zm0,2.949a.469.469,0,0,0,.477.477.472.472,0,0,0,.48-.477.475.475,0,0,0-.48-.48A.472.472,0,0,0,18.762-.4Zm5.982.477a1.763,1.763,0,0,0,1.879-1.8,1.7,1.7,0,0,0-1.84-1.734,1.517,1.517,0,0,0-1.316.625c.066-1.3.7-1.809,1.609-1.809a2.091,2.091,0,0,1,1.008.258l.238-.7a2.452,2.452,0,0,0-1.262-.3c-1.676,0-2.41,1.211-2.41,2.922C22.65-1.059,23.263.078,24.744.078Zm-.07-2.809A.99.99,0,0,1,25.783-1.7,1.025,1.025,0,0,1,24.689-.637a1.039,1.039,0,0,1-1.09-1.07A1,1,0,0,1,24.673-2.73ZM29.317.078c1.164,0,1.934-.625,1.934-1.566a1.333,1.333,0,0,0-.93-1.3,1.194,1.194,0,0,0,.734-1.148c0-.883-.687-1.457-1.738-1.457s-1.723.574-1.723,1.457a1.2,1.2,0,0,0,.7,1.145,1.337,1.337,0,0,0-.906,1.3C27.391-.547,28.168.078,29.317.078ZM28.4-3.9a.813.813,0,0,1,.914-.766c.566,0,.93.332.93.766,0,.477-.363.781-.93.781S28.4-3.422,28.4-3.9Zm.914,1.488c.688,0,1.121.336,1.121.867,0,.516-.434.9-1.121.9-.668,0-1.105-.383-1.105-.9C28.211-2.074,28.649-2.41,29.317-2.41Zm2.706-1.738.691.332a1.157,1.157,0,0,1,1.063-.789.86.86,0,0,1,.934.867c0,.52-.406.852-1.059,1.352S32.1-1.289,32.1-.355V0h3.555V-.777H33.05c.016-.219.59-.656,1.035-.992.7-.531,1.484-.961,1.484-1.984a1.646,1.646,0,0,0-1.793-1.629A1.875,1.875,0,0,0,32.022-4.148Zm6.4,4.227c1.164,0,1.934-.625,1.934-1.566a1.333,1.333,0,0,0-.93-1.3,1.194,1.194,0,0,0,.734-1.148c0-.883-.687-1.457-1.738-1.457S36.7-4.816,36.7-3.934a1.2,1.2,0,0,0,.7,1.145,1.337,1.337,0,0,0-.906,1.3C36.494-.547,37.271.078,38.419.078ZM37.505-3.9a.813.813,0,0,1,.914-.766c.566,0,.93.332.93.766,0,.477-.363.781-.93.781S37.505-3.422,37.505-3.9Zm.914,1.488c.688,0,1.121.336,1.121.867,0,.516-.434.9-1.121.9-.668,0-1.105-.383-1.105-.9C37.314-2.074,37.751-2.41,38.419-2.41ZM43.309.078a1.763,1.763,0,0,0,1.879-1.8,1.7,1.7,0,0,0-1.84-1.734,1.517,1.517,0,0,0-1.316.625c.066-1.3.7-1.809,1.609-1.809a2.091,2.091,0,0,1,1.008.258l.238-.7a2.452,2.452,0,0,0-1.262-.3c-1.676,0-2.41,1.211-2.41,2.922C41.215-1.059,41.828.078,43.309.078Zm-.07-2.809A.99.99,0,0,1,44.348-1.7,1.025,1.025,0,0,1,43.254-.637a1.039,1.039,0,0,1-1.09-1.07A1,1,0,0,1,43.238-2.73ZM48.089.078c1.293,0,2.113-1.066,2.113-2.73s-.82-2.73-2.113-2.73-2.117,1.07-2.117,2.73S46.8.078,48.089.078Zm0-4.687c.773,0,1.293.758,1.293,1.957S48.862-.7,48.089-.7s-1.3-.75-1.3-1.953S47.311-4.609,48.089-4.609Z" transform="translate(0 35.773)" fill="#fff"/>
        </g>
      </g>
      <path id="Path_5245" data-name="Path 5245" d="M.27-4.07l.887.422a1.034,1.034,0,0,1,.949-.785.736.736,0,0,1,.8.77c0,.434-.387.762-1.016,1.223C1.25-1.969.387-1.328.387-.441V0h3.68V-.922H1.613a3.488,3.488,0,0,1,.844-.742C3.176-2.187,4-2.723,4-3.676a1.747,1.747,0,0,0-1.9-1.707A1.966,1.966,0,0,0,.27-4.07ZM4.878-2.633c0,1.461.676,2.711,2.234,2.711S9.35-1.172,9.35-2.633s-.664-2.75-2.238-2.75S4.878-4.094,4.878-2.633Zm2.234-1.8c.832,0,1.16.875,1.16,1.785,0,.938-.328,1.785-1.16,1.785S5.956-1.715,5.956-2.652C5.956-3.562,6.28-4.437,7.112-4.437Zm4.413,2a1.449,1.449,0,0,0,1.5-1.465,1.451,1.451,0,0,0-1.5-1.477,1.448,1.448,0,0,0-1.492,1.477A1.445,1.445,0,0,0,11.525-2.441ZM11.642-.1V0h.613l2.859-5.211V-5.3H14.51Zm-.117-4.535a.7.7,0,0,1,.711.73.7.7,0,0,1-.711.719.7.7,0,0,1-.715-.719A.707.707,0,0,1,11.525-4.637Zm3.7,4.715a1.45,1.45,0,0,0,1.5-1.465,1.452,1.452,0,0,0-1.5-1.477,1.45,1.45,0,0,0-1.492,1.477A1.448,1.448,0,0,0,15.224.078Zm0-2.2a.7.7,0,0,1,.711.73.7.7,0,0,1-.711.719.7.7,0,0,1-.711-.719A.706.706,0,0,1,15.224-2.117Zm4.228.941A2.254,2.254,0,0,0,21.582.078c.945,0,2-.512,2-1.551s-.828-1.316-1.824-1.668c-.664-.234-1.051-.3-1.051-.723,0-.348.363-.566.773-.566a1.4,1.4,0,0,1,1.176.777l.813-.578A2.233,2.233,0,0,0,21.5-5.383a1.7,1.7,0,0,0-1.879,1.523c0,1.023.832,1.336,1.852,1.656.633.2,1.027.387,1.027.738s-.4.59-.91.59a1.477,1.477,0,0,1-1.363-.863ZM25.592,0V-2.1a.779.779,0,0,1,.828-.8.733.733,0,0,1,.766.8V0h1V-2.355a1.394,1.394,0,0,0-1.473-1.473,1.45,1.45,0,0,0-1.125.477V-5.5h-1V0Zm4.972.078a1.242,1.242,0,0,0,1.063-.5V0h.953V-2.309c0-.937-.684-1.52-1.781-1.52a2.053,2.053,0,0,0-1.6.781l.574.574a1.328,1.328,0,0,1,.992-.473.74.74,0,0,1,.813.715v.086a2.456,2.456,0,0,0-.789-.129c-1,0-1.645.492-1.645,1.2S29.712.078,30.564.078Zm.3-1.684a1.747,1.747,0,0,1,.719.145.8.8,0,0,1-.859.793c-.383,0-.625-.18-.625-.461S30.4-1.605,30.861-1.605Zm2.655-.273A1.823,1.823,0,0,0,35.332.078,1.564,1.564,0,0,0,36.551-.4l.02.4h.984V-5.5H36.57v2.2a1.485,1.485,0,0,0-1.238-.531A1.812,1.812,0,0,0,33.516-1.879ZM35.539-2.93a1,1,0,0,1,1.02,1.047A1.021,1.021,0,0,1,35.539-.82a1.013,1.013,0,0,1-1.016-1.062A.993.993,0,0,1,35.539-2.93ZM40.515.082a1.934,1.934,0,0,0,1.668-.9l-.711-.531a1.1,1.1,0,0,1-.934.527.987.987,0,0,1-1-.75h2.711A2.72,2.72,0,0,0,42.284-2a1.731,1.731,0,0,0-1.816-1.828,1.872,1.872,0,0,0-1.93,1.949A1.9,1.9,0,0,0,40.515.082Zm-.961-2.328a.881.881,0,0,1,.926-.738.842.842,0,0,1,.871.738Z" transform="translate(180.213 162.828)" fill="#fff"/>
      <path id="Path_5246" data-name="Path 5246" d="M.27-4.07l.887.422a1.034,1.034,0,0,1,.949-.785.736.736,0,0,1,.8.77c0,.434-.387.762-1.016,1.223C1.25-1.969.387-1.328.387-.441V0h3.68V-.922H1.613a3.488,3.488,0,0,1,.844-.742C3.176-2.187,4-2.723,4-3.676a1.747,1.747,0,0,0-1.9-1.707A1.966,1.966,0,0,0,.27-4.07ZM4.878-2.633c0,1.461.676,2.711,2.234,2.711S9.35-1.172,9.35-2.633s-.664-2.75-2.238-2.75S4.878-4.094,4.878-2.633Zm2.234-1.8c.832,0,1.16.875,1.16,1.785,0,.938-.328,1.785-1.16,1.785S5.956-1.715,5.956-2.652C5.956-3.562,6.28-4.437,7.112-4.437Zm4.413,2a1.449,1.449,0,0,0,1.5-1.465,1.451,1.451,0,0,0-1.5-1.477,1.448,1.448,0,0,0-1.492,1.477A1.445,1.445,0,0,0,11.525-2.441ZM11.642-.1V0h.613l2.859-5.211V-5.3H14.51Zm-.117-4.535a.7.7,0,0,1,.711.73.7.7,0,0,1-.711.719.7.7,0,0,1-.715-.719A.707.707,0,0,1,11.525-4.637Zm3.7,4.715a1.45,1.45,0,0,0,1.5-1.465,1.452,1.452,0,0,0-1.5-1.477,1.45,1.45,0,0,0-1.492,1.477A1.448,1.448,0,0,0,15.224.078Zm0-2.2a.7.7,0,0,1,.711.73.7.7,0,0,1-.711.719.7.7,0,0,1-.711-.719A.706.706,0,0,1,15.224-2.117Zm4.228.941A2.254,2.254,0,0,0,21.582.078c.945,0,2-.512,2-1.551s-.828-1.316-1.824-1.668c-.664-.234-1.051-.3-1.051-.723,0-.348.363-.566.773-.566a1.4,1.4,0,0,1,1.176.777l.813-.578A2.233,2.233,0,0,0,21.5-5.383a1.7,1.7,0,0,0-1.879,1.523c0,1.023.832,1.336,1.852,1.656.633.2,1.027.387,1.027.738s-.4.59-.91.59a1.477,1.477,0,0,1-1.363-.863ZM25.592,0V-2.1a.779.779,0,0,1,.828-.8.733.733,0,0,1,.766.8V0h1V-2.355a1.394,1.394,0,0,0-1.473-1.473,1.45,1.45,0,0,0-1.125.477V-5.5h-1V0Zm4.972.078a1.242,1.242,0,0,0,1.063-.5V0h.953V-2.309c0-.937-.684-1.52-1.781-1.52a2.053,2.053,0,0,0-1.6.781l.574.574a1.328,1.328,0,0,1,.992-.473.74.74,0,0,1,.813.715v.086a2.456,2.456,0,0,0-.789-.129c-1,0-1.645.492-1.645,1.2S29.712.078,30.564.078Zm.3-1.684a1.747,1.747,0,0,1,.719.145.8.8,0,0,1-.859.793c-.383,0-.625-.18-.625-.461S30.4-1.605,30.861-1.605Zm2.655-.273A1.823,1.823,0,0,0,35.332.078,1.564,1.564,0,0,0,36.551-.4l.02.4h.984V-5.5H36.57v2.2a1.485,1.485,0,0,0-1.238-.531A1.812,1.812,0,0,0,33.516-1.879ZM35.539-2.93a1,1,0,0,1,1.02,1.047A1.021,1.021,0,0,1,35.539-.82a1.013,1.013,0,0,1-1.016-1.062A.993.993,0,0,1,35.539-2.93ZM40.515.082a1.934,1.934,0,0,0,1.668-.9l-.711-.531a1.1,1.1,0,0,1-.934.527.987.987,0,0,1-1-.75h2.711A2.72,2.72,0,0,0,42.284-2a1.731,1.731,0,0,0-1.816-1.828,1.872,1.872,0,0,0-1.93,1.949A1.9,1.9,0,0,0,40.515.082Zm-.961-2.328a.881.881,0,0,1,.926-.738.842.842,0,0,1,.871.738Z" transform="translate(12.713 162.828)" fill="#fff"/>
    </g>
  </g>
</svg>
