<svg xmlns="http://www.w3.org/2000/svg" xmlns:xlink="http://www.w3.org/1999/xlink" width="377.915" height="65.404" viewBox="0 0 377.915 65.404"><defs><clipPath id="a"><path d="M0,0H377.915V-65.4H0Z" fill="none"/></clipPath></defs><g transform="translate(-670 -2762.893)"><g transform="translate(670 2828.297)"><path d="M.449-1.406A2.758,2.758,0,0,0,3.062.1C4.2.1,5.435-.522,5.435-1.782c0-1.284-1.03-1.626-2.266-2.046-.937-.317-1.479-.474-1.479-1.06s.6-.908,1.226-.908A1.812,1.812,0,0,1,4.5-4.8l.8-.557A2.584,2.584,0,0,0,2.915-6.729,2.043,2.043,0,0,0,.659-4.883c-.01,1.172.981,1.592,2.241,2,.977.313,1.5.557,1.5,1.113,0,.581-.6.947-1.362.947A1.935,1.935,0,0,1,1.216-1.938Zm5.82-.933A2.382,2.382,0,0,0,8.726.1a2.416,2.416,0,0,0,2.119-1.191l-.713-.518a1.576,1.576,0,0,1-1.406.8A1.383,1.383,0,0,1,7.271-2.065h3.638a2.361,2.361,0,0,0,.039-.449A2.189,2.189,0,0,0,8.691-4.785,2.356,2.356,0,0,0,6.27-2.339Zm1.025-.449A1.362,1.362,0,0,1,8.682-3.911,1.245,1.245,0,0,1,9.966-2.788Zm4.463.42A2.344,2.344,0,0,0,14.111.1a1.984,1.984,0,0,0,1.67-.737V0h.967V-6.875h-.967v2.827a1.984,1.984,0,0,0-1.67-.737A2.3,2.3,0,0,0,11.758-2.368Zm2.471-1.548a1.515,1.515,0,0,1,1.548,1.548,1.553,1.553,0,0,1-1.548,1.6,1.517,1.517,0,0,1-1.5-1.6A1.476,1.476,0,0,1,14.229-3.916Zm6.235-.771v2.847A1.8,1.8,0,0,0,22.422.1a1.691,1.691,0,0,0,1.465-.688V0h.972V-4.687h-.967v2.642A1.21,1.21,0,0,1,22.573-.82a1.085,1.085,0,0,1-1.143-1.226V-4.687Zm6.162.82v2.461a1.43,1.43,0,0,0,1.6,1.5,2.483,2.483,0,0,0,1.025-.205l-.127-.83a2.154,2.154,0,0,1-.762.161.682.682,0,0,1-.767-.747V-3.867h1.479v-.82H27.583v-1.5h-.942v1.5h-.85v.82Zm5.83,5.82h.967V-.64A1.984,1.984,0,0,0,35.093.1a2.3,2.3,0,0,0,2.354-2.417,2.344,2.344,0,0,0-2.354-2.466,1.984,1.984,0,0,0-1.67.737v-.64h-.967Zm.972-4.272a1.553,1.553,0,0,1,1.548-1.6,1.517,1.517,0,0,1,1.5,1.6,1.476,1.476,0,0,1-1.5,1.548A1.515,1.515,0,0,1,33.428-2.319Zm4.824-.02A2.382,2.382,0,0,0,40.708.1a2.416,2.416,0,0,0,2.119-1.191l-.713-.518a1.576,1.576,0,0,1-1.406.8,1.383,1.383,0,0,1-1.455-1.255h3.638a2.361,2.361,0,0,0,.039-.449,2.189,2.189,0,0,0-2.256-2.271A2.356,2.356,0,0,0,38.252-2.339Zm1.025-.449a1.362,1.362,0,0,1,1.387-1.123,1.245,1.245,0,0,1,1.284,1.123ZM45.049,0V-2.554A1.159,1.159,0,0,1,46.24-3.887a1.547,1.547,0,0,1,.571.107l.1-.889a1.829,1.829,0,0,0-.645-.117,1.3,1.3,0,0,0-1.221.737v-.64h-.972V0Zm2.334-.986A2.234,2.234,0,0,0,49.409.1c1,0,1.855-.552,1.855-1.406,0-.894-.664-1.226-1.685-1.475-.688-.166-1.035-.264-1.035-.62,0-.3.313-.5.776-.5a1.437,1.437,0,0,1,1.206.64l.649-.557a2.161,2.161,0,0,0-1.855-.967c-.957,0-1.733.547-1.733,1.4,0,.928.718,1.245,1.724,1.47.688.156.977.264.977.61,0,.317-.376.518-.879.518A1.473,1.473,0,0,1,48.1-1.567Zm5.059,2.939h.967V-.64A1.984,1.984,0,0,0,55.078.1a2.3,2.3,0,0,0,2.354-2.417,2.344,2.344,0,0,0-2.354-2.466,1.984,1.984,0,0,0-1.67.737v-.64h-.967Zm.972-4.272a1.553,1.553,0,0,1,1.548-1.6,1.517,1.517,0,0,1,1.5,1.6,1.476,1.476,0,0,1-1.5,1.548A1.515,1.515,0,0,1,53.413-2.319Zm5.054-3.94a.569.569,0,0,0,.6.6.573.573,0,0,0,.6-.6.573.573,0,0,0-.6-.6A.569.569,0,0,0,58.467-6.26ZM59.546,0V-4.687h-.967V0Zm3.623.1a2.447,2.447,0,0,0,2.168-1.274l-.728-.513a1.635,1.635,0,0,1-1.44.879A1.492,1.492,0,0,1,61.66-2.349a1.483,1.483,0,0,1,1.528-1.528,1.611,1.611,0,0,1,1.406.884l.747-.508a2.386,2.386,0,0,0-2.134-1.284,2.451,2.451,0,0,0-2.524,2.437A2.426,2.426,0,0,0,63.169.1ZM66.274-6.26a.569.569,0,0,0,.6.6.573.573,0,0,0,.6-.6.573.573,0,0,0-.6-.6A.569.569,0,0,0,66.274-6.26ZM67.354,0V-4.687h-.967V0Zm1.172-1.333c0,.918.8,1.431,1.812,1.431a1.706,1.706,0,0,0,1.46-.7V0h.947V-2.935c0-1.138-.835-1.851-2.153-1.851a2.638,2.638,0,0,0-1.968.952l.61.605a1.847,1.847,0,0,1,1.343-.649,1.074,1.074,0,0,1,1.2,1.025V-2.6a2.848,2.848,0,0,0-1.182-.22C69.365-2.817,68.525-2.212,68.525-1.333Zm.977-.034c0-.508.508-.713,1.118-.713a2.846,2.846,0,0,1,1.157.225,1.21,1.21,0,0,1-1.3,1.162C69.927-.693,69.5-.942,69.5-1.367Zm4.888-2.5v2.461a1.43,1.43,0,0,0,1.6,1.5,2.483,2.483,0,0,0,1.025-.205l-.127-.83a2.154,2.154,0,0,1-.762.161.682.682,0,0,1-.767-.747V-3.867h1.479v-.82H75.347v-1.5H74.4v1.5h-.85v.82ZM77.813-6.26a.569.569,0,0,0,.6.6.573.573,0,0,0,.6-.6.573.573,0,0,0-.6-.6A.569.569,0,0,0,77.813-6.26ZM78.892,0V-4.687h-.967V0Zm1.123-.986A2.234,2.234,0,0,0,82.041.1c1,0,1.855-.552,1.855-1.406,0-.894-.664-1.226-1.685-1.475-.688-.166-1.035-.264-1.035-.62,0-.3.313-.5.776-.5a1.437,1.437,0,0,1,1.206.64l.649-.557a2.161,2.161,0,0,0-1.855-.967c-.957,0-1.733.547-1.733,1.4,0,.928.718,1.245,1.724,1.47.688.156.977.264.977.61,0,.317-.376.518-.879.518a1.473,1.473,0,0,1-1.309-.776Zm7.29-3.7v2.847A1.8,1.8,0,0,0,89.263.1a1.691,1.691,0,0,0,1.465-.688V0H91.7V-4.687h-.967v2.642A1.21,1.21,0,0,1,89.414-.82a1.085,1.085,0,0,1-1.143-1.226V-4.687ZM94.15,0V-2.642a1.2,1.2,0,0,1,1.294-1.226A1.087,1.087,0,0,1,96.6-2.642V0h.967V-2.847A1.8,1.8,0,0,0,95.6-4.785a1.674,1.674,0,0,0-1.44.688v-.591h-.972V0Zm4.5-2.368A2.344,2.344,0,0,0,101,.1a1.984,1.984,0,0,0,1.67-.737V0h.967V-6.875h-.967v2.827A1.984,1.984,0,0,0,101-4.785,2.3,2.3,0,0,0,98.647-2.368Zm2.471-1.548a1.515,1.515,0,0,1,1.548,1.548,1.553,1.553,0,0,1-1.548,1.6,1.517,1.517,0,0,1-1.5-1.6A1.476,1.476,0,0,1,101.118-3.916Zm3.662,1.577A2.382,2.382,0,0,0,107.236.1a2.416,2.416,0,0,0,2.119-1.191l-.713-.518a1.576,1.576,0,0,1-1.406.8,1.383,1.383,0,0,1-1.455-1.255h3.638a2.361,2.361,0,0,0,.039-.449A2.189,2.189,0,0,0,107.2-4.785,2.356,2.356,0,0,0,104.78-2.339Zm1.025-.449a1.362,1.362,0,0,1,1.387-1.123,1.245,1.245,0,0,1,1.284,1.123ZM115.044.1a2.42,2.42,0,0,0,2.49-2.441,2.42,2.42,0,0,0-2.49-2.441,2.42,2.42,0,0,0-2.49,2.441A2.42,2.42,0,0,0,115.044.1Zm-1.523-2.441a1.492,1.492,0,0,1,1.523-1.533,1.492,1.492,0,0,1,1.523,1.533,1.492,1.492,0,0,1-1.523,1.533A1.492,1.492,0,0,1,113.521-2.344ZM118.672,0h.972V-2.642a1.19,1.19,0,0,1,1.27-1.226c.688,0,1.1.449,1.1,1.226V0h.972V-2.7a1.188,1.188,0,0,1,1.27-1.167c.688,0,1.1.449,1.1,1.226V0h.972V-2.847a1.789,1.789,0,0,0-1.924-1.938,1.94,1.94,0,0,0-1.675.874,1.78,1.78,0,0,0-1.67-.874,1.646,1.646,0,0,0-1.421.688v-.591h-.972Zm10.049,0V-2.642a1.2,1.2,0,0,1,1.294-1.226,1.087,1.087,0,0,1,1.152,1.226V0h.967V-2.847a1.8,1.8,0,0,0-1.968-1.938,1.674,1.674,0,0,0-1.44.688v-.591h-.972V0Zm4.722-6.26a.569.569,0,0,0,.6.6.573.573,0,0,0,.6-.6.573.573,0,0,0-.6-.6A.569.569,0,0,0,133.442-6.26ZM134.521,0V-4.687h-.967V0Zm1.123-.986A2.234,2.234,0,0,0,137.671.1c1,0,1.855-.552,1.855-1.406,0-.894-.664-1.226-1.685-1.475-.688-.166-1.035-.264-1.035-.62,0-.3.313-.5.776-.5a1.437,1.437,0,0,1,1.206.64l.649-.557a2.161,2.161,0,0,0-1.855-.967c-.957,0-1.733.547-1.733,1.4,0,.928.718,1.245,1.724,1.47.688.156.977.264.977.61,0,.317-.376.518-.879.518a1.473,1.473,0,0,1-1.309-.776Zm7.241-5.273a.569.569,0,0,0,.6.6.573.573,0,0,0,.6-.6.573.573,0,0,0-.6-.6A.569.569,0,0,0,142.886-6.26ZM143.965,0V-4.687H143V0Zm1.123-.986A2.234,2.234,0,0,0,147.114.1c1,0,1.855-.552,1.855-1.406,0-.894-.664-1.226-1.685-1.475-.688-.166-1.035-.264-1.035-.62,0-.3.313-.5.776-.5a1.437,1.437,0,0,1,1.206.64l.649-.557a2.161,2.161,0,0,0-1.855-.967c-.957,0-1.733.547-1.733,1.4,0,.928.718,1.245,1.724,1.47.688.156.977.264.977.61,0,.317-.376.518-.879.518a1.473,1.473,0,0,1-1.309-.776Zm5.293-2.881v2.461a1.43,1.43,0,0,0,1.6,1.5A2.483,2.483,0,0,0,153-.107l-.127-.83a2.154,2.154,0,0,1-.762.161.682.682,0,0,1-.767-.747V-3.867h1.479v-.82h-1.489v-1.5H150.4v1.5h-.85v.82Zm3.081,1.528A2.382,2.382,0,0,0,155.918.1a2.416,2.416,0,0,0,2.119-1.191l-.713-.518a1.576,1.576,0,0,1-1.406.8,1.383,1.383,0,0,1-1.455-1.255H158.1a2.361,2.361,0,0,0,.039-.449,2.189,2.189,0,0,0-2.256-2.271A2.356,2.356,0,0,0,153.462-2.339Zm1.025-.449a1.362,1.362,0,0,1,1.387-1.123,1.245,1.245,0,0,1,1.284,1.123ZM162.549,0V-2.642a1.2,1.2,0,0,1,1.294-1.226A1.087,1.087,0,0,1,165-2.642V0h.967V-2.847a1.8,1.8,0,0,0-1.968-1.938,1.674,1.674,0,0,0-1.44.688v-.591h-.972V0Zm4.521-1.333c0,.918.8,1.431,1.812,1.431a1.706,1.706,0,0,0,1.46-.7V0h.947V-2.935c0-1.138-.835-1.851-2.153-1.851a2.638,2.638,0,0,0-1.968.952l.61.605a1.847,1.847,0,0,1,1.343-.649,1.074,1.074,0,0,1,1.2,1.025V-2.6a2.848,2.848,0,0,0-1.182-.22C167.91-2.817,167.07-2.212,167.07-1.333Zm.977-.034c0-.508.508-.713,1.118-.713a2.846,2.846,0,0,1,1.157.225,1.21,1.21,0,0,1-1.3,1.162C168.472-.693,168.047-.942,168.047-1.367Zm4.888-2.5v2.461a1.43,1.43,0,0,0,1.6,1.5,2.483,2.483,0,0,0,1.025-.205l-.127-.83a2.154,2.154,0,0,1-.762.161.682.682,0,0,1-.767-.747V-3.867h1.479v-.82h-1.489v-1.5h-.942v1.5h-.85v.82Zm3.472-.82v2.847A1.8,1.8,0,0,0,178.364.1a1.691,1.691,0,0,0,1.465-.688V0h.972V-4.687h-.967v2.642A1.21,1.21,0,0,1,178.516-.82a1.085,1.085,0,0,1-1.143-1.226V-4.687Zm5.518,3.7A2.234,2.234,0,0,0,183.95.1c1,0,1.855-.552,1.855-1.406,0-.894-.664-1.226-1.685-1.475-.688-.166-1.035-.264-1.035-.62,0-.3.313-.5.776-.5a1.437,1.437,0,0,1,1.206.64l.649-.557a2.161,2.161,0,0,0-1.855-.967c-.957,0-1.733.547-1.733,1.4,0,.928.718,1.245,1.724,1.47.688.156.977.264.977.61,0,.317-.376.518-.879.518a1.473,1.473,0,0,1-1.309-.776Zm7.012-1.353A2.382,2.382,0,0,0,191.392.1a2.416,2.416,0,0,0,2.119-1.191l-.713-.518a1.576,1.576,0,0,1-1.406.8,1.383,1.383,0,0,1-1.455-1.255h3.638a2.361,2.361,0,0,0,.039-.449,2.189,2.189,0,0,0-2.256-2.271A2.356,2.356,0,0,0,188.936-2.339Zm1.025-.449a1.362,1.362,0,0,1,1.387-1.123,1.245,1.245,0,0,1,1.284,1.123ZM195.732,0V-2.554a1.159,1.159,0,0,1,1.191-1.333,1.547,1.547,0,0,1,.571.107l.1-.889a1.829,1.829,0,0,0-.645-.117,1.3,1.3,0,0,0-1.221.737v-.64h-.972V0Zm3.755,0V-2.554a1.159,1.159,0,0,1,1.191-1.333,1.547,1.547,0,0,1,.571.107l.1-.889a1.829,1.829,0,0,0-.645-.117,1.3,1.3,0,0,0-1.221.737v-.64h-.972V0Zm4.741.1a2.42,2.42,0,0,0,2.49-2.441,2.42,2.42,0,0,0-2.49-2.441,2.42,2.42,0,0,0-2.49,2.441A2.42,2.42,0,0,0,204.229.1Zm-1.523-2.441a1.492,1.492,0,0,1,1.523-1.533,1.492,1.492,0,0,1,1.523,1.533,1.492,1.492,0,0,1-1.523,1.533A1.492,1.492,0,0,1,202.705-2.344ZM208.828,0V-2.554a1.159,1.159,0,0,1,1.191-1.333,1.547,1.547,0,0,1,.571.107l.1-.889a1.829,1.829,0,0,0-.645-.117,1.3,1.3,0,0,0-1.221.737v-.64h-.972V0Z" transform="translate(9 -51.529)" fill="#42454a"/><path d="M2.676-.986A2.234,2.234,0,0,0,4.7.1c1,0,1.855-.552,1.855-1.406,0-.894-.664-1.226-1.685-1.475-.688-.166-1.035-.264-1.035-.62,0-.3.313-.5.776-.5a1.437,1.437,0,0,1,1.206.64l.649-.557a2.161,2.161,0,0,0-1.855-.967c-.957,0-1.733.547-1.733,1.4,0,.928.718,1.245,1.724,1.47.688.156.977.264.977.61,0,.317-.376.518-.879.518a1.473,1.473,0,0,1-1.309-.776ZM7.622-6.26a.569.569,0,0,0,.6.6.573.573,0,0,0,.6-.6.573.573,0,0,0-.6-.6A.569.569,0,0,0,7.622-6.26ZM8.7,0V-4.687H7.734V0Zm1.768-3.867v2.461a1.43,1.43,0,0,0,1.6,1.5,2.483,2.483,0,0,0,1.025-.205l-.127-.83a2.154,2.154,0,0,1-.762.161.682.682,0,0,1-.767-.747V-3.867h1.479v-.82H11.426v-1.5h-.942v1.5h-.85v.82ZM17.388,0H18.54l1.846-4.687h-1.04L17.964-.947l-1.382-3.74h-1.04Zm5.923.1A2.42,2.42,0,0,0,25.8-2.344a2.42,2.42,0,0,0-2.49-2.441,2.42,2.42,0,0,0-2.49,2.441A2.42,2.42,0,0,0,23.311.1ZM21.787-2.344a1.492,1.492,0,0,1,1.523-1.533,1.492,1.492,0,0,1,1.523,1.533A1.492,1.492,0,0,1,23.311-.811,1.492,1.492,0,0,1,21.787-2.344Zm6.118-4.531h-.967V0h.967Zm1.421,2.188v2.847A1.8,1.8,0,0,0,31.284.1a1.691,1.691,0,0,0,1.465-.688V0h.972V-4.687h-.967v2.642A1.21,1.21,0,0,1,31.436-.82a1.085,1.085,0,0,1-1.143-1.226V-4.687Zm5.879,6.641h.967V-.64A1.984,1.984,0,0,0,37.842.1,2.3,2.3,0,0,0,40.2-2.319a2.344,2.344,0,0,0-2.354-2.466,1.984,1.984,0,0,0-1.67.737v-.64h-.967Zm.972-4.272a1.553,1.553,0,0,1,1.548-1.6,1.517,1.517,0,0,1,1.5,1.6,1.476,1.476,0,0,1-1.5,1.548A1.515,1.515,0,0,1,36.177-2.319Zm5.376-1.548v2.461a1.43,1.43,0,0,0,1.6,1.5,2.483,2.483,0,0,0,1.025-.205l-.127-.83a2.154,2.154,0,0,1-.762.161.682.682,0,0,1-.767-.747V-3.867H44v-.82H42.51v-1.5h-.942v1.5h-.85v.82Zm3.223,2.534c0,.918.8,1.431,1.812,1.431a1.706,1.706,0,0,0,1.46-.7V0h.947V-2.935c0-1.138-.835-1.851-2.153-1.851a2.638,2.638,0,0,0-1.968.952l.61.605a1.847,1.847,0,0,1,1.343-.649,1.074,1.074,0,0,1,1.2,1.025V-2.6a2.848,2.848,0,0,0-1.182-.22C45.615-2.817,44.775-2.212,44.775-1.333Zm.977-.034c0-.508.508-.713,1.118-.713a2.846,2.846,0,0,1,1.157.225,1.21,1.21,0,0,1-1.3,1.162C46.177-.693,45.752-.942,45.752-1.367Zm4.888-2.5v2.461a1.43,1.43,0,0,0,1.6,1.5,2.483,2.483,0,0,0,1.025-.205l-.127-.83a2.154,2.154,0,0,1-.762.161.682.682,0,0,1-.767-.747V-3.867h1.479v-.82H51.6v-1.5h-.942v1.5H49.8v.82Zm3.081,1.528A2.382,2.382,0,0,0,56.177.1,2.416,2.416,0,0,0,58.3-1.094l-.713-.518a1.576,1.576,0,0,1-1.406.8,1.383,1.383,0,0,1-1.455-1.255h3.638a2.361,2.361,0,0,0,.039-.449,2.189,2.189,0,0,0-2.256-2.271A2.356,2.356,0,0,0,53.721-2.339Zm1.025-.449a1.362,1.362,0,0,1,1.387-1.123,1.245,1.245,0,0,1,1.284,1.123ZM59.546,0h.972V-2.642a1.19,1.19,0,0,1,1.27-1.226c.688,0,1.1.449,1.1,1.226V0h.972V-2.7a1.188,1.188,0,0,1,1.27-1.167c.688,0,1.1.449,1.1,1.226V0h.972V-2.847a1.789,1.789,0,0,0-1.924-1.938,1.94,1.94,0,0,0-1.675.874,1.78,1.78,0,0,0-1.67-.874,1.646,1.646,0,0,0-1.421.688v-.591h-.972ZM70.61-1.333c0,.918.8,1.431,1.812,1.431a1.706,1.706,0,0,0,1.46-.7V0h.947V-2.935c0-1.138-.835-1.851-2.153-1.851a2.638,2.638,0,0,0-1.968.952l.61.605a1.847,1.847,0,0,1,1.343-.649,1.074,1.074,0,0,1,1.2,1.025V-2.6a2.848,2.848,0,0,0-1.182-.22C71.45-2.817,70.61-2.212,70.61-1.333Zm.977-.034c0-.508.508-.713,1.118-.713a2.846,2.846,0,0,1,1.157.225,1.21,1.21,0,0,1-1.3,1.162C72.012-.693,71.587-.942,71.587-1.367ZM78.389.1a2.447,2.447,0,0,0,2.168-1.274l-.728-.513a1.635,1.635,0,0,1-1.44.879A1.492,1.492,0,0,1,76.88-2.349a1.483,1.483,0,0,1,1.528-1.528,1.611,1.611,0,0,1,1.406.884l.747-.508a2.386,2.386,0,0,0-2.134-1.284A2.451,2.451,0,0,0,75.9-2.349,2.426,2.426,0,0,0,78.389.1Zm5.317,0a2.447,2.447,0,0,0,2.168-1.274l-.728-.513a1.635,1.635,0,0,1-1.44.879A1.492,1.492,0,0,1,82.2-2.349a1.483,1.483,0,0,1,1.528-1.528,1.611,1.611,0,0,1,1.406.884l.747-.508a2.386,2.386,0,0,0-2.134-1.284,2.451,2.451,0,0,0-2.524,2.437A2.426,2.426,0,0,0,83.706.1ZM86.86-4.687v2.847A1.8,1.8,0,0,0,88.818.1a1.691,1.691,0,0,0,1.465-.688V0h.972V-4.687h-.967v2.642A1.21,1.21,0,0,1,88.97-.82a1.085,1.085,0,0,1-1.143-1.226V-4.687Zm5.518,3.7A2.234,2.234,0,0,0,94.4.1c1,0,1.855-.552,1.855-1.406,0-.894-.664-1.226-1.685-1.475-.688-.166-1.035-.264-1.035-.62,0-.3.313-.5.776-.5a1.437,1.437,0,0,1,1.206.64l.649-.557a2.161,2.161,0,0,0-1.855-.967c-.957,0-1.733.547-1.733,1.4,0,.928.718,1.245,1.724,1.47.688.156.977.264.977.61,0,.317-.376.518-.879.518A1.473,1.473,0,0,1,93.1-1.567Zm4.746-.347c0,.918.8,1.431,1.812,1.431a1.706,1.706,0,0,0,1.46-.7V0h.947V-2.935c0-1.138-.835-1.851-2.153-1.851a2.638,2.638,0,0,0-1.968.952l.61.605a1.847,1.847,0,0,1,1.343-.649,1.074,1.074,0,0,1,1.2,1.025V-2.6a2.848,2.848,0,0,0-1.182-.22C97.964-2.817,97.124-2.212,97.124-1.333Zm.977-.034c0-.508.508-.713,1.118-.713a2.846,2.846,0,0,1,1.157.225,1.21,1.21,0,0,1-1.3,1.162C98.525-.693,98.1-.942,98.1-1.367ZM103.73,0V-2.642a1.2,1.2,0,0,1,1.294-1.226,1.087,1.087,0,0,1,1.152,1.226V0h.967V-2.847a1.8,1.8,0,0,0-1.968-1.938,1.674,1.674,0,0,0-1.44.688v-.591h-.972V0Zm5.059-3.867v2.461a1.43,1.43,0,0,0,1.6,1.5,2.483,2.483,0,0,0,1.025-.205l-.127-.83a2.154,2.154,0,0,1-.762.161.682.682,0,0,1-.767-.747V-3.867h1.479v-.82h-1.489v-1.5H108.8v1.5h-.85v.82Zm3.423-2.393a.569.569,0,0,0,.6.6.573.573,0,0,0,.6-.6.573.573,0,0,0-.6-.6A.569.569,0,0,0,112.212-6.26ZM113.291,0V-4.687h-.967V0Zm1.421-4.687v2.847A1.8,1.8,0,0,0,116.67.1a1.691,1.691,0,0,0,1.465-.688V0h.972V-4.687h-.967v2.642A1.21,1.21,0,0,1,116.821-.82a1.085,1.085,0,0,1-1.143-1.226V-4.687ZM120.591,0h.972V-2.642a1.19,1.19,0,0,1,1.27-1.226c.688,0,1.1.449,1.1,1.226V0h.972V-2.7a1.188,1.188,0,0,1,1.27-1.167c.688,0,1.1.449,1.1,1.226V0h.972V-2.847a1.789,1.789,0,0,0-1.924-1.938,1.94,1.94,0,0,0-1.675.874,1.78,1.78,0,0,0-1.67-.874,1.646,1.646,0,0,0-1.421.688v-.591h-.972Z" transform="translate(219.649 -51.529)" fill="#42454a"/><path d="M.405-2.368A2.344,2.344,0,0,0,2.759.1,1.984,1.984,0,0,0,4.429-.64V0H5.4V-6.875H4.429v2.827a1.984,1.984,0,0,0-1.67-.737A2.3,2.3,0,0,0,.405-2.368ZM2.876-3.916A1.515,1.515,0,0,1,4.424-2.368a1.553,1.553,0,0,1-1.548,1.6,1.517,1.517,0,0,1-1.5-1.6A1.476,1.476,0,0,1,2.876-3.916ZM9.023.1a2.42,2.42,0,0,0,2.49-2.441,2.42,2.42,0,0,0-2.49-2.441,2.42,2.42,0,0,0-2.49,2.441A2.42,2.42,0,0,0,9.023.1ZM7.5-2.344A1.492,1.492,0,0,1,9.023-3.877a1.492,1.492,0,0,1,1.523,1.533A1.492,1.492,0,0,1,9.023-.811,1.492,1.492,0,0,1,7.5-2.344Zm6.118-4.531h-.967V0h.967ZM17.246.1a2.42,2.42,0,0,0,2.49-2.441,2.42,2.42,0,0,0-2.49-2.441,2.42,2.42,0,0,0-2.49,2.441A2.42,2.42,0,0,0,17.246.1ZM15.723-2.344a1.492,1.492,0,0,1,1.523-1.533A1.492,1.492,0,0,1,18.77-2.344,1.492,1.492,0,0,1,17.246-.811,1.492,1.492,0,0,1,15.723-2.344ZM21.846,0V-2.554a1.159,1.159,0,0,1,1.191-1.333,1.547,1.547,0,0,1,.571.107l.1-.889a1.829,1.829,0,0,0-.645-.117,1.3,1.3,0,0,0-1.221.737v-.64h-.972V0ZM24.1-2.339A2.382,2.382,0,0,0,26.558.1a2.416,2.416,0,0,0,2.119-1.191l-.713-.518a1.576,1.576,0,0,1-1.406.8A1.383,1.383,0,0,1,25.1-2.065H28.74a2.361,2.361,0,0,0,.039-.449,2.189,2.189,0,0,0-2.256-2.271A2.356,2.356,0,0,0,24.1-2.339Zm1.025-.449a1.362,1.362,0,0,1,1.387-1.123A1.245,1.245,0,0,1,27.8-2.788ZM29.927,0H30.9V-2.642a1.19,1.19,0,0,1,1.27-1.226c.688,0,1.1.449,1.1,1.226V0h.972V-2.7a1.188,1.188,0,0,1,1.27-1.167c.688,0,1.1.449,1.1,1.226V0h.972V-2.847a1.789,1.789,0,0,0-1.924-1.938,1.94,1.94,0,0,0-1.675.874,1.78,1.78,0,0,0-1.67-.874A1.646,1.646,0,0,0,30.9-4.1v-.591h-.972Zm8.745-2.319A2.3,2.3,0,0,0,41.025.1,1.984,1.984,0,0,0,42.7-.64V1.953h.967V-4.687H42.7v.64a1.984,1.984,0,0,0-1.67-.737A2.344,2.344,0,0,0,38.672-2.319Zm.967,0a1.517,1.517,0,0,1,1.5-1.6,1.553,1.553,0,0,1,1.548,1.6A1.515,1.515,0,0,1,41.143-.771,1.476,1.476,0,0,1,39.639-2.319Zm5.425-2.368v2.847A1.8,1.8,0,0,0,47.021.1a1.691,1.691,0,0,0,1.465-.688V0h.972V-4.687h-.967v2.642A1.21,1.21,0,0,1,47.173-.82,1.085,1.085,0,0,1,46.03-2.046V-4.687ZM50.6-2.339A2.382,2.382,0,0,0,53.057.1a2.416,2.416,0,0,0,2.119-1.191l-.713-.518a1.576,1.576,0,0,1-1.406.8A1.383,1.383,0,0,1,51.6-2.065h3.638a2.361,2.361,0,0,0,.039-.449,2.189,2.189,0,0,0-2.256-2.271A2.356,2.356,0,0,0,50.6-2.339Zm1.025-.449a1.362,1.362,0,0,1,1.387-1.123A1.245,1.245,0,0,1,54.3-2.788Zm8.062-4.087h-.967V0h.967Zm1.172,5.542c0,.918.8,1.431,1.812,1.431a1.706,1.706,0,0,0,1.46-.7V0h.947V-2.935c0-1.138-.835-1.851-2.153-1.851a2.638,2.638,0,0,0-1.968.952l.61.605a1.847,1.847,0,0,1,1.343-.649,1.074,1.074,0,0,1,1.2,1.025V-2.6a2.848,2.848,0,0,0-1.182-.22C61.7-2.817,60.859-2.212,60.859-1.333Zm.977-.034c0-.508.508-.713,1.118-.713a2.846,2.846,0,0,1,1.157.225,1.21,1.21,0,0,1-1.3,1.162C62.261-.693,61.836-.942,61.836-1.367Zm4.6-3.32v2.847A1.8,1.8,0,0,0,68.394.1a1.691,1.691,0,0,0,1.465-.688V0h.972V-4.687h-.967v2.642A1.21,1.21,0,0,1,68.545-.82,1.085,1.085,0,0,1,67.4-2.046V-4.687Zm5.542,2.319A2.344,2.344,0,0,0,74.331.1,1.984,1.984,0,0,0,76-.64V0h.967V-6.875H76v2.827a1.984,1.984,0,0,0-1.67-.737A2.3,2.3,0,0,0,71.978-2.368Zm2.471-1.548A1.515,1.515,0,0,1,76-2.368a1.553,1.553,0,0,1-1.548,1.6,1.517,1.517,0,0,1-1.5-1.6A1.476,1.476,0,0,1,74.448-3.916ZM78.14-1.333c0,.918.8,1.431,1.812,1.431a1.706,1.706,0,0,0,1.46-.7V0h.947V-2.935c0-1.138-.835-1.851-2.153-1.851a2.638,2.638,0,0,0-1.968.952l.61.605a1.847,1.847,0,0,1,1.343-.649,1.074,1.074,0,0,1,1.2,1.025V-2.6a2.848,2.848,0,0,0-1.182-.22C78.979-2.817,78.14-2.212,78.14-1.333Zm.977-.034c0-.508.508-.713,1.118-.713a2.846,2.846,0,0,1,1.157.225,1.21,1.21,0,0,1-1.3,1.162C79.541-.693,79.116-.942,79.116-1.367ZM84.746,0V-2.642A1.2,1.2,0,0,1,86.04-3.867a1.087,1.087,0,0,1,1.152,1.226V0h.967V-2.847a1.8,1.8,0,0,0-1.968-1.938,1.674,1.674,0,0,0-1.44.688v-.591h-.972V0ZM89.8-3.867v2.461A1.43,1.43,0,0,0,91.4.1a2.483,2.483,0,0,0,1.025-.205L92.3-.937a2.154,2.154,0,0,1-.762.161.682.682,0,0,1-.767-.747V-3.867h1.479v-.82H90.762v-1.5h-.942v1.5h-.85v.82ZM93.228-6.26a.569.569,0,0,0,.6.6.573.573,0,0,0,.6-.6.573.573,0,0,0-.6-.6A.569.569,0,0,0,93.228-6.26ZM94.307,0V-4.687H93.34V0Zm1.421-4.687v2.847A1.8,1.8,0,0,0,97.686.1,1.691,1.691,0,0,0,99.15-.591V0h.972V-4.687h-.967v2.642A1.21,1.21,0,0,1,97.837-.82a1.085,1.085,0,0,1-1.143-1.226V-4.687ZM101.606,0h.972V-2.642a1.19,1.19,0,0,1,1.27-1.226c.688,0,1.1.449,1.1,1.226V0h.972V-2.7a1.188,1.188,0,0,1,1.27-1.167c.688,0,1.1.449,1.1,1.226V0h.972V-2.847a1.789,1.789,0,0,0-1.924-1.938,1.94,1.94,0,0,0-1.675.874A1.78,1.78,0,0,0,104-4.785a1.646,1.646,0,0,0-1.421.688v-.591h-.972Zm9.106-1.235-.62,2.52h.854l.781-2.52Z" transform="translate(9 -39.529)" fill="#42454a"/><path d="M3.32-3.867v2.461A1.43,1.43,0,0,0,4.917.1,2.483,2.483,0,0,0,5.942-.107l-.127-.83a2.154,2.154,0,0,1-.762.161.682.682,0,0,1-.767-.747V-3.867H5.767v-.82H4.277v-1.5H3.335v1.5h-.85v.82ZM8.887.1a2.42,2.42,0,0,0,2.49-2.441,2.42,2.42,0,0,0-2.49-2.441A2.42,2.42,0,0,0,6.4-2.344,2.42,2.42,0,0,0,8.887.1ZM7.363-2.344A1.492,1.492,0,0,1,8.887-3.877,1.492,1.492,0,0,1,10.41-2.344,1.492,1.492,0,0,1,8.887-.811,1.492,1.492,0,0,1,7.363-2.344ZM12.72-3.867v2.461a1.43,1.43,0,0,0,1.6,1.5,2.483,2.483,0,0,0,1.025-.205l-.127-.83a2.154,2.154,0,0,1-.762.161.682.682,0,0,1-.767-.747V-3.867h1.479v-.82H13.677v-1.5h-.942v1.5h-.85v.82Zm3.223,2.534c0,.918.8,1.431,1.812,1.431a1.706,1.706,0,0,0,1.46-.7V0h.947V-2.935c0-1.138-.835-1.851-2.153-1.851a2.638,2.638,0,0,0-1.968.952l.61.605a1.847,1.847,0,0,1,1.343-.649,1.074,1.074,0,0,1,1.2,1.025V-2.6a2.848,2.848,0,0,0-1.182-.22C16.782-2.817,15.942-2.212,15.942-1.333Zm.977-.034c0-.508.508-.713,1.118-.713a2.846,2.846,0,0,1,1.157.225A1.21,1.21,0,0,1,17.9-.693C17.344-.693,16.919-.942,16.919-1.367ZM21.582,0h.972V-2.642a1.19,1.19,0,0,1,1.27-1.226c.688,0,1.1.449,1.1,1.226V0H25.9V-2.7a1.188,1.188,0,0,1,1.27-1.167c.688,0,1.1.449,1.1,1.226V0h.972V-2.847a1.789,1.789,0,0,0-1.924-1.938,1.94,1.94,0,0,0-1.675.874,1.78,1.78,0,0,0-1.67-.874,1.646,1.646,0,0,0-1.421.688v-.591h-.972ZM33.931,0V-2.554a1.159,1.159,0,0,1,1.191-1.333,1.547,1.547,0,0,1,.571.107l.1-.889a1.829,1.829,0,0,0-.645-.117,1.3,1.3,0,0,0-1.221.737v-.64h-.972V0Zm2.256-2.339A2.382,2.382,0,0,0,38.643.1a2.416,2.416,0,0,0,2.119-1.191l-.713-.518a1.576,1.576,0,0,1-1.406.8,1.383,1.383,0,0,1-1.455-1.255h3.638a2.361,2.361,0,0,0,.039-.449,2.189,2.189,0,0,0-2.256-2.271A2.356,2.356,0,0,0,36.187-2.339Zm1.025-.449A1.362,1.362,0,0,1,38.6-3.911a1.245,1.245,0,0,1,1.284,1.123ZM42.012,0h.972V-2.642a1.19,1.19,0,0,1,1.27-1.226c.688,0,1.1.449,1.1,1.226V0h.972V-2.7A1.188,1.188,0,0,1,47.6-3.867c.688,0,1.1.449,1.1,1.226V0h.972V-2.847a1.789,1.789,0,0,0-1.924-1.938,1.94,1.94,0,0,0-1.675.874,1.78,1.78,0,0,0-1.67-.874,1.646,1.646,0,0,0-1.421.688v-.591h-.972ZM53.076-1.333c0,.918.8,1.431,1.812,1.431a1.706,1.706,0,0,0,1.46-.7V0h.947V-2.935c0-1.138-.835-1.851-2.153-1.851a2.638,2.638,0,0,0-1.968.952l.61.605a1.847,1.847,0,0,1,1.343-.649,1.074,1.074,0,0,1,1.2,1.025V-2.6a2.848,2.848,0,0,0-1.182-.22C53.916-2.817,53.076-2.212,53.076-1.333Zm.977-.034c0-.508.508-.713,1.118-.713a2.846,2.846,0,0,1,1.157.225,1.21,1.21,0,0,1-1.3,1.162C54.478-.693,54.053-.942,54.053-1.367Zm4.663,3.32h.967V-.64A1.984,1.984,0,0,0,61.353.1a2.3,2.3,0,0,0,2.354-2.417,2.344,2.344,0,0,0-2.354-2.466,1.984,1.984,0,0,0-1.67.737v-.64h-.967Zm.972-4.272a1.553,1.553,0,0,1,1.548-1.6,1.517,1.517,0,0,1,1.5,1.6,1.476,1.476,0,0,1-1.5,1.548A1.515,1.515,0,0,1,59.688-2.319Zm4.824-.02A2.382,2.382,0,0,0,66.968.1a2.416,2.416,0,0,0,2.119-1.191l-.713-.518a1.576,1.576,0,0,1-1.406.8,1.383,1.383,0,0,1-1.455-1.255H69.15a2.361,2.361,0,0,0,.039-.449,2.189,2.189,0,0,0-2.256-2.271A2.356,2.356,0,0,0,64.512-2.339Zm1.025-.449a1.362,1.362,0,0,1,1.387-1.123,1.245,1.245,0,0,1,1.284,1.123ZM71.309,0V-2.554A1.159,1.159,0,0,1,72.5-3.887a1.547,1.547,0,0,1,.571.107l.1-.889a1.829,1.829,0,0,0-.645-.117,1.3,1.3,0,0,0-1.221.737v-.64h-.972V0Zm2.671-6.26a.569.569,0,0,0,.6.6.573.573,0,0,0,.6-.6.573.573,0,0,0-.6-.6A.569.569,0,0,0,73.979-6.26ZM75.059,0V-4.687h-.967V0ZM76.23-1.333c0,.918.8,1.431,1.812,1.431a1.706,1.706,0,0,0,1.46-.7V0h.947V-2.935c0-1.138-.835-1.851-2.153-1.851a2.638,2.638,0,0,0-1.968.952l.61.605a1.847,1.847,0,0,1,1.343-.649,1.074,1.074,0,0,1,1.2,1.025V-2.6a2.848,2.848,0,0,0-1.182-.22C77.07-2.817,76.23-2.212,76.23-1.333Zm.977-.034c0-.508.508-.713,1.118-.713a2.846,2.846,0,0,1,1.157.225,1.21,1.21,0,0,1-1.3,1.162C77.632-.693,77.207-.942,77.207-1.367ZM81.87,0h.972V-2.642a1.19,1.19,0,0,1,1.27-1.226c.688,0,1.1.449,1.1,1.226V0h.972V-2.7a1.188,1.188,0,0,1,1.27-1.167c.688,0,1.1.449,1.1,1.226V0h.972V-2.847a1.789,1.789,0,0,0-1.924-1.938,1.94,1.94,0,0,0-1.675.874,1.78,1.78,0,0,0-1.67-.874,1.646,1.646,0,0,0-1.421.688v-.591H81.87Zm9.106-1.235-.62,2.52h.854l.781-2.52Z" transform="translate(120.997 -39.529)" fill="#42454a"/><path d="M2.7-2.339A2.382,2.382,0,0,0,5.151.1,2.416,2.416,0,0,0,7.271-1.094l-.713-.518a1.576,1.576,0,0,1-1.406.8A1.383,1.383,0,0,1,3.7-2.065H7.334a2.361,2.361,0,0,0,.039-.449A2.189,2.189,0,0,0,5.117-4.785,2.356,2.356,0,0,0,2.7-2.339Zm1.025-.449A1.362,1.362,0,0,1,5.107-3.911,1.245,1.245,0,0,1,6.392-2.788ZM8.208-1.333C8.208-.415,9,.1,10.02.1a1.706,1.706,0,0,0,1.46-.7V0h.947V-2.935c0-1.138-.835-1.851-2.153-1.851a2.638,2.638,0,0,0-1.968.952l.61.605a1.847,1.847,0,0,1,1.343-.649,1.074,1.074,0,0,1,1.2,1.025V-2.6a2.848,2.848,0,0,0-1.182-.22C9.048-2.817,8.208-2.212,8.208-1.333Zm.977-.034c0-.508.508-.713,1.118-.713a2.846,2.846,0,0,1,1.157.225,1.21,1.21,0,0,1-1.3,1.162C9.609-.693,9.185-.942,9.185-1.367Zm4.326-.952A2.3,2.3,0,0,0,15.864.1a1.984,1.984,0,0,0,1.67-.737V1.953H18.5V-4.687h-.967v.64a1.984,1.984,0,0,0-1.67-.737A2.344,2.344,0,0,0,13.511-2.319Zm.967,0a1.517,1.517,0,0,1,1.5-1.6,1.553,1.553,0,0,1,1.548,1.6A1.515,1.515,0,0,1,15.981-.771,1.476,1.476,0,0,1,14.478-2.319ZM19.9-4.687v2.847A1.8,1.8,0,0,0,21.86.1a1.691,1.691,0,0,0,1.465-.688V0H24.3V-4.687H23.33v2.642A1.21,1.21,0,0,1,22.012-.82a1.085,1.085,0,0,1-1.143-1.226V-4.687Zm5.537,2.349A2.382,2.382,0,0,0,27.9.1a2.416,2.416,0,0,0,2.119-1.191L29.3-1.611a1.576,1.576,0,0,1-1.406.8A1.383,1.383,0,0,1,26.44-2.065h3.638a2.361,2.361,0,0,0,.039-.449,2.189,2.189,0,0,0-2.256-2.271A2.356,2.356,0,0,0,25.439-2.339Zm1.025-.449a1.362,1.362,0,0,1,1.387-1.123,1.245,1.245,0,0,1,1.284,1.123ZM33.447-6.26a.569.569,0,0,0,.6.6.573.573,0,0,0,.6-.6.573.573,0,0,0-.6-.6A.569.569,0,0,0,33.447-6.26ZM34.526,0V-4.687H33.56V0Zm1.484,1.953h.967V-.64A1.984,1.984,0,0,0,38.647.1,2.3,2.3,0,0,0,41-2.319a2.344,2.344,0,0,0-2.354-2.466,1.984,1.984,0,0,0-1.67.737v-.64h-.967Zm.972-4.272a1.553,1.553,0,0,1,1.548-1.6,1.517,1.517,0,0,1,1.5,1.6,1.476,1.476,0,0,1-1.5,1.548A1.515,1.515,0,0,1,36.982-2.319Zm4.8,1.333A2.234,2.234,0,0,0,43.813.1c1,0,1.855-.552,1.855-1.406,0-.894-.664-1.226-1.685-1.475-.688-.166-1.035-.264-1.035-.62,0-.3.313-.5.776-.5a1.437,1.437,0,0,1,1.206.64l.649-.557a2.161,2.161,0,0,0-1.855-.967c-.957,0-1.733.547-1.733,1.4,0,.928.718,1.245,1.724,1.47.688.156.977.264.977.61,0,.317-.376.518-.879.518A1.473,1.473,0,0,1,42.5-1.567Zm4.746-.347c0,.918.8,1.431,1.812,1.431a1.706,1.706,0,0,0,1.46-.7V0h.947V-2.935c0-1.138-.835-1.851-2.153-1.851a2.638,2.638,0,0,0-1.968.952l.61.605a1.847,1.847,0,0,1,1.343-.649,1.074,1.074,0,0,1,1.2,1.025V-2.6a2.848,2.848,0,0,0-1.182-.22C47.373-2.817,46.533-2.212,46.533-1.333Zm.977-.034c0-.508.508-.713,1.118-.713a2.846,2.846,0,0,1,1.157.225,1.21,1.21,0,0,1-1.3,1.162C47.935-.693,47.51-.942,47.51-1.367Zm6.621-.952A2.3,2.3,0,0,0,56.484.1a1.984,1.984,0,0,0,1.67-.737V1.953h.967V-4.687h-.967v.64a1.984,1.984,0,0,0-1.67-.737A2.344,2.344,0,0,0,54.131-2.319Zm.967,0a1.517,1.517,0,0,1,1.5-1.6,1.553,1.553,0,0,1,1.548,1.6A1.515,1.515,0,0,1,56.6-.771,1.476,1.476,0,0,1,55.1-2.319Zm5.425-2.368v2.847A1.8,1.8,0,0,0,62.48.1a1.691,1.691,0,0,0,1.465-.688V0h.972V-4.687H63.95v2.642A1.21,1.21,0,0,1,62.632-.82a1.085,1.085,0,0,1-1.143-1.226V-4.687Zm5.566,3.354c0,.918.8,1.431,1.812,1.431a1.706,1.706,0,0,0,1.46-.7V0h.947V-2.935c0-1.138-.835-1.851-2.153-1.851a2.638,2.638,0,0,0-1.968.952l.61.605a1.847,1.847,0,0,1,1.343-.649,1.074,1.074,0,0,1,1.2,1.025V-2.6a2.848,2.848,0,0,0-1.182-.22C66.929-2.817,66.089-2.212,66.089-1.333Zm.977-.034c0-.508.508-.713,1.118-.713a2.846,2.846,0,0,1,1.157.225,1.21,1.21,0,0,1-1.3,1.162C67.49-.693,67.065-.942,67.065-1.367Zm4.321-.972A2.382,2.382,0,0,0,73.843.1a2.416,2.416,0,0,0,2.119-1.191l-.713-.518a1.576,1.576,0,0,1-1.406.8,1.383,1.383,0,0,1-1.455-1.255h3.638a2.361,2.361,0,0,0,.039-.449,2.189,2.189,0,0,0-2.256-2.271A2.356,2.356,0,0,0,71.387-2.339Zm1.025-.449A1.362,1.362,0,0,1,73.8-3.911a1.245,1.245,0,0,1,1.284,1.123Zm6.782,1.455c0,.918.8,1.431,1.812,1.431a1.706,1.706,0,0,0,1.46-.7V0h.947V-2.935c0-1.138-.835-1.851-2.153-1.851a2.638,2.638,0,0,0-1.968.952l.61.605a1.847,1.847,0,0,1,1.343-.649,1.074,1.074,0,0,1,1.2,1.025V-2.6a2.848,2.848,0,0,0-1.182-.22C80.034-2.817,79.194-2.212,79.194-1.333Zm.977-.034c0-.508.508-.713,1.118-.713a2.846,2.846,0,0,1,1.157.225,1.21,1.21,0,0,1-1.3,1.162C80.6-.693,80.171-.942,80.171-1.367ZM84.834,0H85.8V-.64A1.984,1.984,0,0,0,87.471.1a2.344,2.344,0,0,0,2.354-2.466,2.3,2.3,0,0,0-2.354-2.417,1.984,1.984,0,0,0-1.67.737V-6.875h-.967Zm.972-2.368a1.515,1.515,0,0,1,1.548-1.548,1.476,1.476,0,0,1,1.5,1.548,1.517,1.517,0,0,1-1.5,1.6A1.553,1.553,0,0,1,85.806-2.368ZM93.154-6.26a.569.569,0,0,0,.6.6.573.573,0,0,0,.6-.6.573.573,0,0,0-.6-.6A.569.569,0,0,0,93.154-6.26ZM94.233,0V-4.687h-.967V0Zm2.451-6.875h-.967V0h.967Zm2.451,0h-.967V0h.967ZM102.764.1a2.42,2.42,0,0,0,2.49-2.441,2.42,2.42,0,0,0-2.49-2.441,2.42,2.42,0,0,0-2.49,2.441A2.42,2.42,0,0,0,102.764.1ZM101.24-2.344a1.492,1.492,0,0,1,1.523-1.533,1.492,1.492,0,0,1,1.523,1.533,1.492,1.492,0,0,1-1.523,1.533A1.492,1.492,0,0,1,101.24-2.344Zm7.334-3.916a.569.569,0,0,0,.6.6.573.573,0,0,0,.6-.6.573.573,0,0,0-.6-.6A.569.569,0,0,0,108.574-6.26ZM109.653,0V-4.687h-.967V0ZM112.1,0V-2.642A1.2,1.2,0,0,1,113.4-3.867a1.087,1.087,0,0,1,1.152,1.226V0h.967V-2.847a1.8,1.8,0,0,0-1.968-1.938,1.674,1.674,0,0,0-1.44.688v-.591h-.972V0Zm5.972,0h1.152l1.846-4.687h-1.04l-1.382,3.74-1.382-3.74h-1.04Zm3.438-2.339A2.382,2.382,0,0,0,123.97.1a2.416,2.416,0,0,0,2.119-1.191l-.713-.518a1.576,1.576,0,0,1-1.406.8,1.383,1.383,0,0,1-1.455-1.255h3.638a2.361,2.361,0,0,0,.039-.449,2.189,2.189,0,0,0-2.256-2.271A2.356,2.356,0,0,0,121.514-2.339Zm1.025-.449a1.362,1.362,0,0,1,1.387-1.123,1.245,1.245,0,0,1,1.284,1.123ZM128.306,0V-2.642A1.2,1.2,0,0,1,129.6-3.867a1.087,1.087,0,0,1,1.152,1.226V0h.967V-2.847a1.8,1.8,0,0,0-1.968-1.938,1.674,1.674,0,0,0-1.44.688v-.591h-.972V0Zm5.059-3.867v2.461a1.43,1.43,0,0,0,1.6,1.5,2.483,2.483,0,0,0,1.025-.205l-.127-.83a2.154,2.154,0,0,1-.762.161.682.682,0,0,1-.767-.747V-3.867h1.479v-.82h-1.489v-1.5h-.942v1.5h-.85v.82ZM138.931.1a2.42,2.42,0,0,0,2.49-2.441,2.42,2.42,0,0,0-2.49-2.441,2.42,2.42,0,0,0-2.49,2.441A2.42,2.42,0,0,0,138.931.1Zm-1.523-2.441a1.492,1.492,0,0,1,1.523-1.533,1.492,1.492,0,0,1,1.523,1.533,1.492,1.492,0,0,1-1.523,1.533A1.492,1.492,0,0,1,137.407-2.344ZM143.53,0V-2.554a1.159,1.159,0,0,1,1.191-1.333,1.547,1.547,0,0,1,.571.107l.1-.889a1.829,1.829,0,0,0-.645-.117,1.3,1.3,0,0,0-1.221.737v-.64h-.972V0Zm2.256-2.339A2.382,2.382,0,0,0,148.242.1a2.416,2.416,0,0,0,2.119-1.191l-.713-.518a1.576,1.576,0,0,1-1.406.8,1.383,1.383,0,0,1-1.455-1.255h3.638a2.361,2.361,0,0,0,.039-.449,2.189,2.189,0,0,0-2.256-2.271A2.356,2.356,0,0,0,145.786-2.339Zm1.025-.449A1.362,1.362,0,0,1,148.2-3.911a1.245,1.245,0,0,1,1.284,1.123Z" transform="translate(213.258 -39.529)" fill="#42454a"/><path d="M2,0H3.149L5-4.687H3.955L2.573-.947,1.191-4.687H.151ZM5.435-2.339A2.382,2.382,0,0,0,7.891.1,2.416,2.416,0,0,0,10.01-1.094L9.3-1.611a1.576,1.576,0,0,1-1.406.8A1.383,1.383,0,0,1,6.436-2.065h3.638a2.361,2.361,0,0,0,.039-.449A2.189,2.189,0,0,0,7.856-4.785,2.356,2.356,0,0,0,5.435-2.339ZM6.46-2.788A1.362,1.362,0,0,1,7.847-3.911,1.245,1.245,0,0,1,9.131-2.788ZM12.231,0V-2.554a1.159,1.159,0,0,1,1.191-1.333,1.547,1.547,0,0,1,.571.107l.1-.889a1.829,1.829,0,0,0-.645-.117,1.3,1.3,0,0,0-1.221.737v-.64H11.26V0ZM14.9-6.26a.569.569,0,0,0,.6.6.573.573,0,0,0,.6-.6.573.573,0,0,0-.6-.6A.569.569,0,0,0,14.9-6.26ZM15.981,0V-4.687h-.967V0Zm1.768-3.867v2.461a1.43,1.43,0,0,0,1.6,1.5,2.483,2.483,0,0,0,1.025-.205l-.127-.83a2.154,2.154,0,0,1-.762.161.682.682,0,0,1-.767-.747V-3.867H20.2v-.82H18.706v-1.5h-.942v1.5h-.85v.82Zm3.223,2.534c0,.918.8,1.431,1.812,1.431a1.706,1.706,0,0,0,1.46-.7V0h.947V-2.935c0-1.138-.835-1.851-2.153-1.851a2.638,2.638,0,0,0-1.968.952l.61.605a1.847,1.847,0,0,1,1.343-.649,1.074,1.074,0,0,1,1.2,1.025V-2.6a2.848,2.848,0,0,0-1.182-.22C21.812-2.817,20.972-2.212,20.972-1.333Zm.977-.034c0-.508.508-.713,1.118-.713a2.846,2.846,0,0,1,1.157.225,1.21,1.21,0,0,1-1.3,1.162C22.373-.693,21.948-.942,21.948-1.367Zm4.888-2.5v2.461a1.43,1.43,0,0,0,1.6,1.5,2.483,2.483,0,0,0,1.025-.205l-.127-.83a2.154,2.154,0,0,1-.762.161.682.682,0,0,1-.767-.747V-3.867h1.479v-.82H27.793v-1.5h-.942v1.5H26v.82ZM30.259-6.26a.569.569,0,0,0,.6.6.573.573,0,0,0,.6-.6.573.573,0,0,0-.6-.6A.569.569,0,0,0,30.259-6.26ZM31.338,0V-4.687h-.967V0Zm1.123-.986A2.234,2.234,0,0,0,34.487.1c1,0,1.855-.552,1.855-1.406,0-.894-.664-1.226-1.685-1.475-.688-.166-1.035-.264-1.035-.62,0-.3.313-.5.776-.5a1.437,1.437,0,0,1,1.206.64l.649-.557A2.161,2.161,0,0,0,34.4-4.785c-.957,0-1.733.547-1.733,1.4,0,.928.718,1.245,1.724,1.47.688.156.977.264.977.61,0,.317-.376.518-.879.518a1.473,1.473,0,0,1-1.309-.776Zm7.012-1.353A2.382,2.382,0,0,0,41.929.1a2.416,2.416,0,0,0,2.119-1.191l-.713-.518a1.576,1.576,0,0,1-1.406.8,1.383,1.383,0,0,1-1.455-1.255h3.638a2.361,2.361,0,0,0,.039-.449,2.189,2.189,0,0,0-2.256-2.271A2.356,2.356,0,0,0,39.473-2.339ZM40.5-2.788a1.362,1.362,0,0,1,1.387-1.123,1.245,1.245,0,0,1,1.284,1.123Zm5-1.079v2.461A1.43,1.43,0,0,0,47.1.1a2.483,2.483,0,0,0,1.025-.205L48-.937a2.154,2.154,0,0,1-.762.161.682.682,0,0,1-.767-.747V-3.867h1.479v-.82H46.46v-1.5h-.942v1.5h-.85v.82ZM51-2.319A2.3,2.3,0,0,0,53.35.1,1.984,1.984,0,0,0,55.02-.64V1.953h.967V-4.687H55.02v.64a1.984,1.984,0,0,0-1.67-.737A2.344,2.344,0,0,0,51-2.319Zm.967,0a1.517,1.517,0,0,1,1.5-1.6,1.553,1.553,0,0,1,1.548,1.6A1.515,1.515,0,0,1,53.467-.771,1.476,1.476,0,0,1,51.963-2.319Zm5.425-2.368v2.847A1.8,1.8,0,0,0,59.346.1a1.691,1.691,0,0,0,1.465-.688V0h.972V-4.687h-.967v2.642A1.21,1.21,0,0,1,59.5-.82a1.085,1.085,0,0,1-1.143-1.226V-4.687Zm5.566,3.354c0,.918.8,1.431,1.812,1.431a1.706,1.706,0,0,0,1.46-.7V0h.947V-2.935c0-1.138-.835-1.851-2.153-1.851a2.638,2.638,0,0,0-1.968.952l.61.605A1.847,1.847,0,0,1,65-3.877a1.074,1.074,0,0,1,1.2,1.025V-2.6a2.848,2.848,0,0,0-1.182-.22C63.794-2.817,62.954-2.212,62.954-1.333Zm.977-.034c0-.508.508-.713,1.118-.713a2.846,2.846,0,0,1,1.157.225,1.21,1.21,0,0,1-1.3,1.162C64.355-.693,63.931-.942,63.931-1.367Zm4.3.381A2.234,2.234,0,0,0,70.259.1c1,0,1.855-.552,1.855-1.406,0-.894-.664-1.226-1.685-1.475-.688-.166-1.035-.264-1.035-.62,0-.3.313-.5.776-.5a1.437,1.437,0,0,1,1.206.64l.649-.557a2.161,2.161,0,0,0-1.855-.967c-.957,0-1.733.547-1.733,1.4,0,.928.718,1.245,1.724,1.47.688.156.977.264.977.61,0,.317-.376.518-.879.518a1.473,1.473,0,0,1-1.309-.776ZM73.179-6.26a.569.569,0,0,0,.6.6.573.573,0,0,0,.6-.6.573.573,0,0,0-.6-.6A.569.569,0,0,0,73.179-6.26ZM74.258,0V-4.687h-.967V0Zm3.467-1.333c0,.918.8,1.431,1.812,1.431A1.706,1.706,0,0,0,81-.605V0h.947V-2.935c0-1.138-.835-1.851-2.153-1.851a2.638,2.638,0,0,0-1.968.952l.61.605a1.847,1.847,0,0,1,1.343-.649,1.074,1.074,0,0,1,1.2,1.025V-2.6a2.848,2.848,0,0,0-1.182-.22C78.564-2.817,77.725-2.212,77.725-1.333Zm.977-.034c0-.508.508-.713,1.118-.713a2.846,2.846,0,0,1,1.157.225,1.21,1.21,0,0,1-1.3,1.162C79.126-.693,78.7-.942,78.7-1.367ZM84.336,0V-2.554a1.159,1.159,0,0,1,1.191-1.333,1.547,1.547,0,0,1,.571.107l.1-.889a1.829,1.829,0,0,0-.645-.117,1.3,1.3,0,0,0-1.221.737v-.64h-.972V0Zm4.736.1A2.447,2.447,0,0,0,91.24-1.177l-.728-.513a1.635,1.635,0,0,1-1.44.879,1.492,1.492,0,0,1-1.509-1.538,1.483,1.483,0,0,1,1.528-1.528,1.611,1.611,0,0,1,1.406.884l.747-.508a2.386,2.386,0,0,0-2.134-1.284,2.451,2.451,0,0,0-2.524,2.437A2.426,2.426,0,0,0,89.072.1ZM93.257,0V-2.642a1.2,1.2,0,0,1,1.294-1.226,1.081,1.081,0,0,1,1.128,1.226V0h.967V-2.847A1.8,1.8,0,0,0,94.7-4.785a1.674,1.674,0,0,0-1.44.688V-6.875H92.29V0Zm4.7-6.26a.569.569,0,0,0,.6.6.573.573,0,0,0,.6-.6.573.573,0,0,0-.6-.6A.569.569,0,0,0,97.954-6.26ZM99.033,0V-4.687h-.967V0ZM100.8-3.867v2.461A1.43,1.43,0,0,0,102.4.1a2.483,2.483,0,0,0,1.025-.205l-.127-.83a2.154,2.154,0,0,1-.762.161.682.682,0,0,1-.767-.747V-3.867h1.479v-.82h-1.489v-1.5h-.942v1.5h-.85v.82Zm3.081,1.528A2.382,2.382,0,0,0,106.338.1a2.416,2.416,0,0,0,2.119-1.191l-.713-.518a1.576,1.576,0,0,1-1.406.8,1.383,1.383,0,0,1-1.455-1.255h3.638a2.361,2.361,0,0,0,.039-.449A2.189,2.189,0,0,0,106.3-4.785,2.356,2.356,0,0,0,103.882-2.339Zm1.025-.449a1.362,1.362,0,0,1,1.387-1.123,1.245,1.245,0,0,1,1.284,1.123ZM111.846.1a2.447,2.447,0,0,0,2.168-1.274l-.728-.513a1.635,1.635,0,0,1-1.44.879,1.492,1.492,0,0,1-1.509-1.538,1.483,1.483,0,0,1,1.528-1.528,1.611,1.611,0,0,1,1.406.884l.747-.508a2.386,2.386,0,0,0-2.134-1.284,2.451,2.451,0,0,0-2.524,2.437A2.426,2.426,0,0,0,111.846.1Zm3.5-3.965v2.461a1.43,1.43,0,0,0,1.6,1.5,2.483,2.483,0,0,0,1.025-.205l-.127-.83a2.154,2.154,0,0,1-.762.161.682.682,0,0,1-.767-.747V-3.867h1.479v-.82H116.3v-1.5h-.942v1.5h-.85v.82ZM120.913.1a2.42,2.42,0,0,0,2.49-2.441,2.42,2.42,0,0,0-2.49-2.441,2.42,2.42,0,0,0-2.49,2.441A2.42,2.42,0,0,0,120.913.1ZM119.39-2.344a1.492,1.492,0,0,1,1.523-1.533,1.492,1.492,0,0,1,1.523,1.533,1.492,1.492,0,0,1-1.523,1.533A1.492,1.492,0,0,1,119.39-2.344ZM126.836,0h.967V-.64a1.984,1.984,0,0,0,1.67.737,2.344,2.344,0,0,0,2.354-2.466,2.3,2.3,0,0,0-2.354-2.417,1.984,1.984,0,0,0-1.67.737V-6.875h-.967Zm.972-2.368a1.515,1.515,0,0,1,1.548-1.548,1.476,1.476,0,0,1,1.5,1.548,1.517,1.517,0,0,1-1.5,1.6A1.553,1.553,0,0,1,127.808-2.368Zm4.824.029A2.382,2.382,0,0,0,135.088.1a2.416,2.416,0,0,0,2.119-1.191l-.713-.518a1.576,1.576,0,0,1-1.406.8,1.383,1.383,0,0,1-1.455-1.255h3.638a2.361,2.361,0,0,0,.039-.449,2.189,2.189,0,0,0-2.256-2.271A2.356,2.356,0,0,0,132.632-2.339Zm1.025-.449a1.362,1.362,0,0,1,1.387-1.123,1.245,1.245,0,0,1,1.284,1.123Zm4.487,1.455c0,.918.8,1.431,1.812,1.431a1.706,1.706,0,0,0,1.46-.7V0h.947V-2.935c0-1.138-.835-1.851-2.153-1.851a2.638,2.638,0,0,0-1.968.952l.61.605a1.847,1.847,0,0,1,1.343-.649,1.074,1.074,0,0,1,1.2,1.025V-2.6a2.848,2.848,0,0,0-1.182-.22C138.984-2.817,138.145-2.212,138.145-1.333Zm.977-.034c0-.508.508-.713,1.118-.713a2.846,2.846,0,0,1,1.157.225,1.21,1.21,0,0,1-1.3,1.162C139.546-.693,139.121-.942,139.121-1.367Zm4.888-2.5v2.461a1.43,1.43,0,0,0,1.6,1.5,2.483,2.483,0,0,0,1.025-.205l-.127-.83a2.154,2.154,0,0,1-.762.161.682.682,0,0,1-.767-.747V-3.867h1.479v-.82h-1.489v-1.5h-.942v1.5h-.85v.82Zm3.223,2.534c0,.918.8,1.431,1.812,1.431a1.706,1.706,0,0,0,1.46-.7V0h.947V-2.935c0-1.138-.835-1.851-2.153-1.851a2.638,2.638,0,0,0-1.968.952l.61.605a1.847,1.847,0,0,1,1.343-.649,1.074,1.074,0,0,1,1.2,1.025V-2.6a2.848,2.848,0,0,0-1.182-.22C148.071-2.817,147.231-2.212,147.231-1.333Zm.977-.034c0-.508.508-.713,1.118-.713a2.846,2.846,0,0,1,1.157.225,1.21,1.21,0,0,1-1.3,1.162C148.633-.693,148.208-.942,148.208-1.367Zm4.321-.972A2.382,2.382,0,0,0,154.985.1,2.416,2.416,0,0,0,157.1-1.094l-.713-.518a1.576,1.576,0,0,1-1.406.8,1.383,1.383,0,0,1-1.455-1.255h3.638a2.361,2.361,0,0,0,.039-.449,2.189,2.189,0,0,0-2.256-2.271A2.356,2.356,0,0,0,152.529-2.339Zm1.025-.449a1.362,1.362,0,0,1,1.387-1.123,1.245,1.245,0,0,1,1.284,1.123ZM161.738,0h1.152l1.846-4.687H163.7l-1.382,3.74-1.382-3.74h-1.04Zm3.779-6.26a.569.569,0,0,0,.6.6.573.573,0,0,0,.6-.6.573.573,0,0,0-.6-.6A.569.569,0,0,0,165.518-6.26ZM166.6,0V-4.687h-.967V0Zm1.768-3.867v2.461a1.43,1.43,0,0,0,1.6,1.5,2.483,2.483,0,0,0,1.025-.205l-.127-.83a2.154,2.154,0,0,1-.762.161.682.682,0,0,1-.767-.747V-3.867h1.479v-.82h-1.489v-1.5h-.942v1.5h-.85v.82Zm3.223,2.534c0,.918.8,1.431,1.812,1.431a1.706,1.706,0,0,0,1.46-.7V0h.947V-2.935c0-1.138-.835-1.851-2.153-1.851a2.638,2.638,0,0,0-1.968.952l.61.605a1.847,1.847,0,0,1,1.343-.649,1.074,1.074,0,0,1,1.2,1.025V-2.6a2.848,2.848,0,0,0-1.182-.22C172.427-2.817,171.587-2.212,171.587-1.333Zm.977-.034c0-.508.508-.713,1.118-.713a2.846,2.846,0,0,1,1.157.225,1.21,1.21,0,0,1-1.3,1.162C172.988-.693,172.563-.942,172.563-1.367Zm4.321-.972A2.382,2.382,0,0,0,179.341.1a2.416,2.416,0,0,0,2.119-1.191l-.713-.518a1.576,1.576,0,0,1-1.406.8,1.383,1.383,0,0,1-1.455-1.255h3.638a2.361,2.361,0,0,0,.039-.449,2.189,2.189,0,0,0-2.256-2.271A2.356,2.356,0,0,0,176.885-2.339Zm1.025-.449A1.362,1.362,0,0,1,179.3-3.911a1.245,1.245,0,0,1,1.284,1.123Zm6.758.42A2.344,2.344,0,0,0,187.021.1a1.984,1.984,0,0,0,1.67-.737V0h.967V-6.875h-.967v2.827a1.984,1.984,0,0,0-1.67-.737A2.3,2.3,0,0,0,184.668-2.368Zm2.471-1.548a1.515,1.515,0,0,1,1.548,1.548,1.553,1.553,0,0,1-1.548,1.6,1.517,1.517,0,0,1-1.5-1.6A1.476,1.476,0,0,1,187.139-3.916ZM191.03-6.26a.569.569,0,0,0,.6.6.573.573,0,0,0,.6-.6.573.573,0,0,0-.6-.6A.569.569,0,0,0,191.03-6.26ZM192.109,0V-4.687h-.967V0Zm3.623.1A2.447,2.447,0,0,0,197.9-1.177l-.728-.513a1.635,1.635,0,0,1-1.44.879,1.492,1.492,0,0,1-1.509-1.538,1.483,1.483,0,0,1,1.528-1.528,1.611,1.611,0,0,1,1.406.884l.747-.508a2.386,2.386,0,0,0-2.134-1.284,2.451,2.451,0,0,0-2.524,2.437A2.426,2.426,0,0,0,195.732.1Zm3.5-3.965v2.461a1.43,1.43,0,0,0,1.6,1.5,2.483,2.483,0,0,0,1.025-.205l-.127-.83a2.154,2.154,0,0,1-.762.161.682.682,0,0,1-.767-.747V-3.867h1.479v-.82H200.19v-1.5h-.942v1.5h-.85v.82Zm3.223,2.534c0,.918.8,1.431,1.812,1.431a1.706,1.706,0,0,0,1.46-.7V0h.947V-2.935c0-1.138-.835-1.851-2.153-1.851a2.638,2.638,0,0,0-1.968.952l.61.605a1.847,1.847,0,0,1,1.343-.649,1.074,1.074,0,0,1,1.2,1.025V-2.6a2.848,2.848,0,0,0-1.182-.22C203.3-2.817,202.456-2.212,202.456-1.333Zm.977-.034c0-.508.508-.713,1.118-.713a2.846,2.846,0,0,1,1.157.225,1.21,1.21,0,0,1-1.3,1.162C203.857-.693,203.433-.942,203.433-1.367Zm6.6.381A2.234,2.234,0,0,0,212.056.1c1,0,1.855-.552,1.855-1.406,0-.894-.664-1.226-1.685-1.475-.688-.166-1.035-.264-1.035-.62,0-.3.313-.5.776-.5a1.437,1.437,0,0,1,1.206.64l.649-.557a2.161,2.161,0,0,0-1.855-.967c-.957,0-1.733.547-1.733,1.4,0,.928.718,1.245,1.724,1.47.688.156.977.264.977.61,0,.317-.376.518-.879.518a1.473,1.473,0,0,1-1.309-.776Zm5-3.7v2.847A1.8,1.8,0,0,0,216.982.1a1.691,1.691,0,0,0,1.465-.688V0h.972V-4.687h-.967v2.642A1.21,1.21,0,0,1,217.134-.82a1.085,1.085,0,0,1-1.143-1.226V-4.687ZM221.87,0V-2.642a1.2,1.2,0,0,1,1.294-1.226,1.087,1.087,0,0,1,1.152,1.226V0h.967V-2.847a1.8,1.8,0,0,0-1.968-1.938,1.674,1.674,0,0,0-1.44.688v-.591H220.9V0Zm5.059-3.867v2.461a1.43,1.43,0,0,0,1.6,1.5,2.483,2.483,0,0,0,1.025-.205l-.127-.83a2.154,2.154,0,0,1-.762.161.682.682,0,0,1-.767-.747V-3.867h1.479v-.82h-1.489v-1.5h-.942v1.5h-.85v.82Zm5.488,1.528A2.382,2.382,0,0,0,234.873.1a2.416,2.416,0,0,0,2.119-1.191l-.713-.518a1.576,1.576,0,0,1-1.406.8,1.383,1.383,0,0,1-1.455-1.255h3.638a2.361,2.361,0,0,0,.039-.449,2.189,2.189,0,0,0-2.256-2.271A2.356,2.356,0,0,0,232.417-2.339Zm1.025-.449a1.362,1.362,0,0,1,1.387-1.123,1.245,1.245,0,0,1,1.284,1.123Zm4,2.788h1.113l1.255-1.753L241.069,0h1.113l-1.768-2.393,1.729-2.295H241.03l-1.216,1.65L238.6-4.687h-1.113l1.729,2.295Zm5.6,1.953h.967V-.64a1.984,1.984,0,0,0,1.67.737,2.3,2.3,0,0,0,2.354-2.417,2.344,2.344,0,0,0-2.354-2.466,1.984,1.984,0,0,0-1.67.737v-.64h-.967Zm.972-4.272a1.553,1.553,0,0,1,1.548-1.6,1.517,1.517,0,0,1,1.5,1.6,1.476,1.476,0,0,1-1.5,1.548A1.515,1.515,0,0,1,244.019-2.319Zm6.133-4.556h-.967V0h.967Zm1.372.615a.569.569,0,0,0,.6.6.573.573,0,0,0,.6-.6.573.573,0,0,0-.6-.6A.569.569,0,0,0,251.523-6.26ZM252.6,0V-4.687h-.967V0Zm3.623.1a2.447,2.447,0,0,0,2.168-1.274l-.728-.513a1.635,1.635,0,0,1-1.44.879,1.492,1.492,0,0,1-1.509-1.538,1.483,1.483,0,0,1,1.528-1.528,1.611,1.611,0,0,1,1.406.884L258.4-3.5a2.386,2.386,0,0,0-2.134-1.284,2.451,2.451,0,0,0-2.524,2.437A2.426,2.426,0,0,0,256.226.1Zm2.905-1.431c0,.918.8,1.431,1.812,1.431a1.706,1.706,0,0,0,1.46-.7V0h.947V-2.935c0-1.138-.835-1.851-2.153-1.851a2.638,2.638,0,0,0-1.968.952l.61.605a1.847,1.847,0,0,1,1.343-.649,1.074,1.074,0,0,1,1.2,1.025V-2.6a2.848,2.848,0,0,0-1.182-.22C259.971-2.817,259.131-2.212,259.131-1.333Zm.977-.034c0-.508.508-.713,1.118-.713a2.846,2.846,0,0,1,1.157.225,1.21,1.21,0,0,1-1.3,1.162C260.532-.693,260.107-.942,260.107-1.367ZM264.771,0h.967V-.64a1.984,1.984,0,0,0,1.67.737,2.344,2.344,0,0,0,2.354-2.466,2.3,2.3,0,0,0-2.354-2.417,1.984,1.984,0,0,0-1.67.737V-6.875h-.967Zm.972-2.368a1.515,1.515,0,0,1,1.548-1.548,1.476,1.476,0,0,1,1.5,1.548,1.517,1.517,0,0,1-1.5,1.6A1.553,1.553,0,0,1,265.742-2.368ZM273.052.1a2.42,2.42,0,0,0,2.49-2.441,2.42,2.42,0,0,0-2.49-2.441,2.42,2.42,0,0,0-2.49,2.441A2.42,2.42,0,0,0,273.052.1Zm-1.523-2.441a1.492,1.492,0,0,1,1.523-1.533,1.492,1.492,0,0,1,1.523,1.533,1.492,1.492,0,0,1-1.523,1.533A1.492,1.492,0,0,1,271.528-2.344ZM276.26-.5a.586.586,0,0,0,.6.6.59.59,0,0,0,.6-.6.594.594,0,0,0-.6-.6A.59.59,0,0,0,276.26-.5Z" transform="translate(9 -27.529)" fill="#42454a"/><path d="M4.18,0V-5L8.208,0H9.243V-6.631H8.218v5.054L4.18-6.631H3.154V0ZM10.5-2.339A2.382,2.382,0,0,0,12.959.1a2.416,2.416,0,0,0,2.119-1.191l-.713-.518a1.576,1.576,0,0,1-1.406.8A1.383,1.383,0,0,1,11.5-2.065h3.638a2.361,2.361,0,0,0,.039-.449,2.189,2.189,0,0,0-2.256-2.271A2.356,2.356,0,0,0,10.5-2.339Zm1.025-.449a1.362,1.362,0,0,1,1.387-1.123A1.245,1.245,0,0,1,14.2-2.788ZM16.328,0H17.3V-2.642a1.19,1.19,0,0,1,1.27-1.226c.688,0,1.1.449,1.1,1.226V0h.972V-2.7a1.188,1.188,0,0,1,1.27-1.167c.688,0,1.1.449,1.1,1.226V0h.972V-2.847a1.789,1.789,0,0,0-1.924-1.938,1.94,1.94,0,0,0-1.675.874,1.78,1.78,0,0,0-1.67-.874A1.646,1.646,0,0,0,17.3-4.1v-.591h-.972ZM27.554.1a2.42,2.42,0,0,0,2.49-2.441,2.42,2.42,0,0,0-2.49-2.441,2.42,2.42,0,0,0-2.49,2.441A2.42,2.42,0,0,0,27.554.1ZM26.03-2.344a1.492,1.492,0,0,1,1.523-1.533,1.492,1.492,0,0,1,1.523,1.533A1.492,1.492,0,0,1,27.554-.811,1.492,1.492,0,0,1,26.03-2.344Zm7.1,0A2.382,2.382,0,0,0,35.591.1,2.416,2.416,0,0,0,37.71-1.094L37-1.611a1.576,1.576,0,0,1-1.406.8,1.383,1.383,0,0,1-1.455-1.255h3.638a2.361,2.361,0,0,0,.039-.449,2.189,2.189,0,0,0-2.256-2.271A2.356,2.356,0,0,0,33.135-2.339Zm1.025-.449a1.362,1.362,0,0,1,1.387-1.123,1.245,1.245,0,0,1,1.284,1.123ZM39.927,0V-2.642a1.2,1.2,0,0,1,1.294-1.226,1.087,1.087,0,0,1,1.152,1.226V0h.967V-2.847a1.8,1.8,0,0,0-1.968-1.938,1.674,1.674,0,0,0-1.44.688v-.591H38.96V0Zm4.722-6.26a.569.569,0,0,0,.6.6.573.573,0,0,0,.6-.6.573.573,0,0,0-.6-.6A.569.569,0,0,0,44.648-6.26ZM45.728,0V-4.687h-.967V0Zm1.484,0h.972V-2.642a1.19,1.19,0,0,1,1.27-1.226c.688,0,1.1.449,1.1,1.226V0h.972V-2.7A1.188,1.188,0,0,1,52.8-3.867c.688,0,1.1.449,1.1,1.226V0h.972V-2.847a1.789,1.789,0,0,0-1.924-1.938,1.94,1.94,0,0,0-1.675.874,1.78,1.78,0,0,0-1.67-.874,1.646,1.646,0,0,0-1.421.688v-.591h-.972Z" transform="translate(286.656 -27.529)" fill="#42454a"/><path d="M.63-6.26a.569.569,0,0,0,.6.6.573.573,0,0,0,.6-.6.573.573,0,0,0-.6-.6A.569.569,0,0,0,.63-6.26ZM1.709,0V-4.687H.742V0ZM3.193,1.953H4.16V-.64A1.984,1.984,0,0,0,5.83.1,2.3,2.3,0,0,0,8.184-2.319,2.344,2.344,0,0,0,5.83-4.785a1.984,1.984,0,0,0-1.67.737v-.64H3.193Zm.972-4.272a1.553,1.553,0,0,1,1.548-1.6,1.517,1.517,0,0,1,1.5,1.6,1.476,1.476,0,0,1-1.5,1.548A1.515,1.515,0,0,1,4.165-2.319ZM8.97-.986A2.234,2.234,0,0,0,11,.1c1,0,1.855-.552,1.855-1.406,0-.894-.664-1.226-1.685-1.475-.688-.166-1.035-.264-1.035-.62,0-.3.313-.5.776-.5a1.437,1.437,0,0,1,1.206.64l.649-.557a2.161,2.161,0,0,0-1.855-.967c-.957,0-1.733.547-1.733,1.4,0,.928.718,1.245,1.724,1.47.688.156.977.264.977.61,0,.317-.376.518-.879.518a1.473,1.473,0,0,1-1.309-.776Zm4.746-.347c0,.918.8,1.431,1.812,1.431a1.706,1.706,0,0,0,1.46-.7V0h.947V-2.935c0-1.138-.835-1.851-2.153-1.851a2.638,2.638,0,0,0-1.968.952l.61.605a1.847,1.847,0,0,1,1.343-.649,1.074,1.074,0,0,1,1.2,1.025V-2.6a2.848,2.848,0,0,0-1.182-.22C14.556-2.817,13.716-2.212,13.716-1.333Zm.977-.034c0-.508.508-.713,1.118-.713a2.846,2.846,0,0,1,1.157.225,1.21,1.21,0,0,1-1.3,1.162C15.117-.693,14.692-.942,14.692-1.367ZM19.355,0h.972V-2.642A1.19,1.19,0,0,1,21.6-3.867c.688,0,1.1.449,1.1,1.226V0h.972V-2.7a1.188,1.188,0,0,1,1.27-1.167c.688,0,1.1.449,1.1,1.226V0h.972V-2.847a1.789,1.789,0,0,0-1.924-1.938,1.94,1.94,0,0,0-1.675.874,1.78,1.78,0,0,0-1.67-.874,1.646,1.646,0,0,0-1.421.688v-.591h-.972ZM31.821,0h1.152l1.846-4.687h-1.04L32.4-.947l-1.382-3.74h-1.04Zm5.923.1a2.42,2.42,0,0,0,2.49-2.441,2.42,2.42,0,0,0-2.49-2.441,2.42,2.42,0,0,0-2.49,2.441A2.42,2.42,0,0,0,37.744.1ZM36.221-2.344a1.492,1.492,0,0,1,1.523-1.533,1.492,1.492,0,0,1,1.523,1.533A1.492,1.492,0,0,1,37.744-.811,1.492,1.492,0,0,1,36.221-2.344Zm6.118-4.531h-.967V0h.967ZM43.76-4.687v2.847A1.8,1.8,0,0,0,45.718.1a1.691,1.691,0,0,0,1.465-.688V0h.972V-4.687h-.967v2.642A1.21,1.21,0,0,1,45.869-.82a1.085,1.085,0,0,1-1.143-1.226V-4.687Zm5.879,6.641h.967V-.64A1.984,1.984,0,0,0,52.275.1a2.3,2.3,0,0,0,2.354-2.417,2.344,2.344,0,0,0-2.354-2.466,1.984,1.984,0,0,0-1.67.737v-.64h-.967Zm.972-4.272a1.553,1.553,0,0,1,1.548-1.6,1.517,1.517,0,0,1,1.5,1.6,1.476,1.476,0,0,1-1.5,1.548A1.515,1.515,0,0,1,50.61-2.319Zm5.376-1.548v2.461a1.43,1.43,0,0,0,1.6,1.5,2.483,2.483,0,0,0,1.025-.205l-.127-.83a2.154,2.154,0,0,1-.762.161.682.682,0,0,1-.767-.747V-3.867h1.479v-.82H56.943v-1.5H56v1.5h-.85v.82Zm3.223,2.534C59.209-.415,60,.1,61.021.1a1.706,1.706,0,0,0,1.46-.7V0h.947V-2.935c0-1.138-.835-1.851-2.153-1.851a2.638,2.638,0,0,0-1.968.952l.61.605a1.847,1.847,0,0,1,1.343-.649,1.074,1.074,0,0,1,1.2,1.025V-2.6a2.848,2.848,0,0,0-1.182-.22C60.049-2.817,59.209-2.212,59.209-1.333Zm.977-.034c0-.508.508-.713,1.118-.713a2.846,2.846,0,0,1,1.157.225,1.21,1.21,0,0,1-1.3,1.162C60.61-.693,60.186-.942,60.186-1.367Zm4.888-2.5v2.461A1.43,1.43,0,0,0,66.67.1,2.483,2.483,0,0,0,67.7-.107l-.127-.83a2.154,2.154,0,0,1-.762.161.682.682,0,0,1-.767-.747V-3.867H67.52v-.82H66.03v-1.5h-.942v1.5h-.85v.82Zm3.081,1.528A2.382,2.382,0,0,0,70.61.1a2.416,2.416,0,0,0,2.119-1.191l-.713-.518a1.576,1.576,0,0,1-1.406.8,1.383,1.383,0,0,1-1.455-1.255h3.638a2.361,2.361,0,0,0,.039-.449,2.189,2.189,0,0,0-2.256-2.271A2.356,2.356,0,0,0,68.154-2.339Zm1.025-.449a1.362,1.362,0,0,1,1.387-1.123,1.245,1.245,0,0,1,1.284,1.123ZM73.979,0h.972V-2.642a1.19,1.19,0,0,1,1.27-1.226c.688,0,1.1.449,1.1,1.226V0H78.3V-2.7a1.188,1.188,0,0,1,1.27-1.167c.688,0,1.1.449,1.1,1.226V0h.972V-2.847a1.789,1.789,0,0,0-1.924-1.938,1.94,1.94,0,0,0-1.675.874,1.78,1.78,0,0,0-1.67-.874,1.646,1.646,0,0,0-1.421.688v-.591h-.972ZM85.02-2.319A2.3,2.3,0,0,0,87.373.1a1.984,1.984,0,0,0,1.67-.737V1.953h.967V-4.687h-.967v.64a1.984,1.984,0,0,0-1.67-.737A2.344,2.344,0,0,0,85.02-2.319Zm.967,0a1.517,1.517,0,0,1,1.5-1.6,1.553,1.553,0,0,1,1.548,1.6A1.515,1.515,0,0,1,87.49-.771,1.476,1.476,0,0,1,85.986-2.319Zm5.425-2.368v2.847A1.8,1.8,0,0,0,93.369.1a1.691,1.691,0,0,0,1.465-.688V0h.972V-4.687h-.967v2.642A1.21,1.21,0,0,1,93.521-.82a1.085,1.085,0,0,1-1.143-1.226V-4.687ZM97.178-6.26a.569.569,0,0,0,.6.6.573.573,0,0,0,.6-.6.573.573,0,0,0-.6-.6A.569.569,0,0,0,97.178-6.26ZM98.257,0V-4.687H97.29V0Zm1.172-1.333c0,.918.8,1.431,1.812,1.431a1.706,1.706,0,0,0,1.46-.7V0h.947V-2.935c0-1.138-.835-1.851-2.153-1.851a2.638,2.638,0,0,0-1.968.952l.61.605a1.847,1.847,0,0,1,1.343-.649,1.074,1.074,0,0,1,1.2,1.025V-2.6a2.848,2.848,0,0,0-1.182-.22C100.269-2.817,99.429-2.212,99.429-1.333Zm.977-.034c0-.508.508-.713,1.118-.713a2.846,2.846,0,0,1,1.157.225,1.21,1.21,0,0,1-1.3,1.162C100.83-.693,100.405-.942,100.405-1.367ZM108.452,0H109.6l1.846-4.687h-1.04l-1.382,3.74-1.382-3.74h-1.04Zm5.923.1a2.42,2.42,0,0,0,2.49-2.441,2.42,2.42,0,0,0-2.49-2.441,2.42,2.42,0,0,0-2.49,2.441A2.42,2.42,0,0,0,114.375.1Zm-1.523-2.441a1.492,1.492,0,0,1,1.523-1.533A1.492,1.492,0,0,1,115.9-2.344a1.492,1.492,0,0,1-1.523,1.533A1.492,1.492,0,0,1,112.852-2.344Zm6.118-4.531H118V0h.967Zm1.421,2.188v2.847A1.8,1.8,0,0,0,122.349.1a1.691,1.691,0,0,0,1.465-.688V0h.972V-4.687h-.967v2.642A1.21,1.21,0,0,1,122.5-.82a1.085,1.085,0,0,1-1.143-1.226V-4.687Zm5.879,6.641h.967V-.64a1.984,1.984,0,0,0,1.67.737,2.3,2.3,0,0,0,2.354-2.417,2.344,2.344,0,0,0-2.354-2.466,1.984,1.984,0,0,0-1.67.737v-.64h-.967Zm.972-4.272a1.553,1.553,0,0,1,1.548-1.6,1.517,1.517,0,0,1,1.5,1.6,1.476,1.476,0,0,1-1.5,1.548A1.515,1.515,0,0,1,127.241-2.319Zm5.376-1.548v2.461a1.43,1.43,0,0,0,1.6,1.5,2.483,2.483,0,0,0,1.025-.205l-.127-.83a2.154,2.154,0,0,1-.762.161.682.682,0,0,1-.767-.747V-3.867h1.479v-.82h-1.489v-1.5h-.942v1.5h-.85v.82Zm3.223,2.534c0,.918.8,1.431,1.812,1.431a1.706,1.706,0,0,0,1.46-.7V0h.947V-2.935c0-1.138-.835-1.851-2.153-1.851a2.638,2.638,0,0,0-1.968.952l.61.605a1.847,1.847,0,0,1,1.343-.649,1.074,1.074,0,0,1,1.2,1.025V-2.6a2.848,2.848,0,0,0-1.182-.22C136.68-2.817,135.84-2.212,135.84-1.333Zm.977-.034c0-.508.508-.713,1.118-.713a2.846,2.846,0,0,1,1.157.225,1.21,1.21,0,0,1-1.3,1.162C137.241-.693,136.816-.942,136.816-1.367Zm4.3.381A2.234,2.234,0,0,0,143.145.1c1,0,1.855-.552,1.855-1.406,0-.894-.664-1.226-1.685-1.475-.688-.166-1.035-.264-1.035-.62,0-.3.313-.5.776-.5a1.437,1.437,0,0,1,1.206.64l.649-.557a2.161,2.161,0,0,0-1.855-.967c-.957,0-1.733.547-1.733,1.4,0,.928.718,1.245,1.724,1.47.688.156.977.264.977.61,0,.317-.376.518-.879.518a1.473,1.473,0,0,1-1.309-.776Zm6.992,0A2.234,2.234,0,0,0,150.137.1c1,0,1.855-.552,1.855-1.406,0-.894-.664-1.226-1.685-1.475-.688-.166-1.035-.264-1.035-.62,0-.3.313-.5.776-.5a1.437,1.437,0,0,1,1.206.64l.649-.557a2.161,2.161,0,0,0-1.855-.967c-.957,0-1.733.547-1.733,1.4,0,.928.718,1.245,1.724,1.47.688.156.977.264.977.61,0,.317-.376.518-.879.518a1.473,1.473,0,0,1-1.309-.776Zm4.946-5.273a.569.569,0,0,0,.6.6.573.573,0,0,0,.6-.6.573.573,0,0,0-.6-.6A.569.569,0,0,0,153.057-6.26ZM154.136,0V-4.687h-.967V0ZM155.9-3.867v2.461A1.43,1.43,0,0,0,157.5.1a2.483,2.483,0,0,0,1.025-.205l-.127-.83a2.154,2.154,0,0,1-.762.161.682.682,0,0,1-.767-.747V-3.867h1.479v-.82H156.86v-1.5h-.942v1.5h-.85v.82Zm5.518,2.534c0,.918.8,1.431,1.812,1.431a1.706,1.706,0,0,0,1.46-.7V0h.947V-2.935c0-1.138-.835-1.851-2.153-1.851a2.638,2.638,0,0,0-1.968.952l.61.605a1.847,1.847,0,0,1,1.343-.649,1.074,1.074,0,0,1,1.2,1.025V-2.6a2.848,2.848,0,0,0-1.182-.22C162.261-2.817,161.421-2.212,161.421-1.333Zm.977-.034c0-.508.508-.713,1.118-.713a2.846,2.846,0,0,1,1.157.225,1.21,1.21,0,0,1-1.3,1.162C162.822-.693,162.4-.942,162.4-1.367Zm4.3.381A2.234,2.234,0,0,0,168.726.1c1,0,1.855-.552,1.855-1.406,0-.894-.664-1.226-1.685-1.475-.688-.166-1.035-.264-1.035-.62,0-.3.313-.5.776-.5a1.437,1.437,0,0,1,1.206.64l.649-.557a2.161,2.161,0,0,0-1.855-.967c-.957,0-1.733.547-1.733,1.4,0,.928.718,1.245,1.724,1.47.688.156.977.264.977.61,0,.317-.376.518-.879.518a1.473,1.473,0,0,1-1.309-.776Zm5.059,2.939h.967V-.64a1.984,1.984,0,0,0,1.67.737,2.3,2.3,0,0,0,2.354-2.417,2.344,2.344,0,0,0-2.354-2.466,1.984,1.984,0,0,0-1.67.737v-.64h-.967Zm.972-4.272a1.553,1.553,0,0,1,1.548-1.6,1.517,1.517,0,0,1,1.5,1.6,1.476,1.476,0,0,1-1.5,1.548A1.515,1.515,0,0,1,172.729-2.319Zm4.824-.02A2.382,2.382,0,0,0,180.01.1a2.416,2.416,0,0,0,2.119-1.191l-.713-.518a1.576,1.576,0,0,1-1.406.8,1.383,1.383,0,0,1-1.455-1.255h3.638a2.361,2.361,0,0,0,.039-.449,2.189,2.189,0,0,0-2.256-2.271A2.356,2.356,0,0,0,177.554-2.339Zm1.025-.449a1.362,1.362,0,0,1,1.387-1.123,1.245,1.245,0,0,1,1.284,1.123ZM184.351,0V-2.554a1.159,1.159,0,0,1,1.191-1.333,1.547,1.547,0,0,1,.571.107l.1-.889a1.829,1.829,0,0,0-.645-.117,1.3,1.3,0,0,0-1.221.737v-.64h-.972V0Zm3.75,0V-2.642a1.2,1.2,0,0,1,1.294-1.226,1.087,1.087,0,0,1,1.152,1.226V0h.967V-2.847a1.8,1.8,0,0,0-1.968-1.938,1.674,1.674,0,0,0-1.44.688v-.591h-.972V0Zm4.521-1.333c0,.918.8,1.431,1.812,1.431a1.706,1.706,0,0,0,1.46-.7V0h.947V-2.935c0-1.138-.835-1.851-2.153-1.851a2.638,2.638,0,0,0-1.968.952l.61.605a1.847,1.847,0,0,1,1.343-.649,1.074,1.074,0,0,1,1.2,1.025V-2.6a2.848,2.848,0,0,0-1.182-.22C193.462-2.817,192.622-2.212,192.622-1.333Zm.977-.034c0-.508.508-.713,1.118-.713a2.846,2.846,0,0,1,1.157.225,1.21,1.21,0,0,1-1.3,1.162C194.023-.693,193.6-.942,193.6-1.367Zm4.888-2.5v2.461a1.43,1.43,0,0,0,1.6,1.5,2.483,2.483,0,0,0,1.025-.205l-.127-.83a2.154,2.154,0,0,1-.762.161.682.682,0,0,1-.767-.747V-3.867h1.479v-.82h-1.489v-1.5H198.5v1.5h-.85v.82Zm3.472-.82v2.847A1.8,1.8,0,0,0,203.916.1a1.691,1.691,0,0,0,1.465-.688V0h.972V-4.687h-.967v2.642A1.21,1.21,0,0,1,204.067-.82a1.085,1.085,0,0,1-1.143-1.226V-4.687ZM208.809,0V-2.554A1.159,1.159,0,0,1,210-3.887a1.547,1.547,0,0,1,.571.107l.1-.889a1.829,1.829,0,0,0-.645-.117,1.3,1.3,0,0,0-1.221.737v-.64h-.972V0Z" transform="translate(9 -15.529)" fill="#42454a"/><path d="M2.725-1.333C2.725-.415,3.521.1,4.536.1A1.706,1.706,0,0,0,6-.605V0h.947V-2.935c0-1.138-.835-1.851-2.153-1.851a2.638,2.638,0,0,0-1.968.952l.61.605a1.847,1.847,0,0,1,1.343-.649,1.074,1.074,0,0,1,1.2,1.025V-2.6a2.848,2.848,0,0,0-1.182-.22C3.564-2.817,2.725-2.212,2.725-1.333ZM3.7-1.367c0-.508.508-.713,1.118-.713a2.846,2.846,0,0,1,1.157.225,1.21,1.21,0,0,1-1.3,1.162C4.126-.693,3.7-.942,3.7-1.367Zm4.6-3.32v2.847A1.8,1.8,0,0,0,10.259.1a1.691,1.691,0,0,0,1.465-.688V0H12.7V-4.687h-.967v2.642A1.21,1.21,0,0,1,10.41-.82,1.085,1.085,0,0,1,9.268-2.046V-4.687Zm6.162.82v2.461A1.43,1.43,0,0,0,16.06.1a2.483,2.483,0,0,0,1.025-.205l-.127-.83a2.154,2.154,0,0,1-.762.161.682.682,0,0,1-.767-.747V-3.867h1.479v-.82H15.42v-1.5h-.942v1.5h-.85v.82ZM22.437.1a2.42,2.42,0,0,0,2.49-2.441,2.42,2.42,0,0,0-2.49-2.441,2.42,2.42,0,0,0-2.49,2.441A2.42,2.42,0,0,0,22.437.1ZM20.913-2.344a1.492,1.492,0,0,1,1.523-1.533A1.492,1.492,0,0,1,23.96-2.344,1.492,1.492,0,0,1,22.437-.811,1.492,1.492,0,0,1,20.913-2.344Zm4.814-.024A2.344,2.344,0,0,0,28.081.1a1.984,1.984,0,0,0,1.67-.737V0h.967V-6.875h-.967v2.827a1.984,1.984,0,0,0-1.67-.737A2.3,2.3,0,0,0,25.728-2.368ZM28.2-3.916a1.515,1.515,0,0,1,1.548,1.548A1.553,1.553,0,0,1,28.2-.771a1.517,1.517,0,0,1-1.5-1.6A1.476,1.476,0,0,1,28.2-3.916ZM32.09-6.26a.569.569,0,0,0,.6.6.573.573,0,0,0,.6-.6.573.573,0,0,0-.6-.6A.569.569,0,0,0,32.09-6.26ZM33.169,0V-4.687H32.2V0Zm1.768-3.867v2.461a1.43,1.43,0,0,0,1.6,1.5,2.483,2.483,0,0,0,1.025-.205l-.127-.83a2.154,2.154,0,0,1-.762.161.682.682,0,0,1-.767-.747V-3.867h1.479v-.82H35.894v-1.5h-.942v1.5H34.1v.82Zm5.518,2.534c0,.918.8,1.431,1.812,1.431a1.706,1.706,0,0,0,1.46-.7V0h.947V-2.935c0-1.138-.835-1.851-2.153-1.851a2.638,2.638,0,0,0-1.968.952l.61.605A1.847,1.847,0,0,1,42.5-3.877a1.074,1.074,0,0,1,1.2,1.025V-2.6a2.848,2.848,0,0,0-1.182-.22C41.294-2.817,40.454-2.212,40.454-1.333Zm.977-.034c0-.508.508-.713,1.118-.713a2.846,2.846,0,0,1,1.157.225,1.21,1.21,0,0,1-1.3,1.162C41.855-.693,41.431-.942,41.431-1.367Zm4.6-3.32v2.847A1.8,1.8,0,0,0,47.988.1a1.691,1.691,0,0,0,1.465-.688V0h.972V-4.687h-.967v2.642A1.21,1.21,0,0,1,48.14-.82,1.085,1.085,0,0,1,47-2.046V-4.687Zm6.162.82v2.461a1.43,1.43,0,0,0,1.6,1.5,2.483,2.483,0,0,0,1.025-.205l-.127-.83a2.154,2.154,0,0,1-.762.161.682.682,0,0,1-.767-.747V-3.867h1.479v-.82H53.149v-1.5h-.942v1.5h-.85v.82Zm6.182,0V0h.967V-3.867h1.367v-.82H59.326v-.454c0-.679.293-.981.923-.981a1.731,1.731,0,0,1,.63.122l.1-.8a1.706,1.706,0,0,0-.776-.171A1.663,1.663,0,0,0,58.389-5.2v.508h-.9v.82Zm3.159-.82v2.847A1.8,1.8,0,0,0,63.491.1a1.691,1.691,0,0,0,1.465-.688V0h.972V-4.687h-.967v2.642A1.21,1.21,0,0,1,63.643-.82,1.085,1.085,0,0,1,62.5-2.046V-4.687ZM69.448.1a2.011,2.011,0,0,0,1.67-.737v.4a1.421,1.421,0,0,1-1.592,1.416A2.073,2.073,0,0,1,67.949.415l-.635.63a2.828,2.828,0,0,0,2.192,1.006A2.335,2.335,0,0,0,72.085-.366V-4.687h-.967v.64a1.984,1.984,0,0,0-1.67-.737,2.3,2.3,0,0,0-2.354,2.417A2.344,2.344,0,0,0,69.448.1Zm.117-4.014a1.515,1.515,0,0,1,1.548,1.548,1.553,1.553,0,0,1-1.548,1.6,1.517,1.517,0,0,1-1.5-1.6A1.476,1.476,0,0,1,69.565-3.916ZM73.438-6.26a.569.569,0,0,0,.6.6.573.573,0,0,0,.6-.6.573.573,0,0,0-.6-.6A.569.569,0,0,0,73.438-6.26ZM74.517,0V-4.687H73.55V0Zm1.768-3.867v2.461a1.43,1.43,0,0,0,1.6,1.5,2.483,2.483,0,0,0,1.025-.205l-.127-.83a2.154,2.154,0,0,1-.762.161.682.682,0,0,1-.767-.747V-3.867H78.73v-.82H77.241v-1.5H76.3v1.5h-.85v.82Zm3.56,2.632-.62,2.52h.854l.781-2.52Z" transform="translate(219.63 -15.529)" fill="#42454a"/><path d="M2.676-.986A2.234,2.234,0,0,0,4.7.1c1,0,1.855-.552,1.855-1.406,0-.894-.664-1.226-1.685-1.475-.688-.166-1.035-.264-1.035-.62,0-.3.313-.5.776-.5a1.437,1.437,0,0,1,1.206.64l.649-.557a2.161,2.161,0,0,0-1.855-.967c-.957,0-1.733.547-1.733,1.4,0,.928.718,1.245,1.724,1.47.688.156.977.264.977.61,0,.317-.376.518-.879.518a1.473,1.473,0,0,1-1.309-.776ZM7.393-2.339A2.382,2.382,0,0,0,9.849.1a2.416,2.416,0,0,0,2.119-1.191l-.713-.518a1.576,1.576,0,0,1-1.406.8A1.383,1.383,0,0,1,8.394-2.065h3.638a2.361,2.361,0,0,0,.039-.449A2.189,2.189,0,0,0,9.814-4.785,2.356,2.356,0,0,0,7.393-2.339Zm1.025-.449A1.362,1.362,0,0,1,9.8-3.911a1.245,1.245,0,0,1,1.284,1.123Zm4.463.42A2.344,2.344,0,0,0,15.234.1,1.984,1.984,0,0,0,16.9-.64V0h.967V-6.875H16.9v2.827a1.984,1.984,0,0,0-1.67-.737A2.3,2.3,0,0,0,12.881-2.368Zm2.471-1.548A1.515,1.515,0,0,1,16.9-2.368a1.553,1.553,0,0,1-1.548,1.6,1.517,1.517,0,0,1-1.5-1.6A1.476,1.476,0,0,1,15.352-3.916Zm5.962,1.6A2.3,2.3,0,0,0,23.667.1a1.984,1.984,0,0,0,1.67-.737V1.953H26.3V-4.687h-.967v.64a1.984,1.984,0,0,0-1.67-.737A2.344,2.344,0,0,0,21.313-2.319Zm.967,0a1.517,1.517,0,0,1,1.5-1.6,1.553,1.553,0,0,1,1.548,1.6A1.515,1.515,0,0,1,23.784-.771,1.476,1.476,0,0,1,22.28-2.319Zm5.425-2.368v2.847A1.8,1.8,0,0,0,29.663.1a1.691,1.691,0,0,0,1.465-.688V0H32.1V-4.687h-.967v2.642A1.21,1.21,0,0,1,29.814-.82a1.085,1.085,0,0,1-1.143-1.226V-4.687ZM33.472-6.26a.569.569,0,0,0,.6.6.573.573,0,0,0,.6-.6.573.573,0,0,0-.6-.6A.569.569,0,0,0,33.472-6.26ZM34.551,0V-4.687h-.967V0Zm1.172-1.333c0,.918.8,1.431,1.812,1.431a1.706,1.706,0,0,0,1.46-.7V0h.947V-2.935c0-1.138-.835-1.851-2.153-1.851a2.638,2.638,0,0,0-1.968.952l.61.605a1.847,1.847,0,0,1,1.343-.649,1.074,1.074,0,0,1,1.2,1.025V-2.6a2.848,2.848,0,0,0-1.182-.22C36.563-2.817,35.723-2.212,35.723-1.333Zm.977-.034c0-.508.508-.713,1.118-.713a2.846,2.846,0,0,1,1.157.225,1.21,1.21,0,0,1-1.3,1.162C37.124-.693,36.7-.942,36.7-1.367Z" transform="translate(300.758 -15.529)" fill="#42454a"/><g clip-path="url(#a)"><path d="M2.881.1A2.447,2.447,0,0,0,5.049-1.177l-.728-.513a1.635,1.635,0,0,1-1.44.879A1.492,1.492,0,0,1,1.372-2.349,1.483,1.483,0,0,1,2.9-3.877a1.611,1.611,0,0,1,1.406.884L5.054-3.5A2.386,2.386,0,0,0,2.92-4.785,2.451,2.451,0,0,0,.4-2.349,2.426,2.426,0,0,0,2.881.1ZM8.2.1a2.42,2.42,0,0,0,2.49-2.441A2.42,2.42,0,0,0,8.2-4.785a2.42,2.42,0,0,0-2.49,2.441A2.42,2.42,0,0,0,8.2.1ZM6.68-2.344A1.492,1.492,0,0,1,8.2-3.877,1.492,1.492,0,0,1,9.727-2.344,1.492,1.492,0,0,1,8.2-.811,1.492,1.492,0,0,1,6.68-2.344ZM12.8,0V-2.642a1.2,1.2,0,0,1,1.294-1.226,1.087,1.087,0,0,1,1.152,1.226V0h.967V-2.847a1.8,1.8,0,0,0-1.968-1.938A1.674,1.674,0,0,0,12.8-4.1v-.591h-.972V0Zm4.473-.986A2.234,2.234,0,0,0,19.3.1c1,0,1.855-.552,1.855-1.406,0-.894-.664-1.226-1.685-1.475-.688-.166-1.035-.264-1.035-.62,0-.3.313-.5.776-.5a1.437,1.437,0,0,1,1.206.64l.649-.557a2.161,2.161,0,0,0-1.855-.967c-.957,0-1.733.547-1.733,1.4,0,.928.718,1.245,1.724,1.47.688.156.977.264.977.61,0,.317-.376.518-.879.518a1.473,1.473,0,0,1-1.309-.776Zm4.717-1.353A2.382,2.382,0,0,0,24.443.1a2.416,2.416,0,0,0,2.119-1.191l-.713-.518a1.576,1.576,0,0,1-1.406.8,1.383,1.383,0,0,1-1.455-1.255h3.638a2.361,2.361,0,0,0,.039-.449,2.189,2.189,0,0,0-2.256-2.271A2.356,2.356,0,0,0,21.987-2.339Zm1.025-.449A1.362,1.362,0,0,1,24.4-3.911a1.245,1.245,0,0,1,1.284,1.123Zm4.463.469A2.3,2.3,0,0,0,29.829.1,1.984,1.984,0,0,0,31.5-.64V1.953h.967V-4.687H31.5v.64a1.984,1.984,0,0,0-1.67-.737A2.344,2.344,0,0,0,27.476-2.319Zm.967,0a1.517,1.517,0,0,1,1.5-1.6,1.553,1.553,0,0,1,1.548,1.6A1.515,1.515,0,0,1,29.946-.771,1.476,1.476,0,0,1,28.442-2.319Zm5.425-2.368v2.847A1.8,1.8,0,0,0,35.825.1,1.691,1.691,0,0,0,37.29-.591V0h.972V-4.687h-.967v2.642A1.21,1.21,0,0,1,35.977-.82a1.085,1.085,0,0,1-1.143-1.226V-4.687Zm5.815,0v2.847A1.8,1.8,0,0,0,41.641.1a1.691,1.691,0,0,0,1.465-.688V0h.972V-4.687H43.11v2.642A1.21,1.21,0,0,1,41.792-.82a1.085,1.085,0,0,1-1.143-1.226V-4.687ZM46.528,0V-2.642a1.2,1.2,0,0,1,1.294-1.226,1.087,1.087,0,0,1,1.152,1.226V0h.967V-2.847a1.8,1.8,0,0,0-1.968-1.938,1.674,1.674,0,0,0-1.44.688v-.591h-.972V0Zm5.059-3.867v2.461a1.43,1.43,0,0,0,1.6,1.5,2.483,2.483,0,0,0,1.025-.205l-.127-.83a2.154,2.154,0,0,1-.762.161.682.682,0,0,1-.767-.747V-3.867h1.479v-.82H52.544v-1.5H51.6v1.5h-.85v.82Zm3.472-.82v2.847A1.8,1.8,0,0,0,57.017.1a1.691,1.691,0,0,0,1.465-.688V0h.972V-4.687h-.967v2.642A1.21,1.21,0,0,1,57.168-.82a1.085,1.085,0,0,1-1.143-1.226V-4.687ZM61.909,0V-2.554A1.159,1.159,0,0,1,63.1-3.887a1.547,1.547,0,0,1,.571.107l.1-.889a1.829,1.829,0,0,0-.645-.117,1.3,1.3,0,0,0-1.221.737v-.64h-.972V0Z" transform="translate(9 -3.529)" fill="#42454a"/><path d="M3.037,0h.972V-2.642a1.19,1.19,0,0,1,1.27-1.226c.688,0,1.1.449,1.1,1.226V0h.972V-2.7a1.188,1.188,0,0,1,1.27-1.167c.688,0,1.1.449,1.1,1.226V0H10.7V-2.847A1.789,1.789,0,0,0,8.774-4.785,1.94,1.94,0,0,0,7.1-3.911a1.78,1.78,0,0,0-1.67-.874A1.646,1.646,0,0,0,4.009-4.1v-.591H3.037Zm8.77-1.333c0,.918.8,1.431,1.812,1.431a1.706,1.706,0,0,0,1.46-.7V0h.947V-2.935c0-1.138-.835-1.851-2.153-1.851a2.638,2.638,0,0,0-1.968.952l.61.605a1.847,1.847,0,0,1,1.343-.649,1.074,1.074,0,0,1,1.2,1.025V-2.6a2.848,2.848,0,0,0-1.182-.22C12.646-2.817,11.807-2.212,11.807-1.333Zm.977-.034c0-.508.508-.713,1.118-.713a2.846,2.846,0,0,1,1.157.225,1.21,1.21,0,0,1-1.3,1.162C13.208-.693,12.783-.942,12.783-1.367ZM19.482.1a2.011,2.011,0,0,0,1.67-.737v.4a1.421,1.421,0,0,1-1.592,1.416A2.073,2.073,0,0,1,17.983.415l-.635.63a2.828,2.828,0,0,0,2.192,1.006A2.335,2.335,0,0,0,22.119-.366V-4.687h-.967v.64a1.984,1.984,0,0,0-1.67-.737,2.3,2.3,0,0,0-2.354,2.417A2.344,2.344,0,0,0,19.482.1ZM19.6-3.916a1.515,1.515,0,0,1,1.548,1.548A1.553,1.553,0,0,1,19.6-.771a1.517,1.517,0,0,1-1.5-1.6A1.476,1.476,0,0,1,19.6-3.916ZM24.551,0V-2.642a1.2,1.2,0,0,1,1.294-1.226A1.087,1.087,0,0,1,27-2.642V0h.967V-2.847A1.8,1.8,0,0,0,26-4.785a1.674,1.674,0,0,0-1.44.688v-.591h-.972V0Zm4.722-6.26a.569.569,0,0,0,.6.6.573.573,0,0,0,.6-.6.573.573,0,0,0-.6-.6A.569.569,0,0,0,29.272-6.26ZM30.352,0V-4.687h-.967V0Zm3.442-2.368A2.344,2.344,0,0,0,36.147.1a1.984,1.984,0,0,0,1.67-.737V0h.967V-6.875h-.967v2.827a1.984,1.984,0,0,0-1.67-.737A2.3,2.3,0,0,0,33.794-2.368Zm2.471-1.548a1.515,1.515,0,0,1,1.548,1.548,1.553,1.553,0,0,1-1.548,1.6,1.517,1.517,0,0,1-1.5-1.6A1.476,1.476,0,0,1,36.265-3.916ZM42.412.1A2.42,2.42,0,0,0,44.9-2.344a2.42,2.42,0,0,0-2.49-2.441,2.42,2.42,0,0,0-2.49,2.441A2.42,2.42,0,0,0,42.412.1ZM40.889-2.344a1.492,1.492,0,0,1,1.523-1.533,1.492,1.492,0,0,1,1.523,1.533A1.492,1.492,0,0,1,42.412-.811,1.492,1.492,0,0,1,40.889-2.344Zm6.118-4.531H46.04V0h.967ZM50.635.1a2.42,2.42,0,0,0,2.49-2.441,2.42,2.42,0,0,0-2.49-2.441,2.42,2.42,0,0,0-2.49,2.441A2.42,2.42,0,0,0,50.635.1ZM49.111-2.344a1.492,1.492,0,0,1,1.523-1.533,1.492,1.492,0,0,1,1.523,1.533A1.492,1.492,0,0,1,50.635-.811,1.492,1.492,0,0,1,49.111-2.344ZM55.234,0V-2.554a1.159,1.159,0,0,1,1.191-1.333A1.547,1.547,0,0,1,57-3.779l.1-.889a1.829,1.829,0,0,0-.645-.117,1.3,1.3,0,0,0-1.221.737v-.64h-.972V0ZM57.49-2.339A2.382,2.382,0,0,0,59.946.1a2.416,2.416,0,0,0,2.119-1.191l-.713-.518a1.576,1.576,0,0,1-1.406.8,1.383,1.383,0,0,1-1.455-1.255h3.638a2.361,2.361,0,0,0,.039-.449,2.189,2.189,0,0,0-2.256-2.271A2.356,2.356,0,0,0,57.49-2.339Zm1.025-.449A1.362,1.362,0,0,1,59.9-3.911a1.245,1.245,0,0,1,1.284,1.123Zm4.438,1.8A2.234,2.234,0,0,0,64.98.1c1,0,1.855-.552,1.855-1.406,0-.894-.664-1.226-1.685-1.475-.688-.166-1.035-.264-1.035-.62,0-.3.313-.5.776-.5a1.437,1.437,0,0,1,1.206.64l.649-.557a2.161,2.161,0,0,0-1.855-.967c-.957,0-1.733.547-1.733,1.4,0,.928.718,1.245,1.724,1.47.688.156.977.264.977.61,0,.317-.376.518-.879.518a1.473,1.473,0,0,1-1.309-.776Zm7.012-1.353A2.382,2.382,0,0,0,72.422.1a2.416,2.416,0,0,0,2.119-1.191l-.713-.518a1.576,1.576,0,0,1-1.406.8,1.383,1.383,0,0,1-1.455-1.255H74.6a2.361,2.361,0,0,0,.039-.449,2.189,2.189,0,0,0-2.256-2.271A2.356,2.356,0,0,0,69.966-2.339Zm1.025-.449a1.362,1.362,0,0,1,1.387-1.123,1.245,1.245,0,0,1,1.284,1.123ZM77.935.1a2.42,2.42,0,0,0,2.49-2.441,2.42,2.42,0,0,0-2.49-2.441,2.42,2.42,0,0,0-2.49,2.441A2.42,2.42,0,0,0,77.935.1ZM76.411-2.344a1.492,1.492,0,0,1,1.523-1.533,1.492,1.492,0,0,1,1.523,1.533A1.492,1.492,0,0,1,77.935-.811,1.492,1.492,0,0,1,76.411-2.344ZM81.2-.986A2.234,2.234,0,0,0,83.228.1c1,0,1.855-.552,1.855-1.406,0-.894-.664-1.226-1.685-1.475-.688-.166-1.035-.264-1.035-.62,0-.3.313-.5.776-.5a1.437,1.437,0,0,1,1.206.64L85-3.818a2.161,2.161,0,0,0-1.855-.967c-.957,0-1.733.547-1.733,1.4,0,.928.718,1.245,1.724,1.47.688.156.977.264.977.61,0,.317-.376.518-.879.518a1.473,1.473,0,0,1-1.309-.776Zm7.017-1.333A2.3,2.3,0,0,0,90.571.1a1.984,1.984,0,0,0,1.67-.737V1.953h.967V-4.687h-.967v.64a1.984,1.984,0,0,0-1.67-.737A2.344,2.344,0,0,0,88.218-2.319Zm.967,0a1.517,1.517,0,0,1,1.5-1.6,1.553,1.553,0,0,1,1.548,1.6A1.515,1.515,0,0,1,90.688-.771,1.476,1.476,0,0,1,89.185-2.319Zm5.425-2.368v2.847A1.8,1.8,0,0,0,96.567.1a1.691,1.691,0,0,0,1.465-.688V0H99V-4.687h-.967v2.642A1.21,1.21,0,0,1,96.719-.82a1.085,1.085,0,0,1-1.143-1.226V-4.687Zm5.767-1.572a.569.569,0,0,0,.6.6.573.573,0,0,0,.6-.6.573.573,0,0,0-.6-.6A.569.569,0,0,0,100.376-6.26ZM101.455,0V-4.687h-.967V0Zm4.751,0V-2.554A1.159,1.159,0,0,1,107.4-3.887a1.547,1.547,0,0,1,.571.107l.1-.889a1.829,1.829,0,0,0-.645-.117,1.3,1.3,0,0,0-1.221.737v-.64h-.972V0Zm2.324-1.333c0,.918.8,1.431,1.812,1.431a1.706,1.706,0,0,0,1.46-.7V0h.947V-2.935c0-1.138-.835-1.851-2.153-1.851a2.638,2.638,0,0,0-1.968.952l.61.605a1.847,1.847,0,0,1,1.343-.649,1.074,1.074,0,0,1,1.2,1.025V-2.6a2.848,2.848,0,0,0-1.182-.22C109.37-2.817,108.53-2.212,108.53-1.333Zm.977-.034c0-.508.508-.713,1.118-.713a2.846,2.846,0,0,1,1.157.225,1.21,1.21,0,0,1-1.3,1.162C109.932-.693,109.507-.942,109.507-1.367Zm4.888-2.5v2.461a1.43,1.43,0,0,0,1.6,1.5,2.483,2.483,0,0,0,1.025-.205l-.127-.83a2.154,2.154,0,0,1-.762.161.682.682,0,0,1-.767-.747V-3.867h1.479v-.82h-1.489v-1.5h-.942v1.5h-.85v.82Zm3.423-2.393a.569.569,0,0,0,.6.6.573.573,0,0,0,.6-.6.573.573,0,0,0-.6-.6A.569.569,0,0,0,117.817-6.26ZM118.9,0V-4.687h-.967V0Zm3.628.1a2.42,2.42,0,0,0,2.49-2.441,2.42,2.42,0,0,0-2.49-2.441,2.42,2.42,0,0,0-2.49,2.441A2.42,2.42,0,0,0,122.524.1ZM121-2.344a1.492,1.492,0,0,1,1.523-1.533,1.492,1.492,0,0,1,1.523,1.533,1.492,1.492,0,0,1-1.523,1.533A1.492,1.492,0,0,1,121-2.344ZM127.119,0V-2.642a1.2,1.2,0,0,1,1.294-1.226,1.087,1.087,0,0,1,1.152,1.226V0h.967V-2.847a1.8,1.8,0,0,0-1.968-1.938,1.674,1.674,0,0,0-1.44.688v-.591h-.972V0Zm4.492-2.339A2.382,2.382,0,0,0,134.067.1a2.416,2.416,0,0,0,2.119-1.191l-.713-.518a1.576,1.576,0,0,1-1.406.8,1.383,1.383,0,0,1-1.455-1.255h3.638a2.361,2.361,0,0,0,.039-.449,2.189,2.189,0,0,0-2.256-2.271A2.356,2.356,0,0,0,131.611-2.339Zm1.025-.449a1.362,1.362,0,0,1,1.387-1.123,1.245,1.245,0,0,1,1.284,1.123ZM140.82,0h1.152l1.846-4.687h-1.04L141.4-.947l-1.382-3.74h-1.04Zm5.923.1a2.42,2.42,0,0,0,2.49-2.441,2.42,2.42,0,0,0-2.49-2.441,2.42,2.42,0,0,0-2.49,2.441A2.42,2.42,0,0,0,146.743.1ZM145.22-2.344a1.492,1.492,0,0,1,1.523-1.533,1.492,1.492,0,0,1,1.523,1.533,1.492,1.492,0,0,1-1.523,1.533A1.492,1.492,0,0,1,145.22-2.344Zm6.118-4.531h-.967V0h.967Zm1.421,2.188v2.847A1.8,1.8,0,0,0,154.717.1a1.691,1.691,0,0,0,1.465-.688V0h.972V-4.687h-.967v2.642A1.21,1.21,0,0,1,154.868-.82a1.085,1.085,0,0,1-1.143-1.226V-4.687Zm5.879,6.641h.967V-.64a1.984,1.984,0,0,0,1.67.737,2.3,2.3,0,0,0,2.354-2.417,2.344,2.344,0,0,0-2.354-2.466,1.984,1.984,0,0,0-1.67.737v-.64h-.967Zm.972-4.272a1.553,1.553,0,0,1,1.548-1.6,1.517,1.517,0,0,1,1.5,1.6,1.476,1.476,0,0,1-1.5,1.548A1.515,1.515,0,0,1,159.609-2.319Zm5.376-1.548v2.461a1.43,1.43,0,0,0,1.6,1.5,2.483,2.483,0,0,0,1.025-.205l-.127-.83a2.154,2.154,0,0,1-.762.161.682.682,0,0,1-.767-.747V-3.867h1.479v-.82h-1.489v-1.5H165v1.5h-.85v.82Zm3.223,2.534c0,.918.8,1.431,1.812,1.431a1.706,1.706,0,0,0,1.46-.7V0h.947V-2.935c0-1.138-.835-1.851-2.153-1.851a2.638,2.638,0,0,0-1.968.952l.61.605a1.847,1.847,0,0,1,1.343-.649,1.074,1.074,0,0,1,1.2,1.025V-2.6a2.848,2.848,0,0,0-1.182-.22C169.048-2.817,168.208-2.212,168.208-1.333Zm.977-.034c0-.508.508-.713,1.118-.713a2.846,2.846,0,0,1,1.157.225,1.21,1.21,0,0,1-1.3,1.162C169.609-.693,169.185-.942,169.185-1.367Zm4.888-2.5v2.461a1.43,1.43,0,0,0,1.6,1.5,2.483,2.483,0,0,0,1.025-.205l-.127-.83a2.154,2.154,0,0,1-.762.161.682.682,0,0,1-.767-.747V-3.867h1.479v-.82h-1.489v-1.5h-.942v1.5h-.85v.82Zm3.081,1.528A2.382,2.382,0,0,0,179.609.1a2.416,2.416,0,0,0,2.119-1.191l-.713-.518a1.576,1.576,0,0,1-1.406.8,1.383,1.383,0,0,1-1.455-1.255h3.638a2.361,2.361,0,0,0,.039-.449,2.189,2.189,0,0,0-2.256-2.271A2.356,2.356,0,0,0,177.153-2.339Zm1.025-.449a1.362,1.362,0,0,1,1.387-1.123,1.245,1.245,0,0,1,1.284,1.123ZM182.979,0h.972V-2.642a1.19,1.19,0,0,1,1.27-1.226c.688,0,1.1.449,1.1,1.226V0h.972V-2.7a1.188,1.188,0,0,1,1.27-1.167c.688,0,1.1.449,1.1,1.226V0h.972V-2.847a1.789,1.789,0,0,0-1.924-1.938,1.94,1.94,0,0,0-1.675.874,1.78,1.78,0,0,0-1.67-.874,1.646,1.646,0,0,0-1.421.688v-.591h-.972Zm11.016-.986A2.234,2.234,0,0,0,196.021.1c1,0,1.855-.552,1.855-1.406,0-.894-.664-1.226-1.685-1.475-.688-.166-1.035-.264-1.035-.62,0-.3.313-.5.776-.5a1.437,1.437,0,0,1,1.206.64l.649-.557a2.161,2.161,0,0,0-1.855-.967c-.957,0-1.733.547-1.733,1.4,0,.928.718,1.245,1.724,1.47.688.156.977.264.977.61,0,.317-.376.518-.879.518a1.473,1.473,0,0,1-1.309-.776Zm4.717-1.353A2.382,2.382,0,0,0,201.167.1a2.416,2.416,0,0,0,2.119-1.191l-.713-.518a1.576,1.576,0,0,1-1.406.8,1.383,1.383,0,0,1-1.455-1.255h3.638a2.361,2.361,0,0,0,.039-.449,2.189,2.189,0,0,0-2.256-2.271A2.356,2.356,0,0,0,198.711-2.339Zm1.025-.449a1.362,1.362,0,0,1,1.387-1.123,1.245,1.245,0,0,1,1.284,1.123Zm4.463.469A2.3,2.3,0,0,0,206.553.1a1.984,1.984,0,0,0,1.67-.737V1.953h.967V-4.687h-.967v.64a1.984,1.984,0,0,0-1.67-.737A2.344,2.344,0,0,0,204.2-2.319Zm.967,0a1.517,1.517,0,0,1,1.5-1.6,1.553,1.553,0,0,1,1.548,1.6A1.515,1.515,0,0,1,206.67-.771,1.476,1.476,0,0,1,205.166-2.319Zm5.425-2.368v2.847A1.8,1.8,0,0,0,212.549.1a1.691,1.691,0,0,0,1.465-.688V0h.972V-4.687h-.967v2.642A1.21,1.21,0,0,1,212.7-.82a1.085,1.085,0,0,1-1.143-1.226V-4.687Zm5.767-1.572a.569.569,0,0,0,.6.6.573.573,0,0,0,.6-.6.573.573,0,0,0-.6-.6A.569.569,0,0,0,216.357-6.26ZM217.437,0V-4.687h-.967V0Zm4.746,0V-2.642a1.2,1.2,0,0,1,1.294-1.226,1.087,1.087,0,0,1,1.152,1.226V0h.967V-2.847a1.8,1.8,0,0,0-1.968-1.938,1.674,1.674,0,0,0-1.44.688v-.591h-.972V0Zm4.492-2.339A2.382,2.382,0,0,0,229.131.1a2.416,2.416,0,0,0,2.119-1.191l-.713-.518a1.576,1.576,0,0,1-1.406.8,1.383,1.383,0,0,1-1.455-1.255h3.638a2.361,2.361,0,0,0,.039-.449A2.189,2.189,0,0,0,229.1-4.785,2.356,2.356,0,0,0,226.675-2.339Zm1.025-.449a1.362,1.362,0,0,1,1.387-1.123,1.245,1.245,0,0,1,1.284,1.123Zm4.438,1.8A2.234,2.234,0,0,0,234.165.1c1,0,1.855-.552,1.855-1.406,0-.894-.664-1.226-1.685-1.475-.688-.166-1.035-.264-1.035-.62,0-.3.313-.5.776-.5a1.437,1.437,0,0,1,1.206.64l.649-.557a2.161,2.161,0,0,0-1.855-.967c-.957,0-1.733.547-1.733,1.4,0,.928.718,1.245,1.724,1.47.688.156.977.264.977.61,0,.317-.376.518-.879.518a1.473,1.473,0,0,1-1.309-.776ZM239.336.1A2.447,2.447,0,0,0,241.5-1.177l-.728-.513a1.635,1.635,0,0,1-1.44.879,1.492,1.492,0,0,1-1.509-1.538,1.483,1.483,0,0,1,1.528-1.528,1.611,1.611,0,0,1,1.406.884l.747-.508a2.386,2.386,0,0,0-2.134-1.284,2.451,2.451,0,0,0-2.524,2.437A2.426,2.426,0,0,0,239.336.1Zm3.105-6.357a.569.569,0,0,0,.6.6.573.573,0,0,0,.6-.6.573.573,0,0,0-.6-.6A.569.569,0,0,0,242.441-6.26ZM243.521,0V-4.687h-.967V0Zm1.421-4.687v2.847A1.8,1.8,0,0,0,246.9.1a1.691,1.691,0,0,0,1.465-.688V0h.972V-4.687h-.967v2.642A1.21,1.21,0,0,1,247.051-.82a1.085,1.085,0,0,1-1.143-1.226V-4.687ZM251.787,0V-2.642a1.2,1.2,0,0,1,1.294-1.226,1.087,1.087,0,0,1,1.152,1.226V0h.967V-2.847a1.8,1.8,0,0,0-1.968-1.938,1.674,1.674,0,0,0-1.44.688v-.591h-.972V0Zm5.059-3.867v2.461a1.43,1.43,0,0,0,1.6,1.5,2.483,2.483,0,0,0,1.025-.205l-.127-.83a2.154,2.154,0,0,1-.762.161.682.682,0,0,1-.767-.747V-3.867h1.479v-.82H257.8v-1.5h-.942v1.5h-.85v.82ZM260.107-.5a.586.586,0,0,0,.6.6.59.59,0,0,0,.6-.6.594.594,0,0,0-.6-.6A.59.59,0,0,0,260.107-.5Z" transform="translate(72.73 -3.529)" fill="#42454a"/></g></g></g></svg>