<svg xmlns="http://www.w3.org/2000/svg" xmlns:xlink="http://www.w3.org/1999/xlink" width="142" height="36" viewBox="0 0 142 36"><defs><clipPath id="a"><rect width="16.806" height="14.074" fill="#fff"/></clipPath></defs><g transform="translate(-1060 -55)"><rect width="142" height="36" transform="translate(1060 55)" fill="#bd9b60"/><g transform="translate(1073.68 65.963)"><g transform="translate(0 0)" clip-path="url(#a)"><path d="M18.782,10.848a.637.637,0,0,1-.476-.182l-4.425-4.4a.612.612,0,0,1,.182-.981.861.861,0,0,1,.44-.127.694.694,0,0,1,.5.211l2.915,2.909V.6c0-.41.408-.6.787-.6s.787.187.787.6V8.478l2.783-2.972a.888.888,0,0,1,.661-.271c.036,0,.072,0,.109.005a.956.956,0,0,1,.719.382.4.4,0,0,1-.1.5l-4.121,4.4a1.049,1.049,0,0,1-.748.324Z" transform="translate(-10.166 0)" fill="#fff"/><path d="M.757,64.271c-.52,0-.757-.322-.757-.621s.237-.621.757-.621h3.39a.85.85,0,0,1,.544.171.555.555,0,0,1,.213.445c0,.3-.237.626-.757.626Z" transform="translate(0 -50.197)" fill="#fff"/><path d="M23.789,64.271c-.52,0-.757-.322-.757-.621s.237-.621.757-.621h3.405a.827.827,0,0,1,.53.165.559.559,0,0,1,.211.451c0,.3-.237.626-.757.626Z" transform="translate(-17.088 -50.197)" fill="#fff"/><path d="M46.88,64.271c-.52,0-.757-.322-.757-.621s.237-.621.757-.621h3.39a.672.672,0,0,1,.757.621c0,.3-.237.621-.757.621Z" transform="translate(-34.22 -50.197)" fill="#fff"/></g></g><path d="M6.586,18C8.664,18,9.9,16.711,9.9,15.1a2.455,2.455,0,0,0-1.773-2.469A2.675,2.675,0,0,0,9.6,10.219c0-1.758-1.391-2.828-3.367-2.828H1.273V18ZM3.844,11.711V9.539H5.758A1.1,1.1,0,0,1,6.93,10.625a1.051,1.051,0,0,1-1.094,1.086Zm0,4.148V13.68H5.938a1.094,1.094,0,0,1,1.172,1.1,1.113,1.113,0,0,1-1.172,1.078ZM14.039,18V14.391c0-1.4.789-1.906,1.719-1.906a2.867,2.867,0,0,1,.945.164l.148-2.148a2.957,2.957,0,0,0-.914-.156,2.1,2.1,0,0,0-1.961,1.18L13.9,10.5h-2.32V18Zm6.133.156a2.487,2.487,0,0,0,2-.922V18h2.336V13.547c0-2-1.375-3.2-3.656-3.2a4.621,4.621,0,0,0-3.375,1.547l1.359,1.461a2.473,2.473,0,0,1,1.8-.836c.891,0,1.406.43,1.406,1.016v.148a5.666,5.666,0,0,0-1.5-.2c-1.7,0-3.172.9-3.172,2.391C17.375,17.3,18.586,18.156,20.172,18.156Zm-.437-2.43c0-.484.484-.75,1.25-.75a2.928,2.928,0,0,1,1.063.2,1.267,1.267,0,0,1-1.336,1.3C20.141,16.477,19.734,16.172,19.734,15.727ZM28.82,18V13.828a1.19,1.19,0,0,1,1.25-1.234,1.209,1.209,0,0,1,1.258,1.234V18h2.461V13.125a2.691,2.691,0,0,0-2.773-2.781,2.912,2.912,0,0,0-2.32.945l-.078-.789H26.359V18Zm9.789.156a3.163,3.163,0,0,0,2.2-.734l.078.578h2.383V7H40.883v4.289a2.722,2.722,0,0,0-2.273-.945c-2.117,0-3.5,1.672-3.5,3.922C35.109,16.5,36.492,18.156,38.609,18.156ZM37.586,14.25a1.631,1.631,0,1,1,3.258,0,1.6,1.6,0,0,1-1.6,1.7A1.63,1.63,0,0,1,37.586,14.25ZM54.6,18c2.078,0,3.313-1.289,3.313-2.9a2.455,2.455,0,0,0-1.773-2.469,2.675,2.675,0,0,0,1.477-2.414c0-1.758-1.391-2.828-3.367-2.828H49.289V18Zm-2.742-6.289V9.539h1.914a1.1,1.1,0,0,1,1.172,1.086,1.051,1.051,0,0,1-1.094,1.086Zm0,4.148V13.68h2.094a1.094,1.094,0,0,1,1.172,1.1,1.113,1.113,0,0,1-1.172,1.078Zm7.18-1.609a4.033,4.033,0,1,0,4.031-3.906A3.866,3.866,0,0,0,59.039,14.25Zm2.438,0a1.594,1.594,0,1,1,3.188,0,1.6,1.6,0,1,1-3.187,0Zm6.68,0a4.033,4.033,0,1,0,4.031-3.906A3.866,3.866,0,0,0,68.156,14.25Zm2.438,0a1.594,1.594,0,1,1,3.188,0,1.6,1.6,0,1,1-3.187,0ZM77.828,7V18h2.461V15.867l.68-.672L82.977,18h3l-3.367-4.328L85.852,10.5H82.641l-2.352,2.367V7Z" transform="translate(1101.705 61.519)" fill="#fff"/></g></svg>