<svg xmlns="http://www.w3.org/2000/svg" width="169.957" height="81.544" viewBox="0 0 169.957 81.544"><g transform="translate(-678 -2646.799)"><g transform="translate(678 2728.343)"><path d="M8.277,0h161.68V-81.544H8.277Z" fill="#f3f3f4"/><g transform="translate(0 -63.722)"><path d="M0,0,8.839,8.839,17.677,0,8.839-8.839Z" fill="#f3f3f4"/></g><path d="M6.861-1.365H2.578V-7.957H1V0H6.861ZM10.317.117a2.9,2.9,0,0,0,3.006-2.93,2.9,2.9,0,0,0-3.006-2.93,2.905,2.905,0,0,0-3.006,2.93A2.9,2.9,0,0,0,10.317.117ZM8.805-2.812a1.492,1.492,0,0,1,1.512-1.564,1.489,1.489,0,0,1,1.512,1.564,1.49,1.49,0,0,1-1.512,1.57A1.494,1.494,0,0,1,8.805-2.812ZM14.552,0h1.506V-2.883c0-1.16.7-1.518,1.359-1.518a2.108,2.108,0,0,1,.7.129l.117-1.342a2.278,2.278,0,0,0-.732-.129,1.563,1.563,0,0,0-1.465.885l-.029-.768H14.552Zm6.977.123a2.9,2.9,0,0,0,2.5-1.354l-1.066-.8a1.644,1.644,0,0,1-1.4.791,1.48,1.48,0,0,1-1.5-1.125h4.066A4.079,4.079,0,0,0,24.183-3a2.6,2.6,0,0,0-2.725-2.742,2.808,2.808,0,0,0-2.895,2.924A2.843,2.843,0,0,0,21.529.123ZM20.088-3.369a1.322,1.322,0,0,1,1.389-1.107,1.263,1.263,0,0,1,1.307,1.107ZM26.93,0V-3.146a1.163,1.163,0,0,1,1.23-1.2,1.088,1.088,0,0,1,1.119,1.2V0h1.506V-3.182a1.153,1.153,0,0,1,1.236-1.166,1.086,1.086,0,0,1,1.125,1.2V0h1.506V-3.533a2.082,2.082,0,0,0-2.209-2.209,2.319,2.319,0,0,0-1.951,1,2.017,2.017,0,0,0-1.887-1,2.127,2.127,0,0,0-1.723.768l-.029-.65h-1.43V0ZM38.968-7.43a.821.821,0,0,0,.861.861A.826.826,0,0,0,40.7-7.43a.827.827,0,0,0-.867-.867A.826.826,0,0,0,38.968-7.43ZM40.591,0V-5.625H39.085V0Zm3.145,2.344V-.592a2.365,2.365,0,0,0,1.828.709,2.71,2.71,0,0,0,2.725-2.906,2.744,2.744,0,0,0-2.725-2.953,2.208,2.208,0,0,0-1.852.8l-.029-.68H42.236V2.344ZM43.73-2.795a1.529,1.529,0,0,1,1.529-1.6,1.514,1.514,0,0,1,1.523,1.6A1.5,1.5,0,0,1,45.26-1.23,1.506,1.506,0,0,1,43.73-2.795ZM49.1-1.189A2.892,2.892,0,0,0,51.6.117c1.2,0,2.221-.686,2.221-1.746,0-1.113-.8-1.518-2.051-1.822-.7-.17-1.055-.27-1.055-.574,0-.281.334-.451.82-.451a1.437,1.437,0,0,1,1.26.7l.961-.791A2.584,2.584,0,0,0,51.5-5.742c-1.225,0-2.2.68-2.2,1.734,0,1.154.867,1.547,2.1,1.822.686.152.984.258.984.557,0,.316-.352.492-.8.492A1.829,1.829,0,0,1,50.1-2ZM57.239.146a2.135,2.135,0,0,0,1.746-.768L59.015,0h1.43V-5.625h-1.5v3.182a1.17,1.17,0,0,1-1.26,1.2,1.1,1.1,0,0,1-1.16-1.2V-5.625h-1.5v3.568A2.085,2.085,0,0,0,57.239.146ZM63.6,0V-3.146a1.163,1.163,0,0,1,1.23-1.2,1.088,1.088,0,0,1,1.119,1.2V0h1.506V-3.182a1.153,1.153,0,0,1,1.236-1.166,1.086,1.086,0,0,1,1.125,1.2V0h1.506V-3.533a2.082,2.082,0,0,0-2.209-2.209,2.319,2.319,0,0,0-1.951,1,2.017,2.017,0,0,0-1.887-1,2.127,2.127,0,0,0-1.723.768l-.029-.65h-1.43V0ZM75.346-2.818A2.735,2.735,0,0,0,78.071.117,2.347,2.347,0,0,0,79.9-.6l.029.6H81.4V-8.25H79.928v3.3a2.228,2.228,0,0,0-1.857-.8A2.719,2.719,0,0,0,75.346-2.818Zm3.035-1.576a1.508,1.508,0,0,1,1.529,1.57A1.531,1.531,0,0,1,78.382-1.23a1.519,1.519,0,0,1-1.523-1.594A1.49,1.49,0,0,1,78.382-4.395ZM85.64.117a2.9,2.9,0,0,0,3.006-2.93,2.9,2.9,0,0,0-3.006-2.93,2.905,2.905,0,0,0-3.006,2.93A2.9,2.9,0,0,0,85.64.117Zm-1.512-2.93A1.492,1.492,0,0,1,85.64-4.377a1.489,1.489,0,0,1,1.512,1.564,1.49,1.49,0,0,1-1.512,1.57A1.494,1.494,0,0,1,84.128-2.812ZM91.375-8.25h-1.5V0h1.5ZM95.61.117a2.9,2.9,0,0,0,3.006-2.93,2.9,2.9,0,0,0-3.006-2.93A2.905,2.905,0,0,0,92.6-2.812,2.9,2.9,0,0,0,95.61.117ZM94.1-2.812A1.492,1.492,0,0,1,95.61-4.377a1.489,1.489,0,0,1,1.512,1.564,1.49,1.49,0,0,1-1.512,1.57A1.494,1.494,0,0,1,94.1-2.812ZM99.845,0h1.506V-2.883c0-1.16.7-1.518,1.359-1.518a2.108,2.108,0,0,1,.7.129l.117-1.342a2.278,2.278,0,0,0-.732-.129,1.563,1.563,0,0,0-1.465.885l-.029-.768H99.845Zm9,.117a1.864,1.864,0,0,0,1.594-.744V0h1.43V-3.463c0-1.406-1.025-2.279-2.672-2.279a3.079,3.079,0,0,0-2.4,1.172l.861.861a1.992,1.992,0,0,1,1.488-.709,1.11,1.11,0,0,1,1.219,1.072v.129a3.684,3.684,0,0,0-1.184-.193c-1.494,0-2.467.738-2.467,1.8C106.715-.568,107.565.117,108.842.117Zm.445-2.525a2.62,2.62,0,0,1,1.078.217A1.2,1.2,0,0,1,109.076-1c-.574,0-.937-.27-.937-.691S108.6-2.408,109.287-2.408ZM114.94,0V-3.146a1.163,1.163,0,0,1,1.23-1.2,1.088,1.088,0,0,1,1.119,1.2V0H118.8V-3.182a1.153,1.153,0,0,1,1.236-1.166,1.086,1.086,0,0,1,1.125,1.2V0h1.506V-3.533a2.082,2.082,0,0,0-2.209-2.209,2.319,2.319,0,0,0-1.951,1,2.017,2.017,0,0,0-1.887-1,2.127,2.127,0,0,0-1.723.768l-.029-.65h-1.43V0Zm9.174-7.43a.821.821,0,0,0,.861.861.826.826,0,0,0,.867-.861.827.827,0,0,0-.867-.867A.826.826,0,0,0,124.114-7.43ZM125.738,0V-5.625h-1.506V0Zm1.932-4.377v2.531A1.836,1.836,0,0,0,129.738.117,3.429,3.429,0,0,0,131.1-.164l-.141-1.248a2.668,2.668,0,0,1-.955.193.752.752,0,0,1-.832-.844V-4.377h1.652V-5.625h-1.687v-1.8h-1.459v1.8h-.955v1.248Z" transform="translate(20.678 -59.596)" fill="#0d55a0"/><text transform="translate(153.381 -59.596)" fill="#0d55a0" font-size="12" font-family="Mundial-DemiBold, Mundial" font-weight="300" letter-spacing="-0.005em"><tspan x="0" y="0">.</tspan></text><path d="M.359-1.125a2.206,2.206,0,0,0,2.09,1.2c.91,0,1.9-.5,1.9-1.5,0-1.027-.824-1.3-1.812-1.637-.75-.254-1.184-.379-1.184-.848s.477-.727.98-.727A1.45,1.45,0,0,1,3.6-3.844l.637-.445a2.067,2.067,0,0,0-1.9-1.094,1.634,1.634,0,0,0-1.8,1.477c-.008.938.785,1.273,1.793,1.6.781.25,1.2.445,1.2.891,0,.465-.477.758-1.09.758A1.548,1.548,0,0,1,.973-1.551Zm4.656-.746A1.905,1.905,0,0,0,6.98.078a1.933,1.933,0,0,0,1.7-.953l-.57-.414A1.261,1.261,0,0,1,6.98-.648a1.106,1.106,0,0,1-1.164-1h2.91a1.889,1.889,0,0,0,.031-.359,1.751,1.751,0,0,0-1.8-1.816A1.885,1.885,0,0,0,5.016-1.871Zm.82-.359a1.09,1.09,0,0,1,1.109-.9,1,1,0,0,1,1.027.9Zm3.57.336A1.875,1.875,0,0,0,11.289.078a1.587,1.587,0,0,0,1.336-.59V0H13.4V-5.5h-.773v2.262a1.587,1.587,0,0,0-1.336-.59A1.842,1.842,0,0,0,9.406-1.895Zm1.977-1.238a1.212,1.212,0,0,1,1.238,1.238A1.242,1.242,0,0,1,11.383-.617a1.214,1.214,0,0,1-1.2-1.277A1.181,1.181,0,0,1,11.383-3.133Zm4.988-.617v2.277A1.44,1.44,0,0,0,17.938.078a1.353,1.353,0,0,0,1.172-.551V0h.777V-3.75h-.773v2.113a.968.968,0,0,1-1.055.98.868.868,0,0,1-.914-.98V-3.75Zm4.93.656v1.969a1.144,1.144,0,0,0,1.277,1.2,1.986,1.986,0,0,0,.82-.164L23.3-.75a1.723,1.723,0,0,1-.609.129.546.546,0,0,1-.613-.6V-3.094h1.184V-3.75H22.066v-1.2h-.754v1.2h-.68v.656Zm4.664,4.656h.773V-.512a1.587,1.587,0,0,0,1.336.59,1.842,1.842,0,0,0,1.883-1.934,1.875,1.875,0,0,0-1.883-1.973,1.587,1.587,0,0,0-1.336.59V-3.75h-.773Zm.777-3.418A1.242,1.242,0,0,1,27.98-3.133a1.214,1.214,0,0,1,1.2,1.277,1.181,1.181,0,0,1-1.2,1.238A1.212,1.212,0,0,1,26.742-1.855ZM30.6-1.871A1.905,1.905,0,0,0,32.566.078a1.933,1.933,0,0,0,1.7-.953l-.57-.414a1.261,1.261,0,0,1-1.125.641,1.106,1.106,0,0,1-1.164-1h2.91a1.889,1.889,0,0,0,.031-.359,1.751,1.751,0,0,0-1.8-1.816A1.885,1.885,0,0,0,30.6-1.871Zm.82-.359a1.09,1.09,0,0,1,1.109-.9,1,1,0,0,1,1.027.9ZM36.039,0V-2.043a.927.927,0,0,1,.953-1.066,1.238,1.238,0,0,1,.457.086l.082-.711a1.464,1.464,0,0,0-.516-.094,1.04,1.04,0,0,0-.977.59V-3.75h-.777V0Zm1.867-.789a1.787,1.787,0,0,0,1.621.867c.8,0,1.484-.441,1.484-1.125,0-.715-.531-.98-1.348-1.18-.551-.133-.828-.211-.828-.5,0-.242.25-.4.621-.4a1.15,1.15,0,0,1,.965.512l.52-.445a1.729,1.729,0,0,0-1.484-.773c-.766,0-1.387.438-1.387,1.117,0,.742.574,1,1.379,1.176.551.125.781.211.781.488,0,.254-.3.414-.7.414a1.178,1.178,0,0,1-1.047-.621Zm4.047,2.352h.773V-.512a1.587,1.587,0,0,0,1.336.59,1.842,1.842,0,0,0,1.883-1.934,1.875,1.875,0,0,0-1.883-1.973,1.587,1.587,0,0,0-1.336.59V-3.75h-.773Zm.777-3.418a1.242,1.242,0,0,1,1.238-1.277,1.214,1.214,0,0,1,1.2,1.277,1.181,1.181,0,0,1-1.2,1.238A1.212,1.212,0,0,1,42.73-1.855Zm4.043-3.152a.455.455,0,0,0,.477.477.458.458,0,0,0,.48-.477.458.458,0,0,0-.48-.477A.455.455,0,0,0,46.773-5.008ZM47.637,0V-3.75h-.773V0Zm2.9.078A1.957,1.957,0,0,0,52.27-.941l-.582-.41a1.308,1.308,0,0,1-1.152.7,1.194,1.194,0,0,1-1.207-1.23A1.186,1.186,0,0,1,50.551-3.1a1.288,1.288,0,0,1,1.125.707l.6-.406a1.908,1.908,0,0,0-1.707-1.027,1.961,1.961,0,0,0-2.02,1.949A1.941,1.941,0,0,0,50.535.078ZM53.02-5.008a.455.455,0,0,0,.477.477.458.458,0,0,0,.48-.477.458.458,0,0,0-.48-.477A.455.455,0,0,0,53.02-5.008ZM53.883,0V-3.75h-.773V0Zm.938-1.066c0,.734.637,1.145,1.449,1.145a1.365,1.365,0,0,0,1.168-.562V0H58.2V-2.348c0-.91-.668-1.48-1.723-1.48a2.111,2.111,0,0,0-1.574.762l.488.484a1.478,1.478,0,0,1,1.074-.52.859.859,0,0,1,.961.82v.2a2.278,2.278,0,0,0-.945-.176C55.492-2.254,54.82-1.77,54.82-1.066Zm.781-.027c0-.406.406-.57.895-.57a2.277,2.277,0,0,1,.926.18.968.968,0,0,1-1.039.93C55.941-.555,55.6-.754,55.6-1.094Zm3.91-2v1.969a1.144,1.144,0,0,0,1.277,1.2,1.986,1.986,0,0,0,.82-.164l-.1-.664a1.723,1.723,0,0,1-.609.129.546.546,0,0,1-.613-.6V-3.094h1.184V-3.75H60.277v-1.2h-.754v1.2h-.68v.656ZM62.25-5.008a.455.455,0,0,0,.477.477.458.458,0,0,0,.48-.477.458.458,0,0,0-.48-.477A.455.455,0,0,0,62.25-5.008ZM63.113,0V-3.75H62.34V0Zm.9-.789a1.787,1.787,0,0,0,1.621.867c.8,0,1.484-.441,1.484-1.125,0-.715-.531-.98-1.348-1.18-.551-.133-.828-.211-.828-.5,0-.242.25-.4.621-.4a1.15,1.15,0,0,1,.965.512l.52-.445a1.729,1.729,0,0,0-1.484-.773c-.766,0-1.387.438-1.387,1.117,0,.742.574,1,1.379,1.176.551.125.781.211.781.488,0,.254-.3.414-.7.414a1.178,1.178,0,0,1-1.047-.621ZM69.844-3.75v2.277A1.44,1.44,0,0,0,71.41.078a1.353,1.353,0,0,0,1.172-.551V0h.777V-3.75h-.773v2.113a.968.968,0,0,1-1.055.98.868.868,0,0,1-.914-.98V-3.75ZM75.32,0V-2.113a.962.962,0,0,1,1.035-.98.87.87,0,0,1,.922.98V0h.773V-2.277a1.443,1.443,0,0,0-1.574-1.551,1.339,1.339,0,0,0-1.152.551V-3.75h-.777V0Zm3.6-1.895A1.875,1.875,0,0,0,80.8.078a1.587,1.587,0,0,0,1.336-.59V0h.773V-5.5h-.773v2.262a1.587,1.587,0,0,0-1.336-.59A1.842,1.842,0,0,0,78.918-1.895Zm1.977-1.238a1.212,1.212,0,0,1,1.238,1.238A1.242,1.242,0,0,1,80.895-.617a1.214,1.214,0,0,1-1.2-1.277A1.181,1.181,0,0,1,80.895-3.133Zm2.93,1.262A1.905,1.905,0,0,0,85.789.078a1.933,1.933,0,0,0,1.7-.953l-.57-.414a1.261,1.261,0,0,1-1.125.641,1.106,1.106,0,0,1-1.164-1h2.91a1.889,1.889,0,0,0,.031-.359,1.751,1.751,0,0,0-1.8-1.816A1.885,1.885,0,0,0,83.824-1.871Zm.82-.359a1.09,1.09,0,0,1,1.109-.9,1,1,0,0,1,1.027.9ZM92.035.078a1.936,1.936,0,0,0,1.992-1.953,1.936,1.936,0,0,0-1.992-1.953,1.936,1.936,0,0,0-1.992,1.953A1.936,1.936,0,0,0,92.035.078ZM90.816-1.875A1.193,1.193,0,0,1,92.035-3.1a1.193,1.193,0,0,1,1.219,1.227A1.193,1.193,0,0,1,92.035-.648,1.193,1.193,0,0,1,90.816-1.875ZM94.938,0h.777V-2.113a.952.952,0,0,1,1.016-.98c.551,0,.883.359.883.98V0h.777V-2.16a.95.95,0,0,1,1.016-.934c.551,0,.883.359.883.98V0h.777V-2.277a1.431,1.431,0,0,0-1.539-1.551,1.552,1.552,0,0,0-1.34.7,1.424,1.424,0,0,0-1.336-.7,1.316,1.316,0,0,0-1.137.551V-3.75h-.777Zm8.039,0V-2.113a.962.962,0,0,1,1.035-.98.87.87,0,0,1,.922.98V0h.773V-2.277a1.443,1.443,0,0,0-1.574-1.551,1.339,1.339,0,0,0-1.152.551V-3.75H102.2V0Zm3.777-5.008a.455.455,0,0,0,.477.477.458.458,0,0,0,.48-.477.458.458,0,0,0-.48-.477A.455.455,0,0,0,106.754-5.008ZM107.617,0V-3.75h-.773V0Zm.9-.789a1.787,1.787,0,0,0,1.621.867c.8,0,1.484-.441,1.484-1.125,0-.715-.531-.98-1.348-1.18-.551-.133-.828-.211-.828-.5,0-.242.25-.4.621-.4a1.15,1.15,0,0,1,.965.512l.52-.445a1.729,1.729,0,0,0-1.484-.773c-.766,0-1.387.438-1.387,1.117,0,.742.574,1,1.379,1.176.551.125.781.211.781.488,0,.254-.3.414-.7.414a1.178,1.178,0,0,1-1.047-.621Z" transform="translate(20.678 -43.96)" fill="#42454a"/><path d="M.5-5.008a.455.455,0,0,0,.477.477.458.458,0,0,0,.48-.477.458.458,0,0,0-.48-.477A.455.455,0,0,0,.5-5.008ZM1.367,0V-3.75H.594V0Zm.9-.789A1.787,1.787,0,0,0,3.887.078c.8,0,1.484-.441,1.484-1.125,0-.715-.531-.98-1.348-1.18-.551-.133-.828-.211-.828-.5,0-.242.25-.4.621-.4a1.15,1.15,0,0,1,.965.512l.52-.445a1.729,1.729,0,0,0-1.484-.773c-.766,0-1.387.438-1.387,1.117,0,.742.574,1,1.379,1.176.551.125.781.211.781.488,0,.254-.3.414-.7.414A1.178,1.178,0,0,1,2.84-1.254ZM6.5-3.094v1.969A1.144,1.144,0,0,0,7.777.078,1.986,1.986,0,0,0,8.6-.086L8.5-.75a1.723,1.723,0,0,1-.609.129.546.546,0,0,1-.613-.6V-3.094H8.457V-3.75H7.266v-1.2H6.512v1.2h-.68v.656ZM8.965-1.871A1.905,1.905,0,0,0,10.93.078a1.933,1.933,0,0,0,1.7-.953l-.57-.414a1.261,1.261,0,0,1-1.125.641,1.106,1.106,0,0,1-1.164-1h2.91a1.889,1.889,0,0,0,.031-.359,1.751,1.751,0,0,0-1.8-1.816A1.885,1.885,0,0,0,8.965-1.871Zm.82-.359a1.09,1.09,0,0,1,1.109-.9,1,1,0,0,1,1.027.9ZM16.234,0V-2.113a.962.962,0,0,1,1.035-.98.87.87,0,0,1,.922.98V0h.773V-2.277a1.443,1.443,0,0,0-1.574-1.551,1.339,1.339,0,0,0-1.152.551V-3.75h-.777V0Zm3.617-1.066c0,.734.637,1.145,1.449,1.145a1.365,1.365,0,0,0,1.168-.562V0h.758V-2.348c0-.91-.668-1.48-1.723-1.48a2.111,2.111,0,0,0-1.574.762l.488.484a1.478,1.478,0,0,1,1.074-.52.859.859,0,0,1,.961.82v.2a2.278,2.278,0,0,0-.945-.176C20.523-2.254,19.852-1.77,19.852-1.066Zm.781-.027c0-.406.406-.57.895-.57a2.277,2.277,0,0,1,.926.18.968.968,0,0,1-1.039.93C20.973-.555,20.633-.754,20.633-1.094Zm3.91-2v1.969A1.144,1.144,0,0,0,25.82.078a1.986,1.986,0,0,0,.82-.164l-.1-.664a1.723,1.723,0,0,1-.609.129.546.546,0,0,1-.613-.6V-3.094H26.5V-3.75H25.309v-1.2h-.754v1.2h-.68v.656ZM27.32-3.75v2.277A1.44,1.44,0,0,0,28.887.078a1.353,1.353,0,0,0,1.172-.551V0h.777V-3.75h-.773v2.113a.968.968,0,0,1-1.055.98.868.868,0,0,1-.914-.98V-3.75ZM31.734-.789a1.787,1.787,0,0,0,1.621.867c.8,0,1.484-.441,1.484-1.125,0-.715-.531-.98-1.348-1.18-.551-.133-.828-.211-.828-.5,0-.242.25-.4.621-.4a1.15,1.15,0,0,1,.965.512l.52-.445a1.729,1.729,0,0,0-1.484-.773c-.766,0-1.387.438-1.387,1.117,0,.742.574,1,1.379,1.176.551.125.781.211.781.488,0,.254-.3.414-.7.414a1.178,1.178,0,0,1-1.047-.621Zm5.609-1.082A1.905,1.905,0,0,0,39.309.078,1.933,1.933,0,0,0,41-.875l-.57-.414a1.261,1.261,0,0,1-1.125.641,1.106,1.106,0,0,1-1.164-1h2.91a1.889,1.889,0,0,0,.031-.359,1.751,1.751,0,0,0-1.8-1.816A1.885,1.885,0,0,0,37.344-1.871Zm.82-.359a1.09,1.09,0,0,1,1.109-.9,1,1,0,0,1,1.027.9ZM42.781,0V-2.043a.927.927,0,0,1,.953-1.066,1.238,1.238,0,0,1,.457.086l.082-.711a1.464,1.464,0,0,0-.516-.094,1.04,1.04,0,0,0-.977.59V-3.75H42V0Zm3,0V-2.043a.927.927,0,0,1,.953-1.066,1.238,1.238,0,0,1,.457.086l.082-.711a1.464,1.464,0,0,0-.516-.094,1.04,1.04,0,0,0-.977.59V-3.75h-.777V0Zm3.793.078A1.936,1.936,0,0,0,51.57-1.875a1.936,1.936,0,0,0-1.992-1.953,1.936,1.936,0,0,0-1.992,1.953A1.936,1.936,0,0,0,49.578.078ZM48.359-1.875A1.193,1.193,0,0,1,49.578-3.1,1.193,1.193,0,0,1,50.8-1.875,1.193,1.193,0,0,1,49.578-.648,1.193,1.193,0,0,1,48.359-1.875ZM53.258,0V-2.043a.927.927,0,0,1,.953-1.066,1.238,1.238,0,0,1,.457.086l.082-.711a1.464,1.464,0,0,0-.516-.094,1.04,1.04,0,0,0-.977.59V-3.75H52.48V0Zm3.6-.789a1.787,1.787,0,0,0,1.621.867c.8,0,1.484-.441,1.484-1.125,0-.715-.531-.98-1.348-1.18-.551-.133-.828-.211-.828-.5,0-.242.25-.4.621-.4a1.15,1.15,0,0,1,.965.512l.52-.445a1.729,1.729,0,0,0-1.484-.773c-.766,0-1.387.438-1.387,1.117,0,.742.574,1,1.379,1.176.551.125.781.211.781.488,0,.254-.3.414-.7.414a1.178,1.178,0,0,1-1.047-.621Zm3.957-4.219a.455.455,0,0,0,.477.477.458.458,0,0,0,.48-.477.458.458,0,0,0-.48-.477A.455.455,0,0,0,60.813-5.008ZM61.676,0V-3.75H60.9V0ZM63.09-3.094v1.969a1.144,1.144,0,0,0,1.277,1.2,1.986,1.986,0,0,0,.82-.164l-.1-.664a1.723,1.723,0,0,1-.609.129.546.546,0,0,1-.613-.6V-3.094h1.184V-3.75H63.855v-1.2H63.1v1.2h-.68v.656ZM68.625,0h.922l1.477-3.75h-.832L69.086-.758,67.98-3.75h-.832Zm4.738.078a1.936,1.936,0,0,0,1.992-1.953,1.936,1.936,0,0,0-1.992-1.953,1.936,1.936,0,0,0-1.992,1.953A1.936,1.936,0,0,0,73.363.078ZM72.145-1.875A1.193,1.193,0,0,1,73.363-3.1a1.193,1.193,0,0,1,1.219,1.227A1.193,1.193,0,0,1,73.363-.648,1.193,1.193,0,0,1,72.145-1.875ZM77.039-5.5h-.773V0h.773Zm1.137,1.75v2.277A1.44,1.44,0,0,0,79.742.078a1.353,1.353,0,0,0,1.172-.551V0h.777V-3.75h-.773v2.113a.968.968,0,0,1-1.055.98.868.868,0,0,1-.914-.98V-3.75Zm4.7,5.313h.773V-.512a1.587,1.587,0,0,0,1.336.59,1.842,1.842,0,0,0,1.883-1.934,1.875,1.875,0,0,0-1.883-1.973,1.587,1.587,0,0,0-1.336.59V-3.75h-.773Zm.777-3.418a1.242,1.242,0,0,1,1.238-1.277,1.214,1.214,0,0,1,1.2,1.277,1.181,1.181,0,0,1-1.2,1.238A1.212,1.212,0,0,1,83.656-1.855Zm4.3-1.238v1.969a1.144,1.144,0,0,0,1.277,1.2,1.986,1.986,0,0,0,.82-.164l-.1-.664a1.723,1.723,0,0,1-.609.129.546.546,0,0,1-.613-.6V-3.094h1.184V-3.75H88.723v-1.2h-.754v1.2h-.68v.656Zm2.578,2.027c0,.734.637,1.145,1.449,1.145a1.365,1.365,0,0,0,1.168-.562V0h.758V-2.348c0-.91-.668-1.48-1.723-1.48a2.111,2.111,0,0,0-1.574.762l.488.484a1.478,1.478,0,0,1,1.074-.52.859.859,0,0,1,.961.82v.2a2.278,2.278,0,0,0-.945-.176C91.207-2.254,90.535-1.77,90.535-1.066Zm.781-.027c0-.406.406-.57.895-.57a2.277,2.277,0,0,1,.926.18.968.968,0,0,1-1.039.93C91.656-.555,91.316-.754,91.316-1.094Zm3.91-2v1.969A1.144,1.144,0,0,0,96.5.078a1.986,1.986,0,0,0,.82-.164l-.1-.664a1.723,1.723,0,0,1-.609.129.546.546,0,0,1-.613-.6V-3.094h1.184V-3.75H95.992v-1.2h-.754v1.2h-.68v.656Zm2.465,1.223A1.905,1.905,0,0,0,99.656.078a1.933,1.933,0,0,0,1.7-.953l-.57-.414a1.261,1.261,0,0,1-1.125.641,1.106,1.106,0,0,1-1.164-1h2.91a1.889,1.889,0,0,0,.031-.359,1.751,1.751,0,0,0-1.8-1.816A1.885,1.885,0,0,0,97.691-1.871Zm.82-.359a1.09,1.09,0,0,1,1.109-.9,1,1,0,0,1,1.027.9ZM102.352,0h.777V-2.113a.952.952,0,0,1,1.016-.98c.551,0,.883.359.883.98V0h.777V-2.16a.95.95,0,0,1,1.016-.934c.551,0,.883.359.883.98V0h.777V-2.277a1.431,1.431,0,0,0-1.539-1.551,1.552,1.552,0,0,0-1.34.7,1.424,1.424,0,0,0-1.336-.7,1.316,1.316,0,0,0-1.137.551V-3.75h-.777Z" transform="translate(20.678 -33.96)" fill="#42454a"/><path d="M.344-1.066C.344-.332.98.078,1.793.078A1.365,1.365,0,0,0,2.961-.484V0h.758V-2.348c0-.91-.668-1.48-1.723-1.48a2.111,2.111,0,0,0-1.574.762l.488.484A1.478,1.478,0,0,1,1.984-3.1a.859.859,0,0,1,.961.82v.2A2.278,2.278,0,0,0,2-2.254C1.016-2.254.344-1.77.344-1.066Zm.781-.027c0-.406.406-.57.895-.57a2.277,2.277,0,0,1,.926.18.968.968,0,0,1-1.039.93C1.465-.555,1.125-.754,1.125-1.094ZM6.566.078A1.957,1.957,0,0,0,8.3-.941l-.582-.41a1.308,1.308,0,0,1-1.152.7,1.194,1.194,0,0,1-1.207-1.23A1.186,1.186,0,0,1,6.582-3.1a1.288,1.288,0,0,1,1.125.707L8.3-2.8A1.908,1.908,0,0,0,6.6-3.828a1.961,1.961,0,0,0-2.02,1.949A1.941,1.941,0,0,0,6.566.078Zm4.254,0a1.957,1.957,0,0,0,1.734-1.02l-.582-.41a1.308,1.308,0,0,1-1.152.7,1.194,1.194,0,0,1-1.207-1.23A1.186,1.186,0,0,1,10.836-3.1a1.288,1.288,0,0,1,1.125.707l.6-.406a1.908,1.908,0,0,0-1.707-1.027,1.961,1.961,0,0,0-2.02,1.949A1.941,1.941,0,0,0,10.82.078ZM13.344-3.75v2.277A1.44,1.44,0,0,0,14.91.078a1.353,1.353,0,0,0,1.172-.551V0h.777V-3.75h-.773v2.113a.968.968,0,0,1-1.055.98.868.868,0,0,1-.914-.98V-3.75ZM17.758-.789a1.787,1.787,0,0,0,1.621.867c.8,0,1.484-.441,1.484-1.125,0-.715-.531-.98-1.348-1.18-.551-.133-.828-.211-.828-.5,0-.242.25-.4.621-.4a1.15,1.15,0,0,1,.965.512l.52-.445a1.729,1.729,0,0,0-1.484-.773c-.766,0-1.387.438-1.387,1.117,0,.742.574,1,1.379,1.176.551.125.781.211.781.488,0,.254-.3.414-.7.414a1.178,1.178,0,0,1-1.047-.621Zm3.8-.277c0,.734.637,1.145,1.449,1.145a1.365,1.365,0,0,0,1.168-.562V0h.758V-2.348c0-.91-.668-1.48-1.723-1.48a2.111,2.111,0,0,0-1.574.762l.488.484A1.478,1.478,0,0,1,23.2-3.1a.859.859,0,0,1,.961.82v.2a2.278,2.278,0,0,0-.945-.176C22.227-2.254,21.555-1.77,21.555-1.066Zm.781-.027c0-.406.406-.57.895-.57a2.277,2.277,0,0,1,.926.18.968.968,0,0,1-1.039.93C22.676-.555,22.336-.754,22.336-1.094ZM26.84,0V-2.113a.962.962,0,0,1,1.035-.98.87.87,0,0,1,.922.98V0h.773V-2.277A1.443,1.443,0,0,0,28-3.828a1.339,1.339,0,0,0-1.152.551V-3.75h-.777V0Zm4.047-3.094v1.969a1.144,1.144,0,0,0,1.277,1.2,1.986,1.986,0,0,0,.82-.164l-.1-.664a1.723,1.723,0,0,1-.609.129.546.546,0,0,1-.613-.6V-3.094h1.184V-3.75H31.652v-1.2H30.9v1.2h-.68v.656Zm2.738-1.914a.455.455,0,0,0,.477.477.458.458,0,0,0,.48-.477.458.458,0,0,0-.48-.477A.455.455,0,0,0,33.625-5.008ZM34.488,0V-3.75h-.773V0Zm1.137-3.75v2.277A1.44,1.44,0,0,0,37.191.078a1.353,1.353,0,0,0,1.172-.551V0h.777V-3.75h-.773v2.113a.968.968,0,0,1-1.055.98.868.868,0,0,1-.914-.98V-3.75ZM40.328,0h.777V-2.113a.952.952,0,0,1,1.016-.98c.551,0,.883.359.883.98V0h.777V-2.16A.95.95,0,0,1,44.8-3.094c.551,0,.883.359.883.98V0h.777V-2.277a1.431,1.431,0,0,0-1.539-1.551,1.552,1.552,0,0,0-1.34.7,1.424,1.424,0,0,0-1.336-.7,1.316,1.316,0,0,0-1.137.551V-3.75h-.777ZM49.16-1.895A1.875,1.875,0,0,0,51.043.078a1.587,1.587,0,0,0,1.336-.59V0h.773V-5.5h-.773v2.262a1.587,1.587,0,0,0-1.336-.59A1.842,1.842,0,0,0,49.16-1.895Zm1.977-1.238a1.212,1.212,0,0,1,1.238,1.238A1.242,1.242,0,0,1,51.137-.617a1.214,1.214,0,0,1-1.2-1.277A1.181,1.181,0,0,1,51.137-3.133ZM56.055.078a1.936,1.936,0,0,0,1.992-1.953,1.936,1.936,0,0,0-1.992-1.953,1.936,1.936,0,0,0-1.992,1.953A1.936,1.936,0,0,0,56.055.078ZM54.836-1.875A1.193,1.193,0,0,1,56.055-3.1a1.193,1.193,0,0,1,1.219,1.227A1.193,1.193,0,0,1,56.055-.648,1.193,1.193,0,0,1,54.836-1.875ZM59.73-5.5h-.773V0h.773Zm2.9,5.578a1.936,1.936,0,0,0,1.992-1.953,1.936,1.936,0,0,0-1.992-1.953,1.936,1.936,0,0,0-1.992,1.953A1.936,1.936,0,0,0,62.633.078ZM61.414-1.875A1.193,1.193,0,0,1,62.633-3.1a1.193,1.193,0,0,1,1.219,1.227A1.193,1.193,0,0,1,62.633-.648,1.193,1.193,0,0,1,61.414-1.875ZM66.313,0V-2.043a.927.927,0,0,1,.953-1.066,1.238,1.238,0,0,1,.457.086l.082-.711a1.464,1.464,0,0,0-.516-.094,1.04,1.04,0,0,0-.977.59V-3.75h-.777V0Zm1.8-1.871A1.905,1.905,0,0,0,70.082.078a1.933,1.933,0,0,0,1.7-.953l-.57-.414a1.261,1.261,0,0,1-1.125.641,1.106,1.106,0,0,1-1.164-1h2.91a1.889,1.889,0,0,0,.031-.359,1.751,1.751,0,0,0-1.8-1.816A1.885,1.885,0,0,0,68.117-1.871Zm.82-.359a1.09,1.09,0,0,1,1.109-.9,1,1,0,0,1,1.027.9ZM72.777,0h.777V-2.113a.952.952,0,0,1,1.016-.98c.551,0,.883.359.883.98V0h.777V-2.16a.95.95,0,0,1,1.016-.934c.551,0,.883.359.883.98V0h.777V-2.277a1.431,1.431,0,0,0-1.539-1.551,1.552,1.552,0,0,0-1.34.7,1.424,1.424,0,0,0-1.336-.7,1.316,1.316,0,0,0-1.137.551V-3.75h-.777Zm7-1.855A1.842,1.842,0,0,0,81.656.078a1.587,1.587,0,0,0,1.336-.59V1.563h.773V-3.75h-.773v.512a1.587,1.587,0,0,0-1.336-.59A1.875,1.875,0,0,0,79.773-1.855Zm.773,0a1.214,1.214,0,0,1,1.2-1.277,1.242,1.242,0,0,1,1.238,1.277A1.212,1.212,0,0,1,81.75-.617,1.181,1.181,0,0,1,80.547-1.855Zm4.34-1.895v2.277A1.44,1.44,0,0,0,86.453.078a1.353,1.353,0,0,0,1.172-.551V0H88.4V-3.75h-.773v2.113a.968.968,0,0,1-1.055.98.868.868,0,0,1-.914-.98V-3.75Zm4.43,1.879A1.905,1.905,0,0,0,91.281.078a1.933,1.933,0,0,0,1.7-.953l-.57-.414a1.261,1.261,0,0,1-1.125.641,1.106,1.106,0,0,1-1.164-1h2.91a1.889,1.889,0,0,0,.031-.359,1.751,1.751,0,0,0-1.8-1.816A1.885,1.885,0,0,0,89.316-1.871Zm.82-.359a1.09,1.09,0,0,1,1.109-.9,1,1,0,0,1,1.027.9Z" transform="translate(20.678 -23.96)" fill="#42454a"/><path d="M1.367-5.5H.594V0h.773ZM2.3-1.066C2.3-.332,2.941.078,3.754.078A1.365,1.365,0,0,0,4.922-.484V0H5.68V-2.348c0-.91-.668-1.48-1.723-1.48a2.111,2.111,0,0,0-1.574.762l.488.484A1.478,1.478,0,0,1,3.945-3.1a.859.859,0,0,1,.961.82v.2a2.278,2.278,0,0,0-.945-.176C2.977-2.254,2.3-1.77,2.3-1.066Zm.781-.027c0-.406.406-.57.895-.57a2.277,2.277,0,0,1,.926.18.968.968,0,0,1-1.039.93C3.426-.555,3.086-.754,3.086-1.094ZM6.766-3.75v2.277A1.44,1.44,0,0,0,8.332.078,1.353,1.353,0,0,0,9.5-.473V0h.777V-3.75H9.508v2.113a.968.968,0,0,1-1.055.98.868.868,0,0,1-.914-.98V-3.75ZM11.2-1.895A1.875,1.875,0,0,0,13.082.078a1.587,1.587,0,0,0,1.336-.59V0h.773V-5.5h-.773v2.262a1.587,1.587,0,0,0-1.336-.59A1.842,1.842,0,0,0,11.2-1.895Zm1.977-1.238a1.212,1.212,0,0,1,1.238,1.238A1.242,1.242,0,0,1,13.176-.617a1.214,1.214,0,0,1-1.2-1.277A1.181,1.181,0,0,1,13.176-3.133Zm2.953,2.066c0,.734.637,1.145,1.449,1.145a1.365,1.365,0,0,0,1.168-.562V0H19.5V-2.348c0-.91-.668-1.48-1.723-1.48a2.111,2.111,0,0,0-1.574.762l.488.484A1.478,1.478,0,0,1,17.77-3.1a.859.859,0,0,1,.961.82v.2a2.278,2.278,0,0,0-.945-.176C16.8-2.254,16.129-1.77,16.129-1.066Zm.781-.027c0-.406.406-.57.895-.57a2.277,2.277,0,0,1,.926.18.968.968,0,0,1-1.039.93C17.25-.555,16.91-.754,16.91-1.094ZM21.414,0V-2.113a.962.962,0,0,1,1.035-.98.87.87,0,0,1,.922.98V0h.773V-2.277A1.443,1.443,0,0,0,22.57-3.828a1.339,1.339,0,0,0-1.152.551V-3.75h-.777V0Zm4.047-3.094v1.969a1.144,1.144,0,0,0,1.277,1.2,1.986,1.986,0,0,0,.82-.164l-.1-.664a1.723,1.723,0,0,1-.609.129.546.546,0,0,1-.613-.6V-3.094h1.184V-3.75H26.227v-1.2h-.754v1.2h-.68v.656ZM28.2-5.008a.455.455,0,0,0,.477.477.458.458,0,0,0,.48-.477.458.458,0,0,0-.48-.477A.455.455,0,0,0,28.2-5.008ZM29.063,0V-3.75h-.773V0ZM30.2-3.75v2.277A1.44,1.44,0,0,0,31.766.078a1.353,1.353,0,0,0,1.172-.551V0h.777V-3.75h-.773v2.113a.968.968,0,0,1-1.055.98.868.868,0,0,1-.914-.98V-3.75ZM34.9,0h.777V-2.113a.952.952,0,0,1,1.016-.98c.551,0,.883.359.883.98V0h.777V-2.16a.95.95,0,0,1,1.016-.934c.551,0,.883.359.883.98V0h.777V-2.277a1.431,1.431,0,0,0-1.539-1.551,1.552,1.552,0,0,0-1.34.7,1.424,1.424,0,0,0-1.336-.7,1.316,1.316,0,0,0-1.137.551V-3.75H34.9Zm7.285-.988-.5,2.016h.684L43-.988Z" transform="translate(20.678 -13.96)" fill="#42454a"/><path d="M2.656-3.094v1.969A1.144,1.144,0,0,0,3.934.078a1.986,1.986,0,0,0,.82-.164l-.1-.664a1.723,1.723,0,0,1-.609.129.546.546,0,0,1-.613-.6V-3.094H4.613V-3.75H3.422v-1.2H2.668v1.2h-.68v.656ZM7.109.078A1.936,1.936,0,0,0,9.1-1.875,1.936,1.936,0,0,0,7.109-3.828,1.936,1.936,0,0,0,5.117-1.875,1.936,1.936,0,0,0,7.109.078ZM5.891-1.875A1.193,1.193,0,0,1,7.109-3.1,1.193,1.193,0,0,1,8.328-1.875,1.193,1.193,0,0,1,7.109-.648,1.193,1.193,0,0,1,5.891-1.875Zm4.285-1.219v1.969a1.144,1.144,0,0,0,1.277,1.2,1.986,1.986,0,0,0,.82-.164l-.1-.664a1.723,1.723,0,0,1-.609.129.546.546,0,0,1-.613-.6V-3.094h1.184V-3.75H10.941v-1.2h-.754v1.2h-.68v.656Zm2.578,2.027c0,.734.637,1.145,1.449,1.145a1.365,1.365,0,0,0,1.168-.562V0h.758V-2.348c0-.91-.668-1.48-1.723-1.48a2.111,2.111,0,0,0-1.574.762l.488.484a1.478,1.478,0,0,1,1.074-.52.859.859,0,0,1,.961.82v.2a2.278,2.278,0,0,0-.945-.176C13.426-2.254,12.754-1.77,12.754-1.066Zm.781-.027c0-.406.406-.57.895-.57a2.277,2.277,0,0,1,.926.18.968.968,0,0,1-1.039.93C13.875-.555,13.535-.754,13.535-1.094ZM17.266,0h.777V-2.113a.952.952,0,0,1,1.016-.98c.551,0,.883.359.883.98V0h.777V-2.16a.95.95,0,0,1,1.016-.934c.551,0,.883.359.883.98V0h.777V-2.277a1.431,1.431,0,0,0-1.539-1.551,1.552,1.552,0,0,0-1.34.7,1.424,1.424,0,0,0-1.336-.7,1.316,1.316,0,0,0-1.137.551V-3.75h-.777Zm9.879,0V-2.043A.927.927,0,0,1,28.1-3.109a1.238,1.238,0,0,1,.457.086l.082-.711a1.464,1.464,0,0,0-.516-.094,1.04,1.04,0,0,0-.977.59V-3.75h-.777V0Zm1.8-1.871A1.905,1.905,0,0,0,30.914.078a1.933,1.933,0,0,0,1.7-.953l-.57-.414a1.261,1.261,0,0,1-1.125.641,1.106,1.106,0,0,1-1.164-1h2.91a1.889,1.889,0,0,0,.031-.359,1.751,1.751,0,0,0-1.8-1.816A1.885,1.885,0,0,0,28.949-1.871Zm.82-.359a1.09,1.09,0,0,1,1.109-.9,1,1,0,0,1,1.027.9ZM33.609,0h.777V-2.113a.952.952,0,0,1,1.016-.98c.551,0,.883.359.883.98V0h.777V-2.16a.95.95,0,0,1,1.016-.934c.551,0,.883.359.883.98V0h.777V-2.277A1.431,1.431,0,0,0,38.2-3.828a1.552,1.552,0,0,0-1.34.7,1.424,1.424,0,0,0-1.336-.7,1.316,1.316,0,0,0-1.137.551V-3.75h-.777Zm8.852-1.066c0,.734.637,1.145,1.449,1.145a1.365,1.365,0,0,0,1.168-.562V0h.758V-2.348c0-.91-.668-1.48-1.723-1.48a2.111,2.111,0,0,0-1.574.762l.488.484A1.478,1.478,0,0,1,44.1-3.1a.859.859,0,0,1,.961.82v.2a2.278,2.278,0,0,0-.945-.176C43.133-2.254,42.461-1.77,42.461-1.066Zm.781-.027c0-.406.406-.57.895-.57a2.277,2.277,0,0,1,.926.18.968.968,0,0,1-1.039.93C43.582-.555,43.242-.754,43.242-1.094Zm3.73,2.656h.773V-.512a1.587,1.587,0,0,0,1.336.59,1.842,1.842,0,0,0,1.883-1.934,1.875,1.875,0,0,0-1.883-1.973,1.587,1.587,0,0,0-1.336.59V-3.75h-.773Zm.777-3.418a1.242,1.242,0,0,1,1.238-1.277,1.214,1.214,0,0,1,1.2,1.277,1.181,1.181,0,0,1-1.2,1.238A1.212,1.212,0,0,1,47.75-1.855Zm3.859-.016A1.905,1.905,0,0,0,53.574.078a1.933,1.933,0,0,0,1.7-.953l-.57-.414a1.261,1.261,0,0,1-1.125.641,1.106,1.106,0,0,1-1.164-1h2.91a1.889,1.889,0,0,0,.031-.359,1.751,1.751,0,0,0-1.8-1.816A1.885,1.885,0,0,0,51.609-1.871Zm.82-.359a1.09,1.09,0,0,1,1.109-.9,1,1,0,0,1,1.027.9ZM57.047,0V-2.043A.927.927,0,0,1,58-3.109a1.238,1.238,0,0,1,.457.086l.082-.711a1.464,1.464,0,0,0-.516-.094,1.04,1.04,0,0,0-.977.59V-3.75H56.27V0Zm2.137-5.008a.455.455,0,0,0,.477.477.458.458,0,0,0,.48-.477.458.458,0,0,0-.48-.477A.455.455,0,0,0,59.184-5.008ZM60.047,0V-3.75h-.773V0Zm.938-1.066c0,.734.637,1.145,1.449,1.145A1.365,1.365,0,0,0,63.6-.484V0h.758V-2.348c0-.91-.668-1.48-1.723-1.48a2.111,2.111,0,0,0-1.574.762l.488.484a1.478,1.478,0,0,1,1.074-.52.859.859,0,0,1,.961.82v.2a2.278,2.278,0,0,0-.945-.176C61.656-2.254,60.984-1.77,60.984-1.066Zm.781-.027c0-.406.406-.57.895-.57a2.277,2.277,0,0,1,.926.18.968.968,0,0,1-1.039.93C62.105-.555,61.766-.754,61.766-1.094ZM65.5,0h.777V-2.113a.952.952,0,0,1,1.016-.98c.551,0,.883.359.883.98V0h.777V-2.16a.95.95,0,0,1,1.016-.934c.551,0,.883.359.883.98V0h.777V-2.277a1.431,1.431,0,0,0-1.539-1.551,1.552,1.552,0,0,0-1.34.7,1.424,1.424,0,0,0-1.336-.7,1.316,1.316,0,0,0-1.137.551V-3.75H65.5Zm7.285-.988-.5,2.016h.684l.625-2.016Z" transform="translate(63.893 -13.96)" fill="#42454a"/></g></g></svg>