<svg xmlns="http://www.w3.org/2000/svg" width="335.37" height="109.879" viewBox="0 0 335.37 109.879"><g transform="translate(-680.333 -2137.135)"><path d="M5.3,0H32.813V-4.292H10.054V-17.948H29.183v-4.321H10.054V-34.8H32.208v-4.321H5.3ZM38.979,0H43.56V-15.7a7.956,7.956,0,0,1,8.326-8.21c4.638,0,7.461,3.025,7.461,8.124V0h4.581V-15.874a7.868,7.868,0,0,1,8.21-8.038c4.811,0,7.634,3.025,7.634,8.124V0h4.581V-16.911c0-6.77-4.292-11.322-11.495-11.322a11.067,11.067,0,0,0-10.112,5.819c-1.671-3.63-5.214-5.819-10.112-5.819a10.361,10.361,0,0,0-9.075,4.7v-4.12H38.979ZM96.6,11.523V-4.552A12.552,12.552,0,0,0,107.257.576c7.922,0,13.943-6.021,13.943-14.347,0-8.3-6.021-14.462-13.943-14.462-4.955,0-8.585,2.132-10.659,5.1v-4.523H92.017v39.18Zm10.2-35.607c5.762,0,9.853,4.609,9.853,10.313,0,5.733-4.091,10.2-9.853,10.2a10.016,10.016,0,0,1-10.256-10.2A10.128,10.128,0,0,1,106.8-24.084ZM139.9.576a14.279,14.279,0,0,0,14.692-14.4,14.279,14.279,0,0,0-14.692-14.4,14.279,14.279,0,0,0-14.692,14.4A14.279,14.279,0,0,0,139.9.576Zm-10.112-14.4A9.917,9.917,0,0,1,139.9-23.969,9.917,9.917,0,0,1,150.01-13.828,9.917,9.917,0,0,1,139.9-3.687,9.917,9.917,0,0,1,129.786-13.828ZM157.1-27.656,165.74,0h6.136l6.885-20.973L185.647,0h6.136L200.4-27.656h-4.84L188.672-4.35l-7.49-23.018h-4.869l-7.49,22.989-6.856-23.277Zm45.836,13.828A14.12,14.12,0,0,0,217.4.576,14.259,14.259,0,0,0,229.61-5.7l-3.486-2.535A10.249,10.249,0,0,1,217.4-3.6a9.445,9.445,0,0,1-9.824-9.1h22.788a18.183,18.183,0,0,0,.144-2.535c0-8.124-6.424-12.993-13.338-12.993A14.209,14.209,0,0,0,202.934-13.828Zm14.26-10.227c4.7,0,8.412,3.025,8.729,7.577H207.745C208.436-21.03,212.412-24.055,217.194-24.055ZM241.164,0V-15.355c0-6.194,3.6-8.614,7.289-8.614a9.4,9.4,0,0,1,3.63.691l.461-4.235a10.236,10.236,0,0,0-3.918-.72,7.9,7.9,0,0,0-7.461,4.667v-4.091h-4.609V0Zm15.529-36.933a2.715,2.715,0,0,0,2.823,2.852,2.761,2.761,0,0,0,2.881-2.852,2.738,2.738,0,0,0-2.881-2.823A2.692,2.692,0,0,0,256.693-36.933Zm.547,9.276V0h4.581V-27.656ZM274.44,0V-15.614c0-5.042,3.832-8.3,8.556-8.3,5.013,0,7.807,2.823,7.807,8.21V0h4.581V-16.824c0-7.116-4.379-11.408-11.667-11.408a10.624,10.624,0,0,0-9.248,4.725v-4.148h-4.609V0Zm40.679.576a12.62,12.62,0,0,0,10.659-5.128v3.227c0,5.646-4.091,9.248-10.515,9.248A13.027,13.027,0,0,1,305.5,3.659l-3.025,3A16.635,16.635,0,0,0,315.263,12.1c9.219,0,15.1-5.5,15.1-14.087V-27.656h-4.581v4.523c-2.074-2.967-5.7-5.1-10.659-5.1-7.922,0-13.943,6.021-13.943,14.318C301.175-5.589,307.2.576,315.119.576Zm.461-24.66a10.009,10.009,0,0,1,10.256,10.169A10.135,10.135,0,0,1,315.58-3.572c-5.762,0-9.853-4.609-9.853-10.342C305.727-19.619,309.818-24.084,315.58-24.084Z" transform="translate(678 2176.891)" fill="#0d55a0"/><path d="M22.615.576A20.212,20.212,0,0,0,40.188-9.219l-5.733-4.148C31.2-8.815,27.426-6.626,22.615-6.626c-7.116,0-12.3-5.33-12.3-12.935,0-7.577,4.984-12.935,12.1-12.935,4.984,0,8.758,2.622,11.379,6.943l6.136-4.379A20.526,20.526,0,0,0,22.413-39.7,19.7,19.7,0,0,0,2.333-19.561,19.9,19.9,0,0,0,22.615.576Zm34.865,0c8.5,0,14.779-6.223,14.779-14.4,0-8.153-6.28-14.4-14.779-14.4-8.47,0-14.779,6.251-14.779,14.4C42.7-5.646,49.01.576,57.48.576Zm-7.433-14.4A7.337,7.337,0,0,1,57.48-21.52a7.32,7.32,0,0,1,7.433,7.692c0,4.437-3.083,7.721-7.433,7.721A7.345,7.345,0,0,1,50.047-13.828ZM85.056,0V-15.47a5.718,5.718,0,0,1,6.05-5.906c3.111,0,5.5,2.074,5.5,5.906V0h7.4V-15.643c0-3.745,2.91-5.733,6.079-5.733s5.531,2.074,5.531,5.906V0h7.4V-17.372c0-6.741-4.523-10.861-10.861-10.861a11.4,11.4,0,0,0-9.593,4.9c-1.613-3.14-5.07-4.9-9.276-4.9a10.459,10.459,0,0,0-8.47,3.774l-.144-3.2H77.653V0Zm52.41,11.523V-2.91c1.844,2.1,4.926,3.486,8.988,3.486,7.836,0,13.4-5.935,13.4-14.289,0-8.412-5.56-14.52-13.4-14.52-4.437,0-7.289,1.613-9.1,3.918l-.144-3.342h-7.116v39.18Zm-.029-25.265a7.518,7.518,0,0,1,7.519-7.865c4.408,0,7.49,3.4,7.49,7.865a7.366,7.366,0,0,1-7.49,7.692A7.406,7.406,0,0,1,137.437-13.742ZM173.915.576c3.486,0,6.338-1.412,7.836-3.659V0h7.029V-17.026c0-6.914-5.042-11.207-13.137-11.207a15.14,15.14,0,0,0-11.783,5.762l4.235,4.235a9.8,9.8,0,0,1,7.317-3.486c3.515,0,5.992,2.218,5.992,5.272v.634a18.115,18.115,0,0,0-5.819-.951c-7.346,0-12.128,3.63-12.128,8.844C163.458-2.794,167.635.576,173.915.576ZM176.1-11.84a12.883,12.883,0,0,1,5.3,1.066c0,3.486-2.794,5.848-6.338,5.848-2.823,0-4.609-1.325-4.609-3.4C170.458-10.429,172.734-11.84,176.1-11.84Zm17.609,5.992A14.218,14.218,0,0,0,206.044.576c5.906,0,10.918-3.371,10.918-8.585,0-5.474-3.918-7.461-10.083-8.959-3.428-.835-5.186-1.325-5.186-2.823,0-1.383,1.642-2.218,4.033-2.218a7.066,7.066,0,0,1,6.194,3.428l4.725-3.889a12.7,12.7,0,0,0-11.091-5.762c-6.021,0-10.8,3.342-10.8,8.527,0,5.675,4.264,7.605,10.313,8.959,3.371.749,4.84,1.268,4.84,2.737,0,1.556-1.729,2.42-3.947,2.42a8.992,8.992,0,0,1-7.289-4.264Zm26.741,0A14.218,14.218,0,0,0,232.785.576c5.906,0,10.918-3.371,10.918-8.585,0-5.474-3.918-7.461-10.083-8.959-3.428-.835-5.186-1.325-5.186-2.823,0-1.383,1.642-2.218,4.033-2.218a7.066,7.066,0,0,1,6.194,3.428l4.725-3.889a12.7,12.7,0,0,0-11.091-5.762c-6.021,0-10.8,3.342-10.8,8.527,0,5.675,4.264,7.605,10.313,8.959,3.371.749,4.84,1.268,4.84,2.737,0,1.556-1.729,2.42-3.947,2.42a8.992,8.992,0,0,1-7.289-4.264Zm28.3-30.681a4.038,4.038,0,0,0,4.235,4.235,4.061,4.061,0,0,0,4.264-4.235,4.068,4.068,0,0,0-4.264-4.264A4.061,4.061,0,0,0,248.751-36.529ZM256.731,0V-27.656h-7.4V0ZM276.9.576c8.5,0,14.779-6.223,14.779-14.4,0-8.153-6.28-14.4-14.779-14.4-8.47,0-14.779,6.251-14.779,14.4C262.125-5.646,268.434.576,276.9.576Zm-7.433-14.4A7.337,7.337,0,0,1,276.9-21.52a7.32,7.32,0,0,1,7.433,7.692c0,4.437-3.083,7.721-7.433,7.721A7.345,7.345,0,0,1,269.471-13.828ZM304.452,0V-15.47c0-3.832,2.881-5.906,6.136-5.906s5.733,2.074,5.733,5.906V0H323.7V-17.372c0-6.655-4.523-10.861-10.918-10.861a10.543,10.543,0,0,0-8.527,3.774l-.144-3.2h-7.029V0Zm24.7-3.659A4.176,4.176,0,0,0,333.411.576,4.2,4.2,0,0,0,337.7-3.659a4.218,4.218,0,0,0-4.292-4.235A4.194,4.194,0,0,0,329.147-3.659Z" transform="translate(678 2235.49)" fill="#0d55a0"/></g></svg>