<svg xmlns="http://www.w3.org/2000/svg" width="333.696" height="412.712" viewBox="0 0 333.696 412.712"><g transform="translate(-678.083 -510.016)"><path d="M28.564,0,41.748-34.546h83.74L138.672,0h27.344L97.534-165.771H69.7L1.221,0ZM49.438-55.908l34.18-81.177L117.8-55.908Zm131.54,22.583c0,22.949,19.9,35.767,45.288,35.767,15.747,0,29.3-6.592,36.5-17.578V0h23.682V-73.364c0-28.442-20.874-46.265-53.833-46.265-21.362,0-40.161,12.329-49.194,23.8l15.259,15.137c6.958-7.935,19.043-16.235,33.569-16.235,18.188,0,30.029,10.986,30.029,25.635v6.348c-5.371-2.563-15.5-5.493-29.541-5.493C201.975-70.435,180.979-55.3,180.979-33.325Zm24.414-.854c0-12.7,12.7-17.822,27.954-17.822,12.7,0,23.926,3.052,28.931,5.615,0,15.991-13.428,29.053-32.471,29.053C216.013-17.334,205.393-23.56,205.393-34.18Z" transform="translate(678 675.787)" fill="#0d55a0"/><path d="M1.942,0l.9-2.349H8.533L9.43,0h1.859L6.632-11.272H4.74L.083,0ZM3.362-3.8l2.324-5.52L8.01-3.8ZM19.508,0a3.325,3.325,0,0,0,3.528-3.262,2.762,2.762,0,0,0-1.66-2.582,2.661,2.661,0,0,0,1.237-2.274,3.178,3.178,0,0,0-3.437-3.154H14.312V0ZM16.063-6.475V-9.72h3.113a1.617,1.617,0,0,1,1.677,1.644,1.6,1.6,0,0,1-1.677,1.6Zm0,1.469h3.445a1.745,1.745,0,0,1,1.8,1.71,1.719,1.719,0,0,1-1.8,1.735H16.063Zm9.921-.631A5.732,5.732,0,0,0,31.82.166a5.726,5.726,0,0,0,4.956-2.739l-1.3-.9A4.3,4.3,0,0,1,31.82-1.486a3.941,3.941,0,0,1-4.009-4.15,3.918,3.918,0,0,1,3.968-4.15,4.159,4.159,0,0,1,3.6,2.042l1.353-.946a5.748,5.748,0,0,0-4.956-2.748A5.708,5.708,0,0,0,25.984-5.636Zm14.163-5.628V0h4.532a5.546,5.546,0,0,0,5.794-5.628,5.557,5.557,0,0,0-5.794-5.636ZM41.89-1.577V-9.7h2.764a3.9,3.9,0,0,1,3.993,4.076,3.878,3.878,0,0,1-3.993,4.051ZM54.144,0H62.22V-1.585H55.887V-5h5.288V-6.583H55.887v-3.1h6.159v-1.585h-7.9ZM65.882,0h1.743V-4.956h4.79V-6.541h-4.79V-9.687h6.1v-1.585H65.882ZM87.193.166a5.2,5.2,0,0,0,5.462-5.4,5.881,5.881,0,0,0-.033-.656H86.928v1.577h3.885a3.362,3.362,0,0,1-3.619,2.831,3.948,3.948,0,0,1-4.018-4.15,3.924,3.924,0,0,1,3.976-4.15,4.03,4.03,0,0,1,3.461,1.851l1.353-.946a5.653,5.653,0,0,0-4.814-2.557,5.708,5.708,0,0,0-5.794,5.8A5.732,5.732,0,0,0,87.193.166Zm9.041-11.438V0h1.743V-4.964h6.109V0h1.743V-11.272h-1.743v4.731H97.978v-4.731Zm15.74,0h-1.743V0h1.743ZM118.342.166c2.416,0,3.86-1.527,3.86-4.092v-7.346h-1.743v7.222c0,1.644-.78,2.606-2.125,2.606a2.811,2.811,0,0,1-2.225-1.287l-1.146,1.17A4.013,4.013,0,0,0,118.342.166ZM126.5,0h1.743V-3.4l1.951-2.1L133.808,0h2.125l-4.516-6.674,4.233-4.6H133.4l-5.163,5.6v-5.6H126.5Zm20.521-1.585H140.6v-9.687h-1.751V0h8.168ZM150.23,0h1.76V-8.077L155.567-.8h1.245l3.578-7.28V0h1.76V-11.272h-2.059l-3.9,8.019L152.3-11.272H150.23Zm18.064,0V-8.508L175.142,0h1.76V-11.272h-1.743v8.591l-6.865-8.591h-1.743V0Zm18.1.166a5.6,5.6,0,0,0,5.827-5.786,5.646,5.646,0,0,0-5.827-5.819,5.654,5.654,0,0,0-5.819,5.819A5.612,5.612,0,0,0,186.391.166Zm-3.993-5.8a3.891,3.891,0,0,1,3.993-4.15,3.879,3.879,0,0,1,4,4.15,3.849,3.849,0,0,1-4,4.15A3.86,3.86,0,0,1,182.4-5.636ZM197.632,0V-4.2h2.889a3.5,3.5,0,0,0,3.827-3.536c0-2.092-1.5-3.528-3.827-3.528h-4.632V0Zm0-9.679h2.814a1.879,1.879,0,0,1,2.083,1.942,1.888,1.888,0,0,1-2.083,1.942h-2.814Zm15.2,9.845a6.215,6.215,0,0,0,2.548-.523l1.386,1.876,1.295-.9L216.717-1.2a5.666,5.666,0,0,0,1.942-4.424,5.646,5.646,0,0,0-5.827-5.819,5.654,5.654,0,0,0-5.819,5.819A5.612,5.612,0,0,0,212.832.166Zm0-9.953a3.879,3.879,0,0,1,4,4.15,4.213,4.213,0,0,1-1.146,3.055l-1.328-1.8-1.278.93,1.27,1.718a4.625,4.625,0,0,1-1.519.249,3.86,3.86,0,0,1-3.993-4.15A3.891,3.891,0,0,1,212.832-9.787Zm9.506-1.478V0h1.743V-4.424H226.9L229.443,0h2.025l-2.731-4.665a3.249,3.249,0,0,0,2.283-3.179c0-2.108-1.511-3.42-3.835-3.42ZM227.1-9.7c1.386,0,2.1.73,2.1,1.851,0,1.1-.714,1.868-2.1,1.868h-3.021V-9.7Zm7.082,7.3A4.688,4.688,0,0,0,238.625.166c1.934,0,4.034-1.054,4.034-3.2,0-2.183-1.751-2.764-3.852-3.478-1.594-.54-2.515-.805-2.515-1.8s1.013-1.544,2.083-1.544a3.081,3.081,0,0,1,2.689,1.685l1.353-.946a4.393,4.393,0,0,0-4.042-2.324c-1.876,0-3.818,1.079-3.835,3.138-.017,1.992,1.668,2.706,3.81,3.4,1.66.531,2.557.946,2.557,1.893,0,.988-1.013,1.61-2.316,1.61a3.29,3.29,0,0,1-3.1-1.893Zm10.651-7.247h3.719V0h1.735V-9.637H254v-1.635h-9.164Zm16.952,9.8c2.889,0,4.731-1.66,4.731-4.242v-7.2h-1.727V-4.15c0,1.652-1.17,2.7-3,2.7s-3.013-1.046-3.013-2.7v-7.122h-1.727v7.2C257.048-1.494,258.9.166,261.788.166ZM273.809,0h2.075l4.341-11.272h-1.818l-3.561,9.413-3.561-9.413h-1.818Zm8.277-11.272L285.224,0h2.814L290.3-8.351,292.561,0h2.814l3.138-11.272h-1.751l-2.8,9.7-2.731-9.521h-1.868l-2.731,9.521-2.806-9.7ZM300.283,0h2.183l3.113-4.416L308.691,0h2.183l-4.167-5.794,3.951-5.479h-2.183l-2.9,4.159-2.914-4.159H300.49l3.959,5.479ZM312.52-11.272l4.275,6.939V0h1.735V-4.333l4.275-6.939h-2.075l-3.071,5.1-3.063-5.1ZM325.072,0h8.708V-1.585h-6.45L333.7-9.87v-1.4h-8.542v1.585h6.267l-6.35,8.309Z" transform="translate(678 715.068)" fill="#002856"/><path d="M.73-2.266C.73-.706,2.083.166,3.81.166a2.9,2.9,0,0,0,2.482-1.2V0H7.9V-4.989c0-1.934-1.419-3.146-3.661-3.146A4.485,4.485,0,0,0,.9-6.516L1.934-5.487a3.14,3.14,0,0,1,2.283-1.1A1.825,1.825,0,0,1,6.259-4.848v.432A4.841,4.841,0,0,0,4.25-4.79C2.158-4.79.73-3.76.73-2.266Zm1.66-.058c0-.863.863-1.212,1.9-1.212a4.839,4.839,0,0,1,1.967.382A2.058,2.058,0,0,1,4.051-1.179C3.113-1.179,2.391-1.6,2.391-2.324ZM11.729,0h1.644V-1.087A3.373,3.373,0,0,0,16.211.166a3.984,3.984,0,0,0,4-4.192,3.914,3.914,0,0,0-4-4.109,3.373,3.373,0,0,0-2.839,1.253v-4.806H11.729Zm1.652-4.026a2.576,2.576,0,0,1,2.631-2.631,2.51,2.51,0,0,1,2.557,2.631,2.579,2.579,0,0,1-2.557,2.714A2.64,2.64,0,0,1,13.381-4.026ZM27.21.166A4.159,4.159,0,0,0,30.9-2l-1.237-.872A2.779,2.779,0,0,1,27.21-1.378a2.537,2.537,0,0,1-2.565-2.615,2.521,2.521,0,0,1,2.6-2.6,2.738,2.738,0,0,1,2.391,1.5l1.27-.863a4.056,4.056,0,0,0-3.627-2.183,4.167,4.167,0,0,0-4.292,4.142A4.124,4.124,0,0,0,27.21.166Zm6.308-4.192a3.984,3.984,0,0,0,4,4.192,3.373,3.373,0,0,0,2.839-1.253V0H42V-11.687H40.358v4.806a3.373,3.373,0,0,0-2.839-1.253A3.914,3.914,0,0,0,33.518-4.026Zm4.2-2.631A2.576,2.576,0,0,1,40.35-4.026a2.64,2.64,0,0,1-2.631,2.714,2.579,2.579,0,0,1-2.557-2.714A2.51,2.51,0,0,1,37.718-6.657Zm7.637,2.681A4.049,4.049,0,0,0,49.53.166a4.107,4.107,0,0,0,3.6-2.025l-1.212-.88A2.68,2.68,0,0,1,49.53-1.378a2.351,2.351,0,0,1-2.474-2.133h6.184a4.014,4.014,0,0,0,.066-.764,3.721,3.721,0,0,0-3.835-3.86A4.006,4.006,0,0,0,45.355-3.976ZM47.1-4.74a2.316,2.316,0,0,1,2.357-1.909A2.117,2.117,0,0,1,51.639-4.74ZM57.175-6.574V0h1.644V-6.574h2.324V-7.969H58.794v-.772c0-1.154.5-1.668,1.569-1.668a2.943,2.943,0,0,1,1.071.208l.174-1.361a2.9,2.9,0,0,0-1.32-.291A2.827,2.827,0,0,0,57.2-8.832v.863H55.673v1.395ZM67.327.166a3.419,3.419,0,0,0,2.839-1.253v.672A2.416,2.416,0,0,1,67.46,1.992,3.524,3.524,0,0,1,64.779.706L63.7,1.776a4.807,4.807,0,0,0,3.727,1.71c2.681,0,4.383-1.6,4.383-4.109V-7.969H70.166v1.087a3.373,3.373,0,0,0-2.839-1.253,3.914,3.914,0,0,0-4,4.109A3.984,3.984,0,0,0,67.327.166Zm.2-6.823a2.576,2.576,0,0,1,2.631,2.631,2.64,2.64,0,0,1-2.631,2.714,2.579,2.579,0,0,1-2.557-2.714A2.51,2.51,0,0,1,67.526-6.657ZM77.354,0V-4.491a2.044,2.044,0,0,1,2.2-2.083,1.838,1.838,0,0,1,1.917,2.083V0h1.644V-4.839a3.054,3.054,0,0,0-3.3-3.3,2.845,2.845,0,0,0-2.449,1.17v-4.723H75.71V0Zm9.4-10.642a.967.967,0,0,0,1.013,1.013.974.974,0,0,0,1.021-1.013.974.974,0,0,0-1.021-1.013A.967.967,0,0,0,86.75-10.642ZM88.585,0V-7.969H86.941V0Zm4.839-9.629a.974.974,0,0,0,1.021-1.013.974.974,0,0,0-1.021-1.013.967.967,0,0,0-1.013,1.013A.967.967,0,0,0,93.424-9.629ZM91.465,3.486c1.884,0,2.781-1.121,2.781-2.938V-7.969H92.6V.457c0,1.1-.382,1.585-1.253,1.585a3.238,3.238,0,0,1-1.029-.166l-.174,1.361A3.594,3.594,0,0,0,91.465,3.486ZM98.18-11.687V0h1.66V-2.366l1.112-1.112L103.626,0h2.083l-3.561-4.632,3.428-3.337h-2.258L99.84-4.507v-7.18Zm11.895,0h-1.644V0h1.644ZM114.01,0h1.652V-4.491a2.023,2.023,0,0,1,2.158-2.083c1.17,0,1.876.764,1.876,2.083V0h1.652V-4.59a2.019,2.019,0,0,1,2.158-1.984c1.17,0,1.876.764,1.876,2.083V0h1.652V-4.839a3.041,3.041,0,0,0-3.271-3.3,3.3,3.3,0,0,0-2.847,1.486,3.026,3.026,0,0,0-2.839-1.486,2.8,2.8,0,0,0-2.416,1.17v-1H114.01ZM132.5,0V-4.491a2.044,2.044,0,0,1,2.2-2.083,1.848,1.848,0,0,1,1.959,2.083V0h1.644V-4.839a3.066,3.066,0,0,0-3.345-3.3,2.845,2.845,0,0,0-2.449,1.17v-1H130.86V0Zm13.273.166a4.114,4.114,0,0,0,4.233-4.15,4.114,4.114,0,0,0-4.233-4.15,4.114,4.114,0,0,0-4.233,4.15A4.114,4.114,0,0,0,145.776.166Zm-2.59-4.15a2.536,2.536,0,0,1,2.59-2.606,2.536,2.536,0,0,1,2.59,2.606,2.536,2.536,0,0,1-2.59,2.606A2.536,2.536,0,0,1,143.187-3.984Zm10.168,7.3H155V-1.087A3.373,3.373,0,0,0,157.837.166a3.914,3.914,0,0,0,4-4.109,3.984,3.984,0,0,0-4-4.192A3.373,3.373,0,0,0,155-6.881V-7.969h-1.644Zm1.652-7.263a2.64,2.64,0,0,1,2.631-2.714,2.579,2.579,0,0,1,2.557,2.714,2.51,2.51,0,0,1-2.557,2.631A2.576,2.576,0,0,1,155.007-3.943Zm9.62,0a3.914,3.914,0,0,0,4,4.109,3.373,3.373,0,0,0,2.839-1.253V3.32h1.644V-7.969h-1.644v1.087a3.373,3.373,0,0,0-2.839-1.253A3.984,3.984,0,0,0,164.627-3.943Zm1.644,0a2.579,2.579,0,0,1,2.557-2.714,2.64,2.64,0,0,1,2.631,2.714,2.576,2.576,0,0,1-2.631,2.631A2.51,2.51,0,0,1,166.271-3.943ZM178.664,0V-4.341a1.969,1.969,0,0,1,2.025-2.266,2.63,2.63,0,0,1,.971.183l.174-1.511a3.11,3.11,0,0,0-1.1-.2,2.21,2.21,0,0,0-2.075,1.253V-7.969h-1.652V0Zm5.379-1.677A3.8,3.8,0,0,0,187.487.166c1.693,0,3.154-.938,3.154-2.391,0-1.519-1.129-2.083-2.864-2.507-1.17-.282-1.76-.448-1.76-1.054,0-.515.531-.847,1.32-.847a2.443,2.443,0,0,1,2.05,1.087l1.1-.946a3.674,3.674,0,0,0-3.154-1.644c-1.627,0-2.947.93-2.947,2.374,0,1.577,1.22,2.117,2.93,2.5,1.17.266,1.66.448,1.66,1.038,0,.54-.639.88-1.494.88a2.5,2.5,0,0,1-2.225-1.32Zm10.409-4.9v4.184A2.431,2.431,0,0,0,197.166.166a4.221,4.221,0,0,0,1.743-.349l-.216-1.411a3.662,3.662,0,0,1-1.295.274,1.16,1.16,0,0,1-1.3-1.27V-6.574h2.515V-7.969h-2.532v-2.557h-1.6v2.557h-1.444v1.395Zm7.313-1.395v4.839a3.061,3.061,0,0,0,3.329,3.3A2.874,2.874,0,0,0,207.583-1V0h1.652V-7.969h-1.644v4.491a2.056,2.056,0,0,1-2.241,2.083,1.844,1.844,0,0,1-1.942-2.083V-7.969ZM215.3,0h1.959L220.4-7.969h-1.768L216.282-1.61l-2.349-6.358h-1.768Zm9.438,0h2.241l1.627-5.669L230.236,0h2.241l2.349-7.969h-1.735L231.34-1.61,229.48-7.886h-1.743L225.878-1.61l-1.751-6.358h-1.735Zm12.028,0h1.893l2.133-2.98L242.928,0h1.893l-3-4.067,2.938-3.9h-1.893l-2.067,2.806-2.067-2.806h-1.893l2.938,3.9Zm13.306.116L249.9.573c-.357.93-.789,1.469-1.859,1.469a2.943,2.943,0,0,1-1.071-.208L246.8,3.2a2.9,2.9,0,0,0,1.32.291c1.942,0,2.631-1,3.271-2.474L255.2-7.969h-1.81l-2.465,6.275-2.482-6.275h-1.81ZM257.5,0h6.234V-1.395h-4.366l4.109-5.2v-1.37h-5.894v1.395h4.026L257.5-1.37Z" transform="translate(678 738.062)" fill="#002856"/><path d="M2.449,0H4.192V-11.272H.3V-9.7h2.15ZM7.814-8.815l1.469.706a2.458,2.458,0,0,1,2.258-1.677,1.827,1.827,0,0,1,1.984,1.843c0,1.1-.863,1.81-2.25,2.872-1.4,1.079-3.3,2.333-3.3,4.316V0h7.554V-1.652H10c.033-.465,1.253-1.395,2.2-2.108,1.486-1.129,3.154-2.042,3.154-4.217a3.5,3.5,0,0,0-3.81-3.461A3.984,3.984,0,0,0,7.814-8.815Zm10.653,6.45A4.1,4.1,0,0,0,22.434.166c2.2,0,3.8-1.386,3.8-3.3a2.747,2.747,0,0,0-1.884-2.64,2.631,2.631,0,0,0,1.619-2.49c0-1.876-1.552-3.179-3.777-3.179A3.925,3.925,0,0,0,18.466-8.99l1.453.78a2.544,2.544,0,0,1,2.308-1.619c1.154,0,1.959.656,1.959,1.594a1.8,1.8,0,0,1-2.034,1.768h-1.4v1.519h1.4c1.361,0,2.3.73,2.3,1.793A1.835,1.835,0,0,1,22.4-1.469a2.618,2.618,0,0,1-2.474-1.7Zm10.495-.54h5.354V.008h1.718V-2.914h1.66V-4.441h-1.66v-6.832H33.975L28.961-4.358Zm5.354-6.217v4.682H30.986ZM44.2.166a3.754,3.754,0,0,0,4.051-3.7,3.614,3.614,0,0,0-3.885-3.7,2.863,2.863,0,0,0-1.743.523L42.9-9.621h4.806v-1.652h-6.3L40.875-5.42l1.32.54A2.951,2.951,0,0,1,44.237-5.7,2.086,2.086,0,0,1,46.47-3.536a2.08,2.08,0,0,1-2.233,2.067,2.623,2.623,0,0,1-2.49-1.743l-1.453.805A4.048,4.048,0,0,0,44.2.166Zm11.524,0a3.745,3.745,0,0,0,3.993-3.827,3.611,3.611,0,0,0-3.91-3.686,3.224,3.224,0,0,0-2.8,1.328c.141-2.772,1.478-3.843,3.42-3.843a4.444,4.444,0,0,1,2.142.548l.506-1.486a5.211,5.211,0,0,0-2.681-.639c-3.561,0-5.122,2.573-5.122,6.209C51.279-2.25,52.582.166,55.728.166ZM55.579-5.8a2.1,2.1,0,0,1,2.357,2.2,2.177,2.177,0,0,1-2.324,2.25A2.208,2.208,0,0,1,53.3-3.627,2.121,2.121,0,0,1,55.579-5.8Zm6.735-5.47v1.652h5.279A44.5,44.5,0,0,0,63.06,0h1.893a48.907,48.907,0,0,1,4.632-9.845v-1.428Zm14,11.438c2.474,0,4.109-1.328,4.109-3.329a2.833,2.833,0,0,0-1.976-2.756A2.537,2.537,0,0,0,80-8.359c0-1.876-1.461-3.1-3.694-3.1-2.216,0-3.661,1.22-3.661,3.1a2.551,2.551,0,0,0,1.494,2.432,2.842,2.842,0,0,0-1.926,2.764C72.219-1.162,73.871.166,76.311.166Zm-1.942-8.45a1.728,1.728,0,0,1,1.942-1.627c1.2,0,1.976.706,1.976,1.627,0,1.013-.772,1.66-1.976,1.66C75.132-6.624,74.369-7.271,74.369-8.284Zm1.942,3.163c1.461,0,2.382.714,2.382,1.843,0,1.1-.921,1.909-2.382,1.909-1.419,0-2.349-.813-2.349-1.909C73.962-4.408,74.892-5.122,76.311-5.122Zm11.009,1.2a2.974,2.974,0,0,0,2.673-1.328c-.075,2.523-1.527,3.827-3.378,3.827a3.981,3.981,0,0,1-2.1-.647L83.926-.6a4.9,4.9,0,0,0,2.806.764c3.5,0,5.039-2.573,5.039-6.209,0-2.98-1.278-5.4-4.341-5.4-2.424,0-4.059,1.444-4.059,3.827C83.369-5.379,84.93-3.926,87.321-3.926Zm.174-5.993a2.189,2.189,0,0,1,2.216,2.274A2.135,2.135,0,0,1,87.487-5.47a2.057,2.057,0,0,1-2.333-2.2A2.143,2.143,0,0,1,87.495-9.919Z" transform="translate(678 763.056)" fill="#002856"/><path d="M1.2-10.609l.242,7.734H2.789l.3-7.734ZM2.117.156A.944.944,0,0,0,3.078-.8a.95.95,0,0,0-.961-.961A.944.944,0,0,0,1.164-.8.937.937,0,0,0,2.117.156ZM6.467-4.18a6.71,6.71,0,0,0,6.859,6.789,7.363,7.363,0,0,0,3.711-1.031L16.584.641a6.793,6.793,0,0,1-3.258.844A5.584,5.584,0,0,1,7.592-4.164a5.471,5.471,0,0,1,5.82-5.727,5.307,5.307,0,0,1,5.523,5.32c0,1.6-.484,2.891-1.437,2.891-.625,0-1.133-.352-1.133-1.406V-7.344H15.209l-.07.867a2.69,2.69,0,0,0-2.273-1A3.143,3.143,0,0,0,9.678-4.141a3.113,3.113,0,0,0,3.188,3.3,2.7,2.7,0,0,0,2.453-1.2,2.043,2.043,0,0,0,1.93,1.383c1.789,0,2.844-1.391,2.844-3.922A6.494,6.494,0,0,0,13.483-11,6.731,6.731,0,0,0,6.467-4.18Zm4.469-.008A2.007,2.007,0,0,1,12.983-6.3a2.06,2.06,0,0,1,2.1,2.109,2.113,2.113,0,0,1-2.1,2.172A2.063,2.063,0,0,1,10.936-4.187ZM22.942-2.75h1.9L24.317.008h1.391l.523-2.758h2.422L28.138.008h1.391l.516-2.758h1.9l.227-1.2H30.247l.523-2.953H32.7l.211-1.2H30.973l.438-2.508H30.036L29.583-8.1H27.169l.422-2.508H26.223L25.778-8.1H23.9l-.211,1.2h1.906c-.039.25-.086.5-.125.742L25.208-4.7c-.047.242-.086.492-.133.742H23.161Zm4.016-4.156h2.461L28.9-3.953H26.434ZM35.691-2.25A4.215,4.215,0,0,0,38.98.086V1.375h1.406V.133c1.656-.172,3.281-1.156,3.281-2.984,0-1.937-1.461-2.531-3.281-3.156V-9.172a3.016,3.016,0,0,1,1.781,1.484l1.273-.891a4.05,4.05,0,0,0-3.055-2.133V-12H38.98v1.281a3.1,3.1,0,0,0-2.953,2.906c-.016,1.672,1.25,2.391,2.953,2.984v3.414A3.041,3.041,0,0,1,36.917-3.1Zm1.984-5.57A1.487,1.487,0,0,1,38.98-9.2v2.7C38.144-6.812,37.675-7.133,37.675-7.82Zm4.344,4.984c0,.789-.68,1.328-1.633,1.477V-4.352C41.448-3.961,42.019-3.562,42.019-2.836Zm7.459-2.023a2.927,2.927,0,0,0,3.016-2.953,2.922,2.922,0,0,0-3.016-2.953A2.925,2.925,0,0,0,46.47-7.812,2.929,2.929,0,0,0,49.478-4.859ZM49.752-.2V0H50.9l5.719-10.422v-.187H55.486Zm-.273-9.3a1.655,1.655,0,0,1,1.7,1.7,1.655,1.655,0,0,1-1.7,1.7,1.652,1.652,0,0,1-1.68-1.7A1.652,1.652,0,0,1,49.478-9.508ZM56.884.156A2.927,2.927,0,0,0,59.9-2.8,2.922,2.922,0,0,0,56.884-5.75,2.925,2.925,0,0,0,53.877-2.8,2.929,2.929,0,0,0,56.884.156ZM55.2-2.8a1.652,1.652,0,0,1,1.68-1.7,1.655,1.655,0,0,1,1.7,1.7,1.655,1.655,0,0,1-1.7,1.7A1.652,1.652,0,0,1,55.2-2.8Zm7.186-1.187h1.9l2.18-4.672,2.188,4.672h1.9l-3.266-6.625H65.656Zm10.8,1.211c0,1.719,1.6,2.93,3.891,2.93A5.157,5.157,0,0,0,80.319-.953L81.342,0h2.125L81.319-2.062a3.834,3.834,0,0,0,.7-2.445A12.043,12.043,0,0,0,81.928-5.8H80.459a9.091,9.091,0,0,1,.117,1.328,2.885,2.885,0,0,1-.312,1.492l-2.5-2.383c1.43-.6,2.578-1.492,2.578-2.828,0-1.5-1.258-2.578-3.016-2.578a2.847,2.847,0,0,0-3.148,2.75,3.229,3.229,0,0,0,1.234,2.367C73.959-4.914,73.186-3.914,73.186-2.773Zm2.5-5.281c0-.812.68-1.375,1.656-1.375a1.33,1.33,0,0,1,1.492,1.289c0,.781-.812,1.3-2.055,1.844C76.155-6.891,75.686-7.312,75.686-8.055Zm-.953,5.2c0-1.062,1.094-1.594,1.656-1.859L79.3-1.937a3.243,3.243,0,0,1-2.172.734C75.733-1.2,74.733-1.891,74.733-2.852ZM88.512-11H87.294l.07,2.117-1.922-.711L85.067-8.43l2.008.578L85.669-6.062l.984.719L87.9-7.2l1.25,1.852.984-.719L88.731-7.852l2.008-.578-.375-1.164-1.93.711Zm5.28,6.469a13.715,13.715,0,0,0,2.336,7.656h1.563A15.564,15.564,0,0,1,95.4-4.531a15.747,15.747,0,0,1,2.258-7.656H96.12A14.25,14.25,0,0,0,93.792-4.531Zm7.217,7.656a13.715,13.715,0,0,0,2.336-7.656,14.25,14.25,0,0,0-2.328-7.656H99.478a15.747,15.747,0,0,1,2.258,7.656,15.564,15.564,0,0,1-2.289,7.656Zm12.827-1.1V.7h-7.523V2.023Zm2.655-8.117v1.539h3.336V-1.18h1.625V-4.555H124.8V-6.094h-3.352v-3.32h-1.625v3.32Zm12.069-1.539a2.321,2.321,0,0,1,2.1-1.578,1.484,1.484,0,0,1,1.68,1.445c0,.773-.461,1.219-1.281,2.078A3.814,3.814,0,0,0,129.614-3.1a3.186,3.186,0,0,0,.063.594h1.492a2.449,2.449,0,0,1,1.023-2.18c.883-.883,1.867-1.773,1.867-3.109,0-1.758-1.375-2.969-3.375-2.969A3.713,3.713,0,0,0,127.177-8.3Zm1.9,7.789a.917.917,0,0,0,.961-.953.917.917,0,0,0-.961-.953A.91.91,0,0,0,129.5-.8.91.91,0,0,0,130.458.156Zm6.8-6.852a.937.937,0,0,0,.953.953.944.944,0,0,0,.961-.953.95.95,0,0,0-.961-.961A.944.944,0,0,0,137.261-6.7Zm0,5.9a.937.937,0,0,0,.953.953.944.944,0,0,0,.961-.953.95.95,0,0,0-.961-.961A.944.944,0,0,0,137.261-.8Zm5.725-5.9a.937.937,0,0,0,.953.953A.944.944,0,0,0,144.9-6.7a.95.95,0,0,0-.961-.961A.944.944,0,0,0,142.986-6.7Zm-.852,8.75H143.5l1.25-4.031h-1.625Zm9.1-9.18h1.453l1.43-4.031H152.3Zm-3.125,0h1.453l1.43-4.031H149.18Z" transform="translate(678 786.05)" fill="#002856"/><path d="M1.168,0H2.215V-6.925L5.332-.635h.762L9.21-6.925V0h1.047V-8.62H8.918L5.713-2.057,2.507-8.62H1.168ZM15.2.127A2.322,2.322,0,0,0,17.247-.914V0h1.009V-6.094H17.247v3.447A1.783,1.783,0,0,1,15.362-.825a1.576,1.576,0,0,1-1.7-1.8V-6.094h-1V-2.38A2.329,2.329,0,0,0,15.2.127ZM21.6,0V-3.44a1.8,1.8,0,0,1,1.885-1.828A1.586,1.586,0,0,1,25.2-3.459V0h1.009V-3.707A2.341,2.341,0,0,0,23.64-6.221,2.341,2.341,0,0,0,21.6-5.18v-.914H20.587V0Zm9.5.127A2.774,2.774,0,0,0,33.441-.99V0h1.009V-8.937H33.441v3.847a2.766,2.766,0,0,0-2.349-1.13A3.037,3.037,0,0,0,28.021-3.06,3.059,3.059,0,0,0,31.093.127Zm.1-5.434a2.207,2.207,0,0,1,2.26,2.247,2.232,2.232,0,0,1-2.26,2.272A2.178,2.178,0,0,1,29.023-3.06,2.153,2.153,0,0,1,31.194-5.307ZM36.66-8.138a.6.6,0,0,0,.622.628.608.608,0,0,0,.635-.628.6.6,0,0,0-.635-.622A.593.593,0,0,0,36.66-8.138Zm.121,2.044V0H37.79V-6.094ZM42.126.127A2.3,2.3,0,0,0,44.12-.927V0h.99V-3.828a2.407,2.407,0,0,0-2.717-2.393A3.245,3.245,0,0,0,39.86-5l.654.622a2.456,2.456,0,0,1,1.885-.9,1.539,1.539,0,0,1,1.708,1.536V-3.3a4.5,4.5,0,0,0-1.733-.355c-1.6,0-2.66.787-2.66,1.917C39.714-.552,40.717.127,42.126.127Zm.3-2.99a3.635,3.635,0,0,1,1.682.4A1.851,1.851,0,0,1,42.19-.7c-.825,0-1.454-.368-1.454-1.054C40.736-2.476,41.447-2.863,42.425-2.863ZM47.357,0h1.009V-8.937H47.357Zm7.758,0V-3.942H60.3V0h1.047V-8.62H60.3v3.726h-5.18V-8.62H54.068V0ZM65.831.127A2.3,2.3,0,0,0,67.824-.927V0h.99V-3.828A2.407,2.407,0,0,0,66.1-6.221,3.244,3.244,0,0,0,63.565-5l.654.622a2.456,2.456,0,0,1,1.885-.9,1.539,1.539,0,0,1,1.708,1.536V-3.3a4.5,4.5,0,0,0-1.733-.355c-1.6,0-2.66.787-2.66,1.917C63.419-.552,64.422.127,65.831.127Zm.3-2.99a3.635,3.635,0,0,1,1.682.4A1.851,1.851,0,0,1,65.895-.7c-.825,0-1.454-.368-1.454-1.054C64.441-2.476,65.152-2.863,66.129-2.863Zm4.812-5.275a.6.6,0,0,0,.622.628.608.608,0,0,0,.635-.628.6.6,0,0,0-.635-.622A.593.593,0,0,0,70.942-8.138Zm.121,2.044V0h1.009V-6.094ZM75.417,0V-3.383c0-1.365.793-1.9,1.606-1.9a2.07,2.07,0,0,1,.8.152l.1-.933a2.255,2.255,0,0,0-.863-.159,1.741,1.741,0,0,0-1.644,1.028v-.9H74.4V0Z" transform="translate(678 824.05)" fill="#002856"/><path d="M1.168,0H2.215V-6.925L5.332-.635h.762L9.21-6.925V0h1.047V-8.62H8.918L5.713-2.057,2.507-8.62H1.168ZM15.2.127A2.322,2.322,0,0,0,17.247-.914V0h1.009V-6.094H17.247v3.447A1.783,1.783,0,0,1,15.362-.825a1.576,1.576,0,0,1-1.7-1.8V-6.094h-1V-2.38A2.329,2.329,0,0,0,15.2.127ZM21.6,0V-3.44a1.8,1.8,0,0,1,1.885-1.828A1.586,1.586,0,0,1,25.2-3.459V0h1.009V-3.707A2.341,2.341,0,0,0,23.64-6.221,2.341,2.341,0,0,0,21.6-5.18v-.914H20.587V0Zm9.5.127A2.774,2.774,0,0,0,33.441-.99V0h1.009V-8.937H33.441v3.847a2.766,2.766,0,0,0-2.349-1.13A3.037,3.037,0,0,0,28.021-3.06,3.059,3.059,0,0,0,31.093.127Zm.1-5.434a2.207,2.207,0,0,1,2.26,2.247,2.232,2.232,0,0,1-2.26,2.272A2.178,2.178,0,0,1,29.023-3.06,2.153,2.153,0,0,1,31.194-5.307ZM36.66-8.138a.6.6,0,0,0,.622.628.608.608,0,0,0,.635-.628.6.6,0,0,0-.635-.622A.593.593,0,0,0,36.66-8.138Zm.121,2.044V0H37.79V-6.094ZM42.126.127A2.3,2.3,0,0,0,44.12-.927V0h.99V-3.828a2.407,2.407,0,0,0-2.717-2.393A3.245,3.245,0,0,0,39.86-5l.654.622a2.456,2.456,0,0,1,1.885-.9,1.539,1.539,0,0,1,1.708,1.536V-3.3a4.5,4.5,0,0,0-1.733-.355c-1.6,0-2.66.787-2.66,1.917C39.714-.552,40.717.127,42.126.127Zm.3-2.99a3.635,3.635,0,0,1,1.682.4A1.851,1.851,0,0,1,42.19-.7c-.825,0-1.454-.368-1.454-1.054C40.736-2.476,41.447-2.863,42.425-2.863ZM47.357,0h1.009V-8.937H47.357Zm7.758,0V-3.942H60.3V0h1.047V-8.62H60.3v3.726h-5.18V-8.62H54.068V0ZM65.831.127A2.3,2.3,0,0,0,67.824-.927V0h.99V-3.828A2.407,2.407,0,0,0,66.1-6.221,3.244,3.244,0,0,0,63.565-5l.654.622a2.456,2.456,0,0,1,1.885-.9,1.539,1.539,0,0,1,1.708,1.536V-3.3a4.5,4.5,0,0,0-1.733-.355c-1.6,0-2.66.787-2.66,1.917C63.419-.552,64.422.127,65.831.127Zm.3-2.99a3.635,3.635,0,0,1,1.682.4A1.851,1.851,0,0,1,65.895-.7c-.825,0-1.454-.368-1.454-1.054C64.441-2.476,65.152-2.863,66.129-2.863Zm4.812-5.275a.6.6,0,0,0,.622.628.608.608,0,0,0,.635-.628.6.6,0,0,0-.635-.622A.593.593,0,0,0,70.942-8.138Zm.121,2.044V0h1.009V-6.094ZM75.417,0V-3.383c0-1.365.793-1.9,1.606-1.9a2.07,2.07,0,0,1,.8.152l.1-.933a2.255,2.255,0,0,0-.863-.159,1.741,1.741,0,0,0-1.644,1.028v-.9H74.4V0ZM82.6,0h1.047V-8.62H82.6ZM86.54-5.224v3.459A1.763,1.763,0,0,0,88.5.127a2.986,2.986,0,0,0,1.282-.273l-.133-.87A2.546,2.546,0,0,1,88.6-.781c-.622,0-1.054-.349-1.054-1.149V-5.224h2.006v-.87H87.543V-8.049h-1v1.955h-1.13v.87ZM93.371.127A2.3,2.3,0,0,0,95.364-.927V0h.99V-3.828a2.407,2.407,0,0,0-2.717-2.393A3.245,3.245,0,0,0,91.105-5l.654.622a2.456,2.456,0,0,1,1.885-.9,1.539,1.539,0,0,1,1.708,1.536V-3.3a4.5,4.5,0,0,0-1.733-.355c-1.6,0-2.66.787-2.66,1.917C90.959-.552,91.962.127,93.371.127Zm.3-2.99a3.635,3.635,0,0,1,1.682.4A1.851,1.851,0,0,1,93.435-.7c-.825,0-1.454-.368-1.454-1.054C91.981-2.476,92.692-2.863,93.67-2.863ZM98.6,0h1.009V-8.937H98.6Zm3.219-8.138a.6.6,0,0,0,.622.628.608.608,0,0,0,.635-.628.6.6,0,0,0-.635-.622A.593.593,0,0,0,101.821-8.138Zm.121,2.044V0h1.009V-6.094ZM108.068.127a3.075,3.075,0,0,0,2.761-1.593l-.806-.5a2.225,2.225,0,0,1-1.955,1.149,2.189,2.189,0,0,1-2.228-2.234,2.211,2.211,0,0,1,2.222-2.234A2.232,2.232,0,0,1,110.049-4.1l.806-.5a3.057,3.057,0,0,0-2.793-1.625,3.164,3.164,0,0,0-3.231,3.174A3.15,3.15,0,0,0,108.068.127Z" transform="translate(678 840.052)" fill="#002856"/><path d="M1.168,0H2.215V-6.925L5.332-.635h.762L9.21-6.925V0h1.047V-8.62H8.918L5.713-2.057,2.507-8.62H1.168ZM15.2.127A2.322,2.322,0,0,0,17.247-.914V0h1.009V-6.094H17.247v3.447A1.783,1.783,0,0,1,15.362-.825a1.576,1.576,0,0,1-1.7-1.8V-6.094h-1V-2.38A2.329,2.329,0,0,0,15.2.127ZM21.6,0V-3.44a1.8,1.8,0,0,1,1.885-1.828A1.586,1.586,0,0,1,25.2-3.459V0h1.009V-3.707A2.341,2.341,0,0,0,23.64-6.221,2.341,2.341,0,0,0,21.6-5.18v-.914H20.587V0Zm9.5.127A2.774,2.774,0,0,0,33.441-.99V0h1.009V-8.937H33.441v3.847a2.766,2.766,0,0,0-2.349-1.13A3.037,3.037,0,0,0,28.021-3.06,3.059,3.059,0,0,0,31.093.127Zm.1-5.434a2.207,2.207,0,0,1,2.26,2.247,2.232,2.232,0,0,1-2.26,2.272A2.178,2.178,0,0,1,29.023-3.06,2.153,2.153,0,0,1,31.194-5.307ZM36.66-8.138a.6.6,0,0,0,.622.628.608.608,0,0,0,.635-.628.6.6,0,0,0-.635-.622A.593.593,0,0,0,36.66-8.138Zm.121,2.044V0H37.79V-6.094ZM42.126.127A2.3,2.3,0,0,0,44.12-.927V0h.99V-3.828a2.407,2.407,0,0,0-2.717-2.393A3.245,3.245,0,0,0,39.86-5l.654.622a2.456,2.456,0,0,1,1.885-.9,1.539,1.539,0,0,1,1.708,1.536V-3.3a4.5,4.5,0,0,0-1.733-.355c-1.6,0-2.66.787-2.66,1.917C39.714-.552,40.717.127,42.126.127Zm.3-2.99a3.635,3.635,0,0,1,1.682.4A1.851,1.851,0,0,1,42.19-.7c-.825,0-1.454-.368-1.454-1.054C40.736-2.476,41.447-2.863,42.425-2.863ZM47.357,0h1.009V-8.937H47.357Zm5.365-7.643H55.6V0h1.047V-7.643h2.882V-8.62H52.723ZM62.086,0V-3.44a1.8,1.8,0,0,1,1.885-1.828,1.587,1.587,0,0,1,1.714,1.809V0h1V-3.707A2.337,2.337,0,0,0,64.13-6.221,2.341,2.341,0,0,0,62.092-5.18V-8.937H61.077V0Zm6.729-8.138a.6.6,0,0,0,.622.628.608.608,0,0,0,.635-.628.6.6,0,0,0-.635-.622A.593.593,0,0,0,68.815-8.138Zm.121,2.044V0h1.009V-6.094ZM73.285,0V-3.44A1.8,1.8,0,0,1,75.17-5.269a1.586,1.586,0,0,1,1.72,1.809V0H77.9V-3.707a2.341,2.341,0,0,0-2.571-2.514A2.341,2.341,0,0,0,73.291-5.18v-.914H72.275V0Z" transform="translate(678 856.054)" fill="#002856"/><path d="M1.168,0H2.215V-6.925L5.332-.635h.762L9.21-6.925V0h1.047V-8.62H8.918L5.713-2.057,2.507-8.62H1.168ZM15.2.127A2.322,2.322,0,0,0,17.247-.914V0h1.009V-6.094H17.247v3.447A1.783,1.783,0,0,1,15.362-.825a1.576,1.576,0,0,1-1.7-1.8V-6.094h-1V-2.38A2.329,2.329,0,0,0,15.2.127ZM21.6,0V-3.44a1.8,1.8,0,0,1,1.885-1.828A1.586,1.586,0,0,1,25.2-3.459V0h1.009V-3.707A2.341,2.341,0,0,0,23.64-6.221,2.341,2.341,0,0,0,21.6-5.18v-.914H20.587V0Zm9.5.127A2.774,2.774,0,0,0,33.441-.99V0h1.009V-8.937H33.441v3.847a2.766,2.766,0,0,0-2.349-1.13A3.037,3.037,0,0,0,28.021-3.06,3.059,3.059,0,0,0,31.093.127Zm.1-5.434a2.207,2.207,0,0,1,2.26,2.247,2.232,2.232,0,0,1-2.26,2.272A2.178,2.178,0,0,1,29.023-3.06,2.153,2.153,0,0,1,31.194-5.307ZM36.66-8.138a.6.6,0,0,0,.622.628.608.608,0,0,0,.635-.628.6.6,0,0,0-.635-.622A.593.593,0,0,0,36.66-8.138Zm.121,2.044V0H37.79V-6.094ZM42.126.127A2.3,2.3,0,0,0,44.12-.927V0h.99V-3.828a2.407,2.407,0,0,0-2.717-2.393A3.245,3.245,0,0,0,39.86-5l.654.622a2.456,2.456,0,0,1,1.885-.9,1.539,1.539,0,0,1,1.708,1.536V-3.3a4.5,4.5,0,0,0-1.733-.355c-1.6,0-2.66.787-2.66,1.917C39.714-.552,40.717.127,42.126.127Zm.3-2.99a3.635,3.635,0,0,1,1.682.4A1.851,1.851,0,0,1,42.19-.7c-.825,0-1.454-.368-1.454-1.054C40.736-2.476,41.447-2.863,42.425-2.863ZM47.357,0h1.009V-8.937H47.357Zm5.365-7.643H55.6V0h1.047V-7.643h2.882V-8.62H52.723ZM62.086,0V-3.44a1.8,1.8,0,0,1,1.885-1.828,1.587,1.587,0,0,1,1.714,1.809V0h1V-3.707A2.337,2.337,0,0,0,64.13-6.221,2.341,2.341,0,0,0,62.092-5.18V-8.937H61.077V0Zm6.729-8.138a.6.6,0,0,0,.622.628.608.608,0,0,0,.635-.628.6.6,0,0,0-.635-.622A.593.593,0,0,0,68.815-8.138Zm.121,2.044V0h1.009V-6.094ZM73.285,0V-3.44A1.8,1.8,0,0,1,75.17-5.269a1.586,1.586,0,0,1,1.72,1.809V0H77.9V-3.707a2.341,2.341,0,0,0-2.571-2.514A2.341,2.341,0,0,0,73.291-5.18v-.914H72.275V0ZM83.518,0h1.047V-8.62H83.518Zm3.936-5.224v3.459A1.763,1.763,0,0,0,89.41.127a2.986,2.986,0,0,0,1.282-.273l-.133-.87a2.546,2.546,0,0,1-1.041.235c-.622,0-1.054-.349-1.054-1.149V-5.224H90.47v-.87H88.457V-8.049h-1v1.955h-1.13v.87ZM94.285.127A2.3,2.3,0,0,0,96.278-.927V0h.99V-3.828a2.407,2.407,0,0,0-2.717-2.393A3.245,3.245,0,0,0,92.019-5l.654.622a2.456,2.456,0,0,1,1.885-.9,1.539,1.539,0,0,1,1.708,1.536V-3.3a4.5,4.5,0,0,0-1.733-.355c-1.6,0-2.66.787-2.66,1.917C91.873-.552,92.876.127,94.285.127Zm.3-2.99a3.635,3.635,0,0,1,1.682.4A1.851,1.851,0,0,1,94.349-.7c-.825,0-1.454-.368-1.454-1.054C92.9-2.476,93.606-2.863,94.584-2.863ZM99.516,0h1.009V-8.937H99.516Zm3.219-8.138a.6.6,0,0,0,.622.628.608.608,0,0,0,.635-.628.6.6,0,0,0-.635-.622A.593.593,0,0,0,102.735-8.138Zm.121,2.044V0h1.009V-6.094ZM108.982.127a3.075,3.075,0,0,0,2.761-1.593l-.806-.5a2.225,2.225,0,0,1-1.955,1.149,2.189,2.189,0,0,1-2.228-2.234,2.211,2.211,0,0,1,2.222-2.234A2.232,2.232,0,0,1,110.963-4.1l.806-.5a3.057,3.057,0,0,0-2.793-1.625,3.164,3.164,0,0,0-3.231,3.174A3.15,3.15,0,0,0,108.982.127Z" transform="translate(678 872.056)" fill="#002856"/><path d="M1.168,0H2.215V-6.925L5.332-.635h.762L9.21-6.925V0h1.047V-8.62H8.918L5.713-2.057,2.507-8.62H1.168ZM15.216.127A2.322,2.322,0,0,0,17.26-.914V0H18.27V-6.094H17.26v3.447A1.783,1.783,0,0,1,15.375-.825a1.576,1.576,0,0,1-1.7-1.8V-6.094h-1V-2.38A2.329,2.329,0,0,0,15.216.127ZM21.622,0V-3.44a1.8,1.8,0,0,1,1.885-1.828,1.586,1.586,0,0,1,1.72,1.809V0h1.009V-3.707a2.341,2.341,0,0,0-2.571-2.514A2.341,2.341,0,0,0,21.628-5.18v-.914H20.613V0Zm9.51.127A2.774,2.774,0,0,0,33.48-.99V0H34.49V-8.937H33.48v3.847a2.766,2.766,0,0,0-2.349-1.13A3.037,3.037,0,0,0,28.06-3.06,3.059,3.059,0,0,0,31.132.127Zm.1-5.434a2.207,2.207,0,0,1,2.26,2.247,2.232,2.232,0,0,1-2.26,2.272A2.178,2.178,0,0,1,29.062-3.06,2.153,2.153,0,0,1,31.233-5.307Zm5.479-2.831a.6.6,0,0,0,.622.628.608.608,0,0,0,.635-.628.6.6,0,0,0-.635-.622A.593.593,0,0,0,36.712-8.138Zm.121,2.044V0h1.009V-6.094ZM42.191.127A2.3,2.3,0,0,0,44.185-.927V0h.99V-3.828a2.407,2.407,0,0,0-2.717-2.393A3.245,3.245,0,0,0,39.925-5l.654.622a2.456,2.456,0,0,1,1.885-.9,1.539,1.539,0,0,1,1.708,1.536V-3.3a4.5,4.5,0,0,0-1.733-.355c-1.6,0-2.66.787-2.66,1.917C39.779-.552,40.782.127,42.191.127Zm.3-2.99a3.635,3.635,0,0,1,1.682.4A1.851,1.851,0,0,1,42.255-.7C41.43-.7,40.8-1.073,40.8-1.758,40.8-2.476,41.512-2.863,42.49-2.863ZM47.435,0h1.009V-8.937H47.435Zm12.85,0V-.952H55.226V-8.62H54.172V0Zm1.467-8.138a.6.6,0,0,0,.622.628.608.608,0,0,0,.635-.628.6.6,0,0,0-.635-.622A.593.593,0,0,0,61.752-8.138Zm.121,2.044V0h1.009V-6.094ZM67.885.127A2.781,2.781,0,0,0,70.234-1v.711a2.044,2.044,0,0,1-2.317,2.038A2.87,2.87,0,0,1,65.765.806l-.667.66a3.665,3.665,0,0,0,2.818,1.2,3.009,3.009,0,0,0,3.326-3.1V-6.094H70.234v1a2.762,2.762,0,0,0-2.349-1.124,3.032,3.032,0,0,0-3.072,3.155A3.061,3.061,0,0,0,67.885.127Zm.1-5.434a2.205,2.205,0,0,1,2.26,2.241,2.233,2.233,0,0,1-2.26,2.279,2.18,2.18,0,0,1-2.171-2.279A2.151,2.151,0,0,1,67.987-5.307ZM74.57,0V-3.44a1.8,1.8,0,0,1,1.885-1.828,1.587,1.587,0,0,1,1.714,1.809V0h1V-3.707a2.337,2.337,0,0,0-2.558-2.514A2.341,2.341,0,0,0,74.577-5.18V-8.937H73.561V0Zm7.193-5.224v3.459A1.763,1.763,0,0,0,83.718.127,2.986,2.986,0,0,0,85-.146l-.133-.87a2.546,2.546,0,0,1-1.041.235c-.622,0-1.054-.349-1.054-1.149V-5.224h2.006v-.87H82.766V-8.049h-1v1.955H80.64v.87Z" transform="translate(678 888.058)" fill="#002856"/><path d="M1.168,0H2.215V-6.925L5.332-.635h.762L9.21-6.925V0h1.047V-8.62H8.918L5.713-2.057,2.507-8.62H1.168ZM15.216.127A2.322,2.322,0,0,0,17.26-.914V0H18.27V-6.094H17.26v3.447A1.783,1.783,0,0,1,15.375-.825a1.576,1.576,0,0,1-1.7-1.8V-6.094h-1V-2.38A2.329,2.329,0,0,0,15.216.127ZM21.622,0V-3.44a1.8,1.8,0,0,1,1.885-1.828,1.586,1.586,0,0,1,1.72,1.809V0h1.009V-3.707a2.341,2.341,0,0,0-2.571-2.514A2.341,2.341,0,0,0,21.628-5.18v-.914H20.613V0Zm9.51.127A2.774,2.774,0,0,0,33.48-.99V0H34.49V-8.937H33.48v3.847a2.766,2.766,0,0,0-2.349-1.13A3.037,3.037,0,0,0,28.06-3.06,3.059,3.059,0,0,0,31.132.127Zm.1-5.434a2.207,2.207,0,0,1,2.26,2.247,2.232,2.232,0,0,1-2.26,2.272A2.178,2.178,0,0,1,29.062-3.06,2.153,2.153,0,0,1,31.233-5.307Zm5.479-2.831a.6.6,0,0,0,.622.628.608.608,0,0,0,.635-.628.6.6,0,0,0-.635-.622A.593.593,0,0,0,36.712-8.138Zm.121,2.044V0h1.009V-6.094ZM42.191.127A2.3,2.3,0,0,0,44.185-.927V0h.99V-3.828a2.407,2.407,0,0,0-2.717-2.393A3.245,3.245,0,0,0,39.925-5l.654.622a2.456,2.456,0,0,1,1.885-.9,1.539,1.539,0,0,1,1.708,1.536V-3.3a4.5,4.5,0,0,0-1.733-.355c-1.6,0-2.66.787-2.66,1.917C39.779-.552,40.782.127,42.191.127Zm.3-2.99a3.635,3.635,0,0,1,1.682.4A1.851,1.851,0,0,1,42.255-.7C41.43-.7,40.8-1.073,40.8-1.758,40.8-2.476,41.512-2.863,42.49-2.863ZM47.435,0h1.009V-8.937H47.435Zm12.85,0V-.952H55.226V-8.62H54.172V0Zm1.467-8.138a.6.6,0,0,0,.622.628.608.608,0,0,0,.635-.628.6.6,0,0,0-.635-.622A.593.593,0,0,0,61.752-8.138Zm.121,2.044V0h1.009V-6.094ZM67.885.127A2.781,2.781,0,0,0,70.234-1v.711a2.044,2.044,0,0,1-2.317,2.038A2.87,2.87,0,0,1,65.765.806l-.667.66a3.665,3.665,0,0,0,2.818,1.2,3.009,3.009,0,0,0,3.326-3.1V-6.094H70.234v1a2.762,2.762,0,0,0-2.349-1.124,3.032,3.032,0,0,0-3.072,3.155A3.061,3.061,0,0,0,67.885.127Zm.1-5.434a2.205,2.205,0,0,1,2.26,2.241,2.233,2.233,0,0,1-2.26,2.279,2.18,2.18,0,0,1-2.171-2.279A2.151,2.151,0,0,1,67.987-5.307ZM74.57,0V-3.44a1.8,1.8,0,0,1,1.885-1.828,1.587,1.587,0,0,1,1.714,1.809V0h1V-3.707a2.337,2.337,0,0,0-2.558-2.514A2.341,2.341,0,0,0,74.577-5.18V-8.937H73.561V0Zm7.193-5.224v3.459A1.763,1.763,0,0,0,83.718.127,2.986,2.986,0,0,0,85-.146l-.133-.87a2.546,2.546,0,0,1-1.041.235c-.622,0-1.054-.349-1.054-1.149V-5.224h2.006v-.87H82.766V-8.049h-1v1.955H80.64v.87ZM89.985,0h1.047V-8.62H89.985Zm3.949-5.224v3.459A1.763,1.763,0,0,0,95.889.127a2.986,2.986,0,0,0,1.282-.273l-.133-.87A2.546,2.546,0,0,1,96-.781c-.622,0-1.054-.349-1.054-1.149V-5.224H96.95v-.87H94.937V-8.049h-1v1.955h-1.13v.87ZM100.778.127a2.3,2.3,0,0,0,1.993-1.054V0h.99V-3.828a2.407,2.407,0,0,0-2.717-2.393A3.245,3.245,0,0,0,98.512-5l.654.622a2.456,2.456,0,0,1,1.885-.9,1.539,1.539,0,0,1,1.708,1.536V-3.3a4.5,4.5,0,0,0-1.733-.355c-1.6,0-2.66.787-2.66,1.917C98.366-.552,99.369.127,100.778.127Zm.3-2.99a3.635,3.635,0,0,1,1.682.4A1.851,1.851,0,0,1,100.842-.7c-.825,0-1.454-.368-1.454-1.054C99.388-2.476,100.1-2.863,101.076-2.863ZM106.022,0h1.009V-8.937h-1.009Zm3.232-8.138a.6.6,0,0,0,.622.628.608.608,0,0,0,.635-.628.6.6,0,0,0-.635-.622A.593.593,0,0,0,109.254-8.138Zm.121,2.044V0h1.009V-6.094ZM115.514.127a3.075,3.075,0,0,0,2.761-1.593l-.806-.5a2.225,2.225,0,0,1-1.955,1.149,2.189,2.189,0,0,1-2.228-2.234,2.211,2.211,0,0,1,2.222-2.234A2.232,2.232,0,0,1,117.494-4.1l.806-.5a3.057,3.057,0,0,0-2.793-1.625,3.164,3.164,0,0,0-3.231,3.174A3.15,3.15,0,0,0,115.514.127Z" transform="translate(678 904.06)" fill="#002856"/><path d="M1.117,0H2.463V-6.176L5.2-.609h.952L8.887-6.176V0h1.346V-8.62H8.658L5.675-2.488,2.7-8.62H1.117ZM12.531-6.094v3.7A2.341,2.341,0,0,0,15.076.127a2.2,2.2,0,0,0,1.9-.9V0h1.263V-6.094H16.987V-2.66a1.572,1.572,0,0,1-1.714,1.593A1.41,1.41,0,0,1,13.788-2.66V-6.094ZM21.729,0V-3.434a1.563,1.563,0,0,1,1.682-1.593,1.413,1.413,0,0,1,1.5,1.593V0h1.257V-3.7a2.344,2.344,0,0,0-2.558-2.52,2.176,2.176,0,0,0-1.873.9v-.768H20.473V0Zm6.145-3.079A3.047,3.047,0,0,0,30.934.127a2.58,2.58,0,0,0,2.171-.958V0h1.257V-8.937H33.105v3.675a2.58,2.58,0,0,0-2.171-.958A2.993,2.993,0,0,0,27.875-3.079Zm3.212-2.012A1.97,1.97,0,0,1,33.1-3.079,2.019,2.019,0,0,1,31.086-1a1.972,1.972,0,0,1-1.955-2.076A1.919,1.919,0,0,1,31.086-5.091Zm5.358-3.047a.74.74,0,0,0,.774.774A.745.745,0,0,0,38-8.138a.745.745,0,0,0-.781-.774A.74.74,0,0,0,36.445-8.138ZM37.847,0V-6.094H36.591V0ZM39.67-1.733C39.67-.54,40.7.127,42.025.127a2.218,2.218,0,0,0,1.9-.914V0h1.231V-3.815c0-1.479-1.085-2.406-2.8-2.406A3.43,3.43,0,0,0,39.8-4.983l.793.787a2.4,2.4,0,0,1,1.746-.844A1.4,1.4,0,0,1,43.9-3.707v.33a3.7,3.7,0,0,0-1.536-.286C40.762-3.663,39.67-2.875,39.67-1.733Zm1.27-.044c0-.66.66-.927,1.454-.927a3.7,3.7,0,0,1,1.5.292A1.573,1.573,0,0,1,42.209-.9C41.492-.9,40.939-1.225,40.939-1.777Zm7.618-7.16H47.3V0h1.257Zm5.663.324V0h1.333V-3.383h2.152L59.654,0H61.2L59.115-3.567A2.485,2.485,0,0,0,60.86-6c0-1.612-1.155-2.615-2.933-2.615Zm3.644,1.2c1.06,0,1.606.559,1.606,1.416,0,.838-.546,1.428-1.606,1.428H55.554V-7.414Zm4.4,4.374A3.1,3.1,0,0,0,65.457.127a3.14,3.14,0,0,0,2.755-1.549l-.927-.673a2.049,2.049,0,0,1-1.828,1.041,1.8,1.8,0,0,1-1.892-1.631h4.729a3.07,3.07,0,0,0,.051-.584,2.845,2.845,0,0,0-2.933-2.952A3.063,3.063,0,0,0,62.264-3.041ZM63.6-3.625a1.771,1.771,0,0,1,1.8-1.46,1.619,1.619,0,0,1,1.669,1.46ZM72.782.127a2.614,2.614,0,0,0,2.171-.958v.514a1.848,1.848,0,0,1-2.069,1.841A2.7,2.7,0,0,1,70.834.54l-.825.819a3.676,3.676,0,0,0,2.85,1.308A3.036,3.036,0,0,0,76.21-.476V-6.094H74.953v.832a2.58,2.58,0,0,0-2.171-.958,2.993,2.993,0,0,0-3.06,3.142A3.047,3.047,0,0,0,72.782.127Zm.152-5.218a1.97,1.97,0,0,1,2.012,2.012A2.019,2.019,0,0,1,72.935-1,1.972,1.972,0,0,1,70.98-3.079,1.919,1.919,0,0,1,72.935-5.091Zm5.4-1v3.7A2.341,2.341,0,0,0,80.876.127a2.2,2.2,0,0,0,1.9-.9V0h1.263V-6.094H82.787V-2.66a1.572,1.572,0,0,1-1.714,1.593A1.41,1.41,0,0,1,79.588-2.66V-6.094Zm9.2-2.844H86.273V0h1.257Zm1.822,7.2c0,1.193,1.035,1.86,2.355,1.86a2.218,2.218,0,0,0,1.9-.914V0h1.231V-3.815c0-1.479-1.085-2.406-2.8-2.406a3.43,3.43,0,0,0-2.558,1.238l.793.787a2.4,2.4,0,0,1,1.746-.844,1.4,1.4,0,0,1,1.562,1.333v.33a3.7,3.7,0,0,0-1.536-.286C90.444-3.663,89.352-2.875,89.352-1.733Zm1.27-.044c0-.66.66-.927,1.454-.927a3.7,3.7,0,0,1,1.5.292A1.573,1.573,0,0,1,91.891-.9C91.174-.9,90.621-1.225,90.621-1.777ZM98.246,0V-3.32a1.506,1.506,0,0,1,1.549-1.733,2.011,2.011,0,0,1,.743.14l.133-1.155a2.378,2.378,0,0,0-.838-.152,1.69,1.69,0,0,0-1.587.958v-.832H96.982V0Z" transform="translate(678 920.062)" fill="#002856"/><path d="M2.463,0,3.555-6.176,5.307-.609h.952l3.72-5.567L8.887,0h1.346L11.75-8.62H10.175L6.113-2.488,4.215-8.62H2.634L1.117,0ZM15.37.127a3.185,3.185,0,0,0,3.237-2.6l.635-3.618h-1.25l-.6,3.44a1.849,1.849,0,0,1-1.809,1.6,1.223,1.223,0,0,1-1.231-1.6l.6-3.44H13.688l-.641,3.656A2.088,2.088,0,0,0,15.37.127ZM20.4,0h1.257l.6-3.434a1.937,1.937,0,0,1,1.968-1.593c.946,0,1.39.584,1.212,1.593L24.838,0h1.257l.654-3.7a1.938,1.938,0,0,0-2.114-2.52,2.654,2.654,0,0,0-2.031.9l.133-.768H21.473ZM30.928.127A3.1,3.1,0,0,0,33.27-.832L33.124,0h1.257l1.574-8.937H34.7l-.647,3.675a2.132,2.132,0,0,0-2-.958A3.709,3.709,0,0,0,28.44-3.079,2.5,2.5,0,0,0,30.928.127ZM29.7-3.079A2.374,2.374,0,0,1,32-5.091a1.616,1.616,0,0,1,1.663,2.012A2.517,2.517,0,0,1,31.283-1,1.614,1.614,0,0,1,29.7-3.079ZM38.63-7.363a.921.921,0,0,0,.914-.774.609.609,0,0,0-.641-.774.921.921,0,0,0-.914.774A.609.609,0,0,0,38.63-7.363ZM37.957,0,39.03-6.094H37.773L36.7,0Zm4.916.127a3.1,3.1,0,0,0,2.342-.958L45.07,0h1.257L47.4-6.094H46.142L46-5.262a2.132,2.132,0,0,0-2-.958,3.709,3.709,0,0,0-3.612,3.142A2.5,2.5,0,0,0,42.873.127ZM41.642-3.079a2.374,2.374,0,0,1,2.3-2.012,1.616,1.616,0,0,1,1.663,2.012A2.517,2.517,0,0,1,43.229-1,1.614,1.614,0,0,1,41.642-3.079ZM50.163.127a2.708,2.708,0,0,0,1.073-.2L51.23-1.092a2.082,2.082,0,0,1-.692.114c-.317,0-.489-.19-.419-.559l1.3-7.4H50.163L48.837-1.416C48.659-.406,49.167.127,50.163.127Zm8.9-8.747H57.735L56.218,0h1.333Zm1.126,3.593H61.28l-.565,3.2C60.493-.59,61.166.127,62.442.127A3.606,3.606,0,0,0,63.825-.14l.025-1.079a3.127,3.127,0,0,1-1.028.209c-.622,0-.939-.324-.825-.971l.54-3.047H64.46l.184-1.066H62.708l.349-1.955H61.832l-.349,1.955h-1.1ZM67.84.127a3.1,3.1,0,0,0,2.342-.958L70.036,0h1.257l1.073-6.094H71.109l-.146.832a2.132,2.132,0,0,0-2-.958,3.709,3.709,0,0,0-3.612,3.142A2.5,2.5,0,0,0,67.84.127ZM66.608-3.079a2.374,2.374,0,0,1,2.3-2.012,1.616,1.616,0,0,1,1.663,2.012A2.517,2.517,0,0,1,68.2-1,1.614,1.614,0,0,1,66.608-3.079ZM75.13.127a2.708,2.708,0,0,0,1.073-.2L76.2-1.092a2.082,2.082,0,0,1-.692.114c-.317,0-.489-.19-.419-.559l1.3-7.4H75.13L73.8-1.416C73.625-.406,74.133.127,75.13.127Zm4.459-7.49a.921.921,0,0,0,.914-.774.609.609,0,0,0-.641-.774.921.921,0,0,0-.914.774A.609.609,0,0,0,79.589-7.363ZM78.916,0l1.073-6.094H78.732L77.659,0ZM83.99.127A3.9,3.9,0,0,0,87.1-1.53L86.276-2.2A2.621,2.621,0,0,1,84.2-1.054a1.587,1.587,0,0,1-1.606-2A2.39,2.39,0,0,1,84.93-5.04a1.683,1.683,0,0,1,1.625,1.149l1.085-.66a2.5,2.5,0,0,0-2.476-1.669,3.956,3.956,0,0,0-3.84,3.167A2.575,2.575,0,0,0,83.99.127Z" transform="translate(856.658 824.064)" fill="#002856"/><path d="M1.079,0H2.793V-5.288L5.116-.578H6.227L8.55-5.288V0h1.714V-8.62H8.449L5.675-2.882,2.895-8.62H1.079ZM14.958.159a2.313,2.313,0,0,0,1.892-.832L16.881,0H18.43V-6.094H16.8v3.447A1.267,1.267,0,0,1,15.44-1.352a1.193,1.193,0,0,1-1.257-1.295V-6.094H12.558v3.866A2.259,2.259,0,0,0,14.958.159ZM22.279,0V-3.409a1.268,1.268,0,0,1,1.352-1.3,1.2,1.2,0,0,1,1.263,1.3V0h1.625V-3.828a2.269,2.269,0,0,0-2.406-2.393,2.323,2.323,0,0,0-1.879.832l-.032-.7H20.654V0Zm5.944-3.053A2.963,2.963,0,0,0,31.174.127a2.542,2.542,0,0,0,1.98-.774L33.187,0h1.6V-8.937h-1.6v3.58a2.414,2.414,0,0,0-2.012-.863A2.945,2.945,0,0,0,28.223-3.053Zm3.288-1.708a1.633,1.633,0,0,1,1.657,1.7,1.659,1.659,0,0,1-1.657,1.727A1.646,1.646,0,0,1,29.86-3.06,1.614,1.614,0,0,1,31.511-4.761Zm5.373-3.288a.89.89,0,0,0,.933.933.9.9,0,0,0,.939-.933.9.9,0,0,0-.939-.939A.9.9,0,0,0,36.883-8.049ZM38.642,0V-6.094H37.01V0Zm4.122.127A2.019,2.019,0,0,0,44.49-.679V0h1.549V-3.751c0-1.523-1.111-2.469-2.895-2.469a3.336,3.336,0,0,0-2.6,1.27l.933.933a2.158,2.158,0,0,1,1.612-.768,1.2,1.2,0,0,1,1.32,1.162v.14a3.991,3.991,0,0,0-1.282-.209c-1.619,0-2.672.8-2.672,1.949C40.46-.616,41.38.127,42.764.127Zm.482-2.736a2.839,2.839,0,0,1,1.168.235,1.3,1.3,0,0,1-1.4,1.289C42.4-1.085,42-1.377,42-1.834S42.5-2.609,43.246-2.609Zm6.56-6.329H48.181V0h1.625ZM55.727.006h3.567a4.262,4.262,0,0,0,4.45-4.31,4.269,4.269,0,0,0-4.45-4.31H55.727Zm1.714-7.147h1.8A2.709,2.709,0,0,1,61.992-4.3a2.7,2.7,0,0,1-2.749,2.831h-1.8ZM68.33.133a3.144,3.144,0,0,0,2.71-1.466L69.885-2.2a1.781,1.781,0,0,1-1.517.857,1.6,1.6,0,0,1-1.625-1.219h4.405a4.419,4.419,0,0,0,.057-.692,2.813,2.813,0,0,0-2.952-2.971,3.043,3.043,0,0,0-3.136,3.167A3.08,3.08,0,0,0,68.33.133ZM66.768-3.65a1.432,1.432,0,0,1,1.5-1.2,1.369,1.369,0,0,1,1.416,1.2ZM74.623,0V-3.409a1.26,1.26,0,0,1,1.333-1.3,1.178,1.178,0,0,1,1.212,1.3V0H78.8V-3.447A1.249,1.249,0,0,1,80.139-4.71a1.177,1.177,0,0,1,1.219,1.3V0h1.631V-3.828A2.255,2.255,0,0,0,80.6-6.221a2.512,2.512,0,0,0-2.114,1.079,2.186,2.186,0,0,0-2.044-1.079,2.3,2.3,0,0,0-1.866.832l-.032-.7H72.991V0ZM85-8.049a.89.89,0,0,0,.933.933.9.9,0,0,0,.939-.933.9.9,0,0,0-.939-.939A.9.9,0,0,0,85-8.049ZM86.762,0V-6.094H85.13V0Zm5.921,0h4.247a2.428,2.428,0,0,0,2.679-2.393,2.163,2.163,0,0,0-1.447-2.088,1.93,1.93,0,0,0,1.155-1.784A2.421,2.421,0,0,0,96.65-8.62H92.683Zm3.675-7.147a1.069,1.069,0,0,1,1.187,1.073A1.022,1.022,0,0,1,96.422-5.04H94.4V-7.147Zm.292,3.459a1.073,1.073,0,0,1,1.136,1.162,1.045,1.045,0,0,1-1.136,1.06H94.4V-3.688ZM104.244.127A3.14,3.14,0,0,0,107.5-3.047a3.143,3.143,0,0,0-3.256-3.174,3.147,3.147,0,0,0-3.256,3.174A3.143,3.143,0,0,0,104.244.127Zm-1.638-3.174a1.617,1.617,0,0,1,1.638-1.695,1.613,1.613,0,0,1,1.638,1.695,1.615,1.615,0,0,1-1.638,1.7A1.618,1.618,0,0,1,102.607-3.047ZM110.9-8.937h-1.625V0H110.9Zm1.786,5.884a2.963,2.963,0,0,0,2.952,3.18,2.542,2.542,0,0,0,1.98-.774l.032.647h1.6V-8.937h-1.6v3.58a2.414,2.414,0,0,0-2.012-.863A2.945,2.945,0,0,0,112.685-3.053Zm3.288-1.708a1.633,1.633,0,0,1,1.657,1.7,1.659,1.659,0,0,1-1.657,1.727,1.646,1.646,0,0,1-1.65-1.727A1.614,1.614,0,0,1,115.973-4.761Z" transform="translate(856.658 840.066)" fill="#002856"/><path d="M1.035,0H3.123V-4.659L5.078-.508h1.4L8.43-4.659V0h2.088V-8.62H8.379L5.776-3,3.174-8.62H1.035ZM14.99.19a2.366,2.366,0,0,0,1.885-.768L16.938,0h1.834V-6.094h-2v3.453a.967.967,0,0,1-1.016,1,.982.982,0,0,1-1.022-1V-6.094h-2v4.024A2.187,2.187,0,0,0,14.99.19ZM22.749,0V-3.39a.967.967,0,0,1,1.016-1,.982.982,0,0,1,1.022,1V0h2V-3.961a2.187,2.187,0,0,0-2.253-2.26,2.366,2.366,0,0,0-1.885.768l-.063-.641H20.75V0Zm8.344.127a2.57,2.57,0,0,0,1.79-.6l.063.47h1.936V-8.937H32.94v3.485a2.212,2.212,0,0,0-1.847-.768,2.9,2.9,0,0,0-2.844,3.187A2.883,2.883,0,0,0,31.093.127Zm-.832-3.174a1.3,1.3,0,0,1,1.346-1.384,1.294,1.294,0,0,1,1.3,1.384,1.3,1.3,0,0,1-1.3,1.384A1.325,1.325,0,0,1,30.261-3.047ZM36.9-7.966A1.043,1.043,0,0,0,38-6.875a1.05,1.05,0,0,0,1.1-1.092,1.051,1.051,0,0,0-1.1-1.1A1.045,1.045,0,0,0,36.9-7.966Zm.127,1.873V0h2V-6.094ZM43.045.127A2.021,2.021,0,0,0,44.67-.622V0h1.9V-3.618c0-1.625-1.117-2.6-2.971-2.6a3.755,3.755,0,0,0-2.742,1.257l1.1,1.187a2.01,2.01,0,0,1,1.466-.679c.724,0,1.143.349,1.143.825v.121a4.6,4.6,0,0,0-1.219-.159c-1.384,0-2.577.73-2.577,1.942C40.772-.571,41.756.127,43.045.127Zm-.355-1.974c0-.394.394-.609,1.016-.609a2.379,2.379,0,0,1,.863.159,1.03,1.03,0,0,1-1.085,1.06C43.019-1.238,42.689-1.485,42.689-1.847Zm7.944-7.09h-2V0h2ZM60.617,0a2.417,2.417,0,0,0,2.691-2.355,2,2,0,0,0-1.441-2.006,2.173,2.173,0,0,0,1.2-1.961c0-1.428-1.13-2.3-2.736-2.3H56.3V0ZM58.389-5.11V-6.875h1.555a.9.9,0,0,1,.952.882.854.854,0,0,1-.889.882Zm0,3.371V-3.51h1.7a.889.889,0,0,1,.952.9.9.9,0,0,1-.952.876Zm6.223-1.308A3.141,3.141,0,0,0,67.888.127a3.141,3.141,0,0,0,3.275-3.174,3.141,3.141,0,0,0-3.275-3.174A3.141,3.141,0,0,0,64.613-3.047Zm1.98,0A1.274,1.274,0,0,1,67.888-4.38a1.274,1.274,0,0,1,1.295,1.333,1.279,1.279,0,0,1-1.295,1.352A1.279,1.279,0,0,1,66.593-3.047ZM74.86-8.937h-2V0h2ZM79.415.127a2.57,2.57,0,0,0,1.79-.6l.063.47H83.2V-8.937H81.262v3.485a2.212,2.212,0,0,0-1.847-.768,2.9,2.9,0,0,0-2.844,3.187A2.883,2.883,0,0,0,79.415.127Zm-.832-3.174a1.3,1.3,0,0,1,1.346-1.384,1.294,1.294,0,0,1,1.3,1.384,1.3,1.3,0,0,1-1.3,1.384A1.325,1.325,0,0,1,78.583-3.047Z" transform="translate(856.658 856.068)" fill="#002856"/><path d="M3.123,0l.819-4.659L5.167-.508h1.4L9.249-4.659,8.43,0h2.088l1.517-8.62H9.9L6.3-3,4.691-8.62H2.552L1.035,0ZM15.631.127A3.355,3.355,0,0,0,19.1-2.545l.622-3.548h-2l-.6,3.4a1.158,1.158,0,0,1-1.168,1,.762.762,0,0,1-.749-1l.6-3.4h-2l-.628,3.586C12.908-1,13.828.127,15.631.127ZM22.533,0l.6-3.39a1.2,1.2,0,0,1,1.193-1,.8.8,0,0,1,.844,1L24.571,0h2l.7-3.961a1.792,1.792,0,0,0-1.854-2.26,2.823,2.823,0,0,0-2.025.768l.051-.641H21.607L20.534,0Zm8.318.127a3,3,0,0,0,1.9-.6L32.731,0h1.936l1.574-8.937H34.3l-.616,3.485a1.828,1.828,0,0,0-1.708-.768,3.6,3.6,0,0,0-3.409,3.187C28.249-1.219,29.131.127,30.852.127Zm-.267-3.174a1.609,1.609,0,0,1,1.587-1.384,1.066,1.066,0,0,1,1.06,1.384,1.615,1.615,0,0,1-1.549,1.384A1.083,1.083,0,0,1,30.585-3.047Zm8.407-3.828a1.3,1.3,0,0,0,1.295-1.092.862.862,0,0,0-.908-1.1,1.3,1.3,0,0,0-1.289,1.1A.858.858,0,0,0,38.992-6.875ZM36.815,0h2l1.073-6.094h-2Zm6.528.127a3,3,0,0,0,1.9-.6L45.222,0h1.936l1.073-6.094H46.288l-.114.641a1.828,1.828,0,0,0-1.708-.768,3.6,3.6,0,0,0-3.409,3.187C40.741-1.219,41.623.127,43.343.127Zm-.267-3.174a1.609,1.609,0,0,1,1.587-1.384,1.066,1.066,0,0,1,1.06,1.384,1.615,1.615,0,0,1-1.549,1.384A1.083,1.083,0,0,1,43.076-3.047ZM51.1.127a4.185,4.185,0,0,0,1.327-.19l.19-1.568a2.592,2.592,0,0,1-.565.07q-.524,0-.438-.476l1.212-6.9h-2L49.548-1.688C49.313-.368,49.96.127,51.1.127ZM57.227,0h4.316a2.98,2.98,0,0,0,3.1-2.355,1.631,1.631,0,0,0-1.085-2.006,2.731,2.731,0,0,0,1.549-1.961c.248-1.428-.73-2.3-2.336-2.3H58.745Zm3.3-6.875h1.555a.73.73,0,0,1,.793.882,1.053,1.053,0,0,1-1.041.882H60.217ZM59.62-1.739l.317-1.771h1.7a.729.729,0,0,1,.793.9,1.129,1.129,0,0,1-1.111.876ZM68.789.127a3.9,3.9,0,0,0,3.84-3.174,2.574,2.574,0,0,0-2.717-3.174,3.893,3.893,0,0,0-3.834,3.174A2.567,2.567,0,0,0,68.789.127Zm-.73-3.174a1.581,1.581,0,0,1,1.53-1.333,1.045,1.045,0,0,1,1.06,1.333,1.592,1.592,0,0,1-1.536,1.352A1.047,1.047,0,0,1,68.059-3.047ZM75.578.127A4.185,4.185,0,0,0,76.9-.063l.19-1.568a2.592,2.592,0,0,1-.565.07q-.524,0-.438-.476l1.212-6.9h-2L74.029-1.688C73.794-.368,74.442.127,75.578.127Zm4.91,0a3,3,0,0,0,1.9-.6L82.366,0H84.3l1.574-8.937H83.934l-.616,3.485a1.828,1.828,0,0,0-1.708-.768A3.6,3.6,0,0,0,78.2-3.034C77.885-1.219,78.767.127,80.487.127Zm-.267-3.174a1.609,1.609,0,0,1,1.587-1.384,1.066,1.066,0,0,1,1.06,1.384,1.615,1.615,0,0,1-1.549,1.384A1.083,1.083,0,0,1,80.221-3.047ZM93.575-8.62H91.487L89.97,0h2.088Zm.853,4.158H95.4l-.406,2.292c-.286,1.625.6,2.3,2,2.3a4.364,4.364,0,0,0,1.682-.343l.146-1.625a3.261,3.261,0,0,1-1.022.209c-.527,0-.863-.2-.749-.863L97.4-4.462h1.784l.286-1.631H97.622l.349-1.955H96.035l-.349,1.955h-.971ZM102.29.127a3,3,0,0,0,1.9-.6l-.019.47H106.1l1.073-6.094h-1.942l-.114.641a1.828,1.828,0,0,0-1.708-.768A3.6,3.6,0,0,0,100-3.034C99.687-1.219,100.57.127,102.29.127Zm-.267-3.174a1.609,1.609,0,0,1,1.587-1.384,1.066,1.066,0,0,1,1.06,1.384,1.615,1.615,0,0,1-1.549,1.384A1.083,1.083,0,0,1,102.023-3.047Zm8.02,3.174a4.185,4.185,0,0,0,1.327-.19l.19-1.568a2.592,2.592,0,0,1-.565.07q-.524,0-.438-.476l1.212-6.9h-2l-1.276,7.249C108.26-.368,108.907.127,110.043.127Zm4.789-7a1.3,1.3,0,0,0,1.295-1.092.862.862,0,0,0-.908-1.1,1.3,1.3,0,0,0-1.289,1.1A.858.858,0,0,0,114.832-6.875ZM112.655,0h2l1.073-6.094h-2Zm6.884.127a4.007,4.007,0,0,0,3.193-1.587l-1.32-1.1a1.911,1.911,0,0,1-1.485.87,1.047,1.047,0,0,1-1.054-1.352A1.581,1.581,0,0,1,120.4-4.38a1.1,1.1,0,0,1,1.13.889l1.733-1.1a2.572,2.572,0,0,0-2.539-1.631,3.893,3.893,0,0,0-3.834,3.174A2.527,2.527,0,0,0,119.539.127Z" transform="translate(856.658 872.07)" fill="#002856"/><path d="M3.123,0l.819-4.659L5.167-.508h1.4L9.249-4.659,8.43,0h2.088l1.517-8.62H9.9L6.3-3,4.691-8.62H2.552L1.035,0ZM15.592.127a3.355,3.355,0,0,0,3.466-2.672l.622-3.548h-2l-.6,3.4a1.158,1.158,0,0,1-1.168,1,.762.762,0,0,1-.749-1l.6-3.4h-2l-.628,3.586C12.869-1,13.789.127,15.592.127ZM22.455,0l.6-3.39a1.2,1.2,0,0,1,1.193-1,.8.8,0,0,1,.844,1L24.493,0h2l.7-3.961a1.792,1.792,0,0,0-1.854-2.26,2.823,2.823,0,0,0-2.025.768l.051-.641H21.529L20.456,0Zm8.279.127a3,3,0,0,0,1.9-.6L32.614,0H34.55l1.574-8.937H34.181l-.616,3.485a1.828,1.828,0,0,0-1.708-.768,3.6,3.6,0,0,0-3.409,3.187C28.132-1.219,29.014.127,30.735.127Zm-.267-3.174a1.609,1.609,0,0,1,1.587-1.384,1.066,1.066,0,0,1,1.06,1.384,1.615,1.615,0,0,1-1.549,1.384A1.083,1.083,0,0,1,30.468-3.047Zm8.368-3.828a1.3,1.3,0,0,0,1.295-1.092.862.862,0,0,0-.908-1.1,1.3,1.3,0,0,0-1.289,1.1A.858.858,0,0,0,38.836-6.875ZM36.659,0h2l1.073-6.094h-2Zm6.489.127a3,3,0,0,0,1.9-.6L45.027,0h1.936l1.073-6.094H46.093l-.114.641a1.828,1.828,0,0,0-1.708-.768,3.6,3.6,0,0,0-3.409,3.187C40.546-1.219,41.428.127,43.148.127Zm-.267-3.174a1.609,1.609,0,0,1,1.587-1.384,1.066,1.066,0,0,1,1.06,1.384A1.615,1.615,0,0,1,43.98-1.663,1.083,1.083,0,0,1,42.881-3.047ZM50.862.127a4.185,4.185,0,0,0,1.327-.19l.19-1.568a2.592,2.592,0,0,1-.565.07q-.524,0-.438-.476l1.212-6.9h-2L49.314-1.688C49.079-.368,49.726.127,50.862.127ZM56.915,0h4.316a2.98,2.98,0,0,0,3.1-2.355A1.631,1.631,0,0,0,63.25-4.361,2.731,2.731,0,0,0,64.8-6.322c.248-1.428-.73-2.3-2.336-2.3H58.433Zm3.3-6.875h1.555a.73.73,0,0,1,.793.882,1.053,1.053,0,0,1-1.041.882H59.905Zm-.908,5.135.317-1.771h1.7a.729.729,0,0,1,.793.9,1.129,1.129,0,0,1-1.111.876ZM67.429.127a4.185,4.185,0,0,0,1.327-.19l.19-1.568a2.592,2.592,0,0,1-.565.07q-.524,0-.438-.476l1.212-6.9h-2L65.88-1.688C65.645-.368,66.293.127,67.429.127Zm4.871,0a3,3,0,0,0,1.9-.6L74.178,0h1.936l1.073-6.094H75.245l-.114.641a1.828,1.828,0,0,0-1.708-.768,3.6,3.6,0,0,0-3.409,3.187C69.7-1.219,70.579.127,72.3.127Zm-.267-3.174A1.609,1.609,0,0,1,73.62-4.431a1.066,1.066,0,0,1,1.06,1.384,1.615,1.615,0,0,1-1.549,1.384A1.083,1.083,0,0,1,72.033-3.047ZM80.96.127A4.007,4.007,0,0,0,84.152-1.46l-1.32-1.1a1.911,1.911,0,0,1-1.485.87,1.047,1.047,0,0,1-1.054-1.352,1.581,1.581,0,0,1,1.53-1.333,1.1,1.1,0,0,1,1.13.889l1.733-1.1a2.572,2.572,0,0,0-2.539-1.631,3.893,3.893,0,0,0-3.834,3.174A2.527,2.527,0,0,0,80.96.127ZM87.43,0l.3-1.733.647-.546L89.613,0h2.438L89.937-3.517l3.085-2.577H90.413L88.166-4.17,89-8.937H87L85.43,0Z" transform="translate(856.658 888.072)" fill="#002856"/><path d="M3.123,0l.819-4.659L5.167-.508h1.4L9.249-4.659,8.43,0h2.088l1.517-8.62H9.9L6.3-3,4.691-8.62H2.552L1.035,0ZM15.592.127a3.355,3.355,0,0,0,3.466-2.672l.622-3.548h-2l-.6,3.4a1.158,1.158,0,0,1-1.168,1,.762.762,0,0,1-.749-1l.6-3.4h-2l-.628,3.586C12.869-1,13.789.127,15.592.127ZM22.455,0l.6-3.39a1.2,1.2,0,0,1,1.193-1,.8.8,0,0,1,.844,1L24.493,0h2l.7-3.961a1.792,1.792,0,0,0-1.854-2.26,2.823,2.823,0,0,0-2.025.768l.051-.641H21.529L20.456,0Zm8.279.127a3,3,0,0,0,1.9-.6L32.614,0H34.55l1.574-8.937H34.181l-.616,3.485a1.828,1.828,0,0,0-1.708-.768,3.6,3.6,0,0,0-3.409,3.187C28.132-1.219,29.014.127,30.735.127Zm-.267-3.174a1.609,1.609,0,0,1,1.587-1.384,1.066,1.066,0,0,1,1.06,1.384,1.615,1.615,0,0,1-1.549,1.384A1.083,1.083,0,0,1,30.468-3.047Zm8.368-3.828a1.3,1.3,0,0,0,1.295-1.092.862.862,0,0,0-.908-1.1,1.3,1.3,0,0,0-1.289,1.1A.858.858,0,0,0,38.836-6.875ZM36.659,0h2l1.073-6.094h-2Zm6.489.127a3,3,0,0,0,1.9-.6L45.027,0h1.936l1.073-6.094H46.093l-.114.641a1.828,1.828,0,0,0-1.708-.768,3.6,3.6,0,0,0-3.409,3.187C40.546-1.219,41.428.127,43.148.127Zm-.267-3.174a1.609,1.609,0,0,1,1.587-1.384,1.066,1.066,0,0,1,1.06,1.384A1.615,1.615,0,0,1,43.98-1.663,1.083,1.083,0,0,1,42.881-3.047ZM50.862.127a4.185,4.185,0,0,0,1.327-.19l.19-1.568a2.592,2.592,0,0,1-.565.07q-.524,0-.438-.476l1.212-6.9h-2L49.314-1.688C49.079-.368,49.726.127,50.862.127ZM56.915,0h4.316a2.98,2.98,0,0,0,3.1-2.355A1.631,1.631,0,0,0,63.25-4.361,2.731,2.731,0,0,0,64.8-6.322c.248-1.428-.73-2.3-2.336-2.3H58.433Zm3.3-6.875h1.555a.73.73,0,0,1,.793.882,1.053,1.053,0,0,1-1.041.882H59.905Zm-.908,5.135.317-1.771h1.7a.729.729,0,0,1,.793.9,1.129,1.129,0,0,1-1.111.876ZM67.429.127a4.185,4.185,0,0,0,1.327-.19l.19-1.568a2.592,2.592,0,0,1-.565.07q-.524,0-.438-.476l1.212-6.9h-2L65.88-1.688C65.645-.368,66.293.127,67.429.127Zm4.871,0a3,3,0,0,0,1.9-.6L74.178,0h1.936l1.073-6.094H75.245l-.114.641a1.828,1.828,0,0,0-1.708-.768,3.6,3.6,0,0,0-3.409,3.187C69.7-1.219,70.579.127,72.3.127Zm-.267-3.174A1.609,1.609,0,0,1,73.62-4.431a1.066,1.066,0,0,1,1.06,1.384,1.615,1.615,0,0,1-1.549,1.384A1.083,1.083,0,0,1,72.033-3.047ZM80.96.127A4.007,4.007,0,0,0,84.152-1.46l-1.32-1.1a1.911,1.911,0,0,1-1.485.87,1.047,1.047,0,0,1-1.054-1.352,1.581,1.581,0,0,1,1.53-1.333,1.1,1.1,0,0,1,1.13.889l1.733-1.1a2.572,2.572,0,0,0-2.539-1.631,3.893,3.893,0,0,0-3.834,3.174A2.527,2.527,0,0,0,80.96.127ZM87.43,0l.3-1.733.647-.546L89.613,0h2.438L89.937-3.517l3.085-2.577H90.413L88.166-4.17,89-8.937H87L85.43,0Zm12.889-8.62H98.231L96.714,0H98.8Zm.814,4.158h.971L101.7-2.171c-.286,1.625.6,2.3,2,2.3a4.364,4.364,0,0,0,1.682-.343l.146-1.625a3.261,3.261,0,0,1-1.022.209c-.527,0-.863-.2-.749-.863l.349-1.968h1.784l.286-1.631h-1.847l.349-1.955H102.74l-.349,1.955h-.971ZM108.956.127a3,3,0,0,0,1.9-.6l-.019.47h1.936l1.073-6.094H111.9l-.114.641a1.828,1.828,0,0,0-1.708-.768,3.6,3.6,0,0,0-3.409,3.187C106.353-1.219,107.236.127,108.956.127Zm-.267-3.174a1.609,1.609,0,0,1,1.587-1.384,1.066,1.066,0,0,1,1.06,1.384,1.615,1.615,0,0,1-1.549,1.384A1.083,1.083,0,0,1,108.689-3.047ZM116.67.127A4.185,4.185,0,0,0,118-.063l.19-1.568a2.592,2.592,0,0,1-.565.07q-.524,0-.438-.476l1.212-6.9h-2l-1.276,7.249C114.886-.368,115.534.127,116.67.127Zm4.75-7a1.3,1.3,0,0,0,1.295-1.092.862.862,0,0,0-.908-1.1,1.3,1.3,0,0,0-1.289,1.1A.858.858,0,0,0,121.42-6.875ZM119.243,0h2l1.073-6.094h-2Zm6.845.127A4.007,4.007,0,0,0,129.28-1.46l-1.32-1.1a1.911,1.911,0,0,1-1.485.87,1.047,1.047,0,0,1-1.054-1.352,1.581,1.581,0,0,1,1.53-1.333,1.1,1.1,0,0,1,1.13.889l1.733-1.1a2.572,2.572,0,0,0-2.539-1.631,3.893,3.893,0,0,0-3.834,3.174A2.527,2.527,0,0,0,126.087.127Z" transform="translate(856.658 904.074)" fill="#002856"/></g></svg>