<svg xmlns="http://www.w3.org/2000/svg" width="332.299" height="366.633" viewBox="0 0 332.299 366.633"><g transform="translate(-678 -1573.15)"><g transform="translate(549.217 1995.479)"><path d="M9.844,0l-1.6-4.087H3.094L1.512,0H0L5.08-12.9H6.337L11.391,0ZM7.778-5.432,6.284-9.413q-.29-.756-.6-1.854a16.653,16.653,0,0,1-.554,1.854L3.621-5.432Zm6.927-7.418h3.63a6.849,6.849,0,0,1,3.7.765,2.7,2.7,0,0,1,1.143,2.417,2.793,2.793,0,0,1-.637,1.885,3.068,3.068,0,0,1-1.859.962v.088q2.927.5,2.927,3.076A3.3,3.3,0,0,1,22.444-.967,4.957,4.957,0,0,1,19.188,0H14.705Zm1.494,5.5H18.66a4.006,4.006,0,0,0,2.276-.5,1.917,1.917,0,0,0,.694-1.674,1.694,1.694,0,0,0-.773-1.56,4.833,4.833,0,0,0-2.461-.479H16.2Zm0,1.266v4.808H18.88a3.818,3.818,0,0,0,2.342-.6,2.223,2.223,0,0,0,.787-1.885,2,2,0,0,0-.8-1.758,4.3,4.3,0,0,0-2.448-.562ZM33.418-11.7a4.2,4.2,0,0,0-3.344,1.411,5.69,5.69,0,0,0-1.226,3.863,5.8,5.8,0,0,0,1.182,3.9A4.2,4.2,0,0,0,33.4-1.151a11.508,11.508,0,0,0,3.067-.483v1.31a9.446,9.446,0,0,1-3.3.5,5.576,5.576,0,0,1-4.381-1.723,7.094,7.094,0,0,1-1.542-4.9,7.727,7.727,0,0,1,.743-3.48,5.332,5.332,0,0,1,2.145-2.3,6.491,6.491,0,0,1,3.3-.809,7.963,7.963,0,0,1,3.533.738l-.633,1.283A6.81,6.81,0,0,0,33.418-11.7Zm17.658,5.15A6.487,6.487,0,0,1,49.35-1.683,6.833,6.833,0,0,1,44.379,0H40.82V-12.85h3.938a6.3,6.3,0,0,1,4.658,1.661A6.273,6.273,0,0,1,51.077-6.548ZM49.495-6.5a5.173,5.173,0,0,0-1.261-3.788,5.054,5.054,0,0,0-3.749-1.274H42.314V-1.292h1.819A5.532,5.532,0,0,0,48.15-2.606,5.2,5.2,0,0,0,49.495-6.5ZM62.653,0H55.49V-12.85h7.163v1.327H56.984v4.14H62.31v1.318H56.984v4.729h5.669Zm5.89,0H67.049V-12.85h7.163v1.327H68.543v4.7h5.326v1.327H68.543Zm15-6.732h4.368V-.483a14.043,14.043,0,0,1-2.074.492,15.791,15.791,0,0,1-2.443.167A5.922,5.922,0,0,1,78.845-1.56a6.841,6.841,0,0,1-1.626-4.865,7.35,7.35,0,0,1,.8-3.511,5.439,5.439,0,0,1,2.316-2.3,7.5,7.5,0,0,1,3.542-.8,9.68,9.68,0,0,1,3.832.756l-.58,1.318a8.561,8.561,0,0,0-3.349-.738,4.8,4.8,0,0,0-3.665,1.4A5.424,5.424,0,0,0,78.8-6.425a5.543,5.543,0,0,0,1.27,3.946A4.891,4.891,0,0,0,83.8-1.134a11.085,11.085,0,0,0,2.61-.308V-5.4H83.538ZM102.295,0H100.8V-6.047H94.033V0H92.539V-12.85h1.494v5.467H100.8V-12.85h1.494Zm5.072,0V-12.85h1.494V0Zm4.694,3.384a2.947,2.947,0,0,1-1.3-.237V1.872a4.775,4.775,0,0,0,1.3.176,1.647,1.647,0,0,0,1.323-.527A2.271,2.271,0,0,0,113.837,0V-12.85h1.494V-.123a3.686,3.686,0,0,1-.844,2.588A3.129,3.129,0,0,1,112.062,3.384ZM129.571,0h-1.758l-4.685-6.231-1.345,1.2V0H120.29V-12.85h1.494v6.372l5.827-6.372h1.767L124.21-7.269Zm3.315,0V-12.85h1.494v11.5h5.669V0Zm16.577,0L145.1-11.391h-.07q.123,1.354.123,3.217V0h-1.38V-12.85h2.25L150.1-2.25h.07l4.1-10.6H156.5V0h-1.494V-8.279q0-1.424.123-3.094h-.07L150.667,0Zm22.15,0h-1.705l-7.022-10.784h-.07q.141,1.9.141,3.48V0h-1.38V-12.85h1.688l7,10.74h.07q-.018-.237-.079-1.525t-.044-1.841V-12.85h1.4Zm16.235-6.442a7.074,7.074,0,0,1-1.56,4.852A5.485,5.485,0,0,1,181.949.176a5.554,5.554,0,0,1-4.381-1.736,7.132,7.132,0,0,1-1.542-4.9,7.042,7.042,0,0,1,1.547-4.865,5.593,5.593,0,0,1,4.395-1.727,5.474,5.474,0,0,1,4.324,1.758A7.067,7.067,0,0,1,187.847-6.442Zm-10.239,0a6.1,6.1,0,0,0,1.112,3.959,3.945,3.945,0,0,0,3.23,1.349,3.907,3.907,0,0,0,3.226-1.345,6.183,6.183,0,0,0,1.09-3.964,6.134,6.134,0,0,0-1.085-3.933,3.89,3.89,0,0,0-3.212-1.34,3.966,3.966,0,0,0-3.248,1.349A6.036,6.036,0,0,0,177.608-6.442Zm22.8-2.663a3.6,3.6,0,0,1-1.332,3,6.032,6.032,0,0,1-3.81,1.05h-1.512V0H192.26V-12.85h3.331Q200.408-12.85,200.408-9.105Zm-6.653,2.769H195.1a5,5,0,0,0,2.874-.642,2.365,2.365,0,0,0,.888-2.057,2.217,2.217,0,0,0-.835-1.9,4.362,4.362,0,0,0-2.6-.624h-1.67ZM215.8-6.442a7.786,7.786,0,0,1-.993,4.1A4.951,4.951,0,0,1,212-.123l3.059,3.182h-2.171l-2.5-2.9L209.9.176A5.554,5.554,0,0,1,205.52-1.56a7.132,7.132,0,0,1-1.542-4.9,7.042,7.042,0,0,1,1.547-4.865,5.593,5.593,0,0,1,4.395-1.727,5.474,5.474,0,0,1,4.324,1.758A7.067,7.067,0,0,1,215.8-6.442Zm-10.239,0a6.1,6.1,0,0,0,1.112,3.959,3.945,3.945,0,0,0,3.23,1.349,3.907,3.907,0,0,0,3.226-1.345,6.183,6.183,0,0,0,1.09-3.964,6.134,6.134,0,0,0-1.085-3.933,3.89,3.89,0,0,0-3.212-1.34,3.966,3.966,0,0,0-3.248,1.349A6.036,6.036,0,0,0,205.559-6.442Zm16.147,1.1V0h-1.494V-12.85h3.524a5.546,5.546,0,0,1,3.494.905,3.282,3.282,0,0,1,1.129,2.725,3.413,3.413,0,0,1-2.584,3.445L229.264,0H227.5l-3.111-5.344Zm0-1.283h2.048a3.536,3.536,0,0,0,2.32-.628,2.338,2.338,0,0,0,.738-1.885,2.145,2.145,0,0,0-.751-1.837,4.071,4.071,0,0,0-2.413-.562h-1.942Zm18.432,3.208a3.152,3.152,0,0,1-1.23,2.646,5.335,5.335,0,0,1-3.34.949,8.365,8.365,0,0,1-3.516-.589V-1.854a9.256,9.256,0,0,0,1.723.527,9.063,9.063,0,0,0,1.846.193,3.724,3.724,0,0,0,2.25-.567,1.86,1.86,0,0,0,.756-1.578,2.025,2.025,0,0,0-.268-1.094,2.49,2.49,0,0,0-.9-.787,12.542,12.542,0,0,0-1.912-.817A6.1,6.1,0,0,1,232.988-7.5a3.357,3.357,0,0,1-.769-2.294,2.853,2.853,0,0,1,1.116-2.364,4.639,4.639,0,0,1,2.953-.879,8.7,8.7,0,0,1,3.524.7l-.466,1.3a7.965,7.965,0,0,0-3.094-.668,2.994,2.994,0,0,0-1.854.51,1.68,1.68,0,0,0-.668,1.415,2.169,2.169,0,0,0,.246,1.094,2.317,2.317,0,0,0,.831.782,10.32,10.32,0,0,0,1.789.787,7.081,7.081,0,0,1,2.782,1.547A3.042,3.042,0,0,1,240.137-3.419ZM248.268,0h-1.494V-11.522h-4.069V-12.85h9.633v1.327h-4.069Zm17.254-12.85v8.314A4.529,4.529,0,0,1,264.2-1.081,5.09,5.09,0,0,1,260.548.176a4.865,4.865,0,0,1-3.59-1.266,4.694,4.694,0,0,1-1.27-3.48V-12.85h1.494v8.385A3.3,3.3,0,0,0,258.061-2a3.547,3.547,0,0,0,2.584.861A3.419,3.419,0,0,0,263.15-2a3.33,3.33,0,0,0,.879-2.483V-12.85Zm12.288,0h1.608L274.787,0h-1.477l-4.605-12.85h1.582l2.953,8.314a23.32,23.32,0,0,1,.809,2.786,23.257,23.257,0,0,1,.826-2.839ZM293.949,0h-1.477l-2.593-8.6q-.185-.571-.413-1.441a8.407,8.407,0,0,1-.237-1.046,20.015,20.015,0,0,1-.615,2.54L286.1,0h-1.477L281.2-12.85h1.582l2.03,7.937a29.517,29.517,0,0,1,.615,3.023,21.835,21.835,0,0,1,.7-3.146l2.3-7.813h1.582l2.417,7.884a23.966,23.966,0,0,1,.712,3.076,26.352,26.352,0,0,1,.633-3.041L295.8-12.85h1.582ZM309.5,0h-1.7l-3.454-5.651L300.832,0H299.25l4.271-6.715L299.54-12.85h1.652l3.19,5.089L307.6-12.85h1.591l-3.981,6.082Zm6.654-6.425,3.428-6.425H321.2l-4.289,7.866V0H315.4V-4.913l-4.28-7.937h1.635ZM332.3,0h-8.833V-1.169l6.82-10.336h-6.609V-12.85h8.429v1.169l-6.82,10.327H332.3Z" transform="translate(128.784 -216.738)" fill="#002856"/><path d="M7.471,0l-.29-1.371H7.11A4.053,4.053,0,0,1,5.673-.145,4.38,4.38,0,0,1,3.885.176,3.217,3.217,0,0,1,1.639-.562a2.693,2.693,0,0,1-.813-2.1q0-2.918,4.667-3.059l1.635-.053v-.6A2.442,2.442,0,0,0,6.64-8.046a2.006,2.006,0,0,0-1.56-.541,6.357,6.357,0,0,0-2.725.738L1.907-8.965a6.856,6.856,0,0,1,1.56-.606,6.757,6.757,0,0,1,1.7-.22,3.669,3.669,0,0,1,2.553.765,3.192,3.192,0,0,1,.831,2.452V0Zm-3.3-1.028a2.961,2.961,0,0,0,2.14-.747,2.764,2.764,0,0,0,.778-2.092v-.87l-1.459.062a5.307,5.307,0,0,0-2.509.541,1.63,1.63,0,0,0-.769,1.49,1.5,1.5,0,0,0,.479,1.2A1.988,1.988,0,0,0,4.175-1.028ZM17.48-9.791a3.581,3.581,0,0,1,2.949,1.3,5.69,5.69,0,0,1,1.05,3.669A5.732,5.732,0,0,1,20.42-1.138,3.566,3.566,0,0,1,17.48.176a4.169,4.169,0,0,1-1.718-.347,3.231,3.231,0,0,1-1.305-1.068h-.105L14.044,0H13V-13.676h1.459v3.322q0,1.116-.07,2h.07A3.463,3.463,0,0,1,17.48-9.791Zm-.211,1.222a2.547,2.547,0,0,0-2.153.857,4.834,4.834,0,0,0-.659,2.887,4.821,4.821,0,0,0,.677,2.9,2.574,2.574,0,0,0,2.171.875,2.25,2.25,0,0,0,2-.98,5.037,5.037,0,0,0,.659-2.817,4.84,4.84,0,0,0-.659-2.8A2.336,2.336,0,0,0,17.269-8.569ZM29.318.176a4.111,4.111,0,0,1-3.239-1.288,5.3,5.3,0,0,1-1.147-3.643A5.46,5.46,0,0,1,26.1-8.49a4.193,4.193,0,0,1,3.318-1.318,6.584,6.584,0,0,1,1.389.149,4.575,4.575,0,0,1,1.09.352l-.448,1.239a6.86,6.86,0,0,0-1.055-.321,4.709,4.709,0,0,0-1.011-.127q-2.936,0-2.936,3.744a4.458,4.458,0,0,0,.716,2.725,2.492,2.492,0,0,0,2.123.949,6.49,6.49,0,0,0,2.47-.519V-.325A5.264,5.264,0,0,1,29.318.176ZM42.034-1.292h-.079A3.428,3.428,0,0,1,38.931.176a3.577,3.577,0,0,1-2.94-1.292,5.687,5.687,0,0,1-1.05-3.674A5.783,5.783,0,0,1,36-8.49a3.549,3.549,0,0,1,2.936-1.318,3.5,3.5,0,0,1,3.006,1.424h.114l-.062-.694-.035-.677v-3.92h1.459V0H42.227Zm-2.918.246a2.656,2.656,0,0,0,2.167-.813,4.108,4.108,0,0,0,.672-2.624V-4.79a4.834,4.834,0,0,0-.681-2.922A2.587,2.587,0,0,0,39.1-8.587a2.233,2.233,0,0,0-1.964,1,4.96,4.96,0,0,0-.681,2.817,4.755,4.755,0,0,0,.677,2.786A2.292,2.292,0,0,0,39.116-1.046ZM52.017.176a4.426,4.426,0,0,1-3.371-1.3,5.036,5.036,0,0,1-1.235-3.612,5.585,5.585,0,0,1,1.147-3.7,3.81,3.81,0,0,1,3.081-1.371A3.633,3.633,0,0,1,54.5-8.618a4.564,4.564,0,0,1,1.055,3.142v.923H48.923a3.818,3.818,0,0,0,.857,2.575,2.964,2.964,0,0,0,2.29.879,7.759,7.759,0,0,0,3.076-.65v1.3a7.721,7.721,0,0,1-1.463.479A8.224,8.224,0,0,1,52.017.176Zm-.4-8.763a2.383,2.383,0,0,0-1.85.756,3.484,3.484,0,0,0-.813,2.092h5.036a3.208,3.208,0,0,0-.615-2.114A2.165,2.165,0,0,0,51.621-8.587ZM63.828-8.5H61.376V0H59.917V-8.5H58.194v-.659l1.723-.527v-.536q0-3.551,3.1-3.551a6.384,6.384,0,0,1,1.793.308L64.434-12.3a4.826,4.826,0,0,0-1.441-.272,1.4,1.4,0,0,0-1.222.549,3.066,3.066,0,0,0-.4,1.762v.624h2.452ZM74.91-9.633v.923L73.125-8.5a3.067,3.067,0,0,1,.439.8,3.068,3.068,0,0,1,.193,1.121,2.848,2.848,0,0,1-.967,2.259,3.9,3.9,0,0,1-2.654.844,4.42,4.42,0,0,1-.809-.07A1.436,1.436,0,0,0,68.4-2.3a.63.63,0,0,0,.325.584,2.376,2.376,0,0,0,1.116.189h1.705a3.818,3.818,0,0,1,2.4.659,2.29,2.29,0,0,1,.839,1.916A2.735,2.735,0,0,1,73.5,3.485a6.868,6.868,0,0,1-3.744.839,5.115,5.115,0,0,1-2.914-.7,2.27,2.27,0,0,1-1.024-1.986A2.231,2.231,0,0,1,66.384.114a2.864,2.864,0,0,1,1.582-.87,1.526,1.526,0,0,1-.62-.519,1.372,1.372,0,0,1-.25-.817,1.551,1.551,0,0,1,.281-.923,2.957,2.957,0,0,1,.888-.765,2.6,2.6,0,0,1-1.217-1.046,3.073,3.073,0,0,1-.47-1.687,3.117,3.117,0,0,1,.949-2.439,3.875,3.875,0,0,1,2.689-.857,4.891,4.891,0,0,1,1.362.176ZM67.228,1.617A1.307,1.307,0,0,0,67.887,2.8a3.638,3.638,0,0,0,1.89.4,5.273,5.273,0,0,0,2.72-.549,1.682,1.682,0,0,0,.883-1.49A1.179,1.179,0,0,0,72.9.083a3.754,3.754,0,0,0-1.819-.3H69.328a2.3,2.3,0,0,0-1.547.475A1.7,1.7,0,0,0,67.228,1.617Zm.791-8.165a1.961,1.961,0,0,0,.571,1.529,2.281,2.281,0,0,0,1.591.519,1.861,1.861,0,0,0,2.136-2.074,1.915,1.915,0,0,0-2.162-2.171,2.141,2.141,0,0,0-1.582.554A2.23,2.23,0,0,0,68.019-6.548ZM84.919,0V-6.231a2.514,2.514,0,0,0-.536-1.758,2.184,2.184,0,0,0-1.679-.58,2.751,2.751,0,0,0-2.219.826,4.184,4.184,0,0,0-.7,2.707V0H78.327V-13.676h1.459v4.14a9.02,9.02,0,0,1-.07,1.239H79.8A2.976,2.976,0,0,1,81.03-9.391a3.986,3.986,0,0,1,1.815-.4,3.717,3.717,0,0,1,2.65.839,3.535,3.535,0,0,1,.883,2.667V0Zm7.355,0H90.815V-9.633h1.459ZM90.692-12.243a.969.969,0,0,1,.246-.734.86.86,0,0,1,.615-.233.86.86,0,0,1,.606.237.951.951,0,0,1,.255.729.966.966,0,0,1-.255.734.851.851,0,0,1-.606.242.843.843,0,0,1-.615-.242A.987.987,0,0,1,90.692-12.243ZM95.639,4.324a3.512,3.512,0,0,1-1.354-.22V2.918a4.279,4.279,0,0,0,1.2.176,1.257,1.257,0,0,0,1.006-.374,1.713,1.713,0,0,0,.321-1.138V-9.633h1.459V1.477Q98.267,4.324,95.639,4.324Zm1.046-16.567a.969.969,0,0,1,.246-.734.86.86,0,0,1,.615-.233.86.86,0,0,1,.606.237.951.951,0,0,1,.255.729.966.966,0,0,1-.255.734.851.851,0,0,1-.606.242.843.843,0,0,1-.615-.242A.987.987,0,0,1,96.685-12.243Zm7.557,7.313a17.158,17.158,0,0,1,1.151-1.406l3.111-3.3h1.731l-3.9,4.1L110.508,0h-1.767l-3.4-4.553-1.1.949V0H102.8V-13.676h1.441v7.251q0,.483-.07,1.494ZM115.148,0h-1.459V-13.676h1.459ZM131.96,0V-6.267a2.6,2.6,0,0,0-.492-1.727,1.9,1.9,0,0,0-1.529-.576,2.469,2.469,0,0,0-2.013.782,3.718,3.718,0,0,0-.65,2.408V0h-1.459V-6.267a2.6,2.6,0,0,0-.492-1.727,1.915,1.915,0,0,0-1.538-.576,2.382,2.382,0,0,0-2.008.822,4.447,4.447,0,0,0-.637,2.694V0h-1.459V-9.633h1.187l.237,1.318h.07a2.867,2.867,0,0,1,1.165-1.1,3.558,3.558,0,0,1,1.683-.4,2.862,2.862,0,0,1,2.953,1.635h.07a3.072,3.072,0,0,1,1.248-1.2,3.873,3.873,0,0,1,1.863-.439,3.262,3.262,0,0,1,2.448.839,3.755,3.755,0,0,1,.813,2.685V0Zm12.5,0V-6.231a2.514,2.514,0,0,0-.536-1.758,2.184,2.184,0,0,0-1.679-.58,2.769,2.769,0,0,0-2.215.817,4.127,4.127,0,0,0-.7,2.7V0h-1.459V-9.633h1.187l.237,1.318h.07a2.979,2.979,0,0,1,1.257-1.1,4.084,4.084,0,0,1,1.8-.391,3.659,3.659,0,0,1,2.619.839,3.572,3.572,0,0,1,.879,2.685V0Zm14.211-4.825a5.314,5.314,0,0,1-1.187,3.678A4.179,4.179,0,0,1,154.2.176a4.342,4.342,0,0,1-2.294-.606,4,4,0,0,1-1.547-1.74,6.065,6.065,0,0,1-.545-2.654,5.306,5.306,0,0,1,1.178-3.669,4.165,4.165,0,0,1,3.27-1.314,4.075,4.075,0,0,1,3.212,1.345A5.291,5.291,0,0,1,158.667-4.825Zm-7.339,0a4.572,4.572,0,0,0,.738,2.813,2.563,2.563,0,0,0,2.171.967,2.58,2.58,0,0,0,2.175-.962,4.549,4.549,0,0,0,.743-2.817,4.476,4.476,0,0,0-.743-2.791,2.609,2.609,0,0,0-2.193-.954,2.568,2.568,0,0,0-2.162.94A4.526,4.526,0,0,0,151.328-4.825Zm15.819,5a4.169,4.169,0,0,1-1.718-.347,3.231,3.231,0,0,1-1.305-1.068h-.105a12.921,12.921,0,0,1,.105,1.6V4.324h-1.459V-9.633h1.187l.2,1.318h.07a3.388,3.388,0,0,1,1.31-1.143,3.981,3.981,0,0,1,1.714-.352A3.56,3.56,0,0,1,170.1-8.5a5.766,5.766,0,0,1,1.042,3.674,5.732,5.732,0,0,1-1.059,3.687A3.566,3.566,0,0,1,167.147.176Zm-.211-8.745a2.585,2.585,0,0,0-2.136.817,4.206,4.206,0,0,0-.677,2.6v.325a4.821,4.821,0,0,0,.677,2.9,2.574,2.574,0,0,0,2.171.875,2.257,2.257,0,0,0,1.956-1.011,4.793,4.793,0,0,0,.708-2.786,4.613,4.613,0,0,0-.708-2.764A2.327,2.327,0,0,0,166.936-8.569Zm11.837,7.523a2.65,2.65,0,0,0,2.127-.782,4.237,4.237,0,0,0,.712-2.637V-4.79a4.818,4.818,0,0,0-.686-2.909,2.571,2.571,0,0,0-2.171-.888,2.233,2.233,0,0,0-1.964,1,4.96,4.96,0,0,0-.681,2.817A4.79,4.79,0,0,0,176.783-2,2.278,2.278,0,0,0,178.773-1.046Zm-.22,1.222a3.515,3.515,0,0,1-2.909-1.31A5.717,5.717,0,0,1,174.6-4.79a5.79,5.79,0,0,1,1.055-3.691,3.539,3.539,0,0,1,2.936-1.327,3.508,3.508,0,0,1,3.041,1.494h.079l.211-1.318h1.151V4.324h-1.459V.2a9.817,9.817,0,0,1,.1-1.494h-.114A3.446,3.446,0,0,1,178.554.176ZM192-9.809a5.709,5.709,0,0,1,1.151.105l-.2,1.354a4.97,4.97,0,0,0-1.055-.132,2.567,2.567,0,0,0-2,.949,3.461,3.461,0,0,0-.831,2.364V0h-1.459V-9.633h1.2l.167,1.784h.07a4.234,4.234,0,0,1,1.292-1.45A2.908,2.908,0,0,1,192-9.809Zm10.607,7.181a2.413,2.413,0,0,1-1,2.074,4.71,4.71,0,0,1-2.812.729A6.116,6.116,0,0,1,195.8-.431V-1.784a7.227,7.227,0,0,0,1.49.554,6.221,6.221,0,0,0,1.534.2,3.478,3.478,0,0,0,1.758-.365A1.206,1.206,0,0,0,201.2-2.5a1.207,1.207,0,0,0-.488-.962,7.673,7.673,0,0,0-1.9-.945,10.318,10.318,0,0,1-1.912-.875,2.611,2.611,0,0,1-.844-.848,2.212,2.212,0,0,1-.277-1.134,2.161,2.161,0,0,1,.958-1.859,4.464,4.464,0,0,1,2.628-.681,7.689,7.689,0,0,1,3.041.633l-.519,1.187a6.98,6.98,0,0,0-2.628-.6,3.023,3.023,0,0,0-1.564.325,1.006,1.006,0,0,0-.527.9,1.092,1.092,0,0,0,.2.659,1.952,1.952,0,0,0,.637.519,14.24,14.24,0,0,0,1.688.712A6.3,6.3,0,0,1,202-4.219,2.216,2.216,0,0,1,202.607-2.628Zm6.924,1.6a4.766,4.766,0,0,0,.747-.057,4.836,4.836,0,0,0,.571-.119V-.088a2.667,2.667,0,0,1-.7.189,5.247,5.247,0,0,1-.831.075q-2.795,0-2.795-2.944V-8.5h-1.38v-.7l1.38-.606.615-2.057h.844v2.232h2.795V-8.5h-2.795V-2.83a1.95,1.95,0,0,0,.413,1.336A1.438,1.438,0,0,0,209.531-1.028Zm6.054-8.6v6.249a2.514,2.514,0,0,0,.536,1.758,2.184,2.184,0,0,0,1.679.58,2.739,2.739,0,0,0,2.21-.826,4.168,4.168,0,0,0,.7-2.7V-9.633h1.459V0h-1.2l-.211-1.292h-.079A2.908,2.908,0,0,1,219.43-.2a4.18,4.18,0,0,1-1.815.378,3.682,3.682,0,0,1-2.632-.835,3.554,3.554,0,0,1-.875-2.672v-6.3ZM228.811,0l-3.656-9.633h1.564l2.074,5.713a27.04,27.04,0,0,1,.826,2.6h.07a19.65,19.65,0,0,1,.611-1.929q.514-1.463,2.307-6.385h1.564L230.516,0Zm16.214,0-1.767-5.651q-.167-.519-.624-2.355h-.07q-.352,1.538-.615,2.373L240.13,0h-1.687l-2.628-9.633h1.529L238.764-4.1a22.4,22.4,0,0,1,.558,2.558h.07q.1-.5.312-1.3t.374-1.261l1.767-5.528h1.582L245.149-4.1a18.659,18.659,0,0,1,.668,2.54h.07a9.316,9.316,0,0,1,.189-.976q.154-.659,1.833-7.093h1.512L246.757,0Zm9.9-4.931-3.349-4.7h1.661l2.54,3.691L258.3-9.633h1.644l-3.349,4.7L260.124,0h-1.652l-2.7-3.9L253.049,0H251.4Zm7.021-4.7h1.564l2.109,5.493a20.894,20.894,0,0,1,.861,2.716h.07q.114-.448.479-1.534t2.386-6.675h1.564l-4.14,10.969A5.472,5.472,0,0,1,265.4,3.643a3.056,3.056,0,0,1-2.017.681,5.87,5.87,0,0,1-1.318-.149V3.006a5.086,5.086,0,0,0,1.081.105,2.228,2.228,0,0,0,2.145-1.687l.536-1.371ZM280.143,0h-6.987V-.993L278.411-8.5H273.48V-9.633h6.53V-8.5l-5.186,7.365h5.317Z" transform="translate(128.784 -192.744)" fill="#002856"/><path d="M6.284,0H4.86V-9.158q0-1.143.07-2.162-.185.185-.413.387T2.426-9.22l-.773-1,3.4-2.628h1.23ZM19.851,0H11.4V-1.257l3.384-3.4a24.917,24.917,0,0,0,2.039-2.232,5.7,5.7,0,0,0,.738-1.3,3.726,3.726,0,0,0,.246-1.362,2.16,2.16,0,0,0-.624-1.63,2.39,2.39,0,0,0-1.731-.6,4.354,4.354,0,0,0-1.516.264,6.043,6.043,0,0,0-1.6.958l-.773-.993a5.924,5.924,0,0,1,3.867-1.477,4.086,4.086,0,0,1,2.839.927,3.189,3.189,0,0,1,1.028,2.492A4.812,4.812,0,0,1,18.621-7.2a15.345,15.345,0,0,1-2.566,3.023L13.242-1.424v.07h6.609ZM29.894-9.826a2.93,2.93,0,0,1-.69,2.013,3.454,3.454,0,0,1-1.956,1.046v.07a3.678,3.678,0,0,1,2.294.984,2.9,2.9,0,0,1,.747,2.074A3.365,3.365,0,0,1,29.015-.813a5.8,5.8,0,0,1-3.621.989A10.5,10.5,0,0,1,23.526.022a6.392,6.392,0,0,1-1.648-.541V-1.907a8.013,8.013,0,0,0,1.78.628,8.06,8.06,0,0,0,1.789.215q3.331,0,3.331-2.61,0-2.338-3.674-2.338H23.838V-7.269h1.283A3.864,3.864,0,0,0,27.5-7.932a2.177,2.177,0,0,0,.879-1.841,1.815,1.815,0,0,0-.646-1.477,2.662,2.662,0,0,0-1.753-.536,5.41,5.41,0,0,0-1.591.229,7.119,7.119,0,0,0-1.705.844l-.738-.984a6.155,6.155,0,0,1,1.824-.98,6.628,6.628,0,0,1,2.175-.356,4.445,4.445,0,0,1,2.909.857A2.886,2.886,0,0,1,29.894-9.826ZM41.51-2.953H39.6V0H38.2V-2.953H31.956V-4.228l6.1-8.692H39.6v8.64H41.51ZM38.2-4.28V-8.552q0-1.257.088-2.839h-.07a13.207,13.207,0,0,1-.791,1.4L33.415-4.28ZM47-7.849a4.725,4.725,0,0,1,3.195,1.006,3.451,3.451,0,0,1,1.165,2.755,3.979,3.979,0,0,1-1.27,3.129,5.073,5.073,0,0,1-3.5,1.134,6.446,6.446,0,0,1-3.313-.694V-1.925a5.036,5.036,0,0,0,1.529.62,7.547,7.547,0,0,0,1.8.224,3.6,3.6,0,0,0,2.4-.729,2.617,2.617,0,0,0,.857-2.109q0-2.689-3.3-2.689a13.123,13.123,0,0,0-2.232.255l-.756-.483.483-6.012h6.39V-11.5H45.312l-.325,3.858A10.241,10.241,0,0,1,47-7.849Zm6.659,2.355q0-3.788,1.472-5.665a5.2,5.2,0,0,1,4.355-1.876,5.8,5.8,0,0,1,1.564.167v1.257a5,5,0,0,0-1.547-.22,3.9,3.9,0,0,0-3.155,1.288,6.6,6.6,0,0,0-1.2,4.047h.105a3.365,3.365,0,0,1,3.059-1.512,3.592,3.592,0,0,1,2.729,1.046,3.943,3.943,0,0,1,1,2.839A4.377,4.377,0,0,1,60.949-.971,3.9,3.9,0,0,1,57.991.176a3.8,3.8,0,0,1-3.164-1.5A6.629,6.629,0,0,1,53.658-5.493Zm4.315,4.43a2.441,2.441,0,0,0,1.938-.787,3.344,3.344,0,0,0,.69-2.272,2.93,2.93,0,0,0-.642-2,2.417,2.417,0,0,0-1.916-.729,3.233,3.233,0,0,0-1.45.325,2.684,2.684,0,0,0-1.05.9,2.072,2.072,0,0,0-.391,1.187A4.069,4.069,0,0,0,55.5-2.76a2.974,2.974,0,0,0,1,1.239A2.486,2.486,0,0,0,57.974-1.063ZM65.661,0l5.326-11.5h-7V-12.85h8.552v1.169L67.278,0ZM78.815-13.034a4.357,4.357,0,0,1,2.786.817,2.726,2.726,0,0,1,1.028,2.259,2.812,2.812,0,0,1-.589,1.731A5.2,5.2,0,0,1,80.159-6.8a6.323,6.323,0,0,1,2.224,1.569,2.953,2.953,0,0,1,.659,1.9A3.188,3.188,0,0,1,81.926-.778a4.557,4.557,0,0,1-3.059.954,4.9,4.9,0,0,1-3.164-.9A3.1,3.1,0,0,1,74.6-3.278q0-2.206,2.689-3.437A4.964,4.964,0,0,1,75.545-8.2a3.15,3.15,0,0,1-.527-1.78A2.712,2.712,0,0,1,76.051-12.2,4.283,4.283,0,0,1,78.815-13.034ZM76.037-3.243A1.989,1.989,0,0,0,76.771-1.6a3.215,3.215,0,0,0,2.061.589,3.07,3.07,0,0,0,2.039-.615A2.09,2.09,0,0,0,81.6-3.313a2.056,2.056,0,0,0-.686-1.516,7,7,0,0,0-2.391-1.288,5.2,5.2,0,0,0-1.9,1.244A2.41,2.41,0,0,0,76.037-3.243Zm2.76-8.6a2.587,2.587,0,0,0-1.723.527,1.748,1.748,0,0,0-.624,1.406,2.013,2.013,0,0,0,.519,1.389,5.415,5.415,0,0,0,1.916,1.16A4.8,4.8,0,0,0,80.665-8.5a2.1,2.1,0,0,0,.523-1.415,1.73,1.73,0,0,0-.637-1.411A2.686,2.686,0,0,0,78.8-11.848ZM93.533-7.365Q93.533.176,87.7.176A5.942,5.942,0,0,1,86.08,0V-1.257a5.168,5.168,0,0,0,1.6.229,3.891,3.891,0,0,0,3.186-1.305,6.6,6.6,0,0,0,1.173-4h-.105A3.128,3.128,0,0,1,90.65-5.225a4.126,4.126,0,0,1-1.8.382,3.623,3.623,0,0,1-2.707-1.02,3.889,3.889,0,0,1-1-2.848,4.362,4.362,0,0,1,1.121-3.164,3.913,3.913,0,0,1,2.949-1.16,3.948,3.948,0,0,1,2.29.672,4.25,4.25,0,0,1,1.507,1.96A7.983,7.983,0,0,1,93.533-7.365Zm-4.324-4.421a2.406,2.406,0,0,0-1.942.809,3.374,3.374,0,0,0-.686,2.25,2.925,2.925,0,0,0,.633,1.991,2.42,2.42,0,0,0,1.925.725,3.336,3.336,0,0,0,1.472-.325,2.658,2.658,0,0,0,1.059-.888A2.048,2.048,0,0,0,92.057-8.4a4.025,4.025,0,0,0-.36-1.705,2.973,2.973,0,0,0-1.006-1.23A2.534,2.534,0,0,0,89.209-11.786Z" transform="translate(128.784 -168.75)" fill="#002856"/><path d="M2.865-3.542H1.942L1.494-12.85H3.313ZM1.336-.932q0-1.2,1.055-1.2a1,1,0,0,1,.787.308,1.284,1.284,0,0,1,.277.888,1.26,1.26,0,0,1-.281.875,1,1,0,0,1-.782.312,1.069,1.069,0,0,1-.756-.277A1.192,1.192,0,0,1,1.336-.932ZM21.815-6.407a6.494,6.494,0,0,1-.387,2.285,3.663,3.663,0,0,1-1.09,1.608,2.492,2.492,0,0,1-1.617.571A1.859,1.859,0,0,1,17.447-2.4a1.834,1.834,0,0,1-.615-1.169h-.07a2.786,2.786,0,0,1-1.006,1.2,2.759,2.759,0,0,1-1.551.431,2.525,2.525,0,0,1-2.061-.9A3.733,3.733,0,0,1,11.4-5.291,4.119,4.119,0,0,1,12.437-8.2a3.538,3.538,0,0,1,2.725-1.121,9.511,9.511,0,0,1,1.354.11,8.542,8.542,0,0,1,1.362.3l-.22,4.131v.193q0,1.564,1.169,1.564a1.481,1.481,0,0,0,1.3-.945,5.236,5.236,0,0,0,.5-2.457,5.74,5.74,0,0,0-.65-2.786,4.482,4.482,0,0,0-1.85-1.841,5.721,5.721,0,0,0-2.755-.646,6.861,6.861,0,0,0-3.41.813,5.4,5.4,0,0,0-2.215,2.32A7.6,7.6,0,0,0,8.983-5.08,5.64,5.64,0,0,0,10.4-.958,5.461,5.461,0,0,0,14.476.483a10.753,10.753,0,0,0,3.832-.756V.9a9.472,9.472,0,0,1-3.832.738A6.716,6.716,0,0,1,9.523-.119a6.6,6.6,0,0,1-1.762-4.9A8.6,8.6,0,0,1,8.7-9.088a6.679,6.679,0,0,1,2.681-2.764,7.991,7.991,0,0,1,3.99-.98,6.959,6.959,0,0,1,3.362.8,5.561,5.561,0,0,1,2.276,2.259A6.885,6.885,0,0,1,21.815-6.407ZM12.727-5.256q0,2.232,1.714,2.232,1.819,0,1.978-2.751l.123-2.294a5.142,5.142,0,0,0-1.38-.176,2.182,2.182,0,0,0-1.789.791A3.38,3.38,0,0,0,12.727-5.256ZM33.39-7.9l-.58,2.988H35.3v1.134H32.6L31.861,0h-1.2L31.4-3.779H28.732L28.011,0h-1.2l.7-3.779h-2.3V-4.913h2.522l.6-2.988H25.9V-9.018H28.53l.721-3.832h1.222l-.721,3.832h2.681l.738-3.832h1.178L33.61-9.018h2.32V-7.9ZM28.943-4.913h2.663l.58-2.988H29.523Zm18.449.967a2.5,2.5,0,0,1-.9,1.973,4.616,4.616,0,0,1-2.5.98V1.046H42.857V-.914a11.585,11.585,0,0,1-1.907-.154,6,6,0,0,1-1.512-.426V-2.865a8.624,8.624,0,0,0,1.683.532,8.263,8.263,0,0,0,1.736.207V-5.994A6.079,6.079,0,0,1,40.33-7.321,2.7,2.7,0,0,1,39.6-9.272a2.344,2.344,0,0,1,.892-1.89,4.343,4.343,0,0,1,2.36-.9v-1.6H43.99v1.582a8.921,8.921,0,0,1,3.12.65l-.457,1.151a8.926,8.926,0,0,0-2.663-.615v3.814a9.989,9.989,0,0,1,2.065.857,2.907,2.907,0,0,1,1.011.958A2.5,2.5,0,0,1,47.392-3.946ZM45.9-3.832a1.385,1.385,0,0,0-.391-1.024,4.173,4.173,0,0,0-1.516-.778v3.419Q45.9-2.479,45.9-3.832ZM41.09-9.29a1.467,1.467,0,0,0,.4,1.072,3.79,3.79,0,0,0,1.371.765v-3.4a2.517,2.517,0,0,0-1.318.549A1.318,1.318,0,0,0,41.09-9.29ZM52.6-9.018a5.893,5.893,0,0,0,.325,2.241,1.1,1.1,0,0,0,1.055.747q1.441,0,1.441-2.988,0-2.971-1.441-2.971a1.094,1.094,0,0,0-1.055.738A5.821,5.821,0,0,0,52.6-9.018Zm4.025,0a5.554,5.554,0,0,1-.672,3.028,2.211,2.211,0,0,1-1.973,1.024,2.158,2.158,0,0,1-1.912-1.046,5.515,5.515,0,0,1-.681-3.006,5.582,5.582,0,0,1,.655-3.006,2.16,2.16,0,0,1,1.938-1.011,2.206,2.206,0,0,1,1.96,1.046A5.409,5.409,0,0,1,56.621-9.018Zm3.709,5.15a5.887,5.887,0,0,0,.325,2.246,1.1,1.1,0,0,0,1.063.743,1.149,1.149,0,0,0,1.09-.734,5.477,5.477,0,0,0,.352-2.254A5.355,5.355,0,0,0,62.808-6.1a1.149,1.149,0,0,0-1.09-.725,1.1,1.1,0,0,0-1.063.725A5.746,5.746,0,0,0,60.33-3.867Zm4.034,0a5.534,5.534,0,0,1-.672,3.019A2.211,2.211,0,0,1,61.718.176,2.152,2.152,0,0,1,59.8-.87a5.553,5.553,0,0,1-.672-3,5.582,5.582,0,0,1,.655-3.006,2.16,2.16,0,0,1,1.938-1.011,2.222,2.222,0,0,1,1.947,1.033A5.316,5.316,0,0,1,64.364-3.867ZM62.1-12.85,54.968,0H53.676L60.8-12.85Zm5.511,8.007,3.814-8.1h.87l4.192,8.1H75.148l-3.27-6.548L68.943-4.843Zm14.854-5.449a2.281,2.281,0,0,0,.316,1.156,7.009,7.009,0,0,0,1.081,1.323,5.724,5.724,0,0,0,1.578-1.217,2.01,2.01,0,0,0,.444-1.288,1.447,1.447,0,0,0-.453-1.1,1.691,1.691,0,0,0-1.208-.426,1.872,1.872,0,0,0-1.27.422A1.423,1.423,0,0,0,82.461-10.292Zm1.362,9.158a4.85,4.85,0,0,0,3.516-1.354L83.5-6.214a8.5,8.5,0,0,0-1.38.989,2.612,2.612,0,0,0-.6.839,2.551,2.551,0,0,0-.193,1.02,2.066,2.066,0,0,0,.681,1.63A2.641,2.641,0,0,0,83.823-1.134Zm-4.008-2.2a3.455,3.455,0,0,1,.611-2.021,6.617,6.617,0,0,1,2.193-1.775A10.529,10.529,0,0,1,81.6-8.394a4.324,4.324,0,0,1-.426-.9,2.986,2.986,0,0,1-.158-.967,2.563,2.563,0,0,1,.861-2.057,3.572,3.572,0,0,1,2.4-.738,3.233,3.233,0,0,1,2.241.734,2.605,2.605,0,0,1,.817,2.043,2.828,2.828,0,0,1-.6,1.736,6.781,6.781,0,0,1-1.978,1.613l3.577,3.437a4.246,4.246,0,0,0,.787-1.279,10.981,10.981,0,0,0,.5-1.6H91.1a8.4,8.4,0,0,1-1.8,3.814L91.927,0H89.914L88.288-1.564A6.754,6.754,0,0,1,86.179-.229a6.732,6.732,0,0,1-2.391.4,4.247,4.247,0,0,1-2.931-.932A3.278,3.278,0,0,1,79.816-3.331ZM99.626-13.676,99.249-10.2l3.5-.976.229,1.6-3.349.272,2.18,2.865-1.512.826L98.748-8.8,97.341-5.616l-1.547-.826,2.127-2.865L94.608-9.58l.255-1.6L98.3-10.2l-.378-3.472Zm6.768,8.745a13.62,13.62,0,0,1,.681-4.359,10.838,10.838,0,0,1,1.964-3.56h1.424a12.392,12.392,0,0,0-1.9,3.727,13.86,13.86,0,0,0-.637,4.175,13.325,13.325,0,0,0,.65,4.122,12.8,12.8,0,0,0,1.872,3.674H109.04a10.358,10.358,0,0,1-1.969-3.489A13.267,13.267,0,0,1,106.394-4.931Zm11.1,0a13.245,13.245,0,0,1-.681,4.307,10.3,10.3,0,0,1-1.964,3.472h-1.406a12.66,12.66,0,0,0,1.872-3.669,13.366,13.366,0,0,0,.65-4.126,13.86,13.86,0,0,0-.637-4.175,12.391,12.391,0,0,0-1.9-3.727h1.424a10.782,10.782,0,0,1,1.969,3.573A13.684,13.684,0,0,1,117.5-4.931Zm10.714,7.7h-8.139V1.617h8.139ZM135.8-6.952h3.621v1.213H135.8V-2h-1.222V-5.739h-3.6V-6.952h3.6v-3.762H135.8Zm8.983,3.41v-.475a3.936,3.936,0,0,1,.316-1.692,4.531,4.531,0,0,1,1.178-1.4,7.949,7.949,0,0,0,1.507-1.521,2.313,2.313,0,0,0,.312-1.23,1.714,1.714,0,0,0-.576-1.384,2.5,2.5,0,0,0-1.657-.488,5.631,5.631,0,0,0-1.354.163,7.339,7.339,0,0,0-1.512.593l-.519-1.187a7.385,7.385,0,0,1,3.472-.87,3.8,3.8,0,0,1,2.61.826,2.95,2.95,0,0,1,.932,2.329,3.4,3.4,0,0,1-.171,1.129,3.316,3.316,0,0,1-.505.923,12.134,12.134,0,0,1-1.441,1.4,5.422,5.422,0,0,0-1.173,1.257,2.692,2.692,0,0,0-.286,1.336v.29Zm-.431,2.61q0-1.2,1.055-1.2a1,1,0,0,1,.787.308,1.284,1.284,0,0,1,.277.888,1.26,1.26,0,0,1-.281.875,1,1,0,0,1-.782.312,1.069,1.069,0,0,1-.756-.277A1.192,1.192,0,0,1,144.356-.932Zm8.842,0a1.309,1.309,0,0,1,.268-.892.972.972,0,0,1,.769-.3,1.04,1.04,0,0,1,.8.3,1.255,1.255,0,0,1,.286.892,1.233,1.233,0,0,1-.29.879,1.035,1.035,0,0,1-.791.308,1.041,1.041,0,0,1-.743-.277A1.2,1.2,0,0,1,153.2-.932Zm0-7.761q0-1.187,1.037-1.187,1.081,0,1.081,1.187a1.233,1.233,0,0,1-.29.879,1.035,1.035,0,0,1-.791.308,1.041,1.041,0,0,1-.743-.277A1.2,1.2,0,0,1,153.2-8.692Zm8.42,6.6.132.2q-.229.879-.659,2.043t-.9,2.167h-1.1q.237-.914.523-2.259t.4-2.153Zm-1.784-6.6q0-1.187,1.046-1.187,1.081,0,1.081,1.187a1.233,1.233,0,0,1-.29.879,1.035,1.035,0,0,1-.791.308.976.976,0,0,1-.778-.308A1.3,1.3,0,0,1,159.834-8.692Zm8.1-4.157.132.193q-.229.879-.659,2.043t-.9,2.167h-1.072q.615-2.5.9-4.4Zm3.243,0,.123.193q-.211.8-.633,1.969t-.914,2.241h-1.1q.229-.879.519-2.232t.4-2.171Z" transform="translate(128.784 -144.756)" fill="#002856"/><path d="M9.816-5.011A5.582,5.582,0,0,1,8.627-1.248,4.1,4.1,0,0,1,5.346.137,4.089,4.089,0,0,1,2.071-1.248,5.6,5.6,0,0,1,.882-5.024a5.508,5.508,0,0,1,1.2-3.756,4.131,4.131,0,0,1,3.278-1.371A4.086,4.086,0,0,1,8.634-8.774,5.587,5.587,0,0,1,9.816-5.011Zm-8.176,0A5.119,5.119,0,0,0,2.6-1.692,3.343,3.343,0,0,0,5.346-.52,3.363,3.363,0,0,0,8.1-1.682a5.125,5.125,0,0,0,.954-3.329A5.069,5.069,0,0,0,8.1-8.323,3.36,3.36,0,0,0,5.359-9.475,3.379,3.379,0,0,0,2.608-8.312,5.027,5.027,0,0,0,1.641-5.011ZM15.541.137a2.715,2.715,0,0,1-2.5-1.285h-.048l.021.574q.027.506.027,1.107v2.83h-.677V-7.431h.574l.13,1.06h.041a2.685,2.685,0,0,1,2.447-1.2,2.763,2.763,0,0,1,2.293.988,4.519,4.519,0,0,1,.79,2.875,4.351,4.351,0,0,1-.831,2.84A2.779,2.779,0,0,1,15.541.137Zm-.014-.6a2.067,2.067,0,0,0,1.767-.848,3.93,3.93,0,0,0,.625-2.372q0-3.274-2.365-3.274a2.371,2.371,0,0,0-1.907.714,3.575,3.575,0,0,0-.608,2.328V-3.7a4.092,4.092,0,0,0,.584,2.488A2.273,2.273,0,0,0,15.527-.465Zm8.589.6a3.238,3.238,0,0,1-2.526-1,4.011,4.011,0,0,1-.906-2.8A4.359,4.359,0,0,1,21.56-6.5a2.888,2.888,0,0,1,2.358-1.07,2.546,2.546,0,0,1,2.071.916,3.783,3.783,0,0,1,.759,2.488v.547H21.4a3.515,3.515,0,0,0,.714,2.338,2.514,2.514,0,0,0,2.006.807,6.223,6.223,0,0,0,1.118-.089,6.792,6.792,0,0,0,1.22-.383v.615a5.442,5.442,0,0,1-1.162.373A6.45,6.45,0,0,1,24.116.137Zm-.2-7.109a2.226,2.226,0,0,0-1.723.708,3.337,3.337,0,0,0-.759,2.041H26.03a3.24,3.24,0,0,0-.561-2.02A1.849,1.849,0,0,0,23.918-6.973ZM34.4,0V-4.819a2.35,2.35,0,0,0-.472-1.63,1.9,1.9,0,0,0-1.463-.509,2.532,2.532,0,0,0-1.952.673A3.174,3.174,0,0,0,29.9-4.1V0h-.677V-7.431h.574l.13,1.019h.041a2.793,2.793,0,0,1,2.577-1.162q2.529,0,2.529,2.714V0Zm13.24-2.577a2.4,2.4,0,0,1-.919,1.982,3.813,3.813,0,0,1-2.444.731,7.655,7.655,0,0,1-2.81-.4v-.7a7.109,7.109,0,0,0,2.755.458,3.087,3.087,0,0,0,1.952-.564A1.789,1.789,0,0,0,46.9-2.55a1.708,1.708,0,0,0-.239-.94,2.183,2.183,0,0,0-.779-.68,9.61,9.61,0,0,0-1.586-.663,5.428,5.428,0,0,1-2.116-1.138,2.262,2.262,0,0,1-.584-1.63A2.241,2.241,0,0,1,42.47-9.43a3.488,3.488,0,0,1,2.259-.708,6.613,6.613,0,0,1,2.646.533l-.253.6a6.171,6.171,0,0,0-2.379-.52,2.789,2.789,0,0,0-1.764.513,1.675,1.675,0,0,0-.656,1.395,1.827,1.827,0,0,0,.2.909,1.854,1.854,0,0,0,.66.639,9.031,9.031,0,0,0,1.572.68,8.476,8.476,0,0,1,1.757.783,2.511,2.511,0,0,1,.858.861A2.351,2.351,0,0,1,47.641-2.577ZM54.514,0l-.171-1.176h-.055A3.529,3.529,0,0,1,53.137-.161a3.077,3.077,0,0,1-1.4.3,2.418,2.418,0,0,1-1.7-.561,2.005,2.005,0,0,1-.608-1.552,1.915,1.915,0,0,1,.906-1.688A4.925,4.925,0,0,1,52.956-4.3l1.415-.041v-.492a2.527,2.527,0,0,0-.431-1.6,1.67,1.67,0,0,0-1.388-.54,4.642,4.642,0,0,0-2.14.574l-.253-.588a5.663,5.663,0,0,1,2.42-.574,2.412,2.412,0,0,1,1.829.636,2.793,2.793,0,0,1,.6,1.982V0ZM51.78-.479a2.55,2.55,0,0,0,1.876-.68,2.54,2.54,0,0,0,.687-1.89V-3.78l-1.3.055a4.907,4.907,0,0,0-2.232.489,1.408,1.408,0,0,0-.667,1.289,1.386,1.386,0,0,0,.427,1.083A1.737,1.737,0,0,0,51.78-.479ZM63.021,0V-4.819a2.35,2.35,0,0,0-.472-1.63,1.9,1.9,0,0,0-1.463-.509,2.532,2.532,0,0,0-1.952.673A3.174,3.174,0,0,0,58.516-4.1V0h-.677V-7.431h.574l.13,1.019h.041a2.793,2.793,0,0,1,2.577-1.162q2.529,0,2.529,2.714V0Zm8.1-1.935A1.766,1.766,0,0,1,70.366-.4a3.693,3.693,0,0,1-2.153.537,5.135,5.135,0,0,1-2.365-.458v-.731a5.22,5.22,0,0,0,2.365.561,3.12,3.12,0,0,0,1.671-.366,1.112,1.112,0,0,0,.571-.974A1.187,1.187,0,0,0,70-2.775a5,5,0,0,0-1.494-.752,8.556,8.556,0,0,1-1.565-.694,2.163,2.163,0,0,1-.68-.656,1.649,1.649,0,0,1-.229-.892,1.524,1.524,0,0,1,.7-1.319,3.4,3.4,0,0,1,1.958-.485,5.864,5.864,0,0,1,2.283.451l-.253.615a5.355,5.355,0,0,0-2.03-.451,2.94,2.94,0,0,0-1.442.3.923.923,0,0,0-.533.834,1.155,1.155,0,0,0,.414.93,5.766,5.766,0,0,0,1.617.779,7.955,7.955,0,0,1,1.463.653,2.127,2.127,0,0,1,.687.66A1.613,1.613,0,0,1,71.125-1.935ZM77.686,0V-9.994h.7V-.656h4.765V0ZM85.8,0H85.12V-7.431H85.8Zm-.772-9.5q0-.656.431-.656a.382.382,0,0,1,.332.171.839.839,0,0,1,.12.485.859.859,0,0,1-.12.485.378.378,0,0,1-.332.178Q85.024-8.832,85.024-9.5ZM94.5-7.431v.472l-1.538.1a2.625,2.625,0,0,1,.615,1.682,2.27,2.27,0,0,1-.714,1.74,2.7,2.7,0,0,1-1.917.667,4.169,4.169,0,0,1-.711-.041,1.768,1.768,0,0,0-.615.5,1.008,1.008,0,0,0-.212.608.563.563,0,0,0,.27.52,1.839,1.839,0,0,0,.906.164h1.3a3.016,3.016,0,0,1,1.853.489A1.7,1.7,0,0,1,94.379.909a2.058,2.058,0,0,1-.954,1.815,4.864,4.864,0,0,1-2.717.639,3.739,3.739,0,0,1-2.17-.54,1.735,1.735,0,0,1-.769-1.5A1.784,1.784,0,0,1,88.244.048a2.462,2.462,0,0,1,1.289-.69A1.31,1.31,0,0,1,89-1.049a.968.968,0,0,1-.2-.6,1.59,1.59,0,0,1,.95-1.312A2.118,2.118,0,0,1,88.732-3.8a2.39,2.39,0,0,1-.362-1.309A2.353,2.353,0,0,1,89.078-6.9a2.657,2.657,0,0,1,1.911-.673,3.522,3.522,0,0,1,1.135.144ZM88.486,1.258q0,1.531,2.276,1.531,2.926,0,2.926-1.866a1.075,1.075,0,0,0-.458-.971,2.789,2.789,0,0,0-1.483-.3H90.53Q88.486-.349,88.486,1.258Zm.567-6.371a1.714,1.714,0,0,0,.523,1.336,2,2,0,0,0,1.4.475A1.988,1.988,0,0,0,92.4-3.773a1.8,1.8,0,0,0,.5-1.367,1.858,1.858,0,0,0-.509-1.425,2.009,2.009,0,0,0-1.425-.475,1.889,1.889,0,0,0-1.4.509A1.917,1.917,0,0,0,89.054-5.113ZM101.628,0V-4.819a2.35,2.35,0,0,0-.472-1.63,1.9,1.9,0,0,0-1.463-.509,2.532,2.532,0,0,0-1.952.673A3.174,3.174,0,0,0,97.123-4.1V0h-.677V-10.637h.677v3.384l-.034.95h.048a2.493,2.493,0,0,1,1.053-.971,3.683,3.683,0,0,1,1.579-.3q2.529,0,2.529,2.714V0Zm5.458-.465a5.076,5.076,0,0,0,1.121-.109v.547a3.587,3.587,0,0,1-1.135.164A1.848,1.848,0,0,1,105.62-.39a2.444,2.444,0,0,1-.468-1.654v-4.8h-1.1v-.4l1.1-.308.342-1.682h.349v1.8h2.181v.588h-2.181v4.7a2.146,2.146,0,0,0,.3,1.265A1.092,1.092,0,0,0,107.086-.465Z" transform="translate(128.784 -107.066)" fill="#002856"/><path d="M10.049-5.011A5.5,5.5,0,0,1,8.835-1.237,4.266,4.266,0,0,1,5.462.137a4.32,4.32,0,0,1-3.408-1.35,5.547,5.547,0,0,1-1.2-3.811,5.477,5.477,0,0,1,1.2-3.784,4.35,4.35,0,0,1,3.418-1.343A4.257,4.257,0,0,1,8.839-8.784,5.5,5.5,0,0,1,10.049-5.011Zm-7.964,0a4.743,4.743,0,0,0,.865,3.08A3.068,3.068,0,0,0,5.462-.882,3.039,3.039,0,0,0,7.971-1.928a4.809,4.809,0,0,0,.848-3.083A4.771,4.771,0,0,0,7.974-8.07a3.025,3.025,0,0,0-2.5-1.042A3.084,3.084,0,0,0,2.95-8.063,4.7,4.7,0,0,0,2.085-5.011ZM16.013.137a3.242,3.242,0,0,1-1.336-.27,2.513,2.513,0,0,1-1.015-.831h-.082A10.049,10.049,0,0,1,13.661.28V3.363H12.526V-7.492h.923l.157,1.025h.055a2.635,2.635,0,0,1,1.019-.889,3.1,3.1,0,0,1,1.333-.273,2.769,2.769,0,0,1,2.3,1.019,4.484,4.484,0,0,1,.81,2.857A4.458,4.458,0,0,1,18.3-.885,2.774,2.774,0,0,1,16.013.137Zm-.164-6.8a2.011,2.011,0,0,0-1.661.636,3.271,3.271,0,0,0-.526,2.023v.253a3.749,3.749,0,0,0,.526,2.259,2,2,0,0,0,1.688.68A1.756,1.756,0,0,0,17.4-1.6a3.728,3.728,0,0,0,.55-2.167,3.588,3.588,0,0,0-.55-2.15A1.81,1.81,0,0,0,15.849-6.665Zm8.842,6.8A3.442,3.442,0,0,1,22.069-.875a3.917,3.917,0,0,1-.96-2.81A4.344,4.344,0,0,1,22-6.562a2.963,2.963,0,0,1,2.4-1.066,2.825,2.825,0,0,1,2.229.926,3.55,3.55,0,0,1,.82,2.444v.718H22.284a2.97,2.97,0,0,0,.667,2,2.305,2.305,0,0,0,1.781.684,6.035,6.035,0,0,0,2.393-.506V-.349a6.005,6.005,0,0,1-1.138.373A6.4,6.4,0,0,1,24.691.137Zm-.308-6.815a1.853,1.853,0,0,0-1.439.588,2.71,2.71,0,0,0-.632,1.627h3.917a2.5,2.5,0,0,0-.479-1.644A1.684,1.684,0,0,0,24.383-6.679ZM34.927,0V-4.847a1.955,1.955,0,0,0-.417-1.367A1.7,1.7,0,0,0,33.2-6.665a2.153,2.153,0,0,0-1.723.636,3.21,3.21,0,0,0-.547,2.1V0H29.8V-7.492h.923l.185,1.025h.055a2.317,2.317,0,0,1,.978-.858,3.176,3.176,0,0,1,1.4-.3,2.846,2.846,0,0,1,2.037.653,2.778,2.778,0,0,1,.684,2.088V0ZM48.68-2.659A2.451,2.451,0,0,1,47.723-.6a4.15,4.15,0,0,1-2.6.738,6.506,6.506,0,0,1-2.734-.458V-1.442a7.2,7.2,0,0,0,1.34.41,7.049,7.049,0,0,0,1.436.15,2.9,2.9,0,0,0,1.75-.441A1.447,1.447,0,0,0,47.5-2.55,1.575,1.575,0,0,0,47.3-3.4a1.937,1.937,0,0,0-.7-.612,9.755,9.755,0,0,0-1.487-.636,4.746,4.746,0,0,1-1.993-1.183,2.611,2.611,0,0,1-.6-1.784,2.219,2.219,0,0,1,.868-1.839,3.608,3.608,0,0,1,2.3-.684,6.769,6.769,0,0,1,2.741.547l-.362,1.012a6.2,6.2,0,0,0-2.406-.52,2.329,2.329,0,0,0-1.442.4,1.307,1.307,0,0,0-.52,1.1,1.687,1.687,0,0,0,.191.851,1.8,1.8,0,0,0,.646.608,8.026,8.026,0,0,0,1.391.612,5.507,5.507,0,0,1,2.164,1.2A2.366,2.366,0,0,1,48.68-2.659ZM55.581,0l-.226-1.066H55.3a3.153,3.153,0,0,1-1.118.954,3.407,3.407,0,0,1-1.391.25,2.5,2.5,0,0,1-1.747-.574,2.094,2.094,0,0,1-.632-1.634q0-2.27,3.63-2.379l1.271-.041v-.465a1.9,1.9,0,0,0-.379-1.3,1.56,1.56,0,0,0-1.213-.42A4.944,4.944,0,0,0,51.6-6.1l-.349-.868a5.332,5.332,0,0,1,1.213-.472,5.255,5.255,0,0,1,1.323-.171,2.854,2.854,0,0,1,1.986.595,2.482,2.482,0,0,1,.646,1.907V0ZM53.017-.8a2.3,2.3,0,0,0,1.665-.581,2.15,2.15,0,0,0,.6-1.627v-.677l-1.135.048a4.128,4.128,0,0,0-1.952.42,1.268,1.268,0,0,0-.6,1.159,1.169,1.169,0,0,0,.373.937A1.546,1.546,0,0,0,53.017-.8ZM64.306,0V-4.847a1.955,1.955,0,0,0-.417-1.367,1.7,1.7,0,0,0-1.306-.451,2.153,2.153,0,0,0-1.723.636,3.21,3.21,0,0,0-.547,2.1V0H59.179V-7.492H60.1l.185,1.025h.055a2.317,2.317,0,0,1,.978-.858,3.176,3.176,0,0,1,1.4-.3,2.846,2.846,0,0,1,2.037.653,2.778,2.778,0,0,1,.684,2.088V0Zm8.719-2.044a1.877,1.877,0,0,1-.779,1.613,3.663,3.663,0,0,1-2.187.567,4.757,4.757,0,0,1-2.324-.472V-1.388a5.621,5.621,0,0,0,1.159.431A4.839,4.839,0,0,0,70.086-.8a2.705,2.705,0,0,0,1.367-.284.938.938,0,0,0,.479-.865.939.939,0,0,0-.379-.749,5.968,5.968,0,0,0-1.48-.735,8.025,8.025,0,0,1-1.487-.68,2.031,2.031,0,0,1-.656-.66,1.72,1.72,0,0,1-.215-.882A1.681,1.681,0,0,1,68.459-7.1a3.472,3.472,0,0,1,2.044-.53,5.98,5.98,0,0,1,2.365.492l-.4.923a5.429,5.429,0,0,0-2.044-.465,2.352,2.352,0,0,0-1.217.253.782.782,0,0,0-.41.7.849.849,0,0,0,.154.513,1.518,1.518,0,0,0,.5.4,11.076,11.076,0,0,0,1.313.554,4.9,4.9,0,0,1,1.8.978A1.724,1.724,0,0,1,73.025-2.044ZM80.68-4.156V0H79.518V-9.994H82.26a4.313,4.313,0,0,1,2.717.7,2.553,2.553,0,0,1,.878,2.119,2.654,2.654,0,0,1-2.01,2.68L86.559,0H85.185l-2.42-4.156Zm0-1h1.593a2.751,2.751,0,0,0,1.8-.489,1.819,1.819,0,0,0,.574-1.466,1.669,1.669,0,0,0-.584-1.429,3.166,3.166,0,0,0-1.876-.437H80.68ZM91.587.137A3.442,3.442,0,0,1,88.965-.875,3.917,3.917,0,0,1,88-3.685,4.344,4.344,0,0,1,88.9-6.562a2.963,2.963,0,0,1,2.4-1.066,2.825,2.825,0,0,1,2.229.926,3.55,3.55,0,0,1,.82,2.444v.718H89.181a2.97,2.97,0,0,0,.667,2,2.305,2.305,0,0,0,1.781.684A6.035,6.035,0,0,0,94.02-1.36V-.349a6.005,6.005,0,0,1-1.138.373A6.4,6.4,0,0,1,91.587.137Zm-.308-6.815a1.853,1.853,0,0,0-1.439.588,2.71,2.71,0,0,0-.632,1.627h3.917a2.5,2.5,0,0,0-.479-1.644A1.684,1.684,0,0,0,91.279-6.679Zm11.549-.813v.718l-1.388.164a2.385,2.385,0,0,1,.342.625,2.387,2.387,0,0,1,.15.872,2.215,2.215,0,0,1-.752,1.757,3.033,3.033,0,0,1-2.064.656,3.438,3.438,0,0,1-.629-.055,1.117,1.117,0,0,0-.725.964.49.49,0,0,0,.253.455,1.848,1.848,0,0,0,.868.147h1.326a2.97,2.97,0,0,1,1.87.513,1.781,1.781,0,0,1,.653,1.49,2.127,2.127,0,0,1-1,1.9,5.342,5.342,0,0,1-2.912.653,3.979,3.979,0,0,1-2.266-.547,1.766,1.766,0,0,1-.8-1.545A1.735,1.735,0,0,1,96.2.089a2.228,2.228,0,0,1,1.23-.677,1.187,1.187,0,0,1-.482-.4,1.067,1.067,0,0,1-.195-.636,1.207,1.207,0,0,1,.219-.718,2.3,2.3,0,0,1,.69-.595,2.024,2.024,0,0,1-.947-.813,2.39,2.39,0,0,1-.366-1.312,2.424,2.424,0,0,1,.738-1.9,3.014,3.014,0,0,1,2.092-.667,3.8,3.8,0,0,1,1.06.137Zm-5.975,8.75a1.017,1.017,0,0,0,.513.923,2.83,2.83,0,0,0,1.47.314,4.1,4.1,0,0,0,2.116-.427,1.308,1.308,0,0,0,.687-1.159.917.917,0,0,0-.376-.844,2.92,2.92,0,0,0-1.415-.236h-1.36a1.792,1.792,0,0,0-1.2.369A1.319,1.319,0,0,0,96.853,1.258Zm.615-6.351A1.525,1.525,0,0,0,97.913-3.9a1.774,1.774,0,0,0,1.237.4,1.447,1.447,0,0,0,1.661-1.613A1.489,1.489,0,0,0,99.13-6.8a1.665,1.665,0,0,0-1.23.431A1.734,1.734,0,0,0,97.469-5.093Zm8.384-2.4v4.86a1.955,1.955,0,0,0,.417,1.367,1.7,1.7,0,0,0,1.306.451,2.13,2.13,0,0,0,1.719-.643,3.241,3.241,0,0,0,.543-2.1V-7.492h1.135V0h-.937l-.164-1h-.062a2.262,2.262,0,0,1-.967.848,3.251,3.251,0,0,1-1.412.294,2.864,2.864,0,0,1-2.047-.649,2.764,2.764,0,0,1-.68-2.078v-4.9ZM114.934,0H113.8V-10.637h1.135Zm7.434,0-.226-1.066h-.055a3.153,3.153,0,0,1-1.118.954,3.407,3.407,0,0,1-1.391.25,2.5,2.5,0,0,1-1.747-.574,2.094,2.094,0,0,1-.632-1.634q0-2.27,3.63-2.379l1.271-.041v-.465a1.9,1.9,0,0,0-.379-1.3,1.56,1.56,0,0,0-1.213-.42,4.944,4.944,0,0,0-2.119.574l-.349-.868a5.332,5.332,0,0,1,1.213-.472,5.255,5.255,0,0,1,1.323-.171,2.854,2.854,0,0,1,1.986.595,2.482,2.482,0,0,1,.646,1.907V0ZM119.8-.8a2.3,2.3,0,0,0,1.665-.581,2.15,2.15,0,0,0,.6-1.627v-.677l-1.135.048a4.128,4.128,0,0,0-1.952.42,1.268,1.268,0,0,0-.6,1.159,1.169,1.169,0,0,0,.373.937A1.546,1.546,0,0,0,119.8-.8Zm9.58-6.829a4.44,4.44,0,0,1,.9.082l-.157,1.053a3.865,3.865,0,0,0-.82-.1,2,2,0,0,0-1.555.738A2.692,2.692,0,0,0,127.1-4.02V0h-1.135V-7.492h.937l.13,1.388h.055a3.293,3.293,0,0,1,1-1.128A2.262,2.262,0,0,1,129.384-7.629Z" transform="translate(128.784 -91.064)" fill="#002856"/><path d="M10.329-5.011A5.423,5.423,0,0,1,9.1-1.2,4.562,4.562,0,0,1,5.571.137,4.562,4.562,0,0,1,2.044-1.2,5.444,5.444,0,0,1,.813-5.024,5.37,5.37,0,0,1,2.047-8.835a4.614,4.614,0,0,1,3.538-1.316A4.55,4.55,0,0,1,9.109-8.825,5.437,5.437,0,0,1,10.329-5.011Zm-7.294,0a4.175,4.175,0,0,0,.636,2.522,2.224,2.224,0,0,0,1.9.848q2.536,0,2.536-3.37T5.585-8.388a2.24,2.24,0,0,0-1.907.851A4.157,4.157,0,0,0,3.035-5.011ZM16.854.137a2.535,2.535,0,0,1-2.112-.978h-.109q.109.957.109,1.107v3.1H12.656V-7.643h1.7l.294.991h.1a2.412,2.412,0,0,1,2.167-1.135A2.48,2.48,0,0,1,19.027-6.74a4.837,4.837,0,0,1,.766,2.905,5.737,5.737,0,0,1-.359,2.126A2.982,2.982,0,0,1,18.412-.335,2.619,2.619,0,0,1,16.854.137Zm-.615-6.255a1.316,1.316,0,0,0-1.128.475,2.728,2.728,0,0,0-.369,1.569v.226a3.22,3.22,0,0,0,.366,1.764,1.305,1.305,0,0,0,1.159.533q1.4,0,1.4-2.311a3.3,3.3,0,0,0-.345-1.692A1.178,1.178,0,0,0,16.238-6.118ZM25.1-6.3a1.322,1.322,0,0,0-1.039.42,1.946,1.946,0,0,0-.431,1.193h2.926a1.738,1.738,0,0,0-.4-1.193A1.366,1.366,0,0,0,25.1-6.3ZM25.395.137A3.945,3.945,0,0,1,22.51-.882a3.857,3.857,0,0,1-1.039-2.885,4.242,4.242,0,0,1,.96-2.97,3.42,3.42,0,0,1,2.656-1.049,3.366,3.366,0,0,1,2.522.923,3.491,3.491,0,0,1,.9,2.55V-3.3H23.583a2.007,2.007,0,0,0,.526,1.388,1.852,1.852,0,0,0,1.381.5A5.732,5.732,0,0,0,26.8-1.559a6.533,6.533,0,0,0,1.285-.458V-.4A4.9,4.9,0,0,1,26.912,0,7.37,7.37,0,0,1,25.395.137ZM37.682,0H35.6V-4.464A2.144,2.144,0,0,0,35.3-5.7a1.069,1.069,0,0,0-.937-.414,1.408,1.408,0,0,0-1.265.584,3.625,3.625,0,0,0-.39,1.938V0H30.627V-7.643H32.22l.28.978h.116a2.2,2.2,0,0,1,.96-.837,3.27,3.27,0,0,1,1.391-.284,2.673,2.673,0,0,1,2.023.721,2.894,2.894,0,0,1,.69,2.082ZM50.369-2.775a2.583,2.583,0,0,1-.974,2.133,4.232,4.232,0,0,1-2.71.779,6.366,6.366,0,0,1-2.83-.6V-2.434a11.663,11.663,0,0,0,1.712.636,5.067,5.067,0,0,0,1.282.185,1.822,1.822,0,0,0,1.07-.267.912.912,0,0,0,.373-.793.875.875,0,0,0-.164-.523,1.836,1.836,0,0,0-.482-.441,12.4,12.4,0,0,0-1.3-.677,6.14,6.14,0,0,1-1.374-.827,3.105,3.105,0,0,1-.731-.923,2.634,2.634,0,0,1-.273-1.23,2.583,2.583,0,0,1,.9-2.085,3.735,3.735,0,0,1,2.485-.759,5.868,5.868,0,0,1,1.487.185,10.22,10.22,0,0,1,1.48.52l-.684,1.647a10,10,0,0,0-1.323-.458,4.258,4.258,0,0,0-1.029-.13,1.362,1.362,0,0,0-.923.28.925.925,0,0,0-.321.731.905.905,0,0,0,.13.489,1.428,1.428,0,0,0,.414.4,12.788,12.788,0,0,0,1.343.7,5.345,5.345,0,0,1,1.921,1.343A2.622,2.622,0,0,1,50.369-2.775ZM57.29,0l-.4-1.039h-.055a3.079,3.079,0,0,1-1.083.919A3.5,3.5,0,0,1,54.3.137a2.349,2.349,0,0,1-1.733-.629,2.415,2.415,0,0,1-.632-1.791,2.017,2.017,0,0,1,.851-1.794,4.932,4.932,0,0,1,2.567-.639l1.326-.041v-.335a1.039,1.039,0,0,0-1.189-1.162,5.42,5.42,0,0,0-2.153.554l-.69-1.408a6.213,6.213,0,0,1,2.926-.69,3.644,3.644,0,0,1,2.358.67,2.476,2.476,0,0,1,.82,2.037V0Zm-.615-3.541-.807.027a2.583,2.583,0,0,0-1.354.328,1.031,1.031,0,0,0-.444.916q0,.882,1.012.882A1.6,1.6,0,0,0,56.24-1.8a1.465,1.465,0,0,0,.434-1.107ZM68.367,0H66.282V-4.464A2.144,2.144,0,0,0,65.988-5.7a1.069,1.069,0,0,0-.937-.414,1.408,1.408,0,0,0-1.265.584A3.625,3.625,0,0,0,63.4-3.6V0H61.312V-7.643H62.9l.28.978H63.3a2.2,2.2,0,0,1,.96-.837,3.271,3.271,0,0,1,1.391-.284,2.673,2.673,0,0,1,2.023.721,2.894,2.894,0,0,1,.69,2.082Zm7.9-2.27a2.1,2.1,0,0,1-.817,1.791A4.036,4.036,0,0,1,73,.137,7.676,7.676,0,0,1,71.583.024a5.378,5.378,0,0,1-1.1-.332V-2.03a7.268,7.268,0,0,0,1.309.458,5.3,5.3,0,0,0,1.282.185q1.135,0,1.135-.656a.548.548,0,0,0-.15-.4,2.18,2.18,0,0,0-.52-.349q-.369-.195-.984-.455a6.184,6.184,0,0,1-1.3-.684,1.924,1.924,0,0,1-.6-.721,2.381,2.381,0,0,1-.188-1,1.815,1.815,0,0,1,.79-1.576A3.846,3.846,0,0,1,73.5-7.786a6.355,6.355,0,0,1,2.687.6l-.629,1.5q-.574-.246-1.073-.4a3.37,3.37,0,0,0-1.019-.157q-.923,0-.923.5a.587.587,0,0,0,.3.485,8.087,8.087,0,0,0,1.3.608,6.05,6.05,0,0,1,1.313.677,2,2,0,0,1,.615.725A2.227,2.227,0,0,1,76.265-2.27Zm6.268-7.725h3.11a5.994,5.994,0,0,1,3.086.6,2.106,2.106,0,0,1,.96,1.924A2.425,2.425,0,0,1,89.27-6a1.679,1.679,0,0,1-1.118.69v.068a2.2,2.2,0,0,1,1.371.793,2.58,2.58,0,0,1,.42,1.545,2.546,2.546,0,0,1-.988,2.133A4.272,4.272,0,0,1,86.272,0H82.533Zm2.119,3.958h1.23A2.25,2.25,0,0,0,87.13-6.3a.994.994,0,0,0,.386-.882.882.882,0,0,0-.42-.824,2.7,2.7,0,0,0-1.33-.25H84.652Zm0,1.682v2.6h1.381a2.048,2.048,0,0,0,1.292-.335,1.236,1.236,0,0,0,.417-1.025q0-1.244-1.777-1.244Zm9.2.52a3.208,3.208,0,0,0,.373,1.716,1.332,1.332,0,0,0,1.213.581,1.311,1.311,0,0,0,1.2-.578,3.254,3.254,0,0,0,.366-1.719,3.157,3.157,0,0,0-.369-1.7,1.335,1.335,0,0,0-1.21-.567,1.33,1.33,0,0,0-1.2.564A3.154,3.154,0,0,0,93.856-3.835Zm5.284,0a4.107,4.107,0,0,1-.984,2.919A3.569,3.569,0,0,1,95.415.137a3.835,3.835,0,0,1-1.941-.482,3.207,3.207,0,0,1-1.292-1.384,4.652,4.652,0,0,1-.451-2.105,4.084,4.084,0,0,1,.978-2.912,3.59,3.59,0,0,1,2.748-1.039,3.856,3.856,0,0,1,1.941.479,3.194,3.194,0,0,1,1.292,1.374A4.608,4.608,0,0,1,99.14-3.835ZM103.368,0h-2.085V-10.637h2.085ZM108.4.137A2.482,2.482,0,0,1,106.28-.909a4.808,4.808,0,0,1-.769-2.9,4.813,4.813,0,0,1,.783-2.929,2.542,2.542,0,0,1,2.157-1.049,2.493,2.493,0,0,1,2.2,1.121h.068a8.523,8.523,0,0,1-.157-1.524v-2.447h2.092V0h-1.6l-.4-.991h-.089A2.386,2.386,0,0,1,108.4.137Zm.731-1.661a1.413,1.413,0,0,0,1.172-.465,2.7,2.7,0,0,0,.407-1.579v-.226a3.125,3.125,0,0,0-.379-1.764,1.409,1.409,0,0,0-1.234-.533,1.224,1.224,0,0,0-1.083.591,3.155,3.155,0,0,0-.386,1.719,2.99,2.99,0,0,0,.39,1.692A1.273,1.273,0,0,0,109.127-1.524Z" transform="translate(128.784 -75.062)" fill="#002856"/><path d="M10.432-5.011A5.39,5.39,0,0,1,9.194-1.176,4.743,4.743,0,0,1,5.571.137,4.74,4.74,0,0,1,1.965-1.183,5.369,5.369,0,0,1,.711-5.024,5.333,5.333,0,0,1,1.958-8.835a4.762,4.762,0,0,1,3.626-1.316A4.735,4.735,0,0,1,9.2-8.846,5.394,5.394,0,0,1,10.432-5.011Zm-6.877,0q0,2.9,2.017,2.9a1.734,1.734,0,0,0,1.521-.7,3.857,3.857,0,0,0,.5-2.194,3.883,3.883,0,0,0-.5-2.211,1.714,1.714,0,0,0-1.5-.714Q3.555-7.937,3.555-5.011ZM17.148.137a2.7,2.7,0,0,1-1.053-.195,2.681,2.681,0,0,1-.923-.7h-.123A9.835,9.835,0,0,1,15.172.253v3.11H12.5V-7.745h2.174l.376.984h.123A2.343,2.343,0,0,1,17.23-7.882a2.316,2.316,0,0,1,2.017,1.066,5.108,5.108,0,0,1,.731,2.926,5.026,5.026,0,0,1-.762,2.95A2.4,2.4,0,0,1,17.148.137Zm-.9-5.92a.864.864,0,0,0-.824.42,2.754,2.754,0,0,0-.256,1.248V-3.9a2.928,2.928,0,0,0,.267,1.442.909.909,0,0,0,.841.444.783.783,0,0,0,.745-.441,3.34,3.34,0,0,0,.232-1.459,3.229,3.229,0,0,0-.232-1.432A.807.807,0,0,0,16.252-5.783ZM25.661.137a4.158,4.158,0,0,1-3-1.029,3.874,3.874,0,0,1-1.07-2.929,4.22,4.22,0,0,1,.991-3.011,3.706,3.706,0,0,1,2.83-1.049,3.755,3.755,0,0,1,2.7.913,3.468,3.468,0,0,1,.954,2.628v1.189H24.287a1.326,1.326,0,0,0,.475,1.019,1.861,1.861,0,0,0,1.22.369,5.892,5.892,0,0,0,1.3-.133,6.417,6.417,0,0,0,1.282-.455V-.431a4.716,4.716,0,0,1-1.3.444A8.988,8.988,0,0,1,25.661.137Zm-.157-6.2a1.111,1.111,0,0,0-.79.3,1.4,1.4,0,0,0-.373.933h2.3a1.332,1.332,0,0,0-.318-.9A1.049,1.049,0,0,0,25.5-6.063ZM35.884,0V-4.225a2.424,2.424,0,0,0-.222-1.166.759.759,0,0,0-.714-.393,1.034,1.034,0,0,0-.978.54,4.091,4.091,0,0,0-.3,1.853V0H31V-7.745h2.017l.335.957h.157a2.118,2.118,0,0,1,.947-.82,3.346,3.346,0,0,1,1.391-.273,2.639,2.639,0,0,1,2,.745,2.91,2.91,0,0,1,.714,2.1V0Zm15.66-3.035a2.948,2.948,0,0,1-.472,1.651,3.089,3.089,0,0,1-1.36,1.121,5.042,5.042,0,0,1-2.085.4A8.435,8.435,0,0,1,45.953,0a6.218,6.218,0,0,1-1.408-.489V-2.9a8.042,8.042,0,0,0,1.606.619,5.986,5.986,0,0,0,1.531.222,1.487,1.487,0,0,0,.882-.208.641.641,0,0,0,.28-.537.591.591,0,0,0-.113-.359,1.313,1.313,0,0,0-.362-.311q-.25-.157-1.33-.643a6.379,6.379,0,0,1-1.466-.861,2.644,2.644,0,0,1-.725-.957,3.177,3.177,0,0,1-.236-1.278,2.562,2.562,0,0,1,1-2.153,4.43,4.43,0,0,1,2.762-.772,7.75,7.75,0,0,1,3.165.718l-.827,2.085a5.994,5.994,0,0,0-2.42-.643,1.261,1.261,0,0,0-.766.185.558.558,0,0,0-.239.458.661.661,0,0,0,.3.526,11.6,11.6,0,0,0,1.651.848,4.566,4.566,0,0,1,1.794,1.248A2.709,2.709,0,0,1,51.544-3.035ZM58.4,0l-.513-1.025h-.055a3.044,3.044,0,0,1-1.1.916,3.635,3.635,0,0,1-1.449.246A2.273,2.273,0,0,1,53.564-.52a2.56,2.56,0,0,1-.629-1.846A2.1,2.1,0,0,1,53.8-4.208a4.709,4.709,0,0,1,2.5-.68l1.292-.041v-.109A.84.84,0,0,0,56.64-6a5.642,5.642,0,0,0-2.153.574l-.772-1.764a7.43,7.43,0,0,1,3.418-.7,3.321,3.321,0,0,1,2.307.738,2.64,2.64,0,0,1,.817,2.064V0ZM56.421-1.75a1.205,1.205,0,0,0,.831-.308,1.021,1.021,0,0,0,.345-.8v-.6l-.615.027q-1.319.048-1.319.971Q55.663-1.75,56.421-1.75ZM67.382,0V-4.225A2.424,2.424,0,0,0,67.16-5.39a.759.759,0,0,0-.714-.393,1.034,1.034,0,0,0-.978.54,4.091,4.091,0,0,0-.3,1.853V0H62.495V-7.745h2.017l.335.957H65a2.118,2.118,0,0,1,.947-.82,3.346,3.346,0,0,1,1.391-.273,2.639,2.639,0,0,1,2,.745,2.91,2.91,0,0,1,.714,2.1V0ZM78.275-2.379A2.2,2.2,0,0,1,77.427-.5a4,4,0,0,1-2.434.636A10.57,10.57,0,0,1,73.5.044a6.36,6.36,0,0,1-1.3-.338v-2.14a8.042,8.042,0,0,0,1.364.451,5.748,5.748,0,0,0,1.323.178q.868,0,.868-.4a.449.449,0,0,0-.243-.366A11.076,11.076,0,0,0,74.1-3.192a3.517,3.517,0,0,1-1.49-.995A2.265,2.265,0,0,1,72.184-5.6a1.955,1.955,0,0,1,.834-1.682,3.982,3.982,0,0,1,2.358-.6,5.946,5.946,0,0,1,1.439.167,8.556,8.556,0,0,1,1.4.489L77.489-5.5a8.142,8.142,0,0,0-1.128-.407,3.753,3.753,0,0,0-.971-.167q-.656,0-.656.321a.4.4,0,0,0,.229.338,12.329,12.329,0,0,0,1.323.571A5.082,5.082,0,0,1,77.5-4.19a1.966,1.966,0,0,1,.588.755A2.653,2.653,0,0,1,78.275-2.379ZM90.326,0H84.392V-9.994h5.934v2.167H87.093v1.572h2.994v2.167H87.093V-2.2h3.233Zm3.653-3.951L91.614-7.745h3.035l1.176,2.174,1.2-2.174h3.042L97.643-3.951,100.166,0H97.131L95.825-2.352,94.526,0H91.484Zm11.392,1.976a3.975,3.975,0,0,0,1.292-.267V-.294a5.261,5.261,0,0,1-1.029.332,5.821,5.821,0,0,1-1.145.1,2.5,2.5,0,0,1-1.941-.66,2.954,2.954,0,0,1-.595-2.027V-5.742h-.937V-6.829l1.189-.841L102.9-9.3h1.75v1.552h1.9v2h-1.9v3.015Q104.646-1.976,105.371-1.976Zm7.741-5.906a3.867,3.867,0,0,1,.663.055l.15.027-.239,2.522a3.932,3.932,0,0,0-.909-.082,1.733,1.733,0,0,0-1.271.4,1.567,1.567,0,0,0-.4,1.152V0h-2.673V-7.745h1.989l.417,1.237h.13a2.676,2.676,0,0,1,.933-.995A2.233,2.233,0,0,1,113.112-7.882ZM120.478,0l-.513-1.025h-.055a3.044,3.044,0,0,1-1.1.916,3.635,3.635,0,0,1-1.449.246,2.273,2.273,0,0,1-1.723-.656,2.56,2.56,0,0,1-.629-1.846,2.1,2.1,0,0,1,.861-1.842,4.709,4.709,0,0,1,2.5-.68l1.292-.041v-.109A.84.84,0,0,0,118.714-6a5.642,5.642,0,0,0-2.153.574l-.772-1.764a7.43,7.43,0,0,1,3.418-.7,3.321,3.321,0,0,1,2.307.738,2.64,2.64,0,0,1,.817,2.064V0ZM118.5-1.75a1.205,1.205,0,0,0,.831-.308,1.021,1.021,0,0,0,.345-.8v-.6l-.615.027q-1.319.048-1.319.971Q117.736-1.75,118.5-1.75Zm10.287-8.244h3.486a5.929,5.929,0,0,1,3.025.6,2.051,2.051,0,0,1,.988,1.883,2.382,2.382,0,0,1-.431,1.436,1.921,1.921,0,0,1-1.135.766v.068a2.326,2.326,0,0,1,1.347.82,2.476,2.476,0,0,1,.417,1.49,2.553,2.553,0,0,1-1.022,2.143A4.475,4.475,0,0,1,132.672,0h-3.89Zm2.7,3.835h.813a1.47,1.47,0,0,0,.9-.239.834.834,0,0,0,.318-.711q0-.841-1.271-.841h-.759Zm0,1.976v2.1h.95q1.265,0,1.265-1.066a.917.917,0,0,0-.338-.766,1.558,1.558,0,0,0-.981-.267Zm14.393.294a4.1,4.1,0,0,1-1.022,2.963A3.782,3.782,0,0,1,141.993.137,3.706,3.706,0,0,1,139.186-.95a4.069,4.069,0,0,1-1.042-2.939,4.041,4.041,0,0,1,1.022-2.943,3.819,3.819,0,0,1,2.868-1.049,4.088,4.088,0,0,1,2.017.485,3.313,3.313,0,0,1,1.35,1.391A4.492,4.492,0,0,1,145.875-3.89Zm-5.018,0a3.44,3.44,0,0,0,.267,1.521.927.927,0,0,0,.9.523.9.9,0,0,0,.878-.523,3.561,3.561,0,0,0,.256-1.521,3.381,3.381,0,0,0-.26-1.5.917.917,0,0,0-.889-.506.921.921,0,0,0-.882.5A3.3,3.3,0,0,0,140.858-3.89ZM150.493,0H147.82V-10.637h2.673Zm4.679.137a2.317,2.317,0,0,1-1.446-.472,2.991,2.991,0,0,1-.957-1.388,6.165,6.165,0,0,1-.338-2.14,5.021,5.021,0,0,1,.759-2.953,2.421,2.421,0,0,1,2.085-1.066,2.39,2.39,0,0,1,1.138.26,2.515,2.515,0,0,1,.892.875h.055a12.841,12.841,0,0,1-.13-1.818v-2.071h2.693V0h-2.017l-.574-.978h-.1A2.265,2.265,0,0,1,155.171.137Zm1.094-2.112a1,1,0,0,0,.906-.4,2.43,2.43,0,0,0,.284-1.244v-.212a2.707,2.707,0,0,0-.294-1.459,1.035,1.035,0,0,0-.923-.434.9.9,0,0,0-.817.5,2.817,2.817,0,0,0-.291,1.412,2.621,2.621,0,0,0,.294,1.374A.935.935,0,0,0,156.265-1.976Z" transform="translate(128.784 -59.06)" fill="#002856"/><path d="M129.063,0,108.09-53.584H40.563L19.82,0H0L66.605-169.164H83.084L149.344,0Zm-27.08-71.215-19.59-52.2q-3.8-9.91-7.836-24.314a218.338,218.338,0,0,1-7.26,24.314l-19.82,52.2ZM254.137,0l-3.8-17.977h-.922Q239.963-6.107,230.572-1.9T207.121,2.3q-18.783,0-29.442-9.68T167.02-34.916q0-38.258,61.189-40.1l21.434-.691v-7.836q0-14.865-6.4-21.952t-20.454-7.087q-15.787,0-35.723,9.68l-5.877-14.635a89.889,89.889,0,0,1,20.454-7.951,88.588,88.588,0,0,1,22.3-2.881q22.586,0,33.476,10.025t10.89,32.15V0ZM210.924-13.482q17.861,0,28.06-9.795t10.2-27.426V-62.111l-19.129.807q-22.816.807-32.9,7.087T187.071-34.686q0,10.371,6.28,15.787T210.924-13.482Z" transform="translate(130.784 -253.165)" fill="#0d55a0"/></g></g></svg>