<svg xmlns="http://www.w3.org/2000/svg" xmlns:xlink="http://www.w3.org/1999/xlink" width="335" height="453.14" viewBox="0 0 335 453.14"><defs><clipPath id="a"><path d="M0-83.454H168.006V-231.375H0Z" transform="translate(0 231.375)" fill="none"/></clipPath><linearGradient id="b" x1="-0.043" y1="0.373" x2="0.975" y2="0.373" gradientUnits="objectBoundingBox"><stop offset="0" stop-color="#a88457"/><stop offset="0.1" stop-color="#af8c60"/><stop offset="0.2" stop-color="#b5946a"/><stop offset="0.3" stop-color="#bc9d74"/><stop offset="0.4" stop-color="#c3a67f"/><stop offset="0.5" stop-color="#cbaf8b"/><stop offset="0.6" stop-color="#c3a67f"/><stop offset="0.7" stop-color="#bc9d74"/><stop offset="0.8" stop-color="#b5946a"/><stop offset="0.9" stop-color="#af8c60"/><stop offset="1" stop-color="#a88457"/></linearGradient></defs><g transform="translate(-16 -471.53)"><g transform="translate(90 -331.257)"><g transform="translate(-83 1035.162)"><path d="M9-1H344V-232.375H9Z" transform="translate(0)" fill="#0d55a0"/></g><g transform="translate(-74 1034.162)"><g clip-path="url(#a)"><g transform="translate(39.737 -71.394) rotate(29.1)"><path d="M0,81.707,146.8,0l71.939,129.249-146.8,81.707Z" transform="translate(0 0)" fill="url(#b)"/></g></g></g><g transform="translate(93.5 1034.162)"><path d="M9-33.4H176.5V-181.327H9Z" transform="translate(-9 181.327)" fill="#083059"/></g><g transform="translate(-74 1182.086)"><path d="M0-16.448H168.006V-90.289H0Z" transform="translate(0 90.289)" fill="#a88457"/></g><g transform="translate(93.5 1182.086)"><path d="M0-16.447H167.5V-90.288H0Z" transform="translate(0 90.288)" fill="#cbaf8b"/></g><g transform="translate(-73 1112.607)"><text transform="translate(9 -61.445)" fill="#fff" font-size="10" font-family="Mundial-Bold, Mundial" font-weight="700" letter-spacing="0.014em"><tspan x="0" y="0">Gold Gradient</tspan></text><text transform="translate(9 -47.934)" fill="#fff" font-size="8" font-family="Mundial-DemiBold, Mundial" font-weight="300"><tspan x="0" y="0">Dark &amp; Light Gold</tspan></text><text transform="translate(9 -37.934)" fill="#fff" font-size="8" font-family="Mundial-DemiBold, Mundial" font-weight="300" letter-spacing="0.012em"><tspan x="0" y="0">Linear Gradient</tspan></text></g><g transform="translate(94.5 1113.207)"><text transform="translate(9 -61.445)" fill="#fff" font-size="10" font-family="Mundial-Bold, Mundial" font-weight="700" letter-spacing="0.004em"><tspan x="0" y="0">Dark Blue</tspan></text><path d="M1.723,0v-1.82H2.984a1.733,1.733,0,0,0,1.9-1.73,1.724,1.724,0,0,0-1.9-1.75H.664V0Zm0-4.387h1.2a.8.8,0,0,1,.883.836.8.8,0,0,1-.883.816h-1.2ZM6.77.078a1.242,1.242,0,0,0,1.063-.5V0h.953V-2.309c0-.937-.684-1.52-1.781-1.52a2.053,2.053,0,0,0-1.6.781l.574.574a1.328,1.328,0,0,1,.992-.473.74.74,0,0,1,.813.715v.086A2.456,2.456,0,0,0,7-2.273c-1,0-1.645.492-1.645,1.2S5.918.078,6.77.078Zm.3-1.684a1.747,1.747,0,0,1,.719.145.8.8,0,0,1-.859.793c-.383,0-.625-.18-.625-.461S6.609-1.605,7.066-1.605ZM10.871,0V-2.1a.781.781,0,0,1,.832-.8.738.738,0,0,1,.777.8V0h1V-2.355A1.4,1.4,0,0,0,12-3.828a1.429,1.429,0,0,0-1.156.512l-.02-.434H9.871V0Zm3.84-2.918V-1.23A1.224,1.224,0,0,0,16.09.078,2.286,2.286,0,0,0,17-.109L16.9-.941a1.779,1.779,0,0,1-.637.129.5.5,0,0,1-.555-.562V-2.918h1.1V-3.75H15.688v-1.2h-.973v1.2h-.637v.832Zm4.6,3a1.932,1.932,0,0,0,2-1.953,1.934,1.934,0,0,0-2-1.953,1.937,1.937,0,0,0-2,1.953A1.934,1.934,0,0,0,19.313.078ZM18.3-1.875a1,1,0,0,1,1.008-1.043A.993.993,0,0,1,20.32-1.875.994.994,0,0,1,19.313-.828,1,1,0,0,1,18.3-1.875ZM23.176,0V-2.1a.781.781,0,0,1,.832-.8.738.738,0,0,1,.777.8V0h1V-2.355A1.4,1.4,0,0,0,24.3-3.828a1.429,1.429,0,0,0-1.156.512l-.02-.434h-.953V0Zm5.4.082a1.934,1.934,0,0,0,1.668-.9l-.711-.531a1.1,1.1,0,0,1-.934.527.987.987,0,0,1-1-.75h2.711A2.72,2.72,0,0,0,30.344-2a1.731,1.731,0,0,0-1.816-1.828A1.872,1.872,0,0,0,26.6-1.879,1.9,1.9,0,0,0,28.574.082Zm-.961-2.328a.881.881,0,0,1,.926-.738.842.842,0,0,1,.871.738ZM32.859-4.07l.887.422a1.034,1.034,0,0,1,.949-.785.736.736,0,0,1,.8.77c0,.434-.387.762-1.016,1.223-.645.473-1.508,1.113-1.508,2V0h3.68V-.922H34.2a3.488,3.488,0,0,1,.844-.742c.719-.523,1.539-1.059,1.539-2.012a1.747,1.747,0,0,0-1.9-1.707A1.966,1.966,0,0,0,32.859-4.07ZM37.176-5.3v.957h2.352a19.818,19.818,0,0,0-2,4.348h1.141A19.146,19.146,0,0,1,40.73-4.516V-5.3ZM43.234.078a1.824,1.824,0,0,0,2-1.855A1.68,1.68,0,0,0,43.4-3.516a1.435,1.435,0,0,0-1.207.539,1.415,1.415,0,0,1,1.48-1.512,2.117,2.117,0,0,1,1.027.254l.25-.84A2.723,2.723,0,0,0,43.6-5.383c-1.617,0-2.477,1.156-2.477,2.957C41.125-1.055,41.719.078,43.234.078Zm-.012-2.73a.872.872,0,0,1,.957.91.9.9,0,0,1-.957.922.886.886,0,0,1-.93-.93A.871.871,0,0,1,43.223-2.652ZM47.969.078a1.824,1.824,0,0,0,2-1.855,1.68,1.68,0,0,0-1.836-1.738,1.435,1.435,0,0,0-1.207.539,1.415,1.415,0,0,1,1.48-1.512,2.117,2.117,0,0,1,1.027.254l.25-.84a2.723,2.723,0,0,0-1.352-.309c-1.617,0-2.477,1.156-2.477,2.957C45.859-1.055,46.453.078,47.969.078Zm-.012-2.73a.872.872,0,0,1,.957.91.9.9,0,0,1-.957.922.886.886,0,0,1-.93-.93A.871.871,0,0,1,47.957-2.652ZM55.25.078A2.741,2.741,0,0,0,57.633-1.25l-.777-.562A1.892,1.892,0,0,1,55.25-.9a1.649,1.649,0,0,1-1.668-1.754,1.63,1.63,0,0,1,1.641-1.754,1.757,1.757,0,0,1,1.543.941l.832-.594a2.783,2.783,0,0,0-2.375-1.324A2.671,2.671,0,0,0,52.5-2.652,2.7,2.7,0,0,0,55.25.078Z" transform="translate(9 -47.934)" fill="#fff"/><path d="M.34-2.652A2.7,2.7,0,0,0,3.086.078,2.7,2.7,0,0,0,5.418-1.211L4.8-1.637A2.023,2.023,0,0,1,3.086-.7,1.855,1.855,0,0,1,1.2-2.652,1.844,1.844,0,0,1,3.066-4.605a1.957,1.957,0,0,1,1.7.961L5.4-4.09A2.7,2.7,0,0,0,3.066-5.383,2.686,2.686,0,0,0,.34-2.652ZM6.309,0h.828V-3.8L8.82-.375h.586L11.09-3.8V0h.828V-5.3h-.969L9.113-1.531,7.281-5.3H6.309Zm6.355-5.3,2.012,3.266V0h.816V-2.039L17.5-5.3h-.977l-1.445,2.4L13.641-5.3ZM18.25,0h.82V-1.6l.918-.988L21.691,0h1L20.566-3.141,22.559-5.3H21.5L19.07-2.668V-5.3h-.82Z" transform="translate(9 -38.334)" fill="#fff"/><path d="M.488-3.348a.469.469,0,0,0,.477.477.472.472,0,0,0,.48-.477.475.475,0,0,0-.48-.48A.472.472,0,0,0,.488-3.348ZM.488-.4A.469.469,0,0,0,.965.078.472.472,0,0,0,1.445-.4a.475.475,0,0,0-.48-.48A.472.472,0,0,0,.488-.4ZM5.93-1.848a1.4,1.4,0,0,0,1.258-.625c-.035,1.188-.719,1.8-1.59,1.8a1.874,1.874,0,0,1-.988-.3l-.277.7a2.3,2.3,0,0,0,1.32.359C7.3.078,8.023-1.133,8.023-2.844c0-1.4-.6-2.539-2.043-2.539a1.737,1.737,0,0,0-1.91,1.8A1.69,1.69,0,0,0,5.93-1.848Zm.082-2.82A1.03,1.03,0,0,1,7.055-3.6,1,1,0,0,1,6.008-2.574a.968.968,0,0,1-1.1-1.035A1.009,1.009,0,0,1,6.012-4.668ZM10.883.078a1.763,1.763,0,0,0,1.879-1.8,1.7,1.7,0,0,0-1.84-1.734,1.517,1.517,0,0,0-1.316.625c.066-1.3.7-1.809,1.609-1.809a2.091,2.091,0,0,1,1.008.258l.238-.7a2.452,2.452,0,0,0-1.262-.3c-1.676,0-2.41,1.211-2.41,2.922C8.789-1.059,9.4.078,10.883.078Zm-.07-2.809A.99.99,0,0,1,11.922-1.7,1.025,1.025,0,0,1,10.828-.637a1.039,1.039,0,0,1-1.09-1.07A1,1,0,0,1,10.813-2.73Zm7.816-3.242h-.84L14.723,1.563h.836ZM20.5-5.3v.777h2.484A20.941,20.941,0,0,0,20.855,0h.891a23.015,23.015,0,0,1,2.18-4.633V-5.3Zm6,5.383c1.293,0,2.113-1.066,2.113-2.73s-.82-2.73-2.113-2.73-2.117,1.07-2.117,2.73S25.215.078,26.508.078Zm0-4.687c.773,0,1.293.758,1.293,1.957S27.281-.7,26.508-.7s-1.3-.75-1.3-1.953S25.73-4.609,26.508-4.609Zm8.074-1.363h-.84L30.676,1.563h.836ZM37.4,0h.82V-5.3H36.387v.742H37.4ZM41.41.078c1.293,0,2.113-1.066,2.113-2.73s-.82-2.73-2.113-2.73-2.117,1.07-2.117,2.73S40.117.078,41.41.078Zm0-4.687c.773,0,1.293.758,1.293,1.957S42.184-.7,41.41-.7s-1.3-.75-1.3-1.953S40.633-4.609,41.41-4.609Zm8.074-1.363h-.84L45.578,1.563h.836ZM53.234.078a1.767,1.767,0,0,0,1.906-1.742,1.7,1.7,0,0,0-1.828-1.742,1.347,1.347,0,0,0-.82.246l.129-1.367h2.262V-5.3H51.918l-.25,2.754.621.254a1.389,1.389,0,0,1,.961-.387A.982.982,0,0,1,54.3-1.664a.979.979,0,0,1-1.051.973,1.234,1.234,0,0,1-1.172-.82l-.684.379A1.905,1.905,0,0,0,53.234.078Zm4.727,0c1.293,0,2.113-1.066,2.113-2.73s-.82-2.73-2.113-2.73-2.117,1.07-2.117,2.73S56.668.078,57.961.078Zm0-4.687c.773,0,1.293.758,1.293,1.957S58.734-.7,57.961-.7s-1.3-.75-1.3-1.953S57.184-4.609,57.961-4.609Z" transform="translate(32.233 -38.334)" fill="#fff"/><path d="M.688-5.3V0h.82V-2.082H2.832L4.031,0h.953L3.7-2.2a1.529,1.529,0,0,0,1.074-1.5A1.6,1.6,0,0,0,2.969-5.3Zm2.242.738c.652,0,.988.344.988.871s-.336.879-.988.879H1.508v-1.75ZM8.25.078a2.449,2.449,0,0,0,2.57-2.543,2.768,2.768,0,0,0-.016-.309H8.125v.742H9.953A1.582,1.582,0,0,1,8.25-.7,1.858,1.858,0,0,1,6.359-2.652,1.847,1.847,0,0,1,8.23-4.605a1.9,1.9,0,0,1,1.629.871L10.5-4.18a2.66,2.66,0,0,0-2.266-1.2A2.686,2.686,0,0,0,5.5-2.652,2.7,2.7,0,0,0,8.25.078Zm6-.078a1.565,1.565,0,0,0,1.66-1.535,1.3,1.3,0,0,0-.781-1.215,1.252,1.252,0,0,0,.582-1.07A1.5,1.5,0,0,0,14.1-5.3H11.809V0ZM12.633-3.047V-4.574H14.1a.761.761,0,0,1,.789.773.751.751,0,0,1-.789.754Zm0,.691h1.621a.821.821,0,0,1,.848.8.809.809,0,0,1-.848.816H12.633Zm4.121-.992a.469.469,0,0,0,.477.477.472.472,0,0,0,.48-.477.475.475,0,0,0-.48-.48A.472.472,0,0,0,16.754-3.348Zm0,2.949a.469.469,0,0,0,.477.477.472.472,0,0,0,.48-.477.475.475,0,0,0-.48-.48A.472.472,0,0,0,16.754-.4Zm3.574-3.75.691.332a1.157,1.157,0,0,1,1.063-.789.86.86,0,0,1,.934.867c0,.52-.406.852-1.059,1.352s-1.551,1.1-1.551,2.031V0h3.555V-.777H21.355c.016-.219.59-.656,1.035-.992.7-.531,1.484-.961,1.484-1.984a1.646,1.646,0,0,0-1.793-1.629A1.875,1.875,0,0,0,20.328-4.148ZM26.82.078c1.293,0,2.113-1.066,2.113-2.73s-.82-2.73-2.113-2.73S24.7-4.312,24.7-2.652,25.527.078,26.82.078Zm0-4.687c.773,0,1.293.758,1.293,1.957S27.594-.7,26.82-.7s-1.3-.75-1.3-1.953S26.043-4.609,26.82-4.609Zm8.074-1.363h-.84L30.988,1.563h.836Zm1.957,1.824.691.332a1.157,1.157,0,0,1,1.063-.789.86.86,0,0,1,.934.867c0,.52-.406.852-1.059,1.352S36.93-1.289,36.93-.355V0h3.555V-.777H37.879c.016-.219.59-.656,1.035-.992.7-.531,1.484-.961,1.484-1.984a1.646,1.646,0,0,0-1.793-1.629A1.875,1.875,0,0,0,36.852-4.148Zm4.2-1.156v.777h2.484A20.941,20.941,0,0,0,41.406,0H42.3a23.015,23.015,0,0,1,2.18-4.633V-5.3Zm9.152-.668h-.84L46.3,1.563h.836Zm1.875.668v.777h2.484A20.941,20.941,0,0,0,52.434,0h.891A23.015,23.015,0,0,1,55.5-4.633V-5.3Z" transform="translate(9 -28.734)" fill="#fff"/><path d="M.211-5.3v.777H2.7A20.941,20.941,0,0,0,.563,0h.891a23.015,23.015,0,0,1,2.18-4.633V-5.3Z" transform="translate(66.743 -28.734)" fill="#fff"/><path d="M.117-5.3,1.594,0H2.918L3.98-3.93,5.047,0H6.371L7.848-5.3H7.023L5.707-.738,4.422-5.219H3.543L2.258-.738.938-5.3ZM8.6,0h3.8V-.746H9.425V-2.352h2.488V-3.1H9.425V-4.559h2.9V-5.3H8.6ZM15.83,0a1.565,1.565,0,0,0,1.66-1.535,1.3,1.3,0,0,0-.781-1.215,1.252,1.252,0,0,0,.582-1.07A1.5,1.5,0,0,0,15.674-5.3H13.384V0ZM14.209-3.047V-4.574h1.465a.761.761,0,0,1,.789.773.751.751,0,0,1-.789.754Zm0,.691H15.83a.821.821,0,0,1,.848.8.809.809,0,0,1-.848.816H14.209Zm4.073-.992a.469.469,0,0,0,.477.477.472.472,0,0,0,.48-.477.475.475,0,0,0-.48-.48A.472.472,0,0,0,18.282-3.348Zm0,2.949a.469.469,0,0,0,.477.477.472.472,0,0,0,.48-.477.475.475,0,0,0-.48-.48A.472.472,0,0,0,18.282-.4Zm4.338.4h.82V-5.3H21.608v.742h1.012Zm1.643-1.367h2.52V0h.809V-1.371h.781V-2.09h-.781V-5.3h-.969L24.263-2.051Zm2.52-2.926v2.2H25.216ZM29.617,0h.82V-5.3H28.605v.742h1.012Zm2.057,0h.773V-.512a1.587,1.587,0,0,0,1.336.59,1.875,1.875,0,0,0,1.883-1.973,1.842,1.842,0,0,0-1.883-1.934,1.587,1.587,0,0,0-1.336.59V-5.5h-.773Zm.777-1.895A1.212,1.212,0,0,1,33.69-3.133a1.181,1.181,0,0,1,1.2,1.238,1.214,1.214,0,0,1-1.2,1.277A1.242,1.242,0,0,1,32.452-1.895Z" transform="translate(9 -19.134)" fill="#fff"/><text transform="translate(46.037 -19.134)" fill="#fff" font-size="8" font-family="Mundial-Regular, Mundial" letter-spacing="-0.006em"><tspan x="0" y="0">4</tspan></text><path d="M.324-1.895A1.875,1.875,0,0,0,2.207.078a1.587,1.587,0,0,0,1.336-.59V0h.773V-5.5H3.543v2.262a1.587,1.587,0,0,0-1.336-.59A1.842,1.842,0,0,0,.324-1.895ZM2.3-3.133A1.212,1.212,0,0,1,3.539-1.895,1.242,1.242,0,0,1,2.3-.617,1.214,1.214,0,0,1,1.1-1.895,1.181,1.181,0,0,1,2.3-3.133Z" transform="translate(50.766 -19.134)" fill="#fff"/></g><g transform="translate(-73 1261.043)"><path d="M3.7,0A3.346,3.346,0,0,0,7.075-3.32,3.335,3.335,0,0,0,3.7-6.631H.8V0ZM2.4-1.348V-5.278H3.54A1.871,1.871,0,0,1,5.415-3.32,1.886,1.886,0,0,1,3.54-1.348ZM9.551.1A1.555,1.555,0,0,0,10.8-.479V0h1.46V-2.783c0-1.25-.859-2-2.285-2a2.888,2.888,0,0,0-2.109.967l.85.913a1.546,1.546,0,0,1,1.128-.522c.557,0,.879.269.879.635V-2.7a3.542,3.542,0,0,0-.937-.122c-1.064,0-1.982.562-1.982,1.494C7.8-.439,8.56.1,9.551.1ZM9.277-1.421c0-.3.3-.469.781-.469a1.83,1.83,0,0,1,.664.122.792.792,0,0,1-.835.815C9.531-.952,9.277-1.143,9.277-1.421ZM15.088,0V-2.256c0-.874.493-1.191,1.074-1.191a1.792,1.792,0,0,1,.591.1l.093-1.343a1.848,1.848,0,0,0-.571-.1,1.315,1.315,0,0,0-1.226.737L15-4.687H13.55V0Zm2.544-6.875V0H19.17V-1.333l.425-.42L20.85,0h1.875l-2.1-2.705,2.026-1.982H20.64L19.17-3.208V-6.875ZM25.337-3.32A3.4,3.4,0,0,0,28.833.1,3.15,3.15,0,0,0,32.158-3a6.924,6.924,0,0,0-.029-.693H28.677v1.348h1.748a1.547,1.547,0,0,1-1.592.938A1.8,1.8,0,0,1,26.982-3.32a1.8,1.8,0,0,1,1.851-1.9,1.923,1.923,0,0,1,1.611.9l1.235-.913a3.5,3.5,0,0,0-2.847-1.489A3.392,3.392,0,0,0,25.337-3.32Zm7.461.977A2.416,2.416,0,0,0,35.317.1a2.416,2.416,0,0,0,2.52-2.441,2.416,2.416,0,0,0-2.52-2.441A2.416,2.416,0,0,0,32.8-2.344Zm1.523,0a.98.98,0,0,1,1-1.025.98.98,0,0,1,1,1.025.984.984,0,0,1-1,1.04A.984.984,0,0,1,34.321-2.344Zm6.06-4.531H38.843V0h1.538ZM43.584.1a1.977,1.977,0,0,0,1.377-.459L45.01,0H46.5V-6.875H45v2.681a1.7,1.7,0,0,0-1.421-.591A2.229,2.229,0,0,0,41.4-2.334,2.218,2.218,0,0,0,43.584.1Zm-.64-2.441a1,1,0,0,1,1.035-1.064,1,1,0,0,1,1,1.064,1,1,0,0,1-1,1.064A1.019,1.019,0,0,1,42.944-2.344Z" transform="translate(9 -61.445)" fill="#fff"/><path d="M1.723,0v-1.82H2.984a1.733,1.733,0,0,0,1.9-1.73,1.724,1.724,0,0,0-1.9-1.75H.664V0Zm0-4.387h1.2a.8.8,0,0,1,.883.836.8.8,0,0,1-.883.816h-1.2ZM6.866.078a1.242,1.242,0,0,0,1.063-.5V0h.953V-2.309c0-.937-.684-1.52-1.781-1.52a2.053,2.053,0,0,0-1.6.781l.574.574a1.328,1.328,0,0,1,.992-.473.74.74,0,0,1,.813.715v.086a2.456,2.456,0,0,0-.789-.129c-1,0-1.645.492-1.645,1.2S6.014.078,6.866.078Zm.3-1.684a1.747,1.747,0,0,1,.719.145.8.8,0,0,1-.859.793c-.383,0-.625-.18-.625-.461S6.705-1.605,7.162-1.605ZM11.063,0V-2.1a.781.781,0,0,1,.832-.8.738.738,0,0,1,.777.8V0h1V-2.355a1.4,1.4,0,0,0-1.48-1.473,1.429,1.429,0,0,0-1.156.512l-.02-.434h-.953V0ZM15-2.918V-1.23A1.224,1.224,0,0,0,16.378.078a2.286,2.286,0,0,0,.906-.187L17.19-.941a1.779,1.779,0,0,1-.637.129A.5.5,0,0,1,16-1.375V-2.918h1.1V-3.75H15.976v-1.2H15v1.2h-.637v.832Zm4.7,3a1.932,1.932,0,0,0,2-1.953,1.934,1.934,0,0,0-2-1.953,1.937,1.937,0,0,0-2,1.953A1.934,1.934,0,0,0,19.7.078ZM18.689-1.875A1,1,0,0,1,19.7-2.918.993.993,0,0,1,20.7-1.875.994.994,0,0,1,19.7-.828,1,1,0,0,1,18.689-1.875ZM23.656,0V-2.1a.781.781,0,0,1,.832-.8.738.738,0,0,1,.777.8V0h1V-2.355a1.4,1.4,0,0,0-1.48-1.473,1.429,1.429,0,0,0-1.156.512l-.02-.434h-.953V0ZM29.15.082a1.934,1.934,0,0,0,1.668-.9l-.711-.531a1.1,1.1,0,0,1-.934.527.987.987,0,0,1-1-.75h2.711A2.72,2.72,0,0,0,30.92-2,1.731,1.731,0,0,0,29.1-3.828a1.872,1.872,0,0,0-1.93,1.949A1.9,1.9,0,0,0,29.15.082Zm-.961-2.328a.881.881,0,0,1,.926-.738.842.842,0,0,1,.871.738ZM33.545-5.3v.957H35.9A19.818,19.818,0,0,0,33.9,0h1.141A19.146,19.146,0,0,1,37.1-4.516V-5.3ZM39.485.078a1.823,1.823,0,0,0,1.973-1.8A1.668,1.668,0,0,0,39.7-3.465a1.416,1.416,0,0,0-.863.258l.125-1.168h2.234V-5.3H38.1L37.79-2.488l.723.324a1.3,1.3,0,0,1,.918-.391.851.851,0,0,1,.945.848.85.85,0,0,1-.914.836,1.139,1.139,0,0,1-1.066-.8l-.852.441A1.988,1.988,0,0,0,39.485.078Zm4.83,0a1.824,1.824,0,0,0,2-1.855,1.68,1.68,0,0,0-1.836-1.738,1.435,1.435,0,0,0-1.207.539,1.415,1.415,0,0,1,1.48-1.512,2.117,2.117,0,0,1,1.027.254l.25-.84a2.723,2.723,0,0,0-1.352-.309c-1.617,0-2.477,1.156-2.477,2.957C42.206-1.055,42.8.078,44.315.078ZM44.3-2.652a.872.872,0,0,1,.957.91A.9.9,0,0,1,44.3-.82a.886.886,0,0,1-.93-.93A.871.871,0,0,1,44.3-2.652ZM46.947-4.07l.887.422a1.034,1.034,0,0,1,.949-.785.736.736,0,0,1,.8.77c0,.434-.387.762-1.016,1.223-.645.473-1.508,1.113-1.508,2V0h3.68V-.922H48.29a3.488,3.488,0,0,1,.844-.742c.719-.523,1.539-1.059,1.539-2.012a1.747,1.747,0,0,0-1.9-1.707A1.966,1.966,0,0,0,46.947-4.07ZM56.283.078A2.741,2.741,0,0,0,58.666-1.25l-.777-.562A1.892,1.892,0,0,1,56.283-.9a1.649,1.649,0,0,1-1.668-1.754,1.63,1.63,0,0,1,1.641-1.754,1.757,1.757,0,0,1,1.543.941l.832-.594a2.783,2.783,0,0,0-2.375-1.324,2.671,2.671,0,0,0-2.723,2.73A2.7,2.7,0,0,0,56.283.078Z" transform="translate(9 -47.934)" fill="#fff"/><path d="M.34-2.652A2.7,2.7,0,0,0,3.086.078,2.7,2.7,0,0,0,5.418-1.211L4.8-1.637A2.023,2.023,0,0,1,3.086-.7,1.855,1.855,0,0,1,1.2-2.652,1.844,1.844,0,0,1,3.066-4.605a1.957,1.957,0,0,1,1.7.961L5.4-4.09A2.7,2.7,0,0,0,3.066-5.383,2.686,2.686,0,0,0,.34-2.652ZM6.309,0h.828V-3.8L8.82-.375h.586L11.09-3.8V0h.828V-5.3h-.969L9.113-1.531,7.281-5.3H6.309Zm6.355-5.3,2.012,3.266V0h.816V-2.039L17.5-5.3h-.977l-1.445,2.4L13.641-5.3ZM18.25,0h.82V-1.6l.918-.988L21.691,0h1L20.566-3.141,22.559-5.3H21.5L19.07-2.668V-5.3h-.82Z" transform="translate(9 -38.334)" fill="#fff"/><path d="M.488-3.348a.469.469,0,0,0,.477.477.472.472,0,0,0,.48-.477.475.475,0,0,0-.48-.48A.472.472,0,0,0,.488-3.348ZM.488-.4A.469.469,0,0,0,.965.078.472.472,0,0,0,1.445-.4a.475.475,0,0,0-.48-.48A.472.472,0,0,0,.488-.4ZM4.07-1.113A1.929,1.929,0,0,0,5.938.078,1.628,1.628,0,0,0,7.727-1.473,1.293,1.293,0,0,0,6.84-2.715,1.238,1.238,0,0,0,7.6-3.887a1.581,1.581,0,0,0-1.777-1.5A1.847,1.847,0,0,0,4.07-4.23l.684.367A1.2,1.2,0,0,1,5.84-4.625c.543,0,.922.309.922.75a.849.849,0,0,1-.957.832h-.66v.715H5.8c.641,0,1.082.344,1.082.844a.864.864,0,0,1-.965.793,1.232,1.232,0,0,1-1.164-.8Zm4.34,0A1.929,1.929,0,0,0,10.277.078a1.628,1.628,0,0,0,1.789-1.551,1.293,1.293,0,0,0-.887-1.242,1.238,1.238,0,0,0,.762-1.172,1.581,1.581,0,0,0-1.777-1.5A1.847,1.847,0,0,0,8.41-4.23l.684.367a1.2,1.2,0,0,1,1.086-.762c.543,0,.922.309.922.75a.849.849,0,0,1-.957.832h-.66v.715h.66c.641,0,1.082.344,1.082.844a.864.864,0,0,1-.965.793,1.232,1.232,0,0,1-1.164-.8Zm9.617-4.859h-.84L14.121,1.563h.836Zm1.844,4.605h2.52V0H23.2V-1.371h.781V-2.09H23.2V-5.3H22.23L19.871-2.051Zm2.52-2.926v2.2H20.824ZM26.324.078A1.767,1.767,0,0,0,28.23-1.664,1.7,1.7,0,0,0,26.4-3.406a1.347,1.347,0,0,0-.82.246l.129-1.367h2.262V-5.3H25.008l-.25,2.754.621.254a1.389,1.389,0,0,1,.961-.387.982.982,0,0,1,1.051,1.02.979.979,0,0,1-1.051.973,1.234,1.234,0,0,1-1.172-.82l-.684.379A1.905,1.905,0,0,0,26.324.078Zm7.8-6.051h-.84L30.223,1.563h.836ZM36-5.3v.777h2.484A20.941,20.941,0,0,0,36.355,0h.891a23.015,23.015,0,0,1,2.18-4.633V-5.3Z" transform="translate(32.233 -38.334)" fill="#fff"/><path d="M1.152,0h.82V-5.3H.141v.742H1.152Zm7.09-5.973H7.4L4.336,1.563h.836ZM12.406.078c1.293,0,2.113-1.066,2.113-2.73s-.82-2.73-2.113-2.73-2.117,1.07-2.117,2.73S11.113.078,12.406.078Zm0-4.687c.773,0,1.293.758,1.293,1.957S13.18-.7,12.406-.7s-1.3-.75-1.3-1.953S11.629-4.609,12.406-4.609ZM17.2.078c1.164,0,1.934-.625,1.934-1.566a1.333,1.333,0,0,0-.93-1.3,1.194,1.194,0,0,0,.734-1.148c0-.883-.687-1.457-1.738-1.457s-1.723.574-1.723,1.457a1.2,1.2,0,0,0,.7,1.145,1.337,1.337,0,0,0-.906,1.3C15.27-.547,16.047.078,17.2.078ZM16.281-3.9a.813.813,0,0,1,.914-.766c.566,0,.93.332.93.766,0,.477-.363.781-.93.781S16.281-3.422,16.281-3.9ZM17.2-2.41c.688,0,1.121.336,1.121.867,0,.516-.434.9-1.121.9-.668,0-1.105-.383-1.105-.9C16.09-2.074,16.527-2.41,17.2-2.41Z" transform="translate(73.681 -38.334)" fill="#fff"/><path d="M.688-5.3V0h.82V-2.082H2.832L4.031,0h.953L3.7-2.2a1.529,1.529,0,0,0,1.074-1.5A1.6,1.6,0,0,0,2.969-5.3Zm2.242.738c.652,0,.988.344.988.871s-.336.879-.988.879H1.508v-1.75ZM8.25.078a2.449,2.449,0,0,0,2.57-2.543,2.768,2.768,0,0,0-.016-.309H8.125v.742H9.953A1.582,1.582,0,0,1,8.25-.7,1.858,1.858,0,0,1,6.359-2.652,1.847,1.847,0,0,1,8.23-4.605a1.9,1.9,0,0,1,1.629.871L10.5-4.18a2.66,2.66,0,0,0-2.266-1.2A2.686,2.686,0,0,0,5.5-2.652,2.7,2.7,0,0,0,8.25.078Zm6-.078a1.565,1.565,0,0,0,1.66-1.535,1.3,1.3,0,0,0-.781-1.215,1.252,1.252,0,0,0,.582-1.07A1.5,1.5,0,0,0,14.1-5.3H11.809V0ZM12.633-3.047V-4.574H14.1a.761.761,0,0,1,.789.773.751.751,0,0,1-.789.754Zm0,.691h1.621a.821.821,0,0,1,.848.8.809.809,0,0,1-.848.816H12.633Zm4.121-.992a.469.469,0,0,0,.477.477.472.472,0,0,0,.48-.477.475.475,0,0,0-.48-.48A.472.472,0,0,0,16.754-3.348Zm0,2.949a.469.469,0,0,0,.477.477.472.472,0,0,0,.48-.477.475.475,0,0,0-.48-.48A.472.472,0,0,0,16.754-.4Zm4.434.4h.82V-5.3H20.176v.742h1.012Zm3.8.078c1.164,0,1.934-.625,1.934-1.566a1.333,1.333,0,0,0-.93-1.3,1.194,1.194,0,0,0,.734-1.148c0-.883-.687-1.457-1.738-1.457s-1.723.574-1.723,1.457a1.2,1.2,0,0,0,.7,1.145,1.337,1.337,0,0,0-.906,1.3C23.066-.547,23.844.078,24.992.078ZM24.078-3.9a.813.813,0,0,1,.914-.766c.566,0,.93.332.93.766,0,.477-.363.781-.93.781S24.078-3.422,24.078-3.9Zm.914,1.488c.688,0,1.121.336,1.121.867,0,.516-.434.9-1.121.9-.668,0-1.105-.383-1.105-.9C23.887-2.074,24.324-2.41,24.992-2.41Zm4.461.563a1.4,1.4,0,0,0,1.258-.625c-.035,1.188-.719,1.8-1.59,1.8a1.874,1.874,0,0,1-.988-.3l-.277.7a2.3,2.3,0,0,0,1.32.359c1.648,0,2.371-1.211,2.371-2.922,0-1.4-.6-2.539-2.043-2.539a1.737,1.737,0,0,0-1.91,1.8A1.69,1.69,0,0,0,29.453-1.848Zm.082-2.82A1.03,1.03,0,0,1,30.578-3.6a1,1,0,0,1-1.047,1.023.968.968,0,0,1-1.1-1.035A1.009,1.009,0,0,1,29.535-4.668Zm7.973-1.3h-.84L33.6,1.563h.836ZM40.324,0h.82V-5.3H39.313v.742h1.012Zm3.6.078a1.767,1.767,0,0,0,1.906-1.742A1.7,1.7,0,0,0,44-3.406a1.347,1.347,0,0,0-.82.246l.129-1.367H45.57V-5.3H42.605l-.25,2.754.621.254a1.389,1.389,0,0,1,.961-.387.982.982,0,0,1,1.051,1.02.979.979,0,0,1-1.051.973,1.234,1.234,0,0,1-1.172-.82l-.684.379A1.905,1.905,0,0,0,43.922.078Zm4.313,0a1.767,1.767,0,0,0,1.906-1.742,1.7,1.7,0,0,0-1.828-1.742,1.347,1.347,0,0,0-.82.246l.129-1.367h2.262V-5.3H46.918l-.25,2.754.621.254a1.389,1.389,0,0,1,.961-.387A.982.982,0,0,1,49.3-1.664a.979.979,0,0,1-1.051.973,1.234,1.234,0,0,1-1.172-.82l-.684.379A1.905,1.905,0,0,0,48.234.078Zm7.8-6.051H55.2L52.133,1.563h.836Zm3.824,4.125a1.4,1.4,0,0,0,1.258-.625c-.035,1.188-.719,1.8-1.59,1.8a1.874,1.874,0,0,1-.988-.3l-.277.7a2.3,2.3,0,0,0,1.32.359c1.648,0,2.371-1.211,2.371-2.922,0-1.4-.6-2.539-2.043-2.539A1.737,1.737,0,0,0,58-3.582,1.69,1.69,0,0,0,59.863-1.848Zm.082-2.82A1.03,1.03,0,0,1,60.988-3.6a1,1,0,0,1-1.047,1.023.968.968,0,0,1-1.1-1.035A1.009,1.009,0,0,1,59.945-4.668Z" transform="translate(9 -28.734)" fill="#fff"/><path d="M2.477.078a1.763,1.763,0,0,0,1.879-1.8,1.7,1.7,0,0,0-1.84-1.734A1.517,1.517,0,0,0,1.2-2.832c.066-1.3.7-1.809,1.609-1.809a2.091,2.091,0,0,1,1.008.258l.238-.7a2.452,2.452,0,0,0-1.262-.3c-1.676,0-2.41,1.211-2.41,2.922C.383-1.059,1,.078,2.477.078ZM2.406-2.73A.99.99,0,0,1,3.516-1.7,1.025,1.025,0,0,1,2.422-.637a1.039,1.039,0,0,1-1.09-1.07A1,1,0,0,1,2.406-2.73Z" transform="translate(73.778 -28.734)" fill="#fff"/><path d="M.117-5.3,1.594,0H2.918L3.98-3.93,5.047,0H6.371L7.848-5.3H7.023L5.707-.738,4.422-5.219H3.543L2.258-.738.938-5.3ZM8.652,0h3.8V-.746H9.473V-2.352h2.488V-3.1H9.473V-4.559h2.9V-5.3H8.652Zm7.273,0a1.565,1.565,0,0,0,1.66-1.535A1.3,1.3,0,0,0,16.8-2.75a1.252,1.252,0,0,0,.582-1.07A1.5,1.5,0,0,0,15.77-5.3H13.48V0ZM14.3-3.047V-4.574H15.77a.761.761,0,0,1,.789.773.751.751,0,0,1-.789.754Zm0,.691h1.621a.821.821,0,0,1,.848.8.809.809,0,0,1-.848.816H14.3Zm4.121-.992a.469.469,0,0,0,.477.477.472.472,0,0,0,.48-.477.475.475,0,0,0-.48-.48A.472.472,0,0,0,18.426-3.348Zm0,2.949A.469.469,0,0,0,18.9.078a.472.472,0,0,0,.48-.477.475.475,0,0,0-.48-.48A.472.472,0,0,0,18.426-.4ZM22.3,0h.773V-.512a1.587,1.587,0,0,0,1.336.59,1.875,1.875,0,0,0,1.883-1.973A1.842,1.842,0,0,0,24.41-3.828a1.587,1.587,0,0,0-1.336.59V-5.5H22.3Zm.777-1.895a1.212,1.212,0,0,1,1.238-1.238,1.181,1.181,0,0,1,1.2,1.238,1.214,1.214,0,0,1-1.2,1.277A1.242,1.242,0,0,1,23.078-1.895Zm3.863,0A1.875,1.875,0,0,0,28.824.078a1.587,1.587,0,0,0,1.336-.59V0h.773V-5.5H30.16v2.262a1.587,1.587,0,0,0-1.336-.59A1.842,1.842,0,0,0,26.941-1.895Zm1.977-1.238a1.212,1.212,0,0,1,1.238,1.238A1.242,1.242,0,0,1,28.918-.617a1.214,1.214,0,0,1-1.2-1.277A1.181,1.181,0,0,1,28.918-3.133Zm4.77,1.285a1.4,1.4,0,0,0,1.258-.625c-.035,1.188-.719,1.8-1.59,1.8a1.874,1.874,0,0,1-.988-.3l-.277.7a2.3,2.3,0,0,0,1.32.359c1.648,0,2.371-1.211,2.371-2.922,0-1.4-.6-2.539-2.043-2.539a1.737,1.737,0,0,0-1.91,1.8A1.69,1.69,0,0,0,33.688-1.848Zm.082-2.82A1.03,1.03,0,0,1,34.813-3.6a1,1,0,0,1-1.047,1.023.968.968,0,0,1-1.1-1.035A1.009,1.009,0,0,1,33.77-4.668ZM36.758,0h.773V-.512a1.587,1.587,0,0,0,1.336.59A1.875,1.875,0,0,0,40.75-1.895a1.842,1.842,0,0,0-1.883-1.934,1.587,1.587,0,0,0-1.336.59V-5.5h-.773Zm.777-1.895a1.212,1.212,0,0,1,1.238-1.238,1.181,1.181,0,0,1,1.2,1.238,1.214,1.214,0,0,1-1.2,1.277A1.242,1.242,0,0,1,37.535-1.895ZM43.551.078a1.763,1.763,0,0,0,1.879-1.8,1.7,1.7,0,0,0-1.84-1.734,1.517,1.517,0,0,0-1.316.625c.066-1.3.7-1.809,1.609-1.809a2.091,2.091,0,0,1,1.008.258l.238-.7a2.452,2.452,0,0,0-1.262-.3c-1.676,0-2.41,1.211-2.41,2.922C41.457-1.059,42.07.078,43.551.078ZM43.48-2.73A.99.99,0,0,1,44.59-1.7,1.025,1.025,0,0,1,43.5-.637a1.039,1.039,0,0,1-1.09-1.07A1,1,0,0,1,43.48-2.73ZM48.219.078c1.293,0,2.113-1.066,2.113-2.73s-.82-2.73-2.113-2.73S46.1-4.312,46.1-2.652,46.926.078,48.219.078Zm0-4.687c.773,0,1.293.758,1.293,1.957S48.992-.7,48.219-.7s-1.3-.75-1.3-1.953S47.441-4.609,48.219-4.609Z" transform="translate(9 -19.134)" fill="#fff"/></g><g transform="translate(94.5 1260.531)"><path d="M5.767-1.348H2.4V-6.631H.8V0H5.767Zm.714-4.78a.8.8,0,0,0,.84.84.807.807,0,0,0,.85-.84.809.809,0,0,0-.85-.845A.8.8,0,0,0,6.48-6.128Zm.1,1.44V0H8.116V-4.687ZM9.191,1.035a3.047,3.047,0,0,0,2.373,1.016c1.309,0,2.729-.669,2.729-2.217V-4.687H12.8l-.049.493a1.722,1.722,0,0,0-1.382-.591A2.256,2.256,0,0,0,9.206-2.339,2.247,2.247,0,0,0,11.374.1a1.708,1.708,0,0,0,1.382-.591v.264c0,.7-.688.962-1.211.962A1.921,1.921,0,0,1,10.1.122ZM11.74-3.418a1,1,0,0,1,1.011,1.079A1,1,0,0,1,11.74-1.26a1,1,0,0,1-1.011-1.079A1,1,0,0,1,11.74-3.418ZM17.21,0V-2.607a.744.744,0,0,1,.781-.771.756.756,0,0,1,.786.771V0h1.538V-3.047a1.682,1.682,0,0,0-1.733-1.738,1.886,1.886,0,0,0-1.377.5V-6.875H15.667V0Zm3.824-3.433h.747V-1.67A1.634,1.634,0,0,0,23.632.1a3,3,0,0,0,1.245-.264l-.107-1.25a2.265,2.265,0,0,1-.757.161c-.405,0-.693-.156-.693-.664V-3.433h1.372V-4.687H23.27v-1.5H21.781v1.5h-.747Zm6.677.112A3.4,3.4,0,0,0,31.207.1,3.15,3.15,0,0,0,34.532-3a6.924,6.924,0,0,0-.029-.693H31.051v1.348H32.8a1.547,1.547,0,0,1-1.592.938A1.8,1.8,0,0,1,29.356-3.32a1.8,1.8,0,0,1,1.851-1.9,1.923,1.923,0,0,1,1.611.9l1.235-.913a3.5,3.5,0,0,0-2.847-1.489A3.392,3.392,0,0,0,27.711-3.32Zm7.5.977A2.416,2.416,0,0,0,37.731.1a2.416,2.416,0,0,0,2.52-2.441,2.416,2.416,0,0,0-2.52-2.441A2.416,2.416,0,0,0,35.212-2.344Zm1.523,0a.98.98,0,0,1,1-1.025.98.98,0,0,1,1,1.025.984.984,0,0,1-1,1.04A.984.984,0,0,1,36.735-2.344Zm6.1-4.531H41.3V0h1.538ZM46.078.1a1.977,1.977,0,0,0,1.377-.459L47.5,0h1.489V-6.875H47.5v2.681a1.7,1.7,0,0,0-1.421-.591A2.229,2.229,0,0,0,43.89-2.334,2.218,2.218,0,0,0,46.078.1Zm-.64-2.441a1,1,0,0,1,1.035-1.064,1,1,0,0,1,1,1.064,1,1,0,0,1-1,1.064A1.019,1.019,0,0,1,45.438-2.344Z" transform="translate(9 -61.445)" fill="#fff"/><path d="M1.723,0v-1.82H2.984a1.733,1.733,0,0,0,1.9-1.73,1.724,1.724,0,0,0-1.9-1.75H.664V0Zm0-4.387h1.2a.8.8,0,0,1,.883.836.8.8,0,0,1-.883.816h-1.2ZM6.77.078a1.242,1.242,0,0,0,1.063-.5V0h.953V-2.309c0-.937-.684-1.52-1.781-1.52a2.053,2.053,0,0,0-1.6.781l.574.574a1.328,1.328,0,0,1,.992-.473.74.74,0,0,1,.813.715v.086A2.456,2.456,0,0,0,7-2.273c-1,0-1.645.492-1.645,1.2S5.918.078,6.77.078Zm.3-1.684a1.747,1.747,0,0,1,.719.145.8.8,0,0,1-.859.793c-.383,0-.625-.18-.625-.461S6.609-1.605,7.066-1.605ZM10.871,0V-2.1a.781.781,0,0,1,.832-.8.738.738,0,0,1,.777.8V0h1V-2.355A1.4,1.4,0,0,0,12-3.828a1.429,1.429,0,0,0-1.156.512l-.02-.434H9.871V0Zm3.84-2.918V-1.23A1.224,1.224,0,0,0,16.09.078,2.286,2.286,0,0,0,17-.109L16.9-.941a1.779,1.779,0,0,1-.637.129.5.5,0,0,1-.555-.562V-2.918h1.1V-3.75H15.688v-1.2h-.973v1.2h-.637v.832Zm4.6,3a1.932,1.932,0,0,0,2-1.953,1.934,1.934,0,0,0-2-1.953,1.937,1.937,0,0,0-2,1.953A1.934,1.934,0,0,0,19.313.078ZM18.3-1.875a1,1,0,0,1,1.008-1.043A.993.993,0,0,1,20.32-1.875.994.994,0,0,1,19.313-.828,1,1,0,0,1,18.3-1.875ZM23.176,0V-2.1a.781.781,0,0,1,.832-.8.738.738,0,0,1,.777.8V0h1V-2.355A1.4,1.4,0,0,0,24.3-3.828a1.429,1.429,0,0,0-1.156.512l-.02-.434h-.953V0Zm5.4.082a1.934,1.934,0,0,0,1.668-.9l-.711-.531a1.1,1.1,0,0,1-.934.527.987.987,0,0,1-1-.75h2.711A2.72,2.72,0,0,0,30.344-2a1.731,1.731,0,0,0-1.816-1.828A1.872,1.872,0,0,0,26.6-1.879,1.9,1.9,0,0,0,28.574.082Zm-.961-2.328a.881.881,0,0,1,.926-.738.842.842,0,0,1,.871.738ZM32.777-5.3v.957h2.352a19.818,19.818,0,0,0-2,4.348h1.141a19.146,19.146,0,0,1,2.059-4.516V-5.3ZM38.621.078a1.823,1.823,0,0,0,1.973-1.8,1.668,1.668,0,0,0-1.762-1.742,1.416,1.416,0,0,0-.863.258l.125-1.168h2.234V-5.3h-3.09l-.312,2.816.723.324a1.3,1.3,0,0,1,.918-.391.851.851,0,0,1,.945.848.85.85,0,0,1-.914.836,1.139,1.139,0,0,1-1.066-.8l-.852.441A1.988,1.988,0,0,0,38.621.078Zm2.625-2.711c0,1.461.676,2.711,2.234,2.711s2.238-1.25,2.238-2.711-.664-2.75-2.238-2.75S41.246-4.094,41.246-2.633Zm2.234-1.8c.832,0,1.16.875,1.16,1.785,0,.938-.328,1.785-1.16,1.785s-1.156-.848-1.156-1.785C42.324-3.562,42.648-4.437,43.48-4.437ZM47.238,0h1.055V-5.3H46.109v.926h1.129Zm6.734.078A2.741,2.741,0,0,0,56.355-1.25l-.777-.562A1.892,1.892,0,0,1,53.973-.9,1.649,1.649,0,0,1,52.3-2.652a1.63,1.63,0,0,1,1.641-1.754,1.757,1.757,0,0,1,1.543.941l.832-.594a2.783,2.783,0,0,0-2.375-1.324,2.671,2.671,0,0,0-2.723,2.73A2.7,2.7,0,0,0,53.973.078Z" transform="translate(9 -47.934)" fill="#fff"/><path d="M.34-2.652A2.7,2.7,0,0,0,3.086.078,2.7,2.7,0,0,0,5.418-1.211L4.8-1.637A2.023,2.023,0,0,1,3.086-.7,1.855,1.855,0,0,1,1.2-2.652,1.844,1.844,0,0,1,3.066-4.605a1.957,1.957,0,0,1,1.7.961L5.4-4.09A2.7,2.7,0,0,0,3.066-5.383,2.686,2.686,0,0,0,.34-2.652ZM6.309,0h.828V-3.8L8.82-.375h.586L11.09-3.8V0h.828V-5.3h-.969L9.113-1.531,7.281-5.3H6.309Zm6.355-5.3,2.012,3.266V0h.816V-2.039L17.5-5.3h-.977l-1.445,2.4L13.641-5.3ZM18.25,0h.82V-1.6l.918-.988L21.691,0h1L20.566-3.141,22.559-5.3H21.5L19.07-2.668V-5.3h-.82Z" transform="translate(9 -38.334)" fill="#fff"/><path d="M.488-3.348a.469.469,0,0,0,.477.477.472.472,0,0,0,.48-.477.475.475,0,0,0-.48-.48A.472.472,0,0,0,.488-3.348ZM.488-.4A.469.469,0,0,0,.965.078.472.472,0,0,0,1.445-.4a.475.475,0,0,0-.48-.48A.472.472,0,0,0,.488-.4Zm3.574-3.75.691.332a1.157,1.157,0,0,1,1.063-.789.86.86,0,0,1,.934.867c0,.52-.406.852-1.059,1.352S4.141-1.289,4.141-.355V0H7.7V-.777H5.09c.016-.219.59-.656,1.035-.992.7-.531,1.484-.961,1.484-1.984A1.646,1.646,0,0,0,5.816-5.383,1.875,1.875,0,0,0,4.063-4.148Zm4.285,0,.691.332A1.157,1.157,0,0,1,10.1-4.605a.86.86,0,0,1,.934.867c0,.52-.406.852-1.059,1.352S8.426-1.289,8.426-.355V0H11.98V-.777H9.375c.016-.219.59-.656,1.035-.992.7-.531,1.484-.961,1.484-1.984A1.646,1.646,0,0,0,10.1-5.383,1.875,1.875,0,0,0,8.348-4.148Zm9.57-1.824h-.84L14.012,1.563h.836Zm1.965,4.859A1.929,1.929,0,0,0,21.75.078a1.628,1.628,0,0,0,1.789-1.551,1.293,1.293,0,0,0-.887-1.242,1.238,1.238,0,0,0,.762-1.172,1.581,1.581,0,0,0-1.777-1.5A1.847,1.847,0,0,0,19.883-4.23l.684.367a1.2,1.2,0,0,1,1.086-.762c.543,0,.922.309.922.75a.849.849,0,0,1-.957.832h-.66v.715h.66c.641,0,1.082.344,1.082.844a.864.864,0,0,1-.965.793,1.232,1.232,0,0,1-1.164-.8ZM26.422.078c1.293,0,2.113-1.066,2.113-2.73s-.82-2.73-2.113-2.73S24.3-4.312,24.3-2.652,25.129.078,26.422.078Zm0-4.687c.773,0,1.293.758,1.293,1.957S27.2-.7,26.422-.7s-1.3-.75-1.3-1.953S25.645-4.609,26.422-4.609ZM34.5-5.973h-.84L30.59,1.563h.836ZM36.34-1.367h2.52V0h.809V-1.371h.781V-2.09h-.781V-5.3H38.7L36.34-2.051Zm2.52-2.926v2.2H37.293ZM43,.078c1.164,0,1.934-.625,1.934-1.566a1.333,1.333,0,0,0-.93-1.3,1.194,1.194,0,0,0,.734-1.148c0-.883-.687-1.457-1.738-1.457s-1.723.574-1.723,1.457a1.2,1.2,0,0,0,.7,1.145,1.337,1.337,0,0,0-.906,1.3C41.074-.547,41.852.078,43,.078ZM42.086-3.9A.813.813,0,0,1,43-4.664c.566,0,.93.332.93.766,0,.477-.363.781-.93.781S42.086-3.422,42.086-3.9ZM43-2.41c.688,0,1.121.336,1.121.867,0,.516-.434.9-1.121.9-.668,0-1.105-.383-1.105-.9C41.895-2.074,42.332-2.41,43-2.41Zm7.879-3.562h-.84L46.973,1.563h.836ZM55.043.078c1.293,0,2.113-1.066,2.113-2.73s-.82-2.73-2.113-2.73-2.117,1.07-2.117,2.73S53.75.078,55.043.078Zm0-4.687c.773,0,1.293.758,1.293,1.957S55.816-.7,55.043-.7s-1.3-.75-1.3-1.953S54.266-4.609,55.043-4.609Z" transform="translate(32.233 -38.334)" fill="#fff"/><path d="M2.5.078c1.293,0,2.113-1.066,2.113-2.73s-.82-2.73-2.113-2.73S.383-4.312.383-2.652,1.207.078,2.5.078Zm0-4.687c.773,0,1.293.758,1.293,1.957S3.273-.7,2.5-.7s-1.3-.75-1.3-1.953S1.723-4.609,2.5-4.609Z" transform="translate(92.321 -38.334)" fill="#fff"/><path d="M.688-5.3V0h.82V-2.082H2.832L4.031,0h.953L3.7-2.2a1.529,1.529,0,0,0,1.074-1.5A1.6,1.6,0,0,0,2.969-5.3Zm2.242.738c.652,0,.988.344.988.871s-.336.879-.988.879H1.508v-1.75ZM8.25.078a2.449,2.449,0,0,0,2.57-2.543,2.768,2.768,0,0,0-.016-.309H8.125v.742H9.953A1.582,1.582,0,0,1,8.25-.7,1.858,1.858,0,0,1,6.359-2.652,1.847,1.847,0,0,1,8.23-4.605a1.9,1.9,0,0,1,1.629.871L10.5-4.18a2.66,2.66,0,0,0-2.266-1.2A2.686,2.686,0,0,0,5.5-2.652,2.7,2.7,0,0,0,8.25.078Zm6-.078a1.565,1.565,0,0,0,1.66-1.535,1.3,1.3,0,0,0-.781-1.215,1.252,1.252,0,0,0,.582-1.07A1.5,1.5,0,0,0,14.1-5.3H11.809V0ZM12.633-3.047V-4.574H14.1a.761.761,0,0,1,.789.773.751.751,0,0,1-.789.754Zm0,.691h1.621a.821.821,0,0,1,.848.8.809.809,0,0,1-.848.816H12.633Zm4.121-.992a.469.469,0,0,0,.477.477.472.472,0,0,0,.48-.477.475.475,0,0,0-.48-.48A.472.472,0,0,0,16.754-3.348Zm0,2.949a.469.469,0,0,0,.477.477.472.472,0,0,0,.48-.477.475.475,0,0,0-.48-.48A.472.472,0,0,0,16.754-.4Zm3.574-3.75.691.332a1.157,1.157,0,0,1,1.063-.789.86.86,0,0,1,.934.867c0,.52-.406.852-1.059,1.352s-1.551,1.1-1.551,2.031V0h3.555V-.777H21.355c.016-.219.59-.656,1.035-.992.7-.531,1.484-.961,1.484-1.984a1.646,1.646,0,0,0-1.793-1.629A1.875,1.875,0,0,0,20.328-4.148ZM25.473,0h.82V-5.3H24.461v.742h1.012ZM27.2-5.3v.777H29.68A20.941,20.941,0,0,0,27.547,0h.891a23.015,23.015,0,0,1,2.18-4.633V-5.3Zm9.152-.668h-.84L32.441,1.563h.836Zm.441,1.824.691.332a1.157,1.157,0,0,1,1.063-.789.86.86,0,0,1,.934.867c0,.52-.406.852-1.059,1.352s-1.551,1.1-1.551,2.031V0h3.555V-.777H37.816c.016-.219.59-.656,1.035-.992.7-.531,1.484-.961,1.484-1.984a1.646,1.646,0,0,0-1.793-1.629A1.875,1.875,0,0,0,36.789-4.148ZM43.281.078c1.293,0,2.113-1.066,2.113-2.73s-.82-2.73-2.113-2.73-2.117,1.07-2.117,2.73S41.988.078,43.281.078Zm0-4.687c.773,0,1.293.758,1.293,1.957S44.055-.7,43.281-.7s-1.3-.75-1.3-1.953S42.5-4.609,43.281-4.609Zm5,4.688c1.293,0,2.113-1.066,2.113-2.73s-.82-2.73-2.113-2.73-2.117,1.07-2.117,2.73S46.984.078,48.277.078Zm0-4.687c.773,0,1.293.758,1.293,1.957S49.051-.7,48.277-.7s-1.3-.75-1.3-1.953S47.5-4.609,48.277-4.609Z" transform="translate(9 -28.734)" fill="#fff"/><path d="M4.063-5.973h-.84L.156,1.563H.992ZM6.879,0H7.7V-5.3H5.867v.742H6.879Zm3.6.078a1.767,1.767,0,0,0,1.906-1.742,1.7,1.7,0,0,0-1.828-1.742,1.347,1.347,0,0,0-.82.246l.129-1.367h2.262V-5.3H9.16L8.91-2.551l.621.254a1.389,1.389,0,0,1,.961-.387.982.982,0,0,1,1.051,1.02.979.979,0,0,1-1.051.973,1.234,1.234,0,0,1-1.172-.82l-.684.379A1.905,1.905,0,0,0,10.477.078Zm4.52,0c1.164,0,1.934-.625,1.934-1.566a1.333,1.333,0,0,0-.93-1.3,1.194,1.194,0,0,0,.734-1.148c0-.883-.687-1.457-1.738-1.457s-1.723.574-1.723,1.457a1.2,1.2,0,0,0,.7,1.145,1.337,1.337,0,0,0-.906,1.3C13.07-.547,13.848.078,15,.078ZM14.082-3.9A.813.813,0,0,1,15-4.664c.566,0,.93.332.93.766,0,.477-.363.781-.93.781S14.082-3.422,14.082-3.9ZM15-2.41c.688,0,1.121.336,1.121.867,0,.516-.434.9-1.121.9-.668,0-1.105-.383-1.105-.9C13.891-2.074,14.328-2.41,15-2.41Z" transform="translate(60.426 -28.734)" fill="#fff"/><path d="M.117-5.3,1.594,0H2.918L3.98-3.93,5.047,0H6.371L7.848-5.3H7.023L5.707-.738,4.422-5.219H3.543L2.258-.738.938-5.3ZM8.652,0h3.8V-.746H9.473V-2.352h2.488V-3.1H9.473V-4.559h2.9V-5.3H8.652Zm7.273,0a1.565,1.565,0,0,0,1.66-1.535A1.3,1.3,0,0,0,16.8-2.75a1.252,1.252,0,0,0,.582-1.07A1.5,1.5,0,0,0,15.77-5.3H13.48V0ZM14.3-3.047V-4.574H15.77a.761.761,0,0,1,.789.773.751.751,0,0,1-.789.754Zm0,.691h1.621a.821.821,0,0,1,.848.8.809.809,0,0,1-.848.816H14.3Zm4.121-.992a.469.469,0,0,0,.477.477.472.472,0,0,0,.48-.477.475.475,0,0,0-.48-.48A.472.472,0,0,0,18.426-3.348Zm0,2.949A.469.469,0,0,0,18.9.078a.472.472,0,0,0,.48-.477.475.475,0,0,0-.48-.48A.472.472,0,0,0,18.426-.4Zm3.605-1.5A1.875,1.875,0,0,0,23.914.078a1.587,1.587,0,0,0,1.336-.59V0h.773V-5.5H25.25v2.262a1.587,1.587,0,0,0-1.336-.59A1.842,1.842,0,0,0,22.031-1.895Zm1.977-1.238a1.212,1.212,0,0,1,1.238,1.238A1.242,1.242,0,0,1,24.008-.617a1.214,1.214,0,0,1-1.2-1.277A1.181,1.181,0,0,1,24.008-3.133Zm4.77,1.285a1.4,1.4,0,0,0,1.258-.625c-.035,1.188-.719,1.8-1.59,1.8a1.874,1.874,0,0,1-.988-.3l-.277.7A2.3,2.3,0,0,0,28.5.078c1.648,0,2.371-1.211,2.371-2.922,0-1.4-.6-2.539-2.043-2.539a1.737,1.737,0,0,0-1.91,1.8A1.69,1.69,0,0,0,28.777-1.848Zm.082-2.82A1.03,1.03,0,0,1,29.9-3.6a1,1,0,0,1-1.047,1.023.968.968,0,0,1-1.1-1.035A1.009,1.009,0,0,1,28.859-4.668Zm4.7,4.746a1.957,1.957,0,0,0,1.734-1.02l-.582-.41a1.308,1.308,0,0,1-1.152.7,1.194,1.194,0,0,1-1.207-1.23A1.186,1.186,0,0,1,33.574-3.1a1.288,1.288,0,0,1,1.125.707l.6-.406A1.908,1.908,0,0,0,33.59-3.828a1.961,1.961,0,0,0-2.02,1.949A1.941,1.941,0,0,0,33.559.078Zm4.273,0c1.164,0,1.934-.625,1.934-1.566a1.333,1.333,0,0,0-.93-1.3,1.194,1.194,0,0,0,.734-1.148c0-.883-.687-1.457-1.738-1.457s-1.723.574-1.723,1.457a1.2,1.2,0,0,0,.7,1.145,1.337,1.337,0,0,0-.906,1.3C35.906-.547,36.684.078,37.832.078ZM36.918-3.9a.813.813,0,0,1,.914-.766c.566,0,.93.332.93.766,0,.477-.363.781-.93.781S36.918-3.422,36.918-3.9Zm.914,1.488c.688,0,1.121.336,1.121.867,0,.516-.434.9-1.121.9-.668,0-1.105-.383-1.105-.9C36.727-2.074,37.164-2.41,37.832-2.41Zm4.461.563a1.4,1.4,0,0,0,1.258-.625c-.035,1.188-.719,1.8-1.59,1.8a1.874,1.874,0,0,1-.988-.3l-.277.7a2.3,2.3,0,0,0,1.32.359c1.648,0,2.371-1.211,2.371-2.922,0-1.4-.6-2.539-2.043-2.539a1.737,1.737,0,0,0-1.91,1.8A1.69,1.69,0,0,0,42.293-1.848Zm.082-2.82A1.03,1.03,0,0,1,43.418-3.6a1,1,0,0,1-1.047,1.023.968.968,0,0,1-1.1-1.035A1.009,1.009,0,0,1,42.375-4.668Zm2.715,2.8A1.905,1.905,0,0,0,47.055.078a1.933,1.933,0,0,0,1.7-.953l-.57-.414a1.261,1.261,0,0,1-1.125.641,1.106,1.106,0,0,1-1.164-1H48.8a1.889,1.889,0,0,0,.031-.359,1.751,1.751,0,0,0-1.8-1.816A1.885,1.885,0,0,0,45.09-1.871Zm.82-.359a1.09,1.09,0,0,1,1.109-.9,1,1,0,0,1,1.027.9Z" transform="translate(9 -19.134)" fill="#fff"/></g></g><g transform="translate(16.768 550.092)"><path d="M2.4,0V-2.285H3.506L4.761,0H6.494L5.107-2.476a2.115,2.115,0,0,0,1.3-2A2.162,2.162,0,0,0,4.146-6.631H.8V0Zm0-5.264H3.8c.61,0,.967.347.967.786a.855.855,0,0,1-.967.825H2.4Zm4.928-.864a.8.8,0,0,0,.84.84.807.807,0,0,0,.85-.84.809.809,0,0,0-.85-.845A.8.8,0,0,0,7.325-6.128Zm.1,1.44V0H8.961V-4.687ZM12.477.1a2.517,2.517,0,0,0,2.236-1.221l-1.162-.85a1.183,1.183,0,0,1-1.025.669.984.984,0,0,1-1-1.04.98.98,0,0,1,1-1.025,1.049,1.049,0,0,1,.991.684L14.7-3.53a2.451,2.451,0,0,0-2.178-1.255,2.416,2.416,0,0,0-2.52,2.441A2.375,2.375,0,0,0,12.477.1ZM17.21,0V-2.607a.744.744,0,0,1,.781-.771.756.756,0,0,1,.786.771V0h1.538V-3.047a1.682,1.682,0,0,0-1.733-1.738,1.886,1.886,0,0,0-1.377.5V-6.875H15.667V0Zm10.2,0a1.859,1.859,0,0,0,2.07-1.812,1.534,1.534,0,0,0-1.108-1.543A1.672,1.672,0,0,0,29.3-4.863c0-1.1-.869-1.768-2.1-1.768h-3.1V0ZM25.7-3.931V-5.288h1.2a.691.691,0,0,1,.732.679.657.657,0,0,1-.684.679Zm0,2.593V-2.7h1.309a.684.684,0,0,1,.732.688.7.7,0,0,1-.732.674ZM32.11-6.875H30.572V0H32.11ZM35.173.146a1.82,1.82,0,0,0,1.45-.591L36.672,0h1.411V-4.687H36.545v2.656a.744.744,0,0,1-.781.771.756.756,0,0,1-.786-.771V-4.687H33.439v3.1A1.682,1.682,0,0,0,35.173.146Zm3.961-2.49A2.377,2.377,0,0,0,41.653.1,2.383,2.383,0,0,0,43.7-.923l-.977-.859a1.407,1.407,0,0,1-1.05.581.949.949,0,0,1-1.035-.747H43.8a3.632,3.632,0,0,0,.044-.547A2.214,2.214,0,0,0,41.5-4.785,2.3,2.3,0,0,0,39.133-2.344Zm2.412-1.23a.841.841,0,0,1,.879.723H40.637A.854.854,0,0,1,41.546-3.574Z" transform="translate(9 -61.445)" fill="#fff"/><path d="M1.723,0v-1.82H2.984a1.733,1.733,0,0,0,1.9-1.73,1.724,1.724,0,0,0-1.9-1.75H.664V0Zm0-4.387h1.2a.8.8,0,0,1,.883.836.8.8,0,0,1-.883.816h-1.2ZM6.77.078a1.242,1.242,0,0,0,1.063-.5V0h.953V-2.309c0-.937-.684-1.52-1.781-1.52a2.053,2.053,0,0,0-1.6.781l.574.574a1.328,1.328,0,0,1,.992-.473.74.74,0,0,1,.813.715v.086A2.456,2.456,0,0,0,7-2.273c-1,0-1.645.492-1.645,1.2S5.918.078,6.77.078Zm.3-1.684a1.747,1.747,0,0,1,.719.145.8.8,0,0,1-.859.793c-.383,0-.625-.18-.625-.461S6.609-1.605,7.066-1.605ZM10.871,0V-2.1a.781.781,0,0,1,.832-.8.738.738,0,0,1,.777.8V0h1V-2.355A1.4,1.4,0,0,0,12-3.828a1.429,1.429,0,0,0-1.156.512l-.02-.434H9.871V0Zm3.84-2.918V-1.23A1.224,1.224,0,0,0,16.09.078,2.286,2.286,0,0,0,17-.109L16.9-.941a1.779,1.779,0,0,1-.637.129.5.5,0,0,1-.555-.562V-2.918h1.1V-3.75H15.688v-1.2h-.973v1.2h-.637v.832Zm4.6,3a1.932,1.932,0,0,0,2-1.953,1.934,1.934,0,0,0-2-1.953,1.937,1.937,0,0,0-2,1.953A1.934,1.934,0,0,0,19.313.078ZM18.3-1.875a1,1,0,0,1,1.008-1.043A.993.993,0,0,1,20.32-1.875.994.994,0,0,1,19.313-.828,1,1,0,0,1,18.3-1.875ZM23.176,0V-2.1a.781.781,0,0,1,.832-.8.738.738,0,0,1,.777.8V0h1V-2.355A1.4,1.4,0,0,0,24.3-3.828a1.429,1.429,0,0,0-1.156.512l-.02-.434h-.953V0Zm5.4.082a1.934,1.934,0,0,0,1.668-.9l-.711-.531a1.1,1.1,0,0,1-.934.527.987.987,0,0,1-1-.75h2.711A2.72,2.72,0,0,0,30.344-2a1.731,1.731,0,0,0-1.816-1.828A1.872,1.872,0,0,0,26.6-1.879,1.9,1.9,0,0,0,28.574.082Zm-.961-2.328a.881.881,0,0,1,.926-.738.842.842,0,0,1,.871.738ZM32.777-5.3v.957h2.352a19.818,19.818,0,0,0-2,4.348h1.141a19.146,19.146,0,0,1,2.059-4.516V-5.3Zm5.945,3.973V0h1.012V-1.332h.734v-.9h-.734V-5.3H38.5L36.215-2.148v.816Zm-1.359-.9L38.723-4.1V-2.23Z" transform="translate(9 -47.934)" fill="#fff"/><path d="M2.164.078a1.823,1.823,0,0,0,1.973-1.8A1.668,1.668,0,0,0,2.375-3.465a1.416,1.416,0,0,0-.863.258l.125-1.168H3.871V-5.3H.781L.469-2.488l.723.324a1.3,1.3,0,0,1,.918-.391.851.851,0,0,1,.945.848.85.85,0,0,1-.914.836,1.139,1.139,0,0,1-1.066-.8l-.852.441A1.988,1.988,0,0,0,2.164.078Zm4.43,0a1.823,1.823,0,0,0,1.973-1.8A1.668,1.668,0,0,0,6.8-3.465a1.416,1.416,0,0,0-.863.258l.125-1.168H8.3V-5.3H5.211L4.9-2.488l.723.324a1.3,1.3,0,0,1,.918-.391.851.851,0,0,1,.945.848.85.85,0,0,1-.914.836,1.139,1.139,0,0,1-1.066-.8l-.852.441A1.988,1.988,0,0,0,6.594.078Zm7.281,0A2.741,2.741,0,0,0,16.258-1.25l-.777-.562A1.892,1.892,0,0,1,13.875-.9a1.649,1.649,0,0,1-1.668-1.754,1.63,1.63,0,0,1,1.641-1.754,1.757,1.757,0,0,1,1.543.941l.832-.594a2.783,2.783,0,0,0-2.375-1.324,2.671,2.671,0,0,0-2.723,2.73A2.7,2.7,0,0,0,13.875.078Z" transform="translate(50.934 -47.934)" fill="#fff"/><path d="M.34-2.652A2.7,2.7,0,0,0,3.086.078,2.7,2.7,0,0,0,5.418-1.211L4.8-1.637A2.023,2.023,0,0,1,3.086-.7,1.855,1.855,0,0,1,1.2-2.652,1.844,1.844,0,0,1,3.066-4.605a1.957,1.957,0,0,1,1.7.961L5.4-4.09A2.7,2.7,0,0,0,3.066-5.383,2.686,2.686,0,0,0,.34-2.652ZM6.309,0h.828V-3.8L8.82-.375h.586L11.09-3.8V0h.828V-5.3h-.969L9.113-1.531,7.281-5.3H6.309Zm6.355-5.3,2.012,3.266V0h.816V-2.039L17.5-5.3h-.977l-1.445,2.4L13.641-5.3ZM18.25,0h.82V-1.6l.918-.988L21.691,0h1L20.566-3.141,22.559-5.3H21.5L19.07-2.668V-5.3h-.82Z" transform="translate(9 -38.334)" fill="#fff"/><path d="M.488-3.348a.469.469,0,0,0,.477.477.472.472,0,0,0,.48-.477.475.475,0,0,0-.48-.48A.472.472,0,0,0,.488-3.348ZM.488-.4A.469.469,0,0,0,.965.078.472.472,0,0,0,1.445-.4a.475.475,0,0,0-.48-.48A.472.472,0,0,0,.488-.4ZM5.93-1.848a1.4,1.4,0,0,0,1.258-.625c-.035,1.188-.719,1.8-1.59,1.8a1.874,1.874,0,0,1-.988-.3l-.277.7a2.3,2.3,0,0,0,1.32.359C7.3.078,8.023-1.133,8.023-2.844c0-1.4-.6-2.539-2.043-2.539a1.737,1.737,0,0,0-1.91,1.8A1.69,1.69,0,0,0,5.93-1.848Zm.082-2.82A1.03,1.03,0,0,1,7.055-3.6,1,1,0,0,1,6.008-2.574a.968.968,0,0,1-1.1-1.035A1.009,1.009,0,0,1,6.012-4.668ZM10.883.078a1.763,1.763,0,0,0,1.879-1.8,1.7,1.7,0,0,0-1.84-1.734,1.517,1.517,0,0,0-1.316.625c.066-1.3.7-1.809,1.609-1.809a2.091,2.091,0,0,1,1.008.258l.238-.7a2.452,2.452,0,0,0-1.262-.3c-1.676,0-2.41,1.211-2.41,2.922C8.789-1.059,9.4.078,10.883.078Zm-.07-2.809A.99.99,0,0,1,11.922-1.7,1.025,1.025,0,0,1,10.828-.637a1.039,1.039,0,0,1-1.09-1.07A1,1,0,0,1,10.813-2.73Zm7.816-3.242h-.84L14.723,1.563h.836ZM20.5-5.3v.777h2.484A20.941,20.941,0,0,0,20.855,0h.891a23.015,23.015,0,0,1,2.18-4.633V-5.3Zm6,5.383c1.293,0,2.113-1.066,2.113-2.73s-.82-2.73-2.113-2.73-2.117,1.07-2.117,2.73S25.215.078,26.508.078Zm0-4.687c.773,0,1.293.758,1.293,1.957S27.281-.7,26.508-.7s-1.3-.75-1.3-1.953S25.73-4.609,26.508-4.609Zm8.074-1.363h-.84L30.676,1.563h.836ZM37.4,0h.82V-5.3H36.387v.742H37.4ZM41.41.078c1.293,0,2.113-1.066,2.113-2.73s-.82-2.73-2.113-2.73-2.117,1.07-2.117,2.73S40.117.078,41.41.078Zm0-4.687c.773,0,1.293.758,1.293,1.957S42.184-.7,41.41-.7s-1.3-.75-1.3-1.953S40.633-4.609,41.41-4.609Zm8.074-1.363h-.84L45.578,1.563h.836ZM53.648.078c1.293,0,2.113-1.066,2.113-2.73s-.82-2.73-2.113-2.73-2.117,1.07-2.117,2.73S52.355.078,53.648.078Zm0-4.687c.773,0,1.293.758,1.293,1.957S54.422-.7,53.648-.7s-1.3-.75-1.3-1.953S52.871-4.609,53.648-4.609ZM57.215,0h.82V-5.3H56.2v.742h1.012Z" transform="translate(32.233 -38.334)" fill="#fff"/><path d="M.688-5.3V0h.82V-2.082H2.832L4.031,0h.953L3.7-2.2a1.529,1.529,0,0,0,1.074-1.5A1.6,1.6,0,0,0,2.969-5.3Zm2.242.738c.652,0,.988.344.988.871s-.336.879-.988.879H1.508v-1.75ZM8.25.078a2.449,2.449,0,0,0,2.57-2.543,2.768,2.768,0,0,0-.016-.309H8.125v.742H9.953A1.582,1.582,0,0,1,8.25-.7,1.858,1.858,0,0,1,6.359-2.652,1.847,1.847,0,0,1,8.23-4.605a1.9,1.9,0,0,1,1.629.871L10.5-4.18a2.66,2.66,0,0,0-2.266-1.2A2.686,2.686,0,0,0,5.5-2.652,2.7,2.7,0,0,0,8.25.078Zm6-.078a1.565,1.565,0,0,0,1.66-1.535,1.3,1.3,0,0,0-.781-1.215,1.252,1.252,0,0,0,.582-1.07A1.5,1.5,0,0,0,14.1-5.3H11.809V0ZM12.633-3.047V-4.574H14.1a.761.761,0,0,1,.789.773.751.751,0,0,1-.789.754Zm0,.691h1.621a.821.821,0,0,1,.848.8.809.809,0,0,1-.848.816H12.633Zm4.121-.992a.469.469,0,0,0,.477.477.472.472,0,0,0,.48-.477.475.475,0,0,0-.48-.48A.472.472,0,0,0,16.754-3.348Zm0,2.949a.469.469,0,0,0,.477.477.472.472,0,0,0,.48-.477.475.475,0,0,0-.48-.48A.472.472,0,0,0,16.754-.4Zm5.758.477a1.763,1.763,0,0,0,1.879-1.8,1.7,1.7,0,0,0-1.84-1.734,1.517,1.517,0,0,0-1.316.625c.066-1.3.7-1.809,1.609-1.809a2.091,2.091,0,0,1,1.008.258l.238-.7a2.452,2.452,0,0,0-1.262-.3c-1.676,0-2.41,1.211-2.41,2.922C20.418-1.059,21.031.078,22.512.078Zm-.07-2.809A.99.99,0,0,1,23.551-1.7,1.025,1.025,0,0,1,22.457-.637a1.039,1.039,0,0,1-1.09-1.07A1,1,0,0,1,22.441-2.73ZM27.18.078c1.293,0,2.113-1.066,2.113-2.73s-.82-2.73-2.113-2.73-2.117,1.07-2.117,2.73S25.887.078,27.18.078Zm0-4.687c.773,0,1.293.758,1.293,1.957S27.953-.7,27.18-.7s-1.3-.75-1.3-1.953S26.4-4.609,27.18-4.609Zm8.074-1.363h-.84L31.348,1.563h.836Zm1.875.668v.777h2.484A20.941,20.941,0,0,0,37.48,0h.891a23.015,23.015,0,0,1,2.18-4.633V-5.3ZM43.09.078a1.763,1.763,0,0,0,1.879-1.8,1.7,1.7,0,0,0-1.84-1.734,1.517,1.517,0,0,0-1.316.625c.066-1.3.7-1.809,1.609-1.809a2.091,2.091,0,0,1,1.008.258l.238-.7a2.452,2.452,0,0,0-1.262-.3C41.73-5.383,41-4.172,41-2.461,41-1.059,41.609.078,43.09.078ZM43.02-2.73A.99.99,0,0,1,44.129-1.7,1.025,1.025,0,0,1,43.035-.637a1.039,1.039,0,0,1-1.09-1.07A1,1,0,0,1,43.02-2.73Zm7.816-3.242H50L46.93,1.563h.836ZM53.652,0h.82V-5.3H52.641v.742h1.012Zm1.691-1.367h2.52V0h.809V-1.371h.781V-2.09h-.781V-5.3H57.7L55.344-2.051Zm2.52-2.926v2.2H56.3ZM60.746,0h.82V-5.3H59.734v.742h1.012Z" transform="translate(9 -28.734)" fill="#fff"/><path d="M.117-5.3,1.594,0H2.918L3.98-3.93,5.047,0H6.371L7.848-5.3H7.023L5.707-.738,4.422-5.219H3.543L2.258-.738.938-5.3ZM8.652,0h3.8V-.746H9.473V-2.352h2.488V-3.1H9.473V-4.559h2.9V-5.3H8.652Zm7.273,0a1.565,1.565,0,0,0,1.66-1.535A1.3,1.3,0,0,0,16.8-2.75a1.252,1.252,0,0,0,.582-1.07A1.5,1.5,0,0,0,15.77-5.3H13.48V0ZM14.3-3.047V-4.574H15.77a.761.761,0,0,1,.789.773.751.751,0,0,1-.789.754Zm0,.691h1.621a.821.821,0,0,1,.848.8.809.809,0,0,1-.848.816H14.3Zm4.121-.992a.469.469,0,0,0,.477.477.472.472,0,0,0,.48-.477.475.475,0,0,0-.48-.48A.472.472,0,0,0,18.426-3.348Zm0,2.949A.469.469,0,0,0,18.9.078a.472.472,0,0,0,.48-.477.475.475,0,0,0-.48-.48A.472.472,0,0,0,18.426-.4Zm3.582-.715A1.929,1.929,0,0,0,23.875.078a1.628,1.628,0,0,0,1.789-1.551,1.293,1.293,0,0,0-.887-1.242,1.238,1.238,0,0,0,.762-1.172,1.581,1.581,0,0,0-1.777-1.5A1.847,1.847,0,0,0,22.008-4.23l.684.367a1.2,1.2,0,0,1,1.086-.762c.543,0,.922.309.922.75a.849.849,0,0,1-.957.832h-.66v.715h.66c.641,0,1.082.344,1.082.844a.864.864,0,0,1-.965.793,1.232,1.232,0,0,1-1.164-.8ZM28.352.078a1.957,1.957,0,0,0,1.734-1.02l-.582-.41a1.308,1.308,0,0,1-1.152.7,1.194,1.194,0,0,1-1.207-1.23A1.186,1.186,0,0,1,28.367-3.1a1.288,1.288,0,0,1,1.125.707l.6-.406a1.908,1.908,0,0,0-1.707-1.027,1.961,1.961,0,0,0-2.02,1.949A1.941,1.941,0,0,0,28.352.078Zm2.16-1.445h2.52V0h.809V-1.371h.781V-2.09H33.84V-5.3h-.969L30.512-2.051Zm2.52-2.926v2.2H31.465ZM37.184.078a1.957,1.957,0,0,0,1.734-1.02l-.582-.41a1.308,1.308,0,0,1-1.152.7,1.194,1.194,0,0,1-1.207-1.23A1.186,1.186,0,0,1,37.2-3.1a1.288,1.288,0,0,1,1.125.707l.6-.406a1.908,1.908,0,0,0-1.707-1.027A1.961,1.961,0,0,0,35.2-1.879,1.941,1.941,0,0,0,37.184.078Zm4.273,0c1.164,0,1.934-.625,1.934-1.566a1.333,1.333,0,0,0-.93-1.3A1.194,1.194,0,0,0,43.2-3.934c0-.883-.687-1.457-1.738-1.457s-1.723.574-1.723,1.457a1.2,1.2,0,0,0,.7,1.145,1.337,1.337,0,0,0-.906,1.3C39.531-.547,40.309.078,41.457.078ZM40.543-3.9a.813.813,0,0,1,.914-.766c.566,0,.93.332.93.766,0,.477-.363.781-.93.781S40.543-3.422,40.543-3.9Zm.914,1.488c.688,0,1.121.336,1.121.867,0,.516-.434.9-1.121.9-.668,0-1.105-.383-1.105-.9C40.352-2.074,40.789-2.41,41.457-2.41Zm2.625.516A1.875,1.875,0,0,0,45.965.078,1.587,1.587,0,0,0,47.3-.512V0h.773V-5.5H47.3v2.262a1.587,1.587,0,0,0-1.336-.59A1.842,1.842,0,0,0,44.082-1.895Zm1.977-1.238A1.212,1.212,0,0,1,47.3-1.895,1.242,1.242,0,0,1,46.059-.617a1.214,1.214,0,0,1-1.2-1.277A1.181,1.181,0,0,1,46.059-3.133Z" transform="translate(9 -19.134)" fill="#fff"/></g></g></svg>