<?xml version="1.0" standalone="no"?>
<!DOCTYPE svg PUBLIC "-//W3C//DTD SVG 20010904//EN"
 "http://www.w3.org/TR/2001/REC-SVG-20010904/DTD/svg10.dtd">
<svg version="1.0" xmlns="http://www.w3.org/2000/svg"
 width="768.000000pt" height="768.000000pt" viewBox="0 0 768.000000 768.000000"
 preserveAspectRatio="xMidYMid meet">
<metadata>
Created by potrace 1.14, written by Peter Selinger 2001-2017
</metadata>
<g transform="translate(0.000000,768.000000) scale(0.100000,-0.100000)"
fill="#000000" stroke="none">
<path d="M1090 6055 l0 -1625 23 -1 c12 0 497 -1 1077 -1 l1055 0 5 518 5 519
588 1 587 0 0 -518 0 -518 43 -1 c23 0 509 -1 1079 -2 l1038 -2 0 1627 c0
1546 -1 1627 -17 1621 -10 -3 -24 -10 -30 -16 -7 -5 -13 -6 -13 -2 0 4 -10 1
-22 -7 -13 -7 -50 -24 -83 -37 -33 -12 -73 -29 -90 -36 -61 -26 -83 -36 -230
-96 -82 -33 -163 -67 -180 -74 -260 -108 -376 -156 -460 -190 -49 -19 -102
-43 -117 -51 -16 -8 -28 -12 -28 -8 0 3 -7 0 -17 -7 -9 -8 -19 -13 -22 -12 -3
1 -19 -5 -36 -12 -16 -8 -70 -30 -120 -50 -81 -33 -118 -48 -180 -75 -11 -5
-72 -30 -135 -55 -128 -52 -132 -54 -213 -89 -32 -14 -60 -26 -62 -26 -5 0
-193 -77 -280 -115 -106 -45 -251 -105 -265 -108 -3 0 -38 -15 -78 -33 l-74
-31 -76 32 c-43 17 -86 35 -97 40 -11 5 -22 9 -25 10 -3 1 -16 6 -30 12 -14 6
-104 43 -200 83 -96 39 -188 78 -205 85 -16 7 -55 23 -85 35 -30 12 -68 28
-85 35 -16 8 -70 30 -120 50 -49 20 -103 43 -120 50 -16 7 -91 38 -165 69 -74
30 -217 89 -317 131 -100 41 -185 75 -187 75 -3 0 -29 11 -58 24 -29 13 -132
56 -228 96 -96 39 -190 78 -207 86 -64 28 -99 42 -168 69 -38 15 -76 32 -82
37 -7 6 -13 8 -13 5 0 -3 -42 13 -92 35 -51 22 -114 48 -140 59 l-48 19 0
-1625z"/>
<path d="M1107 3252 c-16 -3 -17 -115 -17 -1627 l0 -1624 37 15 c21 8 50 21
65 30 15 8 31 15 35 16 8 0 47 14 73 25 8 3 17 7 20 8 3 1 21 9 40 17 19 9
103 43 185 77 83 34 173 71 200 83 28 11 64 27 80 34 17 7 53 21 80 32 28 11
68 28 90 38 22 10 46 19 54 20 7 1 18 7 24 13 6 6 19 11 29 11 10 0 18 4 18 8
0 4 8 8 18 9 18 2 169 66 179 77 4 3 13 6 20 6 8 0 33 9 56 19 90 41 207 88
220 89 4 1 20 7 35 15 44 23 93 44 163 71 37 14 88 35 115 47 27 12 54 23 60
24 6 2 27 10 45 18 62 28 224 95 249 102 14 4 30 11 35 15 15 12 149 65 158
62 4 -1 7 3 7 8 0 6 7 10 16 10 8 0 35 9 60 20 41 19 92 41 104 45 5 2 21 8
116 48 l61 26 104 -43 c57 -24 194 -81 304 -126 110 -45 214 -88 230 -95 17
-7 55 -23 85 -35 30 -12 69 -28 85 -35 17 -8 71 -30 120 -50 50 -20 104 -43
120 -50 17 -7 64 -26 105 -43 95 -39 285 -118 670 -277 168 -70 310 -128 315
-129 6 -2 32 -13 58 -24 27 -12 50 -22 52 -22 1 0 18 -6 36 -14 19 -8 36 -14
39 -13 3 1 19 -7 35 -16 17 -9 91 -41 165 -71 74 -30 156 -64 183 -75 l47 -20
-2 1625 -3 1626 -1050 0 c-577 -1 -1062 -1 -1077 -1 l-28 -1 -2 -517 -3 -518
-587 -1 -588 0 0 520 0 521 -1063 0 c-585 0 -1071 -1 -1080 -3z"/>
</g>
</svg>
