<svg xmlns="http://www.w3.org/2000/svg" xmlns:xlink="http://www.w3.org/1999/xlink" width="373.5" height="46.82" viewBox="0 0 373.5 46.82"><defs><clipPath id="a"><path d="M0,0H373.5V-46.82H0Z" fill="none"/></clipPath></defs><g transform="translate(-669 -2657.543)"><g transform="translate(678 2704.363)"><path d="M10.292-2.048H3.867v-9.888H1.494V0h8.8ZM15.511.176A4.347,4.347,0,0,0,20.02-4.219a4.353,4.353,0,0,0-4.509-4.395A4.358,4.358,0,0,0,11-4.219,4.353,4.353,0,0,0,15.511.176ZM13.244-4.219a2.238,2.238,0,0,1,2.268-2.347,2.233,2.233,0,0,1,2.268,2.347,2.236,2.236,0,0,1-2.268,2.355A2.241,2.241,0,0,1,13.244-4.219ZM21.9,0h2.259V-4.324C24.159-6.064,25.2-6.6,26.2-6.6a3.161,3.161,0,0,1,1.046.193l.176-2.013a3.417,3.417,0,0,0-1.1-.193,2.344,2.344,0,0,0-2.2,1.327L24.08-8.437H21.9ZM32.4.185a4.353,4.353,0,0,0,3.753-2.03l-1.6-1.2a2.466,2.466,0,0,1-2.1,1.187A2.22,2.22,0,0,1,30.2-3.542h6.1a6.119,6.119,0,0,0,.079-.958A3.9,3.9,0,0,0,32.3-8.613a4.213,4.213,0,0,0-4.342,4.386A4.264,4.264,0,0,0,32.4.185ZM30.239-5.054a1.983,1.983,0,0,1,2.083-1.661,1.9,1.9,0,0,1,1.96,1.661ZM40.539,0V-4.72a1.744,1.744,0,0,1,1.846-1.8,1.632,1.632,0,0,1,1.679,1.8V0h2.259V-4.772a1.729,1.729,0,0,1,1.854-1.749,1.629,1.629,0,0,1,1.688,1.8V0h2.259V-5.3a3.123,3.123,0,0,0-3.313-3.313,3.479,3.479,0,0,0-2.927,1.494,3.026,3.026,0,0,0-2.83-1.494,3.191,3.191,0,0,0-2.584,1.151l-.044-.976H38.28V0ZM58.668-11.145A1.232,1.232,0,0,0,59.96-9.853a1.239,1.239,0,0,0,1.3-1.292,1.241,1.241,0,0,0-1.3-1.3A1.239,1.239,0,0,0,58.668-11.145ZM61.1,0V-8.437H58.844V0Zm4.754,3.516v-4.4A3.547,3.547,0,0,0,68.6.176a4.065,4.065,0,0,0,4.087-4.359A4.115,4.115,0,0,0,68.6-8.613a3.312,3.312,0,0,0-2.777,1.2l-.044-1.02H63.606V3.516Zm-.009-7.708a2.294,2.294,0,0,1,2.294-2.4,2.271,2.271,0,0,1,2.285,2.4,2.247,2.247,0,0,1-2.285,2.347A2.259,2.259,0,0,1,65.848-4.192Zm8.085,2.408A4.338,4.338,0,0,0,77.694.176c1.8,0,3.331-1.028,3.331-2.619,0-1.67-1.2-2.276-3.076-2.733-1.046-.255-1.582-.4-1.582-.861,0-.422.5-.677,1.23-.677a2.156,2.156,0,0,1,1.89,1.046l1.441-1.187a3.876,3.876,0,0,0-3.384-1.758c-1.837,0-3.3,1.02-3.3,2.6,0,1.731,1.3,2.32,3.146,2.733,1.028.229,1.477.387,1.477.835,0,.475-.527.738-1.2.738a2.743,2.743,0,0,1-2.224-1.3Zm12.251,2A3.2,3.2,0,0,0,88.8-.932L88.846,0h2.145V-8.437h-2.25v4.772a1.754,1.754,0,0,1-1.89,1.793,1.652,1.652,0,0,1-1.74-1.793V-8.437h-2.25v5.353A3.128,3.128,0,0,0,86.183.22ZM95.753,0V-4.72a1.744,1.744,0,0,1,1.846-1.8,1.632,1.632,0,0,1,1.679,1.8V0h2.259V-4.772a1.729,1.729,0,0,1,1.854-1.749,1.629,1.629,0,0,1,1.688,1.8V0h2.259V-5.3a3.123,3.123,0,0,0-3.313-3.313A3.479,3.479,0,0,0,101.1-7.119a3.026,3.026,0,0,0-2.83-1.494,3.191,3.191,0,0,0-2.584,1.151l-.044-.976H93.494V0Zm17.7-4.228a4.1,4.1,0,0,0,4.087,4.4A3.52,3.52,0,0,0,120.281-.9l.044.9h2.215V-12.375h-2.215v4.957a3.342,3.342,0,0,0-2.786-1.2A4.078,4.078,0,0,0,113.452-4.228ZM118-6.592A2.262,2.262,0,0,1,120.3-4.236,2.3,2.3,0,0,1,118-1.846a2.279,2.279,0,0,1-2.285-2.391A2.235,2.235,0,0,1,118-6.592ZM128.928.176a4.347,4.347,0,0,0,4.509-4.395,4.353,4.353,0,0,0-4.509-4.395,4.358,4.358,0,0,0-4.509,4.395A4.353,4.353,0,0,0,128.928.176ZM126.66-4.219a2.238,2.238,0,0,1,2.268-2.347A2.233,2.233,0,0,1,131.2-4.219a2.236,2.236,0,0,1-2.268,2.355A2.241,2.241,0,0,1,126.66-4.219Zm10.906-8.156h-2.25V0h2.25ZM143.955.176a4.347,4.347,0,0,0,4.509-4.395,4.353,4.353,0,0,0-4.509-4.395,4.358,4.358,0,0,0-4.509,4.395A4.353,4.353,0,0,0,143.955.176Zm-2.268-4.395a2.238,2.238,0,0,1,2.268-2.347,2.233,2.233,0,0,1,2.268,2.347,2.236,2.236,0,0,1-2.268,2.355A2.241,2.241,0,0,1,141.687-4.219ZM150.343,0H152.6V-4.324c0-1.74,1.046-2.276,2.039-2.276a3.161,3.161,0,0,1,1.046.193l.176-2.013a3.417,3.417,0,0,0-1.1-.193,2.344,2.344,0,0,0-2.2,1.327l-.044-1.151h-2.18Zm14.772.185a4.353,4.353,0,0,0,3.753-2.03l-1.6-1.2a2.466,2.466,0,0,1-2.1,1.187,2.22,2.22,0,0,1-2.25-1.687h6.1A6.119,6.119,0,0,0,169.1-4.5a3.9,3.9,0,0,0-4.087-4.113,4.213,4.213,0,0,0-4.342,4.386A4.264,4.264,0,0,0,165.115.185Zm-2.162-5.238a1.983,1.983,0,0,1,2.083-1.661A1.9,1.9,0,0,1,167-5.054ZM173.244,0V-4.72a1.756,1.756,0,0,1,1.872-1.8,1.661,1.661,0,0,1,1.749,1.8V0h2.25V-5.3a3.141,3.141,0,0,0-3.331-3.313,3.216,3.216,0,0,0-2.6,1.151l-.044-.976h-2.145V0Zm12.084.176a4.356,4.356,0,0,0,3.929-2.355L187.63-3.322a2.47,2.47,0,0,1-2.25,1.459,2.253,2.253,0,0,1-2.259-2.329,2.266,2.266,0,0,1,2.294-2.373,2.435,2.435,0,0,1,2.171,1.424l1.714-1.09a4.314,4.314,0,0,0-3.92-2.408,4.416,4.416,0,0,0-4.5,4.4A4.368,4.368,0,0,0,185.327.176Zm8.313,0A2.8,2.8,0,0,0,196.031-.94V0h2.145V-5.194c0-2.109-1.538-3.419-4.008-3.419a4.619,4.619,0,0,0-3.595,1.758l1.292,1.292A2.988,2.988,0,0,1,194.1-6.627a1.665,1.665,0,0,1,1.828,1.608v.193a5.527,5.527,0,0,0-1.775-.29c-2.241,0-3.7,1.107-3.7,2.7C190.45-.853,191.724.176,193.64.176Zm.668-3.788a3.93,3.93,0,0,1,1.617.325A1.807,1.807,0,0,1,193.992-1.5c-.861,0-1.406-.4-1.406-1.037S193.28-3.612,194.308-3.612ZM202.815,0V-4.72a1.756,1.756,0,0,1,1.872-1.8,1.661,1.661,0,0,1,1.749,1.8V0h2.25V-5.3a3.141,3.141,0,0,0-3.331-3.313,3.216,3.216,0,0,0-2.6,1.151l-.044-.976h-2.145V0ZM211.4-6.565v3.8c0,1.986,1.248,2.944,3.1,2.944a5.144,5.144,0,0,0,2.039-.422l-.211-1.872a4,4,0,0,1-1.433.29,1.127,1.127,0,0,1-1.248-1.266V-6.565h2.479V-8.437H213.6v-2.707h-2.188v2.707h-1.433v1.872ZM221.225.22a3.2,3.2,0,0,0,2.619-1.151l.044.932h2.145V-8.437h-2.25v4.772a1.754,1.754,0,0,1-1.89,1.793,1.652,1.652,0,0,1-1.74-1.793V-8.437H217.9v5.353A3.128,3.128,0,0,0,221.225.22ZM230.8,0V-4.72a1.744,1.744,0,0,1,1.846-1.8,1.632,1.632,0,0,1,1.679,1.8V0h2.259V-4.772a1.729,1.729,0,0,1,1.854-1.749,1.629,1.629,0,0,1,1.688,1.8V0h2.259V-5.3a3.123,3.123,0,0,0-3.313-3.313,3.479,3.479,0,0,0-2.927,1.494,3.026,3.026,0,0,0-2.83-1.494,3.191,3.191,0,0,0-2.584,1.151l-.044-.976h-2.145V0ZM248.6.185a4.353,4.353,0,0,0,3.753-2.03l-1.6-1.2a2.466,2.466,0,0,1-2.1,1.187,2.22,2.22,0,0,1-2.25-1.687h6.1a6.119,6.119,0,0,0,.079-.958A3.9,3.9,0,0,0,248.5-8.613a4.213,4.213,0,0,0-4.342,4.386A4.264,4.264,0,0,0,248.6.185Zm-2.162-5.238a1.983,1.983,0,0,1,2.083-1.661,1.9,1.9,0,0,1,1.96,1.661Zm15,5.229A2.8,2.8,0,0,0,263.83-.94V0h2.145V-5.194c0-2.109-1.538-3.419-4.008-3.419a4.619,4.619,0,0,0-3.595,1.758l1.292,1.292A2.988,2.988,0,0,1,261.9-6.627a1.665,1.665,0,0,1,1.828,1.608v.193a5.527,5.527,0,0,0-1.775-.29c-2.241,0-3.7,1.107-3.7,2.7C258.249-.853,259.523.176,261.439.176Zm.668-3.788a3.93,3.93,0,0,1,1.617.325A1.807,1.807,0,0,1,261.791-1.5c-.861,0-1.406-.4-1.406-1.037S261.079-3.612,262.107-3.612ZM270.622,0V-4.72a1.744,1.744,0,0,1,1.846-1.8,1.632,1.632,0,0,1,1.679,1.8V0h2.259V-4.772a1.729,1.729,0,0,1,1.854-1.749,1.629,1.629,0,0,1,1.688,1.8V0h2.259V-5.3a3.123,3.123,0,0,0-3.313-3.313,3.479,3.479,0,0,0-2.927,1.494,3.026,3.026,0,0,0-2.83-1.494,3.191,3.191,0,0,0-2.584,1.151l-.044-.976h-2.145V0Zm13.8-11.145a1.232,1.232,0,0,0,1.292,1.292,1.239,1.239,0,0,0,1.3-1.292,1.241,1.241,0,0,0-1.3-1.3A1.239,1.239,0,0,0,284.42-11.145ZM286.855,0V-8.437H284.6V0Zm2.934-6.565v3.8c0,1.986,1.248,2.944,3.1,2.944a5.144,5.144,0,0,0,2.039-.422l-.211-1.872a4,4,0,0,1-1.433.29,1.127,1.127,0,0,1-1.248-1.266V-6.565h2.479V-8.437h-2.531v-2.707H289.8v2.707h-1.433v1.872Z" transform="translate(0 -25.641)" fill="#002856"/><text transform="translate(304.776 -25.641)" fill="#002856" font-size="18" font-family="Mundial-DemiBold, Mundial" font-weight="300"><tspan x="0" y="0"> </tspan></text><g transform="translate(-9)" clip-path="url(#a)"><path d="M3.911.176A2.8,2.8,0,0,0,6.3-.94V0H8.446V-5.194c0-2.109-1.538-3.419-4.008-3.419A4.619,4.619,0,0,0,.844-6.855L2.136-5.563A2.988,2.988,0,0,1,4.368-6.627,1.665,1.665,0,0,1,6.2-5.019v.193a5.527,5.527,0,0,0-1.775-.29c-2.241,0-3.7,1.107-3.7,2.7C.721-.853,2,.176,3.911.176Zm.668-3.788A3.93,3.93,0,0,1,6.2-3.287,1.807,1.807,0,0,1,4.263-1.5c-.861,0-1.406-.4-1.406-1.037S3.551-3.612,4.579-3.612ZM12.986,0V-4.72a1.744,1.744,0,0,1,1.846-1.8,1.632,1.632,0,0,1,1.679,1.8V0H18.77V-4.772a1.729,1.729,0,0,1,1.854-1.749,1.629,1.629,0,0,1,1.688,1.8V0H24.57V-5.3a3.123,3.123,0,0,0-3.313-3.313A3.479,3.479,0,0,0,18.33-7.119,3.026,3.026,0,0,0,15.5-8.613a3.191,3.191,0,0,0-2.584,1.151l-.044-.976H10.728V0Zm13.69-11.145a1.232,1.232,0,0,0,1.292,1.292,1.239,1.239,0,0,0,1.3-1.292,1.241,1.241,0,0,0-1.3-1.3A1.239,1.239,0,0,0,26.676-11.145ZM29.111,0V-8.437H26.852V0ZM39.553.176A4.356,4.356,0,0,0,43.482-2.18L41.856-3.322a2.47,2.47,0,0,1-2.25,1.459,2.253,2.253,0,0,1-2.259-2.329,2.266,2.266,0,0,1,2.294-2.373,2.435,2.435,0,0,1,2.171,1.424l1.714-1.09a4.314,4.314,0,0,0-3.92-2.408,4.416,4.416,0,0,0-4.5,4.4A4.368,4.368,0,0,0,39.553.176Zm8.205,0A2.8,2.8,0,0,0,50.149-.94V0h2.145V-5.194c0-2.109-1.538-3.419-4.008-3.419a4.619,4.619,0,0,0-3.595,1.758l1.292,1.292a2.988,2.988,0,0,1,2.232-1.063,1.665,1.665,0,0,1,1.828,1.608v.193a5.527,5.527,0,0,0-1.775-.29c-2.241,0-3.7,1.107-3.7,2.7C44.568-.853,45.842.176,47.758.176Zm.668-3.788a3.93,3.93,0,0,1,1.617.325A1.807,1.807,0,0,1,48.11-1.5c-.861,0-1.406-.4-1.406-1.037S47.4-3.612,48.426-3.612Zm5.5,1.828A4.338,4.338,0,0,0,57.686.176c1.8,0,3.331-1.028,3.331-2.619,0-1.67-1.2-2.276-3.076-2.733-1.046-.255-1.582-.4-1.582-.861,0-.422.5-.677,1.23-.677a2.156,2.156,0,0,1,1.89,1.046l1.441-1.187a3.876,3.876,0,0,0-3.384-1.758c-1.837,0-3.3,1.02-3.3,2.6,0,1.731,1.3,2.32,3.146,2.733,1.028.229,1.477.387,1.477.835,0,.475-.527.738-1.2.738a2.743,2.743,0,0,1-2.224-1.3Zm8.759-9.36a1.232,1.232,0,0,0,1.292,1.292,1.239,1.239,0,0,0,1.3-1.292,1.241,1.241,0,0,0-1.3-1.3A1.239,1.239,0,0,0,62.683-11.145ZM65.118,0V-8.437H62.859V0ZM75.569.185a4.353,4.353,0,0,0,3.753-2.03l-1.6-1.2a2.466,2.466,0,0,1-2.1,1.187,2.22,2.22,0,0,1-2.25-1.687h6.1a6.119,6.119,0,0,0,.079-.958,3.9,3.9,0,0,0-4.087-4.113,4.213,4.213,0,0,0-4.342,4.386A4.264,4.264,0,0,0,75.569.185ZM73.407-5.054A1.983,1.983,0,0,1,75.49-6.715a1.9,1.9,0,0,1,1.96,1.661ZM83.59,3.516v-4.4A3.547,3.547,0,0,0,86.332.176a4.065,4.065,0,0,0,4.087-4.359,4.115,4.115,0,0,0-4.087-4.43,3.312,3.312,0,0,0-2.777,1.2l-.044-1.02H81.34V3.516Zm-.009-7.708a2.294,2.294,0,0,1,2.294-2.4,2.271,2.271,0,0,1,2.285,2.4,2.247,2.247,0,0,1-2.285,2.347A2.259,2.259,0,0,1,83.581-4.192Zm10.877-8.183h-2.25V0h2.25ZM100.062.22a3.2,3.2,0,0,0,2.619-1.151l.044.932h2.145V-8.437h-2.25v4.772a1.754,1.754,0,0,1-1.89,1.793,1.652,1.652,0,0,1-1.74-1.793V-8.437H96.74v5.353A3.128,3.128,0,0,0,100.062.22Zm7.2-.22h2.259V-4.324c0-1.74,1.046-2.276,2.039-2.276a3.161,3.161,0,0,1,1.046.193l.176-2.013a3.417,3.417,0,0,0-1.1-.193,2.344,2.344,0,0,0-2.2,1.327l-.044-1.151h-2.18Zm6.72-11.145a1.232,1.232,0,0,0,1.292,1.292,1.239,1.239,0,0,0,1.3-1.292,1.241,1.241,0,0,0-1.3-1.3A1.239,1.239,0,0,0,113.985-11.145ZM116.419,0V-8.437h-2.259V0Zm4.6,0,.044-.9A3.523,3.523,0,0,0,123.807.176a4.1,4.1,0,0,0,4.087-4.4,4.078,4.078,0,0,0-4.087-4.386,3.312,3.312,0,0,0-2.777,1.2v-4.957h-2.215V0Zm.035-4.236a2.262,2.262,0,0,1,2.294-2.355,2.235,2.235,0,0,1,2.285,2.355,2.284,2.284,0,0,1-2.285,2.391A2.291,2.291,0,0,1,121.056-4.236ZM132.891.22a3.2,3.2,0,0,0,2.619-1.151l.044.932H137.7V-8.437h-2.25v4.772a1.754,1.754,0,0,1-1.89,1.793,1.652,1.652,0,0,1-1.74-1.793V-8.437h-2.25v5.353A3.128,3.128,0,0,0,132.891.22Zm6.553-2a4.338,4.338,0,0,0,3.762,1.96c1.8,0,3.331-1.028,3.331-2.619,0-1.67-1.2-2.276-3.076-2.733-1.046-.255-1.582-.4-1.582-.861,0-.422.5-.677,1.23-.677A2.156,2.156,0,0,1,145-5.669l1.441-1.187a3.876,3.876,0,0,0-3.384-1.758c-1.837,0-3.3,1.02-3.3,2.6,0,1.731,1.3,2.32,3.146,2.733,1.028.229,1.477.387,1.477.835,0,.475-.527.738-1.2.738a2.743,2.743,0,0,1-2.224-1.3Z" transform="translate(9 -5.641)" fill="#002856"/><text transform="translate(157.529 -5.641)" fill="#002856" font-size="18" font-family="Mundial-DemiBold, Mundial" font-weight="300" letter-spacing="-0.009em"><tspan x="0" y="0">.</tspan></text></g></g></g></svg>