<svg xmlns="http://www.w3.org/2000/svg" xmlns:xlink="http://www.w3.org/1999/xlink" width="18.162" height="18.163" viewBox="0 0 18.162 18.163">
  <defs>
    <style>
      .cls-1 {
        fill: none;
      }

      .cls-2 {
        clip-path: url(#clip-path);
      }

      .cls-3 {
        fill: #3c4c8d;
      }
    </style>
    <clipPath id="clip-path">
      <rect id="Rectangle_32" data-name="Rectangle 32" class="cls-1" width="18.162" height="18.163" transform="translate(0 0)"/>
    </clipPath>
  </defs>
  <g id="Group_149" data-name="Group 149" class="cls-2" transform="translate(0 0)">
    <path id="Path_147" data-name="Path 147" class="cls-3" d="M1.85,8.707A1.852,1.852,0,0,1,0,6.856V1.85A1.852,1.852,0,0,1,1.85,0H6.856a1.852,1.852,0,0,1,1.85,1.85V6.856a1.852,1.852,0,0,1-1.85,1.85Zm0-7.231a.375.375,0,0,0-.374.374V6.856a.375.375,0,0,0,.374.374H6.856a.375.375,0,0,0,.374-.374V1.85a.375.375,0,0,0-.374-.374Z" transform="translate(0 0)"/>
    <path id="Path_148" data-name="Path 148" class="cls-3" d="M39.31,8.707a1.852,1.852,0,0,1-1.85-1.85V1.85A1.852,1.852,0,0,1,39.31,0h5.006a1.852,1.852,0,0,1,1.85,1.85V6.856a1.852,1.852,0,0,1-1.85,1.85Zm0-7.231a.375.375,0,0,0-.375.374V6.856a.375.375,0,0,0,.375.374h5.006a.375.375,0,0,0,.374-.374V1.85a.375.375,0,0,0-.374-.374Z" transform="translate(-28.005 0)"/>
    <path id="Path_149" data-name="Path 149" class="cls-3" d="M1.85,46.169A1.852,1.852,0,0,1,0,44.318V39.312a1.852,1.852,0,0,1,1.85-1.85H6.856a1.852,1.852,0,0,1,1.85,1.85v5.006a1.852,1.852,0,0,1-1.85,1.85Zm0-7.231a.375.375,0,0,0-.374.374v5.006a.375.375,0,0,0,.374.375H6.856a.375.375,0,0,0,.374-.375V39.312a.375.375,0,0,0-.374-.374Z" transform="translate(0 -28.006)"/>
    <path id="Path_150" data-name="Path 150" class="cls-3" d="M39.31,46.169a1.852,1.852,0,0,1-1.85-1.85V39.312a1.852,1.852,0,0,1,1.85-1.85h5.006a1.852,1.852,0,0,1,1.85,1.85v5.006a1.852,1.852,0,0,1-1.85,1.85Zm0-7.231a.375.375,0,0,0-.375.374v5.006a.375.375,0,0,0,.375.375h5.006a.375.375,0,0,0,.374-.375V39.312a.375.375,0,0,0-.374-.374Z" transform="translate(-28.005 -28.006)"/>
  </g>
</svg>
