<svg xmlns="http://www.w3.org/2000/svg" xmlns:xlink="http://www.w3.org/1999/xlink" width="19.761" height="16.156" viewBox="0 0 19.761 16.156">
  <defs>
    <style>
      .cls-1 {
        fill: none;
      }

      .cls-2 {
        clip-path: url(#clip-path);
      }

      .cls-3 {
        fill: #3c4c8d;
      }
    </style>
    <clipPath id="clip-path">
      <rect id="Rectangle_31" data-name="Rectangle 31" class="cls-1" width="19.761" height="16.156"/>
    </clipPath>
  </defs>
  <g id="Group_145" data-name="Group 145" class="cls-2">
    <path id="Path_145" data-name="Path 145" class="cls-3" d="M.658,16.156A.658.658,0,0,1,0,15.435V3.468A.635.635,0,0,1,.089,3.1a.654.654,0,0,1,.3-.268L6.573.061a.657.657,0,0,1,.539,0L7.425.2l5.534,2.49.034.017L18.826.061A.66.66,0,0,1,19.1,0a.668.668,0,0,1,.171.022.658.658,0,0,1,.484.7V12.688a.658.658,0,0,1-.382.6L13.17,16.1l-.021,0a.651.651,0,0,1-.138.015.677.677,0,0,1-.1-.007.676.676,0,0,1-.234-.007l-.021,0-.324-.147L6.747,13.442,6.724,13.4.937,16.094a.663.663,0,0,1-.279.062M13.3,14.578l5.138-2.312V1.718L13.3,4.056ZM1.318,14.43,6.457,12.1V1.578L1.318,3.89Zm10.671-.137V3.752l-4.217-1.9v10.54Zm2.378-2.43a.668.668,0,0,1-.16-1.317l2.748-1.237a.672.672,0,0,1,.244-.047.664.664,0,0,1,.4.132.658.658,0,0,1-.089,1.108l-2.8,1.259-.021,0a.825.825,0,0,0-.127.061l-.027.016-.031.007a.678.678,0,0,1-.137.014M2.408,11.835a.668.668,0,0,1-.16-1.317L5,9.281A.664.664,0,1,1,5.5,10.51L2.723,11.761l-.021,0a.807.807,0,0,0-.117.042l-.019.008-.021,0a.663.663,0,0,1-.137.014M14.367,9.1a.668.668,0,0,1-.16-1.317l2.748-1.237a.658.658,0,0,1,.64.085.658.658,0,0,1-.089,1.108l-2.8,1.259-.021,0a.825.825,0,0,0-.127.061l-.027.016-.031.006a.661.661,0,0,1-.137.014M2.408,9.069a.668.668,0,0,1-.16-1.316L5,6.515A.664.664,0,1,1,5.5,7.744L2.723,8.994,2.7,9a.775.775,0,0,0-.117.042l-.019.009-.021,0a.659.659,0,0,1-.137.014M14.394,6.3a.668.668,0,0,1-.16-1.317l2.748-1.237a.673.673,0,0,1,.256-.051.664.664,0,0,1,.249,1.28L14.71,6.228l-.021,0a.8.8,0,0,0-.117.042l-.019.008-.021,0a.663.663,0,0,1-.137.015M2.473,6.263a.67.67,0,0,1-.28-1.278L5,3.749a.639.639,0,0,1,.294-.07.658.658,0,0,1,.233,1.274L2.77,6.192a.648.648,0,0,1-.3.071" transform="translate(0 0)"/>
    <path id="Path_146" data-name="Path 146" class="cls-3" d="M2.567,6.3A.461.461,0,0,1,2.8,5.688L5.6,4.452a.461.461,0,1,1,.378.839L3.212,6.536a.461.461,0,0,1-.645-.24ZM3.185,9.33,5.951,8.085a.467.467,0,1,0-.35-.867L2.834,8.463a.471.471,0,0,0,.194.922,1.018,1.018,0,0,1,.157-.055m0,2.766,2.766-1.245a.467.467,0,0,0-.35-.867L2.834,11.229a.471.471,0,0,0,.194.922,1.018,1.018,0,0,1,.157-.055M15.171,6.564l2.766-1.245a.467.467,0,0,0-.35-.867L14.821,5.7a.471.471,0,1,0,.193.922,1.018,1.018,0,0,1,.157-.055m0,2.766,2.766-1.245a.461.461,0,0,0-.378-.839L14.793,8.491a.471.471,0,1,0,.193.922.944.944,0,0,1,.184-.083m0,2.766,2.766-1.245a.461.461,0,0,0-.378-.839l-2.766,1.245a.471.471,0,1,0,.193.922.944.944,0,0,1,.184-.083M20.086,1.225V13.211a.46.46,0,0,1-.267.424l-6.187,2.8a.462.462,0,0,1-.194,0,.472.472,0,0,1-.194,0l-.3-.138L7.407,13.811l-.083-.138L1.377,16.439a.461.461,0,0,1-.655-.461V3.991A.461.461,0,0,1,.99,3.53L7.177.764a.46.46,0,0,1,.378,0L7.868.9,13.4,3.392l.111.055L19.431.764a.461.461,0,0,1,.654.461ZM7.177,1.8,1.645,4.286V15.258L7.177,12.75Zm5.532,2.351L8.1,2.073V13.046l4.61,2.075Zm6.454-2.213L13.631,4.452V15.406l5.532-2.489Z" transform="translate(-0.524 -0.523)"/>
  </g>
</svg>
