<svg xmlns="http://www.w3.org/2000/svg" xmlns:xlink="http://www.w3.org/1999/xlink" width="57.561" height="57.561" viewBox="0 0 57.561 57.561">
  <defs>
    <clipPath id="clip-path">
      <path id="Path_3478" data-name="Path 3478" d="M218.082-106.954A10.557,10.557,0,0,0,228.639-96.4h0a10.558,10.558,0,0,0,10.556-10.557h0a10.558,10.558,0,0,0-10.556-10.557h0a10.557,10.557,0,0,0-10.557,10.557" transform="translate(-218.082 117.511)" fill="none"/>
    </clipPath>
    <linearGradient id="linear-gradient" x1="0.824" y1="0.7" x2="0.869" y2="0.7" gradientUnits="objectBoundingBox">
      <stop offset="0" stop-color="#a88762"/>
      <stop offset="0.1" stop-color="#af8f6b"/>
      <stop offset="0.2" stop-color="#b69774"/>
      <stop offset="0.3" stop-color="#bd9f7c"/>
      <stop offset="0.4" stop-color="#c4a785"/>
      <stop offset="0.5" stop-color="#caaf8e"/>
      <stop offset="0.6" stop-color="#c4a785"/>
      <stop offset="0.7" stop-color="#bd9f7c"/>
      <stop offset="0.8" stop-color="#b69774"/>
      <stop offset="0.9" stop-color="#af8f6b"/>
      <stop offset="1" stop-color="#a88762"/>
    </linearGradient>
    <clipPath id="clip-path-2">
      <path id="Path_3480" data-name="Path 3480" d="M216.162-78.292h57.561v-57.561H216.162Z" transform="translate(-216.162 135.853)" fill="none"/>
    </clipPath>
  </defs>
  <g id="Group_5754" data-name="Group 5754" transform="translate(-15.024)">
    <g id="Group_5401" data-name="Group 5401" transform="translate(18.478 34.183)" clip-path="url(#clip-path)">
      <g id="Group_5400" data-name="Group 5400" transform="translate(-392.294 -459.008)">
        <path id="Path_3477" data-name="Path 3477" d="M-218.082-261.038H257.742V409.353H-218.082Z" transform="translate(218.082 261.038)" fill="url(#linear-gradient)"/>
      </g>
    </g>
    <g id="Group_5403" data-name="Group 5403" transform="translate(15.024)" clip-path="url(#clip-path-2)">
      <g id="Group_5402" data-name="Group 5402" transform="translate(12.663 12.663)">
        <path id="Path_3479" data-name="Path 3479" d="M3.579,10.736h0a4.558,4.558,0,0,1,0-6.447L16.473-8.6,22.92-2.158,10.026,10.736A4.558,4.558,0,0,1,3.579,10.736ZM-4.48,18.8l5.641-5.641m.806-4.029L-.451,11.542l3.224,3.224,2.418-2.418M22.92-13.44,27.755-8.6m-2.418-2.418L19.7-5.381m-6.413-.034L15.7-3m-5.641.806L12.478.226m-5.641.806L9.254,3.449m-5.641.806L6.031,6.673" transform="translate(4.48 13.44)" fill="none" stroke="#2b619f" stroke-linecap="round" stroke-linejoin="round" stroke-width="2.5"/>
      </g>
    </g>
  </g>
</svg>
