<svg xmlns="http://www.w3.org/2000/svg" xmlns:xlink="http://www.w3.org/1999/xlink" width="57.563" height="57.563" viewBox="0 0 57.563 57.563">
  <defs>
    <clipPath id="clip-path">
      <path id="Path_3482" data-name="Path 3482" d="M38.766-200.075a2.568,2.568,0,0,0-2.571,2.569h0v18.154H46.556V-193.4a6.672,6.672,0,0,0-6.674-6.672H38.766Z" transform="translate(-36.195 200.075)" fill="none"/>
    </clipPath>
    <linearGradient id="linear-gradient" x1="0.137" y1="0.479" x2="0.159" y2="0.479" gradientUnits="objectBoundingBox">
      <stop offset="0" stop-color="#a88762"/>
      <stop offset="0.1" stop-color="#af8f6b"/>
      <stop offset="0.2" stop-color="#b69774"/>
      <stop offset="0.3" stop-color="#bd9f7c"/>
      <stop offset="0.4" stop-color="#c4a785"/>
      <stop offset="0.5" stop-color="#caaf8e"/>
      <stop offset="0.6" stop-color="#c4a785"/>
      <stop offset="0.7" stop-color="#bd9f7c"/>
      <stop offset="0.8" stop-color="#b69774"/>
      <stop offset="0.9" stop-color="#af8f6b"/>
      <stop offset="1" stop-color="#a88762"/>
    </linearGradient>
    <clipPath id="clip-path-2">
      <path id="Path_3484" data-name="Path 3484" d="M32.629-200.075a6.673,6.673,0,0,0-6.674,6.672h0v14.051H36.316v-18.154a2.569,2.569,0,0,0-2.571-2.569H32.629Z" transform="translate(-25.955 200.075)" fill="none"/>
    </clipPath>
    <linearGradient id="linear-gradient-2" x1="0.098" y1="0.479" x2="0.12" y2="0.479" xlink:href="#linear-gradient"/>
    <clipPath id="clip-path-3">
      <path id="Path_3486" data-name="Path 3486" d="M16.355-157.232H73.918v-57.563H16.355Z" transform="translate(-16.355 214.795)" fill="none"/>
    </clipPath>
  </defs>
  <g id="Group_5766" data-name="Group 5766" transform="translate(-40.598 -1793.52)">
    <g id="Group_5405" data-name="Group 5405" transform="translate(76.287 1821.474)" clip-path="url(#clip-path)">
      <g id="Group_5404" data-name="Group 5404" transform="translate(-65.109 -310.488)">
        <path id="Path_3481" data-name="Path 3481" d="M-36.195-178.364H439.629V492.027H-36.195Z" transform="translate(36.195 178.364)" fill="url(#linear-gradient)"/>
      </g>
    </g>
    <g id="Group_5407" data-name="Group 5407" transform="translate(57.867 1821.474)" clip-path="url(#clip-path-2)">
      <g id="Group_5406" data-name="Group 5406" transform="translate(-46.689 -310.488)">
        <path id="Path_3483" data-name="Path 3483" d="M-25.955-178.364H449.868V492.027H-25.955Z" transform="translate(25.955 178.364)" fill="url(#linear-gradient-2)"/>
      </g>
    </g>
    <g id="Group_5747" data-name="Group 5747" transform="translate(27.397 1793.521)">
      <g id="Group_5409" data-name="Group 5409" transform="translate(13.201 0)" clip-path="url(#clip-path-3)">
        <g id="Group_5408" data-name="Group 5408" transform="translate(14.966 12.663)">
          <path id="Path_3485" data-name="Path 3485" d="M4.6,14.315H-5.76V.284A6.907,6.907,0,0,1-.351-6.458L.4-6.625A3.454,3.454,0,0,1,4.6-3.252Zm6.908,0H21.87V.284a6.907,6.907,0,0,0-5.409-6.742l-.748-.167a3.454,3.454,0,0,0-4.2,3.373ZM8.055-17.92v8.059L1.148-1.8V2.8M8.055-9.861,14.963-1.8V2.8M1.148-1.8h-2.3m16.118,0h2.3M-5.76,9.71l3.454-1.151m20.723,0L21.87,9.71" transform="translate(5.76 17.92)" fill="none" stroke="#2b619f" stroke-linecap="round" stroke-linejoin="round" stroke-width="2.5"/>
        </g>
      </g>
    </g>
  </g>
</svg>
