<svg xmlns="http://www.w3.org/2000/svg" xmlns:xlink="http://www.w3.org/1999/xlink" width="57.561" height="57.563" viewBox="0 0 57.561 57.563">
  <defs>
    <clipPath id="clip-path">
      <path id="Path_3465" data-name="Path 3465" d="M160.644-263.791H184.82V-270.7H160.644Z" transform="translate(-160.644 270.697)" fill="none"/>
    </clipPath>
    <linearGradient id="linear-gradient" x1="0.607" y1="0.279" x2="0.658" y2="0.279" gradientUnits="objectBoundingBox">
      <stop offset="0" stop-color="#a88762"/>
      <stop offset="0.1" stop-color="#af8f6b"/>
      <stop offset="0.2" stop-color="#b69774"/>
      <stop offset="0.3" stop-color="#bd9f7c"/>
      <stop offset="0.4" stop-color="#c4a785"/>
      <stop offset="0.5" stop-color="#caaf8e"/>
      <stop offset="0.6" stop-color="#c4a785"/>
      <stop offset="0.7" stop-color="#bd9f7c"/>
      <stop offset="0.8" stop-color="#b69774"/>
      <stop offset="0.9" stop-color="#af8f6b"/>
      <stop offset="1" stop-color="#a88762"/>
    </linearGradient>
    <clipPath id="clip-path-2">
      <path id="Path_3493" data-name="Path 3493" d="M216.162-157.232h57.561v-57.563H216.162Z" transform="translate(-216.162 214.795)" fill="none"/>
    </clipPath>
  </defs>
  <g id="Group_7193" data-name="Group 7193" transform="translate(-779.91 -1480.568)">
    <g id="Group_5745" data-name="Group 5745" transform="translate(765.345 1493.465)">
      <g id="Group_5744" data-name="Group 5744" transform="translate(27.227 0)">
        <g id="Group_5391" data-name="Group 5391" transform="translate(2.856 31.052)" clip-path="url(#clip-path)">
          <g id="Group_5390" data-name="Group 5390" transform="translate(-288.973 -183.451)">
            <path id="Path_3464" data-name="Path 3464" d="M-160.643-103.9H315.18V566.489H-160.643Z" transform="translate(160.643 103.902)" fill="url(#linear-gradient)"/>
          </g>
        </g>
        <path id="Path_3466" data-name="Path 3466" d="M190.958-256.125H158.723V-279.15h32.235Zm-9.21-28.781v5.756H167.933v-5.756m13.815,1.151H167.933v-2.3h13.815Zm0,13.815h-4.605v-4.605h-4.605v4.605h-4.605v4.605h4.605v4.605h4.605v-4.605h4.605Z" transform="translate(-158.723 286.058)" fill="none" stroke="#2b619f" stroke-linecap="round" stroke-linejoin="round" stroke-width="2.5"/>
      </g>
    </g>
  </g>
</svg>
