<svg xmlns="http://www.w3.org/2000/svg" xmlns:xlink="http://www.w3.org/1999/xlink" width="57.561" height="57.563" viewBox="0 0 57.561 57.563">
  <defs>
    <clipPath id="clip-path">
      <path id="Path_3491" data-name="Path 3491" d="M228.1-184.208h26.13v-6.908H228.1Z" transform="translate(-228.099 191.116)" fill="none"/>
    </clipPath>
    <linearGradient id="linear-gradient" x1="0.862" y1="0.492" x2="0.917" y2="0.492" gradientUnits="objectBoundingBox">
      <stop offset="0" stop-color="#a88762"/>
      <stop offset="0.1" stop-color="#af8f6b"/>
      <stop offset="0.2" stop-color="#b69774"/>
      <stop offset="0.3" stop-color="#bd9f7c"/>
      <stop offset="0.4" stop-color="#c4a785"/>
      <stop offset="0.5" stop-color="#caaf8e"/>
      <stop offset="0.6" stop-color="#c4a785"/>
      <stop offset="0.7" stop-color="#bd9f7c"/>
      <stop offset="0.8" stop-color="#b69774"/>
      <stop offset="0.9" stop-color="#af8f6b"/>
      <stop offset="1" stop-color="#a88762"/>
    </linearGradient>
    <clipPath id="clip-path-2">
      <path id="Path_3493" data-name="Path 3493" d="M216.162-157.232h57.561v-57.563H216.162Z" transform="translate(-216.162 214.795)" fill="none"/>
    </clipPath>
  </defs>
  <g id="Group_5770" data-name="Group 5770" transform="translate(-529.906 -1793.521)">
    <g id="Group_5413" data-name="Group 5413" transform="translate(551.379 1839.063)" clip-path="url(#clip-path)">
      <g id="Group_5412" data-name="Group 5412" transform="translate(-410.313 -326.604)">
        <path id="Path_3490" data-name="Path 3490" d="M-228.1-183.484H247.725V486.907H-228.1Z" transform="translate(228.098 183.484)" fill="url(#linear-gradient)"/>
      </g>
    </g>
    <g id="Group_5750" data-name="Group 5750" transform="translate(514.882 1793.521)">
      <g id="Group_5414" data-name="Group 5414" transform="translate(15.024)" clip-path="url(#clip-path-2)">
        <path id="Path_3492" data-name="Path 3492" d="M236.123-187.033h-6.908v-9.21h6.908Zm-1.151-9.21h-4.605V-204.3h4.605Zm-6.908,9.21h9.21m0,11.513a11.513,11.513,0,0,0,11.513-11.513,11.514,11.514,0,0,0-11.513-11.513h-2.3m-9.21,23.025h23.025m-20.723-4.605h18.42m-12.664,0v4.605m0-28.781h-2.3v-3.454h2.3Zm-3.454-3.454h4.605" transform="translate(-208.493 220.418)" fill="none" stroke="#2b619f" stroke-linecap="round" stroke-linejoin="round" stroke-width="2.5"/>
      </g>
    </g>
  </g>
</svg>
