<svg xmlns="http://www.w3.org/2000/svg" xmlns:xlink="http://www.w3.org/1999/xlink" width="38.457" height="38.457" viewBox="0 0 38.457 38.457">
  <defs>
    <style>
      .cls-1, .cls-7 {
        fill: none;
      }

      .cls-2 {
        clip-path: url(#clip-path);
      }

      .cls-3 {
        fill: url(#linear-gradient);
      }

      .cls-4 {
        clip-path: url(#clip-path-2);
      }

      .cls-5 {
        fill: url(#linear-gradient-2);
      }

      .cls-6 {
        clip-path: url(#clip-path-3);
      }

      .cls-7 {
        stroke: #2b619f;
        stroke-linecap: round;
        stroke-linejoin: round;
        stroke-width: 1.28px;
      }
    </style>
    <clipPath id="clip-path">
      <path id="Path_3482" data-name="Path 3482" class="cls-1" d="M37.912-200.075a1.716,1.716,0,0,0-1.717,1.716h0v12.128h6.922v-9.387a4.458,4.458,0,0,0-4.459-4.457h-.746Z" transform="translate(-36.195 200.075)"/>
    </clipPath>
    <linearGradient id="linear-gradient" x1="0.137" y1="0.479" x2="0.159" y2="0.479" gradientUnits="objectBoundingBox">
      <stop offset="0" stop-color="#a88762"/>
      <stop offset="0.1" stop-color="#af8f6b"/>
      <stop offset="0.2" stop-color="#b69774"/>
      <stop offset="0.3" stop-color="#bd9f7c"/>
      <stop offset="0.4" stop-color="#c4a785"/>
      <stop offset="0.5" stop-color="#caaf8e"/>
      <stop offset="0.6" stop-color="#c4a785"/>
      <stop offset="0.7" stop-color="#bd9f7c"/>
      <stop offset="0.8" stop-color="#b69774"/>
      <stop offset="0.9" stop-color="#af8f6b"/>
      <stop offset="1" stop-color="#a88762"/>
    </linearGradient>
    <clipPath id="clip-path-2">
      <path id="Path_3484" data-name="Path 3484" class="cls-1" d="M30.414-200.075a4.458,4.458,0,0,0-4.459,4.457h0v9.387h6.922v-12.128a1.717,1.717,0,0,0-1.717-1.716h-.746Z" transform="translate(-25.955 200.075)"/>
    </clipPath>
    <linearGradient id="linear-gradient-2" x1="0.098" y1="0.479" x2="0.12" y2="0.479" xlink:href="#linear-gradient"/>
    <clipPath id="clip-path-3">
      <path id="Path_3486" data-name="Path 3486" class="cls-1" d="M16.355-176.338H54.812v-38.457H16.355Z" transform="translate(-16.355 214.795)"/>
    </clipPath>
  </defs>
  <g id="Group_5910" data-name="Group 5910" transform="translate(-8.82)">
    <g id="Group_5405" data-name="Group 5405" class="cls-2" transform="translate(32.663 18.676)">
      <g id="Group_5404" data-name="Group 5404" transform="translate(-43.499 -207.435)">
        <path id="Path_3481" data-name="Path 3481" class="cls-3" d="M-36.195-178.364H281.7V269.519H-36.195Z" transform="translate(36.195 178.364)"/>
      </g>
    </g>
    <g id="Group_5407" data-name="Group 5407" class="cls-4" transform="translate(20.357 18.676)">
      <g id="Group_5406" data-name="Group 5406" transform="translate(-31.193 -207.435)">
        <path id="Path_3483" data-name="Path 3483" class="cls-5" d="M-25.955-178.364H291.94V269.519H-25.955Z" transform="translate(25.955 178.364)"/>
      </g>
    </g>
    <g id="Group_5409" data-name="Group 5409" class="cls-6" transform="translate(8.82)">
      <g id="Group_5408" data-name="Group 5408" transform="translate(9.999 8.46)">
        <path id="Path_3485" data-name="Path 3485" class="cls-7" d="M1.162,3.616H-5.76V-5.758a4.614,4.614,0,0,1,3.614-4.5l.5-.112A2.308,2.308,0,0,1,1.162-8.121Zm4.615,0H12.7V-5.758a4.614,4.614,0,0,0-3.614-4.5l-.5-.112A2.308,2.308,0,0,0,5.777-8.121ZM3.47-17.92v5.384L-1.145-7.152v3.077M3.47-12.536,8.085-7.152v3.077m-9.23-3.077H-2.683m10.768,0H9.623M-5.76.54-3.453-.23m13.845,0L12.7.54" transform="translate(5.76 17.92)"/>
      </g>
    </g>
  </g>
</svg>
