<svg xmlns="http://www.w3.org/2000/svg" xmlns:xlink="http://www.w3.org/1999/xlink" width="38.457" height="38.457" viewBox="0 0 38.457 38.457">
  <defs>
    <style>
      .cls-1, .cls-5 {
        fill: none;
      }

      .cls-2 {
        clip-path: url(#clip-path);
      }

      .cls-3 {
        fill: url(#linear-gradient);
      }

      .cls-4 {
        clip-path: url(#clip-path-2);
      }

      .cls-5 {
        stroke: #2b619f;
        stroke-linecap: round;
        stroke-linejoin: round;
        stroke-width: 1.28px;
      }
    </style>
    <clipPath id="clip-path">
      <path id="Path_3495" data-name="Path 3495" class="cls-1" d="M171.523-37.431a4.614,4.614,0,0,0,4.615,4.614h0a4.614,4.614,0,0,0,4.615-4.614h0a4.615,4.615,0,0,0-4.615-4.615h0a4.615,4.615,0,0,0-4.615,4.615" transform="translate(-171.523 42.046)"/>
    </clipPath>
    <linearGradient id="linear-gradient" x1="0.648" y1="0.897" x2="0.677" y2="0.897" gradientUnits="objectBoundingBox">
      <stop offset="0" stop-color="#a88762"/>
      <stop offset="0.1" stop-color="#af8f6b"/>
      <stop offset="0.2" stop-color="#b69774"/>
      <stop offset="0.3" stop-color="#bd9f7c"/>
      <stop offset="0.4" stop-color="#c4a785"/>
      <stop offset="0.5" stop-color="#caaf8e"/>
      <stop offset="0.6" stop-color="#c4a785"/>
      <stop offset="0.7" stop-color="#bd9f7c"/>
      <stop offset="0.8" stop-color="#b69774"/>
      <stop offset="0.9" stop-color="#af8f6b"/>
      <stop offset="1" stop-color="#a88762"/>
    </linearGradient>
    <clipPath id="clip-path-2">
      <path id="Path_3497" data-name="Path 3497" class="cls-1" d="M151.683-18.454H190.14V-56.911H151.683Z" transform="translate(-151.683 56.911)"/>
    </clipPath>
  </defs>
  <g id="Group_5920" data-name="Group 5920" transform="translate(-10.675)">
    <g id="Group_5416" data-name="Group 5416" class="cls-2" transform="translate(35.895 17.864)">
      <g id="Group_5415" data-name="Group 5415" transform="translate(-206.135 -397.353)">
        <path id="Path_3494" data-name="Path 3494" class="cls-3" d="M-171.523-334.474H146.372V113.41H-171.523Z" transform="translate(171.523 334.474)"/>
      </g>
    </g>
    <g id="Group_5418" data-name="Group 5418" class="cls-4" transform="translate(10.675)">
      <g id="Group_5417" data-name="Group 5417" transform="translate(8.461 8.635)">
        <path id="Path_3496" data-name="Path 3496" class="cls-5" d="M.387.129H-1.92V12.435H7.31V.129H5M5,.9V-.64M.387.9V-.64m-2.307,10H7.31m12.306,3.077a2.307,2.307,0,1,1-2.307-2.307A2.308,2.308,0,0,1,19.616,12.435Zm-2.307-2.307V6.282H11.156V19.358H2.695V12.435m14.614,0h0" transform="translate(1.92 0.64)"/>
      </g>
    </g>
  </g>
</svg>
