<svg xmlns="http://www.w3.org/2000/svg" xmlns:xlink="http://www.w3.org/1999/xlink" width="38.456" height="38.457" viewBox="0 0 38.456 38.457">
  <defs>
    <style>
      .cls-1, .cls-5 {
        fill: none;
      }

      .cls-2 {
        clip-path: url(#clip-path);
      }

      .cls-3 {
        fill: url(#linear-gradient);
      }

      .cls-4 {
        clip-path: url(#clip-path-2);
      }

      .cls-5 {
        stroke: #2b619f;
        stroke-linecap: round;
        stroke-linejoin: round;
        stroke-width: 1.28px;
      }
    </style>
    <clipPath id="clip-path">
      <path id="Path_3503" data-name="Path 3503" class="cls-1" d="M220-35a6.518,6.518,0,0,0,6.519,6.517h0A6.518,6.518,0,0,0,233.038-35h0a6.518,6.518,0,0,0-6.519-6.52h0A6.519,6.519,0,0,0,220-35" transform="translate(-220.001 41.519)"/>
    </clipPath>
    <linearGradient id="linear-gradient" x1="0.832" y1="0.903" x2="0.873" y2="0.903" gradientUnits="objectBoundingBox">
      <stop offset="0" stop-color="#a88762"/>
      <stop offset="0.1" stop-color="#af8f6b"/>
      <stop offset="0.2" stop-color="#b69774"/>
      <stop offset="0.3" stop-color="#bd9f7c"/>
      <stop offset="0.4" stop-color="#c4a785"/>
      <stop offset="0.5" stop-color="#caaf8e"/>
      <stop offset="0.6" stop-color="#c4a785"/>
      <stop offset="0.7" stop-color="#bd9f7c"/>
      <stop offset="0.8" stop-color="#b69774"/>
      <stop offset="0.9" stop-color="#af8f6b"/>
      <stop offset="1" stop-color="#a88762"/>
    </linearGradient>
    <clipPath id="clip-path-2">
      <path id="Path_3505" data-name="Path 3505" class="cls-1" d="M216.162-18.454h38.456V-56.911H216.162Z" transform="translate(-216.162 56.911)"/>
    </clipPath>
  </defs>
  <g id="Group_5921" data-name="Group 5921" transform="translate(-10.037)">
    <g id="Group_5424" data-name="Group 5424" class="cls-2" transform="translate(14.651 18.498)">
      <g id="Group_5423" data-name="Group 5423" transform="translate(-264.396 -397.987)">
        <path id="Path_3502" data-name="Path 3502" class="cls-3" d="M-220-336.585H97.893V111.3H-220Z" transform="translate(220.002 336.585)"/>
      </g>
    </g>
    <g id="Group_5426" data-name="Group 5426" class="cls-4" transform="translate(10.037)">
      <g id="Group_5425" data-name="Group 5425" transform="translate(8.46 10.768)">
        <path id="Path_3504" data-name="Path 3504" class="cls-5" d="M1.808,1.679H7.192m-14.614-10h3.846v6.153M9.5,6.294h3.077M-3.576-6.013H7.192v10M-3.576-3.705H7.192M1.808,3.217A5.384,5.384,0,0,1-3.576,8.6,5.384,5.384,0,0,1-8.96,3.217,5.384,5.384,0,0,1-3.576-2.167,5.384,5.384,0,0,1,1.808,3.217Zm-4.615,0a.77.77,0,0,1-.769.769.77.77,0,0,1-.769-.769.77.77,0,0,1,.769-.769A.77.77,0,0,1-2.807,3.217ZM9.5,6.294A2.307,2.307,0,1,1,7.192,3.986,2.308,2.308,0,0,1,9.5,6.294Zm-2.307,0h0" transform="translate(8.96 8.32)"/>
      </g>
    </g>
  </g>
</svg>
