<svg id="Group_5512" data-name="Group 5512" xmlns="http://www.w3.org/2000/svg" xmlns:xlink="http://www.w3.org/1999/xlink" width="227.82" height="71.096" viewBox="0 0 227.82 71.096">
  <defs>
    <style>
      .cls-1 {
        fill: none;
      }

      .cls-2 {
        fill: #d6d3d8;
      }

      .cls-3 {
        clip-path: url(#clip-path);
      }
    </style>
    <clipPath id="clip-path">
      <path id="Path_3602" data-name="Path 3602" class="cls-1" d="M0-17.727H227.82v-71.1H0Z" transform="translate(0 88.823)"/>
    </clipPath>
  </defs>
  <g id="Group_5428" data-name="Group 5428" transform="translate(0 61.188)">
    <path id="Path_3506" data-name="Path 3506" class="cls-2" d="M0-.091H10.54V-2.077H0Z" transform="translate(0 2.078)"/>
  </g>
  <g id="Group_5429" data-name="Group 5429" transform="translate(4.276 56.912)">
    <path id="Path_3507" data-name="Path 3507" class="cls-2" d="M-.091,0H-2.078V10.54H-.091Z" transform="translate(2.078)"/>
  </g>
  <g id="Group_5430" data-name="Group 5430" transform="translate(18.971 61.188)">
    <path id="Path_3508" data-name="Path 3508" class="cls-2" d="M0,0V1.987H10.54V0Z"/>
  </g>
  <g id="Group_5431" data-name="Group 5431" transform="translate(23.247 56.912)">
    <path id="Path_3509" data-name="Path 3509" class="cls-2" d="M-.091,0H-2.078V10.54H-.091Z" transform="translate(2.078)"/>
  </g>
  <g id="Group_5432" data-name="Group 5432" transform="translate(37.941 61.188)">
    <path id="Path_3510" data-name="Path 3510" class="cls-2" d="M0,0V1.987H10.54V0Z"/>
  </g>
  <g id="Group_5433" data-name="Group 5433" transform="translate(42.217 56.912)">
    <path id="Path_3511" data-name="Path 3511" class="cls-2" d="M-.091,0H-2.078V10.54H-.091Z" transform="translate(2.078)"/>
  </g>
  <g id="Group_5434" data-name="Group 5434" transform="translate(56.912 61.188)">
    <path id="Path_3512" data-name="Path 3512" class="cls-2" d="M0,0V1.987H10.54V0Z"/>
  </g>
  <g id="Group_5435" data-name="Group 5435" transform="translate(61.188 56.912)">
    <path id="Path_3513" data-name="Path 3513" class="cls-2" d="M-.091,0H-2.078V10.54H-.091Z" transform="translate(2.078)"/>
  </g>
  <g id="Group_5436" data-name="Group 5436" transform="translate(75.882 61.188)">
    <path id="Path_3514" data-name="Path 3514" class="cls-2" d="M0,0V1.987H10.54V0Z"/>
  </g>
  <g id="Group_5437" data-name="Group 5437" transform="translate(80.158 56.912)">
    <path id="Path_3515" data-name="Path 3515" class="cls-2" d="M-.091,0H-2.078V10.54H-.091Z" transform="translate(2.078)"/>
  </g>
  <g id="Group_5438" data-name="Group 5438" transform="translate(94.853 61.188)">
    <path id="Path_3516" data-name="Path 3516" class="cls-2" d="M0,0V1.987H10.54V0Z"/>
  </g>
  <g id="Group_5439" data-name="Group 5439" transform="translate(99.129 56.912)">
    <path id="Path_3517" data-name="Path 3517" class="cls-2" d="M-.091,0H-2.078V10.54H-.091Z" transform="translate(2.078)"/>
  </g>
  <g id="Group_5440" data-name="Group 5440" transform="translate(113.823 61.188)">
    <path id="Path_3518" data-name="Path 3518" class="cls-2" d="M0,0V1.987H10.54V0Z"/>
  </g>
  <g id="Group_5441" data-name="Group 5441" transform="translate(118.099 56.912)">
    <path id="Path_3519" data-name="Path 3519" class="cls-2" d="M-.091,0H-2.078V10.54H-.091Z" transform="translate(2.078)"/>
  </g>
  <g id="Group_5442" data-name="Group 5442" transform="translate(132.794 61.188)">
    <path id="Path_3520" data-name="Path 3520" class="cls-2" d="M0,0V1.987H10.54V0Z"/>
  </g>
  <g id="Group_5443" data-name="Group 5443" transform="translate(137.07 56.912)">
    <path id="Path_3521" data-name="Path 3521" class="cls-2" d="M-.091,0H-2.078V10.54H-.091Z" transform="translate(2.078)"/>
  </g>
  <g id="Group_5444" data-name="Group 5444" transform="translate(151.764 61.188)">
    <path id="Path_3522" data-name="Path 3522" class="cls-2" d="M0,0V1.987H10.54V0Z"/>
  </g>
  <g id="Group_5445" data-name="Group 5445" transform="translate(156.041 56.912)">
    <path id="Path_3523" data-name="Path 3523" class="cls-2" d="M-.091,0H-2.078V10.54H-.091Z" transform="translate(2.078)"/>
  </g>
  <g id="Group_5446" data-name="Group 5446" transform="translate(170.735 61.188)">
    <path id="Path_3524" data-name="Path 3524" class="cls-2" d="M0,0V1.987H10.54V0Z"/>
  </g>
  <g id="Group_5447" data-name="Group 5447" transform="translate(175.011 56.912)">
    <path id="Path_3525" data-name="Path 3525" class="cls-2" d="M-.091,0H-2.078V10.54H-.091Z" transform="translate(2.078)"/>
  </g>
  <g id="Group_5448" data-name="Group 5448" transform="translate(189.705 61.188)">
    <path id="Path_3526" data-name="Path 3526" class="cls-2" d="M0,0V1.987H10.54V0Z"/>
  </g>
  <g id="Group_5449" data-name="Group 5449" transform="translate(193.982 56.912)">
    <path id="Path_3527" data-name="Path 3527" class="cls-2" d="M-.091,0H-2.078V10.54H-.091Z" transform="translate(2.078)"/>
  </g>
  <g id="Group_5450" data-name="Group 5450" transform="translate(208.676 61.188)">
    <path id="Path_3528" data-name="Path 3528" class="cls-2" d="M0,0V1.987H10.54V0Z"/>
  </g>
  <g id="Group_5451" data-name="Group 5451" transform="translate(212.952 56.912)">
    <path id="Path_3529" data-name="Path 3529" class="cls-2" d="M-.091,0H-2.078V10.54H-.091Z" transform="translate(2.078)"/>
  </g>
  <path id="Path_3530" data-name="Path 3530" class="cls-2" d="M0-42.68H10.54v-1.987H0Z" transform="translate(0 86.884)"/>
  <g id="Group_5452" data-name="Group 5452" transform="translate(4.276 37.941)">
    <path id="Path_3531" data-name="Path 3531" class="cls-2" d="M-.091,0H-2.078V10.54H-.091Z" transform="translate(2.078)"/>
  </g>
  <g id="Group_5453" data-name="Group 5453" transform="translate(18.971 42.217)">
    <path id="Path_3532" data-name="Path 3532" class="cls-2" d="M0,0V1.987H10.54V0Z"/>
  </g>
  <g id="Group_5454" data-name="Group 5454" transform="translate(23.247 37.941)">
    <path id="Path_3533" data-name="Path 3533" class="cls-2" d="M-.091,0H-2.078V10.54H-.091Z" transform="translate(2.078)"/>
  </g>
  <g id="Group_5455" data-name="Group 5455" transform="translate(37.941 42.217)">
    <path id="Path_3534" data-name="Path 3534" class="cls-2" d="M0,0V1.987H10.54V0Z"/>
  </g>
  <g id="Group_5456" data-name="Group 5456" transform="translate(42.217 37.941)">
    <path id="Path_3535" data-name="Path 3535" class="cls-2" d="M-.091,0H-2.078V10.54H-.091Z" transform="translate(2.078)"/>
  </g>
  <g id="Group_5457" data-name="Group 5457" transform="translate(56.912 42.217)">
    <path id="Path_3536" data-name="Path 3536" class="cls-2" d="M0,0V1.987H10.54V0Z"/>
  </g>
  <g id="Group_5458" data-name="Group 5458" transform="translate(61.188 37.941)">
    <path id="Path_3537" data-name="Path 3537" class="cls-2" d="M-.091,0H-2.078V10.54H-.091Z" transform="translate(2.078)"/>
  </g>
  <g id="Group_5459" data-name="Group 5459" transform="translate(75.882 42.217)">
    <path id="Path_3538" data-name="Path 3538" class="cls-2" d="M0,0V1.987H10.54V0Z"/>
  </g>
  <g id="Group_5460" data-name="Group 5460" transform="translate(80.158 37.941)">
    <path id="Path_3539" data-name="Path 3539" class="cls-2" d="M-.091,0H-2.078V10.54H-.091Z" transform="translate(2.078)"/>
  </g>
  <g id="Group_5461" data-name="Group 5461" transform="translate(94.853 42.217)">
    <path id="Path_3540" data-name="Path 3540" class="cls-2" d="M0,0V1.987H10.54V0Z"/>
  </g>
  <g id="Group_5462" data-name="Group 5462" transform="translate(99.129 37.941)">
    <path id="Path_3541" data-name="Path 3541" class="cls-2" d="M-.091,0H-2.078V10.54H-.091Z" transform="translate(2.078)"/>
  </g>
  <g id="Group_5463" data-name="Group 5463" transform="translate(113.823 42.217)">
    <path id="Path_3542" data-name="Path 3542" class="cls-2" d="M0,0V1.987H10.54V0Z"/>
  </g>
  <g id="Group_5464" data-name="Group 5464" transform="translate(118.099 37.941)">
    <path id="Path_3543" data-name="Path 3543" class="cls-2" d="M-.091,0H-2.078V10.54H-.091Z" transform="translate(2.078)"/>
  </g>
  <g id="Group_5465" data-name="Group 5465" transform="translate(132.794 42.217)">
    <path id="Path_3544" data-name="Path 3544" class="cls-2" d="M0,0V1.987H10.54V0Z"/>
  </g>
  <g id="Group_5466" data-name="Group 5466" transform="translate(137.07 37.941)">
    <path id="Path_3545" data-name="Path 3545" class="cls-2" d="M-.091,0H-2.078V10.54H-.091Z" transform="translate(2.078)"/>
  </g>
  <g id="Group_5467" data-name="Group 5467" transform="translate(151.764 42.217)">
    <path id="Path_3546" data-name="Path 3546" class="cls-2" d="M0,0V1.987H10.54V0Z"/>
  </g>
  <g id="Group_5468" data-name="Group 5468" transform="translate(156.041 37.941)">
    <path id="Path_3547" data-name="Path 3547" class="cls-2" d="M-.091,0H-2.078V10.54H-.091Z" transform="translate(2.078)"/>
  </g>
  <g id="Group_5469" data-name="Group 5469" transform="translate(170.735 42.217)">
    <path id="Path_3548" data-name="Path 3548" class="cls-2" d="M0,0V1.987H10.54V0Z"/>
  </g>
  <g id="Group_5470" data-name="Group 5470" transform="translate(175.011 37.941)">
    <path id="Path_3549" data-name="Path 3549" class="cls-2" d="M-.091,0H-2.078V10.54H-.091Z" transform="translate(2.078)"/>
  </g>
  <g id="Group_5471" data-name="Group 5471" transform="translate(189.705 42.217)">
    <path id="Path_3550" data-name="Path 3550" class="cls-2" d="M0,0V1.987H10.54V0Z"/>
  </g>
  <g id="Group_5472" data-name="Group 5472" transform="translate(193.982 37.941)">
    <path id="Path_3551" data-name="Path 3551" class="cls-2" d="M-.091,0H-2.078V10.54H-.091Z" transform="translate(2.078)"/>
  </g>
  <g id="Group_5473" data-name="Group 5473" transform="translate(208.676 42.217)">
    <path id="Path_3552" data-name="Path 3552" class="cls-2" d="M0,0V1.987H10.54V0Z"/>
  </g>
  <g id="Group_5474" data-name="Group 5474" transform="translate(212.952 37.941)">
    <path id="Path_3553" data-name="Path 3553" class="cls-2" d="M-.091,0H-2.078V10.54H-.091Z" transform="translate(2.078)"/>
  </g>
  <path id="Path_3554" data-name="Path 3554" class="cls-2" d="M0-62.522H10.54v-1.986H0Z" transform="translate(0 87.755)"/>
  <g id="Group_5475" data-name="Group 5475" transform="translate(4.276 18.971)">
    <path id="Path_3555" data-name="Path 3555" class="cls-2" d="M-.091,0H-2.078V10.54H-.091Z" transform="translate(2.078)"/>
  </g>
  <g id="Group_5476" data-name="Group 5476" transform="translate(18.971 23.247)">
    <path id="Path_3556" data-name="Path 3556" class="cls-2" d="M0,0V1.987H10.54V0Z"/>
  </g>
  <g id="Group_5477" data-name="Group 5477" transform="translate(23.247 18.971)">
    <path id="Path_3557" data-name="Path 3557" class="cls-2" d="M-.091,0H-2.078V10.54H-.091Z" transform="translate(2.078)"/>
  </g>
  <g id="Group_5478" data-name="Group 5478" transform="translate(37.941 23.247)">
    <path id="Path_3558" data-name="Path 3558" class="cls-2" d="M0,0V1.987H10.54V0Z"/>
  </g>
  <g id="Group_5479" data-name="Group 5479" transform="translate(42.217 18.971)">
    <path id="Path_3559" data-name="Path 3559" class="cls-2" d="M-.091,0H-2.078V10.54H-.091Z" transform="translate(2.078)"/>
  </g>
  <g id="Group_5480" data-name="Group 5480" transform="translate(56.912 23.247)">
    <path id="Path_3560" data-name="Path 3560" class="cls-2" d="M0,0V1.987H10.54V0Z"/>
  </g>
  <g id="Group_5481" data-name="Group 5481" transform="translate(61.188 18.971)">
    <path id="Path_3561" data-name="Path 3561" class="cls-2" d="M-.091,0H-2.078V10.54H-.091Z" transform="translate(2.078)"/>
  </g>
  <g id="Group_5482" data-name="Group 5482" transform="translate(75.882 23.247)">
    <path id="Path_3562" data-name="Path 3562" class="cls-2" d="M0,0V1.987H10.54V0Z"/>
  </g>
  <g id="Group_5483" data-name="Group 5483" transform="translate(80.158 18.971)">
    <path id="Path_3563" data-name="Path 3563" class="cls-2" d="M-.091,0H-2.078V10.54H-.091Z" transform="translate(2.078)"/>
  </g>
  <g id="Group_5484" data-name="Group 5484" transform="translate(94.853 23.247)">
    <path id="Path_3564" data-name="Path 3564" class="cls-2" d="M0,0V1.987H10.54V0Z"/>
  </g>
  <g id="Group_5485" data-name="Group 5485" transform="translate(99.129 18.971)">
    <path id="Path_3565" data-name="Path 3565" class="cls-2" d="M-.091,0H-2.078V10.54H-.091Z" transform="translate(2.078)"/>
  </g>
  <g id="Group_5486" data-name="Group 5486" transform="translate(113.823 23.247)">
    <path id="Path_3566" data-name="Path 3566" class="cls-2" d="M0,0V1.987H10.54V0Z"/>
  </g>
  <g id="Group_5487" data-name="Group 5487" transform="translate(118.099 18.971)">
    <path id="Path_3567" data-name="Path 3567" class="cls-2" d="M-.091,0H-2.078V10.54H-.091Z" transform="translate(2.078)"/>
  </g>
  <g id="Group_5488" data-name="Group 5488" transform="translate(132.794 23.247)">
    <path id="Path_3568" data-name="Path 3568" class="cls-2" d="M0,0V1.987H10.54V0Z"/>
  </g>
  <g id="Group_5489" data-name="Group 5489" transform="translate(137.07 18.971)">
    <path id="Path_3569" data-name="Path 3569" class="cls-2" d="M-.091,0H-2.078V10.54H-.091Z" transform="translate(2.078)"/>
  </g>
  <g id="Group_5490" data-name="Group 5490" transform="translate(151.764 23.247)">
    <path id="Path_3570" data-name="Path 3570" class="cls-2" d="M0,0V1.987H10.54V0Z"/>
  </g>
  <g id="Group_5491" data-name="Group 5491" transform="translate(156.041 18.971)">
    <path id="Path_3571" data-name="Path 3571" class="cls-2" d="M-.091,0H-2.078V10.54H-.091Z" transform="translate(2.078)"/>
  </g>
  <g id="Group_5492" data-name="Group 5492" transform="translate(170.735 23.247)">
    <path id="Path_3572" data-name="Path 3572" class="cls-2" d="M0,0V1.987H10.54V0Z"/>
  </g>
  <g id="Group_5493" data-name="Group 5493" transform="translate(175.011 18.971)">
    <path id="Path_3573" data-name="Path 3573" class="cls-2" d="M-.091,0H-2.078V10.54H-.091Z" transform="translate(2.078)"/>
  </g>
  <g id="Group_5494" data-name="Group 5494" transform="translate(189.705 23.247)">
    <path id="Path_3574" data-name="Path 3574" class="cls-2" d="M0,0V1.987H10.54V0Z"/>
  </g>
  <g id="Group_5495" data-name="Group 5495" transform="translate(193.982 18.971)">
    <path id="Path_3575" data-name="Path 3575" class="cls-2" d="M-.091,0H-2.078V10.54H-.091Z" transform="translate(2.078)"/>
  </g>
  <g id="Group_5496" data-name="Group 5496" transform="translate(208.676 23.247)">
    <path id="Path_3576" data-name="Path 3576" class="cls-2" d="M0,0V1.987H10.54V0Z"/>
  </g>
  <g id="Group_5497" data-name="Group 5497" transform="translate(212.952 18.971)">
    <path id="Path_3577" data-name="Path 3577" class="cls-2" d="M-.091,0H-2.078V10.54H-.091Z" transform="translate(2.078)"/>
  </g>
  <path id="Path_3578" data-name="Path 3578" class="cls-2" d="M0-82.364H10.54V-84.35H0Z" transform="translate(0 88.627)"/>
  <path id="Path_3579" data-name="Path 3579" class="cls-2" d="M4.473-78.283H6.46v-10.54H4.473Z" transform="translate(-0.196 88.823)"/>
  <g id="Group_5498" data-name="Group 5498" transform="translate(18.971 4.276)">
    <path id="Path_3580" data-name="Path 3580" class="cls-2" d="M0,0V1.987H10.54V0Z"/>
  </g>
  <path id="Path_3581" data-name="Path 3581" class="cls-2" d="M24.314-78.283H26.3v-10.54H24.314Z" transform="translate(-1.068 88.823)"/>
  <g id="Group_5499" data-name="Group 5499" transform="translate(37.941 4.276)">
    <path id="Path_3582" data-name="Path 3582" class="cls-2" d="M0,0V1.987H10.54V0Z"/>
  </g>
  <path id="Path_3583" data-name="Path 3583" class="cls-2" d="M44.157-78.283h1.986v-10.54H44.157Z" transform="translate(-1.939 88.823)"/>
  <g id="Group_5500" data-name="Group 5500" transform="translate(56.912 4.276)">
    <path id="Path_3584" data-name="Path 3584" class="cls-2" d="M0,0V1.987H10.54V0Z"/>
  </g>
  <g id="Group_5501" data-name="Group 5501" transform="translate(61.188 0)">
    <path id="Path_3585" data-name="Path 3585" class="cls-2" d="M0,0V10.54H1.986V0Z"/>
  </g>
  <g id="Group_5502" data-name="Group 5502" transform="translate(75.882 4.276)">
    <path id="Path_3586" data-name="Path 3586" class="cls-2" d="M0,0V1.987H10.54V0Z"/>
  </g>
  <path id="Path_3587" data-name="Path 3587" class="cls-2" d="M83.84-78.283h1.987v-10.54H83.84Z" transform="translate(-3.681 88.823)"/>
  <g id="Group_5503" data-name="Group 5503" transform="translate(94.853 4.276)">
    <path id="Path_3588" data-name="Path 3588" class="cls-2" d="M0,0V1.987H10.54V0Z"/>
  </g>
  <path id="Path_3589" data-name="Path 3589" class="cls-2" d="M103.682-78.283h1.986v-10.54h-1.986Z" transform="translate(-4.552 88.823)"/>
  <g id="Group_5504" data-name="Group 5504" transform="translate(113.823 4.276)">
    <path id="Path_3590" data-name="Path 3590" class="cls-2" d="M0,0V1.987H10.54V0Z"/>
  </g>
  <path id="Path_3591" data-name="Path 3591" class="cls-2" d="M123.523-78.283h1.986v-10.54h-1.986Z" transform="translate(-5.423 88.823)"/>
  <g id="Group_5505" data-name="Group 5505" transform="translate(132.794 4.276)">
    <path id="Path_3592" data-name="Path 3592" class="cls-2" d="M0,0V1.987H10.54V0Z"/>
  </g>
  <path id="Path_3593" data-name="Path 3593" class="cls-2" d="M143.365-78.283h1.987v-10.54h-1.987Z" transform="translate(-6.295 88.823)"/>
  <g id="Group_5506" data-name="Group 5506" transform="translate(151.764 4.276)">
    <path id="Path_3594" data-name="Path 3594" class="cls-2" d="M0,0V1.987H10.54V0Z"/>
  </g>
  <g id="Group_5507" data-name="Group 5507" transform="translate(156.04 0)">
    <path id="Path_3595" data-name="Path 3595" class="cls-2" d="M0,0V10.54H1.986V0Z" transform="translate(0.001)"/>
  </g>
  <g id="Group_5508" data-name="Group 5508" transform="translate(170.735 4.276)">
    <path id="Path_3596" data-name="Path 3596" class="cls-2" d="M0,0V1.987H10.54V0Z"/>
  </g>
  <path id="Path_3597" data-name="Path 3597" class="cls-2" d="M183.048-78.283h1.986v-10.54h-1.986Z" transform="translate(-8.037 88.823)"/>
  <g id="Group_5509" data-name="Group 5509" transform="translate(189.705 4.276)">
    <path id="Path_3598" data-name="Path 3598" class="cls-2" d="M0,0V1.987H10.54V0Z"/>
  </g>
  <path id="Path_3599" data-name="Path 3599" class="cls-2" d="M202.89-78.283h1.987v-10.54H202.89Z" transform="translate(-8.908 88.823)"/>
  <g id="Group_5510" data-name="Group 5510" transform="translate(208.676 4.276)">
    <path id="Path_3600" data-name="Path 3600" class="cls-2" d="M0,0V1.987H10.54V0Z"/>
  </g>
  <path id="Path_3601" data-name="Path 3601" class="cls-2" d="M222.731-78.283h1.987v-10.54h-1.987Z" transform="translate(-9.779 88.823)"/>
</svg>
