<svg xmlns="http://www.w3.org/2000/svg" xmlns:xlink="http://www.w3.org/1999/xlink" width="285.246" height="94.426" viewBox="0 0 285.246 94.426">
  <defs>
    <style>
      .cls-1 {
        fill: #3c4c8d;
      }

      .cls-2 {
        fill: #f7f7f7;
      }

      .cls-3 {
        clip-path: url(#clip-path);
      }
    </style>
    <clipPath id="clip-path">
      <path id="Path_92" data-name="Path 92" class="cls-1" d="M0,45.1H285.246V-49.328H0Z" transform="translate(0 49.328)"/>
    </clipPath>
  </defs>
  <g id="Group_5862" data-name="Group 5862" transform="translate(-664.754 -910.096)">
    <rect id="Rectangle_39" data-name="Rectangle 39" class="cls-2" width="254.764" height="80.654" transform="translate(678 913.884)"/>
    <g id="Group_92" data-name="Group 92" transform="translate(664.754 910.096)">
      <g id="Group_72" data-name="Group 72" transform="translate(30.581 15.69)">
        <path id="Path_70" data-name="Path 70" class="cls-1" d="M9.656,3.986-10.562-4.36V19.528H5.34V11.9h8.633v7.626h15.9V-4.36Z" transform="translate(10.562 4.36)"/>
      </g>
      <g id="Group_73" data-name="Group 73" transform="translate(30.58 48.212)">
        <path id="Path_71" data-name="Path 71" class="cls-1" d="M11.719,0V7.626H3.084V0h-15.9V23.888L7.4,15.542,27.62,23.888V0Z" transform="translate(12.818)"/>
      </g>
      <g id="Group_91" data-name="Group 91" class="cls-3" transform="translate(0 0)">
        <g id="Group_74" data-name="Group 74" transform="translate(90.53 19.772)">
          <path id="Path_72" data-name="Path 72" class="cls-1" d="M2.572,4.992l-1.1-.961v11.79h-4.28V-5.46h.086L7.26,4.613,17.244-5.46h.088V15.821h-4.28V4.031l-1.1.961C10.4,6.68,8.831,8.368,7.26,10.028,5.686,8.368,4.145,6.68,2.572,4.992" transform="translate(2.813 5.46)"/>
        </g>
        <path id="Path_73" data-name="Path 73" class="cls-1" d="M64.848-17.816H60.48V-32.372h4.368Zm0-14.556-2.184-6.52a2.232,2.232,0,0,1,2.418,2.356,2.241,2.241,0,0,1-2.418,2.33,2.225,2.225,0,0,1-2.416-2.33,2.217,2.217,0,0,1,2.416-2.356" transform="translate(55.081 58.869)"/>
        <g id="Group_75" data-name="Group 75" transform="translate(123.479 20.092)">
          <path id="Path_74" data-name="Path 74" class="cls-1" d="M1.96,6.535c0,2.387,1.457,4.018,3.465,4.018,1.746,0,3.493-1.34,3.493-4.018S7.171,2.517,5.425,2.517c-2.008,0-3.465,1.6-3.465,4.018M13.4,13.813H9.443l-.088-1.34a3.9,3.9,0,0,1,.057-.961H9.355a5.308,5.308,0,0,1-4.717,2.709c-3.756,0-6.782-2.912-6.782-7.686,0-4.8,3.026-7.686,6.665-7.686A5.555,5.555,0,0,1,9.093.974H9.15A6.043,6.043,0,0,1,9.064-.218v-6.93H13.4Z" transform="translate(2.144 7.148)"/>
        </g>
        <g id="Group_76" data-name="Group 76" transform="translate(141.292 26.497)">
          <path id="Path_75" data-name="Path 75" class="cls-1" d="M7.035,2.336c.5,1.426.932,3,1.252,4.135.379-.844.93-2.883,1.4-4.163l1.66-4.862h4.542L9.8,12.177H6.978L4.095,4.2,1.243,12.177H-1.612L-7.7-2.555h4.542C-2.105.531-.854,3.967-.126,6.471l2.94-8.938H5.375Z" transform="translate(7.695 2.555)"/>
        </g>
        <g id="Group_77" data-name="Group 77" transform="translate(165.976 26.09)">
          <path id="Path_76" data-name="Path 76" class="cls-1" d="M3.517,1.64A2.87,2.87,0,0,0,.665,4.552h5.5A2.592,2.592,0,0,0,3.517,1.64M10.33,5.017a16.538,16.538,0,0,1-.117,1.776H.665C.839,8.773,2.351,9.908,4.712,9.908A12.122,12.122,0,0,0,9.748,8.83v3.7A12.778,12.778,0,0,1,4.3,13.575c-5.008,0-8.151-3.231-8.151-7.684A7.384,7.384,0,0,1,3.548-1.794c4.481,0,6.782,3.2,6.782,6.811" transform="translate(3.847 1.794)"/>
        </g>
        <g id="Group_78" data-name="Group 78" transform="translate(182.713 26.09)">
          <path id="Path_77" data-name="Path 77" class="cls-1" d="M2.211,4.379C-.5,3.623-2.418,2.488-2.418-.337c0-2.707,2.155-4.453,5.53-4.453a12.483,12.483,0,0,1,4.717.9V-.161a10.969,10.969,0,0,0-3.7-1.078,5.129,5.129,0,0,0-1.34.057c-.611.117-1.221.408-1.221,1.049,0,.727.727,1.106,2.27,1.572,3.317.932,4.889,2.1,4.889,4.717,0,2.795-2.3,4.424-6,4.424A12.307,12.307,0,0,1-2.213,9.62V5.805a12.073,12.073,0,0,0,4.889,1.34c1.078,0,2.067-.291,2.067-1.166,0-.785-.873-1.1-2.533-1.6" transform="translate(2.418 4.79)"/>
        </g>
        <g id="Group_79" data-name="Group 79" transform="translate(195.49 22.131)">
          <path id="Path_78" data-name="Path 78" class="cls-1" d="M1,2.085V-2.281H5.222V2.085H9.094V5.491H5.222v5.852c0,1.543.9,2.067,1.863,2.067A5.859,5.859,0,0,0,9.56,12.8v3.58a9.02,9.02,0,0,1-3.7.67c-2.3,0-4.542-1.078-4.862-4.135-.029-.465-.088-.961-.088-1.484V5.491H-1.1V2.085Z" transform="translate(1.095 2.281)"/>
        </g>
        <g id="Group_80" data-name="Group 80" transform="translate(208.064 26.09)">
          <path id="Path_79" data-name="Path 79" class="cls-1" d="M3.518,1.64A2.87,2.87,0,0,0,.666,4.552h5.5A2.592,2.592,0,0,0,3.518,1.64m6.813,3.377a16.538,16.538,0,0,1-.117,1.776H.666C.84,8.773,2.352,9.908,4.711,9.908A12.114,12.114,0,0,0,9.747,8.83v3.7A12.764,12.764,0,0,1,4.3,13.575c-5.006,0-8.151-3.231-8.151-7.684A7.384,7.384,0,0,1,3.547-1.794c4.483,0,6.784,3.2,6.784,6.811" transform="translate(3.848 1.794)"/>
        </g>
        <g id="Group_81" data-name="Group 81" transform="translate(225.82 26.09)">
          <path id="Path_80" data-name="Path 80" class="cls-1" d="M0,.195H3.959l.088,1.426a8.09,8.09,0,0,0,.029.961A5.08,5.08,0,0,1,8.384-.213a3.834,3.834,0,0,1,.932.088v4.25a2.4,2.4,0,0,0-.963-.174c-2.211,0-4.016,1.951-4.016,4.6v6.2H0Z" transform="translate(0 0.213)"/>
        </g>
        <g id="Group_82" data-name="Group 82" transform="translate(238.221 26.09)">
          <path id="Path_81" data-name="Path 81" class="cls-1" d="M1.9.195l.117,1.66A3.2,3.2,0,0,1,1.9,2.873h.059A5.778,5.778,0,0,1,6.971-.213c3.289,0,5.065,2.008,5.065,5.852v9.112H7.668V6.366c0-1.426-.408-2.621-1.979-2.621A3.435,3.435,0,0,0,2.283,7.5v7.249H-2.083V.195Z" transform="translate(2.083 0.213)"/>
        </g>
        <g id="Group_83" data-name="Group 83" transform="translate(90.239 48.17)">
          <path id="Path_82" data-name="Path 82" class="cls-1" d="M8.37,6.368c0,4.891-3.231,8.036-8.763,8.036-5.5,0-8.761-3.145-8.761-8.036V-6.965h4.483v12.9c0,2.735,1.543,4.366,4.278,4.366,2.766,0,4.28-1.631,4.28-4.366v-12.9H8.37Z" transform="translate(9.155 6.965)"/>
        </g>
        <g id="Group_84" data-name="Group 84" transform="translate(112.216 54.166)">
          <path id="Path_83" data-name="Path 83" class="cls-1" d="M1.9.195l.117,1.66A3.2,3.2,0,0,1,1.9,2.873h.059A5.778,5.778,0,0,1,6.971-.213c3.289,0,5.065,2.008,5.065,5.852v9.112H7.668V6.366c0-1.426-.408-2.621-1.979-2.621A3.435,3.435,0,0,0,2.283,7.5v7.249H-2.083V.195Z" transform="translate(2.083 0.213)"/>
        </g>
        <path id="Path_84" data-name="Path 84" class="cls-1" d="M72.755-3.147H68.389V-17.7h4.366Zm0-14.556-2.184-6.522a2.232,2.232,0,0,1,2.418,2.358,2.239,2.239,0,0,1-2.418,2.328,2.224,2.224,0,0,1-2.416-2.328,2.217,2.217,0,0,1,2.416-2.358" transform="translate(62.31 72.278)"/>
        <g id="Group_85" data-name="Group 85" transform="translate(137.276 54.574)">
          <path id="Path_85" data-name="Path 85" class="cls-1" d="M7.467,0,1.033,14.73H-1.7L-8.167,0h4.542c1.164,2.969,2.561,6.346,3.26,8.761C-.045,7.977.568,5.909,1.09,4.6L2.924,0Z" transform="translate(8.167)"/>
        </g>
        <g id="Group_86" data-name="Group 86" transform="translate(153.983 54.167)">
          <path id="Path_86" data-name="Path 86" class="cls-1" d="M3.518,1.64A2.868,2.868,0,0,0,.666,4.552h5.5A2.591,2.591,0,0,0,3.518,1.64m6.811,3.377a16.039,16.039,0,0,1-.117,1.776H.666C.84,8.773,2.352,9.908,4.711,9.908A12.114,12.114,0,0,0,9.747,8.83v3.7A12.764,12.764,0,0,1,4.3,13.575c-5.006,0-8.151-3.231-8.151-7.684A7.384,7.384,0,0,1,3.547-1.794c4.483,0,6.782,3.2,6.782,6.811" transform="translate(3.848 1.794)"/>
        </g>
        <g id="Group_87" data-name="Group 87" transform="translate(171.738 54.166)">
          <path id="Path_87" data-name="Path 87" class="cls-1" d="M0,.195H3.961l.086,1.426a8.09,8.09,0,0,0,.029.961A5.083,5.083,0,0,1,8.384-.213a3.819,3.819,0,0,1,.932.088v4.25a2.389,2.389,0,0,0-.961-.174C6.143,3.95,4.34,5.9,4.34,8.55v6.2H0Z" transform="translate(0 0.213)"/>
        </g>
        <g id="Group_88" data-name="Group 88" transform="translate(183.178 54.167)">
          <path id="Path_88" data-name="Path 88" class="cls-1" d="M2.211,4.379C-.5,3.623-2.418,2.486-2.418-.337c0-2.707,2.155-4.453,5.53-4.453a12.483,12.483,0,0,1,4.717.9V-.161a10.969,10.969,0,0,0-3.7-1.078,5.115,5.115,0,0,0-1.338.057c-.613.117-1.223.408-1.223,1.049,0,.727.727,1.106,2.27,1.572,3.319.932,4.891,2.1,4.891,4.717,0,2.795-2.3,4.424-6,4.424A12.307,12.307,0,0,1-2.213,9.62V5.805a12.081,12.081,0,0,0,4.891,1.34c1.076,0,2.067-.291,2.067-1.166,0-.785-.875-1.106-2.534-1.6" transform="translate(2.418 4.79)"/>
        </g>
        <path id="Path_89" data-name="Path 89" class="cls-1" d="M107.834-3.147h-4.368V-17.7h4.368Zm0-14.556-2.184-6.522a2.232,2.232,0,0,1,2.418,2.358,2.239,2.239,0,0,1-2.418,2.328,2.224,2.224,0,0,1-2.416-2.328,2.217,2.217,0,0,1,2.416-2.358" transform="translate(94.381 72.278)"/>
        <g id="Group_89" data-name="Group 89" transform="translate(204.977 50.208)">
          <path id="Path_90" data-name="Path 90" class="cls-1" d="M1,2.085V-2.281H5.223V2.085H9.093V5.491H5.223v5.852c0,1.543.9,2.067,1.863,2.067A5.859,5.859,0,0,0,9.561,12.8v3.58a9.024,9.024,0,0,1-3.7.67c-2.3,0-4.541-1.078-4.86-4.135-.031-.465-.088-.961-.088-1.484V5.491H-1.1V2.085Z" transform="translate(1.096 2.281)"/>
        </g>
        <g id="Group_90" data-name="Group 90" transform="translate(216.884 54.574)">
          <path id="Path_91" data-name="Path 91" class="cls-1" d="M.278,8.217A4.664,4.664,0,0,0,2,8.508c1.922,0,2.912-1.281,3.7-2.94L-.3-8.988H4.47L6.158-3.923C6.769-2.147,7.382-.341,7.876,1.492c.379-.815,1.34-4.338,1.748-5.415L11.31-8.988h4.719L10.379,5.451c-1.66,4.309-3.844,6.462-6.9,6.813a7.713,7.713,0,0,1-1.834.029A5.07,5.07,0,0,1,.278,12.03Z" transform="translate(0.304 8.988)"/>
        </g>
      </g>
    </g>
  </g>
</svg>
