<svg xmlns="http://www.w3.org/2000/svg" xmlns:xlink="http://www.w3.org/1999/xlink" width="284.933" height="94.322" viewBox="0 0 284.933 94.322">
  <defs>
    <style>
      .cls-1 {
        fill: none;
      }

      .cls-2 {
        fill: #f7f7f7;
      }

      .cls-3 {
        fill: #42454a;
      }

      .cls-4 {
        clip-path: url(#clip-path);
      }
    </style>
    <clipPath id="clip-path">
      <path id="Path_115" data-name="Path 115" class="cls-1" d="M0,44.994H284.933V-49.328H0Z" transform="translate(0 49.328)"/>
    </clipPath>
  </defs>
  <g id="Group_5865" data-name="Group 5865" transform="translate(-665.066 -1008.362)">
    <rect id="Rectangle_40" data-name="Rectangle 40" class="cls-2" width="254.764" height="80.654" transform="translate(678 1012.538)"/>
    <g id="Group_116" data-name="Group 116" transform="translate(665.066 1008.362)">
      <g id="Group_96" data-name="Group 96" transform="translate(30.548 15.673)">
        <path id="Path_93" data-name="Path 93" class="cls-3" d="M9.634,3.977l-20.2-8.337V19.5H5.322V11.884h8.624V19.5H29.83V-4.36Z" transform="translate(10.562 4.36)"/>
      </g>
      <g id="Group_97" data-name="Group 97" transform="translate(30.548 48.159)">
        <path id="Path_94" data-name="Path 94" class="cls-3" d="M11.691,0V7.618H3.065V0H-12.817V23.862l20.2-8.337,20.2,8.337V0Z" transform="translate(12.817)"/>
      </g>
      <g id="Group_115" data-name="Group 115" class="cls-4" transform="translate(0 0)">
        <g id="Group_98" data-name="Group 98" transform="translate(90.43 19.75)">
          <path id="Path_95" data-name="Path 95" class="cls-3" d="M2.566,4.98l-1.1-.96V15.8H-2.813V-5.46h.086L7.249,4.6,17.222-5.46h.088V15.8H13.035V4.02l-1.1.96c-1.543,1.687-3.113,3.373-4.683,5.031C5.677,8.353,4.136,6.667,2.566,4.98" transform="translate(2.813 5.46)"/>
        </g>
        <path id="Path_96" data-name="Path 96" class="cls-3" d="M64.843-17.839H60.479v-14.54h4.364Zm0-14.54-2.182-6.513a2.23,2.23,0,0,1,2.415,2.354,2.239,2.239,0,0,1-2.415,2.327,2.223,2.223,0,0,1-2.413-2.327,2.214,2.214,0,0,1,2.413-2.354" transform="translate(54.954 58.847)"/>
        <g id="Group_99" data-name="Group 99" transform="translate(123.341 20.07)">
          <path id="Path_97" data-name="Path 97" class="cls-3" d="M1.957,6.52c0,2.384,1.453,4.014,3.461,4.014,1.744,0,3.49-1.338,3.49-4.014S7.161,2.506,5.417,2.506c-2.008,0-3.461,1.6-3.461,4.014m11.429,7.27H9.431l-.088-1.338a3.9,3.9,0,0,1,.057-.96H9.343A5.3,5.3,0,0,1,4.632,14.2C.88,14.2-2.145,11.289-2.145,6.52c0-4.8,3.025-7.677,6.66-7.677A5.552,5.552,0,0,1,9.081.965h.057A6.036,6.036,0,0,1,9.052-.226V-7.148h4.333Z" transform="translate(2.145 7.148)"/>
        </g>
        <g id="Group_100" data-name="Group 100" transform="translate(141.137 26.468)">
          <path id="Path_98" data-name="Path 98" class="cls-3" d="M7.019,2.331c.5,1.425.931,2.994,1.251,4.13.379-.843.929-2.88,1.4-4.159l1.658-4.857h4.537L9.782,12.161H6.962l-2.88-7.97-2.851,7.97H-1.618L-7.695-2.555h4.536C-2.112.527-.861,3.96-.134,6.461L2.8-2.467H5.361Z" transform="translate(7.695 2.555)"/>
        </g>
        <g id="Group_101" data-name="Group 101" transform="translate(165.792 26.062)">
          <path id="Path_99" data-name="Path 99" class="cls-3" d="M3.51,1.636A2.866,2.866,0,0,0,.661,4.545h5.5A2.589,2.589,0,0,0,3.51,1.636m6.805,3.373A16.519,16.519,0,0,1,10.2,6.784H.661C.835,8.761,2.345,9.895,4.7,9.895A12.1,12.1,0,0,0,9.732,8.818v3.694a12.75,12.75,0,0,1-5.438,1.046c-5,0-8.142-3.228-8.142-7.675A7.376,7.376,0,0,1,3.539-1.794a6.441,6.441,0,0,1,6.777,6.8" transform="translate(3.848 1.794)"/>
        </g>
        <g id="Group_102" data-name="Group 102" transform="translate(182.512 26.062)">
          <path id="Path_100" data-name="Path 100" class="cls-3" d="M2.206,4.369C-.5,3.614-2.418,2.48-2.418-.342c0-2.7,2.151-4.448,5.524-4.448a12.47,12.47,0,0,1,4.712.9V-.166A10.955,10.955,0,0,0,4.123-1.243a5.113,5.113,0,0,0-1.337.057c-.612.117-1.22.407-1.22,1.048,0,.727.725,1.105,2.268,1.57,3.314.931,4.884,2.094,4.884,4.712,0,2.792-2.3,4.419-5.989,4.419A12.312,12.312,0,0,1-2.215,9.6V5.794A12.076,12.076,0,0,0,2.67,7.132c1.077,0,2.065-.291,2.065-1.164,0-.784-.872-1.1-2.53-1.6" transform="translate(2.418 4.79)"/>
        </g>
        <g id="Group_103" data-name="Group 103" transform="translate(195.276 22.107)">
          <path id="Path_101" data-name="Path 101" class="cls-3" d="M1,2.081V-2.281H5.215V2.081H9.081v3.4H5.215v5.845c0,1.541.9,2.065,1.861,2.065a5.853,5.853,0,0,0,2.472-.61v3.576a9.014,9.014,0,0,1-3.694.669c-2.3,0-4.536-1.077-4.855-4.13-.029-.465-.088-.96-.088-1.482V5.482H-1.095v-3.4Z" transform="translate(1.095 2.281)"/>
        </g>
        <g id="Group_104" data-name="Group 104" transform="translate(207.835 26.062)">
          <path id="Path_102" data-name="Path 102" class="cls-3" d="M3.51,1.636A2.865,2.865,0,0,0,.661,4.545H6.154A2.587,2.587,0,0,0,3.51,1.636m6.805,3.373A16.519,16.519,0,0,1,10.2,6.784H.661C.835,8.761,2.345,9.895,4.7,9.895A12.1,12.1,0,0,0,9.732,8.818v3.694a12.75,12.75,0,0,1-5.438,1.046c-5,0-8.142-3.228-8.142-7.675A7.376,7.376,0,0,1,3.539-1.794a6.441,6.441,0,0,1,6.777,6.8" transform="translate(3.848 1.794)"/>
        </g>
        <g id="Group_105" data-name="Group 105" transform="translate(225.572 26.061)">
          <path id="Path_103" data-name="Path 103" class="cls-3" d="M0,.194H3.956l.086,1.425a8.081,8.081,0,0,0,.029.96,5.08,5.08,0,0,1,4.3-2.792,3.815,3.815,0,0,1,.931.088V4.12a2.386,2.386,0,0,0-.96-.174c-2.21,0-4.014,1.948-4.014,4.595v6.193H0Z" transform="translate(0 0.213)"/>
        </g>
        <g id="Group_106" data-name="Group 106" transform="translate(237.957 26.061)">
          <path id="Path_104" data-name="Path 104" class="cls-3" d="M1.9.194l.117,1.658A3.256,3.256,0,0,1,1.9,2.869H1.96a5.768,5.768,0,0,1,5-3.082c3.287,0,5.06,2.006,5.06,5.845v9.1H7.658V6.359c0-1.425-.407-2.618-1.977-2.618a3.431,3.431,0,0,0-3.4,3.752v7.241H-2.084V.194Z" transform="translate(2.084 0.213)"/>
        </g>
        <g id="Group_107" data-name="Group 107" transform="translate(90.138 48.117)">
          <path id="Path_105" data-name="Path 105" class="cls-3" d="M8.352,6.353c0,4.886-3.228,8.027-8.754,8.027-5.5,0-8.754-3.142-8.754-8.027V-6.965h4.48V5.917c0,2.732,1.541,4.362,4.274,4.362,2.763,0,4.276-1.629,4.276-4.362V-6.965H8.352Z" transform="translate(9.156 6.965)"/>
        </g>
        <g id="Group_108" data-name="Group 108" transform="translate(112.091 54.107)">
          <path id="Path_106" data-name="Path 106" class="cls-3" d="M1.9.194l.117,1.658A3.256,3.256,0,0,1,1.9,2.869H1.96a5.768,5.768,0,0,1,5-3.082c3.287,0,5.06,2.006,5.06,5.845v9.1H7.658V6.359c0-1.425-.407-2.618-1.977-2.618a3.431,3.431,0,0,0-3.4,3.752v7.241H-2.084V.194Z" transform="translate(2.084 0.213)"/>
        </g>
        <path id="Path_107" data-name="Path 107" class="cls-3" d="M72.75-3.172H68.386v-14.54H72.75Zm0-14.538-2.182-6.515a2.231,2.231,0,0,1,2.415,2.356,2.238,2.238,0,0,1-2.415,2.325,2.222,2.222,0,0,1-2.413-2.325,2.215,2.215,0,0,1,2.413-2.356" transform="translate(62.167 72.225)"/>
        <g id="Group_109" data-name="Group 109" transform="translate(137.125 54.514)">
          <path id="Path_108" data-name="Path 108" class="cls-3" d="M7.449,0,1.023,14.714H-1.712L-8.167,0H-3.63C-2.467,2.966-1.071,6.339-.373,8.752-.054,7.968.558,5.9,1.08,4.595L2.912,0Z" transform="translate(8.167)"/>
        </g>
        <g id="Group_110" data-name="Group 110" transform="translate(153.814 54.108)">
          <path id="Path_109" data-name="Path 109" class="cls-3" d="M3.51,1.636A2.866,2.866,0,0,0,.661,4.545h5.5A2.589,2.589,0,0,0,3.51,1.636m6.805,3.373A16.519,16.519,0,0,1,10.2,6.784H.661C.835,8.761,2.345,9.895,4.7,9.895A12.108,12.108,0,0,0,9.734,8.818v3.694A12.764,12.764,0,0,1,4.3,13.559c-5,0-8.144-3.228-8.144-7.675A7.376,7.376,0,0,1,3.54-1.794c4.476,0,6.775,3.2,6.775,6.8" transform="translate(3.848 1.794)"/>
        </g>
        <g id="Group_111" data-name="Group 111" transform="translate(171.55 54.107)">
          <path id="Path_110" data-name="Path 110" class="cls-3" d="M0,.194H3.956l.086,1.425a8.081,8.081,0,0,0,.029.96,5.075,5.075,0,0,1,4.3-2.792,3.829,3.829,0,0,1,.931.088V4.12a2.386,2.386,0,0,0-.96-.174c-2.21,0-4.014,1.948-4.014,4.593v6.2H0Z" transform="translate(0 0.213)"/>
        </g>
        <g id="Group_112" data-name="Group 112" transform="translate(182.977 54.108)">
          <path id="Path_111" data-name="Path 111" class="cls-3" d="M2.206,4.369C-.5,3.614-2.418,2.478-2.418-.342c0-2.7,2.153-4.448,5.524-4.448a12.47,12.47,0,0,1,4.712.9V-.166A10.957,10.957,0,0,0,4.125-1.243a5.105,5.105,0,0,0-1.337.057c-.612.117-1.222.407-1.222,1.048,0,.727.727,1.105,2.268,1.57C7.148,2.363,8.72,3.526,8.72,6.144c0,2.792-2.3,4.419-5.991,4.419A12.294,12.294,0,0,1-2.213,9.6V5.794A12.068,12.068,0,0,0,2.672,7.132c1.075,0,2.065-.291,2.065-1.164,0-.784-.874-1.105-2.532-1.6" transform="translate(2.418 4.79)"/>
        </g>
        <path id="Path_112" data-name="Path 112" class="cls-3" d="M107.829-3.172h-4.363v-14.54h4.363Zm0-14.538-2.182-6.515a2.228,2.228,0,0,1,2.413,2.356,2.235,2.235,0,0,1-2.413,2.325,2.222,2.222,0,0,1-2.413-2.325,2.215,2.215,0,0,1,2.413-2.356" transform="translate(94.164 72.225)"/>
        <g id="Group_113" data-name="Group 113" transform="translate(204.753 50.153)">
          <path id="Path_113" data-name="Path 113" class="cls-3" d="M1,2.081V-2.281H5.215V2.081H9.083v3.4H5.215v5.845c0,1.541.9,2.065,1.861,2.065a5.846,5.846,0,0,0,2.472-.61v3.576a9,9,0,0,1-3.692.669c-2.3,0-4.537-1.077-4.857-4.13-.029-.465-.086-.96-.086-1.482V5.482H-1.095v-3.4Z" transform="translate(1.095 2.281)"/>
        </g>
        <g id="Group_114" data-name="Group 114" transform="translate(216.646 54.514)">
          <path id="Path_114" data-name="Path 114" class="cls-3" d="M.277,8.2a4.659,4.659,0,0,0,1.715.291c1.92,0,2.908-1.279,3.692-2.937L-.3-8.988H4.465l1.687,5.06c.61,1.774,1.222,3.578,1.715,5.409C8.245.666,9.205-2.852,9.612-3.928L11.3-8.988h4.712L10.368,5.435c-1.658,4.3-3.84,6.455-6.891,6.805a7.7,7.7,0,0,1-1.832.029,5.064,5.064,0,0,1-1.367-.262Z" transform="translate(0.304 8.988)"/>
        </g>
      </g>
    </g>
  </g>
</svg>
