<svg xmlns="http://www.w3.org/2000/svg" xmlns:xlink="http://www.w3.org/1999/xlink" width="304.737" height="41.124" viewBox="0 0 304.737 41.124">
  <defs>
    <style>
      .cls-1 {
        fill: none;
      }

      .cls-2 {
        fill: #cbaf8b;
      }

      .cls-3 {
        clip-path: url(#clip-path);
      }

      .cls-4 {
        fill: #0d55a1;
      }
    </style>
    <clipPath id="clip-path">
      <path id="Path_310" data-name="Path 310" class="cls-1" d="M33.271-212.919H338.008v-41.124H33.271Z" transform="translate(-33.271 254.043)"/>
    </clipPath>
  </defs>
  <g id="Group_5868" data-name="Group 5868" transform="translate(-703.797 -2542.046)">
    <g id="Group_320" data-name="Group 320" transform="translate(706.627 2545.073)">
      <path id="Path_288" data-name="Path 288" class="cls-2" d="M.716.3l-12.11-5V9.6H-1.87V5.036H3.3V9.6h9.524V-4.7Z" transform="translate(11.394 4.703)"/>
    </g>
    <g id="Group_321" data-name="Group 321" transform="translate(706.629 2564.552)">
      <path id="Path_289" data-name="Path 289" class="cls-2" d="M.869,0V4.568H-4.3V0h-9.523V14.308l12.109-5,12.11,5V0Z" transform="translate(13.826)"/>
    </g>
    <g id="Group_339" data-name="Group 339" class="cls-3" transform="translate(703.797 2542.046)">
      <g id="Group_322" data-name="Group 322" transform="translate(41.839 11.389)">
        <path id="Path_290" data-name="Path 290" class="cls-4" d="M.259.5l-.9-.782v9.6H-4.126V-8.008h.071L4.077.2l8.132-8.2h.07V9.323H8.8v-9.6L7.894.5C6.636,1.879,5.357,3.253,4.077,4.6,2.8,3.253,1.54,1.879.259.5" transform="translate(4.126 8.008)"/>
      </g>
      <path id="Path_291" data-name="Path 291" class="cls-4" d="M95.384-226.007H91.826v-11.854h3.557Zm0-11.854-1.778-5.31a1.817,1.817,0,0,1,1.967,1.921,1.824,1.824,0,0,1-1.967,1.9,1.812,1.812,0,0,1-1.968-1.9,1.806,1.806,0,0,1,1.968-1.921" transform="translate(-29.603 254.726)"/>
      <g id="Group_323" data-name="Group 323" transform="translate(68.671 11.65)">
        <path id="Path_292" data-name="Path 292" class="cls-4" d="M.2.659C.2,2.6,1.384,3.93,3.018,3.93A2.945,2.945,0,0,0,5.864.659,2.945,2.945,0,0,0,3.018-2.613C1.384-2.613.2-1.309.2.659M9.515,6.585H6.291L6.22,5.495a3.134,3.134,0,0,1,.048-.782H6.22A4.327,4.327,0,0,1,2.38,6.918c-3.06,0-5.525-2.371-5.525-6.259C-3.145-3.253-.68-5.6,2.284-5.6A4.523,4.523,0,0,1,6.006-3.87h.048a4.846,4.846,0,0,1-.071-.971v-5.643H9.515Z" transform="translate(3.145 10.484)"/>
      </g>
      <g id="Group_324" data-name="Group 324" transform="translate(83.178 16.866)">
        <path id="Path_293" data-name="Path 293" class="cls-4" d="M.709.235c.4,1.162.759,2.442,1.019,3.367.308-.688.759-2.348,1.138-3.39L4.219-3.747h3.7l-4.954,12H.663l-2.347-6.5-2.324,6.5H-6.332l-4.955-12h3.7c.853,2.513,1.873,5.311,2.465,7.35l2.4-7.278H-.643Z" transform="translate(11.287 3.747)"/>
      </g>
      <g id="Group_325" data-name="Group 325" transform="translate(103.279 16.533)">
        <path id="Path_294" data-name="Path 294" class="cls-4" d="M.355.165A2.337,2.337,0,0,0-1.969,2.537H2.512A2.11,2.11,0,0,0,.355.165M5.9,2.916a13.5,13.5,0,0,1-.095,1.445H-1.969C-1.826,5.974-.594,6.9,1.327,6.9a9.884,9.884,0,0,0,4.1-.877V9.033a10.394,10.394,0,0,1-4.434.853c-4.077,0-6.639-2.632-6.639-6.259A6.014,6.014,0,0,1,.379-2.632,5.25,5.25,0,0,1,5.9,2.916" transform="translate(5.644 2.632)"/>
      </g>
      <g id="Group_326" data-name="Group 326" transform="translate(116.91 16.534)">
        <path id="Path_295" data-name="Path 295" class="cls-4" d="M.223.442C-1.982-.175-3.547-1.1-3.547-3.4c0-2.205,1.755-3.628,4.505-3.628a10.181,10.181,0,0,1,3.84.734v3.034a8.947,8.947,0,0,0-3.011-.877A4.126,4.126,0,0,0,.7-4.086c-.5.095-1,.332-1,.853,0,.592.592.9,1.849,1.28,2.7.759,3.982,1.707,3.982,3.841,0,2.276-1.873,3.6-4.884,3.6a10.025,10.025,0,0,1-4.03-.782V1.6A9.836,9.836,0,0,0,.6,2.694c.879,0,1.685-.237,1.685-.948,0-.64-.712-.9-2.063-1.3" transform="translate(3.547 7.026)"/>
      </g>
      <g id="Group_327" data-name="Group 327" transform="translate(127.316 13.309)">
        <path id="Path_296" data-name="Path 296" class="cls-4" d="M.1.21V-3.346H3.539V.21H6.692V2.984H3.539V7.749c0,1.256.734,1.684,1.517,1.684a4.772,4.772,0,0,0,2.015-.5v2.915A7.348,7.348,0,0,1,4.06,12.4C2.187,12.4.361,11.519.1,9.03.078,8.65.03,8.248.03,7.82V2.984H-1.606V.21Z" transform="translate(1.606 3.346)"/>
      </g>
      <g id="Group_328" data-name="Group 328" transform="translate(137.556 16.533)">
        <path id="Path_297" data-name="Path 297" class="cls-4" d="M.355.165A2.337,2.337,0,0,0-1.969,2.537h4.48A2.109,2.109,0,0,0,.355.165M5.9,2.916a13.5,13.5,0,0,1-.095,1.445H-1.969C-1.827,5.974-.594,6.9,1.326,6.9a9.879,9.879,0,0,0,4.1-.877V9.033a10.384,10.384,0,0,1-4.433.853c-4.078,0-6.639-2.632-6.639-6.259A6.013,6.013,0,0,1,.378-2.632,5.25,5.25,0,0,1,5.9,2.916" transform="translate(5.644 2.632)"/>
      </g>
      <g id="Group_329" data-name="Group 329" transform="translate(152.016 16.534)">
        <path id="Path_298" data-name="Path 298" class="cls-4" d="M0,.02H3.225L3.3,1.181a6.582,6.582,0,0,0,.023.782A4.138,4.138,0,0,1,6.828-.312a3.227,3.227,0,0,1,.759.07V3.22A1.93,1.93,0,0,0,6.8,3.077,3.482,3.482,0,0,0,3.533,6.824v5.05H0Z" transform="translate(0 0.312)"/>
      </g>
      <g id="Group_330" data-name="Group 330" transform="translate(162.114 16.534)">
        <path id="Path_299" data-name="Path 299" class="cls-4" d="M.192.02.287,1.37a2.668,2.668,0,0,1-.095.83H.24A4.708,4.708,0,0,1,4.317-.312C7-.312,8.443,1.324,8.443,4.453v7.421H4.887V5.046c0-1.162-.333-2.134-1.612-2.134A2.8,2.8,0,0,0,.5,5.97v5.9H-3.056V.02Z" transform="translate(3.056 0.312)"/>
      </g>
      <g id="Group_331" data-name="Group 331" transform="translate(183.684 11.65)">
        <path id="Path_300" data-name="Path 300" class="cls-4" d="M.844.642c0,3.982-2.632,6.544-7.136,6.544-4.481,0-7.137-2.561-7.137-6.544V-10.216h3.652V.286A3.213,3.213,0,0,0-6.292,3.842,3.2,3.2,0,0,0-2.808.286v-10.5H.844Z" transform="translate(13.429 10.216)"/>
      </g>
      <g id="Group_332" data-name="Group 332" transform="translate(201.581 16.534)">
        <path id="Path_301" data-name="Path 301" class="cls-4" d="M.192.02.287,1.37a2.668,2.668,0,0,1-.095.83H.24A4.708,4.708,0,0,1,4.317-.312C7-.312,8.443,1.324,8.443,4.453v7.421H4.887V5.046c0-1.162-.333-2.134-1.612-2.134A2.8,2.8,0,0,0,.5,5.97v5.9H-3.056V.02Z" transform="translate(3.056 0.312)"/>
      </g>
      <path id="Path_302" data-name="Path 302" class="cls-4" d="M240.662-226.007h-3.557v-11.854h3.557Zm0-11.854-1.778-5.31a1.817,1.817,0,0,1,1.967,1.921,1.823,1.823,0,0,1-1.967,1.9,1.812,1.812,0,0,1-1.967-1.9,1.806,1.806,0,0,1,1.967-1.921" transform="translate(-20.472 254.726)"/>
      <g id="Group_333" data-name="Group 333" transform="translate(221.99 16.866)">
        <path id="Path_303" data-name="Path 303" class="cls-4" d="M.753,0l-5.24,12H-6.716L-11.979,0h3.7c.948,2.418,2.086,5.169,2.656,7.136.26-.64.759-2.323,1.185-3.39L-2.946,0Z" transform="translate(11.979)"/>
      </g>
      <g id="Group_334" data-name="Group 334" transform="translate(235.598 16.533)">
        <path id="Path_304" data-name="Path 304" class="cls-4" d="M.355.165A2.337,2.337,0,0,0-1.969,2.537H2.512A2.11,2.11,0,0,0,.355.165M5.9,2.916a13.214,13.214,0,0,1-.095,1.445H-1.969C-1.826,5.974-.593,6.9,1.327,6.9a9.884,9.884,0,0,0,4.1-.877V9.033a10.39,10.39,0,0,1-4.434.853c-4.077,0-6.637-2.632-6.637-6.259A6.013,6.013,0,0,1,.379-2.632,5.25,5.25,0,0,1,5.9,2.916" transform="translate(5.643 2.632)"/>
      </g>
      <g id="Group_335" data-name="Group 335" transform="translate(250.057 16.534)">
        <path id="Path_305" data-name="Path 305" class="cls-4" d="M0,.02H3.225L3.3,1.181a6.582,6.582,0,0,0,.023.782A4.135,4.135,0,0,1,6.828-.312a3.227,3.227,0,0,1,.759.07V3.22A1.93,1.93,0,0,0,6.8,3.077,3.481,3.481,0,0,0,3.533,6.824v5.05H0Z" transform="translate(0 0.312)"/>
      </g>
      <g id="Group_336" data-name="Group 336" transform="translate(259.372 16.534)">
        <path id="Path_306" data-name="Path 306" class="cls-4" d="M.223.442C-1.982-.175-3.547-1.1-3.547-3.4c0-2.205,1.755-3.628,4.505-3.628a10.176,10.176,0,0,1,3.84.734v3.034a8.939,8.939,0,0,0-3.011-.877A4.13,4.13,0,0,0,.7-4.086c-.5.095-.995.332-.995.853,0,.592.592.9,1.849,1.28,2.7.759,3.982,1.707,3.982,3.841,0,2.276-1.873,3.6-4.885,3.6A10.015,10.015,0,0,1-3.38,4.709V1.6A9.831,9.831,0,0,0,.6,2.694c.878,0,1.684-.237,1.684-.948,0-.64-.711-.9-2.063-1.3" transform="translate(3.547 7.026)"/>
      </g>
      <path id="Path_307" data-name="Path 307" class="cls-4" d="M292.115-226.007h-3.557v-11.854h3.557Zm0-11.854-1.778-5.31a1.817,1.817,0,0,1,1.967,1.921,1.824,1.824,0,0,1-1.967,1.9,1.812,1.812,0,0,1-1.968-1.9,1.806,1.806,0,0,1,1.968-1.921" transform="translate(-17.238 254.726)"/>
      <g id="Group_337" data-name="Group 337" transform="translate(277.127 13.309)">
        <path id="Path_308" data-name="Path 308" class="cls-4" d="M.1.21V-3.346H3.539V.21H6.692V2.984H3.539V7.749c0,1.256.734,1.684,1.517,1.684a4.768,4.768,0,0,0,2.015-.5v2.915A7.344,7.344,0,0,1,4.06,12.4,3.606,3.606,0,0,1,.1,9.03C.078,8.65.031,8.248.031,7.82V2.984H-1.606V.21Z" transform="translate(1.606 3.346)"/>
      </g>
      <g id="Group_338" data-name="Group 338" transform="translate(286.822 16.865)">
        <path id="Path_309" data-name="Path 309" class="cls-4" d="M.028.829a3.811,3.811,0,0,0,1.4.237C2.991,1.066,3.8.023,4.438-1.329L-.446-13.183H3.442L4.816-9.058c.5,1.447,1,2.916,1.4,4.41.307-.663,1.09-3.532,1.422-4.41l1.375-4.125h3.841L8.254-1.424C6.9,2.085,5.124,3.84,2.636,4.124a6.342,6.342,0,0,1-1.494.023A4.145,4.145,0,0,1,.028,3.934Z" transform="translate(0.446 13.183)"/>
      </g>
    </g>
  </g>
</svg>
