<svg xmlns="http://www.w3.org/2000/svg" xmlns:xlink="http://www.w3.org/1999/xlink" width="304.737" height="41.124" viewBox="0 0 304.737 41.124">
  <defs>
    <style>
      .cls-1 {
        fill: none;
      }

      .cls-2 {
        fill: #0d55a1;
      }

      .cls-3 {
        clip-path: url(#clip-path);
      }
    </style>
    <clipPath id="clip-path">
      <path id="Path_333" data-name="Path 333" class="cls-1" d="M33.271-159.018H338.008v-41.124H33.271Z" transform="translate(-33.271 200.142)"/>
    </clipPath>
  </defs>
  <g id="Group_5869" data-name="Group 5869" transform="translate(-703.797 -2599.334)">
    <g id="Group_340" data-name="Group 340" transform="translate(706.627 2602.363)">
      <path id="Path_311" data-name="Path 311" class="cls-2" d="M.716.3l-12.11-5V9.6H-1.87V5.036H3.3V9.6h9.523V-4.7Z" transform="translate(11.394 4.703)"/>
    </g>
    <g id="Group_341" data-name="Group 341" transform="translate(706.627 2621.841)">
      <path id="Path_312" data-name="Path 312" class="cls-2" d="M.869,0V4.568H-4.3V0h-9.524V14.308l12.11-5,12.11,5V0Z" transform="translate(13.827)"/>
    </g>
    <g id="Group_359" data-name="Group 359" class="cls-3" transform="translate(703.797 2599.334)">
      <g id="Group_342" data-name="Group 342" transform="translate(41.839 11.39)">
        <path id="Path_313" data-name="Path 313" class="cls-2" d="M.259.5l-.9-.782v9.6H-4.126V-8.008h.071L4.077.2l8.132-8.2h.071V9.323H8.8v-9.6L7.894.5C6.636,1.879,5.357,3.253,4.077,4.6,2.8,3.253,1.54,1.879.259.5" transform="translate(4.126 8.008)"/>
      </g>
      <path id="Path_314" data-name="Path 314" class="cls-2" d="M95.383-172.1H91.827v-11.854h3.556Zm0-11.854-1.778-5.311a1.818,1.818,0,0,1,1.967,1.921,1.824,1.824,0,0,1-1.967,1.9,1.811,1.811,0,0,1-1.967-1.9,1.806,1.806,0,0,1,1.967-1.921" transform="translate(-29.603 200.825)"/>
      <g id="Group_343" data-name="Group 343" transform="translate(68.672 11.65)">
        <path id="Path_315" data-name="Path 315" class="cls-2" d="M.2.659C.2,2.6,1.383,3.93,3.018,3.93A2.946,2.946,0,0,0,5.864.659,2.946,2.946,0,0,0,3.018-2.613C1.383-2.613.2-1.309.2.659M9.515,6.585H6.29l-.07-1.09a3.108,3.108,0,0,1,.047-.782H6.22A4.328,4.328,0,0,1,2.379,6.918C-.68,6.918-3.145,4.547-3.145.659-3.145-3.253-.68-5.6,2.283-5.6A4.525,4.525,0,0,1,6.006-3.87h.047a4.846,4.846,0,0,1-.071-.971v-5.643H9.515Z" transform="translate(3.145 10.484)"/>
      </g>
      <g id="Group_344" data-name="Group 344" transform="translate(83.179 16.866)">
        <path id="Path_316" data-name="Path 316" class="cls-2" d="M.709.235c.4,1.162.759,2.442,1.018,3.367.308-.688.759-2.348,1.139-3.39L4.218-3.747h3.7l-4.955,12H.662l-2.347-6.5-2.323,6.5H-6.332l-4.955-12h3.7c.852,2.513,1.873,5.31,2.465,7.35l2.395-7.278H-.643Z" transform="translate(11.287 3.747)"/>
      </g>
      <g id="Group_345" data-name="Group 345" transform="translate(103.28 16.534)">
        <path id="Path_317" data-name="Path 317" class="cls-2" d="M.355.165A2.337,2.337,0,0,0-1.969,2.537h4.48A2.11,2.11,0,0,0,.355.165M5.9,2.916a13.544,13.544,0,0,1-.095,1.447H-1.969C-1.827,5.974-.594,6.9,1.326,6.9a9.884,9.884,0,0,0,4.1-.877V9.033a10.384,10.384,0,0,1-4.433.853c-4.078,0-6.639-2.632-6.639-6.259A6.013,6.013,0,0,1,.378-2.632,5.251,5.251,0,0,1,5.9,2.916" transform="translate(5.644 2.632)"/>
      </g>
      <g id="Group_346" data-name="Group 346" transform="translate(116.91 16.535)">
        <path id="Path_318" data-name="Path 318" class="cls-2" d="M.223.442C-1.982-.175-3.547-1.1-3.547-3.4c0-2.2,1.755-3.626,4.505-3.626a10.176,10.176,0,0,1,3.84.734v3.034a8.939,8.939,0,0,0-3.011-.877A4.175,4.175,0,0,0,.7-4.087c-.5.1-1,.333-1,.855,0,.592.593.9,1.85,1.28,2.7.759,3.981,1.707,3.981,3.841,0,2.276-1.872,3.6-4.884,3.6A10.015,10.015,0,0,1-3.38,4.709V1.6A9.843,9.843,0,0,0,.6,2.694c.878,0,1.684-.237,1.684-.948,0-.64-.711-.9-2.063-1.3" transform="translate(3.547 7.026)"/>
      </g>
      <g id="Group_347" data-name="Group 347" transform="translate(127.316 13.31)">
        <path id="Path_319" data-name="Path 319" class="cls-2" d="M.1.21V-3.346H3.539V.21H6.692V2.984H3.539V7.749c0,1.256.734,1.684,1.517,1.684a4.772,4.772,0,0,0,2.015-.5v2.915A7.348,7.348,0,0,1,4.06,12.4C2.187,12.4.361,11.519.1,9.03.078,8.65.031,8.248.031,7.82V2.984H-1.606V.21Z" transform="translate(1.606 3.346)"/>
      </g>
      <g id="Group_348" data-name="Group 348" transform="translate(137.556 16.534)">
        <path id="Path_320" data-name="Path 320" class="cls-2" d="M.355.165A2.337,2.337,0,0,0-1.969,2.537H2.512A2.11,2.11,0,0,0,.355.165M5.9,2.916a13.544,13.544,0,0,1-.095,1.447H-1.969C-1.826,5.974-.594,6.9,1.326,6.9a9.879,9.879,0,0,0,4.1-.877V9.033a10.384,10.384,0,0,1-4.433.853c-4.077,0-6.639-2.632-6.639-6.259A6.013,6.013,0,0,1,.378-2.632,5.25,5.25,0,0,1,5.9,2.916" transform="translate(5.644 2.632)"/>
      </g>
      <g id="Group_349" data-name="Group 349" transform="translate(152.017 16.535)">
        <path id="Path_321" data-name="Path 321" class="cls-2" d="M0,.02H3.225L3.3,1.181a6.582,6.582,0,0,0,.023.782A4.135,4.135,0,0,1,6.828-.312a3.236,3.236,0,0,1,.759.07V3.22A1.937,1.937,0,0,0,6.8,3.077,3.482,3.482,0,0,0,3.532,6.824v5.05H0Z" transform="translate(0 0.312)"/>
      </g>
      <g id="Group_350" data-name="Group 350" transform="translate(162.114 16.535)">
        <path id="Path_322" data-name="Path 322" class="cls-2" d="M.192.02.287,1.37a2.6,2.6,0,0,1-.095.83H.24A4.708,4.708,0,0,1,4.318-.312C7-.312,8.443,1.324,8.443,4.453v7.421H4.887V5.046c0-1.162-.333-2.134-1.612-2.134A2.8,2.8,0,0,0,.5,5.97v5.9H-3.056V.02Z" transform="translate(3.056 0.312)"/>
      </g>
      <g id="Group_351" data-name="Group 351" transform="translate(183.685 11.65)">
        <path id="Path_323" data-name="Path 323" class="cls-2" d="M.844.642c0,3.982-2.632,6.544-7.136,6.544-4.481,0-7.136-2.561-7.136-6.544V-10.216h3.651V.286A3.213,3.213,0,0,0-6.292,3.842,3.2,3.2,0,0,0-2.808.286v-10.5H.844Z" transform="translate(13.428 10.216)"/>
      </g>
      <g id="Group_352" data-name="Group 352" transform="translate(201.581 16.535)">
        <path id="Path_324" data-name="Path 324" class="cls-2" d="M.192.02.287,1.37a2.6,2.6,0,0,1-.095.83H.24A4.708,4.708,0,0,1,4.318-.312C7-.312,8.443,1.324,8.443,4.453v7.421H4.887V5.046c0-1.162-.333-2.134-1.612-2.134A2.8,2.8,0,0,0,.5,5.97v5.9H-3.056V.02Z" transform="translate(3.056 0.312)"/>
      </g>
      <path id="Path_325" data-name="Path 325" class="cls-2" d="M240.662-172.1h-3.556v-11.854h3.556Zm0-11.854-1.778-5.311a1.817,1.817,0,0,1,1.967,1.921,1.823,1.823,0,0,1-1.967,1.9,1.812,1.812,0,0,1-1.967-1.9,1.806,1.806,0,0,1,1.967-1.921" transform="translate(-20.472 200.825)"/>
      <g id="Group_353" data-name="Group 353" transform="translate(221.991 16.866)">
        <path id="Path_326" data-name="Path 326" class="cls-2" d="M.753,0-4.486,12H-6.715L-11.978,0h3.7c.948,2.418,2.085,5.169,2.655,7.136.26-.64.759-2.323,1.185-3.39L-2.946,0Z" transform="translate(11.978)"/>
      </g>
      <g id="Group_354" data-name="Group 354" transform="translate(235.598 16.534)">
        <path id="Path_327" data-name="Path 327" class="cls-2" d="M.355.165A2.337,2.337,0,0,0-1.969,2.537h4.48A2.109,2.109,0,0,0,.355.165M5.9,2.916a13.544,13.544,0,0,1-.095,1.447H-1.969C-1.827,5.974-.594,6.9,1.326,6.9a9.879,9.879,0,0,0,4.1-.877V9.033a10.384,10.384,0,0,1-4.433.853c-4.078,0-6.639-2.632-6.639-6.259A6.013,6.013,0,0,1,.378-2.632,5.25,5.25,0,0,1,5.9,2.916" transform="translate(5.644 2.632)"/>
      </g>
      <g id="Group_355" data-name="Group 355" transform="translate(250.057 16.535)">
        <path id="Path_328" data-name="Path 328" class="cls-2" d="M0,.02H3.225L3.3,1.181a6.582,6.582,0,0,0,.023.782A4.137,4.137,0,0,1,6.828-.312a3.227,3.227,0,0,1,.759.07V3.22A1.93,1.93,0,0,0,6.8,3.077,3.482,3.482,0,0,0,3.533,6.824v5.05H0Z" transform="translate(0 0.312)"/>
      </g>
      <g id="Group_356" data-name="Group 356" transform="translate(259.373 16.535)">
        <path id="Path_329" data-name="Path 329" class="cls-2" d="M.223.442C-1.981-.175-3.546-1.1-3.546-3.4c0-2.2,1.754-3.626,4.5-3.626a10.176,10.176,0,0,1,3.84.734v3.034a8.932,8.932,0,0,0-3.011-.877A4.177,4.177,0,0,0,.7-4.087c-.5.1-.995.333-.995.855,0,.592.592.9,1.849,1.28,2.7.759,3.982,1.707,3.982,3.841,0,2.276-1.873,3.6-4.884,3.6a10.017,10.017,0,0,1-4.03-.782V1.6A9.848,9.848,0,0,0,.6,2.694c.878,0,1.684-.237,1.684-.948,0-.64-.711-.9-2.063-1.3" transform="translate(3.546 7.026)"/>
      </g>
      <path id="Path_330" data-name="Path 330" class="cls-2" d="M292.115-172.1h-3.557v-11.854h3.557Zm0-11.854-1.778-5.311a1.818,1.818,0,0,1,1.967,1.921,1.824,1.824,0,0,1-1.967,1.9,1.812,1.812,0,0,1-1.968-1.9,1.807,1.807,0,0,1,1.968-1.921" transform="translate(-17.238 200.825)"/>
      <g id="Group_357" data-name="Group 357" transform="translate(277.126 13.31)">
        <path id="Path_331" data-name="Path 331" class="cls-2" d="M.1.21V-3.346H3.538V.21H6.692V2.984H3.538V7.749c0,1.256.734,1.684,1.518,1.684a4.772,4.772,0,0,0,2.015-.5v2.915a7.35,7.35,0,0,1-3.012.545A3.6,3.6,0,0,1,.1,9.03C.077,8.65.03,8.248.03,7.82V2.984H-1.607V.21Z" transform="translate(1.607 3.346)"/>
      </g>
      <g id="Group_358" data-name="Group 358" transform="translate(286.822 16.866)">
        <path id="Path_332" data-name="Path 332" class="cls-2" d="M.028.829a3.811,3.811,0,0,0,1.4.237C2.991,1.066,3.8.023,4.438-1.329L-.446-13.183H3.442L4.817-9.058c.5,1.447,1,2.916,1.4,4.41.308-.663,1.09-3.532,1.422-4.41l1.375-4.125h3.841L8.254-1.424C6.9,2.085,5.124,3.84,2.636,4.124a6.333,6.333,0,0,1-1.493.023A4.188,4.188,0,0,1,.028,3.934Z" transform="translate(0.446 13.183)"/>
      </g>
    </g>
  </g>
</svg>
