<svg xmlns="http://www.w3.org/2000/svg" xmlns:xlink="http://www.w3.org/1999/xlink" width="304.737" height="41.124" viewBox="0 0 304.737 41.124">
  <defs>
    <style>
      .cls-1 {
        fill: none;
      }

      .cls-2 {
        fill: #42454a;
      }

      .cls-3 {
        clip-path: url(#clip-path);
      }
    </style>
    <clipPath id="clip-path">
      <path id="Path_356" data-name="Path 356" class="cls-1" d="M33.271-105.116H338.008V-146.24H33.271Z" transform="translate(-33.271 146.24)"/>
    </clipPath>
  </defs>
  <g id="Group_5870" data-name="Group 5870" transform="translate(-703.797 -2656.624)">
    <g id="Group_360" data-name="Group 360" transform="translate(706.627 2659.652)">
      <path id="Path_334" data-name="Path 334" class="cls-2" d="M.716.3l-12.11-5V9.6H-1.87V5.036H3.3V9.6h9.524V-4.7Z" transform="translate(11.394 4.703)"/>
    </g>
    <g id="Group_361" data-name="Group 361" transform="translate(706.629 2679.13)">
      <path id="Path_335" data-name="Path 335" class="cls-2" d="M.869,0V4.568H-4.3V0h-9.523V14.308l12.109-5,12.11,5V0Z" transform="translate(13.826)"/>
    </g>
    <g id="Group_379" data-name="Group 379" class="cls-3" transform="translate(703.797 2656.624)">
      <g id="Group_362" data-name="Group 362" transform="translate(41.839 11.389)">
        <path id="Path_336" data-name="Path 336" class="cls-2" d="M.259.5l-.9-.782v9.6H-4.126V-8.008h.071L4.077.2l8.132-8.2h.07V9.323H8.8v-9.6L7.894.5C6.636,1.879,5.357,3.253,4.077,4.6,2.8,3.253,1.54,1.879.259.5" transform="translate(4.126 8.008)"/>
      </g>
      <path id="Path_337" data-name="Path 337" class="cls-2" d="M95.384-118.2H91.826v-11.854h3.557Zm0-11.853-1.778-5.311a1.817,1.817,0,0,1,1.967,1.921,1.824,1.824,0,0,1-1.967,1.9,1.812,1.812,0,0,1-1.968-1.9,1.806,1.806,0,0,1,1.968-1.921" transform="translate(-29.603 146.923)"/>
      <g id="Group_363" data-name="Group 363" transform="translate(68.671 11.65)">
        <path id="Path_338" data-name="Path 338" class="cls-2" d="M.2.659C.2,2.6,1.384,3.93,3.018,3.93A2.945,2.945,0,0,0,5.864.659,2.945,2.945,0,0,0,3.018-2.613C1.384-2.613.2-1.309.2.659M9.515,6.585H6.291L6.22,5.495a3.134,3.134,0,0,1,.048-.782H6.22A4.327,4.327,0,0,1,2.38,6.918c-3.06,0-5.525-2.371-5.525-6.259C-3.145-3.253-.68-5.6,2.284-5.6A4.523,4.523,0,0,1,6.006-3.87h.048a4.846,4.846,0,0,1-.071-.971v-5.643H9.515Z" transform="translate(3.145 10.484)"/>
      </g>
      <g id="Group_364" data-name="Group 364" transform="translate(83.178 16.866)">
        <path id="Path_339" data-name="Path 339" class="cls-2" d="M.709.235c.4,1.162.759,2.442,1.019,3.367.308-.688.759-2.348,1.138-3.39L4.219-3.747h3.7l-4.954,12H.663l-2.347-6.5-2.324,6.5H-6.332l-4.955-12h3.7c.853,2.513,1.873,5.31,2.465,7.35l2.4-7.278H-.643Z" transform="translate(11.287 3.747)"/>
      </g>
      <g id="Group_365" data-name="Group 365" transform="translate(103.279 16.534)">
        <path id="Path_340" data-name="Path 340" class="cls-2" d="M.355.165A2.337,2.337,0,0,0-1.969,2.537H2.512A2.11,2.11,0,0,0,.355.165M5.9,2.916a13.544,13.544,0,0,1-.095,1.447H-1.969C-1.826,5.974-.594,6.9,1.327,6.9a9.884,9.884,0,0,0,4.1-.877V9.033a10.394,10.394,0,0,1-4.434.853c-4.077,0-6.639-2.632-6.639-6.259A6.014,6.014,0,0,1,.379-2.632,5.25,5.25,0,0,1,5.9,2.916" transform="translate(5.644 2.632)"/>
      </g>
      <g id="Group_366" data-name="Group 366" transform="translate(116.91 16.534)">
        <path id="Path_341" data-name="Path 341" class="cls-2" d="M.223.442C-1.982-.175-3.547-1.1-3.547-3.4c0-2.2,1.755-3.626,4.505-3.626a10.181,10.181,0,0,1,3.84.734v3.034a8.947,8.947,0,0,0-3.011-.877A4.173,4.173,0,0,0,.7-4.087c-.5.1-1,.333-1,.855,0,.592.592.9,1.849,1.28,2.7.759,3.982,1.707,3.982,3.841,0,2.276-1.873,3.6-4.884,3.6a10.025,10.025,0,0,1-4.03-.782V1.6A9.836,9.836,0,0,0,.6,2.694c.879,0,1.685-.237,1.685-.948,0-.64-.712-.9-2.063-1.3" transform="translate(3.547 7.026)"/>
      </g>
      <g id="Group_367" data-name="Group 367" transform="translate(127.316 13.31)">
        <path id="Path_342" data-name="Path 342" class="cls-2" d="M.1.21V-3.346H3.539V.21H6.692V2.984H3.539V7.749c0,1.256.734,1.684,1.517,1.684a4.772,4.772,0,0,0,2.015-.5v2.915A7.348,7.348,0,0,1,4.06,12.4C2.187,12.4.361,11.519.1,9.03.078,8.65.03,8.248.03,7.82V2.984H-1.606V.21Z" transform="translate(1.606 3.346)"/>
      </g>
      <g id="Group_368" data-name="Group 368" transform="translate(137.556 16.534)">
        <path id="Path_343" data-name="Path 343" class="cls-2" d="M.355.165A2.337,2.337,0,0,0-1.969,2.537h4.48A2.109,2.109,0,0,0,.355.165M5.9,2.916a13.544,13.544,0,0,1-.095,1.447H-1.969C-1.827,5.974-.594,6.9,1.326,6.9a9.879,9.879,0,0,0,4.1-.877V9.033a10.384,10.384,0,0,1-4.433.853c-4.078,0-6.639-2.632-6.639-6.259A6.013,6.013,0,0,1,.378-2.632,5.25,5.25,0,0,1,5.9,2.916" transform="translate(5.644 2.632)"/>
      </g>
      <g id="Group_369" data-name="Group 369" transform="translate(152.016 16.534)">
        <path id="Path_344" data-name="Path 344" class="cls-2" d="M0,.02H3.225L3.3,1.181a6.582,6.582,0,0,0,.023.782A4.138,4.138,0,0,1,6.828-.312a3.227,3.227,0,0,1,.759.07V3.22A1.93,1.93,0,0,0,6.8,3.077,3.482,3.482,0,0,0,3.533,6.824v5.05H0Z" transform="translate(0 0.312)"/>
      </g>
      <g id="Group_370" data-name="Group 370" transform="translate(162.114 16.534)">
        <path id="Path_345" data-name="Path 345" class="cls-2" d="M.192.02.287,1.37a2.668,2.668,0,0,1-.095.83H.24A4.708,4.708,0,0,1,4.317-.312C7-.312,8.443,1.324,8.443,4.453v7.421H4.887V5.046c0-1.162-.333-2.134-1.612-2.134A2.8,2.8,0,0,0,.5,5.97v5.9H-3.056V.02Z" transform="translate(3.056 0.312)"/>
      </g>
      <g id="Group_371" data-name="Group 371" transform="translate(183.684 11.65)">
        <path id="Path_346" data-name="Path 346" class="cls-2" d="M.844.642c0,3.982-2.632,6.544-7.136,6.544-4.481,0-7.137-2.561-7.137-6.544V-10.216h3.652V.286A3.213,3.213,0,0,0-6.292,3.842,3.2,3.2,0,0,0-2.808.286v-10.5H.844Z" transform="translate(13.429 10.216)"/>
      </g>
      <g id="Group_372" data-name="Group 372" transform="translate(201.581 16.534)">
        <path id="Path_347" data-name="Path 347" class="cls-2" d="M.192.02.287,1.37a2.668,2.668,0,0,1-.095.83H.24A4.708,4.708,0,0,1,4.317-.312C7-.312,8.443,1.324,8.443,4.453v7.421H4.887V5.046c0-1.162-.333-2.134-1.612-2.134A2.8,2.8,0,0,0,.5,5.97v5.9H-3.056V.02Z" transform="translate(3.056 0.312)"/>
      </g>
      <path id="Path_348" data-name="Path 348" class="cls-2" d="M240.662-118.2h-3.557v-11.854h3.557Zm0-11.853-1.778-5.311a1.817,1.817,0,0,1,1.967,1.921,1.823,1.823,0,0,1-1.967,1.9,1.812,1.812,0,0,1-1.967-1.9,1.806,1.806,0,0,1,1.967-1.921" transform="translate(-20.472 146.923)"/>
      <g id="Group_373" data-name="Group 373" transform="translate(221.99 16.866)">
        <path id="Path_349" data-name="Path 349" class="cls-2" d="M.753,0l-5.24,12H-6.716L-11.979,0h3.7c.948,2.418,2.086,5.169,2.656,7.136.26-.64.759-2.323,1.185-3.39L-2.946,0Z" transform="translate(11.979)"/>
      </g>
      <g id="Group_374" data-name="Group 374" transform="translate(235.598 16.534)">
        <path id="Path_350" data-name="Path 350" class="cls-2" d="M.355.165A2.337,2.337,0,0,0-1.969,2.537H2.512A2.11,2.11,0,0,0,.355.165M5.9,2.916a13.26,13.26,0,0,1-.095,1.447H-1.969C-1.826,5.974-.593,6.9,1.327,6.9a9.884,9.884,0,0,0,4.1-.877V9.033a10.39,10.39,0,0,1-4.434.853c-4.077,0-6.637-2.632-6.637-6.259A6.013,6.013,0,0,1,.379-2.632,5.25,5.25,0,0,1,5.9,2.916" transform="translate(5.643 2.632)"/>
      </g>
      <g id="Group_375" data-name="Group 375" transform="translate(250.057 16.534)">
        <path id="Path_351" data-name="Path 351" class="cls-2" d="M0,.02H3.225L3.3,1.181a6.582,6.582,0,0,0,.023.782A4.135,4.135,0,0,1,6.828-.312a3.227,3.227,0,0,1,.759.07V3.22A1.93,1.93,0,0,0,6.8,3.077,3.481,3.481,0,0,0,3.533,6.824v5.05H0Z" transform="translate(0 0.312)"/>
      </g>
      <g id="Group_376" data-name="Group 376" transform="translate(259.372 16.534)">
        <path id="Path_352" data-name="Path 352" class="cls-2" d="M.223.442C-1.982-.175-3.547-1.1-3.547-3.4c0-2.2,1.755-3.626,4.505-3.626a10.176,10.176,0,0,1,3.84.734v3.034a8.939,8.939,0,0,0-3.011-.877A4.177,4.177,0,0,0,.7-4.087c-.5.1-.995.333-.995.855,0,.592.592.9,1.849,1.28,2.7.759,3.982,1.707,3.982,3.841,0,2.276-1.873,3.6-4.885,3.6A10.015,10.015,0,0,1-3.38,4.709V1.6A9.831,9.831,0,0,0,.6,2.694c.878,0,1.684-.237,1.684-.948,0-.64-.711-.9-2.063-1.3" transform="translate(3.547 7.026)"/>
      </g>
      <path id="Path_353" data-name="Path 353" class="cls-2" d="M292.115-118.2h-3.557v-11.854h3.557Zm0-11.853-1.778-5.311a1.817,1.817,0,0,1,1.967,1.921,1.824,1.824,0,0,1-1.967,1.9,1.812,1.812,0,0,1-1.968-1.9,1.806,1.806,0,0,1,1.968-1.921" transform="translate(-17.238 146.923)"/>
      <g id="Group_377" data-name="Group 377" transform="translate(277.127 13.31)">
        <path id="Path_354" data-name="Path 354" class="cls-2" d="M.1.21V-3.346H3.539V.21H6.692V2.984H3.539V7.749c0,1.256.734,1.684,1.517,1.684a4.768,4.768,0,0,0,2.015-.5v2.915A7.344,7.344,0,0,1,4.06,12.4,3.606,3.606,0,0,1,.1,9.03C.078,8.65.031,8.248.031,7.82V2.984H-1.606V.21Z" transform="translate(1.606 3.346)"/>
      </g>
      <g id="Group_378" data-name="Group 378" transform="translate(286.822 16.866)">
        <path id="Path_355" data-name="Path 355" class="cls-2" d="M.028.829a3.811,3.811,0,0,0,1.4.237C2.991,1.066,3.8.023,4.438-1.329L-.446-13.183H3.442L4.816-9.058c.5,1.447,1,2.916,1.4,4.41.307-.663,1.09-3.532,1.422-4.41l1.375-4.125h3.841L8.254-1.424C6.9,2.085,5.124,3.84,2.636,4.124a6.342,6.342,0,0,1-1.494.023A4.187,4.187,0,0,1,.028,3.934Z" transform="translate(0.446 13.183)"/>
      </g>
    </g>
  </g>
</svg>
