<svg xmlns="http://www.w3.org/2000/svg" xmlns:xlink="http://www.w3.org/1999/xlink" width="337.413" height="52.563" viewBox="0 0 337.413 52.563">
  <defs>
    <style>
      .cls-1 {
        fill: none;
      }

      .cls-2 {
        fill: #0d55a0;
      }

      .cls-3 {
        fill: #fff;
      }

      .cls-4 {
        clip-path: url(#clip-path);
      }
    </style>
    <clipPath id="clip-path">
      <path id="Path_402" data-name="Path 402" class="cls-1" d="M33.271-3.648H338.008V-44.772H33.271Z" transform="translate(-33.271 44.772)"/>
    </clipPath>
  </defs>
  <g id="Group_5872" data-name="Group 5872" transform="translate(-684.566 -2758.599)">
    <path id="Path_3720" data-name="Path 3720" class="cls-2" d="M15.177-45.211H352.59V-97.774H15.177Z" transform="translate(669.389 2856.373)"/>
    <g id="Group_400" data-name="Group 400" transform="translate(706.627 2767.497)">
      <path id="Path_380" data-name="Path 380" class="cls-3" d="M.716.3l-12.11-5V9.6H-1.87V5.036H3.3V9.6h9.524V-4.7Z" transform="translate(11.394 4.703)"/>
    </g>
    <g id="Group_401" data-name="Group 401" transform="translate(706.629 2786.975)">
      <path id="Path_381" data-name="Path 381" class="cls-3" d="M.869,0V4.568H-4.3V0h-9.523V14.308l12.109-5,12.11,5V0Z" transform="translate(13.826)"/>
    </g>
    <g id="Group_419" data-name="Group 419" class="cls-4" transform="translate(703.797 2764.469)">
      <g id="Group_402" data-name="Group 402" transform="translate(41.839 11.389)">
        <path id="Path_382" data-name="Path 382" class="cls-3" d="M.259.5l-.9-.782v9.6H-4.126V-8.008h.071L4.077.2l8.132-8.2h.07V9.323H8.8v-9.6L7.894.5C6.636,1.879,5.357,3.253,4.077,4.6,2.8,3.253,1.54,1.879.259.5" transform="translate(4.126 8.008)"/>
      </g>
      <path id="Path_383" data-name="Path 383" class="cls-3" d="M95.383-16.736H91.826V-28.59h3.557Zm0-11.854M93.605-33.9a1.818,1.818,0,0,1,1.967,1.921,1.824,1.824,0,0,1-1.967,1.9,1.811,1.811,0,0,1-1.967-1.9A1.806,1.806,0,0,1,93.605-33.9" transform="translate(-29.603 45.455)"/>
      <g id="Group_403" data-name="Group 403" transform="translate(68.671 11.65)">
        <path id="Path_384" data-name="Path 384" class="cls-3" d="M.2.659C.2,2.6,1.384,3.93,3.018,3.93A2.945,2.945,0,0,0,5.864.659,2.945,2.945,0,0,0,3.018-2.613C1.384-2.613.2-1.309.2.659M9.515,6.585H6.291L6.22,5.495a3.134,3.134,0,0,1,.048-.782H6.22A4.326,4.326,0,0,1,2.38,6.918c-3.06,0-5.525-2.371-5.525-6.259C-3.145-3.253-.68-5.6,2.284-5.6A4.519,4.519,0,0,1,6.006-3.869h.048a4.866,4.866,0,0,1-.071-.973v-5.643H9.515Z" transform="translate(3.145 10.484)"/>
      </g>
      <g id="Group_404" data-name="Group 404" transform="translate(83.178 16.865)">
        <path id="Path_385" data-name="Path 385" class="cls-3" d="M.709.235c.4,1.163.759,2.442,1.019,3.367.308-.688.759-2.348,1.138-3.39L4.219-3.747h3.7l-4.954,12H.663l-2.347-6.5-2.324,6.5H-6.332l-4.955-12h3.7c.853,2.514,1.873,5.311,2.465,7.35l2.4-7.278H-.642Z" transform="translate(11.287 3.747)"/>
      </g>
      <g id="Group_405" data-name="Group 405" transform="translate(103.279 16.533)">
        <path id="Path_386" data-name="Path 386" class="cls-3" d="M.355.165A2.337,2.337,0,0,0-1.969,2.537H2.512A2.11,2.11,0,0,0,.355.165M5.9,2.916a13.522,13.522,0,0,1-.095,1.447H-1.969C-1.826,5.974-.594,6.9,1.327,6.9a9.884,9.884,0,0,0,4.1-.877V9.033a10.39,10.39,0,0,1-4.434.853c-4.077,0-6.639-2.632-6.639-6.259A6.014,6.014,0,0,1,.379-2.632,5.25,5.25,0,0,1,5.9,2.916" transform="translate(5.644 2.632)"/>
      </g>
      <g id="Group_406" data-name="Group 406" transform="translate(116.91 16.533)">
        <path id="Path_387" data-name="Path 387" class="cls-3" d="M.223.442C-1.982-.175-3.547-1.1-3.547-3.4c0-2.205,1.755-3.629,4.505-3.629a10.177,10.177,0,0,1,3.84.735v3.034a8.939,8.939,0,0,0-3.011-.877A4.173,4.173,0,0,0,.7-4.087c-.5.1-1,.333-1,.853,0,.593.592.9,1.849,1.281,2.7.758,3.982,1.707,3.982,3.841,0,2.276-1.873,3.6-4.884,3.6A10.015,10.015,0,0,1-3.38,4.709V1.6A9.843,9.843,0,0,0,.6,2.694c.879,0,1.685-.237,1.685-.948,0-.64-.711-.9-2.063-1.3" transform="translate(3.547 7.027)"/>
      </g>
      <g id="Group_407" data-name="Group 407" transform="translate(127.316 13.309)">
        <path id="Path_388" data-name="Path 388" class="cls-3" d="M.1.21V-3.346H3.539V.21H6.692V2.984H3.539V7.749c0,1.256.734,1.684,1.517,1.684a4.772,4.772,0,0,0,2.015-.5v2.915A7.348,7.348,0,0,1,4.06,12.4C2.187,12.4.361,11.519.1,9.03.078,8.65.03,8.248.03,7.82V2.984H-1.606V.21Z" transform="translate(1.606 3.346)"/>
      </g>
      <g id="Group_408" data-name="Group 408" transform="translate(137.556 16.533)">
        <path id="Path_389" data-name="Path 389" class="cls-3" d="M.355.165A2.337,2.337,0,0,0-1.969,2.537H2.512A2.11,2.11,0,0,0,.355.165M5.9,2.916a13.522,13.522,0,0,1-.095,1.447H-1.969C-1.827,5.974-.594,6.9,1.326,6.9a9.879,9.879,0,0,0,4.1-.877V9.033a10.384,10.384,0,0,1-4.433.853c-4.078,0-6.639-2.632-6.639-6.259A6.013,6.013,0,0,1,.378-2.632,5.25,5.25,0,0,1,5.9,2.916" transform="translate(5.644 2.632)"/>
      </g>
      <g id="Group_409" data-name="Group 409" transform="translate(152.017 16.534)">
        <path id="Path_390" data-name="Path 390" class="cls-3" d="M0,.02H3.225L3.3,1.181a6.582,6.582,0,0,0,.023.782A4.137,4.137,0,0,1,6.828-.312a3.236,3.236,0,0,1,.759.07V3.22A1.943,1.943,0,0,0,6.8,3.077,3.482,3.482,0,0,0,3.532,6.824v5.05H0Z" transform="translate(0 0.312)"/>
      </g>
      <g id="Group_410" data-name="Group 410" transform="translate(162.114 16.534)">
        <path id="Path_391" data-name="Path 391" class="cls-3" d="M.192.02.287,1.372A2.632,2.632,0,0,1,.192,2.2H.24A4.708,4.708,0,0,1,4.317-.312C7-.312,8.443,1.324,8.443,4.453v7.421H4.887V5.046c0-1.162-.333-2.133-1.612-2.133A2.8,2.8,0,0,0,.5,5.97v5.9H-3.056V.02Z" transform="translate(3.056 0.312)"/>
      </g>
      <g id="Group_411" data-name="Group 411" transform="translate(183.684 11.65)">
        <path id="Path_392" data-name="Path 392" class="cls-3" d="M.844.642c0,3.982-2.632,6.543-7.136,6.543-4.481,0-7.137-2.56-7.137-6.543V-10.216h3.652V.286A3.213,3.213,0,0,0-6.292,3.842,3.2,3.2,0,0,0-2.808.286v-10.5H.844Z" transform="translate(13.429 10.216)"/>
      </g>
      <g id="Group_412" data-name="Group 412" transform="translate(201.581 16.534)">
        <path id="Path_393" data-name="Path 393" class="cls-3" d="M.192.02.287,1.372A2.632,2.632,0,0,1,.192,2.2H.24A4.708,4.708,0,0,1,4.317-.312C7-.312,8.443,1.324,8.443,4.453v7.421H4.887V5.046c0-1.162-.333-2.133-1.612-2.133A2.8,2.8,0,0,0,.5,5.97v5.9H-3.056V.02Z" transform="translate(3.056 0.312)"/>
      </g>
      <path id="Path_394" data-name="Path 394" class="cls-3" d="M240.662-16.736h-3.557V-28.59h3.557Zm0-11.854M238.884-33.9a1.817,1.817,0,0,1,1.967,1.921,1.823,1.823,0,0,1-1.967,1.9,1.812,1.812,0,0,1-1.967-1.9,1.806,1.806,0,0,1,1.967-1.921" transform="translate(-20.472 45.455)"/>
      <g id="Group_413" data-name="Group 413" transform="translate(221.99 16.865)">
        <path id="Path_395" data-name="Path 395" class="cls-3" d="M.753,0-4.486,12h-2.23L-11.979,0h3.7c.948,2.418,2.085,5.169,2.655,7.136.26-.64.759-2.323,1.185-3.39L-2.946,0Z" transform="translate(11.979)"/>
      </g>
      <g id="Group_414" data-name="Group 414" transform="translate(235.598 16.533)">
        <path id="Path_396" data-name="Path 396" class="cls-3" d="M.355.165A2.337,2.337,0,0,0-1.969,2.537h4.48A2.109,2.109,0,0,0,.355.165M5.9,2.916a13.522,13.522,0,0,1-.095,1.447H-1.969C-1.827,5.974-.594,6.9,1.326,6.9a9.884,9.884,0,0,0,4.1-.877V9.033a10.384,10.384,0,0,1-4.433.853c-4.078,0-6.639-2.632-6.639-6.259A6.013,6.013,0,0,1,.378-2.632,5.25,5.25,0,0,1,5.9,2.916" transform="translate(5.644 2.632)"/>
      </g>
      <g id="Group_415" data-name="Group 415" transform="translate(250.057 16.534)">
        <path id="Path_397" data-name="Path 397" class="cls-3" d="M0,.02H3.225L3.3,1.181a6.582,6.582,0,0,0,.023.782A4.139,4.139,0,0,1,6.828-.312a3.227,3.227,0,0,1,.759.07V3.22A1.93,1.93,0,0,0,6.8,3.077,3.482,3.482,0,0,0,3.533,6.824v5.05H0Z" transform="translate(0 0.312)"/>
      </g>
      <g id="Group_416" data-name="Group 416" transform="translate(259.373 16.533)">
        <path id="Path_398" data-name="Path 398" class="cls-3" d="M.223.442C-1.983-.175-3.546-1.1-3.546-3.4c0-2.205,1.754-3.629,4.5-3.629a10.172,10.172,0,0,1,3.84.735v3.034a8.932,8.932,0,0,0-3.011-.877A4.177,4.177,0,0,0,.7-4.087c-.5.1-.995.333-.995.853,0,.593.592.9,1.849,1.281,2.7.758,3.982,1.707,3.982,3.841,0,2.276-1.873,3.6-4.885,3.6A10.015,10.015,0,0,1-3.38,4.709V1.6A9.848,9.848,0,0,0,.6,2.694c.878,0,1.684-.237,1.684-.948,0-.64-.711-.9-2.063-1.3" transform="translate(3.546 7.027)"/>
      </g>
      <path id="Path_399" data-name="Path 399" class="cls-3" d="M292.115-16.736h-3.557V-28.59h3.557Zm0-11.854M290.336-33.9A1.818,1.818,0,0,1,292.3-31.98a1.824,1.824,0,0,1-1.967,1.9,1.812,1.812,0,0,1-1.968-1.9,1.806,1.806,0,0,1,1.968-1.921" transform="translate(-17.238 45.455)"/>
      <g id="Group_417" data-name="Group 417" transform="translate(277.126 13.309)">
        <path id="Path_400" data-name="Path 400" class="cls-3" d="M.1.21V-3.346H3.538V.21H6.692V2.984H3.538V7.749c0,1.256.734,1.684,1.518,1.684a4.772,4.772,0,0,0,2.015-.5v2.915a7.35,7.35,0,0,1-3.012.545A3.6,3.6,0,0,1,.1,9.03C.077,8.65.03,8.248.03,7.82V2.984H-1.607V.21Z" transform="translate(1.607 3.346)"/>
      </g>
      <g id="Group_418" data-name="Group 418" transform="translate(286.822 16.865)">
        <path id="Path_401" data-name="Path 401" class="cls-3" d="M.028.829a3.811,3.811,0,0,0,1.4.237C2.991,1.066,3.8.023,4.438-1.329L-.446-13.183H3.442L4.817-9.058c.5,1.447,1,2.916,1.4,4.41.308-.663,1.09-3.533,1.422-4.41l1.375-4.125h3.841L8.254-1.424C6.9,2.085,5.124,3.84,2.636,4.124a6.333,6.333,0,0,1-1.493.023A4.145,4.145,0,0,1,.028,3.934Z" transform="translate(0.446 13.183)"/>
      </g>
    </g>
  </g>
</svg>
