<svg xmlns="http://www.w3.org/2000/svg" xmlns:xlink="http://www.w3.org/1999/xlink" width="117.027" height="33.792" viewBox="0 0 117.027 33.792">
  <defs>
    <style>
      .cls-1 {
        fill: none;
      }

      .cls-2 {
        fill: #cbaf8b;
      }

      .cls-3 {
        clip-path: url(#clip-path);
      }

      .cls-4 {
        fill: #0d55a1;
      }
    </style>
    <clipPath id="clip-path">
      <path id="Path_472" data-name="Path 472" class="cls-1" d="M8.193-18.64H125.22V-52.432H8.193Z" transform="translate(-8.193 52.432)"/>
    </clipPath>
  </defs>
  <g id="Group_5886" data-name="Group 5886" transform="translate(-685.34 -3431.066)">
    <g id="Group_489" data-name="Group 489" transform="translate(686.715 3434.841)">
      <path id="Path_467" data-name="Path 467" class="cls-2" d="M.123.051-8.56-3.534V6.726h6.829V3.45H1.978V6.726H8.807V-3.534Z" transform="translate(8.56 3.534)"/>
    </g>
    <g id="Group_490" data-name="Group 490" transform="translate(686.715 3448.808)">
      <path id="Path_468" data-name="Path 468" class="cls-2" d="M.15,0V3.276H-3.558V0h-6.83V10.259L-1.7,6.675l8.683,3.584V0Z" transform="translate(10.388)"/>
    </g>
    <g id="Group_494" data-name="Group 494" class="cls-3" transform="translate(685.34 3431.066)">
      <g id="Group_491" data-name="Group 491" transform="translate(29.133 4.197)">
        <path id="Path_469" data-name="Path 469" class="cls-4" d="M.086.167-1.159-.914V12.351H-5.973V-11.591h.1L5.36-.259,16.594-11.591h.1V12.351H11.878V-.914L10.633.167c-1.736,1.9-3.5,3.8-5.273,5.666C3.591,3.966,1.855,2.067.086.167" transform="translate(5.973 11.591)"/>
      </g>
      <g id="Group_492" data-name="Group 492" transform="translate(55.658 4.557)">
        <path id="Path_470" data-name="Path 470" class="cls-4" d="M.08,0l3.21,8.025c.786,1.965,1.474,3.831,1.966,5.338.359-.851,1.08-2.685,1.7-4.127l1.31-2.98L10.986.164h.2c2,4.487,4.487,9.858,5.7,13.2.85-2.1,3.831-9.76,5.207-13.363h5.633L17.143,23.942h-.228L12.3,13.4c-.426-.917-.852-1.9-1.211-2.817-.361.917-.787,1.9-1.18,2.817L5.255,23.942h-.23L-5.521,0Z" transform="translate(5.521)"/>
      </g>
      <g id="Group_493" data-name="Group 493" transform="translate(93.056 4.557)">
        <path id="Path_471" data-name="Path 471" class="cls-4" d="M.28.213c0,5.5-3.636,9.04-9.858,9.04-6.191,0-9.859-3.538-9.859-9.04v-15h5.045V-.278c0,3.079,1.735,4.913,4.814,4.913,3.111,0,4.814-1.834,4.814-4.913v-14.51H.28Z" transform="translate(19.437 14.788)"/>
      </g>
    </g>
  </g>
</svg>
