<svg xmlns="http://www.w3.org/2000/svg" xmlns:xlink="http://www.w3.org/1999/xlink" width="123.25" height="35.058" viewBox="0 0 123.25 35.058">
  <defs>
    <style>
      .cls-1 {
        fill: none;
      }

      .cls-2 {
        fill: #0d55a1;
      }

      .cls-3 {
        clip-path: url(#clip-path);
      }
    </style>
    <clipPath id="clip-path">
      <path id="Path_484" data-name="Path 484" class="cls-1" d="M186.375-77.7h123.25v-35.058H186.375Z" transform="translate(-186.375 112.757)"/>
    </clipPath>
  </defs>
  <g id="Group_5884" data-name="Group 5884" transform="translate(-866.09 -3349.872)">
    <g id="Group_501" data-name="Group 501" transform="translate(870.576 3355.789)">
      <path id="Path_479" data-name="Path 479" class="cls-2" d="M.123.051-8.56-3.534V6.726h6.829V3.45H1.978V6.726H8.807V-3.534Z" transform="translate(8.56 3.534)"/>
    </g>
    <g id="Group_502" data-name="Group 502" transform="translate(870.576 3369.757)">
      <path id="Path_480" data-name="Path 480" class="cls-2" d="M.15,0V3.276H-3.558V0h-6.83V10.259L-1.7,6.675l8.683,3.584V0Z" transform="translate(10.388)"/>
    </g>
    <g id="Group_506" data-name="Group 506" class="cls-3" transform="translate(866.09 3349.872)">
      <g id="Group_503" data-name="Group 503" transform="translate(32.244 6.34)">
        <path id="Path_481" data-name="Path 481" class="cls-2" d="M.086.167-1.158-.914V12.351H-5.973V-11.591h.1L5.36-.259,16.594-11.591h.1V12.351H11.878V-.914L10.633.167c-1.736,1.9-3.5,3.8-5.273,5.665C3.591,3.966,1.855,2.067.086.167" transform="translate(5.973 11.591)"/>
      </g>
      <g id="Group_504" data-name="Group 504" transform="translate(58.77 6.7)">
        <path id="Path_482" data-name="Path 482" class="cls-2" d="M.08,0l3.21,8.025c.786,1.965,1.474,3.831,1.966,5.338.359-.851,1.08-2.685,1.7-4.127l1.31-2.98L10.986.164h.2c2,4.487,4.487,9.858,5.7,13.2.851-2.1,3.832-9.76,5.208-13.363h5.633L17.143,23.942h-.228L12.3,13.4c-.426-.917-.852-1.9-1.211-2.817-.361.917-.787,1.9-1.18,2.817L5.255,23.942h-.23L-5.521,0Z" transform="translate(5.521)"/>
      </g>
      <g id="Group_505" data-name="Group 505" transform="translate(96.168 6.699)">
        <path id="Path_483" data-name="Path 483" class="cls-2" d="M.28.213c0,5.5-3.636,9.04-9.859,9.04-6.19,0-9.858-3.538-9.858-9.04v-15h5.044V-.278c0,3.079,1.736,4.913,4.814,4.913,3.112,0,4.814-1.834,4.814-4.913v-14.51H.28Z" transform="translate(19.437 14.788)"/>
      </g>
    </g>
  </g>
</svg>
