<svg xmlns="http://www.w3.org/2000/svg" xmlns:xlink="http://www.w3.org/1999/xlink" width="123.757" height="33.792" viewBox="0 0 123.757 33.792">
  <defs>
    <style>
      .cls-1 {
        fill: none;
      }

      .cls-2 {
        fill: #42454a;
      }

      .cls-3 {
        clip-path: url(#clip-path);
      }
    </style>
    <clipPath id="clip-path">
      <path id="Path_478" data-name="Path 478" class="cls-1" d="M185.875-18.64H309.632V-52.432H185.875Z" transform="translate(-185.875 52.432)"/>
    </clipPath>
  </defs>
  <g id="Group_5883" data-name="Group 5883" transform="translate(-865.582 -3431.066)">
    <g id="Group_495" data-name="Group 495" transform="translate(870.645 3435.319)">
      <path id="Path_473" data-name="Path 473" class="cls-2" d="M.123.051-8.56-3.534V6.726h6.829V3.45H1.978V6.726H8.807V-3.534Z" transform="translate(8.56 3.534)"/>
    </g>
    <g id="Group_496" data-name="Group 496" transform="translate(870.645 3449.287)">
      <path id="Path_474" data-name="Path 474" class="cls-2" d="M.15,0V3.276H-3.558V0h-6.83V10.259L-1.7,6.675l8.683,3.584V0Z" transform="translate(10.388)"/>
    </g>
    <g id="Group_500" data-name="Group 500" class="cls-3" transform="translate(865.582 3431.066)">
      <g id="Group_497" data-name="Group 497" transform="translate(32.821 4.676)">
        <path id="Path_475" data-name="Path 475" class="cls-2" d="M.086.167-1.159-.914V12.351H-5.973V-11.591h.1L5.36-.259,16.594-11.591h.1V12.351H11.878V-.914L10.633.167c-1.736,1.9-3.5,3.8-5.273,5.665C3.591,3.966,1.855,2.067.086.167" transform="translate(5.973 11.591)"/>
      </g>
      <g id="Group_498" data-name="Group 498" transform="translate(59.347 5.036)">
        <path id="Path_476" data-name="Path 476" class="cls-2" d="M.08,0l3.21,8.025c.786,1.965,1.474,3.831,1.966,5.338.359-.851,1.08-2.685,1.7-4.127l1.31-2.98L10.986.164h.2c2,4.487,4.487,9.858,5.7,13.2.85-2.1,3.831-9.76,5.207-13.363h5.633L17.143,23.942h-.228L12.3,13.4c-.426-.917-.852-1.9-1.211-2.817-.361.917-.787,1.9-1.18,2.817L5.255,23.942h-.23L-5.521,0Z" transform="translate(5.521)"/>
      </g>
      <g id="Group_499" data-name="Group 499" transform="translate(96.744 5.035)">
        <path id="Path_477" data-name="Path 477" class="cls-2" d="M.28.213c0,5.5-3.636,9.04-9.858,9.04-6.191,0-9.859-3.538-9.859-9.04v-15h5.045V-.278c0,3.079,1.735,4.913,4.814,4.913,3.111,0,4.814-1.834,4.814-4.913v-14.51H.28Z" transform="translate(19.437 14.788)"/>
      </g>
    </g>
  </g>
</svg>
