<svg xmlns="http://www.w3.org/2000/svg" xmlns:xlink="http://www.w3.org/1999/xlink" width="163.776" height="79.764" viewBox="0 0 163.776 79.764">
  <defs>
    <style>
      .cls-1 {
        fill: none;
      }

      .cls-2 {
        fill: #0d55a0;
      }

      .cls-3 {
        fill: #cbaf8b;
      }

      .cls-4 {
        clip-path: url(#clip-path);
      }

      .cls-5 {
        fill: #fff;
      }
    </style>
    <clipPath id="clip-path">
      <path id="Path_503" data-name="Path 503" class="cls-1" d="M369.125-16.069H503.559V-54.931H369.125Z" transform="translate(-369.125 54.931)"/>
    </clipPath>
  </defs>
  <g id="Group_5882" data-name="Group 5882" transform="translate(-1036.8 -3422.214)">
    <path id="Path_3721" data-name="Path 3721" class="cls-2" d="M354.55-42.552H518.326v-79.764H354.55Z" transform="translate(682.25 3544.53)"/>
    <g id="Group_523" data-name="Group 523" transform="translate(1062.178 3435.163)">
      <path id="Path_498" data-name="Path 498" class="cls-3" d="M.123.051-8.56-3.534V6.726h6.829V3.45H1.978V6.726H8.807V-3.534Z" transform="translate(8.56 3.534)"/>
    </g>
    <g id="Group_524" data-name="Group 524" transform="translate(1062.178 3449.131)">
      <path id="Path_499" data-name="Path 499" class="cls-3" d="M.15,0V3.276H-3.558V0h-6.83V10.259L-1.7,6.675l8.683,3.584V0Z" transform="translate(10.388)"/>
    </g>
    <g id="Group_528" data-name="Group 528" class="cls-4" transform="translate(1051.473 3428.531)">
      <g id="Group_525" data-name="Group 525" transform="translate(38.464 7.054)">
        <path id="Path_500" data-name="Path 500" class="cls-5" d="M.086.167-1.159-.913V12.351H-5.973V-11.591h.1L5.36-.259,16.594-11.591h.1V12.351H11.878V-.913L10.633.167c-1.736,1.9-3.5,3.8-5.273,5.666C3.591,3.966,1.855,2.067.086.167" transform="translate(5.973 11.591)"/>
      </g>
      <g id="Group_526" data-name="Group 526" transform="translate(64.99 7.414)">
        <path id="Path_501" data-name="Path 501" class="cls-5" d="M.08,0l3.21,8.025c.786,1.965,1.474,3.831,1.966,5.339.359-.852,1.08-2.686,1.7-4.128l1.31-2.98L10.986.164h.2c2,4.487,4.487,9.858,5.7,13.2.85-2.1,3.831-9.761,5.207-13.364h5.633L17.143,23.943h-.228L12.3,13.4c-.426-.917-.852-1.9-1.211-2.817-.361.917-.787,1.9-1.18,2.817L5.255,23.943h-.23L-5.521,0Z" transform="translate(5.521)"/>
      </g>
      <g id="Group_527" data-name="Group 527" transform="translate(102.387 7.414)">
        <path id="Path_502" data-name="Path 502" class="cls-5" d="M.28.213c0,5.5-3.636,9.039-9.858,9.039-6.191,0-9.859-3.537-9.859-9.039v-15h5.045V-.278c0,3.079,1.735,4.912,4.814,4.912,3.111,0,4.814-1.833,4.814-4.912v-14.51H.28Z" transform="translate(19.437 14.788)"/>
      </g>
    </g>
  </g>
</svg>
