<svg xmlns="http://www.w3.org/2000/svg" xmlns:xlink="http://www.w3.org/1999/xlink" width="156.618" height="153.313" viewBox="0 0 156.618 153.313">
  <defs>
    <style>
      .cls-1 {
        fill: none;
      }

      .cls-2 {
        fill: #cbaf8b;
      }

      .cls-3 {
        clip-path: url(#clip-path);
      }

      .cls-4 {
        fill: #0d55a1;
      }
    </style>
    <clipPath id="clip-path">
      <path id="Path_3719" data-name="Path 3719" class="cls-1" d="M89.2,55.248H245.822V-98.065H89.2Z" transform="translate(-89.204 98.065)"/>
    </clipPath>
  </defs>
  <g id="Group_5878" data-name="Group 5878" transform="translate(-863.256 -3571.98)">
    <g id="Group_5811" data-name="Group 5811" transform="translate(927.051 3597.975)">
      <path id="Path_525" data-name="Path 525" class="cls-2" d="M7.666,3.164-8.552-3.53V15.632H4.2V9.514h6.926v6.118H23.885V-3.53Z" transform="translate(8.552 3.53)"/>
    </g>
    <g id="Group_5812" data-name="Group 5812" transform="translate(927.051 3624.063)">
      <path id="Path_526" data-name="Path 526" class="cls-2" d="M9.3,0V6.118H2.377V0H-10.378V19.162L5.84,12.467l16.218,6.694V0Z" transform="translate(10.378 0)"/>
    </g>
    <g id="Group_5816" data-name="Group 5816" class="cls-3" transform="translate(863.256 3571.98)">
      <g id="Group_5813" data-name="Group 5813" transform="translate(23.863 87.207)">
        <path id="Path_3716" data-name="Path 3716" class="cls-4" d="M3.744,7.265,2.116,5.852V23.189H-4.176V-8.1h.131L10.637,6.707,25.319-8.1h.129V23.189H19.156V5.852L17.531,7.265c-2.272,2.482-4.582,4.965-6.894,7.406C8.323,12.23,6.055,9.747,3.744,7.265" transform="translate(4.176 8.104)"/>
      </g>
      <g id="Group_5814" data-name="Group 5814" transform="translate(58.533 87.678)">
        <path id="Path_3717" data-name="Path 3717" class="cls-4" d="M3.46,0,7.655,10.489c1.028,2.568,1.927,5.007,2.57,6.977.47-1.113,1.413-3.51,2.226-5.393l1.712-3.9L17.716.214h.256C20.585,6.08,23.838,13.1,25.423,17.466,26.532,14.726,30.43,4.709,32.227,0h7.362L25.764,31.293h-.3L19.428,17.508c-.558-1.2-1.115-2.482-1.584-3.681-.47,1.2-1.028,2.484-1.544,3.681L10.225,31.293h-.3L-3.86,0Z" transform="translate(3.86)"/>
      </g>
      <g id="Group_5815" data-name="Group 5815" transform="translate(106.559 87.679)">
        <path id="Path_3718" data-name="Path 3718" class="cls-4" d="M12.182,9.267c0,7.191-4.752,11.815-12.886,11.815-8.092,0-12.884-4.624-12.884-11.815V-10.338H-7V8.624c0,4.024,2.268,6.421,6.292,6.421,4.066,0,6.292-2.4,6.292-6.421V-10.338h6.594Z" transform="translate(13.589 10.338)"/>
      </g>
    </g>
  </g>
</svg>
