<svg xmlns="http://www.w3.org/2000/svg" xmlns:xlink="http://www.w3.org/1999/xlink" width="156.619" height="153.313" viewBox="0 0 156.619 153.313">
  <defs>
    <style>
      .cls-1 {
        fill: none;
      }

      .cls-2 {
        fill: #0d55a1;
      }

      .cls-3 {
        clip-path: url(#clip-path);
      }
    </style>
    <clipPath id="clip-path">
      <path id="Path_3705" data-name="Path 3705" class="cls-1" d="M178.406,55.248H335.025V-98.065H178.406Z" transform="translate(-178.406 98.065)"/>
    </clipPath>
  </defs>
  <g id="Group_5879" data-name="Group 5879" transform="translate(-1047.432 -3578.527)">
    <g id="Group_5789" data-name="Group 5789" transform="translate(1110.972 3604.522)">
      <path id="Path_532" data-name="Path 532" class="cls-2" d="M7.666,3.164-8.552-3.53V15.632H4.2V9.514h6.926v6.118H23.885V-3.53Z" transform="translate(8.552 3.53)"/>
    </g>
    <g id="Group_5790" data-name="Group 5790" transform="translate(1110.972 3630.609)">
      <path id="Path_533" data-name="Path 533" class="cls-2" d="M9.3,0V6.118H2.377V0H-10.378V19.162L5.84,12.467l16.218,6.694V0Z" transform="translate(10.378 0)"/>
    </g>
    <g id="Group_5794" data-name="Group 5794" class="cls-3" transform="translate(1047.432 3578.527)">
      <g id="Group_5791" data-name="Group 5791" transform="translate(23.865 87.207)">
        <path id="Path_3702" data-name="Path 3702" class="cls-2" d="M3.744,7.265,2.116,5.852V23.189H-4.176V-8.1h.131L10.637,6.707,25.319-8.1h.129V23.189H19.156V5.852L17.531,7.265c-2.272,2.482-4.582,4.965-6.894,7.406C8.323,12.23,6.055,9.747,3.744,7.265" transform="translate(4.176 8.104)"/>
      </g>
      <g id="Group_5792" data-name="Group 5792" transform="translate(58.535 87.678)">
        <path id="Path_3703" data-name="Path 3703" class="cls-2" d="M3.46,0,7.655,10.489c1.028,2.568,1.927,5.007,2.57,6.977.47-1.113,1.413-3.51,2.226-5.393l1.712-3.9L17.716.214h.256c2.613,5.864,5.866,12.884,7.451,17.252C26.532,14.726,30.43,4.709,32.227,0h7.362L25.764,31.293h-.3L19.428,17.508c-.558-1.2-1.115-2.482-1.584-3.681-.47,1.2-1.028,2.482-1.544,3.681L10.225,31.293h-.3L-3.86,0Z" transform="translate(3.86)"/>
      </g>
      <g id="Group_5793" data-name="Group 5793" transform="translate(106.561 87.679)">
        <path id="Path_3704" data-name="Path 3704" class="cls-2" d="M12.182,9.267c0,7.191-4.752,11.815-12.886,11.815-8.092,0-12.884-4.624-12.884-11.815V-10.338H-7V8.624c0,4.024,2.268,6.421,6.292,6.421,4.066,0,6.292-2.4,6.292-6.421V-10.338h6.594Z" transform="translate(13.589 10.338)"/>
      </g>
    </g>
  </g>
</svg>
