<svg xmlns="http://www.w3.org/2000/svg" xmlns:xlink="http://www.w3.org/1999/xlink" width="164" height="164" viewBox="0 0 164 164">
  <defs>
    <style>
      .cls-1, .cls-2, .cls-6 {
        fill: none;
      }

      .cls-2 {
        stroke: #f7f7f7;
        stroke-width: 2px;
      }

      .cls-3 {
        fill: #0d55a0;
      }

      .cls-4 {
        fill: #42454a;
      }

      .cls-5 {
        clip-path: url(#clip-path);
      }

      .cls-6 {
        stroke: #2b2e34;
        stroke-width: 0.5px;
      }

      .cls-7 {
        stroke: none;
      }
    </style>
    <clipPath id="clip-path">
      <path id="Path_763" data-name="Path 763" class="cls-1" d="M13.69-16.992h91.2V-53.635H13.69Z" transform="translate(-13.69 53.635)"/>
    </clipPath>
  </defs>
  <g id="Group_5895" data-name="Group 5895" transform="translate(-858 -5820.756)">
    <g id="Rectangle_97" data-name="Rectangle 97" class="cls-2" transform="translate(858 5820.756)">
      <rect class="cls-7" width="164" height="164"/>
      <rect class="cls-1" x="1" y="1" width="162" height="162"/>
    </g>
    <g id="Group_833" data-name="Group 833" transform="translate(872.492 5919.619)">
      <path id="Path_740" data-name="Path 740" class="cls-3" d="M0,50.645H135.016V-84.37H0Z" transform="translate(0 0)"/>
      <g id="Group_812" data-name="Group 812" transform="translate(24.721 -29.096)">
        <path id="Path_741" data-name="Path 741" class="cls-4" d="M2.943,1.215-4.9-2.024v9.27H1.268V4.286H4.619V7.246h6.171v-9.27Z" transform="translate(4.903 2.024)"/>
      </g>
      <g id="Group_813" data-name="Group 813" transform="translate(24.721 -16.476)">
        <path id="Path_742" data-name="Path 742" class="cls-4" d="M3.572,0V2.961H.221V0H-5.95V9.27L1.9,6.031,9.742,9.27V0Z" transform="translate(5.95)"/>
      </g>
      <g id="Group_831" data-name="Group 831" class="cls-5" transform="translate(21.908 -35.186)">
        <g id="Group_814" data-name="Group 814" transform="translate(26.077 7.674)">
          <path id="Path_743" data-name="Path 743" class="cls-4" d="M.784,1.521.355,1.148V5.723H-1.306V-2.534h.034L2.6,1.374,6.478-2.534h.034V5.723H4.852V1.148l-.43.373c-.6.655-1.208,1.311-1.818,1.954-.611-.643-1.21-1.3-1.82-1.954" transform="translate(1.306 2.534)"/>
        </g>
        <path id="Path_744" data-name="Path 744" class="cls-4" d="M37.785-40.611H36.09V-46.26h1.695Zm0-5.649-.848-2.53a.865.865,0,0,1,.938.914.869.869,0,0,1-.938.9.864.864,0,0,1-.938-.9.86.86,0,0,1,.938-.914" transform="translate(-0.299 56.543)"/>
        <g id="Group_815" data-name="Group 815" transform="translate(38.863 7.798)">
          <path id="Path_745" data-name="Path 745" class="cls-4" d="M.6,1.992A1.4,1.4,0,0,0,1.942,3.55,1.4,1.4,0,0,0,3.3,1.992,1.4,1.4,0,0,0,1.942.433,1.4,1.4,0,0,0,.6,1.992M5.037,4.816H3.5L3.467,4.3a1.506,1.506,0,0,1,.022-.373H3.467A2.059,2.059,0,0,1,1.638,4.975,2.7,2.7,0,0,1-1,1.992,2.688,2.688,0,0,1,1.592-.991a2.149,2.149,0,0,1,1.773.826h.024A2.342,2.342,0,0,1,3.355-.63V-3.318H5.037Z" transform="translate(0.996 3.318)"/>
        </g>
        <g id="Group_816" data-name="Group 816" transform="translate(45.777 10.283)">
          <path id="Path_746" data-name="Path 746" class="cls-4" d="M2.144.712c.192.554.362,1.163.485,1.6C2.776,1.989,2.991,1.2,3.173.7l.643-1.887H5.578L3.218,4.53h-1.1L1,1.435-.1,4.53H-1.212l-2.36-5.716H-1.81c.406,1.2.893,2.53,1.175,3.5L.507-1.152H1.5Z" transform="translate(3.572 1.186)"/>
        </g>
        <g id="Group_817" data-name="Group 817" transform="translate(55.355 10.125)">
          <path id="Path_747" data-name="Path 747" class="cls-4" d="M1.072.5A1.114,1.114,0,0,0-.035,1.63H2.1A1,1,0,0,0,1.072.5M3.716,1.811a6.455,6.455,0,0,1-.045.69H-.035c.069.768.655,1.208,1.57,1.208A4.712,4.712,0,0,0,3.49,3.291V4.725a4.949,4.949,0,0,1-2.114.408A2.916,2.916,0,0,1-1.786,2.15,2.865,2.865,0,0,1,1.083-.833,2.5,2.5,0,0,1,3.716,1.811" transform="translate(1.786 0.833)"/>
        </g>
        <g id="Group_818" data-name="Group 818" transform="translate(61.85 10.125)">
          <path id="Path_748" data-name="Path 748" class="cls-4" d="M.674,1.335C-.377,1.041-1.123.6-1.123-.5c0-1.05.837-1.728,2.148-1.728a4.832,4.832,0,0,1,1.829.35V-.427A4.245,4.245,0,0,0,1.42-.845,1.854,1.854,0,0,0,.9-.822C.663-.777.426-.665.426-.416c0,.282.282.429.88.61,1.288.362,1.9.813,1.9,1.831,0,1.083-.893,1.717-2.327,1.717a4.773,4.773,0,0,1-1.92-.373V1.889a4.7,4.7,0,0,0,1.9.52c.418,0,.8-.114.8-.453,0-.3-.339-.429-.983-.621" transform="translate(1.123 2.224)"/>
        </g>
        <g id="Group_819" data-name="Group 819" transform="translate(66.81 8.589)">
          <path id="Path_749" data-name="Path 749" class="cls-4" d="M.3.636V-1.059H1.944V.636h1.5V1.958h-1.5V4.228c0,.6.349.8.722.8a2.258,2.258,0,0,0,.96-.237V6.182a3.48,3.48,0,0,1-1.434.261A1.719,1.719,0,0,1,.3,4.838C.294,4.657.271,4.465.271,4.262v-2.3H-.508V.636Z" transform="translate(0.508 1.059)"/>
        </g>
        <g id="Group_820" data-name="Group 820" transform="translate(71.689 10.125)">
          <path id="Path_750" data-name="Path 750" class="cls-4" d="M1.072.5A1.114,1.114,0,0,0-.035,1.63H2.1A1,1,0,0,0,1.072.5M3.716,1.811a6.455,6.455,0,0,1-.045.69H-.035c.067.768.656,1.208,1.57,1.208A4.712,4.712,0,0,0,3.49,3.291V4.725a4.949,4.949,0,0,1-2.114.408A2.915,2.915,0,0,1-1.786,2.15,2.865,2.865,0,0,1,1.083-.833,2.5,2.5,0,0,1,3.716,1.811" transform="translate(1.786 0.833)"/>
        </g>
        <g id="Group_821" data-name="Group 821" transform="translate(78.579 10.125)">
          <path id="Path_751" data-name="Path 751" class="cls-4" d="M0,.059H1.536l.035.554a3.131,3.131,0,0,0,.011.373A1.969,1.969,0,0,1,3.253-.1a1.531,1.531,0,0,1,.362.034v1.65a.927.927,0,0,0-.373-.067A1.659,1.659,0,0,0,1.683,3.3V5.708H0Z" transform="translate(0 0.099)"/>
        </g>
        <g id="Group_822" data-name="Group 822" transform="translate(83.391 10.125)">
          <path id="Path_752" data-name="Path 752" class="cls-4" d="M.58.059.625.7a1.267,1.267,0,0,1-.045.4H.6A2.245,2.245,0,0,1,2.546-.1C3.823-.1,4.512.68,4.512,2.172V5.708H2.818V2.455c0-.554-.158-1.018-.768-1.018A1.334,1.334,0,0,0,.728,2.9V5.708H-.967V.059Z" transform="translate(0.967 0.099)"/>
        </g>
        <g id="Group_823" data-name="Group 823" transform="translate(25.964 18.694)">
          <path id="Path_753" data-name="Path 753" class="cls-4" d="M2.551,1.941c0,1.9-1.255,3.119-3.4,3.119s-3.4-1.221-3.4-3.119V-3.233h1.739v5A1.531,1.531,0,0,0-.849,3.466,1.526,1.526,0,0,0,.812,1.771v-5H2.551Z" transform="translate(4.25 3.233)"/>
        </g>
        <g id="Group_824" data-name="Group 824" transform="translate(34.493 21.021)">
          <path id="Path_754" data-name="Path 754" class="cls-4" d="M.58.059.625.7a1.267,1.267,0,0,1-.045.4H.6A2.245,2.245,0,0,1,2.546-.1C3.823-.1,4.512.68,4.512,2.172V5.708H2.818V2.455c0-.554-.158-1.018-.768-1.018A1.333,1.333,0,0,0,.728,2.9V5.708H-.967V.059Z" transform="translate(0.967 0.099)"/>
        </g>
        <path id="Path_755" data-name="Path 755" class="cls-4" d="M41.454-33.8H39.76v-5.649h1.695Zm0-5.647-.847-2.532a.866.866,0,0,1,.938.915.869.869,0,0,1-.938.9.864.864,0,0,1-.938-.9.861.861,0,0,1,.938-.915" transform="translate(1.905 60.63)"/>
        <g id="Group_825" data-name="Group 825" transform="translate(44.218 21.179)">
          <path id="Path_756" data-name="Path 756" class="cls-4" d="M2.276,0l-2.5,5.716H-1.283L-3.791,0h1.762c.451,1.152.994,2.463,1.266,3.4C-.638,3.095-.4,2.293-.2,1.784L.514,0Z" transform="translate(3.791)"/>
        </g>
        <g id="Group_826" data-name="Group 826" transform="translate(50.702 21.021)">
          <path id="Path_757" data-name="Path 757" class="cls-4" d="M1.072.5A1.114,1.114,0,0,0-.035,1.63H2.1A1,1,0,0,0,1.072.5M3.716,1.811a6.455,6.455,0,0,1-.045.69H-.035c.069.768.655,1.208,1.57,1.208A4.712,4.712,0,0,0,3.49,3.291V4.725a4.946,4.946,0,0,1-2.112.408A2.916,2.916,0,0,1-1.786,2.15,2.865,2.865,0,0,1,1.083-.833,2.5,2.5,0,0,1,3.716,1.811" transform="translate(1.786 0.833)"/>
        </g>
        <g id="Group_827" data-name="Group 827" transform="translate(57.592 21.021)">
          <path id="Path_758" data-name="Path 758" class="cls-4" d="M0,.059H1.536L1.57.613a3.131,3.131,0,0,0,.011.373A1.973,1.973,0,0,1,3.253-.1a1.531,1.531,0,0,1,.362.034v1.65a.927.927,0,0,0-.373-.067A1.658,1.658,0,0,0,1.683,3.3V5.708H0Z" transform="translate(0 0.099)"/>
        </g>
        <g id="Group_828" data-name="Group 828" transform="translate(62.03 21.02)">
          <path id="Path_759" data-name="Path 759" class="cls-4" d="M.674,1.335C-.377,1.041-1.123.6-1.123-.5c0-1.05.837-1.728,2.148-1.728a4.849,4.849,0,0,1,1.831.35V-.427A4.291,4.291,0,0,0,1.42-.846,1.914,1.914,0,0,0,.9-.822C.663-.777.426-.665.426-.416c0,.282.282.429.882.61,1.287.362,1.9.813,1.9,1.831,0,1.083-.891,1.717-2.327,1.717a4.773,4.773,0,0,1-1.92-.373V1.889a4.7,4.7,0,0,0,1.9.52c.418,0,.8-.114.8-.453,0-.3-.338-.429-.983-.621" transform="translate(1.123 2.224)"/>
        </g>
        <path id="Path_760" data-name="Path 760" class="cls-4" d="M57.738-33.8H56.044v-5.649h1.695Zm0-5.647-.847-2.532a.865.865,0,0,1,.936.915.868.868,0,0,1-.936.9.864.864,0,0,1-.938-.9.861.861,0,0,1,.938-.915" transform="translate(11.68 60.63)"/>
        <g id="Group_829" data-name="Group 829" transform="translate(70.492 19.484)">
          <path id="Path_761" data-name="Path 761" class="cls-4" d="M.3.636V-1.059H1.944V.636h1.5V1.958h-1.5V4.228c0,.6.35.8.722.8a2.258,2.258,0,0,0,.96-.237V6.182a3.48,3.48,0,0,1-1.434.261A1.72,1.72,0,0,1,.3,4.838C.294,4.657.271,4.465.271,4.262v-2.3H-.508V.636Z" transform="translate(0.508 1.059)"/>
        </g>
        <g id="Group_830" data-name="Group 830" transform="translate(75.111 21.179)">
          <path id="Path_762" data-name="Path 762" class="cls-4" d="M.085,2.5a1.814,1.814,0,0,0,.666.114c.746,0,1.131-.5,1.435-1.141L-.141-4.172H1.711l.656,1.965c.237.69.475,1.391.666,2.1.147-.315.52-1.683.679-2.1l.655-1.965H6.2l-2.191,5.6C3.36,3.1,2.514,3.94,1.326,4.074a2.882,2.882,0,0,1-.711.011,1.987,1.987,0,0,1-.531-.1Z" transform="translate(0.141 4.172)"/>
        </g>
      </g>
      <g id="Group_832" data-name="Group 832" transform="translate(6.897 -78.522)">
        <path id="Path_764" data-name="Path 764" class="cls-6" d="M46.257,0-77.061,123.318" transform="translate(77.061)"/>
      </g>
    </g>
  </g>
</svg>
