<svg xmlns="http://www.w3.org/2000/svg" xmlns:xlink="http://www.w3.org/1999/xlink" width="164" height="164" viewBox="0 0 164 164">
  <defs>
    <style>
      .cls-1, .cls-2, .cls-4, .cls-5 {
        fill: none;
      }

      .cls-2 {
        stroke: #f7f7f7;
        stroke-width: 2px;
      }

      .cls-3 {
        clip-path: url(#clip-path);
      }

      .cls-4 {
        stroke: #0d55a0;
        stroke-width: 0.375px;
      }

      .cls-5 {
        stroke: #2b2e34;
        stroke-width: 0.5px;
      }

      .cls-6 {
        stroke: none;
      }
    </style>
    <clipPath id="clip-path">
      <path id="Path_1066" data-name="Path 1066" class="cls-1" d="M0,34.791H134.1V-77.414H0Z" transform="translate(0 77.414)"/>
    </clipPath>
  </defs>
  <g id="Group_5897" data-name="Group 5897" transform="translate(-678 -6034.756)">
    <g id="Rectangle_99" data-name="Rectangle 99" class="cls-2" transform="translate(678 6034.756)">
      <rect class="cls-6" width="164" height="164"/>
      <rect class="cls-1" x="1" y="1" width="162" height="162"/>
    </g>
    <g id="Group_1149" data-name="Group 1149" transform="translate(692.949 6138.067)">
      <g id="Group_1148" data-name="Group 1148" class="cls-3" transform="translate(0 -77.414)">
        <g id="Group_1125" data-name="Group 1125" transform="translate(0.272 32.841)">
          <path id="Path_1043" data-name="Path 1043" class="cls-4" d="M3.776,1.559-8.4-3.468V10.919H1.175V6.326h5.2v4.593h9.576V-3.468Z" transform="translate(8.401 3.468)"/>
        </g>
        <g id="Group_1126" data-name="Group 1126" transform="translate(0.272 52.428)">
          <path id="Path_1044" data-name="Path 1044" class="cls-4" d="M4.582,0V4.593h-5.2V0h-9.576V14.387L1.982,9.36l12.177,5.027V0Z" transform="translate(10.195)"/>
        </g>
        <g id="Group_1127" data-name="Group 1127" transform="translate(36.377 35.299)">
          <path id="Path_1045" data-name="Path 1045" class="cls-4" d="M1.006,1.952.341,1.373v7.1H-2.238V-4.343h.054L3.829,1.724,9.843-4.343H9.9V8.474H7.318v-7.1l-.665.578C5.722,2.969,4.776,3.985,3.829,4.985,2.881,3.985,1.952,2.969,1.006,1.952Z" transform="translate(2.238 4.343)"/>
        </g>
        <g id="Group_1128" data-name="Group 1128" transform="translate(51.313 35.422)">
          <path id="Path_1046" data-name="Path 1046" class="cls-4" d="M.451,0A1.344,1.344,0,0,1,1.906,1.42a1.349,1.349,0,0,1-1.455,1.4A1.341,1.341,0,0,1-1,1.42,1.336,1.336,0,0,1,.451,0ZM1.766,12.694H-.865V3.928H1.766Z" transform="translate(1.004)"/>
        </g>
        <g id="Group_1129" data-name="Group 1129" transform="translate(56.222 35.492)">
          <path id="Path_1047" data-name="Path 1047" class="cls-4" d="M2.9,3.914H.518L.466,3.107A2.338,2.338,0,0,1,.5,2.529H.466A3.2,3.2,0,0,1-2.375,4.159c-2.263,0-4.084-1.752-4.084-4.628,0-2.893,1.822-4.629,4.015-4.629A3.349,3.349,0,0,1,.308-3.818H.343a3.614,3.614,0,0,1-.052-.719V-8.71H2.9ZM-3.988-.469A2.176,2.176,0,0,0-1.9,1.95,2.178,2.178,0,0,0,.2-.469,2.178,2.178,0,0,0-1.9-2.888,2.166,2.166,0,0,0-3.988-.469Z" transform="translate(6.459 8.71)"/>
        </g>
        <g id="Group_1130" data-name="Group 1130" transform="translate(66.95 39.35)">
          <path id="Path_1048" data-name="Path 1048" class="cls-4" d="M2.751.913c.3.86.561,1.806.754,2.49.228-.509.561-1.736.842-2.507l1-2.928H8.08L4.416,6.84h-1.7L.98,2.035-.739,6.84H-2.457L-6.121-2.032h2.735C-2.755-.174-2,1.9-1.563,3.4L.209-1.98H1.751Z" transform="translate(6.121 2.032)"/>
        </g>
        <g id="Group_1131" data-name="Group 1131" transform="translate(81.816 39.104)">
          <path id="Path_1049" data-name="Path 1049" class="cls-4" d="M2.648,1.272a9.984,9.984,0,0,1-.07,1.07H-3.173c.106,1.191,1.016,1.876,2.436,1.876A7.327,7.327,0,0,0,2.3,3.57V5.8a7.69,7.69,0,0,1-3.279.632C-4,6.428-5.891,4.481-5.891,1.8A4.448,4.448,0,0,1-1.437-2.831,3.883,3.883,0,0,1,2.648,1.272Zm-4.1-2.034A1.728,1.728,0,0,0-3.173.991H.14A1.559,1.559,0,0,0-1.454-.761Z" transform="translate(5.891 2.831)"/>
        </g>
        <g id="Group_1132" data-name="Group 1132" transform="translate(91.897 39.105)">
          <path id="Path_1050" data-name="Path 1050" class="cls-4" d="M.864,1.712C-.766,1.257-1.923.573-1.923-1.129c0-1.631,1.3-2.681,3.331-2.681a7.51,7.51,0,0,1,2.841.544v2.244a6.62,6.62,0,0,0-2.228-.649,3.065,3.065,0,0,0-.806.035c-.368.071-.736.246-.736.632,0,.438.438.667,1.368.946C3.846.5,4.792,1.2,4.792,2.782c0,1.683-1.386,2.665-3.612,2.665A7.432,7.432,0,0,1-1.8,4.869v-2.3a7.289,7.289,0,0,0,2.947.806c.648,0,1.245-.175,1.245-.7C2.39,2.2,1.864,2.011.864,1.712Z" transform="translate(1.923 3.81)"/>
        </g>
        <g id="Group_1133" data-name="Group 1133" transform="translate(99.592 36.719)">
          <path id="Path_1051" data-name="Path 1051" class="cls-4" d="M.391.816V-1.815H2.934V.816H5.266V2.867H2.934V6.392c0,.929.544,1.245,1.122,1.245a3.522,3.522,0,0,0,1.49-.368V9.424a5.42,5.42,0,0,1-2.226.4A2.667,2.667,0,0,1,.391,7.338C.374,7.057.339,6.76.339,6.444V2.867H-.871V.816Z" transform="translate(0.871 1.815)"/>
        </g>
        <g id="Group_1134" data-name="Group 1134" transform="translate(107.165 39.104)">
          <path id="Path_1052" data-name="Path 1052" class="cls-4" d="M2.648,1.272a9.984,9.984,0,0,1-.07,1.07H-3.173c.106,1.191,1.017,1.876,2.436,1.876A7.327,7.327,0,0,0,2.3,3.57V5.8a7.69,7.69,0,0,1-3.279.632C-4,6.428-5.891,4.481-5.891,1.8A4.448,4.448,0,0,1-1.437-2.831,3.883,3.883,0,0,1,2.648,1.272Zm-4.1-2.034A1.728,1.728,0,0,0-3.173.991H.14A1.559,1.559,0,0,0-1.454-.761Z" transform="translate(5.891 2.831)"/>
        </g>
        <g id="Group_1135" data-name="Group 1135" transform="translate(117.859 39.105)">
          <path id="Path_1053" data-name="Path 1053" class="cls-4" d="M0,.076H2.384l.054.86a4.849,4.849,0,0,0,.017.578A3.06,3.06,0,0,1,5.05-.169a2.378,2.378,0,0,1,.561.052v2.56a1.42,1.42,0,0,0-.578-.106A2.575,2.575,0,0,0,2.612,5.108V8.842H0Z" transform="translate(0 0.169)"/>
        </g>
        <g id="Group_1136" data-name="Group 1136" transform="translate(125.327 39.105)">
          <path id="Path_1054" data-name="Path 1054" class="cls-4" d="M.745.076l.07,1a1.978,1.978,0,0,1-.07.615H.779A3.481,3.481,0,0,1,3.8-.169c1.981,0,3.051,1.209,3.051,3.524V8.842H4.216V3.792c0-.858-.245-1.577-1.191-1.577A2.069,2.069,0,0,0,.972,4.476V8.842H-1.657V.076Z" transform="translate(1.657 0.169)"/>
        </g>
        <g id="Group_1137" data-name="Group 1137" transform="translate(36.202 52.403)">
          <path id="Path_1055" data-name="Path 1055" class="cls-4" d="M3.273,2.49c0,2.945-1.947,4.84-5.277,4.84-3.313,0-5.277-1.894-5.277-4.84V-5.54h2.7V2.227A2.376,2.376,0,0,0-2,4.857,2.368,2.368,0,0,0,.572,2.227V-5.54h2.7Z" transform="translate(7.282 5.54)"/>
        </g>
        <g id="Group_1138" data-name="Group 1138" transform="translate(49.438 56.015)">
          <path id="Path_1056" data-name="Path 1056" class="cls-4" d="M.745.076l.07,1a1.978,1.978,0,0,1-.07.615H.779A3.481,3.481,0,0,1,3.8-.169c1.981,0,3.051,1.209,3.051,3.524V8.842H4.216V3.792c0-.858-.245-1.577-1.191-1.577A2.069,2.069,0,0,0,.972,4.476V8.842H-1.657V.076Z" transform="translate(1.657 0.169)"/>
        </g>
        <g id="Group_1139" data-name="Group 1139" transform="translate(60.429 52.332)">
          <path id="Path_1057" data-name="Path 1057" class="cls-4" d="M.451,0A1.344,1.344,0,0,1,1.906,1.42a1.349,1.349,0,0,1-1.455,1.4A1.341,1.341,0,0,1-1,1.42,1.336,1.336,0,0,1,.451,0ZM1.766,12.694H-.865V3.928H1.766Z" transform="translate(1.004)"/>
        </g>
        <g id="Group_1140" data-name="Group 1140" transform="translate(64.531 56.26)">
          <path id="Path_1058" data-name="Path 1058" class="cls-4" d="M2.919,0-.955,8.872H-2.6L-6.5,0h2.735c.7,1.789,1.542,3.822,1.964,5.277C-1.6,4.8-1.236,3.56-.92,2.77L.184,0Z" transform="translate(6.496)"/>
        </g>
        <g id="Group_1141" data-name="Group 1141" transform="translate(74.594 56.014)">
          <path id="Path_1059" data-name="Path 1059" class="cls-4" d="M2.648,1.272a9.984,9.984,0,0,1-.07,1.07H-3.173c.106,1.191,1.017,1.876,2.436,1.876A7.327,7.327,0,0,0,2.3,3.57V5.8a7.69,7.69,0,0,1-3.279.632C-4,6.428-5.891,4.481-5.891,1.8A4.448,4.448,0,0,1-1.437-2.831,3.883,3.883,0,0,1,2.648,1.272Zm-4.1-2.034A1.728,1.728,0,0,0-3.173.991H.14A1.559,1.559,0,0,0-1.454-.761Z" transform="translate(5.891 2.831)"/>
        </g>
        <g id="Group_1142" data-name="Group 1142" transform="translate(85.287 56.015)">
          <path id="Path_1060" data-name="Path 1060" class="cls-4" d="M0,.076H2.384l.054.86a4.849,4.849,0,0,0,.017.578A3.06,3.06,0,0,1,5.05-.169a2.378,2.378,0,0,1,.561.052v2.56a1.42,1.42,0,0,0-.578-.106A2.574,2.574,0,0,0,2.613,5.108V8.842H0Z" transform="translate(0 0.169)"/>
        </g>
        <g id="Group_1143" data-name="Group 1143" transform="translate(92.177 56.015)">
          <path id="Path_1061" data-name="Path 1061" class="cls-4" d="M.864,1.712C-.766,1.257-1.923.573-1.923-1.129c0-1.631,1.3-2.681,3.331-2.681a7.51,7.51,0,0,1,2.841.544v2.244a6.63,6.63,0,0,0-2.228-.649,3.065,3.065,0,0,0-.806.035c-.368.071-.736.246-.736.632,0,.438.438.667,1.368.946C3.846.5,4.792,1.2,4.792,2.782c0,1.683-1.386,2.665-3.612,2.665A7.432,7.432,0,0,1-1.8,4.869v-2.3a7.289,7.289,0,0,0,2.945.806c.649,0,1.246-.175,1.246-.7C2.39,2.2,1.864,2.011.864,1.712Z" transform="translate(1.923 3.81)"/>
        </g>
        <g id="Group_1144" data-name="Group 1144" transform="translate(100.872 52.332)">
          <path id="Path_1062" data-name="Path 1062" class="cls-4" d="M.451,0A1.344,1.344,0,0,1,1.906,1.42a1.349,1.349,0,0,1-1.455,1.4A1.341,1.341,0,0,1-1,1.42,1.336,1.336,0,0,1,.451,0ZM1.766,12.694H-.865V3.928H1.766Z" transform="translate(1.004)"/>
        </g>
        <g id="Group_1145" data-name="Group 1145" transform="translate(105.307 53.629)">
          <path id="Path_1063" data-name="Path 1063" class="cls-4" d="M.391.816V-1.815H2.934V.816H5.266V2.867H2.934V6.392c0,.929.544,1.245,1.122,1.245a3.522,3.522,0,0,0,1.49-.368V9.424a5.42,5.42,0,0,1-2.226.4A2.667,2.667,0,0,1,.391,7.338C.374,7.057.339,6.76.339,6.444V2.867H-.871V.816Z" transform="translate(0.871 1.815)"/>
        </g>
        <g id="Group_1146" data-name="Group 1146" transform="translate(112.477 56.26)">
          <path id="Path_1064" data-name="Path 1064" class="cls-4" d="M.109,3.213a2.826,2.826,0,0,0,1.033.175C2.3,3.388,2.9,2.617,3.37,1.617L-.242-7.149H2.634L3.65-4.1c.37,1.07.738,2.157,1.035,3.261.228-.491.807-2.613,1.052-3.261L6.753-7.149H9.594l-3.4,8.7c-1,2.594-2.313,3.892-4.154,4.1a4.744,4.744,0,0,1-1.1.017A3.149,3.149,0,0,1,.109,5.51Z" transform="translate(0.242 7.149)"/>
        </g>
        <g id="Group_1147" data-name="Group 1147" transform="translate(15.316 0.256)">
          <path id="Path_1065" data-name="Path 1065" class="cls-5" d="M34.632,0-77.061,111.693" transform="translate(77.061)"/>
        </g>
      </g>
    </g>
  </g>
</svg>
