<svg xmlns="http://www.w3.org/2000/svg" xmlns:xlink="http://www.w3.org/1999/xlink" width="164" height="164" viewBox="0 0 164 164">
  <defs>
    <style>
      .cls-1, .cls-2, .cls-5 {
        fill: none;
      }

      .cls-2 {
        stroke: #f7f7f7;
        stroke-width: 2px;
      }

      .cls-3 {
        fill: #2b2e34;
      }

      .cls-4 {
        clip-path: url(#clip-path);
      }

      .cls-5 {
        stroke: #2b2e34;
        stroke-width: 0.5px;
      }

      .cls-6 {
        stroke: none;
      }
    </style>
    <clipPath id="clip-path">
      <path id="Path_1090" data-name="Path 1090" class="cls-1" d="M0,40.215H140.016V-77.414H0Z" transform="translate(0 77.414)"/>
    </clipPath>
  </defs>
  <g id="Group_5898" data-name="Group 5898" transform="translate(-858 -6034.756)">
    <g id="Rectangle_100" data-name="Rectangle 100" class="cls-2" transform="translate(858 6034.756)">
      <rect class="cls-6" width="164" height="164"/>
      <rect class="cls-1" x="1" y="1" width="162" height="162"/>
    </g>
    <g id="Group_1174" data-name="Group 1174" transform="translate(872.492 6135.355)">
      <g id="Group_1150" data-name="Group 1150" transform="translate(-0.001 -42.986)">
        <path id="Path_1067" data-name="Path 1067" class="cls-3" d="M4.365,1.8-8.4-3.468V11.614H1.639V6.8H7.091v4.814H17.13V-3.468Z" transform="translate(8.402 3.468)"/>
      </g>
      <g id="Group_1151" data-name="Group 1151" transform="translate(0.001 -22.452)">
        <path id="Path_1068" data-name="Path 1068" class="cls-3" d="M5.3,0V4.817H-.154V0H-10.195V15.084L2.57,9.813l12.767,5.271V0Z" transform="translate(10.195)"/>
      </g>
      <g id="Group_1173" data-name="Group 1173" class="cls-4" transform="translate(0 -77.414)">
        <g id="Group_1152" data-name="Group 1152" transform="translate(37.85 37.005)">
          <path id="Path_1069" data-name="Path 1069" class="cls-3" d="M1.163,2.256l-.7-.606V9.094h-2.7V-4.343h.056l6.3,6.361,6.3-6.361h.055V9.094H7.78V1.65l-.7.606c-.976,1.067-1.968,2.132-2.96,3.18-.994-1.048-1.968-2.114-2.96-3.18" transform="translate(2.238 4.343)"/>
        </g>
        <g id="Group_1153" data-name="Group 1153" transform="translate(53.509 37.134)">
          <path id="Path_1070" data-name="Path 1070" class="cls-3" d="M.522,0A1.409,1.409,0,0,1,2.047,1.489,1.415,1.415,0,0,1,.522,2.96,1.405,1.405,0,0,1-1,1.489,1.4,1.4,0,0,1,.522,0M1.9,13.308H-.858V4.118H1.9Z" transform="translate(1.004)"/>
        </g>
        <g id="Group_1154" data-name="Group 1154" transform="translate(58.655 37.207)">
          <path id="Path_1071" data-name="Path 1071" class="cls-3" d="M3.355,4.525H.856L.8,3.678a2.451,2.451,0,0,1,.036-.606H.8A3.354,3.354,0,0,1-2.177,4.781c-2.372,0-4.282-1.837-4.282-4.852,0-3.033,1.91-4.853,4.209-4.853A3.511,3.511,0,0,1,.635-3.582H.672a3.789,3.789,0,0,1-.055-.754V-8.71H3.355ZM-3.868-.07A2.281,2.281,0,0,0-1.68,2.466,2.283,2.283,0,0,0,.525-.07a2.283,2.283,0,0,0-2.2-2.536A2.271,2.271,0,0,0-3.868-.07" transform="translate(6.459 8.71)"/>
        </g>
        <g id="Group_1155" data-name="Group 1155" transform="translate(69.902 41.252)">
          <path id="Path_1072" data-name="Path 1072" class="cls-3" d="M3.18,1.056c.313.9.588,1.893.79,2.61.239-.533.588-1.82.883-2.629L5.9-2.032H8.767l-3.841,9.3H3.143L1.323,2.232l-1.8,5.037h-1.8l-3.841-9.3h2.867c.661,1.948,1.453,4.118,1.912,5.7L.515-1.977H2.131Z" transform="translate(6.121 2.032)"/>
        </g>
        <g id="Group_1156" data-name="Group 1156" transform="translate(85.486 40.994)">
          <path id="Path_1073" data-name="Path 1073" class="cls-3" d="M3.06,1.471a10.467,10.467,0,0,1-.073,1.121H-3.042c.111,1.249,1.065,1.966,2.554,1.966a7.681,7.681,0,0,0,3.18-.679V6.213a8.061,8.061,0,0,1-3.437.662c-3.161,0-5.146-2.041-5.146-4.853A4.663,4.663,0,0,1-1.222-2.831a4.071,4.071,0,0,1,4.282,4.3M-1.24-.661a1.812,1.812,0,0,0-1.8,1.837H.432A1.635,1.635,0,0,0-1.24-.661" transform="translate(5.891 2.831)"/>
        </g>
        <g id="Group_1157" data-name="Group 1157" transform="translate(96.054 40.995)">
          <path id="Path_1074" data-name="Path 1074" class="cls-3" d="M1,1.979C-.71,1.5-1.923.785-1.923-1c0-1.709,1.36-2.811,3.492-2.811a7.873,7.873,0,0,1,2.978.57V-.888a6.94,6.94,0,0,0-2.335-.681,3.213,3.213,0,0,0-.845.036c-.386.074-.772.258-.772.662,0,.459.459.7,1.434.992C4.125.71,5.117,1.446,5.117,3.1c0,1.764-1.453,2.794-3.787,2.794A7.792,7.792,0,0,1-1.8,5.289V2.88a7.641,7.641,0,0,0,3.089.845c.679,0,1.305-.184,1.305-.735,0-.5-.552-.7-1.6-1.01" transform="translate(1.923 3.81)"/>
        </g>
        <g id="Group_1158" data-name="Group 1158" transform="translate(104.122 38.494)">
          <path id="Path_1075" data-name="Path 1075" class="cls-3" d="M.452.943V-1.815H3.118V.943H5.562v2.15H3.118v3.7c0,.974.57,1.305,1.176,1.305a3.692,3.692,0,0,0,1.562-.386V9.967a5.682,5.682,0,0,1-2.334.424A2.8,2.8,0,0,1,.452,7.781C.434,7.486.4,7.174.4,6.843V3.093H-.871V.943Z" transform="translate(0.871 1.815)"/>
        </g>
        <g id="Group_1159" data-name="Group 1159" transform="translate(112.061 40.994)">
          <path id="Path_1076" data-name="Path 1076" class="cls-3" d="M3.06,1.471a10.467,10.467,0,0,1-.073,1.121H-3.042c.111,1.249,1.067,1.966,2.554,1.966a7.681,7.681,0,0,0,3.18-.679V6.213a8.061,8.061,0,0,1-3.437.662c-3.161,0-5.146-2.041-5.146-4.853A4.663,4.663,0,0,1-1.222-2.831a4.071,4.071,0,0,1,4.282,4.3M-1.24-.661a1.812,1.812,0,0,0-1.8,1.837H.432A1.634,1.634,0,0,0-1.24-.661" transform="translate(5.891 2.831)"/>
        </g>
        <g id="Group_1160" data-name="Group 1160" transform="translate(123.272 40.995)">
          <path id="Path_1077" data-name="Path 1077" class="cls-3" d="M0,.088H2.5l.056.9a5.084,5.084,0,0,0,.018.606A3.208,3.208,0,0,1,5.294-.169a2.493,2.493,0,0,1,.588.055V2.569a1.489,1.489,0,0,0-.606-.111A2.7,2.7,0,0,0,2.738,5.363V9.278H0Z" transform="translate(0 0.169)"/>
        </g>
        <g id="Group_1161" data-name="Group 1161" transform="translate(131.101 40.995)">
          <path id="Path_1078" data-name="Path 1078" class="cls-3" d="M.861.088.934,1.135a2.074,2.074,0,0,1-.073.644H.9A3.649,3.649,0,0,1,4.059-.169c2.077,0,3.2,1.267,3.2,3.694V9.278H4.5V3.984c0-.9-.257-1.653-1.249-1.653A2.168,2.168,0,0,0,1.1,4.7V9.278H-1.657V.088Z" transform="translate(1.657 0.169)"/>
        </g>
        <g id="Group_1162" data-name="Group 1162" transform="translate(37.668 54.936)">
          <path id="Path_1079" data-name="Path 1079" class="cls-3" d="M3.783,2.878c0,3.088-2.041,5.074-5.532,5.074-3.474,0-5.532-1.986-5.532-5.074V-5.54h2.831V2.6a2.49,2.49,0,0,0,2.7,2.756A2.482,2.482,0,0,0,.952,2.6V-5.54H3.783Z" transform="translate(7.282 5.54)"/>
        </g>
        <g id="Group_1163" data-name="Group 1163" transform="translate(51.543 58.723)">
          <path id="Path_1080" data-name="Path 1080" class="cls-3" d="M.861.088.934,1.135a2.074,2.074,0,0,1-.073.644H.9A3.649,3.649,0,0,1,4.059-.169c2.077,0,3.2,1.267,3.2,3.694V9.278H4.5V3.984c0-.9-.257-1.653-1.249-1.653A2.168,2.168,0,0,0,1.1,4.7V9.278H-1.657V.088Z" transform="translate(1.657 0.169)"/>
        </g>
        <g id="Group_1164" data-name="Group 1164" transform="translate(63.066 54.862)">
          <path id="Path_1081" data-name="Path 1081" class="cls-3" d="M.522,0A1.409,1.409,0,0,1,2.047,1.489,1.415,1.415,0,0,1,.522,2.96,1.405,1.405,0,0,1-1,1.489,1.4,1.4,0,0,1,.522,0M1.9,13.308H-.858V4.118H1.9Z" transform="translate(1.004)"/>
        </g>
        <g id="Group_1165" data-name="Group 1165" transform="translate(67.366 58.979)">
          <path id="Path_1082" data-name="Path 1082" class="cls-3" d="M3.375,0-.687,9.3H-2.416L-6.5,0h2.867c.735,1.875,1.617,4.007,2.059,5.532.2-.5.588-1.8.919-2.629L.507,0Z" transform="translate(6.496)"/>
        </g>
        <g id="Group_1166" data-name="Group 1166" transform="translate(77.915 58.721)">
          <path id="Path_1083" data-name="Path 1083" class="cls-3" d="M3.06,1.471a10.467,10.467,0,0,1-.073,1.121H-3.042c.111,1.249,1.067,1.966,2.554,1.966a7.681,7.681,0,0,0,3.18-.679V6.213a8.061,8.061,0,0,1-3.437.662c-3.161,0-5.146-2.041-5.146-4.853A4.663,4.663,0,0,1-1.222-2.831a4.071,4.071,0,0,1,4.282,4.3M-1.24-.661a1.812,1.812,0,0,0-1.8,1.837H.432A1.635,1.635,0,0,0-1.24-.661" transform="translate(5.891 2.831)"/>
        </g>
        <g id="Group_1167" data-name="Group 1167" transform="translate(89.125 58.723)">
          <path id="Path_1084" data-name="Path 1084" class="cls-3" d="M0,.088H2.5l.056.9a5.084,5.084,0,0,0,.018.606A3.208,3.208,0,0,1,5.294-.169a2.493,2.493,0,0,1,.588.055V2.569a1.489,1.489,0,0,0-.606-.111A2.7,2.7,0,0,0,2.74,5.363V9.278H0Z" transform="translate(0 0.169)"/>
        </g>
        <g id="Group_1168" data-name="Group 1168" transform="translate(96.349 58.723)">
          <path id="Path_1085" data-name="Path 1085" class="cls-3" d="M1,1.979C-.71,1.5-1.923.785-1.923-1c0-1.709,1.36-2.811,3.492-2.811a7.873,7.873,0,0,1,2.978.57V-.888a6.95,6.95,0,0,0-2.335-.681,3.213,3.213,0,0,0-.845.036c-.386.074-.772.258-.772.662,0,.459.459.7,1.434.992C4.125.71,5.117,1.446,5.117,3.1c0,1.764-1.453,2.794-3.787,2.794A7.792,7.792,0,0,1-1.8,5.289V2.88a7.641,7.641,0,0,0,3.088.845c.681,0,1.307-.184,1.307-.735,0-.5-.552-.7-1.6-1.01" transform="translate(1.923 3.81)"/>
        </g>
        <g id="Group_1169" data-name="Group 1169" transform="translate(105.463 54.862)">
          <path id="Path_1086" data-name="Path 1086" class="cls-3" d="M.522,0A1.409,1.409,0,0,1,2.047,1.489,1.415,1.415,0,0,1,.522,2.96,1.405,1.405,0,0,1-1,1.489,1.4,1.4,0,0,1,.522,0M1.9,13.308H-.858V4.118H1.9Z" transform="translate(1.004)"/>
        </g>
        <g id="Group_1170" data-name="Group 1170" transform="translate(110.113 56.221)">
          <path id="Path_1087" data-name="Path 1087" class="cls-3" d="M.452.943V-1.815H3.118V.943H5.562v2.15H3.118v3.7c0,.974.57,1.305,1.176,1.305a3.692,3.692,0,0,0,1.562-.386V9.967a5.682,5.682,0,0,1-2.334.424A2.8,2.8,0,0,1,.452,7.781C.434,7.486.4,7.174.4,6.843V3.093H-.871V.943Z" transform="translate(0.871 1.815)"/>
        </g>
        <g id="Group_1171" data-name="Group 1171" transform="translate(117.629 58.979)">
          <path id="Path_1088" data-name="Path 1088" class="cls-3" d="M.126,3.714A2.963,2.963,0,0,0,1.209,3.9c1.214,0,1.839-.808,2.335-1.857L-.242-7.149H2.773l1.065,3.2c.387,1.121.773,2.261,1.085,3.419.239-.515.846-2.74,1.1-3.419l1.065-3.2h2.978L6.5,1.968c-1.047,2.72-2.425,4.08-4.355,4.3A4.973,4.973,0,0,1,.99,6.288a3.3,3.3,0,0,1-.865-.166Z" transform="translate(0.242 7.149)"/>
        </g>
        <g id="Group_1172" data-name="Group 1172" transform="translate(12.932 0.268)">
          <path id="Path_1089" data-name="Path 1089" class="cls-5" d="M40.032,0-77.061,117.093" transform="translate(77.061)"/>
        </g>
      </g>
    </g>
  </g>
</svg>
