<svg xmlns="http://www.w3.org/2000/svg" xmlns:xlink="http://www.w3.org/1999/xlink" width="170.769" height="161.209" viewBox="0 0 170.769 161.209">
  <defs>
    <style>
      .cls-1, .cls-11, .cls-12, .cls-13, .cls-2, .cls-3 {
        fill: none;
      }

      .cls-2 {
        stroke: #0d55a0;
      }

      .cls-11, .cls-12, .cls-13, .cls-3 {
        stroke: #c6c9ce;
      }

      .cls-4 {
        clip-path: url(#clip-path);
      }

      .cls-5 {
        fill: #0d55a0;
        font-size: 7px;
      }

      .cls-5, .cls-6, .cls-7 {
        font-family: Mundial-Regular, Mundial;
      }

      .cls-6, .cls-7 {
        fill: #c6c9ce;
        letter-spacing: 0.005em;
      }

      .cls-6 {
        font-size: 6px;
      }

      .cls-7 {
        font-size: 5px;
      }

      .cls-8 {
        mix-blend-mode: multiply;
        isolation: isolate;
      }

      .cls-9 {
        clip-path: url(#clip-path-3);
      }

      .cls-10 {
        fill: #42454a;
      }

      .cls-11, .cls-12, .cls-13 {
        stroke-width: 0.985px;
      }

      .cls-11 {
        stroke-dasharray: 2.93 1.945;
      }

      .cls-12 {
        stroke-dasharray: 2.938 1.953;
      }
    </style>
    <clipPath id="clip-path">
      <path id="Path_1128" data-name="Path 1128" class="cls-1" d="M0-24.532H170.769V-185.741H0Z" transform="translate(0 185.741)"/>
    </clipPath>
    <clipPath id="clip-path-3">
      <rect id="Rectangle_157" data-name="Rectangle 157" class="cls-1" width="127.018" height="109.602"/>
    </clipPath>
  </defs>
  <g id="Group_1262" data-name="Group 1262" transform="translate(0 185.741)">
    <g id="Group_1212" data-name="Group 1212" transform="translate(7.812 -141.419)">
      <path id="Path_1124" data-name="Path 1124" class="cls-2" d="M-14.82,0h-97.39" transform="translate(112.21)"/>
    </g>
    <g id="Group_1213" data-name="Group 1213" transform="translate(7.846 -160.796)">
      <path id="Path_1125" data-name="Path 1125" class="cls-3" d="M-3.133,0H-23.72" transform="translate(23.72)"/>
    </g>
    <g id="Group_1214" data-name="Group 1214" transform="translate(7.812 -44.751)">
      <path id="Path_1126" data-name="Path 1126" class="cls-2" d="M-14.82,0h-97.39" transform="translate(112.21)"/>
    </g>
    <g id="Group_1216" data-name="Group 1216" class="cls-4" transform="translate(0 -185.741)">
      <g id="Group_1215" data-name="Group 1215" transform="translate(7.591 159.926)">
        <path id="Path_1127" data-name="Path 1127" class="cls-3" d="M-3.133,0H-23.72" transform="translate(23.72)"/>
      </g>
    </g>
    <g id="Group_1217" data-name="Group 1217" transform="translate(34.5 -182.186)">
      <path id="Path_1129" data-name="Path 1129" class="cls-3" d="M0,0V17.81"/>
    </g>
    <g id="Group_1218" data-name="Group 1218" transform="translate(53.877 -182.186)">
      <path id="Path_1130" data-name="Path 1130" class="cls-3" d="M0,0V17.81"/>
    </g>
    <text id="x" class="cls-5" transform="translate(15.961 -91.134)"><tspan x="0" y="0">x</tspan></text>
    <g id="Group" transform="translate(12.246 -175.53)">
      <text id="_1_" data-name="1/" class="cls-6" transform="translate(0 26.491)"><tspan x="0" y="0">1/</tspan></text>
      <text id="_7" data-name="7" class="cls-7" transform="translate(5.588 25.491)"><tspan x="0" y="0">7</tspan></text>
      <text id="x-2" data-name="x" class="cls-7" transform="translate(8.726 25.491)"><tspan x="0" y="0">x</tspan></text>
      <text id="_1_2" data-name="1/" class="cls-6" transform="translate(0 141.998)"><tspan x="0" y="0">1/</tspan></text>
      <text id="_7-2" data-name="7" class="cls-7" transform="translate(5.588 140.998)"><tspan x="0" y="0">7</tspan></text>
      <text id="x-3" data-name="x" class="cls-7" transform="translate(8.726 140.998)"><tspan x="0" y="0">x</tspan></text>
      <text id="_1_3" data-name="1/" class="cls-6" transform="translate(26.064 4)"><tspan x="0" y="0">1/</tspan></text>
      <text id="_7-3" data-name="7" class="cls-7" transform="translate(31.652 3)"><tspan x="0" y="0">7</tspan></text>
      <text id="x-4" data-name="x" class="cls-7" transform="translate(34.789 3)"><tspan x="0" y="0">x</tspan></text>
    </g>
    <g id="Group_1254" data-name="Group 1254" class="cls-4" transform="translate(0 -185.741)">
      <g id="Group_1253" data-name="Group 1253" class="cls-8" transform="translate(38.751 32.69)">
        <g id="Group_1252" data-name="Group 1252">
          <g id="Group_1251" data-name="Group 1251" class="cls-9">
            <g id="Group_1219" data-name="Group 1219" transform="translate(96.889 47.249)">
              <path id="Path_1131" data-name="Path 1131" class="cls-10" d="M-1.472-1.009c-.058-.231-.115-.752-.231-1.272-.058-.174-.058-.289-.174-.231-.058,0-.058.057-.058.174a1.952,1.952,0,0,1,.058.578c-.058.289-.232.4-.868.578l-4.741,1.1V-.142C-7.37-.373-6.1-2.108-5.577-3.033c1.214-1.909,2.6-3.874,2.717-4.048.174-.231.289-.346.231-.463,0-.115-.173-.115-.4-.057L-9.394-6.329c-.925.174-1.272.232-1.388-.057-.057-.115-.115-.347-.174-.463,0-.115-.057-.174-.115-.174-.115,0-.058.115-.058.231a7.727,7.727,0,0,0,.29,1.157c.057.174.115.636.231,1.33.058.174.058.232.174.232.058,0,.058-.058.058-.174a1.773,1.773,0,0,1-.058-.578c0-.232.289-.405,1.1-.636l4.511-.925C-5-6.1-6.04-4.652-6.965-3.264-7.833-1.934-8.932-.257-9.451.552a.621.621,0,0,0-.174.4c0,.116.115.116.346.058L-2.512-.315c.578-.115.867-.057.982.174.058.116.058.232.116.29,0,.115.057.173.115.173S-1.24.205-1.24.032c-.116-.52-.232-.925-.232-1.041" transform="translate(11.143 7.639)"/>
            </g>
            <g id="Group_1220" data-name="Group 1220" transform="translate(30.554 83.291)">
              <path id="Path_1132" data-name="Path 1132" class="cls-10" d="M-1.763-.822c.115.058.174.115.289.174.115.115.174.115.232.058s0-.174-.116-.232c-.4-.347-.693-.636-.809-.693l-.925-.926c-.116-.115-.232-.173-.29-.115s-.057.115.058.174a3.286,3.286,0,0,1,.4.463c.116.289.058.463-.4.983L-6.563,2.706l-.058-.057c0-.232,0-2.429-.057-3.47-.058-2.255-.058-4.684-.058-4.858,0-.289,0-.463-.057-.52s-.232,0-.347.174l-4.452,4.683c-.636.694-.925.868-1.157.752a1.751,1.751,0,0,1-.4-.29c-.058-.057-.116-.115-.174-.057s0,.174.115.231a11.077,11.077,0,0,0,.867.752c.174.116.463.463.983.925.115.116.174.174.232.116s0-.116-.058-.174a1.4,1.4,0,0,1-.347-.463c-.115-.232,0-.521.521-1.157L-8.182-4.06c0,.289,0,2.139.057,3.816.058,1.62.115,3.585.174,4.569,0,.174,0,.346.115.4q.087.087.347-.174l4.8-4.973c.4-.463.636-.52.925-.4" transform="translate(13.351 6.221)"/>
            </g>
            <g id="Group_1221" data-name="Group 1221" transform="translate(59.201 95.225)">
              <path id="Path_1133" data-name="Path 1133" class="cls-10" d="M-.422-.088A13.307,13.307,0,0,1,1.139.027c.521.058.636.232.693.405a.977.977,0,0,1,.058.4c0,.115,0,.174.115.174A.124.124,0,0,0,2.122.9c0-.116.058-.579.058-.694A6.676,6.676,0,0,1,2.3-.492c0-.058,0-.116-.057-.116a.211.211,0,0,0-.174.058c-.115,0-.289.058-.463.058C1.37-.492-.77-.551-1.117-.551A3.3,3.3,0,0,1-1.81-.609c-.289,0-.578-.057-.867-.057-.174,0-.232,0-.232.115,0,.058.058.115.174.115.174,0,.347,0,.4.058a.573.573,0,0,1,.463.636c0,.346,0,.636-.057,2.313L-2.157,4.48c-.057.983-.057,1.85-.115,2.313-.058.29-.115.579-.347.579-.115,0-.231.057-.4.057-.115,0-.174,0-.174.058s.058.115.231.115h1.388c.347,0,.694.058,1.157.058s1.041.058,1.909.115c.4,0,.52,0,.578-.289a7.642,7.642,0,0,0,.174-1.214c0-.115,0-.174-.058-.174s-.115.058-.115.174c-.115.463-.232.693-.521.81A3.206,3.206,0,0,1,.5,7.2C-.6,7.14-.77,6.967-.77,6.215c0-.289.058-1.33.058-1.677V3.671c0-.058,0-.116.057-.116.29,0,1.331.058,1.561.058.405.058.521.232.579.463a.991.991,0,0,0,.057.4c0,.058,0,.116.116.116s.115-.116.115-.232c0-.057.057-.52.057-.752.058-.578.116-.752.116-.81a.2.2,0,0,0-.058-.115c-.058,0-.115.058-.174.115-.115.116-.289.116-.52.174-.232,0-1.5,0-1.735-.057C-.6,2.919-.6,2.861-.6,2.8L-.481.027c0-.057,0-.115.058-.115" transform="translate(3.198 0.666)"/>
            </g>
            <g id="Group_1222" data-name="Group 1222" transform="translate(41.137 90.286)">
              <path id="Path_1134" data-name="Path 1134" class="cls-10" d="M-.989-.215A10.423,10.423,0,0,1-2.146-.851c-.289-.174-.867-.521-1.214-.693-.174-.058-.231-.116-.289-.058s0,.115.115.174a1.19,1.19,0,0,1,.347.231q.26.26,0,.694c-.174.289-.289.578-1.1,2.024l-.925,1.735c-.52.925-.925,1.677-1.214,2.081q-.26.434-.52.347a.5.5,0,0,1-.347-.174c-.115-.058-.174-.058-.174,0-.058.058,0,.115.115.174.405.231.983.52,1.214.636s.868.52,1.446.867c.115.058.174.058.231,0,0-.058,0-.115-.115-.174s-.347-.231-.463-.289c-.289-.174-.231-.4-.115-.693.174-.405.578-1.157,1.1-2.14l.925-1.677A21.348,21.348,0,0,1-1.972.19c.232-.346.347-.463.636-.346.116.057.232.057.289.115.116.057.174.057.232,0S-.874-.157-.989-.215" transform="translate(7.488 1.627)"/>
            </g>
            <g id="Group_1223" data-name="Group 1223" transform="translate(49.024 92.637)">
              <path id="Path_1135" data-name="Path 1135" class="cls-10" d="M-1.311-.394c-.289-.115-.81-.232-.983-.289a6.12,6.12,0,0,0-1.1-.347c-.173-.058-.289-.058-.346,0,0,.058.057.115.174.115.115.058.289.116.4.174.058.058.115.174.058.232,0,.115-.116.231-.232.346C-3.8.473-6.169,3.422-6.978,4.406h-.058L-7.383-.856a2.075,2.075,0,0,1,0-.867c.058-.116.058-.174.174-.174A.51.51,0,0,1-6.8-1.84c.115,0,.173,0,.173-.057s-.057-.116-.231-.174c-.521-.174-1.041-.289-1.272-.347-.347-.115-.925-.347-1.5-.521-.174-.057-.289-.057-.289,0s0,.116.115.116a1,1,0,0,1,.4.174c.347.231.463.4.521,1.041l.752,7.228c.058.578.058.694.174.752.174.058.289-.115.694-.636.4-.463,1.214-1.445,2.37-2.776.983-1.1,1.388-1.619,2.139-2.428.463-.578.694-.694.868-.752a.9.9,0,0,1,.578.057c.115.058.174.058.174-.057,0-.058-.058-.115-.174-.174" transform="translate(9.927 2.981)"/>
            </g>
            <g id="Group_1224" data-name="Group 1224" transform="translate(93.333 71.921)">
              <path id="Path_1136" data-name="Path 1136" class="cls-10" d="M-1.52-.862c-.058,0-.115,0-.174.115a2.047,2.047,0,0,1-.289.463c-.174.289-.463.232-.752.115a8.065,8.065,0,0,1-.983-.463l-.81-.4a2.431,2.431,0,0,1-.925-.636,34.329,34.329,0,0,1-2.2-3.412,1.55,1.55,0,0,1-.232-.752A.9.9,0,0,1-7.766-6.3c.058-.115.058-.174,0-.231-.057,0-.115.057-.174.115A8.267,8.267,0,0,0-8.4-5.373c-.115.289-.346.578-.463.925-.057.115-.057.174,0,.232.058,0,.116-.058.174-.116.116-.173.232-.115.347-.057a1.33,1.33,0,0,1,.463.4c.232.289,1.793,2.6,1.966,2.776-.346,0-3.412.232-3.758.232a.857.857,0,0,1-.405-.058.3.3,0,0,1-.115-.231c.058-.174.058-.232,0-.29s-.115,0-.174.116A10.185,10.185,0,0,0-10.83-.4C-11-.053-11.35.641-11.467.814c-.057.115-.057.174,0,.232s.116,0,.174-.116a.984.984,0,0,1,.347-.346A4.213,4.213,0,0,1-9.905.236c.694-.115,3.47-.347,3.644-.347A1.988,1.988,0,0,1-5.106.178l.81.463a8.849,8.849,0,0,1,.983.521c.289.174.463.347.4.578a.83.83,0,0,1-.115.347c-.058.115-.058.174,0,.174.057.057.115-.058.174-.174.173-.347.463-.983.578-1.214.115-.289.463-.868.752-1.5.058-.115.058-.231,0-.231" transform="translate(11.51 6.529)"/>
            </g>
            <g id="Group_1225" data-name="Group 1225" transform="translate(87.627 80.672)">
              <path id="Path_1137" data-name="Path 1137" class="cls-10" d="M-1.464-1.018l-.4.4c-.232.232-.463.116-.752-.057-.4-.289-1.041-.868-1.792-1.5L-7.767-5.181l.925-.983c.693-.693,1.1-.752,1.33-.52l.115.057c.116.116.174.116.232.058s0-.115-.058-.174c-.231-.174-.752-.693-.925-.867-.115-.116-.174-.116-.231-.058,0,.058-.058.115-.174.232s-.232.346-.463.578L-9.907-3.62a4.617,4.617,0,0,1-.752.752c-.173.174-.346.174-.4.289-.058.058,0,.115.058.232.057.057.636.867.752.982.115.058.115.116.174.058a.109.109,0,0,0,0-.174.884.884,0,0,1-.174-.4c-.058-.29.057-.521.463-.983l1.041-1.214,3.527,2.891C-4.472-.5-3.836.081-3.547.428c.232.231.347.463.232.636a3.547,3.547,0,0,1-.232.346c-.057.116-.115.174-.057.174.057.058.115,0,.231-.115.289-.347.752-.867.868-1.041C-2.331.2-1.812-.266-1.349-.844c.058-.115.115-.174.058-.232s-.115,0-.174.058" transform="translate(11.088 7.706)"/>
            </g>
            <g id="Group_1226" data-name="Group 1226" transform="translate(83.199 87.51)">
              <path id="Path_1138" data-name="Path 1138" class="cls-10" d="M-1.135-.98A2.017,2.017,0,0,1-1.6-.691c-.289.174-.463.058-.694-.174-.289-.346-.809-1.041-1.445-1.908L-4.894-4.334a14.806,14.806,0,0,1-1.33-1.909c-.232-.347-.232-.521-.058-.752l.232-.232c.115-.057.115-.115.057-.173s-.115,0-.231.057c-.347.232-.81.636-1.041.81s-.81.578-1.157.81c-.115.115-.174.174-.174.231.058.058.115.058.232,0s.231-.174.347-.174c.231-.115.4,0,.635.289s.405.521,1.388,1.85l1.215,1.5A14.627,14.627,0,0,1-3.448-.055c.174.289.231.463.058.636L-3.68.87C-3.8.928-3.8.985-3.8,1.044c.058.058.115.058.232-.058.346-.231.867-.693,1.1-.809C-2.234,0-1.656-.4-1.077-.807c.115-.058.174-.174.115-.232s-.115-.057-.174.058" transform="translate(8.595 7.423)"/>
            </g>
            <g id="Group_1227" data-name="Group 1227" transform="translate(67.586 94.581)">
              <path id="Path_1139" data-name="Path 1139" class="cls-10" d="M-1.5-1.048a.624.624,0,0,0-.289.058,2.258,2.258,0,0,1-1.331-.463c-.752-.521-1.734-1.331-2.891-2.313a3.117,3.117,0,0,0,.925-2.66A2.13,2.13,0,0,0-6.131-7.757a3.638,3.638,0,0,0-2.082-.057c-.346.057-1.156.289-1.5.347-.231.057-.925.173-1.446.289-.173.057-.231.057-.231.115s.058.058.174.058a1.3,1.3,0,0,1,.4-.058c.347,0,.463.174.578.521s.174.635.521,2.255l.4,1.85A13.392,13.392,0,0,1-8.906-.181c0,.347,0,.579-.174.636a.82.82,0,0,1-.347.116c-.115,0-.174.057-.174.115s.116.115.232.057A9.058,9.058,0,0,1-8.1.455C-7.923.4-7.114.281-6.535.166c.115,0,.231-.057.173-.174,0-.057-.057-.057-.173-.057s-.347.057-.521.057c-.347,0-.463-.174-.521-.52A14.777,14.777,0,0,1-8.1-2.783l-.058-.174c0-.057,0-.115.058-.115l.925-.174a.434.434,0,0,1,.231.058c.174.115.81.752,1.388,1.272A5.447,5.447,0,0,0-3.76-.644,1.77,1.77,0,0,0-2.545-.7l.982-.232a.153.153,0,0,0,.174-.174c0,.058-.057.058-.115.058M-6.593-3.939a1.282,1.282,0,0,1-.694.346,1.974,1.974,0,0,1-.809.058c-.058,0-.116-.058-.116-.174l-.693-3.238a.215.215,0,0,1,.057-.174,2.4,2.4,0,0,1,.579-.174,1.743,1.743,0,0,1,2.024,1.62,2.293,2.293,0,0,1-.347,1.735" transform="translate(11.393 7.938)"/>
            </g>
            <g id="Group_1228" data-name="Group 1228" transform="translate(77.854 91.003)">
              <path id="Path_1140" data-name="Path 1140" class="cls-10" d="M-.461-.546-.808-.6c-1.1-.231-1.5-.463-1.735-.925A1.122,1.122,0,0,1-1.849-3.09a1.532,1.532,0,0,1,1.33-.057,1.3,1.3,0,0,1,.579.52c.057.116.115.174.174.116S.29-2.628.175-2.859C-.172-3.61-.288-3.9-.346-4.073a.211.211,0,0,0-.174-.058,6.275,6.275,0,0,0-1.388.463C-3.3-2.974-3.815-1.818-3.3-.719-2.89.091-2.2.553-.692.9l.635.115a2.16,2.16,0,0,1,1.735,1.1A1.315,1.315,0,0,1,.926,3.85,1.606,1.606,0,0,1-.982,3.56,2.369,2.369,0,0,1-1.328,3.1c-.058-.057-.116-.173-.174-.115a.257.257,0,0,0,0,.289A12.964,12.964,0,0,0-.924,4.6c0,.346.058.346.232.346A3.414,3.414,0,0,0,.868,4.485,3.313,3.313,0,0,0,2.256,3.329a2.36,2.36,0,0,0,.116-2.139C1.91.264,1.158-.2-.461-.546" transform="translate(3.493 4.131)"/>
            </g>
            <g id="Group_1229" data-name="Group 1229" transform="translate(42.705 17.174)">
              <path id="Path_1141" data-name="Path 1141" class="cls-10" d="M-.029-.675A.615.615,0,0,1,.434-.734a1.387,1.387,0,0,1,.636.579L5.638,5.512c.174.231.289.347.405.289s.115-.174.174-.693c.057-1.1.057-5.262.057-5.841l4.106,4.28c.289.346.4.4.52.4.116-.058.116-.174.116-.578-.116-1.735-.29-5.378-.29-6.824,0-.694-.057-1.1.174-1.272.116-.057.232-.174.347-.174.115-.057.115-.057.115-.174,0-.057-.115-.057-.231,0-.347.116-.752.347-.81.347-.115.058-.521.174-1.1.405-.174.057-.231.115-.174.173,0,.058.115.058.232,0,.4-.173.52-.057.578.116a1.54,1.54,0,0,1,.115.636c.116,1.33.347,4.337.405,5.089h-.058L6.217-2.641c-.232-.289-.347-.405-.463-.347-.058.058-.116.115-.116.463L5.7,3.546H5.638C5.233,3.025,3.094.308,2.689-.271a5.366,5.366,0,0,1-.578-.867.265.265,0,0,1,0-.289.437.437,0,0,1,.232-.115c.115-.058.173-.058.173-.174,0-.058-.115-.058-.231,0a9.832,9.832,0,0,0-1.1.463c-.115.057-.693.231-1.214.4-.115.058-.232.115-.174.174a.108.108,0,0,0,.174,0" transform="translate(0.218 5.113)"/>
            </g>
            <g id="Group_1230" data-name="Group 1230" transform="translate(78.55 19.912)">
              <path id="Path_1142" data-name="Path 1142" class="cls-10" d="M-.021-1.271c.4.232.983.521,1.214.636.289.115.868.521,1.5.81.116.057.174.057.232,0,0-.058,0-.116-.115-.174S2.466-.23,2.35-.287c-.289-.174-.232-.463-.116-.694A22.739,22.739,0,0,1,3.275-3.063L5.357-7,6.571-6.3c.868.463.983.867.868,1.156l-.058.115c-.057.174-.057.232,0,.232.058.057.115,0,.174-.115.115-.232.521-.925.636-1.1.058-.116.115-.232.058-.232s-.116-.057-.29-.115a2.986,2.986,0,0,1-.693-.289L3.449-8.672a6.5,6.5,0,0,1-.925-.578A1.771,1.771,0,0,1,2.177-9.6c-.058-.058-.115,0-.232.115-.057.058-.693.868-.809.983-.058.115-.058.174,0,.174.057.057.115,0,.173-.058a.883.883,0,0,1,.347-.231c.232-.116.521-.058,1.1.231L4.2-7.632,2.118-3.7A22.582,22.582,0,0,1,.962-1.675c-.174.289-.347.463-.579.4a.5.5,0,0,1-.346-.174c-.116-.057-.174-.057-.174,0-.058.058,0,.115.115.174" transform="translate(0.159 9.62)"/>
            </g>
            <g id="Group_1231" data-name="Group 1231" transform="translate(24.529 73.078)">
              <path id="Path_1143" data-name="Path 1143" class="cls-10" d="M-1.343-1.1c.347-.174.578-.174.752.058.058.115.115.173.174.289s.115.174.174.115.058-.115,0-.232a8.065,8.065,0,0,0-.636-1.1,11.352,11.352,0,0,0-.578-1.1c-.058-.116-.116-.174-.174-.174-.058.057-.058.115,0,.231a1.862,1.862,0,0,0,.174.347c.115.347,0,.521-.347.694-.289.174-.578.346-2.024,1.1l-1.214.636C-6.027.288-6.894.75-7.7.461A2.194,2.194,0,0,1-8.918-.579,2.085,2.085,0,0,1-9.15-1.967c.116-.694.579-1.272,1.967-2.024l1.33-.694c1.446-.752,1.735-.925,2.082-1.1s.578-.174.752.058c.057.115.115.174.174.289s.115.115.174.115.057-.115,0-.231c-.174-.347-.521-.925-.636-1.157C-3.482-7-3.771-7.635-4-8.154c-.057-.116-.115-.174-.174-.174-.057.057-.057.115,0,.231A1.221,1.221,0,0,1-4-7.692c.115.346,0,.52-.347.693-.289.174-.578.347-2.023,1.1l-1.62.694a3.631,3.631,0,0,0-2.082,2.2A3.294,3.294,0,0,0-9.612-.522,3.2,3.2,0,0,0-7.877,1.1c1.1.463,2.313-.058,3.412-.636l1.041-.521A19.354,19.354,0,0,1-1.343-1.1" transform="translate(10.166 8.328)"/>
            </g>
            <g id="Group_1232" data-name="Group 1232" transform="translate(92.003 34.681)">
              <path id="Path_1144" data-name="Path 1144" class="cls-10" d="M-.068-.73A1.273,1.273,0,0,1-.3-1.019c-.057-.115-.115-.115-.173-.115-.058.057-.058.115,0,.231.231.347.578.925.693,1.1.058.115.463.867.81,1.388.058.115.115.174.231.115.058,0,.058-.057,0-.174l-.231-.463C.915.773,1.089.6,1.32.368A20.128,20.128,0,0,1,3.285-.9L3.4-.962c.057-.057.115,0,.115.058l.463.81c.057.057.057.115.057.231-.057.232-.463,1.042-.752,1.678A4.7,4.7,0,0,0,2.707,3.9a2.144,2.144,0,0,0,.4,1.1l.521.867c.058.116.115.174.174.116.174,0,.174-.058.115-.116s-.057-.174-.115-.289a2.16,2.16,0,0,1,0-1.445C4.037,3.2,4.5,2.1,5.02.6A3.169,3.169,0,0,0,7.854.6,2.1,2.1,0,0,0,8.779-.789a3.464,3.464,0,0,0-.636-1.966c-.174-.289-.636-.983-.81-1.33-.115-.174-.463-.81-.752-1.272-.058-.115-.115-.174-.232-.174-.057.058-.057.115,0,.232a1.217,1.217,0,0,1,.174.4c.116.347,0,.521-.289.752-.289.174-.578.347-1.966,1.214l-1.62.983c-.867.52-1.619.982-2.023,1.156-.29.116-.521.174-.694.058m4.279-.694L7.044-3.159a.108.108,0,0,1,.174,0c.058.057.174.231.347.463A1.767,1.767,0,0,1,6.7-.21,1.747,1.747,0,0,1,5.02.079,1.1,1.1,0,0,1,4.442-.5,4.409,4.409,0,0,1,4.1-1.251c0-.057,0-.115.115-.174" transform="translate(0.516 5.53)"/>
            </g>
            <g id="Group_1233" data-name="Group 1233" transform="translate(85.777 26.736)">
              <path id="Path_1145" data-name="Path 1145" class="cls-10" d="M-.074-.927c-.058-.058-.174-.115-.289-.232s-.174-.115-.174-.057c-.058.057,0,.115.058.231.173.174.4.347.578.521a2.508,2.508,0,0,0,.463.4l.81.81L2.7,2.08c.289.289.4.346.636.173a5.8,5.8,0,0,0,.925-.809c.058-.058.115-.116.058-.174s-.116-.058-.174.057a.861.861,0,0,1-.925.232,2.9,2.9,0,0,1-.81-.578C1.6.23,1.6,0,2.065-.58c.232-.232.925-.983,1.157-1.214L3.8-2.431c.058-.058.058-.058.115-.058.174.174.983.925,1.1,1.1a.584.584,0,0,1,.174.752,1.254,1.254,0,0,1-.232.289c-.057.058-.057.115,0,.115.058.058.174,0,.232-.057l.521-.521c.4-.4.578-.463.578-.52.057-.058.057-.058,0-.116s-.115,0-.232,0a.936.936,0,0,1-.52-.231c-.174-.174-1.1-.983-1.272-1.157-.058-.057,0-.057,0-.115L6.172-4.975c.057-.057.115-.057.115,0,.174.174.983.925,1.1,1.1.347.4.347.578.289.81a1.819,1.819,0,0,1-.232.347.212.212,0,0,0-.057.173c.057.058.115,0,.174,0a4.106,4.106,0,0,0,.52-.463c.347-.346.521-.4.521-.463.058-.057.058-.057,0-.115a.214.214,0,0,0-.174-.057,3.982,3.982,0,0,0-.4-.29C7.848-4.05,6.287-5.553,6-5.785l-.463-.463L4.9-6.883C4.784-7,4.726-7.057,4.667-7s0,.116.058.174l.289.289c.232.289.174.463-.058.752A21.458,21.458,0,0,1,3.4-4.05L2.181-2.836C1.487-2.084.909-1.448.562-1.159.33-.986.1-.812-.074-.927" transform="translate(0.561 7.022)"/>
            </g>
            <g id="Group_1234" data-name="Group 1234" transform="translate(60.01 16.581)">
              <path id="Path_1146" data-name="Path 1146" class="cls-10" d="M-.026-.062h.4C.725,0,.841.17.841.575.841.922.9,1.211.9,2.888L.783,4.68c0,.983.057,1.85,0,2.313-.058.347-.115.579-.289.579-.116,0-.232.057-.405.057-.115,0-.174.058-.174.116s.058.115.232.115C.378,7.861.668,7.8.9,7.8H4.6c.405,0,.521,0,.578-.289A8.579,8.579,0,0,0,5.294,6.3c0-.115,0-.174-.116-.174-.057,0-.115.058-.115.174-.057.463-.174.693-.463.81a6.577,6.577,0,0,1-1.041.174c-1.1,0-1.272-.116-1.331-.868,0-.289,0-1.33-.057-1.677V3.871c0-.058,0-.116.057-.116H3.79c.405.058.579.174.636.405a.977.977,0,0,1,.058.4c0,.058,0,.115.115.115s.115-.115.115-.231A4.12,4.12,0,0,1,4.773,3.7c.058-.579.058-.752.058-.81a.057.057,0,0,0-.058-.058c-.058,0-.115.058-.174.116a.706.706,0,0,1-.52.173c-.232,0-1.5.058-1.735.058-.058,0-.058-.058-.058-.115L2.228.286c0-.058,0-.115.058-.115H3.848c.521.057.636.173.752.4a.977.977,0,0,1,.058.4c0,.116,0,.174.115.174a.123.123,0,0,0,.115-.115c0-.115.058-.636.058-.694A3.157,3.157,0,0,1,5-.351c0-.058,0-.115-.058-.115s-.115.057-.174.057-.289.058-.463.058c-.232,0-2.371.057-2.717.057H.032c-.174,0-.232,0-.232.116,0,.057.058.115.174.115" transform="translate(0.2 0.466)"/>
            </g>
            <g id="Group_1235" data-name="Group 1235" transform="translate(69.228 17.61)">
              <path id="Path_1147" data-name="Path 1147" class="cls-10" d="M-.023-1.146a4.527,4.527,0,0,0,1.5.636A3.171,3.171,0,0,0,3.274-.568,2.217,2.217,0,0,0,4.661-2.186C4.892-3.228,4.6-4.037,3.5-5.251l-.231-.29c-.752-.867-.925-1.272-.81-1.792.115-.636.693-.983,1.5-.81a1.415,1.415,0,0,1,1.041.752.987.987,0,0,1,.116.752c0,.115,0,.173.057.231.058,0,.116-.058.174-.289.174-.81.289-1.157.289-1.272,0-.057-.057-.115-.115-.174a5.375,5.375,0,0,0-1.388-.463c-1.5-.289-2.66.347-2.891,1.5-.174.867.057,1.677,1.041,2.891l.4.463c.752.867.81,1.388.694,1.908a1.346,1.346,0,0,1-1.677.925A1.485,1.485,0,0,1,.44-2.3v-.578c0-.057,0-.174-.058-.174s-.115.116-.173.232c-.058.174-.232.81-.347,1.388-.058.115-.058.231.115.289" transform="translate(0.173 8.675)"/>
            </g>
            <g id="Group_1236" data-name="Group 1236" transform="translate(20.457 45.321)">
              <path id="Path_1148" data-name="Path 1148" class="cls-10" d="M-1.153-1.593a2.042,2.042,0,0,1-.058.347c-.057.115-.057.174,0,.174a.153.153,0,0,0,.174-.174A9.856,9.856,0,0,1-.806-2.286c.057-.174.231-.636.347-1.1.057-.174.057-.29-.058-.29-.058-.057-.115.058-.115.116-.058.057-.058.231-.174.4a.33.33,0,0,1-.405.232A3.809,3.809,0,0,0-1.674-3.1L-5.721-4.773v-.058c.925-.174,2.428-.4,2.659-.463.347-.058,2.139-.463,2.718-.578C0-5.988.293-5.988.293-6.1c.057-.057-.058-.115-.463-.52l-4.163-3.585v-.058l4.8.636c.346.058.463.115.463.174s0,.115.057.115S1.1-9.4,1.16-9.631A21.325,21.325,0,0,0,1.8-11.77c0-.115,0-.289-.058-.289s-.115.057-.115.174a2.787,2.787,0,0,1-.289.635c-.174.29-.521.29-1.214.232l-6.765-.81c-.232,0-.405,0-.405.115-.057.058,0,.174.174.29L-1.615-6.97-8.324-5.7c-.289.057-.4.115-.4.173s.058.174.231.232l6.65,3.065c.347.115.694.347.694.636" transform="translate(8.728 12.059)"/>
            </g>
            <g id="Group_1237" data-name="Group 1237" transform="translate(31.248 26.23)">
              <path id="Path_1149" data-name="Path 1149" class="cls-10" d="M-.03-.67C.086-.785.259-.9.317-.959a.505.505,0,0,1,.752.174C1.3-.555,1.532-.323,2.63.891L3.9,2.337a20.234,20.234,0,0,1,1.5,1.734c.174.289.289.463.174.636A1.315,1.315,0,0,1,5.29,5c-.116.058-.116.116-.058.174s.115,0,.231-.057a4.463,4.463,0,0,0,.521-.521,2.508,2.508,0,0,1,.463-.4c.174-.174.521-.405.81-.694a6.668,6.668,0,0,0,.983-.81A4.749,4.749,0,0,0,10.09-.728,4.278,4.278,0,0,0,8.933-3.793,3.493,3.493,0,0,0,6.447-5.065c-1.735-.115-3.065,1.1-4.105,2.024-.463.463-.983.925-1.214,1.157S.375-1.248-.088-.844C-.2-.728-.262-.67-.2-.612s.115,0,.174-.058M2.168-2A1.852,1.852,0,0,1,2.63-2.52,4.172,4.172,0,0,1,5.637-3.793a3.613,3.613,0,0,1,2.6,1.331A3.364,3.364,0,0,1,9.4.14a3.588,3.588,0,0,1-1.33,2.255c-.636.578-1.1.694-1.331.636A2.528,2.528,0,0,1,6.1,2.51c-.174-.173-.693-.752-1.5-1.619L3.671-.149C3.093-.785,2.457-1.48,2.225-1.769,2.168-1.884,2.11-1.942,2.168-2" transform="translate(0.226 5.073)"/>
            </g>
            <g id="Group_1238" data-name="Group 1238" transform="translate(25.855 35.584)">
              <path id="Path_1150" data-name="Path 1150" class="cls-10" d="M-.032-.408A1.3,1.3,0,0,1,.2-.7q.26-.26.694,0c.289.174.578.347,1.966,1.214l1.677,1.1A21.384,21.384,0,0,1,6.5,2.946c.231.174.346.347.289.579-.058.115-.058.231-.174.346-.058.116-.058.174,0,.174.058.058.115,0,.231-.115.232-.347.579-.983.694-1.157.174-.231.521-.809.925-1.445.058-.115.058-.174,0-.232s-.115,0-.174.116a2.392,2.392,0,0,1-.347.463c-.231.231-.4.231-.693.057C6.849,1.5,6.1,1.038,5.23.517L3.61-.582C2.223-1.449,1.934-1.622,1.645-1.854s-.4-.4-.289-.693c.058-.115.058-.174.115-.289s.058-.174,0-.232-.115,0-.174.174c-.231.347-.52.925-.693,1.157C.43-1.449.026-.929-.148-.582c-.116.174-.116.232-.058.289s.115,0,.174-.115" transform="translate(0.244 3.09)"/>
            </g>
            <g id="Group_1239" data-name="Group 1239" transform="translate(16.223 12.751)">
              <path id="Path_1151" data-name="Path 1151" class="cls-10" d="M-7.2,0A47.37,47.37,0,0,0-54.516,47.316,47.37,47.37,0,0,0-7.2,94.631,47.37,47.37,0,0,0,40.115,47.316,47.37,47.37,0,0,0-7.2,0m0,93.1A45.837,45.837,0,0,1-52.985,47.316,45.836,45.836,0,0,1-7.2,1.531,45.836,45.836,0,0,1,38.584,47.316,45.837,45.837,0,0,1-7.2,93.1" transform="translate(54.516)"/>
            </g>
            <g id="Group_1240" data-name="Group 1240" transform="translate(66.777 37.341)">
              <path id="Path_1152" data-name="Path 1152" class="cls-10" d="M-.088-.4C.2-.4.433-.867.433-1.677c0-.636-.174-1.388-.579-1.388-.346,0-.52.463-.52,1.272,0,.636.115,1.388.578,1.388" transform="translate(0.666 3.065)"/>
            </g>
            <g id="Group_1241" data-name="Group 1241" transform="translate(64.29 37.341)">
              <path id="Path_1153" data-name="Path 1153" class="cls-10" d="M0-.194C0,.443.115,1.194.578,1.194c.289,0,.521-.463.521-1.272C1.1-.714.925-1.466.521-1.466.174-1.466,0-1,0-.194" transform="translate(0 1.466)"/>
            </g>
            <g id="Group_1242" data-name="Group 1242" transform="translate(61.051 37.167)">
              <path id="Path_1154" data-name="Path 1154" class="cls-10" d="M-.123-.255A.81.81,0,0,0,.4-.429V-.544a.057.057,0,0,0-.058.058A1.187,1.187,0,0,1,.05-.429c-.115,0-.521-.115-.521-.752,0-.347.174-.578.463-.578s.579.289.579.982A2.114,2.114,0,0,1-.412,1.017l-.058.057a.057.057,0,0,0,.058.058h.057A2.471,2.471,0,0,0,1.091-.891,1.036,1.036,0,0,0,.05-1.932a.928.928,0,0,0-.983.925.743.743,0,0,0,.81.752" transform="translate(0.933 1.932)"/>
            </g>
            <g id="Group_1243" data-name="Group 1243" transform="translate(59.259 37.11)">
              <path id="Path_1155" data-name="Path 1155" class="cls-10" d="M-.07-.088c.058,0,.058,0,.058.115V2.11c0,.115,0,.115-.116.174H-.418V2.34c0,.058,0,.058.058.058H.8c.058,0,.058,0,.058-.058V2.283H.624a.3.3,0,0,1-.116-.232V-.609A.056.056,0,0,0,.45-.666a.2.2,0,0,0-.116.057C.219-.551-.475-.03-.475-.03A.056.056,0,0,0-.533.027V.086h.058c.057,0,.346-.174.4-.174" transform="translate(0.533 0.666)"/>
            </g>
            <g id="Group_1244" data-name="Group 1244" transform="translate(61.687 63.478)">
              <path id="Path_1156" data-name="Path 1156" class="cls-10" d="M-.238,0A3.509,3.509,0,0,0-1.8,2.891a3.494,3.494,0,0,1,1.157-.4,2.758,2.758,0,0,1,1.792.4C1.092,1.677.629.4-.238,0m-1.1,2.255V2.139A2.013,2.013,0,0,1-.3.521l.058,1.445a4.307,4.307,0,0,0-1.1.289" transform="translate(1.799)"/>
            </g>
            <g id="Group_1245" data-name="Group 1245" transform="translate(39.772 74.002)">
              <path id="Path_1157" data-name="Path 1157" class="cls-10" d="M-4.083-.4C-4.835.116-5.76.809-5.76.809v1.62A19.557,19.557,0,0,1-4.025,4.106a2.09,2.09,0,0,1,.057,2.37c-.4.405-1.735.694-1.792,1.331,0,.81,1.388,1.1,1.388,2.024,0,.867-.868,1.5-1.157,1.85a2.067,2.067,0,0,0-.289,1.33c0,.579-.463,1.157-1.445.81a1.084,1.084,0,0,1-.925-1.272,1.821,1.821,0,0,1-1.561-.867,1.586,1.586,0,0,1,1.041-.752c.81-.174.4-.983.174-1.214-.694-.752-1.561-.868-1.735-1.909-.231-1.5,1.735-1.85,1.735-1.85V4.626c0-.231-.463-.578-1.214-1.214-1.1-.867-1.735-1.561-1.561-2.776.115-.982,2.2-2.024,2.2-2.024V-3.065l-21.8,6.939A32.4,32.4,0,0,0-7.148,14.8c14.861,0,23.824-10.93,23.824-10.93s-18.736-5.9-20.008-6.3A1.921,1.921,0,0,1-4.083-.4" transform="translate(30.914 3.065)"/>
            </g>
            <g id="Group_1246" data-name="Group 1246" transform="translate(61.167 68.336)">
              <path id="Path_1158" data-name="Path 1158" class="cls-10" d="M0-.035a.887.887,0,0,0,.925,0C.81-.093.752-.266.521-.266S.174-.093,0-.035" transform="translate(0 0.266)"/>
            </g>
            <g id="Group_1247" data-name="Group 1247" transform="translate(22.424 63.363)">
              <path id="Path_1159" data-name="Path 1159" class="cls-10" d="M-.44,0A4.554,4.554,0,0,0-3.331,2.139,4.837,4.837,0,0,0,.081,3.47,5.322,5.322,0,0,1-.44,0M-2.868,2.082l2.081-.29A3.609,3.609,0,0,0-.382,3.123H-.5a3.37,3.37,0,0,1-2.37-1.041" transform="translate(3.331)"/>
            </g>
            <g id="Group_1248" data-name="Group 1248" transform="translate(101.241 63.247)">
              <path id="Path_1160" data-name="Path 1160" class="cls-10" d="M-.1,0A5.82,5.82,0,0,1-.733,3.47a4.385,4.385,0,0,0,3.47-1.215A4.5,4.5,0,0,0-.1,0m0,3.123H-.212A3.68,3.68,0,0,0,.25,1.85L2.274,2.2A2.941,2.941,0,0,1-.1,3.123" transform="translate(0.733)"/>
            </g>
            <g id="Group_1249" data-name="Group 1249" transform="translate(30.368 26.838)">
              <path id="Path_1161" data-name="Path 1161" class="cls-10" d="M-5.048,0a33.207,33.207,0,0,0-33.17,33.17,33.208,33.208,0,0,0,33.17,33.17,33.208,33.208,0,0,0,33.17-33.17A33.208,33.208,0,0,0-5.048,0M10.434,18.7l8.218-7.6c.228.245.451.495.673.747l-7.818,6.757.082.1,7.818-6.758c.222.256.444.512.659.775l-7.343,5.885.079.1,7.343-5.885c.221.273.439.549.652.829L13.245,19.3l.076.1,7.554-5.652c.2.272.4.551.594.829l-7.18,5.01.072.1,7.181-5.011q.281.4.55.816l-7.107,4.553.068.106L22.159,15.6c.182.281.366.561.54.848l-8.118,4.87.064.108,8.116-4.869c.172.286.338.577.5.87l-7.986,4.411.061.11,7.987-4.413c.169.307.33.619.49.931l-8.3,4.18.056.113,8.305-4.181c.151.3.3.6.441.9l-8.858,4.093.053.115,8.857-4.092c.143.309.289.618.423.933l-7.249,3.044.048.116,7.25-3.044c.133.317.256.639.379.961l-8.2,3.122.045.118,8.2-3.123c.115.3.224.613.331.921L17.6,25.362l.041.12,7.992-2.719c.109.319.218.64.317.963l-6.5,1.982.037.121,6.494-1.981q.152.5.288,1.013L19.8,26.575l.033.122,6.472-1.715c.084.321.156.647.231.972L18.069,27.9l.029.122,8.467-1.949q.115.506.213,1.019L17.03,28.945l.023.123L26.8,27.22c.06.323.122.644.174.969L15.76,29.928l.019.124,11.213-1.738c.05.337.089.676.129,1.015l-10.2,1.233.015.126,10.2-1.233q.057.508.1,1.021l-8.985.781.011.125,8.983-.781c.027.34.056.679.072,1.022l-6.654.351a.769.769,0,0,0-.181-.556c-.105-.155-.429-.049-.967.128-.141.046-.294.1-.459.148a1.7,1.7,0,0,0-.981.855,3.577,3.577,0,0,1-.306.427,1.451,1.451,0,0,1-.292.29.272.272,0,0,1,0-.053c0-.014,0-.029,0-.042a.147.147,0,0,1,.03-.069c.065-.1.1-.207-.157-.418a.834.834,0,0,1-.335-.785.193.193,0,0,0-.061-.157c-.09-.073-.253-.04-.461,0l-.043.009a.313.313,0,0,1-.347-.085.553.553,0,0,0,.1-.525.226.226,0,0,0-.138-.184.983.983,0,0,0-.722.161c-.105.07-.106.069-.149.046a.614.614,0,0,0-.112-.049c-.194-.064-.207-.049-.437.181-.033.032-.053.055-.069.071-.031.035-.031.035-.09.052s-.134.041-.292.1c-.135.051-.228.059-.27.022-.062-.055-.019-.216.014-.346l.01-.042c.056-.224.071-.369-.191-.5-.24-.121-.424.149-.543.329l-.019.03a.278.278,0,0,0-.049.178,1.176,1.176,0,0,0-.187-.353c-.261-.348-.217-.411-.131-.536a.925.925,0,0,0,.079-.13.781.781,0,0,0-.133-.574c-.015-.028-.03-.056-.045-.089-.106-.155-.43-.049-.966.128-.141.046-.294.1-.459.148a1.686,1.686,0,0,0-.982.855,3.656,3.656,0,0,1-.306.428,1.435,1.435,0,0,1-.292.289.352.352,0,0,1,0-.052c0-.014,0-.029,0-.043a.153.153,0,0,1,.03-.069c.064-.1.1-.206-.164-.423a.492.492,0,0,1-.165-.156l-.037-.047c.138-.173.21-.257.244-.3.03.016.069.01.128-.018a.631.631,0,0,0,.485-.732.23.23,0,0,0-.138-.184.976.976,0,0,0-.722.162c-.107.07-.107.069-.15.046a.588.588,0,0,0-.111-.05c-.154-.05-.2-.014-.311.081-.033.027-.073.059-.128.1s-.073.077-.091.1-.027.032-.082.043l-.083.019a.381.381,0,0,0-.119-.062,1.033,1.033,0,0,1-.112-.048c-.05-.016-.111-.031-.143.006s-.009.1.027.177c-.069.016-.146.021-.18-.02-.047-.056-.016-.2.087-.413.056-.224.07-.37-.192-.5-.242-.122-.424.149-.542.329l-.02.03a.262.262,0,0,0-.047.135,1.075,1.075,0,0,0-.13-.252c-.261-.348-.217-.411-.131-.536a.941.941,0,0,0,.079-.131.734.734,0,0,0-.178-.6c-.106-.155-.43-.049-.966.128-.141.046-.294.1-.459.148a1.688,1.688,0,0,0-.982.855c-.016.025-.033.05-.049.076V16.747C4.345,14.108,2.99,10.258.841,6.86L2.11,1.573c.326.074.654.144.976.227L1.6,7.363l.122.033L3.208,1.835c.322.085.641.179.959.273L2.178,8.518l.121.037,1.99-6.412c.332.1.659.208.985.318L3.161,8.631l.12.041L5.393,2.5c.32.109.64.22.955.338L3.625,9.786l.117.045L6.465,2.887c.322.122.644.246.962.379L4.435,10.247l.116.049L7.544,3.313c.308.13.609.273.912.412L5.419,10.187l.114.053L8.572,3.777q.466.217.923.449L5.42,12.151l.112.057L9.606,4.283c.29.148.582.293.866.45L6.346,12.148l.111.062L10.582,4.8c.293.161.582.33.87.5L7.331,12.147l.108.065,4.123-6.852c.3.181.595.369.889.559L8.373,12.145l.105.069,4.078-6.227c.275.179.549.36.818.548L9.415,12.143l.1.073,3.959-5.609c.291.2.583.4.866.617L9.705,13.3l.1.076L14.443,7.3c.259.2.512.4.765.6L10,14.279l.1.08,5.214-6.377c.262.212.518.43.773.65L10.749,14.74l.095.083,5.332-6.109c.264.229.526.46.782.7l-5.513,5.847.091.086L17.049,9.5c.236.22.472.442.7.669L12.313,15.6l.089.089,5.438-5.439c.247.247.485.5.724.758l-8.217,7.6ZM-3.3,41.872l0,.01c-.2-.161-.449-.276-.529-.558-.115-.346,0-.809-.174-1.214-.289-.693-1.157-.752-1.5-.752-.579,0-.694.058-1.446.521a1.046,1.046,0,0,1-.231.52c-.579.579-1.5.347-2.082,1.272a1.839,1.839,0,0,0-.2.457l-3.956.745c-.032-.415-.033-.874-.033-1.144,0-.128-.01-.343-.023-.591-.015-.292-.032-.622-.034-.876h.013a.152.152,0,0,0,.148-.084.567.567,0,0,0-.036-.4.881.881,0,0,0,.173.076.089.089,0,0,0,.093.013c.049-.031.038-.117.017-.253a.689.689,0,0,1-.015-.168,1.792,1.792,0,0,0,.409-.3c.091-.122.168-.241.236-.347.187-.294.324-.507.6-.507a1.292,1.292,0,0,1,.519.111.64.64,0,0,0,.237.062h0c.043-.01.079-.017.11-.023.069-.013.119-.023.147-.063s.024-.117,0-.247a.815.815,0,0,0-.044-.093.191.191,0,0,0,.03-.029.755.755,0,0,0,.089-.111l.012-.019a.719.719,0,0,1,.023.09.915.915,0,0,1-.044.246c-.022.074-.035.118,0,.142s.087,0,.272-.131c.049-.035.086-.048.108-.036.058.03.057.227.056.371,0,.206,0,.333.071.373a.1.1,0,0,0,.107-.011.376.376,0,0,0,.214-.365c.006-.105.01-.153.111-.153.026,0,.043.01.054.012a.052.052,0,0,0-.005.045c.015.039.066.081.53.174l.082.017c.492.1.641.128.706.063.045-.044.032-.118.013-.229l-.011-.066a.924.924,0,0,0-.1-.229.533.533,0,0,1-.029-.052c.015,0,.041.012.082.028a.722.722,0,0,0,.434.164.111.111,0,0,0,.076-.061,1.874,1.874,0,0,1,.154-.255.39.39,0,0,0,.183.016.359.359,0,0,0,.236-.16.61.61,0,0,0,.09-.567c-.017-.086-.032-.161,0-.187s.127-.026.283.013c.022.007.089.03.125-.013.053-.064-.022-.21-.148-.442a1.247,1.247,0,0,1-.136-.3l.005,0a.977.977,0,0,1,.38.1c.253.095.412.148.483.088a.108.108,0,0,0,.025-.115.376.376,0,0,1,.008-.38,1.009,1.009,0,0,0,.05-.114.535.535,0,0,1,.12-.129.9.9,0,0,0,.225-.272.092.092,0,0,0,.017-.087c-.019-.038-.071-.04-.148-.042a.622.622,0,0,1-.508-.2c-.088-.1-.086-.139-.081-.15.013-.031.111-.039.2-.046.155-.012.35-.027.406-.17.068-.112.276-.5.122-.709q-.159-.22-.735-.092a2.28,2.28,0,0,0-.37.089.727.727,0,0,0,0-.177c-.065-.389.018-.512.079-.6a.241.241,0,0,0,.034-.271c-.21-.529-.428-.835-.646-.911a.312.312,0,0,0-.268.027c-.11.063-.2.126-.27.176a.578.578,0,0,1-.168.1.007.007,0,0,1-.006,0c-.008,0-.028-.031-.028-.187a1.18,1.18,0,0,0-.3-.774.181.181,0,0,0-.08-.038c-.084-.025-.2-.061-.2-.344,0-.338-.075-.587-.2-.665a.194.194,0,0,0-.191,0c-.075.016-.112.033-.128.059a.07.07,0,0,0,0,.062c0,.014,0,.017,0,.023s-.047.045-.208.086a1.3,1.3,0,0,0-.4.12.563.563,0,0,1-.092.036h0c-.007-.009-.01-.046.008-.175.01-.075.017-.133.023-.18.016-.144.017-.147.1-.141.022,0,.048,0,.069,0a.59.59,0,0,0,.506-.049.225.225,0,0,0,.055-.221.5.5,0,0,0-.181-.347.323.323,0,0,0-.262-.025.638.638,0,0,1-.27-.015c-.137-.028-.268-.056-.383.139a2.011,2.011,0,0,0-.138.154c-.087.1-.106.126-.3.126a.487.487,0,0,0-.263.082l-.013.008c0-.038.012-.114.02-.168s.012-.1.017-.141a1.217,1.217,0,0,1,.016-.125h0a.29.29,0,0,0,.169,0,.243.243,0,0,0,.2-.241c0-.056-.047-.243-.431-.286a1.622,1.622,0,0,0-.634.046.281.281,0,0,1-.158.017.45.45,0,0,1-.068-.193c-.019-.089-.034-.159-.087-.171s-.089.036-.123.082a.489.489,0,0,1-.5.161c-.016-.009-.062-.035-.026-.126.125-.168.181-.264.145-.319s-.111-.036-.181-.018a.532.532,0,0,0-.252.119.255.255,0,0,1-.263.054,1.039,1.039,0,0,1-.343-.087c-.124-.047-.222-.084-.282-.043a.117.117,0,0,0-.043.105.491.491,0,0,0,.146.275c.126.154.235.287.039.451-.254.212-.222.315-.158.418a.141.141,0,0,1,.03.069c0,.014,0,.028,0,.043a.344.344,0,0,1,0,.051.674.674,0,0,1-.143-.127V18.078c1.966,1.272,2.487,3.3,3.238,4.741l-.463.521c.4.057.636-.116.81,0a12.676,12.676,0,0,0-1.446,2.139,6.1,6.1,0,0,1,1.735-.058c-.694.289-1.735.174-2.2.983a11.448,11.448,0,0,0,1.909.693A12.413,12.413,0,0,0-8.4,26.4c-.925-1.331-.693-2.776-1.561-3.7.463-.925.925-1.446,1.388-2.371a35.464,35.464,0,0,1,2.948,3.643l-.635.694a4.016,4.016,0,0,1,1.445-.058c-1.792-.115-1.677,1.735-2.2,2.776.868-.115,1.446-.289,1.793-.289.4,0,.289.116.4.232a7,7,0,0,1-1.908.4,1.1,1.1,0,0,0-.925.925,13.276,13.276,0,0,0,2.6,1.157,7.067,7.067,0,0,0,2.6-1.157,5.885,5.885,0,0,0-.4-.867A28.472,28.472,0,0,1-4.412,23.86c0-.52,2.544-2.891,2.949-3.18a15.935,15.935,0,0,0,1.388,2.2l-.463.52c.4.058.693-.115.925,0a3.4,3.4,0,0,0-1.561,2.256,3.838,3.838,0,0,1,1.1-.289c.4,0,.346,0,.463.057-.694.347-1.446.232-1.909,1.157a6.776,6.776,0,0,0,1.735.693A12.413,12.413,0,0,0,2.3,26.578C1.833,25.248.734,23.05.734,22.646s1.735-2.66,2.718-4.222V28.9a1.023,1.023,0,0,1-.082-.471.191.191,0,0,0-.062-.157c-.09-.074-.254-.041-.46,0l-.038.008a.146.146,0,0,0-.115.076c-.036.078.023.181.066.256l.01.017-.005,0a1.094,1.094,0,0,1-.244-.112c-.105-.059-.168-.1-.209-.06s-.021.085.01.158a1.041,1.041,0,0,1,.031.511.562.562,0,0,0-.215-.2.993.993,0,0,1-.094-.062.072.072,0,0,0,.044-.052c.005-.03-.013-.065-.057-.108a.286.286,0,0,0-.22-.111.916.916,0,0,0-.556.2.1.1,0,0,0-.023-.043c-.054-.061-.182-.082-.387-.06-.24.027-.286.115-.283.183.009.138.241.286.393.286h0c.11.028.107.054.092.181a1.277,1.277,0,0,0,0,.371,1.6,1.6,0,0,1,.02.168l-.013-.008a.485.485,0,0,0-.263-.082c-.225,0-.225,0-.342-.154C.425,29.6.394,29.555.359,29.51c-.048-.08-.087-.115-.13-.121s-.085.03-.122.069a.231.231,0,0,1-.231.094.33.33,0,0,0-.264.025.5.5,0,0,0-.181.348c-.019.092-.011.148.025.18.053.045.143.012.256-.03a1.565,1.565,0,0,1,.163-.055A.56.56,0,0,1-.036,30c0,.009,0,.027,0,.043a1.066,1.066,0,0,0,.044.352,1.02,1.02,0,0,1,.017.174c-.014,0-.038-.016-.061-.026a1.318,1.318,0,0,0-.437-.126c-.165-.042-.2-.072-.213-.087s0-.009,0-.023a.073.073,0,0,0,0-.062c-.016-.026-.053-.043-.128-.059a.186.186,0,0,0-.19,0c-.126.078-.2.326-.2.665,0,.283-.116.318-.2.344a.209.209,0,0,0-.073.032,1.067,1.067,0,0,0-.306.78.159.159,0,0,1-.01.073h0c-.026,0-.1-.077-.148-.123-.1-.1-.193-.2-.276-.168-.046.016-.074.067-.085.156-.108.725-.39.743-.639.759-.14.009-.272.017-.342.159a.24.24,0,0,0,.043.278.739.739,0,0,1,.128.6.732.732,0,0,0,.153.541c-.077-.024-.207-.062-.4-.108-.4-.089-.664-.045-.789.13a.729.729,0,0,0,.057.724c.082.2.076.215-.033.407-.036.065-.082.146-.139.26-.079.157-.094.257-.046.313.069.083.234.036.394-.01.033-.01.065-.019.094-.026l.01,0a1.323,1.323,0,0,0,.126-.1c.053-.043.109-.094.14-.086.01,0,.023.022.032.05a.409.409,0,0,0,.086.141c.058.071.1.122.029.3a1.062,1.062,0,0,1-.089.238c-.05.105-.089.187-.049.252.031.049.1.071.228.071.281,0,.417.213.606.508.068.105.144.224.234.345a.268.268,0,0,0,.2.139h0c.118,0,.214-.128.316-.263a.774.774,0,0,1,.271-.269c.317-.128.425-.328.483-.895.005-.047.015-.129.023-.2,0,0,0,.005,0,.008.007.041.016.087.025.136a2.15,2.15,0,0,1,.028.225c.016.181.03.338.122.377.052.022.113,0,.194-.062a1.278,1.278,0,0,0,.315-.483c.062-.135.12-.262.184-.262a.566.566,0,0,1,.253.191.868.868,0,0,1,.235.64.952.952,0,0,1-.023.134c-.016-.033-.036-.091-.053-.14a2.053,2.053,0,0,0-.152-.354c-.053-.089-.095-.127-.14-.128h0c-.053,0-.088.051-.128.11a.5.5,0,0,1-.182.182c-.155.117-.167.139-.167.22a.566.566,0,0,1-.019.148c-.019.1-.146.094-.348.078s-.484-.036-.52.213a.873.873,0,0,0,.008.311.218.218,0,0,1,.006.054.753.753,0,0,1-.213.012c-.176,0-.23,0-.251.039s0,.069.045.131a1.594,1.594,0,0,1,.176.34.589.589,0,0,1,.055.274v.08l.056-.056a1.047,1.047,0,0,1,.332-.223.089.089,0,0,1,.016.078l-.01.062c-.02.112-.033.186.012.23.066.065.215.035.706-.064l.083-.017c.285-.061.342-.107.342-.156s-.034-.062-.1-.082a.328.328,0,0,1,.114.049l.139.071c.087.052.128.072.161.052s.027-.063.018-.14A1.754,1.754,0,0,1,.188,37.8c.021-.082.036-.148.049-.2l.023-.091a.817.817,0,0,0,.282.369c.24.171.248.194.269.246a.7.7,0,0,0,.129.21c.046.057.106.122.165.1.079-.029.078-.182.07-.43,0-.052,0-.105,0-.152a.656.656,0,0,1,0-.09l.024.03a.723.723,0,0,0,.148.141c.04.041.071.038.088.025.053-.032.035-.178.01-.3l.082-.163-.017-.016c-.005-.005-.005-.008-.005-.008s.063-.051.155-.051a1.02,1.02,0,0,1,.371.1.17.17,0,0,1-.052.135,1.106,1.106,0,0,1-.161.176,1.13,1.13,0,0,0-.306.414c-.025.124-.032.2,0,.241s.077.05.147.063c.031.006.068.012.107.022a.066.066,0,0,0,.071-.009c.032-.03.017-.089-.006-.177s-.058-.225-.01-.287a.152.152,0,0,1,.128-.045c.282,0,.417.213.607.508.067.105.144.225.234.346a.356.356,0,0,0,.238.172A.274.274,0,0,0,3.221,39l.148.148c-.057-.005-.121-.013-.186-.022a2.7,2.7,0,0,0-.367-.032c-.181,0-.23,0-.249.04s.009.068.059.132a1.854,1.854,0,0,1,.218.338.586.586,0,0,1,.056.275v.08l.056-.057a1.071,1.071,0,0,1,.334-.223,1,1,0,0,0,.1-.037.751.751,0,0,0-.082.172c-.006.022-.011.043-.016.062-.025.091-.041.152,0,.194s.11.047.309.021c0,.26.019.641.034.98.013.286.024.532.024.66,0,.276-.029.9-.082,1.392Zm-.82,2.69a3.85,3.85,0,0,1,1.792-.925,14.663,14.663,0,0,1-1.561,1.85c-.174-.115-1.272-.925-1.272-1.214,0-.231.116-.4.116-.752A7.455,7.455,0,0,0-4.3,43.29V44.5s-.058.057.174.057M-5.8,43.174c-.232,0-.694-.115-1.1-.174l-.174.174c.636,1.331,4.915,3.47,4.915,5.147,0,.81-1.446,1.33-1.792,1.5a4.379,4.379,0,0,0-.116-1.619c-.289-1.214-5.089-3.355-5.089-5.031a2.278,2.278,0,0,1,2.429-2.081,5.368,5.368,0,0,1,3.065,1.1,2.865,2.865,0,0,1-2.139.982m-2.487,8.1c0-.578,1.272-1.214,1.792-1.5a3.6,3.6,0,0,0,.4,1.85C-4.932,53.236-2.5,54.45-2.5,55.549c0,.752-1.041,1.157-1.619,1.388V55.781c0-1.331-4.106-2.892-4.163-4.511m1.041,6.592c-.058-.463.578-.636,1.041-.752a2.72,2.72,0,0,0,1.1,1.446c.289.115,1.85,1.041,1.793,1.677,0,.521-.405.521-.926.983a5.338,5.338,0,0,0-.057-.925c-.868-.694-2.776-1.446-2.949-2.429m2.6,5.379s0,.115-.231.115-.405-.174-.521-.463V60.118c.752,0,.81,1.1.81,1.445a8.887,8.887,0,0,1-.058,1.678m.115-4.858a6.681,6.681,0,0,1-.752-.578V55.086c.347.174.752.579.752.868Zm.116-5.725a1.585,1.585,0,0,1-.752-.983V47.743a2.945,2.945,0,0,1,.752.52Zm-.752-11.8v-.752h.405c.231,0,.347.232.52.405v.635c-.346-.115-.635-.173-.925-.289M-37.452,33.17c0-.151.01-.3.011-.45l5.827.1c-.123.11-.11.237-.066.414l.011.043c.033.129.074.291.013.345-.04.036-.134.029-.269-.022-.161-.061-.244-.086-.294-.1s-.058-.018-.09-.053c-.015-.016-.036-.038-.071-.074-.051-.038-.091-.071-.123-.1-.116-.1-.161-.13-.311-.081a.576.576,0,0,0-.112.05c-.043.024-.044.023-.149-.046a.986.986,0,0,0-.723-.162.229.229,0,0,0-.137.184.623.623,0,0,0,.077.416l-3.58.043c0-.171-.014-.339-.014-.51m4.168,4.887a.1.1,0,0,0,.087.025c.1-.025.171-.223.274-.546.048-.152.128-.405.172-.413,0,0,.013.005.031.049a2.512,2.512,0,0,1-.052,1.23l-.54.054-.589-.589Zm-.071,2.3.613-.949a.585.585,0,0,1,.137.351c0,.2.44.533.629.667a3.818,3.818,0,0,1-1.385-.056s.005-.012.006-.013m-2.158-1.839a1.794,1.794,0,0,1,.457-.052c.278,0,.557.049.621.158.029.048.005.11-.069.185a1.759,1.759,0,0,1-.462.225c-.225.084-.42.158-.468.294-.034.012-.064.026-.092.038-.048.02-.1.043-.116.033s-.022-.023-.022-.1a1.8,1.8,0,0,0-.038-.332c-.043-.232-.069-.371.187-.445M-31.9,40.75c.016-.021.055-.03.136-.03s.07.008.077.052c.015.095.052.194.312.292l.105.053.105.233a1.769,1.769,0,0,1-.676-.2c-.062-.217-.092-.352-.06-.4m.91-.395a.174.174,0,0,1-.012.032c0-.022,0-.034,0-.036h0a.014.014,0,0,1,.01,0m.393-4.948.743.651a5.167,5.167,0,0,1-1.128.607h-.008c0-.016.026-.073.176-.234a1.263,1.263,0,0,0,.217-1.022m4.018,3.577-.008.006a.354.354,0,0,0-.014.387h0c-.058-.028-.168-.093-.292-.166a1.056,1.056,0,0,1-.141-.084c-.026-.017-.053-.035-.082-.052a3.057,3.057,0,0,0,.332-.148l.01-.005a1.224,1.224,0,0,1,.447-.222.7.7,0,0,1-.252.283M-27,41.416c-.017-.193-.043-.483-.044-.83a1.442,1.442,0,0,1,.269-.157l.889-.388a.509.509,0,0,1,0,.1.3.3,0,0,0,.054.242.514.514,0,0,0,.365.11,2.073,2.073,0,0,1-.587.376l-.056.027a4.415,4.415,0,0,0-.633.715l-.127.16a.5.5,0,0,1-.116.12.687.687,0,0,1,0-.15c0-.039,0-.081,0-.123s-.006-.105-.014-.2m.848-1.4-.012,0c-.2.08-.294.039-.325.017a.066.066,0,0,1-.034-.044v-.079l-.115.114-.006.009a1.97,1.97,0,0,1-.463.415l-.05-.541c.24,0,.389-.007.5-.01a1.685,1.685,0,0,1,.6.063.166.166,0,0,1-.1.055m.627-7.743c-.038.046-.046.056-.239.172a.558.558,0,0,0-.218.208.9.9,0,0,1,.034-.457l0-.012a.411.411,0,0,1,.1-.2l.022.005a.118.118,0,0,0,.152-.055.147.147,0,0,0,.087.015,1.384,1.384,0,0,0,.145.229c-.042.043-.064.071-.082.092m-3.853,9.394c.118.105.2.177.291.177h.02c.129-.015.256-.168.572-.62a6.466,6.466,0,0,1,.5-.685c.072-.085.093-.111.08-.144s-.043-.033-.095-.039a1.174,1.174,0,0,1-.384-.105,1.6,1.6,0,0,1-.6-.731c-.105-.2-.188-.356-.3-.386a.146.146,0,0,0-.121.02c-.041.024-.09.056-.142.089a1.629,1.629,0,0,1-.415.221c0-.01-.01-.077.253-.436a6.142,6.142,0,0,0,.406-.595,1.056,1.056,0,0,1,.181-.252.143.143,0,0,0,.059.055.293.293,0,0,1,.049.034.261.261,0,0,0,.031.087.184.184,0,0,1,.025.072l0,.012a1.788,1.788,0,0,1,.066.7c-.008.244-.015.436.095.5.082.046.208,0,.409-.135a2,2,0,0,1,.338-.174l.035-.016c-.071.148-.124.283-.079.381a.186.186,0,0,0,.117.1.7.7,0,0,0,.059.33c.056.225.111.449.168.674a.522.522,0,0,0-.18.358,2.294,2.294,0,0,1-.161.509,2.773,2.773,0,0,0-.178,1.2c0,.052,0,.1,0,.144,0,.33,0,.488-.083.488a2.224,2.224,0,0,1-.779-.675A.761.761,0,0,0-29.2,42.7c-.053-.073-.073-.1-.161-.8-.012-.094-.024-.174-.036-.243l.016.015m1.174-6.55a.355.355,0,0,1-.29.2.354.354,0,0,1-.29-.2,1.1,1.1,0,0,1-.1-.254.681.681,0,0,0-.47-.542l.209-.083a.834.834,0,0,1,.89.056c.38.272.227.528.049.824m.233,7.2c.01-.041.024-.1.042-.178A6.821,6.821,0,0,1-27.6,41a1.878,1.878,0,0,1,.145.614l0,.015c.116.233.1.26-.01.433a3.315,3.315,0,0,0-.165.291,7.154,7.154,0,0,0-.306.835,3.744,3.744,0,0,1-.036-.871M-27.4,41a.927.927,0,0,0-.047-.138.484.484,0,0,1,.218-.178c-.005.309-.056.445-.088.458-.005.005-.023-.01-.029-.015A.313.313,0,0,1-27.4,41m.115-.5-.224.179v-.011l-.015.015c-.034-.148-.069-.332-.1-.512-.016-.087-.032-.174-.049-.257h.39Zm1.709-8.6Zm.913,1.09c0-.018-.006-.035-.009-.052l.071.035.038.01c.127.031.3.074.31.129,0,.021-.021.055-.075.1a.322.322,0,0,1-.341.062.624.624,0,0,0,.005-.279m1.236,4.084c.007-.1.015-.215.023-.345.078-.01.147-.023.207-.033.276-.049.381-.068.6.2.135.135.42.125.647.116a1.224,1.224,0,0,1,.253.005,3.073,3.073,0,0,0-1.559.571.643.643,0,0,1-.173.1l-.005,0a1.792,1.792,0,0,1,0-.613m-.381,3.384a1.131,1.131,0,0,1,.2-.569l.071.144a.084.084,0,0,0-.043.069,2.093,2.093,0,0,0-.148.347c-.017.049-.037.107-.053.139a1.048,1.048,0,0,1-.023-.129m1.073-.592c.053.058.081.089.122.081s.055-.061.076-.172a.853.853,0,0,0,.048-.128l.016-.047c0,.012.007.025.011.039a.685.685,0,0,1,.035.186c.01.077.018.149.025.216.036.332.062.555.207.665v.1a2.543,2.543,0,0,1,.043.345c-.016-.012-.042-.036-.063-.056a1.173,1.173,0,0,0-.279-.208.472.472,0,0,1-.251-.233A.684.684,0,0,0-23,40.38c-.01-.065-.072-.125-.187-.182a.721.721,0,0,1-.163-.171c-.056-.076-.114-.145-.185-.132l-.092-.183a.483.483,0,0,1,.248-.148.336.336,0,0,0,.088-.015c.074-.021.15-.04.354.123a1.654,1.654,0,0,1,.2.192m1.25-6.426a1.09,1.09,0,0,1,.2-.409h.112l.008-.005.049-.034c.133-.095.2-.144.546.2a.585.585,0,0,0,.606.126c.014,0,.02.011.021.069l-.049.048a.936.936,0,0,0-.09.12.874.874,0,0,1-.082.112.184.184,0,0,1-.151.048l-.01,0a.564.564,0,0,1-.283.012,1.377,1.377,0,0,0-.155-.014.739.739,0,0,0-.534-.231.854.854,0,0,1-.189-.046m.332,7.616c.065-.088.122-.175.178-.26a3.279,3.279,0,0,1,.2-.281,2.087,2.087,0,0,0,.025.927c-.1.575-.207.833-.255.833a.687.687,0,0,1-.2-.264.563.563,0,0,1,.056-.212,1.5,1.5,0,0,1,.175-.337c.041-.062.063-.1.045-.131s-.075-.04-.252-.04a1.6,1.6,0,0,0-.266.03,1.8,1.8,0,0,1-.234.029l-.05-.1a.893.893,0,0,0-.072-.093c-.041-.047-.052-.061-.084-.271.029.026.057.054.087.082a.633.633,0,0,0,.386.238h.013a.354.354,0,0,0,.247-.149m2.023-3.909a.651.651,0,0,1,.434-.08.143.143,0,0,1,.086.046v.074a2.8,2.8,0,0,1-.52-.04m.587.332a.4.4,0,0,0,.046-.015.53.53,0,0,1,.194-.038l.021.024a.551.551,0,0,0,.286.193,1.728,1.728,0,0,1-.4.4.207.207,0,0,1-.031-.138c-.023-.089-.044-.159-.063-.221a1.006,1.006,0,0,1-.05-.2m.812.26a3.817,3.817,0,0,0,.16-.371h.022a1.246,1.246,0,0,0,.5.089,2.877,2.877,0,0,1,.714.114c-.173.1-.382.2-.567.283a1.861,1.861,0,0,0-.58.332Zm1.327-2.251.284-.077a.194.194,0,0,0,.035.08c-.058,0-.117,0-.176,0l-.142,0m.693-4.326-.005,0c-.124-.043-.236-.08-.338.008a1.337,1.337,0,0,1,.107-.411,4.7,4.7,0,0,1,.486-.644Zm.192,7.849.031.122.005.031c.023.126.04.221.046.273l-.019-.018a1.169,1.169,0,0,0-.229-.181.633.633,0,0,0,.166-.227m-.093-3.286c.07.019.143.036.216.054.272.065.553.132.6.252a2.046,2.046,0,0,0-.41.08l-.113.03a1.267,1.267,0,0,0-.289-.415m1.981-2.114c-.1.058-.18.112-.243.155s-.139.1-.165.088-.021-.028-.03-.054V32.778a.643.643,0,0,1,.268.128.492.492,0,0,1,.169.7m-.645,5.662a1.232,1.232,0,0,1-.168-.536l.006-.01,0-.012a.5.5,0,0,1-.018-.147c0-.081-.011-.1-.165-.216l-.035-.035c.062-.074.162-.224.271-.386l.016-.023-.156-.143c.206.14.375.225.476.19a.115.115,0,0,0,.074-.093c.01-.049.018-.1.025-.135,0,0,0-.005,0-.008.01.069.017.149.023.194,0,.108.2.206.423.319.157.078.37.184.386.252a4.485,4.485,0,0,1-.379.458,3.012,3.012,0,0,0-.534.7,1.379,1.379,0,0,1-.233-.347l.005-.019Zm-.35.347c0-.113-.01-.231.054-.282a.274.274,0,0,1,.233-.013,4.273,4.273,0,0,0-.027.509,3.487,3.487,0,0,1-.043.638c-.042-.071-.146-.337-.25-.606a.4.4,0,0,0,.033-.246m2.428-7.833.142.028a.47.47,0,0,1,.184.217Zm.372.318.415.312-.456.274a1.055,1.055,0,0,0,.041-.586m.963,4.42a.649.649,0,0,1,0,.085,1.788,1.788,0,0,1-.083-.181c.054.021.088.045.088.1m.015-.432c-.028.018-.052.035-.073.05l0,0,0-.008c.042-.126-.112-.2-.26-.265a.975.975,0,0,1-.233-.132,2.437,2.437,0,0,1,.612-.111.794.794,0,0,0,.126.1c.055.037.1.069.1.105,0,.053-.092.14-.28.266m-.518,1.317a1.036,1.036,0,0,1,.354-.1,1.026,1.026,0,0,1,.132.534.236.236,0,0,1-.043.125l-.013.011a3.885,3.885,0,0,0-.307-.412c-.049-.06-.1-.127-.123-.158m1.217-5.374.2-.691.395.642Zm1.238,2.493a.453.453,0,0,0-.39-.014,2.191,2.191,0,0,1-.319.07c-.07.01-.114,0-.131-.028-.049-.079.068-.3.156-.432l1.06-.334.37.845c-.142-.016-.516-.062-.746-.108m.539,3.269a.9.9,0,0,1-.7-.083.365.365,0,0,0-.219-.105.16.16,0,0,0-.036,0c0-.02-.013-.06-.023-.113a.532.532,0,0,1-.018-.146c0-.081-.011-.1-.173-.222a.493.493,0,0,1-.176-.178c-.041-.06-.076-.111-.129-.111h0c-.045,0-.088.04-.141.128a1.952,1.952,0,0,0-.152.354c-.017.049-.037.107-.053.139a1.076,1.076,0,0,1-.023-.134.86.86,0,0,1,.235-.639.561.561,0,0,1,.253-.191.454.454,0,0,0,.132-.033c.087-.029.2-.065.252-.025a.168.168,0,0,1,.046.141c0,.317.049.476.151.485s.23-.207.262-.365l.023-.152c0-.01,0-.021,0-.031.01.067.017.143.023.185.032.143.05.273.066.387.043.3.075.515.3.562a1.629,1.629,0,0,1,.181.122l.01.008-.094.012m-24.952-3.874Zm.521.693a.946.946,0,0,0,.328.208c.036.015.074.03.126.056l.039.01c.126.031.3.074.31.128,0,.022-.022.056-.071.093a.585.585,0,0,1-.413.093.958.958,0,0,0-.267.016.387.387,0,0,0-.281.235c-.005.01-.01.016-.015.024l-.058,0a.585.585,0,0,0-.078-.542,1.416,1.416,0,0,0-.347-.291ZM-34.656,35.8a.117.117,0,0,1-.056-.052l.165-.014c-.043.044-.082.071-.109.066m-.29.772c.066-.068.113-.116.174-.116h0a.363.363,0,0,1,.193.1l-.4.049Zm.5.091.061.057a.681.681,0,0,0,.727.128h0c-.034.041-.091.105-.154.175a1.149,1.149,0,0,0-.275.733c0,.013,0,.026,0,.038l-.135-.135-.07-.08c-.362-.416-.542-.625-.886-.509a.424.424,0,0,1-.361-.179,1.15,1.15,0,0,0-.091-.082Zm3.779,4.648a.03.03,0,0,0,.025,0c.029-.007.028-.034.027-.064,0-.05,0-.154.056-.2.045-.032.124-.03.232.011a3.213,3.213,0,0,1,.628.342c.022.15.076.509.161,1.021a2.171,2.171,0,0,1,.042.367.812.812,0,0,1-.09-.079,1.91,1.91,0,0,0-.247-.2c-.17-.114-.175-.149-.181-.187-.009-.056-.026-.108-.165-.219a1,1,0,0,0-.463-.179.971.971,0,0,0-.287-.229l-.126-.278a.676.676,0,0,0,.39-.108m-3.1-7.548a.623.623,0,0,0,.317.191.173.173,0,0,0,.113.024,2.093,2.093,0,0,0,.22.312c.074.083.135.148.19.2l-1.8.086c-.035-.012-.065-.02-.089,0,0,0,0,.005,0,.007l-2.586.123c-.014-.3-.019-.6-.025-.9Zm-1.091.95s0,.007,0,.011c-.016.08-.013.128.012.16s.083.043.151.049a.679.679,0,0,1,.37.115c.1.074.155.141.16.207.007.094-.088.183-.187.279-.022.02-.04.043-.062.064l-.346.03a1.175,1.175,0,0,1-.034-.15.618.618,0,0,1-.014-.135c0-.066-.023-.073-.083-.076a1.665,1.665,0,0,1-.337-.047,2.589,2.589,0,0,1-.554-.162c-.292-.108-.568-.21-.714-.109a.278.278,0,0,0-.1.246,1.043,1.043,0,0,0,.154.578l-.888.077c-.028-.338-.059-.674-.076-1.015Zm-1.488,1.177a.673.673,0,0,0,.478.2c.168,0,.341.166.495.312a.858.858,0,0,0,.282.208l-1.262.154c-.048-.014-.1-.03-.138-.043-.166-.055-.262-.085-.32-.056a.2.2,0,0,0-.072.164l-.354.043c-.034-.3-.055-.6-.081-.9Zm-.539,1.072c0,.029,0,.057,0,.088.008.127.016.271-.036.31-.019.016-.052.016-.1,0a.793.793,0,0,0-.154-.01c-.015-.115-.034-.229-.048-.345Zm9.452,7.244a1.69,1.69,0,0,1-.076-.79.929.929,0,0,0,.052-.256c.007-.1.011-.148.232-.37l.105-.128a10.942,10.942,0,0,1,1.728-1.828,3.017,3.017,0,0,1,.628-.115l.129-.06a.6.6,0,0,1,.01.11h-.22l.251.251c-.005.019-.01.039-.015.058-.032.121-.054.2-.01.233s.085-.007.1-.019a.746.746,0,0,0,.152-.146l.024-.029c0,.017,0,.044,0,.089s0,.1,0,.152c-.007.248-.008.4.071.431.059.023.119-.043.167-.1.056-.083.07-.14.047-.179s-.088-.043-.139-.039c.018-.015.045-.035.084-.062a.819.819,0,0,0,.282-.369c.006.025.013.056.022.092.013.052.029.118.049.2a1.736,1.736,0,0,1,.043.685c-.008.076-.013.119.019.14s.075,0,.159-.05a1.989,1.989,0,0,0,.207-.118c.055-.035.055-.034.141-.016.024.006.056.012.1.021.124,0,.129.008.139.019.03.04.079.107.606.212l.1.02c.5.1.637.128.7.068.029-.03.029-.072.017-.132a.922.922,0,0,1,.26.817c-.016.115-.03.2-.04.269a1.558,1.558,0,0,0-.03.412c0,.112.01.3.011.683l-6.019,1.134c0-.063,0-.126,0-.184,0-.22.009-.409.009-.516a2.8,2.8,0,0,0-.1-.588m7.327-.8c0-.154-.016-.371-.033-.6a5.648,5.648,0,0,1-.026-1.007.887.887,0,0,0,.049-.294c0-.11,0-.183.178-.391a3.852,3.852,0,0,1,.279-.342c.091-.1.194-.222.3-.35l.007-.01V40.4c0-.014.005-.021.02-.034A.111.111,0,0,0-19.3,40.3a5.363,5.363,0,0,1,1.193-1.139,3.3,3.3,0,0,1,.583-.113l.012.034.063-.01v-.091h-.028l-.162-.484-.037.03a3.077,3.077,0,0,0-.465.464,2.317,2.317,0,0,1-.5.318c-.1.051-.187.1-.245.139a3.039,3.039,0,0,0-.558.606,1.332,1.332,0,0,0-.3-.344c-.029-.025-.055-.049-.08-.073v-.416h.083a.413.413,0,0,1,.208.106l.009.006c.149.076.417.187.51.087.056-.057.041-.166-.044-.329a.5.5,0,0,0,.161-.1.483.483,0,0,1,.095-.065.855.855,0,0,0,.419-.47l.105-.053a1.522,1.522,0,0,0,.444-.533l.256.513a.68.68,0,0,1-.007.105c-.005.044,0,.052.032.1.017.027.049.071.1.152a.572.572,0,0,1,.11.354h-.22l.23.229h0c-.073.236-.072.292-.036.315s.069-.015.076-.023a.732.732,0,0,0,.153-.147l.024-.028c0,.017,0,.047,0,.1a.634.634,0,0,0,.463.421.376.376,0,0,0,.405-.117,1.168,1.168,0,0,0,.142-.207c.024-.045.032-.058.183-.179l.089.043a1.038,1.038,0,0,0,.4.252.159.159,0,0,1,.107.081c0,.065,0,.119-.006.16-.005.086-.008.125.025.143s.062,0,.123-.038c.049.058.1.111.16.167a1.022,1.022,0,0,1,.392.941,3.148,3.148,0,0,0-.069.82c0,.146.01.365.01.745l-.01.243c0,.036,0,.066,0,.1l-5.39,1.014c-.014-.292-.023-.561-.023-.72M-1.347,19.177c-.694-.983-1.331-2.082-1.966-3.123l5.378.982c-1.157.347-2.082,1.272-3.412,2.14M2.3,17.788h.579C1.718,19.292.966,20.333.1,21.662c-.4-.693-.693-.925-1.041-1.619A6.657,6.657,0,0,1,2.3,17.788m-15.035-.752c1.967-.4,4.048-.693,6.015-1.156C-7.477,16.921-8.286,18.02-8.98,19a10.653,10.653,0,0,0-3.759-1.967m3.3,2.66a13.7,13.7,0,0,1-.982,2.082A11.348,11.348,0,0,0-12.912,17.9,6.714,6.714,0,0,1-9.443,19.7m4.337-3.874c1.272,0,2.834,3.3,3.181,3.933a43.736,43.736,0,0,0-3.239,3.469,34.97,34.97,0,0,0-3.122-3.643c.115-.289,1.908-3.759,3.18-3.759m2.256-4.048c0,.925-.347,1.62-.983,1.62-.752,0-.925-.867-.925-1.446,0-.925.289-1.619.983-1.619.752,0,.925.867.925,1.445m1.561-1.445c.752,0,.925.867.925,1.445,0,.925-.346,1.62-.982,1.62-.752,0-.925-.867-.925-1.446,0-.925.289-1.619.982-1.619M.1,5.758.969,1.335q.512.1,1.018.209L.746,6.717C.537,6.393.326,6.071.1,5.758M0,5.622c-.235-.328-.475-.65-.724-.963l.6-3.519c.324.049.642.114.963.173ZM-.829,4.532c-.255-.315-.516-.623-.785-.919L-1.268.994c.343.04.685.08,1.024.13Zm-.9-1.036c-.278-.3-.562-.592-.854-.868L-2.414.882c.342.028.682.057,1.021.1Zm-.97-.973c-.268-.25-.54-.49-.818-.716l.069-1c.3.015.6.043.906.066Zm-.936-.807A12.821,12.821,0,0,0-5,.767c.479,0,.955.015,1.429.036Zm-3.355.141L-7.05.834c.468-.029.939-.045,1.412-.053-.46.332-.91.693-1.35,1.076m-.119.1c-.268.237-.53.485-.79.739L-8.028.909c.283-.026.568-.047.853-.065Zm-.908.852q-.414.413-.811.849l-.34-2.625C-8.829.994-8.493.95-8.154.918Zm-.923.969q-.407.454-.793.929l-.53-3.519c.322-.052.646-.1.97-.138Zm-.9,1.058q-.378.47-.733.957l-.838-4.4c.34-.068.682-.127,1.026-.183Zm-.836,1.094c-.231.319-.452.643-.668.97L-12.55,1.652c.338-.08.674-.163,1.015-.233Zm-.765,1.113c-.2.306-.387.614-.572.924l-1.615-6.044q.474-.13.953-.246Zm6.16-5.276v12.9l-8.731,1.792V15.244c0-3.007,5.262-12.317,8.731-13.474M-8.749,26.347c-.405.058-.925.405-1.331.405a9.565,9.565,0,0,0-1.735-.405c.463-.057,1.215-.4,1.62-.4a3.418,3.418,0,0,1,1.446.4m5.9,2.2a6.745,6.745,0,0,1-1.851.578,6.346,6.346,0,0,1-2.313-.578,7.82,7.82,0,0,1,2.082-.521,9.832,9.832,0,0,1,2.082.521M1.891,26.52c-.405.058-.868.4-1.272.4-.289,0-.983-.289-1.909-.4a4.965,4.965,0,0,1,1.5-.578,5.813,5.813,0,0,1,1.677.578M24.5,36.549l.816.089a2.756,2.756,0,0,0-.4.424c-.065.079-.135.163-.208.248l-.138.137c0-.011,0-.025,0-.038a1.139,1.139,0,0,0-.275-.733c-.058-.065-.11-.123-.145-.165l.043.005a.885.885,0,0,0,.306.033m-1.821,1.739a2.532,2.532,0,0,1-.053-1.232.187.187,0,0,1,.033-.064,1.239,1.239,0,0,1,.141.375c.077.273.159.557.284.6a.116.116,0,0,0,.105-.022l.629-.194-.6.647Zm.027,1.068.555.943,0,0c.014.018.01.027.008.031-.052.11-.632.181-1.023.2a2.886,2.886,0,0,0,.323-.831.584.584,0,0,1,.136-.349m-18.1.312c.011-.014.021-.024.121-.046h.058l-.115.21c-.1.187-.226.418-.287.418a.913.913,0,0,1-.194-.406c.356-.1.39-.141.417-.176m-.6-2.1c.005-.048.015-.13.023-.2a.038.038,0,0,1,0,.009c.007.04.016.086.026.135.023.119.037.168.077.177s.063-.026.109-.088a1.6,1.6,0,0,1,.13-.159l.092.14c.115.174.211.315.272.385L4.705,38c-.156.117-.168.139-.168.22a.574.574,0,0,1-.018.146.658.658,0,0,1-.4.417,2.379,2.379,0,0,0-.173-.762,1.267,1.267,0,0,1,.057-.453m1.181-4.886a1.667,1.667,0,0,1-.733.113A.052.052,0,0,0,4.4,32.79a1.1,1.1,0,0,0-.285.779c-.016.1-.038.155-.064.166s-.124-.046-.232-.124c-.048-.035-.1-.075-.166-.116a.492.492,0,0,1,.169-.7c.291-.242,1.159-.188,1.445-.171l.031,0a.451.451,0,0,1-.11.061m.544,3.133c-.032.025-.121.082-.214.141a3.251,3.251,0,0,0-.58.418.323.323,0,0,1-.181-.041,2.083,2.083,0,0,0-.206-.49,2.447,2.447,0,0,1-.2-.455l1.158-.441c.067.234.207.746.219.867m-.248-5.874a2.522,2.522,0,0,1,.427.641A1.358,1.358,0,0,1,6.017,31a.192.192,0,0,0-.093-.019c-.028,0-.059,0-.09.006S5.77,31,5.734,31Zm-.037,8.931.043-.181a1.15,1.15,0,0,0,.165.253,1.208,1.208,0,0,0-.235.185l-.019.018c.005-.051.023-.147.046-.274M2.7,33.7c-.032.108-.064.235-.1.37-.129.515-.3,1.209-.6,1.209a.14.14,0,0,1-.027,0,.36.36,0,0,0-.021-.061.35.35,0,0,1-.034-.142A6.08,6.08,0,0,1,2.7,33.7M1.115,36.23c-.082-.051-.181-.114-.3-.2-.156-.1-.15-.139-.149-.139.008-.03.172-.044.26-.052a.76.76,0,0,0,.416-.105.257.257,0,0,1,.046-.042,1.247,1.247,0,0,0,.1.471c.009.028.017.054.026.077l0,.008c.1.155.056.258-.051.472a.654.654,0,0,1,0-.086c0-.194-.079-.245-.345-.41M1.2,37.276ZM-.228,34.5c-.018.029-.062.038-.131.028a2.323,2.323,0,0,1-.32-.069.454.454,0,0,0-.386.011,4.664,4.664,0,0,0-.746.1l.367-.839,1.059.335c.089.128.206.352.157.431m.4-2.579-.593-.049.395-.642Zm1.2,5.53Zm9.96.641c.011-.115.019-.241.019-.351v-.1l1.134-.9L11.364,38.1l-.033-.015m.179,3.238a3.768,3.768,0,0,1-.4-.571l-.036-.058.037,0c.26,0,.591-.292.812-.487l.089-.077a1.032,1.032,0,0,1-.371.469.949.949,0,0,0-.183.18l-.006.01Zm-1.277-2.306c.087.181.2.471.3.738.053.139.1.275.152.4a.106.106,0,0,0-.059-.022.171.171,0,0,0-.161.073c-.082.143.1.457.29.79.068.115.137.236.189.341a.581.581,0,0,1,.055.266c-.022.037-.049.033-.119,0a.2.2,0,0,0-.076-.025h0a3.834,3.834,0,0,1-.549-1.356c0-.078,0-.172.006-.273a5.283,5.283,0,0,0-.024-.93m.743-1.193c-.056-.047-.114-.1-.172-.141a1.4,1.4,0,0,0,.045-.62c0-.1-.006-.226,0-.319.05.272.169.793.261,1.186l-.131-.107m.4-4.485c-.081.024-.131.04-.147.082a.739.739,0,0,0-.506.231,1.377,1.377,0,0,0-.155.014.575.575,0,0,1-.283-.012l-.01,0a.182.182,0,0,1-.072-.026.267.267,0,0,0-.087-.031.842.842,0,0,1-.073-.1.782.782,0,0,0-.093-.122L9.9,33.33a.179.179,0,0,1,.034-.122.579.579,0,0,0,.592-.129c.345-.345.412-.3.546-.2q.022.017.049.034l.008.006h.107a2.026,2.026,0,0,1,.166.325l.038.084-.067.021m1.709,6.8c-.118.118.092.752.156.935-.142.079-.239-.023-.349-.141a.47.47,0,0,0-.311-.2.282.282,0,0,0-.124.031,1.168,1.168,0,0,0-.279.209c-.022.02-.047.043-.063.056a2.554,2.554,0,0,1,.043-.345l0-.016-.043-.043c.129-.113.154-.331.189-.648.008-.068.016-.141.026-.221a.659.659,0,0,1,.035-.183c0-.013.008-.026.011-.038.005.015.01.032.015.046a.919.919,0,0,0,.048.128c.022.111.036.161.076.172s.069-.022.122-.08a1.567,1.567,0,0,1,.2-.193c.207-.165.281-.144.355-.123a.3.3,0,0,0,.087.015.479.479,0,0,1,.249.148l-.092.184c-.078-.014-.129.056-.186.131a.738.738,0,0,1-.168.175m.417-.171.073-.144a1.141,1.141,0,0,1,.194.566.855.855,0,0,1-.023.134c-.016-.033-.036-.091-.053-.141a2.076,2.076,0,0,0-.148-.345.082.082,0,0,0-.043-.069m-5.046-2.35c-.019.062-.041.134-.064.232a.178.178,0,0,1-.026.072c-.006.012-.012.024-.017.037-.047-.045-.093-.086-.139-.126a1.778,1.778,0,0,1-.252-.253.561.561,0,0,0,.286-.193l.021-.025a.544.544,0,0,1,.194.038l.046.016a1,1,0,0,1-.049.2m-.1.781.1.051a.6.6,0,0,0,.3.378.733.733,0,0,1,.114.086l.009.006a.492.492,0,0,1,.1.065.514.514,0,0,0,.164.1c-.07.168-.076.277-.018.332.09.088.306,0,.482-.091a.819.819,0,0,0,.23-.169H9.9v.415c-.025.024-.051.048-.08.073a1.339,1.339,0,0,0-.3.345,3,3,0,0,0-.555-.6c-.062-.041-.152-.089-.248-.141a2.367,2.367,0,0,1-.495-.313,1.58,1.58,0,0,0-.549-.336.22.22,0,0,1,.047-.01c.069-.01.1-.034.1-.148a1.583,1.583,0,0,0,.113-.513c.151.276.292.437.418.478m-.838-.3c-.043-.1-.161-.169-.38-.3l-.2-.122a1.674,1.674,0,0,0,.587-.376h.023l.066.088c.043.081.1.194.145.284Zm6.9-2.031a.564.564,0,0,1,.21-.271h.254l.1.47a1.6,1.6,0,0,0-.591,1.447l-.431-1.246.446-.39Zm.22-2.924a.323.323,0,0,1-.345-.066c-.049-.037-.076-.071-.07-.092.011-.056.184-.1.31-.129l.045-.011.064-.033-.008.051a.614.614,0,0,0,0,.28M16.852,39.1c-.123.071-.233.135-.292.164v0a.354.354,0,0,0-.014-.386l-.006-.007-.009,0a.415.415,0,0,1-.263-.28,1.146,1.146,0,0,1,.469.226,2.9,2.9,0,0,0,.353.155,1.958,1.958,0,0,1-.24.134m4.7,1.7a.255.255,0,0,1-.169.141h-.023l-.009.021a2.015,2.015,0,0,1-.455.529,2.819,2.819,0,0,0-.4.433.228.228,0,0,0-.18.073,2.406,2.406,0,0,1-.123-.706c-.016-.165-.03-.292-.044-.389l.03-.012a8.682,8.682,0,0,1,1.083-.3l.169-.04c.106.092.146.177.12.253m-2.161,1.625A5.4,5.4,0,0,1,20,40.969c.013.119.036.281.069.5a4.4,4.4,0,0,1,.067.586.68.68,0,0,0-.2.237c-.037.07-.068.126-.25.217a1.185,1.185,0,0,0-.279.208c-.022.02-.046.043-.063.056a2.554,2.554,0,0,1,.043-.345m-1.98-1.617a.865.865,0,0,0-.045.13.3.3,0,0,1-.059.134c-.019.029-.03.031-.03.031-.027-.008-.077-.161-.083-.478a1.055,1.055,0,0,1,.217.183m-.02,1.092c.022-.035.05-.083.089-.159l0-.015a5.613,5.613,0,0,1,.041-.765,7.313,7.313,0,0,1,.315,1.114c.017.076.031.138.042.178a3.7,3.7,0,0,1-.036.872,7,7,0,0,0-.306-.836c-.062-.126-.108-.2-.139-.25-.047-.076-.047-.076-.008-.14m.116-1.116h0Zm0-.522c-.023.128-.047.258-.069.379l-.02-.01v.043L17.19,40.5v-.587h.082l.011,0a.987.987,0,0,1,.3-.056c-.026.129-.051.27-.077.411m-.432,1.413a.733.733,0,0,1,0,.15.484.484,0,0,1-.115-.12c-.042-.051-.085-.108-.132-.166a4.356,4.356,0,0,0-.628-.708l-.01,0a1.755,1.755,0,0,1-.746-.4c.457-.017.462-.209.467-.365a.64.64,0,0,1,.006-.084l.888.389.328.164c0,.381-.033.733-.049.9-.005.061-.009.1-.009.116,0,.042,0,.083,0,.122m.054-1.287a1.959,1.959,0,0,1-.457-.411l-.121-.122v.079a.066.066,0,0,1-.034.044c-.032.022-.128.062-.325-.017l-.013,0a.167.167,0,0,1-.1-.054,1.232,1.232,0,0,1,.51-.064c.107,0,.266.01.536.01Zm-1.239-7.8a.565.565,0,0,0-.214-.2c-.193-.115-.2-.125-.239-.171-.017-.021-.04-.049-.082-.093A1.374,1.374,0,0,0,15.5,31.9a.168.168,0,0,0,.108-.023h.152a.4.4,0,0,1,.1.2l0,.012a1.037,1.037,0,0,1,.031.51m2.33,10.692a1.2,1.2,0,0,0,.074-.4,3.624,3.624,0,0,0-.234-1.4c-.212-.477-.284-.574-.466-.717l.017-.036L17.55,40.7c.053-.214.107-.428.158-.635a.716.716,0,0,0,.061-.335.286.286,0,0,0,.242-.183.344.344,0,0,0-.05-.279,2.028,2.028,0,0,1,.335.173c.2.139.326.181.409.135.109-.059.1-.252.095-.5a1.79,1.79,0,0,1,.067-.7l0-.012a.181.181,0,0,1,.025-.071.283.283,0,0,0,.032-.087.363.363,0,0,1,.048-.035.141.141,0,0,0,.059-.054,1.073,1.073,0,0,1,.182.252,6.15,6.15,0,0,0,.4.593c.264.359.258.426.256.434l-.01,0a1.744,1.744,0,0,1-.408-.22c-.052-.034-.1-.065-.141-.089a.15.15,0,0,0-.122-.02c-.108.03-.192.187-.3.387a1.59,1.59,0,0,1-.6.73,1.2,1.2,0,0,1-.384.106c-.052.005-.083.009-.095.038s.008.059.079.144a6.5,6.5,0,0,1,.5.686c.3.429.428.562.548.569.1.008.173-.072.285-.193.037-.042.08-.087.129-.136a3.538,3.538,0,0,0-.157.424,2.88,2.88,0,0,0-.184.816.309.309,0,0,1-.045.163,1.768,1.768,0,0,1-.78.56h-.007a.443.443,0,0,1,.024-.087m1.1-9.019a.777.777,0,0,0-.117.061l-1.022-.056c.015-.011.025-.023.042-.036a.67.67,0,0,1,.449-.161,1.025,1.025,0,0,1,.443.109Zm-.279.179a.816.816,0,0,0-.191.362,1.05,1.05,0,0,1-.1.254.309.309,0,0,1-.58,0c-.143-.24-.266-.452-.108-.67Zm1.5,2.067c-.234.352-.233.429.007.729a1.372,1.372,0,0,1,.131.155A13.725,13.725,0,0,1,19.23,36.39l.95.056-.047-.058a.151.151,0,0,1-.036-.135c.042-.181.395-.353.546-.424Zm3.907,1.91c.075-.119.669-.059.977.043a.249.249,0,0,1,.178.082c.055.076.032.2.006.355a1.921,1.921,0,0,0-.038.339c0,.08-.015.1-.022.1s-.069-.012-.116-.033c-.028-.012-.058-.026-.091-.037-.049-.148-.253-.285-.466-.429a2.576,2.576,0,0,1-.348-.263c-.041-.042-.107-.117-.08-.161m2.37-1.584c-.087,0-.152.082-.22.168-.105.131-.175.206-.28.128a.982.982,0,0,1-.215-.258,1.651,1.651,0,0,0-.123-.167l.916.1a.151.151,0,0,1-.076.029M3.568,39.473h0m23.594-2.761-1.416-.154-.019-.007a.384.384,0,0,0-.188-.016l-.762-.082a.708.708,0,0,0,.1-.079c.347-.347.413-.3.547-.2a.589.589,0,0,0,.049.034c.115.077.266-.016.427-.115a1.178,1.178,0,0,1,.342-.168.322.322,0,0,0,.123-.024l.864.081c-.021.245-.035.492-.062.735m-1.337-1.724a1.613,1.613,0,0,0-.568.184c-.08.043-.078.042-.151-.056a.8.8,0,0,0-.186-.168c-.06-.043-.111-.081-.111-.118a.131.131,0,0,1,.039-.071l1.3.07a.827.827,0,0,1-.32.158M23.492,35a4.025,4.025,0,0,0-.26.356.09.09,0,0,0-.061-.021c-.056,0-.078-.038-.117-.111a.387.387,0,0,0-.279-.235.98.98,0,0,0-.269-.017.58.58,0,0,1-.413-.093c-.049-.037-.076-.07-.071-.092.011-.055.183-.1.31-.128l.062-.016.049-.013,1.347.073c-.1.094-.2.192-.3.3M23.2,32.984c-.042.1-.081.149-.117.157s-.091-.039-.146-.09a.8.8,0,0,0-.14-.1l.44-.006c-.012.015-.029.03-.037.043M22.515,33a.647.647,0,0,1-.176.2.422.422,0,0,1-.067.059l-.01,0c-.051-.023-.128-.041-.375.053-.135.05-.229.058-.27.022-.061-.056-.019-.216.013-.345l.008-.03.912-.011a.413.413,0,0,0-.036.054M4.768,42.841l-.01-.245c0-.383.007-.6.01-.748a3.063,3.063,0,0,0-.068-.816,1.026,1.026,0,0,1,.391-.944,2.054,2.054,0,0,0,.161-.166c.058.038.094.056.122.039s.03-.058.026-.144c0-.042-.006-.095-.006-.16a.158.158,0,0,1,.1-.08.857.857,0,0,0,.348-.25l.092-.047c.151.122.159.135.183.181a1.177,1.177,0,0,0,.142.207.584.584,0,0,0,.583.187.352.352,0,0,0,.285-.266c0-.044,0-.072,0-.089l.025.029a.677.677,0,0,0,.147.142c.041.042.069.036.089.025.054-.033.035-.182.008-.3l.225-.3H7.418a.6.6,0,0,1,.027-.188l.086.124.128.069.015,0a3,3,0,0,1,.628.115,5.28,5.28,0,0,1,1.19,1.138.109.109,0,0,0,.038.068c.014.014.02.02.02.035v.011l.006.01c.217.27.461.576.582.7.2.2.2.276.189.384a.641.641,0,0,0,.032.292,12.533,12.533,0,0,1,.009,1.462c-.005.187-.009.346-.009.442,0,.153-.017.367-.041.594l-5.529-1c-.007-.149-.014-.311-.022-.5m6.76,1.725,0-.12c0-.532.012-.7.019-.8a3.242,3.242,0,0,0-.019-.595,1.062,1.062,0,0,1,.273-.873h.02c.025,0,.036-.02.049-.08a.954.954,0,0,1,.731-.516.581.581,0,0,1,.425.016.283.283,0,0,1,.1.214.224.224,0,0,0,.064.16.13.13,0,0,0,.1.016c.078,0,.123,0,.154-.007.052,0,.053-.005.154.047l.139.071c.086.052.127.072.161.052s.028-.063.018-.14a1.771,1.771,0,0,1,.043-.685c.021-.082.036-.148.049-.2.009-.036.016-.067.023-.092a.814.814,0,0,0,.283.369c.239.171.247.194.268.246a.7.7,0,0,0,.129.21c.046.057.105.122.165.1.079-.029.078-.182.071-.431,0-.052,0-.1,0-.151a.238.238,0,0,0-.109-.219,1.214,1.214,0,0,0-.024-.154l.238-.238h-.22a.686.686,0,0,1,.01-.11l.115.056.015,0a2.984,2.984,0,0,1,.626.115,7.2,7.2,0,0,1,1.326,1.517c.141.188.263.352.336.438.192.23.2.275.221.386a1.648,1.648,0,0,0,.061.234,6.088,6.088,0,0,1,.011.991c-.006.165-.011.321-.011.449,0,.108,0,.3.009.526,0,.089,0,.184.005.282ZM26.842,38.9c-.057-.045-.122-.095-.2-.15-.249-.189-.769-.583-.759-.664,0,0,.032-.023.225.033.368.105.561.12.664.049s.1-.177.112-.324c0-.049.01-.1.017-.158a.3.3,0,0,1,.154-.2c-.064.475-.134.949-.218,1.417m.392-3.047-.758-.07a1.58,1.58,0,0,0,.084-.716c0-.069,0-.14,0-.213l.751.041c-.016.322-.048.64-.075.958m-.68-1.125c-.007-.091-.024-.132-.058-.147-.05-.021-.1.025-.181.1l-.03.028-1.3-.07a2.135,2.135,0,0,1,.263-.146c.165-.08.256-.124.211-.342,0-.077-.007-.13-.041-.154s-.075-.006-.126.016a.548.548,0,0,1-.322.048,1.658,1.658,0,0,0-1.048.52l-1.238-.067a3.518,3.518,0,0,0,.455-.458c.074-.093.122-.159.157-.211l4.039.074c-.006.282-.01.566-.023.846Zm-3.091-1,.008,0a.687.687,0,0,0,.484-.729.574.574,0,0,0-.017-.062l3.411-.041c0,.093.007.186.007.279,0,.209-.013.416-.017.625Zm3.882-.959-3.444.042a.229.229,0,0,0-.144-.136.513.513,0,0,0-.388.142l-1.705.021a.316.316,0,0,0-.213-.387c-.241-.121-.425.149-.543.33l-.02.029c-.01.014-.007.025-.013.038H20.8a1.368,1.368,0,0,0-.089-.156c-.261-.348-.218-.411-.131-.536.009-.013.02-.035.03-.05l6.711-.352c.015.337.022.675.025,1.015m-55.482-22.3,6.274,6.329.089-.089-6.277-6.331c.236-.239.48-.469.724-.7l5.693,6.135.093-.086-5.694-6.137c.245-.23.492-.457.745-.68l4.914,5.688.095-.082L-26.4,8.822c.242-.212.482-.427.729-.632l5.071,6.285.1-.079-5.07-6.285c.273-.224.554-.441.835-.656l5.235,7.017.1-.075-5.238-7.02c.258-.2.521-.385.784-.574l4.467,6.452.1-.071-4.468-6.454c.267-.19.535-.379.808-.561l3.96,6.16.106-.069L-22.832,6.1c.279-.184.559-.365.844-.542l4.049,6.768.108-.065-4.051-6.771c.285-.174.577-.338.867-.5l2.785,5.023.111-.061L-20.9,4.926c.3-.168.6-.33.9-.489l2.987,5.919.113-.056-2.987-5.92c.288-.149.575-.3.868-.442l3.22,6.995.115-.052-3.22-6.995c.3-.143.607-.279.914-.414l2.942,7,.116-.049-2.944-7c.3-.129.6-.251.908-.371l2.555,6.667.117-.045L-16.855,3c.327-.128.655-.255.987-.373L-13.434,9.6l.119-.042L-15.748,2.59c.318-.112.635-.223.957-.325l1.818,6.115.121-.036-1.819-6.121c.3-.095.615-.177.923-.263L-12.1,8.12a18.234,18.234,0,0,0-2.835,8.743V28.954a1.414,1.414,0,0,0-.569-.325c-.165-.05-.319-.1-.459-.148-.536-.178-.86-.285-.965-.128a.726.726,0,0,0-.176.611.947.947,0,0,0,.076.124c.087.125.13.187-.132.537a1.1,1.1,0,0,0-.129.25.264.264,0,0,0-.047-.135l-.018-.028c-.12-.181-.3-.451-.544-.331-.262.131-.246.277-.188.507.1.2.131.35.084.407-.034.041-.111.036-.181.019.036-.075.061-.138.027-.176s-.094-.023-.148-.005a1.168,1.168,0,0,1-.108.047.367.367,0,0,0-.118.062l-.083-.019c-.055-.012-.055-.012-.082-.043s-.044-.051-.092-.1l-.009-.006c-.06-.03-.1-.056-.14-.077a.273.273,0,0,0-.289-.041.527.527,0,0,0-.112.05c-.043.023-.044.023-.149-.046a.976.976,0,0,0-.723-.161.227.227,0,0,0-.137.183.632.632,0,0,0,.484.732c.058.028.1.035.128.018.033.038.105.123.244.3-.012.015-.024.03-.036.046a.519.519,0,0,1-.173.161c-.254.213-.222.315-.157.419a.147.147,0,0,1,.03.069c0,.014,0,.028,0,.043a.35.35,0,0,1,0,.052,1.4,1.4,0,0,1-.292-.29,3.49,3.49,0,0,1-.306-.427,1.686,1.686,0,0,0-.982-.855c-.165-.05-.319-.1-.459-.148-.536-.177-.86-.284-.965-.128a.723.723,0,0,0-.175.611,1.009,1.009,0,0,0,.076.124c.086.125.13.187-.13.534a1.273,1.273,0,0,0-.141.2.289.289,0,0,0-.037-.081l-.02-.03c-.118-.18-.3-.451-.543-.329-.262.131-.246.276-.191.5l.011.043c.033.128.074.29.013.345-.041.036-.134.029-.269-.022-.16-.06-.244-.086-.294-.1s-.058-.018-.09-.053c-.015-.016-.035-.038-.07-.074-.051-.038-.091-.071-.124-.1-.116-.1-.16-.13-.312-.08a.613.613,0,0,0-.11.049c-.044.024-.045.024-.15-.046a.979.979,0,0,0-.722-.161.227.227,0,0,0-.138.181.552.552,0,0,0,.1.527.315.315,0,0,1-.352.084c-.057-.011-.112-.025-.164-.037-.151-.039-.271-.069-.342-.013a.168.168,0,0,0-.054.141.834.834,0,0,1-.335.785c-.255.212-.222.315-.158.418a.144.144,0,0,1,.03.069c0,.014,0,.029,0,.043a.34.34,0,0,1,0,.051,1.444,1.444,0,0,1-.291-.289,3.49,3.49,0,0,1-.306-.427,1.688,1.688,0,0,0-.982-.855c-.165-.05-.319-.1-.459-.148-.538-.178-.863-.285-.965-.128a.725.725,0,0,0-.176.61.947.947,0,0,0,.076.124c.087.125.13.187-.132.537a1.1,1.1,0,0,0-.128.249.17.17,0,0,0-.048-.134l-.018-.027a.954.954,0,0,0-.3-.329V32.7l-6.2-.108c.006-.339.01-.68.026-1.016l6.686.384.007-.126-6.687-.384c.018-.341.049-.679.078-1.017l8.624.774.011-.125-8.625-.774c.03-.34.066-.679.107-1.015L-27.2,30.573l.016-.125L-37.2,29.169c.04-.323.076-.646.125-.965l7.437,1.212.021-.124L-37.05,28.08c.052-.325.113-.647.174-.969l8.223,1.611.024-.123-8.224-1.612c.062-.319.131-.634.2-.95l9.038,2.107.028-.123-9.037-2.106c.074-.325.147-.649.232-.969l5.42,1.463.033-.122-5.419-1.463c.086-.322.178-.641.273-.959l6.441,1.965.037-.121-6.443-1.966c.095-.312.2-.619.3-.926l7.027,2.434.042-.119L-35.705,22.7c.115-.337.233-.672.359-1l7.2,2.8.046-.117-7.2-2.8c.12-.311.239-.622.367-.93L-28.55,23.4l.049-.115-6.384-2.752c.121-.284.253-.562.382-.843l6.7,3.131.053-.114-6.7-3.132q.215-.465.446-.922l7.59,3.878.057-.113-7.59-3.878c.154-.3.308-.608.472-.906l6.769,3.8.062-.11-6.767-3.8c.161-.292.329-.581.5-.868l7.882,4.774.066-.108-7.884-4.775c.163-.273.335-.539.507-.806l8.756,5.688.069-.106-8.756-5.688c.184-.285.37-.568.562-.846l7.777,5.483.072-.1-7.776-5.482c.188-.27.376-.54.571-.8l6.147,4.652.076-.1-6.149-4.654c.2-.271.417-.534.628-.8l6.889,5.667.081-.1-6.891-5.668c.2-.253.412-.5.623-.748l7.4,6.455.082-.095-7.4-6.456c.219-.254.437-.509.665-.756l6.709,6.322.087-.092-6.709-6.321q.341-.37.694-.727m-8.908,27.814a.3.3,0,0,0,.193.114h.019c.12,0,.254-.094.411-.286.136-.167.193-.174.21-.168s.024.027.03.046a1.4,1.4,0,0,1-.345.945c-.067.067-.1.122-.089.173.008.073.08.119.164.173a.631.631,0,0,1,.321.382.541.541,0,0,1,0,.339,1.033,1.033,0,0,0,.059.7.131.131,0,0,0,.1.093l.021,0c.12,0,.275-.172.453-.368a3.1,3.1,0,0,1,.284-.288,1.288,1.288,0,0,0,.148-.089,1.257,1.257,0,0,1,.128-.079,1.347,1.347,0,0,0,.4.056,1.6,1.6,0,0,1,.451.3,3.22,3.22,0,0,0-1.111.511.178.178,0,0,0-.064.141c.007.082.089.14.167.2.061.043.124.087.12.124s-.043.082-.269.169c-.7.268-.625.506-.562.716.007.024.015.049.021.075a.488.488,0,0,0,.33.319.681.681,0,0,0,.649-.186c.147-.126.241-.211.3-.267a.128.128,0,0,0,.013.063.214.214,0,0,0,.18.1c.174.022.189.082.207.158.034.14.1.247.549.247.589,0,.628-.364.653-.6.01-.1.019-.183.059-.211a.961.961,0,0,1,.311-.048c.265-.018.595-.042.717-.22a.326.326,0,0,0,.027-.29v0c.124.076.273.152.427.231.131.067.264.135.378.2l.233.518.006.015.016,0a.556.556,0,0,1,.207.084v.016l.011.01a2.711,2.711,0,0,1,.279.251c.081.081.181.181.414.384a.821.821,0,0,0,.4.237c.062.013.082.017.168.215a.528.528,0,0,0,.367.231c.243.072.473.14.439.62a11.647,11.647,0,0,0-.016,1.305c0,.022,0,.046,0,.069l-5.976,1.125a32.145,32.145,0,0,1-2.612-8.55m32,27.3A32.441,32.441,0,0,1-34.088,47.541l5.645-1.062c0,.072,0,.144,0,.223,0,.518.025.847.044,1.088.03.371.038.483-.1.685-.364.5-.359.62-.315.672s.177.016.292-.041a1.262,1.262,0,0,0,.35-.117.449.449,0,0,0,.088-.039l.008.016a1.777,1.777,0,0,0,.1.185,2.177,2.177,0,0,1,.132.191c.073.115.131.206.209.206h.007c.074-.005.141-.089.229-.289a1.366,1.366,0,0,1,.191-.381.853.853,0,0,0,.168.109c.128.063.213.107.262.059s.045-.139-.1-.506l-.064-.16a5.535,5.535,0,0,1-.4-1.219,8.585,8.585,0,0,1-.025-.885l6-1.129a3.029,3.029,0,0,1-.253,1.479c-.456.665-.395.716-.362.743.051.042.141-.03.171-.055a1.968,1.968,0,0,0,.518-.175A.527.527,0,0,0-21.2,47.1a.1.1,0,0,0,.008.017,1.617,1.617,0,0,0,.1.185,2.143,2.143,0,0,1,.131.189c.073.115.131.207.209.207h.008c.074-.005.14-.089.228-.289a1.39,1.39,0,0,1,.191-.381.853.853,0,0,0,.168.109l.039.019c.142.072.278.141.347.076s.044-.187-.051-.426a2.685,2.685,0,0,1-.152-1.051,3.459,3.459,0,0,0-.02-.445c-.015-.1-.029-.247-.043-.413l5.3-1a1.675,1.675,0,0,1-.227.876c-.457.665-.395.716-.362.744.052.042.141-.03.171-.056a1.978,1.978,0,0,0,.518-.174.528.528,0,0,0,.089-.039.1.1,0,0,0,.008.017,1.556,1.556,0,0,0,.1.184,2.287,2.287,0,0,1,.131.19c.073.115.131.207.209.207h.008c.074-.005.14-.089.228-.289a1.39,1.39,0,0,1,.191-.381.809.809,0,0,0,.171.11l.109.047c.136.059.234.1.291.049s.05-.133-.068-.428a2.685,2.685,0,0,1-.152-1.051c0-.095-.008-.181-.012-.269l3.719-.7s0,.006,0,.009c0,1.908,3.123,2.949,3.123,4.337v1.561C-7.014,49.42-8.749,50-8.749,51.1c0,1.561,2.659,2.256,2.659,3.585v1.561c-.693.463-1.734.289-1.619,1.445.115,1.272,1.966,1.1,1.966,2.949,0,.925-.578.521-1.33,1.1a1.765,1.765,0,0,0,1.33.463c.058.925.058,1.157.752,1.446.058,0,.579.058.694-.289.115-.463-.058-1.041.174-1.446.578-1.156,1.272-1.1,1.272-1.909,0-1.156-1.331-.867-1.331-2.139,0-1.33,2.082-.752,2.082-2.37,0-1.272-.694-1.272-2.082-2.718V50.865c.058-.925,2.66-.868,2.487-2.834-.058-.81-.521-1.1-1.85-2.313,0,0,1.677-1.62,1.677-2.082,0-.4-.115-.52-.693-.52a2.817,2.817,0,0,0-1.272.52,1.551,1.551,0,0,1,.115-.578,1.752,1.752,0,0,1,.28-.432l6.89,1.251a4.91,4.91,0,0,1-.2.9c-.118.3-.113.384-.068.428s.153.01.291-.049c.034-.016.071-.031.111-.048A.853.853,0,0,0,3.751,45a1.369,1.369,0,0,1,.192.383c.088.2.154.282.228.287h.007c.078,0,.136-.091.21-.206a2.136,2.136,0,0,1,.134-.194,1.819,1.819,0,0,0,.1-.181l.008-.016a.477.477,0,0,0,.083.037c.127.062.184.006.286.056.037.03.242.171.32.1.053-.046.062-.154-.275-.612a1.221,1.221,0,0,1-.187-.528l5.369.975c-.014.1-.027.191-.037.26a3.309,3.309,0,0,0-.019.445,2.679,2.679,0,0,1-.152,1.05c-.119.3-.113.384-.068.428s.154.01.291-.049c.035-.015.071-.031.111-.047a.782.782,0,0,0,.168-.11,1.369,1.369,0,0,1,.192.383c.089.2.154.282.227.287s.142-.087.217-.206a2.209,2.209,0,0,1,.135-.194,1.819,1.819,0,0,0,.1-.181l.008-.017a.424.424,0,0,0,.084.038A1.98,1.98,0,0,0,12,47.37c.03.026.118.1.171.056.033-.027.095-.078-.362-.742a2.713,2.713,0,0,1-.246-1.334l5.993,1.088a7.237,7.237,0,0,1-.025.779,5.464,5.464,0,0,1-.394,1.215l-.066.165c-.164.409-.142.5-.095.536s.122.011.254-.089a.84.84,0,0,0,.169-.109,1.372,1.372,0,0,1,.191.382c.089.2.154.282.228.288h.008c.078,0,.136-.091.208-.206a2.274,2.274,0,0,1,.135-.194,1.893,1.893,0,0,0,.1-.181.073.073,0,0,1,.008-.016.464.464,0,0,0,.084.037,1.26,1.26,0,0,0,.352.118c.115.057.24.105.292.042s.049-.176-.313-.671c-.12-.179-.11-.288-.083-.581a8.313,8.313,0,0,0,.03-1.251c0-.023,0-.044,0-.067l5.326.967A32.442,32.442,0,0,1-5.048,65.575M18.646,45.859c0-.076,0-.15.006-.221a12.908,12.908,0,0,0-.016-1.367c-.034-.48.2-.549.44-.621a.531.531,0,0,0,.368-.232c.084-.2.1-.2.167-.214a.823.823,0,0,0,.4-.236,4.34,4.34,0,0,0,.478-.465c.056-.062.114-.128.217-.231l.108-.108a3.008,3.008,0,0,0,.645-.53l.4-.458c.094-.073.252-.159.3-.122.017.011.051.061-.009.26-.164.548.306.842.533.983l.059.037a.084.084,0,0,0,.075.014c.033-.016.035-.057.038-.115.008-.155.023-.415.541-.415a.483.483,0,0,1,.354.091.256.256,0,0,1,.025.212c-.011.071-.022.139.022.184a.183.183,0,0,0,.127.038c.005.032.042.054.514.054a1.141,1.141,0,0,0,1.059-.46.565.565,0,0,0,.069-.513.31.31,0,0,1,.027-.241c.02-.051.035-.089.006-.111s-.069-.016-.426.222l-.132.076c.126-.146.346-.417.172-.591a3.012,3.012,0,0,0-.945-.511,3.115,3.115,0,0,1,.4-.358,1.347,1.347,0,0,0,.4-.056,1.185,1.185,0,0,1,.129.079,1.129,1.129,0,0,0,.141.085c.1.082.11.108.114.116.01.033.012.035.153.084l.265.094a.518.518,0,0,0,.46,0c.136-.1.141-.3.145-.518a2.472,2.472,0,0,1,.016-.261.373.373,0,0,1,.269-.268,32.137,32.137,0,0,1-2.461,7.617Z" transform="translate(38.218)"/>
            </g>
            <g id="Group_1250" data-name="Group 1250" transform="translate(14.755 11.283)">
              <path id="Path_1162" data-name="Path 1162" class="cls-10" d="M-7.424,0A48.838,48.838,0,0,0-56.207,48.783,48.341,48.341,0,0,0-41.918,83.232,48.355,48.355,0,0,0-7.533,97.451h.109A48.781,48.781,0,0,0,41.3,48.725,48.78,48.78,0,0,0-7.424,0m0,96.685A47.59,47.59,0,0,1-41.378,82.69,47.585,47.585,0,0,1-55.441,48.783,48.073,48.073,0,0,1-7.424.766a48.014,48.014,0,0,1,47.96,47.96A48.013,48.013,0,0,1-7.425,96.685" transform="translate(56.207)"/>
            </g>
          </g>
        </g>
      </g>
    </g>
    <g id="Group_1255" data-name="Group 1255" transform="translate(34.493 -157.409)">
      <path id="Path_1164" data-name="Path 1164" class="cls-11" d="M0,0V130.333"/>
    </g>
    <g id="Group_1258" data-name="Group 1258" class="cls-4" transform="translate(0 -185.741)">
      <g id="Group_1256" data-name="Group 1256" transform="translate(37.463 160.781)">
        <path id="Path_1165" data-name="Path 1165" class="cls-12" d="M0,0H130.755"/>
      </g>
      <g id="Group_1257" data-name="Group 1257" transform="translate(170.341 27.488)">
        <path id="Path_1166" data-name="Path 1166" class="cls-11" d="M0-19.834V-150.167" transform="translate(0 150.167)"/>
      </g>
    </g>
    <g id="Group_1259" data-name="Group 1259" transform="translate(36.616 -160.368)">
      <path id="Path_1168" data-name="Path 1168" class="cls-12" d="M-19.9,0H-150.653" transform="translate(150.653)"/>
    </g>
    <g id="Group_1261" data-name="Group 1261" class="cls-4" transform="translate(0 -185.741)">
      <g id="Group_1260" data-name="Group 1260" transform="translate(34.493 25.373)">
        <path id="Path_1169" data-name="Path 1169" class="cls-13" d="M0-20.412v1.272H1.275m133.3,0h1.275v-1.272m0-132.865v-1.271h-1.275m-133.3,0H0v1.271" transform="translate(0 154.549)"/>
      </g>
    </g>
  </g>
</svg>
