<svg xmlns="http://www.w3.org/2000/svg" xmlns:xlink="http://www.w3.org/1999/xlink" width="89.978" height="104.399" viewBox="0 0 89.978 104.399">
  <defs>
    <style>
      .cls-1, .cls-2 {
        fill: none;
      }

      .cls-2 {
        stroke: #c6c9ce;
      }

      .cls-3 {
        clip-path: url(#clip-path);
      }

      .cls-4 {
        mix-blend-mode: multiply;
        isolation: isolate;
      }

      .cls-5 {
        clip-path: url(#clip-path-2);
      }

      .cls-6 {
        fill: #42454a;
      }
    </style>
    <clipPath id="clip-path">
      <path id="Path_1207" data-name="Path 1207" class="cls-1" d="M0,0H89.978V-104.4H0Z"/>
    </clipPath>
    <clipPath id="clip-path-2">
      <rect id="Rectangle_158" data-name="Rectangle 158" class="cls-1" width="97.895" height="77.856" transform="translate(-4.499 -117.399)"/>
    </clipPath>
  </defs>
  <g id="Group_5900" data-name="Group 5900" transform="translate(0 104.399)">
    <g id="Group_1264" data-name="Group 1264" transform="translate(14.082 -22.879)">
      <path id="Path_1172" data-name="Path 1172" class="cls-2" d="M0,0V-20.52"/>
    </g>
    <g id="Group_1265" data-name="Group 1265" transform="translate(14.01 -33.14)">
      <path id="Path_1173" data-name="Path 1173" class="cls-2" d="M0,0H62.386"/>
    </g>
    <g id="Group_1266" data-name="Group 1266" transform="translate(75.895 -22.879)">
      <path id="Path_1174" data-name="Path 1174" class="cls-2" d="M0,0V-20.52"/>
    </g>
    <g id="Group_1302" data-name="Group 1302" class="cls-3">
      <g id="Group_1301" data-name="Group 1301" class="cls-4">
        <g id="Group_1300" data-name="Group 1300">
          <g id="Group_1299" data-name="Group 1299" class="cls-5">
            <g id="Group_1267" data-name="Group 1267" transform="translate(72.659 -76.488)">
              <path id="Path_1175" data-name="Path 1175" class="cls-6" d="M0,0C-.038-.152-.076-.493-.152-.834c-.037-.113-.037-.189-.113-.151C-.3-.985-.3-.947-.3-.872a1.289,1.289,0,0,1,.038.379C-.3-.3-.417-.227-.834-.114l-3.107.72V.568c.076-.151.91-1.288,1.251-1.894.8-1.251,1.705-2.539,1.781-2.653.113-.151.189-.227.151-.3,0-.076-.114-.076-.265-.038l-4.168.834c-.606.114-.834.152-.91-.038-.037-.076-.075-.227-.113-.3,0-.076-.038-.114-.076-.114-.076,0-.038.076-.038.152a5.07,5.07,0,0,0,.19.758c.037.113.075.416.151.871.038.114.038.152.114.152.038,0,.038-.038.038-.114A1.165,1.165,0,0,1-5.873-2.5c0-.151.189-.265.72-.417L-2.2-3.524c-.113.19-.8,1.137-1.4,2.046-.568.872-1.288,1.971-1.629,2.5a.41.41,0,0,0-.114.265c0,.076.076.076.228.038L-.682.455C-.3.379-.114.417-.038.568,0,.644,0,.72.038.758c0,.076.038.114.076.114S.152.8.152.682C.076.341,0,.076,0,0"/>
            </g>
            <g id="Group_1268" data-name="Group 1268" transform="translate(30.447 -53.677)">
              <path id="Path_1176" data-name="Path 1176" class="cls-6" d="M0,0C.076.038.114.076.189.114.265.189.3.189.341.152S.341.038.265,0C0-.227-.189-.417-.265-.455l-.607-.606c-.075-.076-.151-.114-.189-.076s-.038.076.038.114a2.158,2.158,0,0,1,.265.3c.076.19.038.3-.265.644L-3.145,2.311l-.038-.038c0-.151,0-1.591-.038-2.273-.038-1.478-.038-3.069-.038-3.183,0-.189,0-.3-.038-.341s-.151,0-.227.114L-6.442-.341c-.416.455-.606.568-.757.493a1.155,1.155,0,0,1-.266-.19C-7.5-.076-7.54-.114-7.578-.076s0,.114.075.152a7.5,7.5,0,0,0,.569.492c.113.076.3.3.644.607.076.075.114.113.152.075s0-.075-.038-.113A.921.921,0,0,1-6.4.834c-.075-.152,0-.341.341-.758l1.857-2.2c0,.19,0,1.4.038,2.5.038,1.061.076,2.349.114,2.993,0,.114,0,.228.075.266.038.037.114,0,.228-.114L-.606.265C-.341-.038-.189-.076,0,0"/>
            </g>
            <g id="Group_1269" data-name="Group 1269" transform="translate(43.444 -49.016)">
              <path id="Path_1177" data-name="Path 1177" class="cls-6" d="M0,0A8.618,8.618,0,0,1,1.023.076c.341.038.417.151.455.265a.642.642,0,0,1,.038.265c0,.076,0,.114.075.114A.082.082,0,0,0,1.667.644c0-.076.038-.379.038-.455a4.242,4.242,0,0,1,.076-.454c0-.038,0-.076-.038-.076A.14.14,0,0,0,1.629-.3c-.075,0-.189.038-.3.038C1.175-.265-.227-.3-.455-.3A2.164,2.164,0,0,1-.909-.341c-.19,0-.379-.038-.569-.038-.113,0-.151,0-.151.076,0,.038.038.076.113.076.114,0,.228,0,.266.038a.375.375,0,0,1,.3.416c0,.228,0,.417-.038,1.516l-.152,1.25c-.038.645-.038,1.213-.076,1.516-.037.19-.075.379-.227.379-.076,0-.151.038-.265.038-.076,0-.114,0-.114.038s.038.076.152.076h.909c.227,0,.455.037.758.037s.682.038,1.25.076c.266,0,.341,0,.379-.189a5.016,5.016,0,0,0,.114-.8c0-.076,0-.114-.038-.114s-.076.038-.076.114c-.075.3-.151.455-.341.531a2.116,2.116,0,0,1-.682.075c-.72-.038-.833-.151-.833-.644,0-.189.038-.871.038-1.1V2.463c0-.038,0-.076.037-.076.19,0,.872.038,1.024.038.265.038.341.152.378.3a.64.64,0,0,0,.038.265c0,.038,0,.076.076.076s.076-.076.076-.151c0-.038.038-.341.038-.493.038-.379.076-.493.076-.53a.133.133,0,0,0-.038-.076c-.038,0-.076.038-.114.076-.076.075-.189.075-.341.113A11.366,11.366,0,0,1-.076,1.97c-.038,0-.038-.038-.038-.075L-.038.076C-.038.038-.038,0,0,0"/>
            </g>
            <g id="Group_1270" data-name="Group 1270" transform="translate(34.047 -51.706)">
              <path id="Path_1178" data-name="Path 1178" class="cls-6" d="M0,0A6.886,6.886,0,0,1-.758-.417c-.189-.113-.568-.341-.8-.455-.113-.037-.151-.075-.189-.037s0,.075.076.113a.791.791,0,0,1,.227.152c.114.114.114.265,0,.455s-.189.378-.72,1.326l-.606,1.136c-.341.607-.606,1.1-.8,1.365q-.169.283-.341.227a.326.326,0,0,1-.227-.114q-.114-.057-.114,0c-.038.038,0,.076.076.114.265.152.644.341.8.417s.568.341.947.568c.076.038.114.038.152,0,0-.038,0-.076-.076-.114s-.228-.151-.3-.189c-.19-.114-.152-.265-.076-.455.113-.265.379-.758.72-1.4l.606-1.1A13.561,13.561,0,0,1-.644.265c.151-.227.227-.3.417-.227.075.038.151.038.189.076.076.038.114.038.152,0S.076.038,0,0"/>
            </g>
            <g id="Group_1271" data-name="Group 1271" transform="translate(40.602 -49.395)">
              <path id="Path_1179" data-name="Path 1179" class="cls-6" d="M0,0C-.189-.076-.531-.152-.644-.189a4.054,4.054,0,0,0-.72-.228c-.114-.038-.19-.038-.227,0,0,.038.037.076.113.076.076.038.19.076.265.114.038.038.076.113.038.151,0,.076-.075.152-.151.228-.3.416-1.857,2.349-2.387,2.993h-.038L-3.979-.3a1.348,1.348,0,0,1,0-.569c.038-.075.038-.113.114-.113A.331.331,0,0,1-3.6-.947c.076,0,.114,0,.114-.038s-.038-.076-.152-.114c-.341-.114-.682-.189-.833-.227-.228-.076-.606-.228-.985-.341-.114-.038-.19-.038-.19,0s0,.076.076.076a.652.652,0,0,1,.265.113c.228.152.3.265.341.682l.493,4.737c.038.379.038.454.113.492.114.038.19-.075.455-.416.265-.3.8-.948,1.554-1.819.644-.72.909-1.061,1.4-1.592.3-.379.454-.454.568-.492A.587.587,0,0,1,0,.152C.076.189.114.189.114.114Q.114.057,0,0"/>
            </g>
            <g id="Group_1272" data-name="Group 1272" transform="translate(70.537 -60.952)">
              <path id="Path_1180" data-name="Path 1180" class="cls-6" d="M0,0C-.038,0-.076,0-.114.076A1.322,1.322,0,0,1-.3.379C-.417.568-.606.53-.8.455a5.677,5.677,0,0,1-.644-.3l-.53-.266A1.582,1.582,0,0,1-2.577-.53a22.763,22.763,0,0,1-1.44-2.236,1.022,1.022,0,0,1-.151-.493.587.587,0,0,1,.076-.3c.038-.076.038-.113,0-.151-.038,0-.076.038-.114.075a5.414,5.414,0,0,0-.3.682c-.076.19-.227.379-.3.607-.038.076-.038.113,0,.151.038,0,.076-.038.113-.075.076-.114.152-.076.228-.038a.868.868,0,0,1,.3.265c.151.189,1.175,1.705,1.288,1.819-.227,0-2.235.151-2.463.151a.561.561,0,0,1-.265-.038.2.2,0,0,1-.076-.151c.038-.114.038-.152,0-.19s-.076,0-.113.076A6.513,6.513,0,0,0-6.1.3c-.113.227-.341.682-.416.8-.038.076-.038.114,0,.151s.075,0,.113-.075A.645.645,0,0,1-6.176.947,2.825,2.825,0,0,1-5.494.72C-5.04.644-3.221.493-3.107.493a1.307,1.307,0,0,1,.758.189l.53.3a5.844,5.844,0,0,1,.644.341c.19.114.3.228.266.379a.532.532,0,0,1-.076.227q-.057.114,0,.114c.038.038.076-.038.113-.114.114-.227.3-.644.379-.8.076-.19.3-.569.493-.985C.038.076.038,0,0,0"/>
            </g>
            <g id="Group_1273" data-name="Group 1273" transform="translate(66.558 -54.548)">
              <path id="Path_1181" data-name="Path 1181" class="cls-6" d="M0,0-.265.265c-.152.152-.3.076-.493-.038C-1.023.038-1.44-.341-1.933-.758l-2.2-1.97.606-.644c.455-.455.72-.493.872-.341l.075.037c.076.076.114.076.152.038s0-.075-.038-.113c-.152-.114-.493-.455-.606-.569-.076-.075-.114-.075-.152-.038,0,.038-.038.076-.114.152s-.151.227-.3.379L-5.532-1.705a3.006,3.006,0,0,1-.493.492c-.113.114-.227.114-.265.19-.038.038,0,.076.038.151.038.038.417.569.492.645.076.038.076.075.114.038a.071.071,0,0,0,0-.114A.586.586,0,0,1-5.76-.568c-.037-.19.038-.341.3-.645l.682-.795L-2.463-.114c.493.455.909.834,1.1,1.061.151.152.227.3.151.417a2.028,2.028,0,0,1-.151.227c-.038.076-.076.114-.038.114.038.038.076,0,.152-.076.189-.227.492-.568.568-.682C-.568.8-.227.493.076.114.114.038.152,0,.114-.038S.038-.038,0,0"/>
            </g>
            <g id="Group_1274" data-name="Group 1274" transform="translate(62.238 -50.229)">
              <path id="Path_1182" data-name="Path 1182" class="cls-6" d="M0,0A1.288,1.288,0,0,1-.3.189C-.493.3-.606.227-.758.076c-.189-.228-.53-.682-.947-1.251L-2.463-2.2a9.559,9.559,0,0,1-.871-1.25c-.152-.227-.152-.341-.038-.493.075-.076.113-.113.151-.151.076-.038.076-.076.038-.114s-.076,0-.151.038c-.228.151-.531.417-.683.53s-.53.379-.757.531c-.076.076-.114.114-.114.151.038.038.076.038.152,0s.151-.113.227-.113c.151-.076.265,0,.417.189s.265.341.909,1.213l.8.985A9.428,9.428,0,0,1-1.516.606c.114.19.152.3.038.417l-.189.19c-.076.037-.076.075-.076.113.038.038.076.038.152-.038.227-.151.568-.454.719-.53C-.72.644-.341.379.038.114.114.076.152,0,.114-.038S.038-.076,0,0"/>
            </g>
            <g id="Group_1275" data-name="Group 1275" transform="translate(53.599 -45.303)">
              <path id="Path_1183" data-name="Path 1183" class="cls-6" d="M0,0A.407.407,0,0,0-.189.038a1.48,1.48,0,0,1-.872-.3c-.493-.341-1.137-.872-1.9-1.516a2.044,2.044,0,0,0,.607-1.743,1.394,1.394,0,0,0-.682-.871,2.375,2.375,0,0,0-1.364-.038c-.228.038-.758.189-.986.227-.151.038-.606.114-.947.189-.114.038-.151.038-.151.076s.037.038.113.038A.854.854,0,0,1-6.1-3.941c.228,0,.3.114.379.341s.114.417.341,1.478l.266,1.213A8.837,8.837,0,0,1-4.85.568c0,.228,0,.379-.114.417a.536.536,0,0,1-.227.076c-.076,0-.114.038-.114.076s.076.076.152.038A5.92,5.92,0,0,1-4.32.985C-4.206.947-3.676.872-3.3.8c.076,0,.152-.038.114-.114,0-.038-.038-.038-.114-.038s-.227.038-.341.038c-.227,0-.3-.114-.341-.341A9.874,9.874,0,0,1-4.32-1.137l-.038-.113c0-.038,0-.076.038-.076l.607-.114a.286.286,0,0,1,.151.038c.114.076.531.493.91.834A3.558,3.558,0,0,0-1.478.265a1.162,1.162,0,0,0,.8-.038L-.038.076A.1.1,0,0,0,.076-.038C.076,0,.038,0,0,0M-3.334-1.895a.844.844,0,0,1-.455.228,1.3,1.3,0,0,1-.531.038c-.038,0-.075-.038-.075-.114L-4.85-3.865a.14.14,0,0,1,.038-.114,1.539,1.539,0,0,1,.379-.113A1.141,1.141,0,0,1-3.107-3.031a1.5,1.5,0,0,1-.227,1.136"/>
            </g>
            <g id="Group_1276" data-name="Group 1276" transform="translate(55.835 -49.812)">
              <path id="Path_1184" data-name="Path 1184" class="cls-6" d="M0,0-.227-.038c-.72-.151-.986-.3-1.137-.606A.734.734,0,0,1-.909-1.667a1,1,0,0,1,.871-.038.851.851,0,0,1,.379.341c.038.076.076.114.114.076s.038-.076-.038-.228a8.567,8.567,0,0,1-.341-.8.14.14,0,0,0-.114-.038,4.077,4.077,0,0,0-.909.3c-.91.455-1.251,1.212-.91,1.932.266.531.72.834,1.7,1.061l.417.076a1.419,1.419,0,0,1,1.137.72A.861.861,0,0,1,.909,2.88a1.052,1.052,0,0,1-1.25-.19,1.544,1.544,0,0,1-.227-.3c-.038-.038-.076-.113-.114-.076a.17.17,0,0,0,0,.19A8.433,8.433,0,0,0-.3,3.372c0,.228.038.228.151.228A2.253,2.253,0,0,0,.872,3.3a2.18,2.18,0,0,0,.909-.758,1.548,1.548,0,0,0,.076-1.4C1.554.53,1.061.227,0,0"/>
            </g>
            <g id="Group_1277" data-name="Group 1277" transform="translate(30.94 -97.631)">
              <path id="Path_1185" data-name="Path 1185" class="cls-6" d="M0,0A.4.4,0,0,1,.3-.038.91.91,0,0,1,.72.341L3.713,4.054c.114.152.19.228.266.19s.075-.114.113-.455c.038-.72.038-3.448.038-3.827l2.69,2.8c.19.227.266.265.342.265.075-.038.075-.113.075-.379-.075-1.136-.189-3.524-.189-4.471,0-.454-.038-.72.114-.833.075-.038.151-.114.227-.114.076-.038.076-.038.076-.114,0-.038-.076-.038-.152,0-.227.076-.493.228-.53.228-.076.037-.341.113-.72.265q-.171.057-.114.114c0,.037.076.037.152,0,.265-.114.341-.038.378.075a1.015,1.015,0,0,1,.076.417c.076.872.228,2.842.265,3.335H6.783L4.092-1.288c-.151-.19-.227-.266-.3-.228-.038.038-.076.076-.076.3l.038,3.979H3.713C3.448,2.425,2.046.644,1.781.265A3.461,3.461,0,0,1,1.4-.3a.173.173,0,0,1,0-.19.293.293,0,0,1,.152-.075c.075-.038.113-.038.113-.114,0-.038-.076-.038-.151,0a6.6,6.6,0,0,0-.72.3C.72-.341.341-.227,0-.114-.076-.076-.152-.038-.114,0A.071.071,0,0,0,0,0"/>
            </g>
            <g id="Group_1278" data-name="Group 1278" transform="translate(54.395 -93.274)">
              <path id="Path_1186" data-name="Path 1186" class="cls-6" d="M0,0C.265.152.644.341.8.417c.189.076.568.341.985.53.076.038.114.038.151,0,0-.038,0-.075-.075-.113s-.228-.152-.3-.19C1.364.531,1.4.341,1.478.189A14.832,14.832,0,0,1,2.16-1.175L3.524-3.751l.8.454c.568.3.644.569.568.758l-.038.076c-.038.114-.038.152,0,.152.038.038.076,0,.114-.076.076-.152.341-.606.417-.72.038-.076.075-.152.038-.152s-.076-.038-.19-.075a1.947,1.947,0,0,1-.455-.19L2.273-4.85a4.271,4.271,0,0,1-.606-.379,1.222,1.222,0,0,1-.227-.227c-.038-.038-.076,0-.152.075-.038.038-.454.569-.53.645-.038.075-.038.113,0,.113.038.038.076,0,.113-.038A.584.584,0,0,1,1.1-4.812c.151-.076.341-.038.72.151l.947.493L1.4-1.591A14.522,14.522,0,0,1,.644-.265C.53-.076.417.038.265,0A.326.326,0,0,1,.038-.114q-.114-.057-.114,0C-.114-.076-.076-.038,0,0"/>
            </g>
            <g id="Group_1279" data-name="Group 1279" transform="translate(24.688 -59.171)">
              <path id="Path_1187" data-name="Path 1187" class="cls-6" d="M0,0C.227-.114.379-.114.493.038.53.114.568.152.606.227S.682.341.72.3.758.227.72.152A5.179,5.179,0,0,0,.3-.568a7.3,7.3,0,0,0-.379-.72C-.114-1.364-.152-1.4-.189-1.4c-.038.038-.038.076,0,.152a1.225,1.225,0,0,0,.113.227C0-.8-.076-.682-.3-.568c-.19.113-.379.227-1.326.72l-.8.416c-.644.341-1.213.645-1.743.455a1.441,1.441,0,0,1-.8-.682,1.367,1.367,0,0,1-.151-.909c.075-.455.379-.834,1.288-1.327l.871-.454c.948-.493,1.137-.607,1.365-.72s.378-.114.492.038c.038.075.076.113.114.189s.076.076.113.076.038-.076,0-.152c-.113-.227-.341-.606-.416-.757-.114-.19-.3-.607-.455-.948-.038-.076-.076-.113-.114-.113-.038.037-.038.075,0,.151a.809.809,0,0,1,.114.265c.076.228,0,.341-.227.455-.19.114-.379.227-1.327.72l-1.061.455A2.378,2.378,0,0,0-5.722-1.25a2.162,2.162,0,0,0,.3,1.629A2.1,2.1,0,0,0-4.282,1.44a2.694,2.694,0,0,0,2.236-.417l.682-.341A12.682,12.682,0,0,1,0,0"/>
            </g>
            <g id="Group_1280" data-name="Group 1280" transform="translate(63.413 -85.923)">
              <path id="Path_1188" data-name="Path 1188" class="cls-6" d="M0,0A.843.843,0,0,1-.152-.189C-.189-.265-.227-.265-.265-.265c-.038.038-.038.076,0,.151.151.228.379.607.454.72.038.076.3.569.531.91.038.075.076.113.152.075.037,0,.037-.037,0-.113l-.152-.3C.644.985.758.872.909.72A13.016,13.016,0,0,1,2.2-.114l.075-.038c.038-.037.076,0,.076.038l.3.531c.038.038.038.076.038.151-.038.152-.3.682-.492,1.1a3.074,3.074,0,0,0-.379,1.364,1.406,1.406,0,0,0,.265.72l.341.569c.038.075.076.113.114.075.113,0,.113-.037.076-.075s-.038-.114-.076-.19a1.415,1.415,0,0,1,0-.947c.151-.606.454-1.326.8-2.311a2.079,2.079,0,0,0,1.857,0A1.373,1.373,0,0,0,5.8-.038a2.268,2.268,0,0,0-.416-1.288c-.114-.19-.417-.644-.531-.872-.076-.113-.3-.53-.492-.833-.038-.076-.076-.114-.152-.114-.038.038-.038.076,0,.152a.791.791,0,0,1,.114.265c.075.227,0,.341-.19.492-.189.114-.379.228-1.288.8L1.781-.8C1.213-.455.72-.152.455-.038.265.038.114.076,0,0M2.8-.455,4.661-1.591a.07.07,0,0,1,.113,0c.038.037.114.151.228.3A1.157,1.157,0,0,1,4.433.341a1.144,1.144,0,0,1-1.1.189A.711.711,0,0,1,2.956.152a2.856,2.856,0,0,1-.228-.493c0-.038,0-.076.076-.114"/>
            </g>
            <g id="Group_1281" data-name="Group 1281" transform="translate(59.359 -90.28)">
              <path id="Path_1189" data-name="Path 1189" class="cls-6" d="M0,0C-.038-.038-.114-.076-.189-.152S-.3-.227-.3-.189c-.038.037,0,.075.038.151C-.152.076,0,.189.114.3a1.616,1.616,0,0,0,.3.265l.53.531.872.871c.189.19.265.228.417.114a3.874,3.874,0,0,0,.606-.53c.038-.038.076-.076.038-.114S2.8,1.4,2.766,1.478a.564.564,0,0,1-.606.151,1.88,1.88,0,0,1-.531-.379C1.1.758,1.1.606,1.4.227c.152-.151.606-.644.758-.8l.379-.417c.038-.038.038-.038.076-.038.113.114.644.606.719.72a.381.381,0,0,1,.114.492A.856.856,0,0,1,3.3.379c-.038.038-.038.076,0,.076.037.038.113,0,.151-.038s.227-.228.341-.341c.265-.265.379-.3.379-.341.038-.038.038-.038,0-.076s-.076,0-.151,0a.618.618,0,0,1-.342-.152c-.113-.113-.719-.644-.833-.757-.038-.038,0-.038,0-.076l1.25-1.326c.038-.038.076-.038.076,0,.114.113.644.606.72.72.227.265.227.378.189.53a1.128,1.128,0,0,1-.151.227.14.14,0,0,0-.038.114c.038.038.076,0,.114,0a2.821,2.821,0,0,0,.341-.3c.227-.227.341-.265.341-.3.038-.038.038-.038,0-.076a.14.14,0,0,0-.114-.038A2.431,2.431,0,0,0,5.3-1.97c-.114-.076-1.137-1.061-1.326-1.213l-.3-.3L3.259-3.9c-.076-.076-.114-.114-.152-.076s0,.076.038.114l.189.19c.152.189.114.3-.037.492A14.382,14.382,0,0,1,2.273-2.046l-.795.8C1.023-.758.644-.341.417-.152.265-.038.114.076,0,0"/>
            </g>
            <g id="Group_1282" data-name="Group 1282" transform="translate(42.27 -100.662)">
              <path id="Path_1190" data-name="Path 1190" class="cls-6" d="M0,0H.265c.228.038.3.152.3.417,0,.227.038.417.038,1.515L.531,3.107c0,.644.037,1.213,0,1.516C.493,4.85.455,5,.341,5,.265,5,.189,5.04.076,5.04c-.076,0-.114.037-.114.075s.038.076.152.076c.151,0,.341-.038.492-.038H3.031c.266,0,.341,0,.379-.189a5.641,5.641,0,0,0,.076-.8c0-.076,0-.114-.076-.114-.038,0-.075.038-.075.114-.038.3-.114.455-.3.531a4.351,4.351,0,0,1-.682.113c-.72,0-.833-.076-.871-.568a10.983,10.983,0,0,0-.038-1.1V2.577c0-.038,0-.076.038-.076H2.5c.265.038.379.114.417.265a.644.644,0,0,1,.038.265c0,.038,0,.076.075.076s.076-.076.076-.151a2.716,2.716,0,0,1,.038-.493c.038-.379.038-.493.038-.531a.037.037,0,0,0-.038-.037c-.038,0-.076.037-.114.075a.46.46,0,0,1-.341.114c-.151,0-.985.038-1.136.038-.038,0-.038-.038-.038-.076L1.478.227c0-.038,0-.075.038-.075H2.539c.341.037.417.113.492.265a.642.642,0,0,1,.038.265c0,.076,0,.114.076.114A.082.082,0,0,0,3.221.72c0-.076.038-.417.038-.455A2.058,2.058,0,0,1,3.3-.189c0-.038,0-.076-.038-.076s-.076.038-.114.038-.189.038-.3.038c-.152,0-1.554.037-1.781.037H.038c-.114,0-.152,0-.152.076C-.114-.038-.076,0,0,0"/>
            </g>
            <g id="Group_1283" data-name="Group 1283" transform="translate(48.294 -95.32)">
              <path id="Path_1191" data-name="Path 1191" class="cls-6" d="M0,0A2.978,2.978,0,0,0,.985.417,2.082,2.082,0,0,0,2.16.379,1.451,1.451,0,0,0,3.069-.682c.152-.682-.038-1.213-.758-2.008L2.16-2.88c-.493-.568-.606-.833-.531-1.174.076-.417.455-.645.986-.531a.929.929,0,0,1,.682.493.643.643,0,0,1,.075.492c0,.076,0,.114.038.152.038,0,.076-.038.114-.19.114-.53.189-.757.189-.833,0-.038-.038-.076-.075-.114a3.538,3.538,0,0,0-.91-.3C1.743-5.077.985-4.661.834-3.9a2.186,2.186,0,0,0,.682,1.9l.265.3c.492.568.53.909.455,1.25a.884.884,0,0,1-1.1.607A.974.974,0,0,1,.3-.758v-.379c0-.038,0-.113-.038-.113S.189-1.175.152-1.1C.114-.985,0-.568-.076-.189A.118.118,0,0,0,0,0"/>
            </g>
            <g id="Group_1284" data-name="Group 1284" transform="translate(21.202 -75.237)">
              <path id="Path_1192" data-name="Path 1192" class="cls-6" d="M0,0A1.326,1.326,0,0,1-.038.227q-.057.114,0,.114A.1.1,0,0,0,.076.227,6.569,6.569,0,0,1,.227-.455c.038-.113.152-.417.228-.72.038-.113.038-.189-.038-.189C.379-1.4.341-1.326.341-1.288.3-1.25.3-1.137.227-1.023a.214.214,0,0,1-.265.151,2.807,2.807,0,0,0-.3-.113l-2.652-1.1v-.038c.606-.114,1.591-.265,1.743-.3.227-.038,1.4-.3,1.78-.379.228-.076.417-.076.417-.152.038-.037-.038-.075-.3-.341L-2.084-5.646v-.038l3.145.417c.227.038.3.076.3.114s0,.076.038.076.076-.038.114-.19a13.813,13.813,0,0,0,.416-1.4c0-.076,0-.189-.037-.189s-.076.037-.076.113a1.8,1.8,0,0,1-.19.417c-.113.19-.341.19-.795.152L-3.6-6.707c-.151,0-.265,0-.265.076-.038.038,0,.114.114.189L-.3-3.524l-4.4.834c-.189.038-.265.075-.265.113s.038.114.152.152L-.455-.417C-.227-.341,0-.189,0,0"/>
            </g>
            <g id="Group_1285" data-name="Group 1285" transform="translate(23.437 -91.72)">
              <path id="Path_1193" data-name="Path 1193" class="cls-6" d="M0,0C.076-.076.189-.152.227-.189A.332.332,0,0,1,.72-.076c.152.152.3.3,1.023,1.1l.834.947a13.406,13.406,0,0,1,.985,1.137c.113.19.189.3.113.417a.8.8,0,0,1-.189.189c-.076.038-.076.076-.038.114s.076,0,.152-.038a2.962,2.962,0,0,0,.341-.341,1.616,1.616,0,0,1,.3-.265c.114-.114.341-.265.53-.455a4.353,4.353,0,0,0,.645-.53A3.113,3.113,0,0,0,6.631-.038a2.8,2.8,0,0,0-.758-2.008A2.286,2.286,0,0,0,4.244-2.88a3.838,3.838,0,0,0-2.69,1.326c-.3.3-.645.607-.8.758s-.493.417-.8.682C-.114-.038-.152,0-.114.038S-.038.038,0,0M1.44-.872a1.237,1.237,0,0,1,.3-.341,2.735,2.735,0,0,1,1.97-.833,2.369,2.369,0,0,1,1.706.871A2.206,2.206,0,0,1,6.176.53,2.346,2.346,0,0,1,5.3,2.008c-.417.379-.72.455-.872.417a1.645,1.645,0,0,1-.416-.341c-.114-.114-.455-.493-.986-1.061L2.425.341c-.379-.417-.8-.871-.947-1.061C1.44-.8,1.4-.834,1.44-.872"/>
            </g>
            <g id="Group_1286" data-name="Group 1286" transform="translate(19.913 -86.718)">
              <path id="Path_1194" data-name="Path 1194" class="cls-6" d="M0,0A.8.8,0,0,1,.152-.189C.265-.3.417-.3.606-.189s.379.227,1.289.8l1.1.72A13.882,13.882,0,0,1,4.282,2.2c.151.113.227.227.189.379-.038.075-.038.151-.113.227q-.057.114,0,.114c.037.038.075,0,.151-.076.152-.227.379-.644.455-.758.113-.152.341-.53.606-.947.038-.076.038-.114,0-.152s-.076,0-.114.076a1.533,1.533,0,0,1-.227.3c-.152.152-.265.152-.455.038-.265-.152-.757-.455-1.326-.8L2.387-.114C1.478-.682,1.288-.8,1.1-.947S.834-1.213.909-1.4c.038-.076.038-.114.076-.189s.038-.114,0-.152-.076,0-.113.114C.72-1.4.53-1.023.417-.872.3-.682.038-.341-.076-.114-.152,0-.152.038-.114.076S-.038.076,0,0"/>
            </g>
            <g id="Group_1287" data-name="Group 1287" transform="translate(44.467 -103.438)">
              <path id="Path_1195" data-name="Path 1195" class="cls-6" d="M0,0A31,31,0,1,0,0,62.009,31.04,31.04,0,0,0,31,31,31.04,31.04,0,0,0,0,0M0,61.005A30.034,30.034,0,0,1-30,31,30.035,30.035,0,0,1,0,1,30.035,30.035,0,0,1,30,31a30.034,30.034,0,0,1-30,30"/>
            </g>
            <g id="Group_1288" data-name="Group 1288" transform="translate(46.968 -85.582)">
              <path id="Path_1196" data-name="Path 1196" class="cls-6" d="M0,0C.189,0,.341-.3.341-.834c0-.416-.114-.909-.379-.909-.227,0-.341.3-.341.834C-.379-.493-.3,0,0,0"/>
            </g>
            <g id="Group_1289" data-name="Group 1289" transform="translate(44.96 -86.491)">
              <path id="Path_1197" data-name="Path 1197" class="cls-6" d="M0,0C0,.417.076.909.379.909.568.909.72.606.72.076c0-.417-.114-.91-.379-.91C.114-.834,0-.53,0,0"/>
            </g>
            <g id="Group_1290" data-name="Group 1290" transform="translate(43.368 -86.339)">
              <path id="Path_1198" data-name="Path 1198" class="cls-6" d="M0,0A.528.528,0,0,0,.341-.114V-.189A.037.037,0,0,0,.3-.152a.773.773,0,0,1-.189.038c-.076,0-.341-.075-.341-.492,0-.228.113-.379.3-.379S.455-.8.455-.341A1.386,1.386,0,0,1-.189.834L-.227.872A.037.037,0,0,0-.189.909h.037A1.617,1.617,0,0,0,.8-.417.68.68,0,0,0,.114-1.1.608.608,0,0,0-.53-.493.486.486,0,0,0,0,0"/>
            </g>
            <g id="Group_1291" data-name="Group 1291" transform="translate(41.966 -87.097)">
              <path id="Path_1199" data-name="Path 1199" class="cls-6" d="M0,0C.038,0,.038,0,.038.076V1.44c0,.076,0,.076-.076.114H-.227v.037c0,.038,0,.038.038.038H.568c.038,0,.038,0,.038-.038V1.554H.455A.2.2,0,0,1,.379,1.4V-.341A.037.037,0,0,0,.341-.379a.133.133,0,0,0-.076.038C.189-.3-.265.038-.265.038A.037.037,0,0,0-.3.076V.114h.038C-.227.114-.038,0,0,0"/>
            </g>
            <g id="Group_1292" data-name="Group 1292" transform="translate(44.278 -70.198)">
              <path id="Path_1200" data-name="Path 1200" class="cls-6" d="M0,0A2.3,2.3,0,0,0-1.023,1.895a2.27,2.27,0,0,1,.758-.266,1.8,1.8,0,0,1,1.174.266A2.2,2.2,0,0,0,0,0M-.72,1.478V1.4A1.32,1.32,0,0,1-.038.341L0,1.288a2.792,2.792,0,0,0-.72.19"/>
            </g>
            <g id="Group_1293" data-name="Group 1293" transform="translate(46.476 -61.558)">
              <path id="Path_1201" data-name="Path 1201" class="cls-6" d="M0,0C-.493.341-1.1.8-1.1.8V1.857a12.771,12.771,0,0,1,1.137,1.1A1.37,1.37,0,0,1,.076,4.509c-.265.265-1.137.455-1.175.872,0,.53.91.72.91,1.326,0,.568-.569.985-.758,1.212a1.354,1.354,0,0,0-.19.872c0,.379-.3.758-.947.53a.709.709,0,0,1-.606-.833,1.194,1.194,0,0,1-1.023-.569,1.038,1.038,0,0,1,.682-.492c.53-.114.265-.644.113-.8-.454-.493-1.023-.568-1.136-1.25-.152-.986,1.136-1.213,1.136-1.213V3.3c0-.152-.3-.379-.8-.8C-4.433,1.932-4.85,1.478-4.736.682-4.661.038-3.3-.644-3.3-.644v-1.1L-17.582,2.8A21.232,21.232,0,0,0-2.008,9.965,21.617,21.617,0,0,0,13.6,2.8S1.326-1.061.493-1.326A1.26,1.26,0,0,1,0,0"/>
            </g>
            <g id="Group_1294" data-name="Group 1294" transform="translate(42.914 -66.863)">
              <path id="Path_1202" data-name="Path 1202" class="cls-6" d="M0,0A.58.58,0,0,0,.606,0C.531-.038.493-.152.341-.152S.114-.038,0,0"/>
            </g>
            <g id="Group_1295" data-name="Group 1295" transform="translate(19.421 -70.273)">
              <path id="Path_1203" data-name="Path 1203" class="cls-6" d="M0,0A2.99,2.99,0,0,0-1.895,1.4a3.17,3.17,0,0,0,2.236.871A3.483,3.483,0,0,1,0,0M-1.591,1.364l1.364-.189a2.348,2.348,0,0,0,.265.871H-.038a2.207,2.207,0,0,1-1.553-.682"/>
            </g>
            <g id="Group_1296" data-name="Group 1296" transform="translate(69.59 -70.349)">
              <path id="Path_1204" data-name="Path 1204" class="cls-6" d="M0,0A3.807,3.807,0,0,1-.417,2.273a2.871,2.871,0,0,0,2.274-.795A2.954,2.954,0,0,0,0,0M0,2.046H-.076a2.37,2.37,0,0,0,.3-.833l1.327.227A1.926,1.926,0,0,1,0,2.046"/>
            </g>
            <g id="Group_1297" data-name="Group 1297" transform="translate(44.467 -94.206)">
              <path id="Path_1205" data-name="Path 1205" class="cls-6" d="M0,0A21.76,21.76,0,0,0-21.736,21.735,21.761,21.761,0,0,0,0,43.471,21.76,21.76,0,0,0,21.735,21.735,21.759,21.759,0,0,0,0,0M10.145,12.255,15.53,7.276c.15.161.3.324.441.49l-5.123,4.427.054.063,5.123-4.428c.145.168.291.335.432.508l-4.812,3.856.051.065L16.508,8.4c.145.179.288.359.427.543l-4.948,3.7.049.066,4.95-3.7c.134.178.261.361.389.543l-4.7,3.283.047.068L17.423,9.62q.184.264.36.534l-4.657,2.983.044.07,4.658-2.984c.119.184.24.368.353.556L12.862,13.97l.042.071,5.318-3.191c.113.188.221.378.328.57l-5.232,2.89.04.073,5.233-2.892c.112.2.217.406.321.61L13.471,14.84l.037.074,5.442-2.739c.1.195.2.39.289.589l-5.805,2.682.035.075,5.8-2.682c.094.2.189.405.277.612L14.8,15.445l.031.076,4.75-1.994c.088.208.168.419.249.63L14.46,16.2l.029.078,5.372-2.046c.075.2.146.4.216.6L14.84,16.619l.027.078L20.1,14.915c.072.21.143.419.208.632l-4.257,1.3.024.079,4.256-1.3q.1.33.189.664l-4.24,1.124.021.08,4.241-1.124c.055.21.1.424.151.637l-5.549,1.278.019.08,5.549-1.277c.049.221.1.443.139.667l-6.387,1.212.015.081,6.386-1.212c.04.212.081.422.114.636L13.635,19.61l.012.082,7.347-1.138c.034.22.059.443.085.665l-6.685.808.01.082L21.09,19.3q.037.333.064.669l-5.887.512.007.082,5.887-.512c.017.223.036.445.047.669l-4.36.23a.5.5,0,0,0-.12-.364c-.068-.1-.281-.032-.633.084-.092.03-.193.063-.3.1a1.118,1.118,0,0,0-.643.561,2.17,2.17,0,0,1-.2.279.911.911,0,0,1-.191.19c0-.009,0-.024,0-.034a.262.262,0,0,0,0-.028.092.092,0,0,1,.02-.045c.042-.068.064-.135-.1-.274a.547.547,0,0,1-.219-.514.124.124,0,0,0-.04-.1c-.059-.048-.166-.026-.3,0l-.029.005a.205.205,0,0,1-.227-.055.361.361,0,0,0,.066-.344.148.148,0,0,0-.09-.121.643.643,0,0,0-.473.106c-.069.046-.07.046-.1.03a.388.388,0,0,0-.073-.032c-.127-.042-.136-.033-.287.119l-.045.046c-.02.023-.02.023-.059.034s-.088.027-.192.066c-.089.034-.149.039-.176.015s-.013-.142.008-.227l.007-.028c.037-.146.047-.241-.125-.327s-.278.1-.356.215l-.012.019a.18.18,0,0,0-.032.117.775.775,0,0,0-.122-.231c-.171-.228-.143-.269-.086-.351a.714.714,0,0,0,.052-.086.514.514,0,0,0-.087-.375c-.01-.018-.02-.037-.03-.059-.07-.1-.282-.032-.633.084-.092.031-.193.064-.3.1a1.1,1.1,0,0,0-.643.56,2.261,2.261,0,0,1-.2.28.916.916,0,0,1-.191.19c0-.009,0-.024,0-.034s0-.019,0-.028a.1.1,0,0,1,.019-.046c.043-.067.064-.135-.107-.276a.334.334,0,0,1-.108-.1c-.008-.011-.017-.021-.025-.031.091-.113.138-.168.16-.193a.1.1,0,0,0,.084-.012.414.414,0,0,0,.318-.479.149.149,0,0,0-.091-.121.642.642,0,0,0-.473.106c-.07.046-.069.046-.1.03a.469.469,0,0,0-.073-.032c-.1-.034-.128-.01-.2.052-.021.018-.047.039-.083.067s-.048.05-.06.063-.018.022-.053.029l-.055.013a.224.224,0,0,0-.078-.041c-.02-.008-.042-.017-.073-.032s-.073-.02-.094,0-.006.067.018.116c-.045.011-.1.014-.118-.013s-.011-.134.057-.27c.036-.147.046-.242-.126-.328s-.278.1-.355.216l-.013.019a.162.162,0,0,0-.031.088.742.742,0,0,0-.085-.165c-.171-.228-.143-.269-.086-.351a.61.61,0,0,0,.051-.086.479.479,0,0,0-.116-.4c-.07-.1-.282-.032-.633.084-.092.03-.193.064-.3.1a1.1,1.1,0,0,0-.643.56l-.033.049V10.974A13.934,13.934,0,0,0,3.859,4.495L4.69,1.03c.214.049.429.1.64.15L4.355,4.825l.08.022L5.409,1.2c.212.056.42.117.629.179l-1.3,4.2.079.025,1.3-4.2c.217.065.431.136.645.209L5.379,5.656l.079.027L6.842,1.639c.209.072.419.144.625.222L5.683,6.412l.077.03L7.544,1.891c.211.081.422.162.63.249L6.214,6.714l.076.033L8.251,2.171c.2.085.4.179.6.27L6.859,6.675l.074.035L8.924,2.475c.2.1.405.193.605.294L6.859,7.962,6.933,8,9.6,2.807c.19.1.38.192.567.294l-2.7,4.86L7.539,8l2.7-4.858c.192.106.381.216.57.328l-2.7,4.488L8.182,8l2.7-4.49c.2.118.39.242.583.366L8.794,7.958,8.863,8l2.672-4.081c.181.118.36.237.537.359L9.477,7.957l.067.048,2.6-3.676c.19.133.382.265.568.405l-3.04,3.98.066.05,3.039-3.979c.169.128.335.261.5.394L9.858,9.357l.063.052L13.338,5.23c.171.139.339.282.506.426l-3.493,4,.062.054,3.494-4q.26.225.512.457L10.807,10l.06.056,3.612-3.831c.155.145.309.289.46.438l-3.563,3.563.058.058L15,6.72c.162.161.318.329.475.5l-5.384,4.978Zm-9,15.183v.006c-.132-.1-.294-.181-.346-.366-.076-.227,0-.53-.114-.8-.19-.454-.758-.492-.985-.492-.379,0-.455.038-.948.341a.669.669,0,0,1-.151.341c-.379.379-.985.227-1.364.834a1.2,1.2,0,0,0-.131.3l-2.592.488c-.022-.271-.022-.573-.022-.75,0-.084-.007-.224-.015-.387-.01-.191-.022-.408-.022-.574h.008a.1.1,0,0,0,.1-.055.372.372,0,0,0-.023-.265.56.56,0,0,0,.113.051.06.06,0,0,0,.061.008c.032-.021.025-.077.011-.166a.434.434,0,0,1-.009-.11,1.21,1.21,0,0,0,.267-.194c.06-.08.111-.158.155-.227.123-.193.213-.332.4-.332a.856.856,0,0,1,.341.072.411.411,0,0,0,.155.041h0l.071-.014c.045-.009.078-.015.1-.042s.015-.076,0-.162a.653.653,0,0,0-.029-.06.121.121,0,0,0,.02-.019.508.508,0,0,0,.058-.073l.008-.013a.427.427,0,0,1,.015.059.6.6,0,0,1-.029.162c-.014.048-.023.077,0,.093s.057,0,.178-.085c.032-.023.056-.032.071-.024.038.019.037.148.037.243,0,.135,0,.218.046.244a.065.065,0,0,0,.07-.007.244.244,0,0,0,.14-.239c.005-.068.007-.1.074-.1l.034.008a.038.038,0,0,0,0,.03c.01.025.044.053.348.114l.054.011c.322.064.42.083.463.041s.021-.077.008-.15l-.007-.043a.6.6,0,0,0-.068-.15.237.237,0,0,1-.019-.034.321.321,0,0,1,.054.018A.474.474,0,0,0-2,25.12a.078.078,0,0,0,.05-.04,1.229,1.229,0,0,1,.1-.168.247.247,0,0,0,.12.011.238.238,0,0,0,.155-.1.4.4,0,0,0,.059-.372c-.011-.056-.021-.105,0-.123s.082-.017.185.009c.014,0,.058.019.082-.009s-.015-.137-.1-.289a.813.813,0,0,1-.089-.194h0a.627.627,0,0,1,.25.066c.166.062.269.1.316.057a.072.072,0,0,0,.016-.076.247.247,0,0,1,0-.249.651.651,0,0,0,.033-.074.369.369,0,0,1,.078-.085A.571.571,0,0,0-.588,23.3a.061.061,0,0,0,.011-.057c-.012-.025-.046-.026-.1-.027a.409.409,0,0,1-.333-.132c-.057-.066-.056-.09-.053-.1s.073-.025.13-.03c.1-.008.229-.018.266-.112.045-.073.181-.324.08-.464-.069-.1-.23-.116-.481-.061a1.557,1.557,0,0,0-.242.059.493.493,0,0,0,0-.117c-.042-.254.012-.335.052-.394a.157.157,0,0,0,.022-.178c-.137-.346-.28-.547-.423-.6a.2.2,0,0,0-.176.018c-.072.041-.13.082-.177.115a.4.4,0,0,1-.109.065h0c-.005,0-.018-.021-.018-.123a.775.775,0,0,0-.2-.508.126.126,0,0,0-.052-.025c-.055-.016-.131-.039-.131-.225,0-.222-.049-.384-.132-.435a.123.123,0,0,0-.124,0c-.05.01-.074.021-.085.038a.052.052,0,0,0,0,.042c0,.008,0,.011,0,.014s-.031.03-.137.057a.877.877,0,0,0-.262.078.364.364,0,0,1-.06.023h0c0-.005-.007-.03.005-.115.007-.048.011-.087.014-.117.011-.1.012-.1.065-.093h.046a.386.386,0,0,0,.331-.032.147.147,0,0,0,.036-.145A.326.326,0,0,0-2.94,19.5a.212.212,0,0,0-.171-.016.426.426,0,0,1-.177-.01c-.09-.018-.176-.036-.251.091a1.256,1.256,0,0,0-.091.1c-.057.068-.069.082-.2.082A.319.319,0,0,0-4,19.8l-.008,0a1.107,1.107,0,0,1,.013-.11c0-.037.008-.067.011-.092s.008-.068.011-.082h0a.2.2,0,0,0,.111,0,.159.159,0,0,0,.128-.158c0-.037-.031-.16-.283-.188a1.056,1.056,0,0,0-.415.03.189.189,0,0,1-.1.012.288.288,0,0,1-.044-.127c-.013-.058-.022-.1-.057-.112s-.058.024-.081.054a.321.321,0,0,1-.325.106c-.01-.006-.04-.023-.017-.082.082-.11.119-.173.1-.21s-.073-.024-.119-.012a.371.371,0,0,0-.165.078.167.167,0,0,1-.172.036.7.7,0,0,1-.224-.057c-.082-.031-.146-.055-.185-.028a.075.075,0,0,0-.029.068.323.323,0,0,0,.1.181c.082.1.154.188.025.3-.166.14-.145.207-.1.275a.088.088,0,0,1,.02.045.262.262,0,0,0,0,.028c0,.01,0,.025,0,.034a.507.507,0,0,1-.093-.083v-7.86c1.288.833,1.629,2.16,2.122,3.107l-.3.341c.265.038.416-.076.53,0a8.239,8.239,0,0,0-.947,1.4,3.958,3.958,0,0,1,1.136-.038c-.454.189-1.136.114-1.439.644a7.433,7.433,0,0,0,1.25.455A8.1,8.1,0,0,0-2.2,17.3c-.606-.871-.455-1.819-1.023-2.425.3-.606.606-.947.909-1.554A23.371,23.371,0,0,1-.379,15.711l-.417.454a2.659,2.659,0,0,1,.947-.038c-1.174-.075-1.1,1.137-1.439,1.819.568-.076.947-.189,1.174-.189.265,0,.19.076.265.151a4.581,4.581,0,0,1-1.25.266.72.72,0,0,0-.606.606A8.7,8.7,0,0,0,0,19.538a4.635,4.635,0,0,0,1.705-.758,3.862,3.862,0,0,0-.265-.568A18.716,18.716,0,0,1,.417,15.635c0-.341,1.667-1.9,1.932-2.084a10.369,10.369,0,0,0,.91,1.44l-.3.341c.266.038.455-.076.607,0A2.225,2.225,0,0,0,2.539,16.81a2.52,2.52,0,0,1,.72-.19c.265,0,.227,0,.3.038-.455.227-.948.152-1.251.758a4.453,4.453,0,0,0,1.137.454,8.172,8.172,0,0,0,1.364-.454c-.3-.872-1.023-2.312-1.023-2.577A26.154,26.154,0,0,1,5.57,12.073v6.864a.674.674,0,0,1-.054-.309.129.129,0,0,0-.04-.1c-.059-.048-.167-.026-.3,0l-.025.005a.1.1,0,0,0-.075.051c-.023.05.015.118.044.167l.006.012,0,0a.715.715,0,0,1-.16-.073c-.069-.039-.11-.063-.137-.04s-.014.056.006.1a.681.681,0,0,1,.021.335.369.369,0,0,0-.142-.134.569.569,0,0,1-.061-.041.048.048,0,0,0,.029-.034c0-.02-.009-.043-.037-.071a.19.19,0,0,0-.144-.073.6.6,0,0,0-.365.131.064.064,0,0,0-.015-.028c-.035-.04-.12-.053-.254-.039-.157.018-.188.075-.185.12,0,.091.158.188.257.188h0c.073.018.071.035.061.118a.831.831,0,0,0,0,.243c.005.035.012.085.013.11L4,19.57a.315.315,0,0,0-.172-.054c-.147,0-.147,0-.224-.1-.017-.022-.037-.049-.061-.078-.031-.052-.056-.076-.085-.079s-.055.02-.08.045a.15.15,0,0,1-.151.062.216.216,0,0,0-.173.017.327.327,0,0,0-.119.227c-.012.061-.007.1.017.118s.094.009.168-.019a1.034,1.034,0,0,1,.107-.036.411.411,0,0,1,.058-.011v.028a.687.687,0,0,0,.029.231.711.711,0,0,1,.011.113l-.04-.017A.849.849,0,0,0,3,19.934c-.108-.028-.134-.048-.139-.057s0-.006,0-.015a.047.047,0,0,0,0-.041c-.01-.017-.035-.029-.084-.039a.124.124,0,0,0-.125,0c-.082.051-.131.214-.131.436,0,.185-.076.208-.131.225a.142.142,0,0,0-.048.021.7.7,0,0,0-.2.512c0,.038-.007.047-.007.047h0c-.016,0-.066-.05-.1-.081-.065-.065-.126-.13-.181-.11-.03.01-.048.044-.056.1-.071.474-.255.486-.418.5-.092.006-.178.011-.224.1a.154.154,0,0,0,.028.182.492.492,0,0,1,.084.392.476.476,0,0,0,.1.355c-.051-.016-.136-.04-.264-.071-.261-.057-.435-.029-.517.085a.479.479,0,0,0,.038.475c.053.133.049.141-.022.267-.024.042-.054.1-.091.17-.051.1-.061.168-.03.206.046.054.154.023.258-.007L.8,23.575l.006,0a.855.855,0,0,0,.083-.063c.035-.029.072-.062.091-.057A.053.053,0,0,1,1,23.485a.274.274,0,0,0,.057.093c.038.047.066.08.019.2a.742.742,0,0,1-.059.156c-.033.069-.058.123-.032.165s.066.046.149.046c.185,0,.274.14.4.333.044.069.1.147.154.227a.18.18,0,0,0,.133.091h0c.078,0,.141-.084.208-.173a.51.51,0,0,1,.177-.176c.208-.083.279-.215.316-.586,0-.031.01-.085.016-.131a.013.013,0,0,0,0,.006c0,.026.01.056.016.089s.014.1.019.147c.01.119.019.221.079.247.034.014.074,0,.127-.041a.839.839,0,0,0,.207-.315c.04-.089.078-.173.12-.173a.375.375,0,0,1,.165.125.567.567,0,0,1,.155.42.66.66,0,0,1-.016.088c-.01-.022-.023-.06-.035-.092a1.294,1.294,0,0,0-.1-.232c-.035-.058-.062-.084-.092-.084h0c-.035,0-.058.033-.085.072a.322.322,0,0,1-.119.119c-.1.077-.109.091-.109.144a.411.411,0,0,1-.012.1c-.013.063-.1.061-.229.051s-.317-.024-.34.14a.587.587,0,0,0,.005.2.139.139,0,0,1,0,.035.488.488,0,0,1-.139.008c-.116,0-.151,0-.165.026s0,.045.029.086a1.008,1.008,0,0,1,.116.223.382.382,0,0,1,.036.179v.053l.037-.037a.662.662,0,0,1,.218-.146.058.058,0,0,1,.01.051l-.007.041c-.013.073-.021.121.008.15.044.043.141.023.463-.042l.055-.011c.186-.04.224-.07.223-.1s-.021-.04-.064-.054a.252.252,0,0,1,.075.032l.091.047c.057.034.084.047.106.034s.017-.041.012-.091a1.144,1.144,0,0,1,.028-.449c.014-.054.024-.1.032-.131s.011-.044.015-.06a.531.531,0,0,0,.185.241c.157.112.162.128.176.162a.472.472,0,0,0,.084.137c.031.038.07.08.109.066s.051-.12.046-.282c0-.035,0-.069,0-.1s0-.048,0-.059l.016.019a.457.457,0,0,0,.1.093c.026.027.046.025.057.016.035-.021.023-.116.007-.194l.053-.107L4.3,24.562l0-.005a.129.129,0,0,1,.1-.034.666.666,0,0,1,.244.068.112.112,0,0,1-.035.088A.693.693,0,0,1,4.5,24.8a.749.749,0,0,0-.2.271c-.016.081-.021.128,0,.158s.051.033.1.042a.576.576,0,0,1,.07.014.042.042,0,0,0,.046-.006c.022-.02.012-.058,0-.116s-.039-.147-.007-.188a.1.1,0,0,1,.085-.03c.184,0,.273.14.4.333.044.069.094.147.154.227a.231.231,0,0,0,.156.112.174.174,0,0,0,.126-.057l.1.1c-.037,0-.078-.008-.121-.014a1.817,1.817,0,0,0-.241-.021c-.119,0-.15,0-.163.026s.005.044.039.087a1.227,1.227,0,0,1,.143.221.385.385,0,0,1,.036.18v.052l.036-.037A.693.693,0,0,1,5.463,26a.571.571,0,0,0,.064-.025.539.539,0,0,0-.054.113c0,.014-.007.028-.011.04-.016.06-.026.1,0,.127s.072.032.2.014c0,.17.012.421.022.643.009.187.016.348.016.431,0,.181-.018.587-.053.913ZM.606,29.2a2.527,2.527,0,0,1,1.175-.606A9.559,9.559,0,0,1,.758,29.806c-.114-.075-.834-.606-.834-.8,0-.152.076-.266.076-.493a4.8,4.8,0,0,0,.492-.152v.8s-.037.038.114.038m-1.1-.909c-.151,0-.454-.076-.72-.114l-.113.114c.416.871,3.22,2.273,3.22,3.372,0,.531-.947.872-1.174.985a2.865,2.865,0,0,0-.076-1.061c-.189-.8-3.334-2.2-3.334-3.3A1.492,1.492,0,0,1-1.1,26.927a3.513,3.513,0,0,1,2.008.72,1.88,1.88,0,0,1-1.4.644M-2.122,33.6c0-.379.834-.8,1.175-.986a2.347,2.347,0,0,0,.265,1.213C.076,34.884,1.667,35.68,1.667,36.4c0,.492-.682.757-1.061.909v-.758c0-.871-2.69-1.9-2.728-2.955m.682,4.319c-.038-.3.379-.417.682-.492a1.78,1.78,0,0,0,.72.947c.189.076,1.212.682,1.175,1.1,0,.341-.266.341-.607.644a3.45,3.45,0,0,0-.038-.606c-.568-.455-1.818-.948-1.932-1.592M.265,41.439s0,.076-.151.076-.266-.114-.342-.3V39.393c.493,0,.531.72.531.947a5.786,5.786,0,0,1-.038,1.1m.076-3.183a4.171,4.171,0,0,1-.493-.379V36.1c.228.114.493.379.493.569Zm.076-3.751a1.039,1.039,0,0,1-.493-.644V31.284a1.948,1.948,0,0,1,.493.341Zm-.493-7.73v-.493H.189c.152,0,.228.152.341.266v.416c-.227-.075-.416-.113-.606-.189m-21.158-5.04c0-.1.006-.2.008-.3l3.818.067c-.081.073-.072.156-.043.271l.007.029c.022.084.049.19.009.226s-.088.019-.177-.015c-.1-.039-.159-.056-.192-.066s-.039-.011-.059-.034l-.047-.048c-.034-.025-.06-.047-.081-.065-.076-.062-.106-.085-.2-.052a.469.469,0,0,0-.073.032c-.028.016-.029.016-.1-.03a.646.646,0,0,0-.474-.106.15.15,0,0,0-.09.121.409.409,0,0,0,.051.272l-2.346.028c0-.112-.009-.222-.009-.335m2.731,3.2a.062.062,0,0,0,.057.016c.067-.016.112-.146.18-.357.031-.1.084-.266.112-.271,0,0,.009,0,.021.032a1.658,1.658,0,0,1-.034.806l-.354.035-.386-.386Zm-.047,1.509.4-.621a.38.38,0,0,1,.09.229c0,.132.288.349.412.437a2.478,2.478,0,0,1-.907-.036s0-.008,0-.009m-1.413-1.2a1.18,1.18,0,0,1,.3-.034c.181,0,.365.032.407.1.018.031,0,.072-.045.121a1.154,1.154,0,0,1-.3.147c-.147.055-.275.1-.307.193l-.06.025c-.031.013-.066.028-.076.021s-.014-.014-.014-.067a1.177,1.177,0,0,0-.025-.218c-.028-.152-.045-.244.123-.292m2.368,1.46c.011-.014.036-.019.089-.019s.046,0,.051.034c.01.062.034.127.2.191l.068.035.069.152a1.176,1.176,0,0,1-.443-.133c-.041-.142-.06-.231-.039-.26m.6-.259a.074.074,0,0,1-.007.021.033.033,0,0,1,0-.023h0a.01.01,0,0,1,.006,0m.258-3.242.487.426a3.358,3.358,0,0,1-.739.4H-17c0-.011.018-.048.116-.154a.829.829,0,0,0,.142-.67m2.633,2.343-.005,0a.232.232,0,0,0-.009.253h0c-.038-.019-.11-.061-.192-.108a1.061,1.061,0,0,1-.092-.056c-.017-.011-.034-.023-.054-.034a2.042,2.042,0,0,0,.218-.1l.006,0a.793.793,0,0,1,.293-.145.451.451,0,0,1-.165.184m-.279,1.594c-.011-.126-.028-.316-.028-.543a.889.889,0,0,1,.176-.1l.582-.255a.335.335,0,0,1,0,.063.2.2,0,0,0,.035.159.345.345,0,0,0,.239.072,1.367,1.367,0,0,1-.384.246l-.037.018a2.9,2.9,0,0,0-.414.468l-.083.1a.374.374,0,0,1-.076.079.506.506,0,0,1,0-.1c0-.025,0-.053,0-.08s0-.069-.01-.13m.557-.915h-.009c-.129.052-.192.026-.213.012a.046.046,0,0,1-.022-.029v-.052l-.075.074,0,.006a1.289,1.289,0,0,1-.3.272l-.032-.355c.157,0,.254,0,.326-.006a1.1,1.1,0,0,1,.4.042.11.11,0,0,1-.062.035m.41-5.074c-.025.031-.03.037-.157.113a.364.364,0,0,0-.142.137.585.585,0,0,1,.022-.3l0-.008a.264.264,0,0,1,.063-.129l.014,0a.076.076,0,0,0,.1-.035.106.106,0,0,0,.057.009.906.906,0,0,0,.1.15c-.028.029-.043.047-.054.06m-2.524,6.156c.077.069.13.116.19.116h.013c.084-.009.168-.109.375-.406a4.12,4.12,0,0,1,.328-.448c.047-.056.062-.073.053-.095s-.028-.022-.063-.025a.775.775,0,0,1-.251-.069,1.046,1.046,0,0,1-.391-.479c-.069-.13-.123-.233-.194-.253a.1.1,0,0,0-.08.013l-.093.058a1.018,1.018,0,0,1-.272.145c0-.006-.006-.05.166-.285a4,4,0,0,0,.266-.39.691.691,0,0,1,.118-.164.1.1,0,0,0,.039.035.194.194,0,0,1,.032.023.164.164,0,0,0,.02.056.121.121,0,0,1,.017.048v.007a1.181,1.181,0,0,1,.044.457c0,.159-.01.285.062.324.054.031.136,0,.267-.088a1.437,1.437,0,0,1,.222-.115l.023-.01a.327.327,0,0,0-.052.25.12.12,0,0,0,.077.062.462.462,0,0,0,.039.217c.036.147.073.294.11.441a.342.342,0,0,0-.117.234,1.553,1.553,0,0,1-.106.335,1.809,1.809,0,0,0-.117.785c0,.034,0,.065,0,.094,0,.216,0,.319-.055.319a1.467,1.467,0,0,1-.511-.442.411.411,0,0,0-.044-.073c-.034-.048-.047-.067-.1-.527-.008-.061-.016-.113-.024-.159l.011.01m.769-4.292a.234.234,0,0,1-.19.131.232.232,0,0,1-.19-.131.672.672,0,0,1-.065-.167.447.447,0,0,0-.308-.355l.137-.055a.553.553,0,0,1,.584.037c.249.178.148.346.032.54m.153,4.715c.007-.027.016-.068.027-.117a4.516,4.516,0,0,1,.214-.746,1.216,1.216,0,0,1,.1.4l0,.009c.076.153.065.171-.006.284a2.018,2.018,0,0,0-.108.19,4.571,4.571,0,0,0-.2.547,2.419,2.419,0,0,1-.024-.57m.375-.862a.536.536,0,0,0-.031-.09.32.32,0,0,1,.143-.117c0,.2-.036.292-.057.3,0,0-.016-.006-.019-.01a.2.2,0,0,1-.036-.083m.075-.329-.147.117v-.007l-.009.009c-.022-.1-.045-.217-.067-.335-.011-.057-.022-.114-.032-.169h.255Zm1.12-5.635Zm.6.714c0-.012,0-.023-.005-.034l.046.023.025.006c.083.021.2.048.2.084,0,.014-.014.036-.048.063a.212.212,0,0,1-.224.041.406.406,0,0,0,0-.183m.81,2.677c.005-.067.01-.142.015-.227.051-.007.1-.015.136-.022.181-.032.249-.044.4.132.089.089.276.082.425.076a.87.87,0,0,1,.166,0,2.02,2.02,0,0,0-1.022.374.43.43,0,0,1-.113.066h0a1.2,1.2,0,0,1,0-.4m-.249,2.217a.742.742,0,0,1,.127-.373l.047.094a.055.055,0,0,0-.028.045,1.273,1.273,0,0,0-.1.228c-.012.032-.025.069-.035.091a.675.675,0,0,1-.015-.085m.7-.388c.035.038.053.059.08.053s.036-.04.05-.113a.484.484,0,0,0,.031-.083c0-.01.007-.021.011-.031,0,.008,0,.017.007.026a.456.456,0,0,1,.023.121c.006.051.012.1.016.142.024.218.041.364.135.435v.069a1.6,1.6,0,0,1,.028.226c-.01-.008-.027-.024-.041-.037a.769.769,0,0,0-.183-.136.309.309,0,0,1-.164-.153.444.444,0,0,0-.166-.181c-.006-.043-.047-.082-.122-.12a.453.453,0,0,1-.107-.112c-.037-.049-.075-.1-.122-.086l-.06-.12a.322.322,0,0,1,.163-.1.193.193,0,0,0,.057-.01c.049-.013.1-.026.233.081a1.088,1.088,0,0,1,.131.126m.819-4.211a.733.733,0,0,1,.133-.268h.074l0,0,.032-.022c.087-.062.13-.095.358.133a.383.383,0,0,0,.4.082c.009,0,.013.008.013.045l-.032.032a.586.586,0,0,0-.059.078.533.533,0,0,1-.054.073.12.12,0,0,1-.1.032h-.007a.378.378,0,0,1-.185.008.79.79,0,0,0-.1-.009.484.484,0,0,0-.349-.152.536.536,0,0,1-.125-.03m.217,4.991c.043-.058.081-.115.117-.171a2.214,2.214,0,0,1,.13-.184,1.374,1.374,0,0,0,.017.608c-.063.376-.136.546-.167.546a.451.451,0,0,1-.13-.173.38.38,0,0,1,.036-.139,1.031,1.031,0,0,1,.116-.221c.026-.041.041-.063.029-.085s-.049-.027-.165-.027a1.019,1.019,0,0,0-.174.02,1.154,1.154,0,0,1-.154.018l-.033-.066a.475.475,0,0,0-.047-.061c-.026-.031-.034-.04-.055-.177q.029.025.057.054c.079.076.16.155.253.155h.009a.228.228,0,0,0,.161-.1m1.326-2.562a.427.427,0,0,1,.285-.052.093.093,0,0,1,.056.03v.048a1.779,1.779,0,0,1-.341-.026m.385.218.03-.01a.349.349,0,0,1,.127-.025l.014.016a.364.364,0,0,0,.188.127,1.128,1.128,0,0,1-.264.261.142.142,0,0,1-.021-.09c-.015-.058-.029-.1-.041-.145a.645.645,0,0,1-.033-.134m.532.17a2.373,2.373,0,0,0,.105-.243h.014a.807.807,0,0,0,.327.059,1.912,1.912,0,0,1,.468.074c-.113.067-.25.13-.371.186a1.217,1.217,0,0,0-.38.217Zm.87-1.474.186-.051a.126.126,0,0,0,.022.052c-.038,0-.076,0-.115,0l-.093,0m.454-2.835h0c-.082-.028-.155-.053-.222.005a.849.849,0,0,1,.071-.269,2.991,2.991,0,0,1,.318-.422Zm.126,5.143.02.08,0,.02c.015.083.026.146.03.179l-.013-.012a.762.762,0,0,0-.15-.119.4.4,0,0,0,.109-.148m-.061-2.153.141.035c.179.042.363.086.391.165a1.379,1.379,0,0,0-.269.052l-.074.02a.829.829,0,0,0-.189-.272m1.3-1.386c-.066.038-.117.073-.159.1s-.091.064-.108.058-.014-.019-.019-.036v-.669a.413.413,0,0,1,.175.085.321.321,0,0,1,.111.46m-.422,3.711a.8.8,0,0,1-.11-.351l0-.007,0-.008a.34.34,0,0,1-.011-.1c0-.053-.008-.067-.108-.142l-.023-.023c.041-.048.107-.146.178-.252l.01-.016-.1-.094c.135.092.246.147.313.124a.074.074,0,0,0,.048-.06c.007-.033.012-.063.017-.089v0c.007.045.012.1.016.128,0,.07.128.134.277.208.1.052.242.121.253.165a2.845,2.845,0,0,1-.249.3,1.969,1.969,0,0,0-.349.46.931.931,0,0,1-.153-.228l0-.012Zm-.229.227c0-.074-.007-.151.035-.185a.182.182,0,0,1,.153-.008,2.927,2.927,0,0,0-.018.334,2.274,2.274,0,0,1-.028.418c-.027-.047-.1-.221-.164-.4a.259.259,0,0,0,.022-.161m1.591-5.133.093.019a.3.3,0,0,1,.12.141Zm.244.209.272.2-.3.179a.686.686,0,0,0,.027-.383m.63,2.9c0,.026,0,.043,0,.056a1.254,1.254,0,0,1-.055-.119c.036.013.057.029.057.063m.01-.283-.048.032,0,0,0-.005c.028-.083-.073-.129-.17-.174a.619.619,0,0,1-.152-.086,1.578,1.578,0,0,1,.4-.073.523.523,0,0,0,.083.065c.036.024.067.045.067.068s-.06.092-.184.175m-.339.862a.7.7,0,0,1,.232-.065.675.675,0,0,1,.086.35.15.15,0,0,1-.028.082l-.008.007a2.668,2.668,0,0,0-.2-.27c-.032-.039-.067-.083-.081-.1m.8-3.521.13-.453.258.421Zm.811,1.633a.294.294,0,0,0-.255-.008,1.577,1.577,0,0,1-.21.045c-.046.006-.074,0-.086-.018-.031-.052.045-.2.1-.283l.694-.219.243.554c-.094-.011-.339-.041-.489-.071m.353,2.142a.586.586,0,0,1-.46-.054.239.239,0,0,0-.143-.069l-.023,0c0-.012-.009-.039-.016-.073a.353.353,0,0,1-.012-.1c0-.053-.007-.067-.113-.145a.332.332,0,0,1-.116-.117c-.026-.039-.049-.073-.084-.073h0c-.029,0-.057.026-.091.084a1.26,1.26,0,0,0-.1.232c-.011.033-.025.07-.035.092a.725.725,0,0,1-.015-.088.57.57,0,0,1,.154-.419.367.367,0,0,1,.166-.125.33.33,0,0,0,.086-.021c.057-.019.129-.043.165-.017a.11.11,0,0,1,.03.092c0,.208.032.312.1.318s.151-.136.172-.239c.006-.036.011-.07.015-.1l0-.021c.006.044.012.094.015.121.021.094.033.179.043.254.028.195.049.337.2.369a.932.932,0,0,1,.119.079l.007.006-.062.007m-16.35-2.538Zm.341.455a.636.636,0,0,0,.215.136c.024.01.049.02.083.036l.025.007c.083.02.2.048.2.084,0,.014-.014.036-.046.06a.381.381,0,0,1-.271.061.645.645,0,0,0-.175.011.254.254,0,0,0-.185.155c0,.006-.006.009-.009.015l-.038,0a.383.383,0,0,0-.051-.355.935.935,0,0,0-.228-.191Zm-1.213.776a.074.074,0,0,1-.037-.034l.108-.009c-.028.029-.053.047-.071.043m-.191.506c.044-.044.075-.076.115-.077h0a.242.242,0,0,1,.126.063l-.26.032Zm.326.06.04.037a.445.445,0,0,0,.476.084h0c-.023.027-.06.069-.1.115a.751.751,0,0,0-.18.481c0,.008,0,.017,0,.025l-.089-.089-.046-.052c-.237-.273-.355-.41-.58-.334a.279.279,0,0,1-.237-.117.5.5,0,0,0-.06-.054Zm2.476,3.045a.019.019,0,0,0,.017,0c.018,0,.018-.022.017-.042s0-.1.037-.129.081-.019.152.008a2.069,2.069,0,0,1,.411.224c.015.1.051.333.106.669a1.314,1.314,0,0,1,.027.24.532.532,0,0,1-.059-.052,1.175,1.175,0,0,0-.162-.134c-.111-.074-.115-.1-.119-.123s-.017-.07-.108-.142a.634.634,0,0,0-.3-.117.624.624,0,0,0-.189-.151l-.082-.182a.434.434,0,0,0,.255-.071m-2.03-4.946a.418.418,0,0,0,.208.125.111.111,0,0,0,.074.016,1.4,1.4,0,0,0,.144.2c.048.054.088.1.125.134l-1.181.056c-.023-.008-.043-.013-.059,0,0,0,0,0,0,0l-1.694.081c-.009-.2-.012-.394-.016-.592Zm-.715.623v.007a.128.128,0,0,0,.008.1c.02.026.055.028.1.031a.447.447,0,0,1,.242.076c.067.048.1.092.105.135,0,.061-.058.12-.123.182-.014.014-.026.029-.04.043l-.227.019a.781.781,0,0,1-.022-.1.416.416,0,0,1-.009-.089c0-.043-.015-.048-.055-.049a1.074,1.074,0,0,1-.22-.031,1.694,1.694,0,0,1-.363-.106c-.192-.071-.373-.138-.468-.072a.184.184,0,0,0-.064.162.678.678,0,0,0,.1.378l-.582.051c-.018-.221-.038-.442-.05-.665Zm-.975.771a.441.441,0,0,0,.313.134c.11,0,.224.108.325.2a.57.57,0,0,0,.185.137l-.827.1c-.032-.009-.063-.019-.091-.029-.109-.036-.171-.055-.21-.036a.136.136,0,0,0-.047.108l-.232.028c-.022-.2-.036-.394-.053-.592Zm-.353.7c0,.019,0,.038,0,.057.005.084.01.178-.023.2-.013.01-.034.01-.068,0a.5.5,0,0,0-.1-.007c-.01-.075-.023-.15-.031-.226Zm6.193,4.747a1.125,1.125,0,0,1-.05-.518.584.584,0,0,0,.034-.168c.005-.067.008-.1.152-.242l.069-.084a7.2,7.2,0,0,1,1.132-1.2,1.946,1.946,0,0,1,.412-.075l.084-.04a.334.334,0,0,1,.007.072h-.143l.164.165c0,.013-.007.026-.01.038-.021.079-.035.132-.006.153s.055,0,.067-.013a.462.462,0,0,0,.1-.1l.016-.018c0,.011,0,.029,0,.058s0,.065,0,.1c-.005.163-.005.263.046.282s.078-.027.11-.066c.036-.055.046-.092.031-.118s-.058-.028-.092-.025c.012-.01.03-.023.055-.041a.527.527,0,0,0,.185-.242c0,.016.009.037.015.06s.018.077.032.131a1.144,1.144,0,0,1,.028.449c-.005.05-.009.078.012.091s.049,0,.1-.033a1.225,1.225,0,0,0,.136-.077c.036-.023.036-.022.092-.01l.066.014c.081,0,.085,0,.091.012.019.026.052.07.4.139l.065.013c.33.066.418.083.456.044.019-.019.019-.047.012-.086a.607.607,0,0,1,.17.535c-.011.075-.019.132-.026.176a1,1,0,0,0-.02.271c0,.072.007.195.008.447l-3.944.743c0-.042,0-.083,0-.121,0-.144.006-.268.006-.338a1.769,1.769,0,0,0-.065-.385m4.8-.525c0-.1-.011-.243-.022-.394a3.659,3.659,0,0,1-.017-.66.58.58,0,0,0,.032-.193c0-.072,0-.12.117-.256a2.2,2.2,0,0,1,.183-.224c.06-.069.128-.146.195-.23l0-.006v-.007c0-.01,0-.014.013-.023a.074.074,0,0,0,.025-.044,3.537,3.537,0,0,1,.781-.746,2.159,2.159,0,0,1,.382-.074l.008.022.042-.007v-.059h-.019l-.106-.318-.024.02a1.968,1.968,0,0,0-.305.3,1.538,1.538,0,0,1-.327.208c-.063.034-.122.066-.16.091a2,2,0,0,0-.365.4.9.9,0,0,0-.2-.225c-.018-.017-.036-.032-.052-.048V25.7h.054a.265.265,0,0,1,.137.069l.005,0c.1.05.274.123.335.057.037-.038.027-.108-.029-.216a.326.326,0,0,0,.106-.063.291.291,0,0,1,.062-.043.559.559,0,0,0,.274-.307l.07-.035a1,1,0,0,0,.29-.35l.168.337a.439.439,0,0,1,0,.069c0,.028,0,.033.021.065s.031.047.063.1a.374.374,0,0,1,.072.232H-8.2l.151.15h0c-.048.155-.047.191-.023.206s.045-.01.05-.015a.487.487,0,0,0,.1-.1.129.129,0,0,1,.016-.018c0,.011,0,.031,0,.063a.413.413,0,0,0,.3.275.245.245,0,0,0,.266-.077.8.8,0,0,0,.093-.135c.016-.03.021-.038.12-.118l.059.029a.689.689,0,0,0,.263.165.1.1,0,0,1,.07.053c0,.043,0,.077,0,.1,0,.056-.006.081.016.093s.041,0,.081-.025a1.338,1.338,0,0,0,.105.109A.668.668,0,0,1-6.274,27a2.105,2.105,0,0,0-.045.538c0,.095.007.239.007.487l-.007.159c0,.025,0,.044,0,.067l-3.531.665c-.009-.192-.015-.368-.015-.473M2.425,12.566c-.455-.645-.872-1.364-1.288-2.047l3.524.645a10.088,10.088,0,0,0-2.236,1.4m2.387-.91h.379c-.758.985-1.25,1.667-1.819,2.539-.265-.455-.454-.606-.682-1.061a4.364,4.364,0,0,1,2.122-1.478m-9.852-.492c1.289-.266,2.653-.455,3.941-.758-.493.682-1.023,1.4-1.478,2.046A6.964,6.964,0,0,0-5.04,11.164m2.16,1.743a8.989,8.989,0,0,1-.644,1.364,7.438,7.438,0,0,0-1.629-2.539A4.4,4.4,0,0,1-2.88,12.907m2.842-2.539c.834,0,1.857,2.16,2.084,2.577A28.345,28.345,0,0,0-.076,15.218a22.845,22.845,0,0,0-2.046-2.387c.076-.19,1.25-2.463,2.084-2.463M1.44,7.715c0,.607-.228,1.061-.644,1.061-.493,0-.607-.568-.607-.947,0-.606.19-1.061.644-1.061.493,0,.607.569.607.947m1.023-.947c.492,0,.606.569.606.947,0,.607-.227,1.061-.644,1.061-.493,0-.606-.568-.606-.947,0-.606.189-1.061.644-1.061m.913-3,.566-2.9c.224.042.446.087.668.137L3.8,4.4c-.136-.212-.275-.423-.42-.628m-.067-.09c-.154-.214-.311-.426-.475-.63L3.23.747c.212.032.421.074.631.113ZM2.765,2.97c-.168-.207-.339-.409-.515-.6L2.477.651c.224.026.448.052.671.085Zm-.588-.679c-.183-.2-.369-.388-.56-.569L1.726.578c.224.018.447.038.669.063Zm-.636-.638C1.365,1.49,1.187,1.332,1,1.184L1.05.528c.2.01.4.028.594.044ZM.927,1.124A8.451,8.451,0,0,0,.032.5C.346.5.657.512.968.526Zm-2.2.093L-1.312.546C-1,.527-.7.517-.387.512c-.3.218-.6.454-.884.7m-.079.067c-.175.156-.347.318-.517.484L-1.953.6c.185-.017.372-.03.559-.042Zm-.594.559c-.181.18-.358.366-.532.556L-2.7.679c.221-.028.441-.056.664-.078Zm-.605.635q-.267.3-.52.609L-3.416.78c.21-.034.423-.062.635-.09Zm-.59.693c-.166.206-.325.415-.481.628L-4.169.915C-3.947.871-3.722.832-3.5.8Zm-.548.717c-.151.209-.3.422-.438.636l-.791-3.441c.221-.053.442-.108.665-.153Zm-.5.73c-.13.2-.254.4-.375.605l-1.058-3.96q.31-.086.624-.162ZM-.152,1.16V9.61l-5.721,1.175v-.8c0-1.97,3.448-8.071,5.721-8.829m-2.273,16.1c-.265.038-.606.265-.872.265a6.273,6.273,0,0,0-1.136-.265c.3-.038.8-.265,1.06-.265a2.246,2.246,0,0,1,.948.265M1.44,18.7a4.4,4.4,0,0,1-1.213.379A4.155,4.155,0,0,1-1.288,18.7a5.142,5.142,0,0,1,1.364-.341A6.49,6.49,0,0,1,1.44,18.7m3.107-1.326c-.265.038-.569.265-.834.265-.189,0-.644-.189-1.25-.265A3.237,3.237,0,0,1,3.448,17a3.787,3.787,0,0,1,1.1.379m14.814,6.571.534.059a1.782,1.782,0,0,0-.259.277c-.043.052-.088.108-.137.163l-.09.09c0-.008,0-.016,0-.025a.753.753,0,0,0-.18-.481c-.039-.042-.073-.08-.095-.108l.028,0a.571.571,0,0,0,.2.021m-1.194,1.14a1.653,1.653,0,0,1-.035-.807.159.159,0,0,1,.022-.043.809.809,0,0,1,.092.246c.051.179.1.365.186.391a.073.073,0,0,0,.069-.014l.412-.127-.392.425Zm.018.7.363.618,0,0c.008.012.006.018,0,.021-.034.072-.414.118-.67.132a1.879,1.879,0,0,0,.212-.545.382.382,0,0,1,.089-.228m-11.861.2c.008-.009.014-.016.079-.03h.039c-.026.044-.051.092-.076.137-.066.123-.148.275-.189.275a.613.613,0,0,1-.126-.267c.233-.065.255-.092.273-.115m-.392-1.375c0-.032.01-.086.016-.131,0,0,0,0,0,.006.005.026.01.056.017.088.015.078.024.111.05.116s.042-.017.072-.057a1.241,1.241,0,0,1,.085-.1l.061.091a2.937,2.937,0,0,0,.178.253l-.021.021c-.1.077-.11.091-.11.144a.343.343,0,0,1-.012.095.431.431,0,0,1-.261.274,1.569,1.569,0,0,0-.113-.5.825.825,0,0,1,.037-.3m.775-3.2a1.119,1.119,0,0,1-.481.074.033.033,0,0,0-.036,0A.72.72,0,0,0,6,22c-.011.065-.025.1-.042.109s-.082-.03-.152-.082c-.032-.023-.068-.049-.109-.076a.323.323,0,0,1,.111-.461c.191-.159.76-.124.947-.112h.02a.293.293,0,0,1-.071.04m.356,2.053c-.021.016-.079.053-.14.092a2.118,2.118,0,0,0-.38.275.214.214,0,0,1-.118-.027,1.364,1.364,0,0,0-.135-.321,1.6,1.6,0,0,1-.129-.3L6.92,22.9c.043.154.135.489.143.568M6.9,19.62a1.644,1.644,0,0,1,.28.42.883.883,0,0,1,.071.275A.124.124,0,0,0,7.19,20.3c-.019,0-.039,0-.059,0a.454.454,0,0,1-.066.005Zm-.024,5.852.029-.119a.716.716,0,0,0,.108.166.751.751,0,0,0-.155.121l-.012.012c0-.034.015-.1.03-.18m-1.8-3.386c-.021.07-.042.154-.064.242-.085.337-.2.792-.392.792H4.6a.232.232,0,0,0-.013-.04.215.215,0,0,1-.023-.093,4,4,0,0,1,.51-.9M4.039,23.74c-.054-.033-.12-.074-.2-.128-.1-.068-.1-.091-.1-.091.005-.019.113-.029.17-.034a.484.484,0,0,0,.272-.069.175.175,0,0,1,.031-.027.8.8,0,0,0,.068.309c.006.018.012.035.017.051l0,.005c.068.1.037.168-.033.309a.378.378,0,0,1,0-.056c0-.128-.052-.161-.226-.269m.053.686ZM3.158,22.6c-.012.019-.041.025-.086.018a1.522,1.522,0,0,1-.209-.045.3.3,0,0,0-.254.007,3.017,3.017,0,0,0-.488.068l.24-.55.694.219c.058.085.135.231.1.283m.261-1.689-.389-.033.259-.421Zm.787,3.623Zm6.527.42c.007-.076.012-.158.012-.23v-.065l.742-.589-.733.893-.021-.009m.116,2.122a2.476,2.476,0,0,1-.259-.374l-.024-.038h.025c.17,0,.387-.191.532-.319l.058-.05a.671.671,0,0,1-.242.307.639.639,0,0,0-.12.117l0,.007Zm-.836-1.511c.057.118.129.309.194.483l.1.26a.074.074,0,0,0-.039-.014.111.111,0,0,0-.1.048c-.055.094.064.3.189.517.045.076.09.155.124.224a.381.381,0,0,1,.036.174c-.014.025-.032.022-.078,0a.125.125,0,0,0-.049-.017h0a2.518,2.518,0,0,1-.359-.888c0-.051,0-.112,0-.179a3.54,3.54,0,0,0-.016-.609m.487-.782-.113-.092a.914.914,0,0,0,.03-.406c0-.067-.005-.148,0-.209.033.178.111.52.172.777l-.086-.07m.263-2.938c-.053.016-.086.026-.1.054a.488.488,0,0,0-.332.151,1,1,0,0,0-.1.009.382.382,0,0,1-.186-.008h-.007a.112.112,0,0,1-.047-.017.2.2,0,0,0-.057-.021.647.647,0,0,1-.048-.065.439.439,0,0,0-.06-.08L9.8,21.84a.119.119,0,0,1,.022-.08.381.381,0,0,0,.388-.085c.226-.226.27-.2.358-.133l.032.022.005,0h.07a1.306,1.306,0,0,1,.109.213l.025.055-.044.014m1.12,4.455c-.078.077.06.493.1.612-.093.052-.156-.015-.229-.092a.305.305,0,0,0-.2-.128.181.181,0,0,0-.082.021.769.769,0,0,0-.183.136c-.014.013-.03.029-.041.037a1.6,1.6,0,0,1,.028-.226l0-.011-.029-.028c.085-.075.1-.217.124-.426.005-.044.011-.092.017-.145a.433.433,0,0,1,.023-.12l.007-.025c0,.01.007.022.01.031a.741.741,0,0,0,.031.083c.015.073.024.106.05.113s.046-.015.08-.053a1.2,1.2,0,0,1,.132-.126c.135-.108.184-.094.233-.08a.234.234,0,0,0,.056.009.319.319,0,0,1,.164.1l-.06.12c-.052-.009-.085.037-.122.086a.475.475,0,0,1-.11.115m.273-.112L12.2,26.1a.736.736,0,0,1,.128.37.725.725,0,0,1-.015.088c-.01-.022-.024-.059-.035-.092a1.468,1.468,0,0,0-.1-.227.055.055,0,0,0-.029-.045m-3.307-1.54c-.012.041-.027.088-.042.152a.117.117,0,0,1-.017.047.256.256,0,0,0-.011.024c-.031-.029-.061-.056-.091-.082a1.175,1.175,0,0,1-.165-.166A.366.366,0,0,0,8.71,24.5l.014-.017a.39.39,0,0,1,.128.025.176.176,0,0,0,.03.01.638.638,0,0,1-.033.133m-.068.512.067.033a.389.389,0,0,0,.194.248.523.523,0,0,1,.075.056l.005,0a.3.3,0,0,1,.063.043.32.32,0,0,0,.107.064c-.046.11-.05.182-.012.218.06.057.2,0,.316-.06a.535.535,0,0,0,.151-.111h.045v.272c-.016.016-.033.032-.052.048a.894.894,0,0,0-.195.225,1.973,1.973,0,0,0-.364-.4c-.04-.027-.1-.059-.162-.093a1.589,1.589,0,0,1-.325-.2,1.023,1.023,0,0,0-.359-.22.148.148,0,0,1,.031-.007c.046-.006.066-.022.067-.1a1.041,1.041,0,0,0,.074-.337c.1.181.191.287.274.314m-.549-.2c-.028-.064-.106-.111-.249-.2l-.133-.081a1.094,1.094,0,0,0,.385-.246H8.25l.043.058c.028.052.065.126.094.185Zm4.519-1.33a.367.367,0,0,1,.137-.178h.167l.068.309a1.047,1.047,0,0,0-.387.947l-.282-.816.292-.256Zm.144-1.917a.21.21,0,0,1-.226-.043c-.033-.024-.05-.046-.047-.06.007-.037.121-.064.2-.085l.03-.007.042-.022c0,.011,0,.023-.005.034a.392.392,0,0,0,0,.183m1.455,3.9c-.081.047-.153.089-.191.107h0a.232.232,0,0,0-.008-.253l-.005,0-.005,0a.271.271,0,0,1-.173-.184.767.767,0,0,1,.307.148,1.825,1.825,0,0,0,.232.1,1.357,1.357,0,0,1-.157.088m3.077,1.117a.166.166,0,0,1-.111.092H17.3l-.005.014a1.319,1.319,0,0,1-.3.346,1.854,1.854,0,0,0-.262.284.15.15,0,0,0-.118.048,1.6,1.6,0,0,1-.081-.463c-.01-.108-.019-.192-.029-.255l.02-.008a5.95,5.95,0,0,1,.71-.2l.111-.026c.069.061.1.116.078.166M16.011,27.8a3.569,3.569,0,0,1,.4-.956c.009.078.024.184.045.327a2.76,2.76,0,0,1,.044.384.454.454,0,0,0-.131.155c-.025.046-.045.083-.164.142a.756.756,0,0,0-.183.137c-.014.013-.031.029-.042.037a1.927,1.927,0,0,1,.028-.226m-1.3-1.06a.625.625,0,0,0-.03.085.193.193,0,0,1-.038.088c-.013.019-.02.02-.02.02-.017,0-.05-.1-.054-.313a.675.675,0,0,1,.142.12m-.013.715c.014-.023.033-.054.058-.1l0-.01a3.592,3.592,0,0,1,.027-.5,4.881,4.881,0,0,1,.207.729c.011.05.02.09.027.117A2.426,2.426,0,0,1,15,28.26a4.571,4.571,0,0,0-.2-.547,1.751,1.751,0,0,0-.091-.164c-.031-.05-.031-.05-.005-.092m.076-.731h0Zm0-.342c-.015.084-.031.169-.046.249l-.013-.007v.028l-.146-.117v-.385h.061a.662.662,0,0,1,.194-.036c-.017.085-.033.177-.05.269m-.284.926a.448.448,0,0,1,0,.1.347.347,0,0,1-.076-.079c-.027-.033-.056-.07-.086-.109a2.889,2.889,0,0,0-.412-.464l-.007,0a1.149,1.149,0,0,1-.489-.261c.3-.012.3-.137.306-.239a.316.316,0,0,1,0-.055l.581.255.215.107c0,.25-.021.48-.031.592,0,.04-.006.067-.006.077,0,.027,0,.054,0,.08m.036-.844a1.232,1.232,0,0,1-.3-.269l-.079-.08v.052a.046.046,0,0,1-.022.029c-.021.014-.084.041-.214-.011l-.008,0a.112.112,0,0,1-.063-.035.8.8,0,0,1,.335-.042c.07,0,.174.006.351.007Zm-.812-5.108a.365.365,0,0,0-.141-.134c-.126-.075-.131-.082-.156-.112a.76.76,0,0,0-.054-.061.906.906,0,0,0,.1-.15.107.107,0,0,0,.07-.015h.1a.264.264,0,0,1,.063.129l0,.008a.692.692,0,0,1,.02.335m1.526,7.006a.766.766,0,0,0,.049-.263,2.369,2.369,0,0,0-.154-.918c-.139-.313-.186-.376-.3-.469l.011-.024-.037-.019.1-.417a.465.465,0,0,0,.04-.219.185.185,0,0,0,.158-.12.224.224,0,0,0-.033-.183,1.292,1.292,0,0,1,.22.114c.13.09.213.118.268.088.071-.039.067-.165.062-.324a1.174,1.174,0,0,1,.043-.456l0-.008a.125.125,0,0,1,.016-.047.2.2,0,0,0,.021-.057c.011-.01.022-.016.031-.023a.088.088,0,0,0,.039-.035.677.677,0,0,1,.119.165,4.036,4.036,0,0,0,.265.388c.173.236.169.28.168.285h-.007a1.15,1.15,0,0,1-.267-.145l-.093-.058a.1.1,0,0,0-.079-.013c-.071.02-.126.123-.194.253a1.052,1.052,0,0,1-.391.479.779.779,0,0,1-.252.069c-.034,0-.054.006-.062.025s.005.039.052.095a4.162,4.162,0,0,1,.329.449c.2.281.281.368.359.373s.113-.047.187-.127c.024-.026.052-.056.085-.088a2.131,2.131,0,0,0-.1.278,1.882,1.882,0,0,0-.121.534.2.2,0,0,1-.029.107,1.166,1.166,0,0,1-.512.367h0a.3.3,0,0,1,.015-.057m.723-5.91a.426.426,0,0,0-.077.04l-.67-.037c.01-.008.016-.015.027-.023a.438.438,0,0,1,.294-.106.672.672,0,0,1,.291.072Zm-.183.117a.526.526,0,0,0-.125.237.76.76,0,0,1-.065.167.2.2,0,0,1-.38,0c-.094-.157-.174-.3-.071-.439Zm.982,1.354c-.153.231-.152.281.005.478a.84.84,0,0,1,.086.1,8.953,8.953,0,0,1-.948-.66l.622.037-.03-.038a.1.1,0,0,1-.024-.088c.028-.12.259-.232.358-.279Zm2.56,1.252c.049-.078.439-.039.641.028a.165.165,0,0,1,.116.054c.036.049.021.134,0,.233a1.255,1.255,0,0,0-.025.222c0,.053-.01.065-.014.067s-.045-.008-.077-.021l-.059-.025c-.033-.1-.165-.186-.3-.281a1.67,1.67,0,0,1-.228-.172c-.027-.027-.07-.077-.053-.1m1.553-1.038c-.056,0-.1.053-.144.11-.069.086-.115.135-.184.084a.661.661,0,0,1-.141-.169.962.962,0,0,0-.081-.109l.6.065a.089.089,0,0,1-.05.019M5.646,25.866h0m15.46-1.81-.929-.1s-.007,0-.012,0a.252.252,0,0,0-.123-.011l-.5-.054a.371.371,0,0,0,.063-.051c.227-.228.271-.195.358-.133l.032.022c.076.05.175-.011.28-.076a.749.749,0,0,1,.224-.11.189.189,0,0,0,.081-.017l.566.054c-.014.16-.023.322-.04.481m-.876-1.129a1.023,1.023,0,0,0-.372.121c-.053.028-.052.027-.1-.037a.557.557,0,0,0-.122-.11c-.039-.028-.073-.053-.073-.077a.083.083,0,0,1,.026-.047l.85.046a.545.545,0,0,1-.21.1m-1.529.007a2.534,2.534,0,0,0-.17.234.057.057,0,0,0-.04-.014c-.037,0-.051-.025-.077-.073a.253.253,0,0,0-.183-.154.625.625,0,0,0-.177-.011.386.386,0,0,1-.27-.061c-.033-.025-.05-.047-.047-.061.008-.036.121-.064.2-.084l.041-.01.032-.008.883.047c-.066.061-.132.126-.195.195m-.192-1.321c-.027.063-.053.1-.077.1s-.059-.026-.095-.059a.539.539,0,0,0-.092-.069l.288,0c-.007.009-.019.02-.024.028m-.448.012a.407.407,0,0,1-.116.133.336.336,0,0,1-.043.039l-.007,0c-.033-.015-.083-.026-.245.035-.089.033-.15.038-.177.014s-.013-.141.009-.226l0-.019.6-.008c-.008.011-.016.023-.023.035M6.432,28.072l-.007-.16c0-.251,0-.4.007-.49a2.034,2.034,0,0,0-.045-.535.672.672,0,0,1,.257-.619c.037-.036.073-.071.105-.108.038.025.062.036.08.025s.02-.038.017-.094c0-.028,0-.062,0-.1a.1.1,0,0,1,.066-.052.566.566,0,0,0,.229-.164l.06-.03c.1.079.1.088.119.117a.823.823,0,0,0,.094.136.381.381,0,0,0,.382.122.232.232,0,0,0,.187-.174c0-.029,0-.047,0-.058L8,25.9a.478.478,0,0,0,.1.094c.027.027.046.023.059.016.035-.022.022-.12,0-.2l.147-.2H8.169a.368.368,0,0,1,.017-.123l.057.081.084.045.009,0a1.968,1.968,0,0,1,.412.075,3.478,3.478,0,0,1,.779.746.07.07,0,0,0,.025.044c.009.009.013.013.013.023v.007l.005.006c.141.178.3.378.38.457.133.133.13.18.124.251a.447.447,0,0,0,.021.192,7.935,7.935,0,0,1,.006.957c0,.122-.006.227-.006.29,0,.1-.011.24-.026.389L6.446,28.4c-.005-.1-.009-.2-.014-.329m4.43,1.131,0-.079c0-.348.009-.457.013-.522a2.128,2.128,0,0,0-.013-.39.7.7,0,0,1,.18-.572h.013c.016,0,.023-.013.032-.052a.622.622,0,0,1,.478-.338.389.389,0,0,1,.279.01.189.189,0,0,1,.063.14.143.143,0,0,0,.042.105.083.083,0,0,0,.066.011.915.915,0,0,0,.1-.005c.034,0,.035,0,.1.031l.091.046c.056.034.083.047.105.034s.018-.041.012-.091a1.165,1.165,0,0,1,.028-.449c.014-.053.024-.1.032-.131s.011-.044.015-.06a.537.537,0,0,0,.185.242c.157.112.163.127.176.161a.474.474,0,0,0,.085.138c.03.038.069.08.108.065s.051-.12.046-.283c0-.034,0-.068,0-.1a.156.156,0,0,0-.071-.143.851.851,0,0,0-.017-.1l.157-.157h-.144a.334.334,0,0,1,.007-.072l.075.038.009,0a1.908,1.908,0,0,1,.41.075,4.671,4.671,0,0,1,.869.994c.093.124.173.23.22.287.126.151.131.181.145.253a1.181,1.181,0,0,0,.04.154,3.893,3.893,0,0,1,.007.649c0,.108-.007.211-.007.3s0,.2.006.344c0,.058,0,.12,0,.185ZM20.9,25.489l-.128-.1c-.163-.124-.5-.383-.5-.435,0,0,.021-.015.147.021.242.069.368.078.436.033s.065-.117.073-.212c0-.032.006-.067.011-.1a.2.2,0,0,1,.1-.134c-.042.312-.088.622-.143.929m.257-2-.5-.046a1.027,1.027,0,0,0,.056-.469c0-.045,0-.092,0-.139l.492.027c-.011.21-.032.418-.049.627m-.445-.737c-.005-.06-.016-.087-.038-.1s-.065.017-.119.068l-.02.018L19.68,22.7a1.339,1.339,0,0,1,.172-.095c.108-.053.167-.081.138-.224,0-.051,0-.086-.027-.1s-.049,0-.082.01a.358.358,0,0,1-.211.031,1.092,1.092,0,0,0-.687.341l-.811-.044a2.312,2.312,0,0,0,.3-.3c.048-.06.08-.1.1-.138l2.647.048c0,.185-.007.371-.016.555ZM18.683,22.1h0A.45.45,0,0,0,19,21.62a.4.4,0,0,0-.012-.041l2.236-.027c0,.061,0,.122,0,.183,0,.138-.008.273-.011.41Zm2.544-.628L18.97,21.5a.154.154,0,0,0-.095-.089.336.336,0,0,0-.254.093l-1.117.014a.208.208,0,0,0-.14-.254c-.158-.079-.278.1-.356.216L17,21.5a.125.125,0,0,0-.009.025h-.048a.839.839,0,0,0-.059-.1c-.171-.228-.143-.269-.086-.351.006-.008.013-.022.02-.033l4.4-.231c.009.221.014.443.017.666M-15.129,6.856-11.018,11l.059-.058L-15.072,6.8c.154-.156.314-.307.474-.458l3.73,4.02.061-.056-3.731-4.021q.24-.227.487-.446l3.221,3.726.062-.054-3.22-3.726c.158-.139.315-.28.478-.414l3.323,4.117.064-.051-3.323-4.118c.179-.147.363-.289.547-.43l3.431,4.6.066-.049-3.432-4.6c.169-.129.341-.252.513-.376l2.928,4.228.068-.047L-12.253,4.41c.175-.124.35-.248.53-.367l2.594,4.036.07-.045L-11.654,4c.183-.12.367-.24.553-.355l2.653,4.435.072-.043L-11.031,3.6c.187-.114.378-.221.568-.329l1.825,3.291.073-.04-1.826-3.293c.195-.11.392-.216.591-.32l1.957,3.879.074-.038L-9.727,2.87c.189-.1.377-.2.569-.289l2.111,4.583.074-.034-2.11-4.583c.2-.094.4-.183.6-.271L-6.556,6.86l.077-.032L-8.408,2.242c.2-.086.4-.165.594-.244l1.675,4.368.077-.029L-7.737,1.968c.214-.085.429-.167.647-.245l1.6,4.566.077-.027L-7.012,1.7c.208-.073.416-.146.628-.213l1.191,4.008.079-.024-1.192-4.01c.2-.063.4-.116.605-.173l1.079,4.036A11.955,11.955,0,0,0-6.48,11.05v7.923a.92.92,0,0,0-.372-.214c-.108-.033-.209-.066-.3-.1-.352-.116-.564-.186-.633-.084a.477.477,0,0,0-.115.4.573.573,0,0,0,.05.081c.057.082.085.123-.087.352a.707.707,0,0,0-.084.164.184.184,0,0,0-.031-.088l-.012-.018c-.078-.119-.2-.3-.357-.217s-.161.181-.123.332c.066.132.086.229.055.267s-.073.023-.118.012c.024-.048.04-.09.018-.115s-.062-.015-.1,0-.051.022-.071.03a.248.248,0,0,0-.077.041c-.024-.006-.041-.01-.055-.012-.035-.008-.035-.008-.053-.029s-.029-.033-.06-.064l-.006,0c-.039-.02-.068-.037-.092-.051a.178.178,0,0,0-.189-.026.428.428,0,0,0-.073.032c-.028.016-.029.016-.1-.03a.647.647,0,0,0-.474-.106.151.151,0,0,0-.09.121.414.414,0,0,0,.317.479c.039.018.065.023.084.012.022.025.07.081.16.194l-.023.03a.343.343,0,0,1-.114.1c-.166.139-.145.207-.1.275a.1.1,0,0,1,.019.045c0,.009,0,.018,0,.028a.193.193,0,0,1,0,.034.979.979,0,0,1-.191-.19,2.36,2.36,0,0,1-.2-.28,1.107,1.107,0,0,0-.643-.56c-.108-.033-.209-.066-.3-.1-.351-.116-.563-.186-.632-.083a.474.474,0,0,0-.115.4.61.61,0,0,0,.05.081c.057.082.085.123-.085.35a.8.8,0,0,0-.092.131.209.209,0,0,0-.025-.053l-.013-.019c-.077-.118-.2-.3-.356-.216s-.161.181-.125.328l.008.028c.021.085.048.19.008.226s-.088.019-.176-.014c-.105-.04-.16-.056-.193-.066s-.038-.012-.059-.035l-.046-.048c-.034-.025-.06-.047-.082-.064-.075-.063-.1-.086-.2-.053a.392.392,0,0,0-.072.033c-.029.015-.029.015-.1-.03a.647.647,0,0,0-.474-.107.151.151,0,0,0-.09.119.365.365,0,0,0,.067.346.205.205,0,0,1-.231.055c-.037-.007-.073-.016-.107-.025-.1-.025-.178-.045-.224-.008a.108.108,0,0,0-.035.092.546.546,0,0,1-.22.514c-.167.139-.146.207-.1.274a.1.1,0,0,1,.019.046c0,.009,0,.018,0,.028a.187.187,0,0,1,0,.033.923.923,0,0,1-.191-.189,2.37,2.37,0,0,1-.2-.28,1.1,1.1,0,0,0-.643-.56c-.108-.033-.209-.067-.3-.1-.352-.116-.565-.186-.632-.084a.481.481,0,0,0-.116.4.777.777,0,0,0,.05.081c.057.082.086.123-.086.352a.736.736,0,0,0-.085.163.1.1,0,0,0-.031-.087l-.011-.018a.646.646,0,0,0-.2-.216v-.023l-4.06-.071c0-.223.006-.446.017-.666l4.381.251,0-.082-4.381-.252c.011-.223.032-.444.05-.666l5.651.507.008-.082-5.652-.507c.019-.223.043-.445.069-.666l6.559.838.01-.081-6.558-.839c.026-.211.049-.423.082-.632l4.873.794.014-.081L-20.97,18.4c.034-.213.074-.424.114-.635l5.388,1.055.016-.081-5.389-1.056c.04-.209.085-.416.132-.622l5.922,1.38.018-.08L-20.69,16.98c.049-.212.1-.425.151-.635l3.552.959.022-.08-3.551-.959c.056-.21.116-.42.179-.628l4.221,1.288.024-.079-4.222-1.289c.062-.2.13-.4.2-.607l4.6,1.6.028-.078-4.605-1.595c.076-.22.153-.44.235-.657l4.72,1.837.03-.077-4.719-1.837c.078-.2.156-.408.24-.609l4.182,1.8.033-.076-4.183-1.8c.079-.187.166-.369.25-.553l4.392,2.052.035-.075-4.393-2.052c.095-.2.192-.4.293-.6L-14,14.762l.038-.073-4.974-2.541c.1-.2.2-.4.31-.595l4.435,2.489.041-.073-4.435-2.487c.106-.192.215-.381.327-.569l5.165,3.128.043-.071-5.166-3.129c.107-.178.219-.353.332-.528l5.737,3.727.045-.069-5.738-3.728c.121-.186.243-.372.369-.554l5.1,3.592.048-.067-5.095-3.592c.123-.177.246-.354.374-.527l4.028,3.049.05-.066L-17,9.029c.133-.178.273-.35.412-.524l4.514,3.714.052-.064L-16.539,8.44c.133-.165.27-.328.408-.49l4.85,4.23.054-.062-4.85-4.23c.144-.167.287-.334.436-.5l4.4,4.143.057-.06-4.4-4.142q.223-.243.455-.477m-5.837,18.225a.191.191,0,0,0,.126.075h.013c.078,0,.166-.062.268-.187.09-.109.127-.114.138-.111s.016.018.019.031a.916.916,0,0,1-.226.619c-.044.044-.063.08-.059.113.005.048.053.078.108.113a.416.416,0,0,1,.21.25.354.354,0,0,1,0,.223.679.679,0,0,0,.039.461.085.085,0,0,0,.064.061h.013c.079,0,.18-.112.3-.24a1.977,1.977,0,0,1,.186-.189.886.886,0,0,0,.1-.058.831.831,0,0,1,.085-.052.887.887,0,0,0,.263.036,1.045,1.045,0,0,1,.3.2,2.131,2.131,0,0,0-.728.336.114.114,0,0,0-.042.092c0,.053.058.091.109.128s.081.057.078.081-.027.054-.175.111c-.458.176-.41.331-.369.469.005.016.01.033.014.049a.318.318,0,0,0,.216.208.444.444,0,0,0,.426-.121c.1-.082.158-.138.2-.175a.085.085,0,0,0,.009.041.142.142,0,0,0,.118.063c.114.014.124.054.135.1.022.092.063.162.36.162.386,0,.411-.238.428-.4.007-.064.012-.12.039-.138a.613.613,0,0,1,.2-.031c.174-.013.39-.028.47-.144a.212.212,0,0,0,.018-.19,0,0,0,0,0,0,0c.081.049.179.1.28.151.086.044.173.088.248.132l.152.339,0,.01.011,0a.372.372,0,0,1,.135.055v.011l.008.006a1.811,1.811,0,0,1,.183.164c.053.053.119.119.271.252a.539.539,0,0,0,.264.155c.041.009.054.012.11.142a.349.349,0,0,0,.24.151c.16.047.31.091.288.406a7.591,7.591,0,0,0-.01.855c0,.015,0,.03,0,.045l-3.916.737a21.055,21.055,0,0,1-1.711-5.6M0,42.969A21.256,21.256,0,0,1-19.029,31.152l3.7-.7c0,.047,0,.1,0,.146,0,.34.017.556.029.713.02.244.025.317-.063.449-.238.324-.235.406-.206.44s.116.011.191-.027a.811.811,0,0,0,.229-.077.292.292,0,0,0,.058-.025.117.117,0,0,1,.005.011,1.207,1.207,0,0,0,.065.121c.033.042.061.086.086.125.048.075.086.135.137.135h.005c.048,0,.092-.059.15-.19a.885.885,0,0,1,.125-.249.6.6,0,0,0,.111.071c.083.042.139.07.171.039s.03-.091-.066-.331l-.042-.1a3.628,3.628,0,0,1-.26-.8,5.648,5.648,0,0,1-.016-.581l3.931-.739a1.99,1.99,0,0,1-.165.969c-.3.435-.259.469-.238.487s.093-.02.113-.036a1.276,1.276,0,0,0,.339-.115.347.347,0,0,0,.058-.026.061.061,0,0,0,.005.012,1.207,1.207,0,0,0,.065.121,1.4,1.4,0,0,1,.086.124c.048.075.086.135.137.135h.005c.048,0,.092-.058.15-.189a.894.894,0,0,1,.125-.25.55.55,0,0,0,.11.072l.026.012c.093.048.182.093.228.05s.028-.122-.034-.279a1.752,1.752,0,0,1-.1-.689,2.078,2.078,0,0,0-.013-.291c-.009-.067-.019-.162-.028-.271l3.472-.654a1.1,1.1,0,0,1-.148.574c-.3.436-.259.469-.238.487s.093-.019.112-.036a1.284,1.284,0,0,0,.34-.115.292.292,0,0,0,.058-.025l.005.011a1.036,1.036,0,0,0,.064.121,1.507,1.507,0,0,1,.087.124c.047.076.086.136.137.136h.005c.048,0,.091-.059.149-.19a.883.883,0,0,1,.126-.249.582.582,0,0,0,.111.072l.072.03c.089.039.154.068.19.033s.034-.087-.044-.281a1.764,1.764,0,0,1-.1-.688c0-.062-.005-.118-.008-.177l2.437-.458v0c0,1.251,2.047,1.933,2.047,2.842V32c-.341.379-1.478.758-1.478,1.478,0,1.023,1.743,1.478,1.743,2.349v1.023c-.455.3-1.137.19-1.061.948.076.833,1.288.719,1.288,1.932,0,.606-.379.341-.871.72a1.157,1.157,0,0,0,.871.3c.038.606.038.758.493.947.038,0,.379.038.454-.189.076-.3-.037-.682.114-.947.379-.758.834-.72.834-1.251,0-.758-.872-.568-.872-1.4,0-.871,1.364-.492,1.364-1.553,0-.834-.454-.834-1.364-1.781V33.33c.038-.606,1.743-.568,1.63-1.856-.038-.531-.341-.72-1.213-1.516,0,0,1.1-1.061,1.1-1.364,0-.265-.076-.341-.455-.341a1.839,1.839,0,0,0-.833.341,1.022,1.022,0,0,1,.075-.379,1.162,1.162,0,0,1,.184-.284l4.514.82a3.159,3.159,0,0,1-.133.593c-.077.193-.073.252-.044.28s.1.007.19-.032c.023-.01.047-.021.073-.031a.582.582,0,0,0,.111-.072.917.917,0,0,1,.125.25c.058.131.1.185.15.189h.005c.051,0,.089-.06.137-.135a1.283,1.283,0,0,1,.088-.127,1.187,1.187,0,0,0,.063-.119.117.117,0,0,1,.005-.011.339.339,0,0,0,.055.025c.082.04.12,0,.187.036.025.021.159.112.21.068.035-.03.04-.1-.18-.4a.789.789,0,0,1-.123-.346l3.518.639c-.009.065-.018.125-.024.171a2.071,2.071,0,0,0-.013.291,1.769,1.769,0,0,1-.1.689c-.078.193-.074.252-.045.28s.1.007.191-.032c.022-.01.046-.021.073-.031a.55.55,0,0,0,.11-.072.886.886,0,0,1,.126.25c.057.131.1.185.149.189s.093-.057.142-.135a1.479,1.479,0,0,1,.088-.127,1.084,1.084,0,0,0,.063-.119l.005-.011a.339.339,0,0,0,.055.025,1.294,1.294,0,0,0,.343.115c.02.018.077.064.112.037s.061-.052-.238-.487a1.778,1.778,0,0,1-.16-.873l3.926.713a4.665,4.665,0,0,1-.016.51,3.594,3.594,0,0,1-.258.8l-.044.109c-.107.267-.093.326-.061.351s.08.007.167-.059a.55.55,0,0,0,.11-.072.928.928,0,0,1,.126.251c.057.13.1.185.149.189h.005c.051,0,.089-.06.137-.135a1.479,1.479,0,0,1,.088-.127,1.313,1.313,0,0,0,.063-.119l.005-.011a.268.268,0,0,0,.056.024.826.826,0,0,0,.231.078c.075.037.156.068.191.027s.032-.116-.2-.439c-.079-.118-.072-.19-.055-.381a5.419,5.419,0,0,0,.02-.82v-.043l3.49.633A21.259,21.259,0,0,1,0,42.969M15.526,30.05c0-.05,0-.1,0-.145a8.418,8.418,0,0,0-.01-.9c-.022-.314.128-.359.288-.406a.344.344,0,0,0,.241-.152c.055-.129.069-.132.109-.14a.536.536,0,0,0,.264-.156,2.84,2.84,0,0,0,.314-.3c.036-.041.074-.084.142-.151l.071-.071a2,2,0,0,0,.423-.347l.262-.3c.061-.048.165-.1.2-.081.011.008.033.04-.006.171-.108.359.2.551.349.644l.039.024a.057.057,0,0,0,.049.01c.021-.011.023-.038.025-.075,0-.1.014-.272.354-.272a.313.313,0,0,1,.232.06.167.167,0,0,1,.017.138c-.008.047-.014.091.014.121a.123.123,0,0,0,.083.025c0,.021.027.035.337.035a.748.748,0,0,0,.693-.3.369.369,0,0,0,.046-.337.206.206,0,0,1,.017-.158c.013-.033.023-.057.005-.073s-.045-.01-.279.146l-.087.05c.082-.095.227-.273.112-.387a1.972,1.972,0,0,0-.619-.335,2.048,2.048,0,0,1,.263-.235.893.893,0,0,0,.264-.036.717.717,0,0,1,.084.052.879.879,0,0,0,.093.056c.068.054.073.07.075.076.006.022.008.023.1.055l.173.062a.342.342,0,0,0,.3,0c.089-.062.092-.2.1-.339a1.322,1.322,0,0,1,.01-.171.244.244,0,0,1,.176-.176,21.023,21.023,0,0,1-1.612,4.991Z"/>
            </g>
            <g id="Group_1298" data-name="Group 1298" transform="translate(44.467 -104.399)">
              <path id="Path_1206" data-name="Path 1206" class="cls-6" d="M0,0A32,32,0,0,0-31.966,31.966,31.675,31.675,0,0,0-22.6,54.539,31.685,31.685,0,0,0-.071,63.857H0A31.965,31.965,0,0,0,31.928,31.928,31.964,31.964,0,0,0,0,0M0,63.355a31.184,31.184,0,0,1-22.249-9.171,31.176,31.176,0,0,1-9.216-22.218A31.5,31.5,0,0,1,0,.5,31.461,31.461,0,0,1,31.426,31.928,31.462,31.462,0,0,1,0,63.355"/>
            </g>
          </g>
        </g>
      </g>
    </g>
  </g>
</svg>
