<svg xmlns="http://www.w3.org/2000/svg" xmlns:xlink="http://www.w3.org/1999/xlink" width="164" height="163.903" viewBox="0 0 164 163.903">
  <defs>
    <style>
      .cls-1 {
        fill: none;
      }

      .cls-2 {
        clip-path: url(#clip-path);
      }

      .cls-3 {
        mix-blend-mode: multiply;
        isolation: isolate;
      }

      .cls-4 {
        clip-path: url(#clip-path-2);
      }

      .cls-5 {
        fill: #c6c9ce;
      }
    </style>
    <clipPath id="clip-path">
      <path id="Path_2277" data-name="Path 2277" class="cls-1" d="M0,65.571H164v-163.9H0Z" transform="translate(0 98.332)"/>
    </clipPath>
    <clipPath id="clip-path-2">
      <rect id="Rectangle_160" data-name="Rectangle 160" class="cls-1" width="220.672" height="187.239"/>
    </clipPath>
  </defs>
  <g id="Group_3250" data-name="Group 3250" transform="translate(0 98.332)">
    <g id="Group_3249" data-name="Group 3249" class="cls-2" transform="translate(0 -98.332)">
      <g id="Group_3248" data-name="Group 3248" class="cls-3" transform="translate(-28.336 -21.669)">
        <g id="Group_3247" data-name="Group 3247">
          <g id="Group_3246" data-name="Group 3246" class="cls-4">
            <g id="Group_3214" data-name="Group 3214" transform="translate(166.478 82.16)">
              <path id="Path_2245" data-name="Path 2245" class="cls-5" d="M6.508,4.461c-.1-.388-.2-1.265-.388-2.14-.1-.292-.1-.485-.292-.388-.1,0-.1.1-.1.292a3.268,3.268,0,0,1,.1.972c-.1.487-.39.682-1.46.973L-3.607,6.018v-.1C-3.413,5.531-1.273,2.613-.4,1.057,1.645-2.153,3.979-5.46,4.174-5.752c.292-.388.485-.583.388-.777,0-.2-.292-.2-.68-.1l-10.7,2.14c-1.555.292-2.139.388-2.334-.1-.1-.2-.2-.585-.292-.778,0-.2-.1-.292-.2-.292-.2,0-.1.193-.1.388A12.7,12.7,0,0,0-9.247-3.32c.1.292.193,1.07.388,2.237.1.292.1.39.292.39.1,0,.1-.1.1-.293a3.012,3.012,0,0,1-.1-.972c0-.388.487-.68,1.849-1.07L.867-4.583C.575-4.1-1.177-1.666-2.732.667-4.19,2.9-6.039,5.726-6.914,7.086a1.05,1.05,0,0,0-.292.682c0,.2.2.2.583.1L4.757,5.628c.972-.2,1.458-.1,1.654.292.1.2.1.39.193.487,0,.2.1.292.2.292s.1-.2.1-.487c-.193-.875-.388-1.555-.388-1.75" transform="translate(9.759 6.69)"/>
            </g>
            <g id="Group_3215" data-name="Group 3215" transform="translate(54.91 142.779)">
              <path id="Path_2246" data-name="Path 2246" class="cls-5" d="M7.8,3.633c.2.1.292.2.487.292.193.2.292.2.388.1s0-.292-.2-.388C7.8,3.05,7.31,2.563,7.117,2.466,6.825,2.175,6.24,1.591,5.56.909c-.2-.193-.388-.292-.487-.193s-.1.193.1.292a5.588,5.588,0,0,1,.68.777c.2.487.1.778-.68,1.654L-.275,9.565l-.1-.1c0-.388,0-4.085-.1-5.836-.1-3.794-.1-7.877-.1-8.169,0-.487,0-.778-.1-.875s-.39,0-.583.292L-8.736,2.758c-1.07,1.167-1.557,1.458-1.945,1.263a2.97,2.97,0,0,1-.682-.485c-.1-.1-.193-.2-.292-.1s0,.292.2.39A18.91,18.91,0,0,0-10,5.092c.292.2.778.778,1.654,1.557.2.2.292.292.39.2s0-.2-.1-.293a2.31,2.31,0,0,1-.583-.777c-.2-.39,0-.875.875-1.945L-3-1.814c0,.487,0,3.6.1,6.419.1,2.724.193,6.031.292,7.684,0,.292,0,.583.193.68.1.1.292,0,.583-.292L6.24,4.313c.682-.777,1.07-.875,1.557-.68" transform="translate(11.693 5.448)"/>
            </g>
            <g id="Group_3216" data-name="Group 3216" transform="translate(103.09 162.852)">
              <path id="Path_2247" data-name="Path 2247" class="cls-5" d="M1.868.389a21.957,21.957,0,0,1,2.625.2c.877.1,1.07.388,1.168.68a1.669,1.669,0,0,1,.1.682c0,.193,0,.292.2.292a.21.21,0,0,0,.193-.2c0-.2.1-.973.1-1.167A11.022,11.022,0,0,1,6.438-.291c0-.1,0-.2-.1-.2a.359.359,0,0,0-.292.1c-.2,0-.487.1-.778.1-.388,0-3.987-.1-4.57-.1a5.606,5.606,0,0,1-1.167-.1c-.487,0-.973-.1-1.46-.1-.292,0-.388,0-.388.193,0,.1.1.2.292.2.292,0,.583,0,.68.1A.963.963,0,0,1-.564.972c0,.583,0,1.07-.1,3.89l-.388,3.21c-.1,1.652-.1,3.112-.2,3.889-.1.487-.2.973-.583.973-.2,0-.39.1-.682.1-.193,0-.292,0-.292.1s.1.193.39.193H-.077c.583,0,1.167.1,1.945.1s1.75.1,3.209.193c.682,0,.877,0,.973-.485a13,13,0,0,0,.292-2.044c0-.193,0-.292-.1-.292s-.2.1-.2.292c-.2.778-.388,1.168-.875,1.362a5.374,5.374,0,0,1-1.75.2c-1.849-.1-2.14-.388-2.14-1.654,0-.487.1-2.237.1-2.82V6.711c0-.1,0-.2.1-.2.485,0,2.237.1,2.625.1.68.1.875.39.972.778a1.643,1.643,0,0,0,.1.682c0,.1,0,.193.2.193s.193-.193.193-.388c0-.1.1-.875.1-1.265.1-.972.193-1.263.193-1.362a.338.338,0,0,0-.1-.193c-.1,0-.2.1-.292.193-.2.2-.487.2-.875.292-.39,0-2.529,0-2.919-.1-.1,0-.1-.1-.1-.2l.2-4.667c0-.1,0-.2.1-.2" transform="translate(2.801 0.583)"/>
            </g>
            <g id="Group_3217" data-name="Group 3217" transform="translate(72.708 154.544)">
              <path id="Path_2248" data-name="Path 2248" class="cls-5" d="M4.373.95A17.438,17.438,0,0,1,2.428-.12C1.941-.412.969-1,.386-1.287c-.292-.1-.39-.2-.487-.1s0,.193.2.292A2.031,2.031,0,0,1,.678-.7q.438.438,0,1.167c-.292.487-.487.973-1.849,3.4L-2.726,6.785c-.877,1.557-1.557,2.82-2.044,3.5q-.438.73-.875.585a.845.845,0,0,1-.583-.292c-.2-.1-.292-.1-.292,0-.1.1,0,.193.2.292.68.388,1.654.875,2.042,1.068s1.458.877,2.432,1.46c.193.1.292.1.388,0,0-.1,0-.2-.2-.292s-.583-.39-.777-.487c-.487-.292-.39-.682-.2-1.167.292-.682.972-1.945,1.849-3.6L.774,5.035a35.094,35.094,0,0,1,1.945-3.4c.388-.585.583-.778,1.07-.585.2.1.388.1.487.2.193.1.292.1.388,0s-.1-.2-.292-.292" transform="translate(6.558 1.424)"/>
            </g>
            <g id="Group_3218" data-name="Group 3218" transform="translate(85.973 158.498)">
              <path id="Path_2249" data-name="Path 2249" class="cls-5" d="M5.8,1.741c-.487-.2-1.362-.388-1.654-.487A10.49,10.49,0,0,0,2.3.671c-.292-.1-.485-.1-.583,0,0,.1.1.2.292.2.2.1.487.2.682.292.1.1.2.292.1.388,0,.2-.2.39-.388.583C1.615,3.2-2.372,8.16-3.733,9.814h-.1L-4.415.963a3.48,3.48,0,0,1,0-1.458c.1-.2.1-.292.292-.292a.861.861,0,0,1,.682.1c.2,0,.292,0,.292-.1s-.1-.2-.388-.292c-.877-.292-1.752-.487-2.14-.583-.583-.2-1.557-.583-2.529-.875-.292-.1-.487-.1-.487,0s0,.193.2.193a1.711,1.711,0,0,1,.68.292c.583.39.778.682.875,1.752l1.265,12.156c.1.973.1,1.167.292,1.265.292.1.487-.2,1.167-1.07.682-.778,2.042-2.432,3.987-4.669C1.42,5.535,2.1,4.658,3.366,3.3c.778-.973,1.167-1.168,1.46-1.265a1.517,1.517,0,0,1,.972.1c.2.1.292.1.292-.1,0-.1-.1-.2-.292-.292" transform="translate(8.694 2.611)"/>
            </g>
            <g id="Group_3219" data-name="Group 3219" transform="translate(160.497 123.656)">
              <path id="Path_2250" data-name="Path 2250" class="cls-5" d="M6.721,3.813c-.1,0-.2,0-.292.2a3.37,3.37,0,0,1-.487.777c-.292.487-.778.39-1.263.2A13.8,13.8,0,0,1,3.026,4.2l-1.362-.68A4.081,4.081,0,0,1,.107,2.451a57.639,57.639,0,0,1-3.7-5.737,2.62,2.62,0,0,1-.388-1.265,1.518,1.518,0,0,1,.193-.778c.1-.193.1-.292,0-.388-.1,0-.193.1-.292.2a14.1,14.1,0,0,0-.778,1.75c-.193.487-.583.972-.777,1.555-.1.2-.1.292,0,.39.1,0,.193-.1.292-.2.193-.292.388-.2.583-.1a2.229,2.229,0,0,1,.778.68C-3.588-.953-.963,2.938-.671,3.23c-.583,0-5.737.388-6.321.388a1.455,1.455,0,0,1-.682-.1.506.506,0,0,1-.193-.388c.1-.292.1-.39,0-.487s-.2,0-.292.2a16.42,16.42,0,0,0-.778,1.75c-.292.583-.875,1.75-1.07,2.042-.1.2-.1.292,0,.39s.2,0,.292-.2a1.633,1.633,0,0,1,.583-.583,7.1,7.1,0,0,1,1.75-.583c1.168-.2,5.836-.583,6.127-.583a3.352,3.352,0,0,1,1.945.485l1.362.778a14.769,14.769,0,0,1,1.654.875c.487.292.778.583.682.973a1.4,1.4,0,0,1-.2.583c-.1.193-.1.292,0,.292.1.1.2-.1.292-.292.292-.583.778-1.654.972-2.044.2-.485.778-1.458,1.265-2.529.1-.193.1-.388,0-.388" transform="translate(10.08 5.718)"/>
            </g>
            <g id="Group_3220" data-name="Group 3220" transform="translate(150.901 138.376)">
              <path id="Path_2251" data-name="Path 2251" class="cls-5" d="M6.475,4.5c-.2.2-.487.487-.68.682-.39.388-.778.193-1.265-.1C3.85,4.6,2.78,3.625,1.514,2.555L-4.126-2.5l1.557-1.654C-1.4-5.323-.722-5.421-.332-5.031l.193.1c.2.2.292.2.39.1s0-.2-.1-.293C-.236-5.421-1.111-6.3-1.4-6.588c-.2-.193-.292-.193-.39-.1,0,.1-.1.2-.292.388s-.388.583-.778.973L-7.725.123A7.733,7.733,0,0,1-8.988,1.388c-.293.292-.585.292-.682.487-.1.1,0,.193.1.388.1.1,1.07,1.458,1.265,1.654.2.1.2.2.292.1a.183.183,0,0,0,0-.292,1.5,1.5,0,0,1-.292-.68c-.1-.487.1-.875.778-1.654L-5.78-.654.153,4.208c1.265,1.167,2.335,2.14,2.82,2.724.39.388.585.778.39,1.07a6.256,6.256,0,0,1-.39.583c-.1.193-.193.292-.1.292.1.1.2,0,.388-.2.487-.583,1.265-1.458,1.46-1.75.292-.39,1.167-1.167,1.945-2.14.1-.2.193-.292.1-.388s-.2,0-.292.1" transform="translate(9.71 6.748)"/>
            </g>
            <g id="Group_3221" data-name="Group 3221" transform="translate(143.452 149.875)">
              <path id="Path_2252" data-name="Path 2252" class="cls-5" d="M5.019,4.335a3.437,3.437,0,0,1-.778.487c-.487.292-.778.1-1.167-.292C2.587,3.947,1.712,2.778.642,1.32L-1.3-1.305A24.741,24.741,0,0,1-3.54-4.516c-.388-.583-.388-.875-.1-1.263.2-.2.292-.292.388-.39.2-.1.2-.193.1-.292s-.2,0-.39.1C-4.123-5.974-4.9-5.294-5.29-5s-1.362.972-1.945,1.36c-.2.2-.292.292-.292.39.1.1.2.1.388,0s.39-.292.583-.292c.39-.2.682,0,1.07.485S-4.8-2.181-3.15.056l2.042,2.529A24.353,24.353,0,0,1,1.129,5.892c.292.485.388.777.1,1.068-.1.1-.292.292-.485.487-.2.1-.2.2-.2.292.1.1.2.1.388-.1.583-.39,1.46-1.167,1.849-1.362.388-.292,1.362-.973,2.334-1.654.2-.1.292-.292.2-.388s-.2-.1-.292.1" transform="translate(7.527 6.501)"/>
            </g>
            <g id="Group_3222" data-name="Group 3222" transform="translate(117.192 161.768)">
              <path id="Path_2253" data-name="Path 2253" class="cls-5" d="M6.654,4.635a1.067,1.067,0,0,0-.487.1A3.8,3.8,0,0,1,3.93,3.955C2.667,3.079,1.013,1.718-.932.065.526-1.784.915-3.145.623-4.409a3.578,3.578,0,0,0-1.75-2.237,6.115,6.115,0,0,0-3.5-.1c-.585.1-1.945.487-2.53.583-.388.1-1.555.292-2.43.487-.292.1-.39.1-.39.2s.1.1.292.1A2.2,2.2,0,0,1-9-5.479c.583,0,.778.292.972.875s.292,1.07.875,3.792L-6.476,2.3A22.613,22.613,0,0,1-5.8,6.094c0,.583,0,.973-.292,1.07a1.383,1.383,0,0,1-.583.2c-.2,0-.292.1-.292.193s.2.2.39.1a15.121,15.121,0,0,1,2.139-.487c.292-.1,1.654-.292,2.627-.487.193,0,.388-.1.292-.292,0-.1-.1-.1-.292-.1s-.583.1-.877.1c-.583,0-.777-.292-.875-.875a25.053,25.053,0,0,1-.875-3.792l-.1-.293c0-.1,0-.193.1-.193L-2.877.94a.739.739,0,0,1,.388.1c.292.2,1.362,1.265,2.335,2.14A9.147,9.147,0,0,0,2.86,5.315a2.987,2.987,0,0,0,2.044-.1L6.557,4.83a.259.259,0,0,0,.292-.292c0,.1-.1.1-.2.1M-1.906-.227A2.159,2.159,0,0,1-3.072.357a3.363,3.363,0,0,1-1.362.1c-.1,0-.193-.1-.193-.292L-5.8-5.286a.356.356,0,0,1,.1-.292,3.984,3.984,0,0,1,.972-.292c1.07-.193,2.919.2,3.4,2.724A3.848,3.848,0,0,1-1.906-.227" transform="translate(9.978 6.951)"/>
            </g>
            <g id="Group_3223" data-name="Group 3223" transform="translate(134.464 155.75)">
              <path id="Path_2254" data-name="Path 2254" class="cls-5" d="M2.04,2.413l-.583-.1C-.392,1.926-1.072,1.538-1.462.759A1.887,1.887,0,0,1-.294-1.866a2.581,2.581,0,0,1,2.237-.1,2.174,2.174,0,0,1,.972.875c.1.2.2.292.292.2s.1-.2-.1-.583A22.076,22.076,0,0,1,2.235-3.52a.356.356,0,0,0-.292-.1A10.551,10.551,0,0,0-.392-2.84C-2.726-1.673-3.6.272-2.726,2.121c.68,1.362,1.849,2.14,4.377,2.724l1.068.193c1.849.39,2.53,1.07,2.919,1.849A2.212,2.212,0,0,1,4.373,9.805a2.7,2.7,0,0,1-3.209-.487A4.015,4.015,0,0,1,.581,8.54c-.1-.1-.2-.292-.292-.2a.431.431,0,0,0,0,.487,21.718,21.718,0,0,0,.972,2.237c0,.583.1.583.39.583a5.751,5.751,0,0,0,2.625-.778A5.578,5.578,0,0,0,6.61,8.928a3.969,3.969,0,0,0,.2-3.6C6.027,3.774,4.763,3,2.04,2.413" transform="translate(3.059 3.618)"/>
            </g>
            <g id="Group_3224" data-name="Group 3224" transform="translate(75.346 31.577)">
              <path id="Path_2255" data-name="Path 2255" class="cls-5" d="M.127,2.986a1.032,1.032,0,0,1,.778-.1,2.325,2.325,0,0,1,1.07.972l7.682,9.531c.292.39.487.583.682.487s.193-.292.292-1.167c.1-1.849.1-8.851.1-9.823l6.906,7.2c.487.585.68.682.875.682.2-.1.2-.292.2-.973-.2-2.917-.487-9.044-.487-11.476,0-1.167-.1-1.847.292-2.139.2-.1.388-.292.583-.292.2-.1.2-.1.2-.292,0-.1-.2-.1-.39,0-.583.193-1.263.583-1.362.583-.193.1-.875.292-1.847.68-.292.1-.39.2-.292.292,0,.1.193.1.388,0,.682-.292.875-.1.973.2a2.612,2.612,0,0,1,.193,1.07c.2,2.237.583,7.294.682,8.558h-.1l-6.9-7.294c-.39-.487-.583-.68-.778-.583-.1.1-.2.2-.2.778l.1,10.211h-.1C8.978,9.21,5.379,4.64,4.7,3.666a9.011,9.011,0,0,1-.972-1.458.445.445,0,0,1,0-.487.737.737,0,0,1,.388-.193c.2-.1.292-.1.292-.292,0-.1-.193-.1-.388,0a16.37,16.37,0,0,0-1.849.778c-.193.1-1.167.388-2.042.68-.2.1-.388.2-.292.292a.183.183,0,0,0,.292,0" transform="translate(0.19 4.478)"/>
            </g>
            <g id="Group_3225" data-name="Group 3225" transform="translate(135.633 36.183)">
              <path id="Path_2256" data-name="Path 2256" class="cls-5" d="M.093,5.618c.68.388,1.654.875,2.042,1.07.487.2,1.46.875,2.529,1.362.2.1.292.1.39,0,0-.1,0-.2-.2-.292s-.583-.39-.778-.487C3.6,6.98,3.692,6.493,3.887,6.1a37.948,37.948,0,0,1,1.75-3.5l3.5-6.614,2.044,1.168c1.458.777,1.654,1.458,1.458,1.945l-.1.193c-.1.292-.1.39,0,.39.1.1.193,0,.292-.2.193-.388.875-1.557,1.07-1.849.1-.193.193-.388.1-.388s-.2-.1-.487-.2a4.963,4.963,0,0,1-1.167-.485L5.929-6.831A10.935,10.935,0,0,1,4.372-7.8a3.064,3.064,0,0,1-.583-.583c-.1-.1-.193,0-.388.193-.1.1-1.167,1.46-1.362,1.654-.1.2-.1.292,0,.292.1.1.2,0,.292-.1a1.491,1.491,0,0,1,.583-.388c.388-.2.875-.1,1.849.388L7.192-5.08l-3.5,6.612A37.678,37.678,0,0,1,1.747,4.938c-.292.485-.583.777-.973.68A.841.841,0,0,1,.19,5.327C0,5.23-.1,5.23-.1,5.327c-.1.1,0,.2.2.292" transform="translate(0.14 8.425)"/>
            </g>
            <g id="Group_3226" data-name="Group 3226" transform="translate(44.776 125.6)">
              <path id="Path_2257" data-name="Path 2257" class="cls-5" d="M5.937,4.864c.583-.292.972-.292,1.265.1.1.2.193.292.292.487s.193.292.292.2.1-.2,0-.39a13.517,13.517,0,0,0-1.07-1.847,19.112,19.112,0,0,0-.973-1.849c-.1-.2-.193-.292-.292-.292-.1.1-.1.2,0,.388a3.4,3.4,0,0,0,.292.585c.2.583,0,.875-.583,1.167-.487.292-.972.583-3.4,1.847L-.287,6.322C-1.941,7.2-3.4,7.976-4.761,7.489A3.688,3.688,0,0,1-6.8,5.739a3.5,3.5,0,0,1-.388-2.334c.2-1.167.972-2.14,3.307-3.4l2.237-1.168C.783-2.43,1.268-2.722,1.851-3.014s.973-.292,1.265.1c.1.2.2.292.292.487s.2.2.292.2.1-.2,0-.39C3.408-3.209,2.825-4.18,2.63-4.57,2.338-5.057,1.851-6.126,1.463-7c-.1-.193-.2-.292-.292-.292-.1.1-.1.2,0,.39a2.068,2.068,0,0,1,.292.68c.2.583,0,.875-.583,1.167-.487.292-.973.585-3.4,1.849L-5.248-2.042c-2.334,1.265-3.21,2.529-3.5,3.7a5.542,5.542,0,0,0,.778,4.182A5.375,5.375,0,0,0-5.053,8.559c1.847.778,3.89-.1,5.737-1.07l1.75-.875a32.944,32.944,0,0,1,3.5-1.75" transform="translate(8.903 7.294)"/>
            </g>
            <g id="Group_3227" data-name="Group 3227" transform="translate(158.26 61.022)">
              <path id="Path_2258" data-name="Path 2258" class="cls-5" d="M.3,3.229a2.1,2.1,0,0,1-.388-.487c-.1-.193-.2-.193-.292-.193-.1.1-.1.193,0,.388C.01,3.521.593,4.495.788,4.786c.1.193.778,1.458,1.362,2.334.1.2.193.292.388.2.1,0,.1-.1,0-.292s-.292-.585-.388-.778c-.2-.487.1-.778.485-1.167a33.526,33.526,0,0,1,3.307-2.14l.2-.1c.1-.1.2,0,.2.1L7.109,4.3c.1.1.1.2.1.388-.1.39-.778,1.75-1.265,2.82-.68,1.654-1.07,2.627-.972,3.5a3.6,3.6,0,0,0,.68,1.849l.875,1.458c.1.193.2.292.292.193.292,0,.292-.1.2-.193s-.1-.292-.2-.487a3.654,3.654,0,0,1,0-2.432c.39-1.555,1.168-3.4,2.044-5.932,2.237.778,3.6.68,4.765,0a3.52,3.52,0,0,0,1.555-2.334A5.81,5.81,0,0,0,14.113-.174c-.293-.487-1.07-1.654-1.362-2.237-.2-.292-.778-1.362-1.265-2.14-.1-.2-.2-.292-.388-.292-.1.1-.1.2,0,.388a2.076,2.076,0,0,1,.292.682c.193.583,0,.875-.487,1.263-.487.292-.972.585-3.307,2.044L4.872,1.188c-1.458.875-2.722,1.654-3.4,1.945-.487.193-.875.292-1.167.1M7.5,2.063,12.264-.856a.183.183,0,0,1,.292,0c.1.1.292.39.583.778.583.973.778,2.82-1.458,4.182a2.938,2.938,0,0,1-2.82.487,1.84,1.84,0,0,1-.973-.973A7.368,7.368,0,0,1,7.3,2.354c0-.1,0-.2.2-.292" transform="translate(0.452 4.843)"/>
            </g>
            <g id="Group_3228" data-name="Group 3228" transform="translate(147.789 47.659)">
              <path id="Path_2259" data-name="Path 2259" class="cls-5" d="M.327,4.1c-.1-.1-.292-.2-.487-.388s-.292-.2-.292-.1c-.1.1,0,.2.1.39.292.292.68.583.972.875a4.2,4.2,0,0,0,.778.68c.388.39.778.778,1.362,1.362S4.023,8.186,5,9.158c.485.487.68.583,1.07.292A9.715,9.715,0,0,0,7.621,8.088c.1-.1.2-.193.1-.292s-.193-.1-.292.1a1.449,1.449,0,0,1-1.555.388A4.886,4.886,0,0,1,4.51,7.311C3.148,6.046,3.148,5.658,3.926,4.684,4.314,4.3,5.481,3.031,5.871,2.642l.972-1.07c.1-.1.1-.1.2-.1.292.292,1.654,1.555,1.849,1.847a.985.985,0,0,1,.292,1.265,2.126,2.126,0,0,1-.39.485c-.1.1-.1.2,0,.2.1.1.292,0,.39-.1s.583-.583.875-.875c.68-.682.972-.778.972-.875.1-.1.1-.1,0-.2s-.193,0-.388,0a1.569,1.569,0,0,1-.875-.39C9.47,2.544,7.913,1.184,7.621.891c-.1-.1,0-.1,0-.193l3.21-3.4c.1-.1.193-.1.193,0,.292.292,1.654,1.555,1.849,1.847.583.682.583.973.487,1.362a2.991,2.991,0,0,1-.39.583.36.36,0,0,0-.1.292c.1.1.2,0,.292,0A6.863,6.863,0,0,0,14.04.6c.583-.583.875-.68.875-.777.1-.1.1-.1,0-.2a.357.357,0,0,0-.292-.1,6.442,6.442,0,0,0-.68-.487c-.292-.2-2.919-2.724-3.4-3.112l-.778-.778-1.07-1.07c-.2-.2-.292-.292-.388-.2s0,.2.1.292c.2.2.388.39.487.487.388.487.292.778-.1,1.265A36.561,36.561,0,0,1,6.163-1.151L4.121.891C2.953,2.156,1.981,3.226,1.4,3.712,1.007,4,.619,4.3.327,4.1" transform="translate(0.491 6.15)"/>
            </g>
            <g id="Group_3229" data-name="Group 3229" transform="translate(104.452 30.581)">
              <path id="Path_2260" data-name="Path 2260" class="cls-5" d="M.117.272H.8c.585.1.778.388.778,1.07,0,.583.1,1.07.1,3.89l-.2,3.015c0,1.654.1,3.112,0,3.89-.1.583-.2.972-.487.972-.2,0-.388.1-.68.1-.2,0-.292.1-.292.2s.1.2.388.2c.388,0,.875-.1,1.265-.1H7.9c.68,0,.875,0,.972-.485a14.367,14.367,0,0,0,.2-2.044c0-.193,0-.292-.2-.292-.1,0-.193.1-.193.292-.1.778-.292,1.168-.778,1.362a10.866,10.866,0,0,1-1.75.292c-1.849,0-2.14-.193-2.237-1.458a27.966,27.966,0,0,0-.1-2.82V6.886c0-.1,0-.2.1-.2H6.536c.682.1.973.292,1.07.68a1.669,1.669,0,0,1,.1.682c0,.1,0,.2.2.2s.2-.2.2-.39a7.009,7.009,0,0,1,.1-1.263c.1-.973.1-1.265.1-1.362a.1.1,0,0,0-.1-.1c-.1,0-.2.1-.292.2a1.188,1.188,0,0,1-.875.292c-.39,0-2.529.1-2.919.1-.1,0-.1-.1-.1-.2L3.91.855c0-.1,0-.2.1-.2H6.632c.877.1,1.07.292,1.265.682a1.665,1.665,0,0,1,.1.68c0,.2,0,.292.2.292a.21.21,0,0,0,.2-.193c0-.2.1-1.07.1-1.168a5.392,5.392,0,0,1,.1-1.167c0-.1,0-.193-.1-.193s-.2.1-.292.1-.487.1-.778.1c-.388,0-3.987.1-4.57.1H.213c-.292,0-.388,0-.388.193,0,.1.1.2.292.2" transform="translate(0.175 0.408)"/>
            </g>
            <g id="Group_3230" data-name="Group 3230" transform="translate(119.955 32.311)">
              <path id="Path_2261" data-name="Path 2261" class="cls-5" d="M.1,5.066A7.6,7.6,0,0,0,2.63,6.136a5.321,5.321,0,0,0,3.015-.1A3.721,3.721,0,0,0,7.979,3.316C8.369,1.564,7.882.2,6.033-1.84l-.388-.487C4.38-3.785,4.088-4.465,4.283-5.34,4.478-6.41,5.45-6.994,6.812-6.7a2.378,2.378,0,0,1,1.75,1.263,1.658,1.658,0,0,1,.2,1.265c0,.2,0,.292.1.388.1,0,.2-.1.292-.485.292-1.362.487-1.945.487-2.14,0-.1-.1-.2-.2-.292A9.031,9.031,0,0,0,7.1-7.48C4.575-7.967,2.63-6.9,2.241-4.952c-.292,1.458.1,2.82,1.75,4.864l.68.777C5.937,2.149,6.033,3.024,5.84,3.9A2.267,2.267,0,0,1,3.018,5.454,2.5,2.5,0,0,1,.88,3.121V2.149c0-.1,0-.292-.1-.292s-.193.193-.292.388C.393,2.537.1,3.608-.094,4.579c-.1.2-.1.39.2.487" transform="translate(0.152 7.597)"/>
            </g>
            <g id="Group_3231" data-name="Group 3231" transform="translate(37.927 78.918)">
              <path id="Path_2262" data-name="Path 2262" class="cls-5" d="M5.1,7.042a3.445,3.445,0,0,1-.1.583c-.1.2-.1.292,0,.292a.258.258,0,0,0,.292-.292,16.725,16.725,0,0,1,.388-1.75c.1-.292.388-1.07.583-1.849.1-.292.1-.487-.1-.487-.1-.1-.2.1-.2.2-.1.1-.1.39-.292.682A.552.552,0,0,1,5,4.806a6.751,6.751,0,0,0-.778-.292l-6.809-2.82V1.6C-1.03,1.3,1.5.915,1.887.818c.585-.1,3.6-.778,4.572-.973.583-.2,1.07-.2,1.07-.388.1-.1-.1-.2-.778-.875l-7-6.031v-.1l8.072,1.07c.583.1.778.193.778.292s0,.193.1.193.2-.1.292-.485a36.285,36.285,0,0,0,1.07-3.6c0-.2,0-.487-.1-.487s-.193.1-.193.292A4.724,4.724,0,0,1,9.279-9.2c-.292.487-.875.487-2.042.388L-4.142-10.173c-.39,0-.682,0-.682.2-.1.1,0,.292.292.487L4.319-2-6.962.137c-.487.1-.682.2-.682.292s.1.292.39.39L3.931,5.972c.583.2,1.167.583,1.167,1.07" transform="translate(7.644 10.561)"/>
            </g>
            <g id="Group_3232" data-name="Group 3232" transform="translate(56.077 46.808)">
              <path id="Path_2263" data-name="Path 2263" class="cls-5" d="M.132,2.963c.2-.2.487-.388.583-.487a.852.852,0,0,1,1.265.292c.388.39.777.778,2.625,2.82L6.746,8.02a33.968,33.968,0,0,1,2.529,2.919c.292.485.487.777.292,1.068a2.209,2.209,0,0,1-.487.487c-.2.1-.2.2-.1.292s.193,0,.388-.1a7.468,7.468,0,0,0,.875-.875,4.289,4.289,0,0,1,.778-.682c.292-.292.875-.68,1.362-1.167A11.16,11.16,0,0,0,14.04,8.6c2.529-2.237,3.112-4.474,3.112-5.737A7.189,7.189,0,0,0,15.207-2.29a5.878,5.878,0,0,0-4.182-2.14C8.108-4.623,5.871-2.581,4.119-1.025,3.342-.246,2.465.531,2.077.921S.812,1.991.035,2.671c-.2.2-.292.292-.2.388s.2,0,.292-.1M3.827.726a3.171,3.171,0,0,1,.778-.875A7.013,7.013,0,0,1,9.663-2.29,6.08,6.08,0,0,1,14.04-.053c1.263,1.362,2.14,2.82,1.945,4.377a6.031,6.031,0,0,1-2.237,3.792c-1.07.973-1.849,1.168-2.237,1.07a4.229,4.229,0,0,1-1.07-.875C10.15,8.02,9.274,7.048,7.913,5.588L6.356,3.838C5.384,2.768,4.314,1.6,3.926,1.114c-.1-.193-.2-.292-.1-.388" transform="translate(0.198 4.443)"/>
            </g>
            <g id="Group_3233" data-name="Group 3233" transform="translate(47.006 62.542)">
              <path id="Path_2264" data-name="Path 2264" class="cls-5" d="M.142,1.8A2.137,2.137,0,0,1,.53,1.318Q.968.88,1.7,1.318c.485.292.972.583,3.305,2.044L7.826,5.208a36,36,0,0,1,3.305,2.237c.39.292.583.583.487.973-.1.193-.1.388-.292.583-.1.2-.1.292,0,.292.1.1.2,0,.388-.2.39-.583.973-1.654,1.168-1.945.292-.388.875-1.362,1.555-2.432.1-.193.1-.292,0-.388s-.193,0-.292.2a4.066,4.066,0,0,1-.583.778c-.388.388-.68.388-1.167.1-.682-.39-1.945-1.167-3.4-2.042L6.269,1.513C3.936.054,3.449-.238,2.962-.628s-.68-.68-.487-1.167c.1-.2.1-.292.2-.487s.1-.292,0-.388-.2,0-.292.292C1.991-1.794,1.5-.821,1.212-.433.921.054.239.929-.053,1.513-.246,1.8-.246,1.9-.15,2s.2,0,.292-.2" transform="translate(0.213 2.706)"/>
            </g>
            <g id="Group_3234" data-name="Group 3234" transform="translate(30.805 24.138)">
              <path id="Path_2265" data-name="Path 2265" class="cls-5" d="M31.837,0a79.581,79.581,0,1,0,79.58,79.58A79.669,79.669,0,0,0,31.837,0m0,156.584a77,77,0,1,1,77-77,77.091,77.091,0,0,1-77,77" transform="translate(47.743)"/>
            </g>
            <g id="Group_3235" data-name="Group 3235" transform="translate(115.832 65.496)">
              <path id="Path_2266" data-name="Path 2266" class="cls-5" d="M.389,1.79c.487,0,.875-.778.875-2.14,0-1.07-.292-2.334-.972-2.334-.583,0-.875.778-.875,2.14C-.583.525-.39,1.79.389,1.79" transform="translate(0.583 2.684)"/>
            </g>
            <g id="Group_3236" data-name="Group 3236" transform="translate(111.649 65.495)">
              <path id="Path_2267" data-name="Path 2267" class="cls-5" d="M0,.856C0,1.926.2,3.19.972,3.19c.487,0,.877-.777.877-2.139,0-1.07-.292-2.335-.973-2.335C.292-1.284,0-.506,0,.856" transform="translate(0 1.284)"/>
            </g>
            <g id="Group_3237" data-name="Group 3237" transform="translate(106.202 65.204)">
              <path id="Path_2268" data-name="Path 2268" class="cls-5" d="M.545,1.128A1.355,1.355,0,0,0,1.42.837v-.2a.1.1,0,0,0-.1.1,2.008,2.008,0,0,1-.487.1c-.2,0-.875-.2-.875-1.265,0-.583.292-.972.778-.972s.972.487.972,1.654A3.553,3.553,0,0,1,.058,3.269l-.1.1a.1.1,0,0,0,.1.1h.1a4.156,4.156,0,0,0,2.43-3.4,1.743,1.743,0,0,0-1.75-1.75A1.561,1.561,0,0,0-.817-.137,1.25,1.25,0,0,0,.545,1.128" transform="translate(0.817 1.692)"/>
            </g>
            <g id="Group_3238" data-name="Group 3238" transform="translate(103.187 65.107)">
              <path id="Path_2269" data-name="Path 2269" class="cls-5" d="M.311.389c.1,0,.1,0,.1.2v3.5c0,.2,0,.2-.193.292H-.272v.1c0,.1,0,.1.1.1H1.77c.1,0,.1,0,.1-.1v-.1h-.39a.5.5,0,0,1-.2-.388V-.486a.1.1,0,0,0-.1-.1.345.345,0,0,0-.2.1C.8-.39-.369.485-.369.485a.1.1,0,0,0-.1.1v.1h.1c.1,0,.583-.292.68-.292" transform="translate(0.467 0.583)"/>
            </g>
            <g id="Group_3239" data-name="Group 3239" transform="translate(107.273 109.456)">
              <path id="Path_2270" data-name="Path 2270" class="cls-5" d="M1.05,0A5.9,5.9,0,0,0-1.575,4.862,5.834,5.834,0,0,1,.37,4.182a4.636,4.636,0,0,1,3.014.68C3.287,2.82,2.509.68,1.05,0M-.8,3.794V3.6A3.387,3.387,0,0,1,.954.875l.1,2.432A7.169,7.169,0,0,0-.8,3.794" transform="translate(1.575)"/>
            </g>
            <g id="Group_3240" data-name="Group 3240" transform="translate(70.411 127.157)">
              <path id="Path_2271" data-name="Path 2271" class="cls-5" d="M18.054,1.79c-1.265.875-2.82,2.042-2.82,2.042V6.555a32.81,32.81,0,0,1,2.917,2.82,3.52,3.52,0,0,1,.1,3.989c-.682.68-2.919,1.167-3.015,2.237,0,1.36,2.334,1.847,2.334,3.4,0,1.458-1.458,2.529-1.945,3.112a3.483,3.483,0,0,0-.485,2.237c0,.972-.778,1.945-2.432,1.362a1.823,1.823,0,0,1-1.557-2.14,3.062,3.062,0,0,1-2.625-1.458,2.674,2.674,0,0,1,1.75-1.265c1.362-.292.682-1.654.292-2.042C9.4,17.545,7.94,17.351,7.648,15.6c-.39-2.53,2.917-3.114,2.917-3.114V10.251c0-.388-.778-.972-2.042-2.042C6.674,6.75,5.6,5.584,5.9,3.54c.2-1.654,3.7-3.4,3.7-3.4v-2.82L-27.074,8.987S-12.486,27.271,12.9,27.369c24.994,0,40.069-18.382,40.069-18.382S21.458-.934,19.319-1.614a3.232,3.232,0,0,1-1.265,3.4" transform="translate(27.074 2.684)"/>
            </g>
            <g id="Group_3241" data-name="Group 3241" transform="translate(106.397 117.626)">
              <path id="Path_2272" data-name="Path 2272" class="cls-5" d="M0,.155a1.494,1.494,0,0,0,1.557,0c-.2-.1-.292-.388-.682-.388S.292.059,0,.155" transform="translate(0 0.233)"/>
            </g>
            <g id="Group_3242" data-name="Group 3242" transform="translate(41.235 109.262)">
              <path id="Path_2273" data-name="Path 2273" class="cls-5" d="M1.945,0C.583.2-2.237,1.849-2.917,3.6-1.654,5.154,1.362,5.932,2.82,5.836A8.949,8.949,0,0,1,1.945,0M-2.14,3.5l3.5-.487a6.11,6.11,0,0,0,.68,2.237H1.848A5.668,5.668,0,0,1-2.14,3.5" transform="translate(2.917)"/>
            </g>
            <g id="Group_3243" data-name="Group 3243" transform="translate(173.797 109.067)">
              <path id="Path_2274" data-name="Path 2274" class="cls-5" d="M.428,0A9.778,9.778,0,0,1-.642,5.836,7.37,7.37,0,0,0,5.194,3.794C4.61,1.945,1.79.292.428,0m0,5.252h-.2a6.134,6.134,0,0,0,.778-2.14l3.4.583c-.583.973-2.82,1.752-3.987,1.557" transform="translate(0.642)"/>
            </g>
            <g id="Group_3244" data-name="Group 3244" transform="translate(54.596 47.832)">
              <path id="Path_2275" data-name="Path 2275" class="cls-5" d="M22.319,0A55.789,55.789,0,1,0,78.108,55.789,55.852,55.852,0,0,0,22.319,0M48.358,31.455,62.18,18.675c.385.413.76.833,1.132,1.257L50.162,31.3l.138.162L63.45,20.092c.375.432.748.862,1.108,1.3l-12.351,9.9.133.165,12.35-9.9c.372.46.74.923,1.1,1.4l-12.7,9.5.127.17,12.706-9.506c.342.457.668.927,1,1.393L54.839,32.943l.122.175,12.078-8.428q.473.678.925,1.372L56.009,33.72l.115.178,11.955-7.657c.305.472.615.942.907,1.425L55.332,35.857l.108.182L69.09,27.85c.29.482.568.97.842,1.462L56.5,36.73l.1.185,13.435-7.421c.285.517.555,1.04.823,1.567L56.894,38.091l.1.19,13.97-7.032c.253.5.5,1,.74,1.513L56.8,39.646l.09.192,14.9-6.882c.242.52.485,1.04.71,1.57L60.306,39.644l.082.2L72.579,34.72c.225.533.432,1.075.638,1.615L59.433,41.588l.077.2L73.3,36.534c.193.512.377,1.03.555,1.548L60.41,42.656l.068.2,13.441-4.574c.183.538.367,1.077.533,1.622L63.525,43.238l.062.2,10.924-3.332c.168.565.332,1.132.483,1.7L64.112,44.7l.055.205,10.886-2.884c.142.54.263,1.088.388,1.635L61.2,46.931l.048.208,14.241-3.28q.193.853.358,1.714l-16.395,3.11.04.207,16.392-3.109c.1.542.207,1.083.292,1.63L57.316,50.335l.032.21,18.859-2.924c.085.567.15,1.138.218,1.709L59.264,51.4l.025.212L76.451,49.54c.065.57.118,1.143.165,1.717L61.5,52.572l.018.21,15.11-1.313c.045.572.093,1.142.12,1.719l-11.191.588a1.3,1.3,0,0,0-.305-.935c-.177-.26-.722-.082-1.625.215-.238.078-.5.163-.773.248a2.879,2.879,0,0,0-1.65,1.438,6.048,6.048,0,0,1-.513.718,2.43,2.43,0,0,1-.49.487.521.521,0,0,1,0-.088c0-.023,0-.047,0-.07a.252.252,0,0,1,.052-.117c.108-.173.163-.347-.265-.7a1.4,1.4,0,0,1-.563-1.32.324.324,0,0,0-.1-.263c-.152-.123-.427-.067-.773,0l-.073.015a.524.524,0,0,1-.583-.143.929.929,0,0,0,.172-.883.383.383,0,0,0-.232-.308,1.642,1.642,0,0,0-1.215.272c-.177.117-.178.117-.252.077a1.129,1.129,0,0,0-.187-.083c-.327-.108-.35-.083-.738.305-.053.055-.088.092-.113.12-.053.058-.053.058-.152.088s-.225.068-.493.168c-.228.087-.383.1-.453.037-.1-.092-.033-.363.023-.582l.018-.07c.093-.377.118-.622-.322-.842-.405-.2-.713.252-.913.553l-.033.05a.466.466,0,0,0-.08.3,1.975,1.975,0,0,0-.315-.6c-.438-.585-.365-.692-.22-.9a1.643,1.643,0,0,0,.133-.22,1.31,1.31,0,0,0-.223-.963c-.025-.047-.05-.1-.077-.15-.178-.263-.723-.083-1.625.215-.237.078-.5.163-.772.248a2.837,2.837,0,0,0-1.652,1.437,5.881,5.881,0,0,1-.513.72,2.342,2.342,0,0,1-.49.485.737.737,0,0,1,0-.085c0-.025,0-.05,0-.072a.252.252,0,0,1,.05-.118c.108-.173.163-.347-.275-.71a.83.83,0,0,1-.278-.263c-.022-.027-.042-.055-.063-.078.233-.29.355-.433.412-.5.05.027.117.015.215-.032a1.06,1.06,0,0,0,.815-1.228.387.387,0,0,0-.232-.31,1.647,1.647,0,0,0-1.215.272c-.18.118-.178.118-.252.078a.983.983,0,0,0-.187-.085c-.26-.085-.33-.023-.523.135-.055.047-.122.1-.213.17a2.224,2.224,0,0,0-.153.165c-.047.053-.047.053-.138.073l-.14.032a.655.655,0,0,0-.2-.105,1.876,1.876,0,0,1-.188-.08c-.083-.028-.187-.053-.24.01s-.015.172.045.3c-.117.025-.247.035-.3-.033-.078-.1-.027-.345.147-.7.093-.377.118-.622-.322-.842-.408-.2-.713.25-.913.553l-.033.05a.436.436,0,0,0-.078.227,1.891,1.891,0,0,0-.22-.425c-.438-.585-.365-.69-.22-.9a1.486,1.486,0,0,0,.133-.22A1.236,1.236,0,0,0,42.3,47c-.178-.262-.722-.082-1.625.215-.235.078-.493.163-.772.248a2.831,2.831,0,0,0-1.65,1.438c-.027.042-.057.085-.083.127V28.168c-.055-4.439-2.335-10.916-5.949-16.63l2.135-8.893c.548.123,1.1.242,1.64.383l-2.5,9.356.205.055,2.5-9.353c.542.142,1.078.3,1.613.458L34.472,14.326l.2.062L38.022,3.6c.557.168,1.107.35,1.657.535L36.125,14.518l.2.068L39.881,4.207c.537.183,1.073.37,1.605.57l-4.58,11.681.2.077L41.683,4.854c.542.208,1.083.417,1.617.64l-5.031,11.74.2.083L43.5,5.572c.518.218,1.023.458,1.533.693L39.922,17.133l.193.09L45.225,6.352q.785.365,1.553.755L39.926,20.435l.187.1L46.967,7.2c.487.248.977.493,1.455.755L41.483,20.432l.187.1,6.937-12.47q.74.41,1.463.842L43.138,20.43l.183.108L50.254,9.014c.507.3,1,.62,1.5.94L44.891,20.427l.177.115,6.859-10.474c.463.3.923.607,1.377.92l-6.661,9.436.173.122,6.661-9.434c.488.342.978.682,1.457,1.038l-7.8,10.216.17.128,7.8-10.213c.435.328.86.67,1.287,1.012L47.622,24.016l.163.135,8.768-10.728c.442.357.872.725,1.3,1.1L48.887,24.791l.16.14,8.968-10.274c.443.385.885.773,1.315,1.173l-9.273,9.834.155.145,9.271-9.833c.4.37.793.742,1.18,1.123l-9.144,9.144.15.15,9.148-9.148c.415.415.815.847,1.217,1.275L48.213,31.3Zm-23.1,38.971,0,.015c-.34-.27-.755-.463-.89-.938-.2-.583,0-1.362-.292-2.042-.487-1.167-1.945-1.265-2.529-1.265-.973,0-1.167.1-2.432.875a1.74,1.74,0,0,1-.388.877c-.973.972-2.529.583-3.5,2.139a3.1,3.1,0,0,0-.335.77L8.229,72.107c-.055-.7-.055-1.47-.055-1.924,0-.217-.018-.577-.04-.993-.025-.493-.055-1.048-.057-1.473H8.1a.256.256,0,0,0,.25-.142.961.961,0,0,0-.06-.682,1.367,1.367,0,0,0,.292.13.148.148,0,0,0,.155.022c.082-.053.063-.2.028-.427a1.2,1.2,0,0,1-.025-.282,3.034,3.034,0,0,0,.688-.5c.153-.205.283-.407.4-.583.317-.5.545-.853,1.017-.853a2.183,2.183,0,0,1,.875.187,1.07,1.07,0,0,0,.4.1h.007c.072-.018.133-.028.185-.038.115-.022.2-.037.247-.105s.042-.2-.005-.417a1.438,1.438,0,0,0-.073-.155.366.366,0,0,0,.052-.05,1.24,1.24,0,0,0,.148-.187l.022-.032a1.346,1.346,0,0,1,.037.152,1.478,1.478,0,0,1-.075.413c-.035.125-.057.2,0,.24s.145,0,.455-.22c.082-.058.145-.08.182-.06.1.05.1.382.1.623,0,.345,0,.562.12.627a.171.171,0,0,0,.18-.017.632.632,0,0,0,.358-.615c.012-.175.017-.255.188-.257a.908.908,0,0,1,.09.022.1.1,0,0,0-.008.077c.025.063.112.135.892.292l.14.028c.827.165,1.077.215,1.187.107.077-.075.055-.2.022-.387l-.018-.11a1.566,1.566,0,0,0-.175-.385.782.782,0,0,1-.048-.087.861.861,0,0,1,.138.047,1.214,1.214,0,0,0,.73.275.191.191,0,0,0,.127-.1,2.994,2.994,0,0,1,.262-.43.643.643,0,0,0,.307.027.606.606,0,0,0,.4-.267,1.03,1.03,0,0,0,.152-.953c-.028-.145-.053-.27-.005-.317s.212-.043.477.022c.035.013.147.05.208-.022.09-.107-.037-.352-.248-.742a2.087,2.087,0,0,1-.228-.5l.01,0a1.582,1.582,0,0,1,.638.168c.427.16.692.248.812.147a.183.183,0,0,0,.042-.193.635.635,0,0,1,.013-.64,1.705,1.705,0,0,0,.083-.19.939.939,0,0,1,.2-.218,1.49,1.49,0,0,0,.378-.457.15.15,0,0,0,.03-.147c-.033-.063-.12-.067-.25-.07a1.044,1.044,0,0,1-.853-.337c-.147-.172-.145-.233-.137-.252.022-.053.187-.067.333-.078.262-.02.588-.045.683-.287.113-.188.463-.832.205-1.192-.178-.247-.592-.3-1.235-.155a3.624,3.624,0,0,0-.622.15,1.235,1.235,0,0,0,.007-.3c-.11-.653.03-.862.133-1.013a.409.409,0,0,0,.057-.457c-.353-.888-.72-1.4-1.087-1.533a.529.529,0,0,0-.452.047c-.185.105-.333.212-.453.3a.975.975,0,0,1-.282.167.021.021,0,0,1-.01,0c-.013-.008-.047-.053-.047-.315a1.991,1.991,0,0,0-.5-1.3.31.31,0,0,0-.135-.065c-.142-.042-.335-.1-.335-.577,0-.57-.127-.987-.338-1.118a.323.323,0,0,0-.32-.005c-.127.027-.188.055-.217.1a.131.131,0,0,0-.007.105c.007.023.008.03,0,.037-.013.025-.08.077-.352.145a2.234,2.234,0,0,0-.672.2.893.893,0,0,1-.153.06h0c-.012-.015-.018-.078.013-.3.018-.125.03-.223.038-.3.027-.242.028-.247.165-.238.038,0,.08,0,.118,0a.992.992,0,0,0,.85-.082.378.378,0,0,0,.092-.372.838.838,0,0,0-.305-.585.54.54,0,0,0-.44-.042,1.059,1.059,0,0,1-.453-.025c-.232-.047-.452-.093-.645.235a3.089,3.089,0,0,0-.232.257c-.147.177-.178.213-.508.213a.794.794,0,0,0-.442.138l-.022.012c0-.063.02-.192.033-.283s.02-.172.028-.235c.012-.1.02-.177.028-.21h.005a.482.482,0,0,0,.285.007.409.409,0,0,0,.328-.405c-.007-.1-.078-.41-.725-.482a2.713,2.713,0,0,0-1.067.077.476.476,0,0,1-.267.028A.768.768,0,0,1,10.568,49c-.032-.15-.057-.268-.145-.288s-.15.06-.208.138a.819.819,0,0,1-.835.272c-.025-.013-.1-.058-.043-.21.21-.283.305-.443.243-.538s-.187-.062-.3-.03a.889.889,0,0,0-.423.2.43.43,0,0,1-.442.09,1.752,1.752,0,0,1-.577-.147c-.21-.078-.375-.14-.475-.072a.2.2,0,0,0-.073.177.816.816,0,0,0,.247.463c.212.26.4.483.065.758-.428.357-.373.53-.265.7a.252.252,0,0,1,.05.118c0,.022,0,.047,0,.072a.489.489,0,0,1,0,.085,1.2,1.2,0,0,1-.24-.213V30.4c3.307,2.14,4.182,5.544,5.447,7.976l-.778.875c.682.1,1.07-.2,1.362,0-.973,1.555-1.945,2.237-2.432,3.6a10.217,10.217,0,0,1,2.919-.1c-1.167.487-2.919.292-3.7,1.654a19.18,19.18,0,0,0,3.21,1.167,20.8,20.8,0,0,0,3.5-1.167c-1.557-2.237-1.168-4.669-2.627-6.224.778-1.557,1.557-2.432,2.334-3.987a59.473,59.473,0,0,1,4.961,6.127l-1.07,1.167a6.736,6.736,0,0,1,2.432-.1c-3.015-.193-2.82,2.919-3.7,4.669,1.458-.2,2.432-.487,3.015-.487.68,0,.485.2.68.39a11.736,11.736,0,0,1-3.209.68A1.856,1.856,0,0,0,17.942,48.2a22.375,22.375,0,0,0,4.377,1.945A11.883,11.883,0,0,0,26.694,48.2a9.622,9.622,0,0,0-.68-1.458,48.052,48.052,0,0,1-2.625-6.614c0-.875,4.279-4.864,4.959-5.349a26.93,26.93,0,0,0,2.335,3.7l-.778.875c.68.1,1.167-.2,1.557,0-1.849,1.458-2.14,2.042-2.627,3.794a6.491,6.491,0,0,1,1.849-.487c.68,0,.583,0,.778.1-1.168.583-2.432.39-3.21,1.945a11.328,11.328,0,0,0,2.919,1.167,20.743,20.743,0,0,0,3.5-1.167c-.778-2.237-2.625-5.932-2.625-6.612s2.917-4.475,4.57-7.1V48.607a1.731,1.731,0,0,1-.138-.793.324.324,0,0,0-.1-.263c-.152-.123-.427-.068-.773,0l-.065.013a.253.253,0,0,0-.193.128c-.058.132.04.3.113.43a.27.27,0,0,0,.017.03.024.024,0,0,0-.01,0,1.961,1.961,0,0,1-.41-.188c-.177-.1-.282-.162-.352-.1-.055.05-.033.142.017.267a1.756,1.756,0,0,1,.053.858.941.941,0,0,0-.363-.343,1.418,1.418,0,0,1-.157-.105.123.123,0,0,0,.073-.087c.01-.052-.022-.11-.1-.183a.485.485,0,0,0-.37-.187,1.541,1.541,0,0,0-.935.337.173.173,0,0,0-.04-.072c-.09-.1-.307-.137-.65-.1-.405.045-.483.193-.477.308.013.232.407.482.66.482h0c.187.047.18.09.155.3a2.16,2.16,0,0,0,0,.623c.013.09.032.218.033.282a.094.094,0,0,1-.022-.013.819.819,0,0,0-.443-.138c-.378,0-.378,0-.575-.258-.043-.057-.1-.125-.155-.2-.08-.133-.145-.2-.218-.2s-.143.052-.207.117a.386.386,0,0,1-.388.158.549.549,0,0,0-.442.042.835.835,0,0,0-.305.585c-.032.155-.018.25.042.3.09.075.24.02.432-.05a2.769,2.769,0,0,1,.273-.092.948.948,0,0,1,.15-.03c0,.015,0,.045,0,.072a1.739,1.739,0,0,0,.075.593,1.906,1.906,0,0,1,.028.29.947.947,0,0,1-.1-.042,2.2,2.2,0,0,0-.735-.213c-.278-.068-.343-.12-.358-.145,0-.008,0-.015,0-.038a.119.119,0,0,0-.007-.105c-.027-.043-.09-.073-.217-.1a.319.319,0,0,0-.32,0c-.212.132-.337.55-.337,1.118,0,.477-.2.535-.337.578a.35.35,0,0,0-.123.053,1.8,1.8,0,0,0-.513,1.313.271.271,0,0,1-.017.122h0c-.042,0-.17-.13-.247-.207-.168-.168-.325-.333-.463-.283-.078.027-.125.113-.143.263-.183,1.217-.657,1.248-1.075,1.277-.235.015-.457.028-.575.267a.4.4,0,0,0,.072.467,1.253,1.253,0,0,1,.215,1.008,1.221,1.221,0,0,0,.258.908c-.132-.04-.348-.1-.677-.18-.672-.148-1.117-.077-1.327.218a1.223,1.223,0,0,0,.1,1.217c.137.343.125.363-.055.685-.062.11-.14.247-.235.438-.132.263-.157.432-.077.527.117.14.393.06.662-.017.057-.015.11-.032.158-.043l.017-.008a2.373,2.373,0,0,0,.213-.162c.088-.073.183-.158.233-.145.018.005.038.035.055.085a.707.707,0,0,0,.143.238c.1.118.17.205.048.51a1.758,1.758,0,0,1-.15.4c-.083.177-.15.315-.082.423.052.082.17.118.383.118.473,0,.7.358,1.018.855.113.177.243.377.4.582a.454.454,0,0,0,.342.233h0c.2,0,.36-.215.532-.443a1.314,1.314,0,0,1,.455-.452c.533-.213.715-.552.812-1.505.008-.08.025-.218.04-.335a.049.049,0,0,0,0,.015c.01.067.025.143.042.228a3.634,3.634,0,0,1,.047.377c.027.305.05.568.205.633.087.037.19.005.323-.1a2.134,2.134,0,0,0,.532-.81c.1-.227.2-.442.308-.442a.951.951,0,0,1,.425.32,1.449,1.449,0,0,1,.4,1.077,1.775,1.775,0,0,1-.038.225c-.027-.055-.06-.153-.09-.235a3.349,3.349,0,0,0-.255-.6c-.088-.15-.158-.213-.235-.217h0c-.09,0-.148.087-.217.187a.839.839,0,0,1-.307.305c-.262.2-.28.233-.28.37a.978.978,0,0,1-.032.248c-.033.163-.247.158-.587.132-.365-.028-.813-.063-.873.357a1.54,1.54,0,0,0,.012.523.315.315,0,0,1,.012.09,1.3,1.3,0,0,1-.358.02c-.3,0-.387,0-.422.067s.007.115.075.22a2.657,2.657,0,0,1,.3.572,1,1,0,0,1,.092.462v.135l.1-.1a1.708,1.708,0,0,1,.558-.375.146.146,0,0,1,.027.132l-.018.105c-.033.187-.055.312.022.385.11.11.362.058,1.187-.107l.142-.028c.478-.1.575-.18.573-.265,0-.062-.057-.1-.163-.138a.573.573,0,0,1,.192.082c.057.03.133.07.233.12.145.087.215.122.27.087s.047-.105.032-.233a2.913,2.913,0,0,1,.073-1.152c.033-.138.06-.25.082-.337.013-.06.027-.112.037-.155a1.365,1.365,0,0,0,.475.62c.4.288.418.328.452.415a1.206,1.206,0,0,0,.218.353c.077.1.178.205.277.168.133-.05.132-.307.118-.725,0-.088,0-.177,0-.257a1.378,1.378,0,0,1,.007-.152c.013.015.028.033.042.05a1.166,1.166,0,0,0,.247.238c.068.068.12.063.148.043.09-.055.058-.3.017-.5l.137-.273-.028-.03a.041.041,0,0,1-.01-.013.335.335,0,0,1,.262-.085,1.732,1.732,0,0,1,.625.173.282.282,0,0,1-.088.227,1.91,1.91,0,0,1-.27.3,1.906,1.906,0,0,0-.515.7c-.042.21-.055.332,0,.407s.13.085.248.107c.052.01.112.02.178.037a.107.107,0,0,0,.118-.015c.057-.052.03-.15-.008-.3s-.1-.377-.017-.483a.261.261,0,0,1,.217-.075c.473,0,.7.358,1.018.853.113.177.243.378.4.583a.606.606,0,0,0,.4.288.451.451,0,0,0,.325-.147l.25.248c-.1-.007-.2-.022-.312-.037a4.773,4.773,0,0,0-.618-.053c-.305,0-.387,0-.418.067s.013.113.1.223a3.12,3.12,0,0,1,.367.567,1,1,0,0,1,.092.462v.135l.093-.1a1.784,1.784,0,0,1,.563-.375c.062-.022.115-.042.163-.063a1.287,1.287,0,0,0-.138.288c-.01.038-.018.072-.027.105-.042.153-.068.255-.007.325s.183.08.518.037c0,.437.032,1.078.057,1.648.022.48.04.893.04,1.108,0,.463-.047,1.505-.137,2.34Zm-1.38,4.524a6.48,6.48,0,0,1,3.015-1.557A24.8,24.8,0,0,1,24.264,76.5c-.292-.193-2.14-1.555-2.14-2.042,0-.388.2-.68.2-1.265a12.248,12.248,0,0,0,1.263-.388v2.042s-.1.1.292.1m-2.82-2.335c-.388,0-1.167-.193-1.847-.292l-.292.292c1.068,2.237,8.266,5.836,8.266,8.656,0,1.362-2.432,2.237-3.015,2.529a7.367,7.367,0,0,0-.193-2.722c-.487-2.044-8.559-5.642-8.559-8.463,0-2.529,2.529-3.5,4.085-3.5a9.031,9.031,0,0,1,5.154,1.847,4.82,4.82,0,0,1-3.6,1.654M16.872,86.23c0-.972,2.14-2.042,3.015-2.529a6.036,6.036,0,0,0,.68,3.112c1.945,2.724,6.031,4.765,6.031,6.614,0,1.265-1.75,1.945-2.724,2.334V93.816c0-2.237-6.9-4.862-7-7.586m1.752,11.088c-.1-.778.972-1.07,1.75-1.265a4.576,4.576,0,0,0,1.847,2.432c.487.2,3.114,1.75,3.015,2.82,0,.875-.68.875-1.555,1.653a8.789,8.789,0,0,0-.1-1.555c-1.458-1.168-4.667-2.432-4.959-4.085M23,106.362s0,.2-.388.2-.682-.292-.875-.778v-4.667c1.263,0,1.362,1.847,1.362,2.43a14.864,14.864,0,0,1-.1,2.82m.2-8.169a11.217,11.217,0,0,1-1.265-.972V92.649c.583.292,1.265.973,1.265,1.458Zm.2-9.628a2.672,2.672,0,0,1-1.265-1.654V80.3a5.005,5.005,0,0,1,1.265.875ZM22.124,68.724V67.46h.682c.388,0,.583.388.875.68v1.07c-.583-.2-1.07-.292-1.557-.487M-32.183,55.789c0-.255.017-.505.02-.758l9.8.173c-.205.185-.183.4-.11.7l.018.073c.057.217.125.487.023.58-.068.062-.225.048-.453-.037-.268-.1-.41-.145-.5-.17s-.1-.03-.152-.088c-.023-.027-.06-.065-.118-.123-.087-.065-.153-.12-.208-.165-.2-.16-.272-.218-.523-.135a.824.824,0,0,0-.187.083c-.073.04-.075.04-.252-.077a1.656,1.656,0,0,0-1.217-.273.384.384,0,0,0-.23.31,1.044,1.044,0,0,0,.13.7l-6.021.072c-.005-.287-.025-.57-.025-.858m7.011,8.219a.16.16,0,0,0,.145.043c.172-.042.288-.375.462-.918.08-.255.215-.682.29-.7,0,0,.022.008.052.082a4.25,4.25,0,0,1-.087,2.069l-.908.09-.992-.99Zm-.12,3.874,1.032-1.593a1,1,0,0,1,.23.588c0,.338.738.9,1.058,1.122a6.417,6.417,0,0,1-2.33-.093c0-.005.008-.02.01-.023m-3.629-3.092a3.027,3.027,0,0,1,.77-.087c.467,0,.937.082,1.045.265.047.08.008.185-.117.31a2.93,2.93,0,0,1-.777.378c-.378.142-.705.267-.787.5-.055.02-.107.043-.155.063-.08.035-.17.075-.2.057s-.037-.038-.037-.173a2.92,2.92,0,0,0-.065-.558c-.072-.392-.113-.627.317-.75m6.079,3.747c.027-.035.092-.048.228-.048.117,0,.118.013.13.087.025.158.087.327.525.49l.177.088.177.392a2.981,2.981,0,0,1-1.137-.342c-.105-.365-.153-.593-.1-.667m1.53-.665a.283.283,0,0,1-.02.055.088.088,0,0,1,0-.06h0a.028.028,0,0,1,.015.005m.662-8.321,1.25,1.093a8.646,8.646,0,0,1-1.9,1.022l-.015,0c.005-.027.045-.123.3-.4a2.121,2.121,0,0,0,.365-1.719m6.759,6.016-.013.01a.594.594,0,0,0-.023.65v0c-.1-.048-.283-.157-.492-.278a1.93,1.93,0,0,1-.237-.143c-.045-.028-.088-.058-.14-.088a4.864,4.864,0,0,0,.558-.247l.018-.01a2.06,2.06,0,0,1,.75-.372,1.157,1.157,0,0,1-.422.475m-.717,4.09c-.028-.325-.072-.813-.073-1.4A2.415,2.415,0,0,1-14.228,68l1.493-.653a.884.884,0,0,1,0,.162.508.508,0,0,0,.09.407.875.875,0,0,0,.613.185,3.478,3.478,0,0,1-.987.633c-.035.017-.063.03-.092.045a7.478,7.478,0,0,0-1.065,1.2c-.075.1-.147.187-.213.268a.792.792,0,0,1-.2.2,1.2,1.2,0,0,1,0-.252c0-.067.007-.137.007-.207s-.01-.177-.025-.332m1.428-2.35-.022,0c-.332.133-.5.065-.548.028a.113.113,0,0,1-.057-.075v-.133l-.192.192-.01.015a3.37,3.37,0,0,1-.778.7l-.085-.91c.405,0,.653-.012.838-.018a2.854,2.854,0,0,1,1.015.108.286.286,0,0,1-.162.09m1.053-13.021c-.065.078-.078.093-.4.288a.927.927,0,0,0-.367.352,1.5,1.5,0,0,1,.057-.77l0-.02a.687.687,0,0,1,.162-.332l.037.008a.2.2,0,0,0,.255-.092.252.252,0,0,0,.147.025,2.3,2.3,0,0,0,.243.385c-.07.073-.108.12-.137.155m-6.481,15.8c.2.177.335.3.488.3a.223.223,0,0,0,.033,0c.218-.025.432-.282.963-1.042a10.948,10.948,0,0,1,.843-1.152c.12-.143.157-.187.133-.242s-.072-.057-.158-.067a1.944,1.944,0,0,1-.645-.177,2.681,2.681,0,0,1-1.005-1.228c-.177-.335-.315-.6-.5-.65a.25.25,0,0,0-.2.033c-.068.04-.152.093-.238.15a2.736,2.736,0,0,1-.7.372c-.007-.017-.017-.128.425-.732a10.686,10.686,0,0,0,.682-1,1.781,1.781,0,0,1,.305-.423.247.247,0,0,0,.1.092.692.692,0,0,1,.082.058.462.462,0,0,0,.053.145.311.311,0,0,1,.042.122l.005.02a3.015,3.015,0,0,1,.11,1.172c-.013.408-.023.732.16.833.138.077.35,0,.687-.228a3.45,3.45,0,0,1,.57-.293l.058-.027a.837.837,0,0,0-.133.64.309.309,0,0,0,.2.162,1.162,1.162,0,0,0,.1.555q.14.568.283,1.132a.878.878,0,0,0-.3.6,3.877,3.877,0,0,1-.272.857,4.654,4.654,0,0,0-.3,2.015c0,.087.005.168.005.242,0,.553-.007.82-.14.82a3.736,3.736,0,0,1-1.312-1.137,1.225,1.225,0,0,0-.113-.187c-.088-.123-.122-.17-.27-1.352-.02-.157-.04-.292-.062-.407a.178.178,0,0,1,.027.023m1.975-11.016a.6.6,0,0,1-.488.337.594.594,0,0,1-.487-.337,1.744,1.744,0,0,1-.167-.427,1.145,1.145,0,0,0-.79-.912l.352-.142a1.412,1.412,0,0,1,1.5.1c.64.457.382.887.083,1.385m.393,12.1c.017-.068.04-.173.07-.3a11.6,11.6,0,0,1,.548-1.915,3.14,3.14,0,0,1,.245,1.035l.005.025c.2.392.168.437-.015.728a5.282,5.282,0,0,0-.277.488,12.23,12.23,0,0,0-.517,1.4,6.2,6.2,0,0,1-.06-1.465m.963-2.21a1.619,1.619,0,0,0-.08-.233.809.809,0,0,1,.367-.3c-.008.518-.093.748-.148.77-.008.008-.038-.015-.048-.025a.52.52,0,0,1-.09-.213m.192-.845-.377.3V68.4l-.025.025c-.057-.248-.115-.56-.172-.862-.027-.145-.055-.292-.082-.432h.655Zm2.875-14.465Zm1.533,1.834c0-.03-.008-.058-.013-.087l.12.058.063.015c.213.053.5.125.522.217.008.037-.035.093-.125.162a.542.542,0,0,1-.573.105,1.021,1.021,0,0,0,.007-.47m2.08,6.871c.012-.17.025-.363.038-.582.132-.018.247-.038.348-.055a.817.817,0,0,1,1.018.337c.227.228.705.21,1.088.2a1.99,1.99,0,0,1,.425.01,5.177,5.177,0,0,0-2.62.958,1.079,1.079,0,0,1-.292.168.012.012,0,0,1-.008,0,2.994,2.994,0,0,1,0-1.03m-.64,5.691a1.931,1.931,0,0,1,.327-.958l.122.243a.139.139,0,0,0-.073.115,3.447,3.447,0,0,0-.247.585c-.03.082-.065.178-.09.233a1.708,1.708,0,0,1-.038-.218m1.8-1c.088.1.135.15.205.135s.092-.1.128-.288a1.683,1.683,0,0,0,.08-.215c.007-.023.017-.053.027-.078a.533.533,0,0,0,.017.065,1.09,1.09,0,0,1,.06.313c.017.13.03.25.042.363.062.558.105.933.347,1.117v.175a4.4,4.4,0,0,1,.073.582c-.028-.022-.07-.062-.107-.1a1.988,1.988,0,0,0-.47-.35.788.788,0,0,1-.42-.392,1.17,1.17,0,0,0-.427-.465c-.017-.11-.122-.212-.313-.307a1.213,1.213,0,0,1-.275-.288c-.1-.125-.192-.243-.312-.22l-.155-.31a.815.815,0,0,1,.418-.247.562.562,0,0,0,.147-.025c.125-.035.253-.068.6.207a2.726,2.726,0,0,1,.338.323m2.1-10.809a1.846,1.846,0,0,1,.342-.687H-4.8l.013-.008.082-.057c.223-.16.335-.243.918.342a.985.985,0,0,0,1.018.21c.023,0,.033.02.035.117l-.082.08a1.478,1.478,0,0,0-.152.2,1.348,1.348,0,0,1-.14.188.306.306,0,0,1-.252.08l-.018,0a.953.953,0,0,1-.477.02,2.392,2.392,0,0,0-.26-.023,1.246,1.246,0,0,0-.9-.388,1.448,1.448,0,0,1-.318-.078m.557,12.81c.11-.147.207-.3.3-.437.11-.167.217-.328.333-.472A3.54,3.54,0,0,0-4.1,69.7c-.16.967-.348,1.4-.43,1.4a1.162,1.162,0,0,1-.332-.443.931.931,0,0,1,.093-.357,2.549,2.549,0,0,1,.3-.567c.068-.105.107-.163.077-.22s-.127-.067-.425-.067a2.818,2.818,0,0,0-.445.048,2.662,2.662,0,0,1-.4.048l-.085-.17a1.6,1.6,0,0,0-.12-.157c-.07-.078-.088-.1-.142-.455.047.043.1.09.145.138a1.07,1.07,0,0,0,.65.4h.022a.6.6,0,0,0,.415-.252m3.4-6.574a1.107,1.107,0,0,1,.73-.135.234.234,0,0,1,.143.078v.123a4.545,4.545,0,0,1-.873-.067m.987.56c.025-.007.05-.015.077-.025a.9.9,0,0,1,.328-.065.376.376,0,0,0,.035.04.929.929,0,0,0,.482.325,2.884,2.884,0,0,1-.678.672.359.359,0,0,1-.053-.232c-.037-.148-.073-.267-.105-.372a1.593,1.593,0,0,1-.085-.343m1.367.437a6.3,6.3,0,0,0,.268-.625H1.29a2.058,2.058,0,0,0,.838.15,4.971,4.971,0,0,1,1.2.192c-.292.172-.642.333-.953.477a3.17,3.17,0,0,0-.975.557Zm2.232-3.785.477-.13a.355.355,0,0,0,.058.133c-.1-.005-.2-.008-.3-.008-.082,0-.163,0-.24,0M4.384,52.41l-.008,0c-.21-.073-.4-.135-.57.013a2.305,2.305,0,0,1,.18-.692A7.859,7.859,0,0,1,4.8,50.647Zm.322,13.2.052.207.01.052c.038.212.067.373.078.458-.012-.008-.022-.02-.033-.03a1.917,1.917,0,0,0-.387-.305,1.045,1.045,0,0,0,.28-.382m-.157-5.526c.118.032.242.06.363.09.458.108.93.222,1,.423a3.393,3.393,0,0,0-.69.135l-.188.048a2.136,2.136,0,0,0-.487-.7m3.334-3.557c-.17.1-.3.188-.408.262-.13.088-.235.163-.278.148-.02-.008-.035-.048-.05-.092V55.129a1.087,1.087,0,0,1,.452.217.827.827,0,0,1,.285,1.182M6.8,66.052a2.075,2.075,0,0,1-.283-.9l.01-.018,0-.02a.847.847,0,0,1-.03-.245c0-.137-.018-.172-.277-.363l-.058-.06c.105-.123.273-.377.455-.648l.027-.04-.263-.242c.345.235.632.378.8.32a.191.191,0,0,0,.123-.155c.018-.083.032-.162.043-.228a.037.037,0,0,0,0-.013c.017.117.03.252.04.328,0,.18.33.345.712.535.263.132.622.312.648.423a7.479,7.479,0,0,1-.637.772,5.047,5.047,0,0,0-.9,1.18,2.348,2.348,0,0,1-.39-.583l.008-.033Zm-.588.583c-.008-.19-.017-.388.09-.473a.46.46,0,0,1,.393-.023A7.187,7.187,0,0,0,6.647,67a5.889,5.889,0,0,1-.073,1.072c-.07-.12-.245-.567-.42-1.018a.656.656,0,0,0,.055-.415M10.293,53.46l.24.048a.767.767,0,0,1,.308.363ZM10.92,54l.7.523-.767.46A1.765,1.765,0,0,0,10.92,54m1.618,7.434a1.391,1.391,0,0,1-.007.143,2.973,2.973,0,0,1-.14-.305c.09.035.147.075.147.162m.025-.727-.123.083s0,0,.005-.007l.007-.013c.07-.212-.188-.33-.438-.445a1.588,1.588,0,0,1-.39-.222,4.076,4.076,0,0,1,1.028-.187,1.3,1.3,0,0,0,.21.165c.093.063.173.118.173.177,0,.09-.155.237-.472.448m-.872,2.214a1.791,1.791,0,0,1,.6-.167,1.71,1.71,0,0,1,.22.9.381.381,0,0,1-.07.21l-.022.02a6.78,6.78,0,0,0-.517-.7c-.082-.1-.172-.212-.208-.265m2.047-9.038.333-1.163.663,1.08Zm2.082,4.192a.762.762,0,0,0-.655-.023,4.079,4.079,0,0,1-.537.118c-.12.015-.192,0-.222-.048-.082-.132.115-.508.263-.725l1.782-.563.622,1.422c-.238-.027-.868-.105-1.253-.18m.907,5.5a1.507,1.507,0,0,1-1.18-.14.618.618,0,0,0-.368-.178.368.368,0,0,0-.06.007c-.008-.032-.022-.1-.04-.188a.919.919,0,0,1-.03-.245c0-.137-.02-.172-.292-.375a.836.836,0,0,1-.3-.3c-.068-.1-.127-.187-.217-.187h0c-.075,0-.147.067-.235.217a3.214,3.214,0,0,0-.255.6c-.03.083-.065.18-.09.235a1.774,1.774,0,0,1-.038-.225,1.448,1.448,0,0,1,.4-1.075.945.945,0,0,1,.423-.322.774.774,0,0,0,.222-.055c.147-.048.33-.11.423-.042a.281.281,0,0,1,.078.237c0,.532.083.8.253.815.2.02.388-.348.442-.612.015-.1.028-.182.04-.257,0-.017.005-.035.007-.053.015.113.03.242.038.312.053.24.085.458.112.65.072.5.123.867.507.947a2.57,2.57,0,0,1,.305.205.074.074,0,0,0,.018.013l-.158.022m-41.968-6.516Zm.877,1.167a1.6,1.6,0,0,0,.552.348c.06.025.125.052.212.093l.065.017c.212.052.5.123.522.217.007.037-.037.093-.12.155a.971.971,0,0,1-.693.157,1.65,1.65,0,0,0-.452.028.646.646,0,0,0-.472.4c-.01.017-.017.025-.025.04l-.1.008A.99.99,0,0,0-25,58.768a2.318,2.318,0,0,0-.585-.488Zm-3.115,1.992a.192.192,0,0,1-.093-.087l.278-.023c-.072.073-.138.12-.185.11m-.488,1.3c.112-.113.192-.2.3-.2h0a.616.616,0,0,1,.325.162l-.667.082Zm.835.153c.035.032.065.06.1.1a1.148,1.148,0,0,0,1.223.215l.007,0c-.058.07-.155.178-.262.3a1.917,1.917,0,0,0-.462,1.233c0,.02,0,.043,0,.063l-.228-.228-.117-.133c-.608-.7-.913-1.052-1.492-.857a.716.716,0,0,1-.607-.3c-.05-.05-.1-.1-.153-.14Zm6.357,7.817a.048.048,0,0,0,.042,0c.048-.012.047-.057.045-.108,0-.083-.007-.258.1-.33.077-.055.208-.05.39.018a5.414,5.414,0,0,1,1.055.575c.037.253.128.855.272,1.717a3.564,3.564,0,0,1,.07.617,1.531,1.531,0,0,1-.152-.132,3.176,3.176,0,0,0-.417-.345c-.285-.192-.3-.252-.305-.315-.015-.093-.043-.18-.277-.367a1.666,1.666,0,0,0-.78-.3,1.592,1.592,0,0,0-.483-.385l-.21-.468a1.131,1.131,0,0,0,.655-.182m-5.211-12.7a1.05,1.05,0,0,0,.533.322.3.3,0,0,0,.19.042,3.45,3.45,0,0,0,.37.525c.123.138.227.248.32.343l-3.032.145a.16.16,0,0,0-.15-.005s0,.01-.007.012l-4.35.207c-.023-.5-.032-1.01-.042-1.517Zm-1.835,1.6c0,.008,0,.012,0,.02a.321.321,0,0,0,.02.268c.052.067.142.073.255.08a1.167,1.167,0,0,1,.622.193c.173.125.262.238.268.348.012.157-.147.308-.315.467-.035.035-.067.073-.1.11l-.583.05a1.977,1.977,0,0,1-.057-.253,1.038,1.038,0,0,1-.023-.227c0-.112-.038-.123-.14-.127a2.74,2.74,0,0,1-.567-.08,4.323,4.323,0,0,1-.932-.272c-.49-.182-.957-.353-1.2-.183a.464.464,0,0,0-.165.413,1.752,1.752,0,0,0,.258.973l-1.493.128c-.047-.567-.1-1.133-.128-1.705Zm-2.5,1.98a1.135,1.135,0,0,0,.805.343c.282,0,.573.278.832.525a1.427,1.427,0,0,0,.475.35l-2.124.26c-.08-.023-.16-.05-.232-.073-.278-.093-.44-.143-.538-.093a.343.343,0,0,0-.122.277l-.6.073c-.058-.5-.093-1.013-.137-1.52Zm-.907,1.8c0,.048,0,.1.007.148.013.213.028.455-.058.522-.032.025-.087.025-.173,0a1.15,1.15,0,0,0-.257-.018c-.025-.2-.058-.387-.082-.58Zm15.9,12.185a2.865,2.865,0,0,1-.128-1.33,1.539,1.539,0,0,0,.088-.43c.012-.172.018-.25.39-.622l.177-.215c.655-.793,2.4-2.9,2.905-3.074a5.08,5.08,0,0,1,1.057-.192l.217-.1a1.152,1.152,0,0,1,.018.185h-.37l.422.422c-.008.033-.017.067-.025.1-.053.2-.09.338-.017.39s.143-.01.175-.032a1.245,1.245,0,0,0,.255-.245c.013-.017.028-.033.042-.048a1.473,1.473,0,0,1,0,.152c0,.078,0,.167,0,.253-.012.418-.013.678.118.727.1.038.2-.072.282-.172.093-.14.118-.235.078-.3s-.148-.072-.235-.065c.032-.025.077-.06.142-.105a1.373,1.373,0,0,0,.475-.62c.01.042.023.1.037.153l.082.337a2.913,2.913,0,0,1,.073,1.152c-.013.128-.022.2.032.235s.125,0,.267-.085a3.294,3.294,0,0,0,.348-.2c.092-.058.093-.057.237-.025.042.008.092.02.168.033.208,0,.218.013.233.033.05.067.133.178,1.02.355l.168.033c.847.17,1.07.215,1.17.115.048-.052.048-.123.03-.223a1.557,1.557,0,0,1,.435,1.373c-.027.193-.048.34-.067.453a2.627,2.627,0,0,0-.05.693c.007.188.018.5.02,1.15L-15.19,76.516c0-.107.005-.212.008-.31.007-.368.013-.687.013-.868a4.569,4.569,0,0,0-.167-.987M-3.01,73c0-.258-.028-.625-.057-1.013A9.627,9.627,0,0,1-3.11,70.3a1.488,1.488,0,0,0,.083-.5c.005-.187.008-.308.3-.66a6.486,6.486,0,0,1,.472-.575c.153-.175.327-.373.5-.588l.012-.015v-.018c0-.025.01-.035.033-.058a.191.191,0,0,0,.063-.113A9.032,9.032,0,0,1,.355,65.86a5.667,5.667,0,0,1,.982-.19l.02.057.107-.017v-.153H1.417l-.273-.815-.063.05a5.152,5.152,0,0,0-.782.782,3.958,3.958,0,0,1-.838.533c-.162.087-.313.168-.41.233a5.085,5.085,0,0,0-.938,1.018,2.29,2.29,0,0,0-.5-.577c-.048-.043-.093-.083-.135-.123v-.7h.14a.68.68,0,0,1,.35.178l.015.01c.252.127.7.313.86.145.092-.1.068-.278-.075-.553a.865.865,0,0,0,.272-.163.727.727,0,0,1,.158-.108,1.445,1.445,0,0,0,.705-.79l.177-.09a2.565,2.565,0,0,0,.747-.9l.432.863a1.061,1.061,0,0,1-.012.177c-.01.075,0,.087.053.168.03.047.082.12.162.257a.95.95,0,0,1,.185.6H1.275l.387.387h0c-.122.4-.12.492-.06.53s.117-.025.128-.038a1.216,1.216,0,0,0,.257-.245.579.579,0,0,1,.042-.048c0,.03.005.08.007.162a1.06,1.06,0,0,0,.777.707.63.63,0,0,0,.682-.2,1.988,1.988,0,0,0,.24-.348c.04-.075.053-.1.308-.3l.15.075a1.75,1.75,0,0,0,.677.422.268.268,0,0,1,.18.135c0,.112-.007.2-.01.27-.01.143-.013.208.042.242s.105,0,.207-.065c.083.1.173.185.27.28A1.713,1.713,0,0,1,6.216,69.3a5.341,5.341,0,0,0-.115,1.38c.007.245.018.615.018,1.252l-.018.408c0,.062-.005.112-.008.172L-2.97,74.216c-.025-.49-.04-.943-.04-1.212M28.543,32.253c-1.167-1.654-2.237-3.5-3.307-5.252l9.046,1.654c-1.945.583-3.5,2.139-5.739,3.6m6.127-2.335h.973c-1.945,2.529-3.21,4.28-4.669,6.517-.682-1.168-1.167-1.557-1.75-2.724a11.188,11.188,0,0,1,5.446-3.794M9.383,28.655c3.307-.682,6.809-1.167,10.116-1.945-1.265,1.75-2.627,3.6-3.794,5.252a17.9,17.9,0,0,0-6.322-3.307m5.544,4.474a22.837,22.837,0,0,1-1.654,3.5c-1.167-2.43-1.945-4.375-4.182-6.516a11.278,11.278,0,0,1,5.836,3.015m7.294-6.517c2.14,0,4.767,5.544,5.351,6.614a73.241,73.241,0,0,0-5.447,5.836c-1.458-2.237-3.307-3.89-5.252-6.127.2-.487,3.21-6.322,5.349-6.322M26.014,19.8c0,1.557-.583,2.724-1.654,2.724-1.263,0-1.555-1.46-1.555-2.432,0-1.557.485-2.724,1.652-2.724,1.265,0,1.557,1.458,1.557,2.432m2.625-2.432c1.265,0,1.557,1.458,1.557,2.432,0,1.557-.583,2.724-1.653,2.724-1.263,0-1.555-1.46-1.555-2.432,0-1.557.485-2.724,1.652-2.724m2.345-7.687,1.453-7.439q.86.163,1.712.352l-2.087,8.7c-.35-.545-.707-1.087-1.078-1.613m-.173-.23c-.4-.552-.8-1.093-1.218-1.618l1.015-5.919c.545.083,1.082.19,1.62.29Zm-1.4-1.83c-.43-.532-.868-1.05-1.32-1.547l.582-4.407c.577.068,1.152.135,1.722.22ZM27.906,5.881c-.468-.507-.947-1-1.437-1.46l.28-2.937c.575.047,1.147.1,1.717.16ZM26.274,4.244c-.452-.42-.908-.825-1.375-1.205l.115-1.682c.512.025,1.017.072,1.523.11ZM24.7,2.885a21.348,21.348,0,0,0-2.3-1.6c.805,0,1.605.025,2.4.06Zm-5.642.238-.1-1.722c.787-.048,1.578-.075,2.374-.088q-1.16.84-2.27,1.81m-.2.172c-.45.4-.892.817-1.327,1.243l-.222-3.01c.477-.045.955-.078,1.435-.11ZM17.328,4.73q-.7.693-1.363,1.427l-.572-4.414c.565-.072,1.13-.145,1.7-.2Zm-1.552,1.63q-.685.763-1.333,1.562L13.551,2c.54-.088,1.085-.162,1.63-.233ZM14.262,8.139c-.425.527-.833,1.065-1.233,1.612l-1.41-7.4c.572-.113,1.147-.212,1.725-.308ZM12.855,9.981c-.388.535-.76,1.08-1.123,1.63L9.7,2.779c.567-.135,1.133-.275,1.707-.392Zm-1.285,1.87c-.335.515-.652,1.033-.962,1.555L7.891,3.24q.8-.218,1.6-.413ZM21.929,2.979V24.666L7.244,27.681V25.639c0-5.057,8.849-20.715,14.685-22.661M16.093,44.313c-.68.1-1.555.68-2.237.68-.583,0-1.167-.583-2.917-.68.778-.1,2.042-.682,2.724-.682a5.72,5.72,0,0,1,2.43.682m9.921,3.7a11.29,11.29,0,0,1-3.112.973,10.643,10.643,0,0,1-3.89-.973,13.187,13.187,0,0,1,3.5-.875,16.576,16.576,0,0,1,3.5.875m7.976-3.4c-.682.1-1.46.68-2.14.68-.487,0-1.654-.485-3.21-.68a8.367,8.367,0,0,1,2.53-.973,9.791,9.791,0,0,1,2.82.973M72.012,61.471l1.372.15a4.576,4.576,0,0,0-.665.713c-.11.133-.227.275-.352.417l-.232.232c0-.02,0-.043,0-.063a1.918,1.918,0,0,0-.463-1.235c-.1-.11-.187-.207-.243-.277l.073.008a1.463,1.463,0,0,0,.513.055M68.949,64.4a4.275,4.275,0,0,1-.088-2.074.286.286,0,0,1,.057-.108,2.108,2.108,0,0,1,.235.63c.132.46.267.937.478,1a.189.189,0,0,0,.175-.035l1.058-.327-1.007,1.09Zm.045,1.8.933,1.587,0,0c.023.03.017.045.013.053-.088.185-1.063.3-1.722.34a4.853,4.853,0,0,0,.543-1.4.977.977,0,0,1,.228-.585m-30.441.523c.018-.023.033-.042.2-.077h.1c-.065.113-.13.235-.2.353-.168.313-.378.7-.483.7a1.55,1.55,0,0,1-.323-.685c.6-.165.655-.237.7-.3m-1.007-3.53c.008-.08.025-.218.04-.335,0,0,0,.01,0,.015.012.067.025.143.043.228.038.2.062.282.13.3s.107-.043.183-.148a2.853,2.853,0,0,1,.218-.267l.157.235c.193.292.353.53.455.648l-.053.055c-.263.2-.282.232-.282.368a.935.935,0,0,1-.032.245,1.1,1.1,0,0,1-.67.7,3.953,3.953,0,0,0-.29-1.282,2.13,2.13,0,0,1,.1-.762m1.987-8.218a2.826,2.826,0,0,1-1.233.19.088.088,0,0,0-.093-.01,1.859,1.859,0,0,0-.478,1.312c-.027.167-.065.262-.108.28-.065.027-.208-.078-.39-.21-.082-.058-.173-.127-.278-.2a.829.829,0,0,1,.283-1.183c.49-.407,1.95-.317,2.432-.287a.5.5,0,0,1,.052,0,.742.742,0,0,1-.185.1m.917,5.269c-.055.043-.2.138-.36.238a5.439,5.439,0,0,0-.975.7.537.537,0,0,1-.305-.068,3.44,3.44,0,0,0-.345-.825,4.2,4.2,0,0,1-.332-.763l1.947-.742c.113.393.348,1.253.37,1.457m-.42-9.879a4.212,4.212,0,0,1,.72,1.078,2.277,2.277,0,0,1,.18.705.338.338,0,0,0-.157-.032,1.257,1.257,0,0,0-.152.012c-.05.005-.108.01-.168.012ZM39.967,65.38l.073-.307a1.864,1.864,0,0,0,.278.427,1.927,1.927,0,0,0-.4.31l-.032.032c.008-.087.038-.248.077-.462m-4.614-8.691c-.053.18-.108.4-.165.622-.218.865-.512,2.034-1.007,2.034a.409.409,0,0,1-.045,0,.5.5,0,0,0-.035-.1A.576.576,0,0,1,34.045,59a10.179,10.179,0,0,1,1.308-2.31m-2.669,4.245c-.137-.085-.307-.192-.513-.328-.262-.175-.252-.233-.25-.233.012-.05.288-.075.437-.088a1.266,1.266,0,0,0,.7-.177.534.534,0,0,1,.077-.07,2.124,2.124,0,0,0,.175.793c.015.047.032.09.045.13l.007.013c.173.26.092.433-.087.793a1.019,1.019,0,0,1-.007-.143c0-.328-.135-.412-.582-.69m.137,1.76Zm-2.4-4.674c-.03.048-.105.065-.22.047a3.894,3.894,0,0,1-.538-.117.762.762,0,0,0-.65.02,7.83,7.83,0,0,0-1.253.172l.617-1.41,1.782.563c.148.217.345.592.263.725m.67-4.337-1-.082.663-1.082Zm2.019,9.3Zm16.753,1.077c.018-.193.032-.407.032-.59V63.3l1.905-1.51-1.882,2.292c-.018-.007-.037-.015-.055-.023m.3,5.446a6.257,6.257,0,0,1-.667-.96c-.02-.033-.04-.065-.06-.1.02,0,.042,0,.063,0,.435,0,.993-.49,1.365-.818l.15-.13a1.722,1.722,0,0,1-.623.788,1.6,1.6,0,0,0-.307.3l-.012.017ZM48.02,65.632c.145.3.33.792.5,1.24.088.233.175.462.257.667a.19.19,0,0,0-.1-.037.29.29,0,0,0-.272.123c-.138.24.167.768.488,1.328.112.2.23.4.318.573a1.014,1.014,0,0,1,.092.448c-.037.063-.083.055-.2,0a.347.347,0,0,0-.128-.042h0a6.452,6.452,0,0,1-.923-2.279c0-.133.005-.29.012-.462a9.06,9.06,0,0,0-.042-1.562m1.248-2.007c-.1-.078-.192-.16-.288-.237a2.359,2.359,0,0,0,.075-1.042c-.005-.172-.01-.38-.005-.538.085.458.285,1.337.44,2-.072-.057-.147-.118-.222-.18m.677-7.542c-.135.042-.22.067-.247.138a1.252,1.252,0,0,0-.852.388,2.392,2.392,0,0,0-.26.023.954.954,0,0,1-.477-.02l-.018,0a.326.326,0,0,1-.122-.043.447.447,0,0,0-.145-.053,1.527,1.527,0,0,1-.123-.168,1.291,1.291,0,0,0-.155-.205l-.08-.082a.3.3,0,0,1,.058-.205.974.974,0,0,0,1-.218c.578-.58.693-.5.918-.342l.082.057.013.008h.182a3.547,3.547,0,0,1,.278.548c.022.05.043.1.063.142l-.112.035m2.874,11.436c-.2.2.155,1.263.263,1.572-.238.132-.4-.04-.587-.237a.794.794,0,0,0-.523-.33.471.471,0,0,0-.208.053,1.954,1.954,0,0,0-.47.35c-.037.035-.078.073-.107.1a4.349,4.349,0,0,1,.072-.58l.005-.028-.073-.073c.218-.19.258-.557.318-1.09.012-.115.027-.237.043-.373a1.137,1.137,0,0,1,.058-.307c.007-.023.013-.045.018-.065.01.025.018.055.027.078a1.282,1.282,0,0,0,.08.213c.037.187.062.27.128.29s.117-.038.205-.135a2.5,2.5,0,0,1,.338-.323c.347-.277.472-.242.6-.208a.5.5,0,0,0,.145.025.8.8,0,0,1,.418.248L53.414,67c-.132-.023-.217.1-.312.222a1.271,1.271,0,0,1-.283.3m.7-.288.122-.242a1.908,1.908,0,0,1,.327.952,1.837,1.837,0,0,1-.038.225c-.027-.055-.06-.153-.09-.237a3.557,3.557,0,0,0-.247-.582.145.145,0,0,0-.073-.117m-8.488-3.954c-.032.107-.07.227-.108.39a.291.291,0,0,1-.043.122c-.01.02-.022.042-.03.063-.078-.075-.157-.145-.232-.212a2.922,2.922,0,0,1-.423-.427.95.95,0,0,0,.48-.323l.035-.043a.935.935,0,0,1,.328.065.511.511,0,0,0,.077.025,1.632,1.632,0,0,1-.083.34m-.175,1.315.17.085a1,1,0,0,0,.5.635,1.316,1.316,0,0,1,.19.145l.015.012a.76.76,0,0,1,.16.108.868.868,0,0,0,.277.165c-.118.283-.128.467-.032.558.153.148.515,0,.812-.152a1.347,1.347,0,0,0,.387-.287h.117v.7c-.042.04-.087.08-.133.122a2.24,2.24,0,0,0-.5.578,5.011,5.011,0,0,0-.933-1.015c-.1-.07-.255-.15-.417-.237a4.05,4.05,0,0,1-.833-.528,2.652,2.652,0,0,0-.92-.565.39.39,0,0,1,.078-.017c.117-.017.17-.057.172-.25a2.71,2.71,0,0,0,.19-.863c.253.465.492.735.7.805m-1.41-.5c-.072-.165-.272-.285-.638-.5-.1-.062-.215-.128-.342-.208a2.793,2.793,0,0,0,.988-.63h.037l.112.147c.072.137.167.327.242.477Zm11.6-3.415a.942.942,0,0,1,.353-.455h.428l.173.792a2.685,2.685,0,0,0-.993,2.432l-.725-2.1.75-.657Zm.368-4.919a.537.537,0,0,1-.58-.11c-.083-.063-.127-.12-.12-.155.02-.093.31-.165.522-.217l.077-.02.108-.055c-.005.028-.008.057-.013.087a1.021,1.021,0,0,0,.007.47m3.735,10c-.207.122-.392.228-.49.277l0,0a.6.6,0,0,0-.023-.65l-.01-.013-.015,0a.7.7,0,0,1-.443-.472,1.917,1.917,0,0,1,.788.38,5.293,5.293,0,0,0,.6.262,3.339,3.339,0,0,1-.4.223m7.9,2.867a.441.441,0,0,1-.285.238h-.038l-.013.035a3.434,3.434,0,0,1-.765.888,4.772,4.772,0,0,0-.673.73.38.38,0,0,0-.3.122,4.036,4.036,0,0,1-.207-1.188c-.028-.277-.052-.492-.075-.653l.052-.02a14.743,14.743,0,0,1,1.822-.508l.283-.067c.178.155.247.3.2.423m-3.634,2.734a9.109,9.109,0,0,1,1.033-2.454c.022.2.062.473.115.84a7.284,7.284,0,0,1,.113.987,1.12,1.12,0,0,0-.337.4c-.063.118-.115.212-.422.365a2.023,2.023,0,0,0-.47.35,1.183,1.183,0,0,1-.105.093,4.09,4.09,0,0,1,.072-.58m-3.332-2.72a1.814,1.814,0,0,0-.075.22.5.5,0,0,1-.1.223c-.033.05-.052.053-.05.053-.045-.013-.13-.272-.14-.8a1.7,1.7,0,0,1,.363.307m-.032,1.837c.035-.058.085-.14.148-.268l0-.023a9.12,9.12,0,0,1,.07-1.287,12.454,12.454,0,0,1,.53,1.874c.028.127.052.232.07.3a6.307,6.307,0,0,1-.062,1.467,11.957,11.957,0,0,0-.515-1.405c-.107-.21-.183-.337-.233-.42-.08-.128-.08-.128-.013-.235m.2-1.877a0,0,0,0,1,0,0h0Zm0-.878c-.038.217-.078.435-.117.638l-.033-.017v.072l-.375-.3v-.987h.138l.018,0a1.715,1.715,0,0,1,.5-.093c-.043.218-.085.455-.13.69M59.519,70.1a1.216,1.216,0,0,1,0,.253.8.8,0,0,1-.2-.2c-.07-.085-.143-.18-.222-.28a7.391,7.391,0,0,0-1.057-1.19l-.017-.008A2.924,2.924,0,0,1,56.769,68c.768-.028.777-.35.785-.612a1.232,1.232,0,0,1,.01-.142l1.493.653.552.277c0,.64-.055,1.233-.08,1.52-.01.1-.017.172-.017.2,0,.072,0,.142.007.207m.092-2.165a3.273,3.273,0,0,1-.772-.692l-.2-.205v.133a.113.113,0,0,1-.057.075c-.055.035-.215.1-.548-.03l-.02,0a.281.281,0,0,1-.162-.09,2.081,2.081,0,0,1,.858-.108c.18.007.448.017.9.017ZM57.528,54.821a.947.947,0,0,0-.362-.343c-.323-.2-.337-.21-.4-.288a1.711,1.711,0,0,0-.138-.155,2.273,2.273,0,0,0,.245-.387.284.284,0,0,0,.182-.04h.255a.688.688,0,0,1,.163.333l0,.022a1.736,1.736,0,0,1,.053.858M61.445,72.8a2,2,0,0,0,.125-.673,6.081,6.081,0,0,0-.4-2.357c-.357-.8-.478-.965-.785-1.205l.032-.062-.1-.048c.09-.36.18-.72.267-1.07a1.193,1.193,0,0,0,.1-.562.487.487,0,0,0,.408-.308.591.591,0,0,0-.085-.468,3.307,3.307,0,0,1,.563.29c.335.233.548.305.687.228.185-.1.173-.423.16-.833a3.007,3.007,0,0,1,.112-1.17l0-.022a.285.285,0,0,1,.043-.12.507.507,0,0,0,.053-.145.46.46,0,0,1,.08-.058.241.241,0,0,0,.1-.092,1.812,1.812,0,0,1,.305.425,10.543,10.543,0,0,0,.68,1c.443.605.433.718.43.73a.042.042,0,0,1-.017,0,2.928,2.928,0,0,1-.685-.37c-.088-.057-.17-.11-.238-.15a.255.255,0,0,0-.205-.035c-.182.052-.322.317-.5.652a2.68,2.68,0,0,1-1,1.227,1.987,1.987,0,0,1-.647.178c-.088.01-.14.015-.16.065s.013.1.133.243a10.506,10.506,0,0,1,.845,1.152c.505.72.72.945.922.958.168.012.29-.122.478-.325.063-.07.135-.147.218-.228a5.652,5.652,0,0,0-.263.713,4.84,4.84,0,0,0-.312,1.372.5.5,0,0,1-.075.273,2.979,2.979,0,0,1-1.312.942H61.4a.675.675,0,0,1,.04-.145M63.3,57.633a1.329,1.329,0,0,0-.2.1l-1.722-.093c.025-.02.043-.04.07-.06a1.135,1.135,0,0,1,.755-.273,1.706,1.706,0,0,1,.745.185Zm-.47.3a1.362,1.362,0,0,0-.32.61,1.813,1.813,0,0,1-.167.427.52.52,0,0,1-.975,0c-.24-.4-.447-.76-.182-1.125ZM65.35,61.41c-.393.593-.39.72.013,1.225a2.191,2.191,0,0,1,.22.262A22.6,22.6,0,0,1,63.151,61.2l1.6.093-.078-.1a.263.263,0,0,1-.062-.227c.072-.307.665-.593.92-.713Zm6.571,3.212c.127-.2,1.127-.1,1.645.073a.423.423,0,0,1,.3.138c.092.127.053.345.01.6a3.313,3.313,0,0,0-.063.572c0,.135-.027.165-.037.172-.027.018-.117-.02-.2-.055-.047-.022-.1-.043-.153-.063-.083-.248-.423-.478-.783-.72a4.346,4.346,0,0,1-.585-.443c-.068-.068-.178-.2-.135-.27m3.987-2.664c-.145,0-.255.137-.37.283-.177.22-.3.345-.472.215a1.682,1.682,0,0,1-.362-.433,2.492,2.492,0,0,0-.208-.28l1.54.167a.245.245,0,0,1-.128.048M36.81,66.39h0m39.682-4.644-2.384-.26c-.012,0-.02-.01-.032-.012a.675.675,0,0,0-.317-.027l-1.282-.138a1.047,1.047,0,0,0,.16-.132c.585-.583.7-.5.92-.342l.082.057c.2.13.448-.027.718-.2a1.95,1.95,0,0,1,.575-.282.5.5,0,0,0,.207-.043l1.455.137c-.037.412-.058.827-.1,1.237m-2.249-2.9a2.7,2.7,0,0,0-.957.312c-.133.072-.132.068-.253-.1a1.41,1.41,0,0,0-.312-.282c-.1-.072-.188-.135-.188-.2a.225.225,0,0,1,.067-.12l2.182.118a1.348,1.348,0,0,1-.538.265m-3.924.02a7.053,7.053,0,0,0-.438.6.152.152,0,0,0-.1-.035c-.093,0-.132-.063-.2-.187a.653.653,0,0,0-.47-.4,1.68,1.68,0,0,0-.453-.03.979.979,0,0,1-.7-.155c-.083-.063-.127-.12-.12-.155.02-.093.31-.165.522-.217l.1-.027c.03-.007.057-.013.083-.022l2.267.123c-.17.157-.34.322-.5.5m-.5-3.39c-.068.162-.133.25-.2.263s-.153-.065-.247-.152a1.376,1.376,0,0,0-.233-.175l.738-.01c-.02.025-.048.052-.063.073m-1.15.032a1.068,1.068,0,0,1-.3.34.558.558,0,0,1-.113.1l-.015-.005c-.087-.04-.215-.068-.632.088-.227.087-.383.1-.452.037-.1-.092-.033-.363.022-.58l.013-.05,1.532-.018a1.052,1.052,0,0,0-.06.09M38.827,72.054l-.017-.412c0-.643.01-1.013.017-1.258a5.173,5.173,0,0,0-.113-1.372,1.722,1.722,0,0,1,.658-1.588c.1-.093.187-.182.27-.278.1.063.157.093.205.065s.052-.1.043-.242c0-.07-.01-.16-.01-.27a.269.269,0,0,1,.17-.133,1.444,1.444,0,0,0,.585-.422l.155-.077c.253.2.267.227.307.3a2.1,2.1,0,0,0,.24.348.982.982,0,0,0,.982.313.59.59,0,0,0,.478-.445,1.332,1.332,0,0,1,.007-.152c.013.015.028.032.042.048a1.212,1.212,0,0,0,.247.24c.07.068.117.058.148.042.092-.057.058-.307.013-.51l.378-.5h-.347a1,1,0,0,1,.043-.317l.147.208.215.117.025.005a5.047,5.047,0,0,1,1.055.193,8.814,8.814,0,0,1,2,1.914.178.178,0,0,0,.063.113c.023.023.033.033.033.058v.02l.012.015c.363.455.775.97.977,1.172.342.342.333.463.318.645a1.1,1.1,0,0,0,.055.492,21.129,21.129,0,0,1,.015,2.459c-.008.312-.015.582-.015.742,0,.258-.03.617-.07,1l-9.3-1.689c-.012-.252-.023-.523-.037-.843m11.371,2.9-.008-.2c0-.9.02-1.173.032-1.34a5.287,5.287,0,0,0-.032-1,1.786,1.786,0,0,1,.46-1.468l.028,0h.005c.043,0,.06-.033.082-.135a1.6,1.6,0,0,1,1.228-.867.992.992,0,0,1,.717.027.481.481,0,0,1,.16.36c.017.112.032.215.108.268a.21.21,0,0,0,.17.027,2.455,2.455,0,0,0,.258-.012c.088-.008.09-.008.258.08.058.03.133.07.233.118.145.087.213.122.272.088s.045-.107.03-.235a2.981,2.981,0,0,1,.073-1.152l.082-.337c.013-.058.027-.112.037-.153a1.381,1.381,0,0,0,.475.62c.4.287.418.327.452.413a1.206,1.206,0,0,0,.218.353c.077.1.177.205.278.168.132-.048.13-.308.118-.727,0-.087-.007-.175-.007-.253a.4.4,0,0,0-.183-.368,2.054,2.054,0,0,0-.042-.26l.4-.4h-.37a1.152,1.152,0,0,1,.018-.185l.193.1.023.007a5.015,5.015,0,0,1,1.053.192,12.109,12.109,0,0,1,2.23,2.552c.237.317.442.59.565.737.322.387.335.463.372.65a2.928,2.928,0,0,0,.1.393,10.162,10.162,0,0,1,.018,1.667c-.008.278-.018.54-.018.755,0,.183.007.508.015.885,0,.148.007.308.01.473Zm25.756-9.533c-.1-.075-.205-.158-.328-.252-.42-.318-1.293-.982-1.278-1.117,0,0,.053-.038.378.053.618.178.943.2,1.117.085.15-.105.167-.3.188-.545.008-.082.015-.17.028-.265a.508.508,0,0,1,.26-.343c-.107.8-.225,1.6-.365,2.384m.658-5.124-1.275-.12a2.609,2.609,0,0,0,.143-1.2c0-.115,0-.235,0-.357l1.263.068c-.028.54-.082,1.075-.127,1.612m-1.143-1.894c-.012-.153-.04-.222-.1-.247-.085-.035-.167.043-.305.175-.015.015-.033.032-.05.047l-2.187-.118a3.676,3.676,0,0,1,.443-.245c.277-.133.428-.208.353-.575,0-.13-.01-.218-.068-.257s-.125-.012-.212.025a.926.926,0,0,1-.542.08,2.793,2.793,0,0,0-1.764.875l-2.082-.113a5.9,5.9,0,0,0,.767-.77c.123-.155.2-.267.263-.355l6.794.123c-.012.475-.017.952-.04,1.423Zm-5.2-1.685s.007,0,.013,0a1.155,1.155,0,0,0,.815-1.225c-.005-.045-.023-.065-.03-.1l5.737-.07c0,.157.012.312.012.47,0,.352-.023.7-.03,1.05ZM76.8,55.107l-5.794.07a.383.383,0,0,0-.242-.228.855.855,0,0,0-.652.238l-2.869.035a.532.532,0,0,0-.36-.65c-.405-.2-.713.252-.913.553l-.033.05c-.015.023-.012.042-.022.063l-.125,0a2.449,2.449,0,0,0-.15-.263c-.44-.585-.367-.69-.222-.9.017-.023.035-.058.052-.085L76.76,53.4c.023.567.035,1.137.043,1.709M-16.513,17.6-5.961,28.243l.15-.15L-16.368,17.443c.4-.4.808-.788,1.217-1.177l9.576,10.319.157-.143L-15,16.12c.412-.387.828-.77,1.252-1.145l8.266,9.566.16-.138-8.266-9.566c.407-.357.808-.717,1.227-1.062l8.529,10.569.165-.133-8.529-10.569c.46-.377.932-.742,1.4-1.1l8.806,11.8.17-.127-8.809-11.806c.433-.33.875-.648,1.318-.965L-1.792,22.3l.175-.122L-9.133,11.319c.45-.318.9-.637,1.36-.942l6.661,10.359.178-.115L-7.592,10.263c.468-.31.94-.615,1.418-.91L.637,20.734l.182-.11L-6,9.238c.48-.293.972-.568,1.46-.845L.148,16.84l.187-.1L-4.352,8.286q.753-.423,1.517-.822L2.189,17.42l.19-.1L-2.647,7.367c.485-.252.968-.507,1.46-.743L4.23,18.389l.192-.088L-.993,6.537c.507-.242,1.022-.47,1.537-.7L5.492,17.608l.2-.083L.737,5.754c.5-.218,1.015-.423,1.527-.627l4.3,11.213.2-.075L2.46,5.051c.55-.217,1.1-.428,1.66-.627l4.094,11.72.2-.07L4.321,4.355c.535-.187,1.07-.375,1.612-.547L8.989,14.1l.2-.062L6.132,3.742c.513-.16,1.035-.3,1.553-.443l2.769,10.359c-3,5.111-4.817,10.5-4.767,14.7V48.7a2.37,2.37,0,0,0-.957-.548c-.277-.085-.535-.17-.772-.248-.9-.3-1.447-.478-1.623-.215a1.221,1.221,0,0,0-.3,1.027,1.583,1.583,0,0,0,.128.208c.145.21.218.315-.222.9a1.9,1.9,0,0,0-.218.422.436.436,0,0,0-.078-.227l-.032-.047c-.2-.3-.505-.758-.913-.557-.442.222-.415.467-.317.853.168.338.22.588.14.683-.055.07-.185.06-.3.033.062-.125.1-.232.047-.3s-.158-.038-.248-.008a1.753,1.753,0,0,1-.182.078.6.6,0,0,0-.2.105c-.062-.015-.107-.025-.14-.032-.092-.02-.092-.02-.138-.073A1.927,1.927,0,0,0-.79,50.6l-.015-.01c-.1-.052-.175-.1-.235-.13a.457.457,0,0,0-.487-.068,1.1,1.1,0,0,0-.188.083c-.07.04-.073.04-.25-.077a1.648,1.648,0,0,0-1.217-.272.378.378,0,0,0-.23.308A1.061,1.061,0,0,0-2.6,51.66c.1.047.165.058.215.032.057.063.177.207.41.5-.02.023-.04.05-.06.077a.887.887,0,0,1-.292.272c-.428.357-.373.53-.263.7a.247.247,0,0,1,.05.117c0,.023,0,.047,0,.072a.759.759,0,0,1,0,.087,2.33,2.33,0,0,1-.49-.487,5.881,5.881,0,0,1-.515-.718,2.833,2.833,0,0,0-1.65-1.437c-.278-.087-.537-.172-.773-.25-.9-.3-1.447-.477-1.624-.213a1.215,1.215,0,0,0-.3,1.027,1.7,1.7,0,0,0,.128.208c.145.21.218.317-.218.9a2.09,2.09,0,0,0-.237.337.473.473,0,0,0-.063-.137l-.033-.05c-.2-.3-.5-.758-.913-.553-.44.22-.415.465-.322.842l.02.072c.055.218.123.488.022.58-.068.062-.225.05-.453-.037-.268-.1-.41-.143-.493-.168-.1-.03-.1-.03-.152-.088-.025-.028-.06-.065-.12-.125-.085-.063-.153-.118-.208-.165-.2-.16-.268-.218-.523-.135a1.129,1.129,0,0,0-.187.083c-.073.042-.075.042-.252-.077A1.649,1.649,0,0,0-13.1,52.65a.376.376,0,0,0-.23.305.927.927,0,0,0,.17.887.531.531,0,0,1-.592.142c-.1-.018-.188-.042-.275-.063-.255-.065-.457-.117-.575-.022a.277.277,0,0,0-.092.237,1.4,1.4,0,0,1-.563,1.318c-.428.358-.373.532-.265.705a.241.241,0,0,1,.05.117c0,.023,0,.047,0,.072a.5.5,0,0,1,0,.087,2.446,2.446,0,0,1-.49-.487,5.881,5.881,0,0,1-.513-.72,2.837,2.837,0,0,0-1.652-1.437c-.277-.085-.535-.17-.772-.248-.905-.3-1.452-.478-1.624-.215a1.221,1.221,0,0,0-.3,1.027,1.612,1.612,0,0,0,.128.21c.147.21.218.315-.222.9a1.838,1.838,0,0,0-.217.42.279.279,0,0,0-.08-.225l-.03-.045a1.634,1.634,0,0,0-.5-.553l0-.06-10.421-.183c.01-.57.017-1.142.043-1.709l11.246.645.01-.212L-32.1,52.9c.03-.573.083-1.142.13-1.71l14.5,1.3.02-.212-14.508-1.3c.05-.572.112-1.14.18-1.709l16.833,2.152.027-.21-16.833-2.15c.067-.543.127-1.087.21-1.623l12.508,2.039.035-.21L-31.5,47.228c.087-.548.19-1.09.292-1.632l13.83,2.71.04-.208-13.831-2.71c.1-.535.22-1.067.34-1.6l15.2,3.544.047-.207-15.2-3.542c.127-.545.248-1.092.39-1.632l9.118,2.462.055-.205-9.114-2.46q.218-.813.458-1.613l10.834,3.305.063-.2-10.839-3.305c.16-.525.335-1.042.51-1.558L-17.5,42.468l.07-.2-11.82-4.1c.2-.565.393-1.128.605-1.687L-16.525,41.2l.077-.2-12.113-4.715c.2-.523.4-1.048.617-1.563l10.734,4.627.083-.2L-27.863,34.53c.2-.478.425-.947.642-1.418l11.273,5.267.088-.192-11.274-5.269c.243-.522.493-1.037.752-1.55l12.765,6.522.1-.188L-26.286,31.18c.26-.512.518-1.023.793-1.525l11.384,6.386.105-.185L-25.386,29.47c.272-.492.553-.977.84-1.458l13.256,8.027.11-.182-13.261-8.031c.275-.458.565-.907.853-1.357l14.727,9.568.115-.177-14.728-9.569c.31-.478.623-.955.947-1.423L-9.449,34.09l.122-.173L-22.406,24.7c.317-.453.632-.907.962-1.35L-11.1,31.17l.127-.168L-21.32,23.174c.342-.457.7-.9,1.057-1.343l11.586,9.531.135-.163-11.59-9.534c.342-.425.693-.843,1.048-1.258L-6.636,31.263l.138-.16L-18.945,20.245c.368-.427.737-.855,1.118-1.272L-6.542,29.606l.145-.153L-17.682,18.82q.575-.62,1.168-1.223M-31.5,64.378a.492.492,0,0,0,.325.19.192.192,0,0,0,.032,0c.2,0,.427-.157.69-.478.23-.282.325-.293.353-.285s.042.047.048.078a2.35,2.35,0,0,1-.58,1.59c-.113.112-.16.2-.15.29.013.122.135.2.275.292a1.066,1.066,0,0,1,.542.64.921.921,0,0,1,0,.572,1.739,1.739,0,0,0,.1,1.183.221.221,0,0,0,.165.157.108.108,0,0,0,.033,0c.2,0,.463-.287.763-.617a4.738,4.738,0,0,1,.477-.485,2.6,2.6,0,0,0,.25-.15,2.287,2.287,0,0,1,.215-.132,2.268,2.268,0,0,0,.677.093,2.672,2.672,0,0,1,.758.5,5.44,5.44,0,0,0-1.867.862.3.3,0,0,0-.108.235c.012.138.148.235.28.328.1.073.208.147.2.21-.007.043-.072.138-.452.283-1.173.452-1.052.852-.945,1.205.012.042.025.083.035.125a.819.819,0,0,0,.555.535,1.139,1.139,0,0,0,1.092-.312c.247-.212.405-.355.507-.448a.225.225,0,0,0,.023.107.361.361,0,0,0,.3.16c.293.037.318.137.348.265.055.235.158.417.923.417.992,0,1.055-.612,1.1-1.017.018-.167.033-.31.1-.355a1.622,1.622,0,0,1,.523-.082c.445-.03,1-.07,1.205-.368a.552.552,0,0,0,.045-.488l0,0c.208.127.46.255.718.387.22.113.443.227.635.34l.393.87.01.025.027.007a.914.914,0,0,1,.348.142v.027l.018.015a4.523,4.523,0,0,1,.47.422c.135.137.305.305.7.647a1.364,1.364,0,0,0,.677.4c.105.023.138.03.282.363a.887.887,0,0,0,.617.387c.41.122.8.235.74,1.043a19.6,19.6,0,0,0-.027,2.2c0,.037,0,.077,0,.115L-27.1,78.758A54.124,54.124,0,0,1-31.5,64.378M22.319,110.29A54.563,54.563,0,0,1-26.524,79.96l9.494-1.787c0,.122,0,.242,0,.375,0,.872.042,1.425.075,1.83.048.623.063.813-.162,1.152-.612.832-.6,1.04-.53,1.128.092.108.3.028.492-.068a2.2,2.2,0,0,0,.587-.2.733.733,0,0,0,.148-.067c0,.008.008.018.013.028a2.851,2.851,0,0,0,.165.312,3.637,3.637,0,0,1,.223.32c.122.193.22.347.352.347h.012c.125-.01.235-.15.385-.487a2.3,2.3,0,0,1,.32-.64,1.5,1.5,0,0,0,.285.183c.213.107.357.18.44.1s.077-.235-.17-.852l-.108-.268a9.241,9.241,0,0,1-.667-2.052,14.7,14.7,0,0,1-.042-1.488l10.091-1.9a5.139,5.139,0,0,1-.423,2.489c-.768,1.117-.665,1.2-.61,1.248.087.07.237-.05.288-.093a3.259,3.259,0,0,0,.87-.293.785.785,0,0,0,.148-.067.264.264,0,0,1,.013.03,3.2,3.2,0,0,0,.167.31,3.6,3.6,0,0,1,.222.32c.122.192.22.347.352.347a.037.037,0,0,0,.013,0c.123-.008.233-.148.383-.485a2.268,2.268,0,0,1,.322-.64,1.468,1.468,0,0,0,.283.183l.065.032c.24.122.467.238.585.128.1-.092.073-.313-.088-.717a4.516,4.516,0,0,1-.255-1.767,5.634,5.634,0,0,0-.032-.748c-.025-.173-.05-.417-.073-.7l8.911-1.679a2.835,2.835,0,0,1-.38,1.473c-.768,1.118-.665,1.2-.61,1.25.088.072.238-.05.288-.093a3.332,3.332,0,0,0,.872-.293.81.81,0,0,0,.147-.067.148.148,0,0,1,.013.028,2.974,2.974,0,0,0,.167.312,3.6,3.6,0,0,1,.222.32c.122.192.22.347.352.347a.037.037,0,0,0,.013,0c.123-.008.235-.148.383-.485a2.306,2.306,0,0,1,.322-.642,1.364,1.364,0,0,0,.287.187c.063.025.125.052.185.078.228.1.393.173.488.083.075-.073.085-.223-.115-.72A4.543,4.543,0,0,1,8.4,73.842c0-.16-.013-.3-.022-.453l6.256-1.177s0,.01,0,.013c0,3.209,5.252,4.961,5.252,7.294v2.627c-.875.972-3.794,1.945-3.794,3.792,0,2.627,4.474,3.794,4.474,6.031v2.625c-1.167.778-2.917.487-2.722,2.432.193,2.14,3.307,1.849,3.307,4.961,0,1.555-.973.875-2.237,1.847a2.967,2.967,0,0,0,2.237.778c.1,1.557.1,1.945,1.263,2.432.1,0,.973.1,1.167-.487.2-.778-.1-1.75.292-2.432.973-1.945,2.14-1.847,2.14-3.209,0-1.945-2.237-1.458-2.237-3.6,0-2.237,3.5-1.265,3.5-3.987,0-2.14-1.168-2.14-3.5-4.572V85.55c.1-1.557,4.474-1.458,4.182-4.765-.1-1.362-.875-1.849-3.112-3.89,0,0,2.82-2.724,2.82-3.5,0-.68-.2-.875-1.167-.875a4.73,4.73,0,0,0-2.14.875,2.592,2.592,0,0,1,.2-.972,2.925,2.925,0,0,1,.472-.728L36.614,73.8a8.281,8.281,0,0,1-.342,1.52c-.2.5-.188.647-.113.72.09.088.257.017.488-.083.058-.027.12-.053.187-.08a1.327,1.327,0,0,0,.283-.185,2.276,2.276,0,0,1,.323.643c.148.335.26.475.383.483a.033.033,0,0,0,.013,0c.13,0,.228-.153.352-.347a3.637,3.637,0,0,1,.225-.327,2.586,2.586,0,0,0,.162-.305c.005-.01.01-.02.013-.028a.757.757,0,0,0,.142.063c.212.105.308.01.48.093.063.052.408.288.54.175.088-.077.1-.258-.463-1.03a2.075,2.075,0,0,1-.317-.887L48,75.866c-.023.167-.045.32-.062.437a5.354,5.354,0,0,0-.033.748,4.516,4.516,0,0,1-.255,1.767c-.2.5-.19.647-.113.72.093.092.26.017.488-.083l.187-.08a1.341,1.341,0,0,0,.283-.183,2.276,2.276,0,0,1,.323.643c.148.333.258.473.383.483.14.015.238-.147.363-.347.065-.1.137-.213.225-.327a3.047,3.047,0,0,0,.163-.3.236.236,0,0,0,.013-.03.661.661,0,0,0,.142.063,3.245,3.245,0,0,0,.878.3c.052.045.2.163.287.1.057-.047.16-.133-.608-1.25a4.555,4.555,0,0,1-.413-2.242L60.333,78.1a11.762,11.762,0,0,1-.042,1.31,9.164,9.164,0,0,1-.663,2.044l-.11.278c-.277.687-.24.838-.158.9s.205.018.428-.148a1.507,1.507,0,0,0,.283-.185,2.342,2.342,0,0,1,.322.643c.148.335.26.475.383.483h.013c.13,0,.228-.153.35-.345.065-.1.137-.213.227-.327a3.009,3.009,0,0,0,.163-.305.147.147,0,0,1,.013-.028.731.731,0,0,0,.14.063,2.14,2.14,0,0,0,.6.2c.192.1.4.177.49.07.075-.088.082-.3-.527-1.128-.2-.3-.185-.485-.14-.977a13.923,13.923,0,0,0,.05-2.1c0-.04,0-.073,0-.112l8.958,1.627A54.569,54.569,0,0,1,22.319,110.29M62.17,77.13c0-.128.007-.252.008-.372a21.712,21.712,0,0,0-.027-2.3c-.057-.808.33-.922.74-1.043a.889.889,0,0,0,.618-.39c.142-.33.177-.338.28-.36a1.381,1.381,0,0,0,.678-.4,7.342,7.342,0,0,0,.805-.782c.093-.105.19-.213.363-.388l.182-.182a5.032,5.032,0,0,0,1.087-.89l.672-.772c.158-.122.423-.268.512-.205.028.02.087.1-.015.437-.277.922.517,1.417.9,1.654.038.023.072.045.1.063a.143.143,0,0,0,.127.023c.055-.027.058-.1.063-.192.013-.262.038-.7.91-.7a.807.807,0,0,1,.6.153.431.431,0,0,1,.043.355c-.02.122-.037.235.037.31a.306.306,0,0,0,.212.065c.008.055.072.09.865.09a1.921,1.921,0,0,0,1.78-.773.949.949,0,0,0,.117-.863.525.525,0,0,1,.045-.405c.033-.087.058-.148.01-.187s-.115-.027-.715.373c-.053.032-.143.083-.223.128.212-.245.583-.7.29-1a5.07,5.07,0,0,0-1.59-.858,5.2,5.2,0,0,1,.675-.6,2.262,2.262,0,0,0,.677-.093,2.324,2.324,0,0,1,.217.132,1.7,1.7,0,0,0,.238.143c.173.138.187.182.192.2.017.055.02.058.257.14l.445.16a.88.88,0,0,0,.775.007c.228-.162.235-.507.243-.872a4.092,4.092,0,0,1,.025-.44.627.627,0,0,1,.453-.45,54.062,54.062,0,0,1-4.139,12.81Z" transform="translate(33.47 0)"/>
            </g>
            <g id="Group_3245" data-name="Group 3245" transform="translate(28.337 21.67)">
              <path id="Path_2276" data-name="Path 2276" class="cls-5" d="M32.824,0A82.142,82.142,0,0,0-49.224,82.048a81.309,81.309,0,0,0,24.032,57.939A81.336,81.336,0,0,0,32.641,163.9h.183a81.952,81.952,0,1,0,0-163.9m0,162.615a80.564,80.564,0,0,1-80.76-80.567,80.712,80.712,0,1,1,80.76,80.567" transform="translate(49.224)"/>
            </g>
          </g>
        </g>
      </g>
    </g>
  </g>
</svg>
