<svg xmlns="http://www.w3.org/2000/svg" xmlns:xlink="http://www.w3.org/1999/xlink" width="160.918" height="162.957" viewBox="0 0 160.918 162.957">
  <defs>
    <style>
      .cls-1 {
        fill: none;
      }

      .cls-2 {
        clip-path: url(#clip-path);
      }

      .cls-3 {
        fill: #0d55a0;
      }

      .cls-4 {
        fill: #fff;
      }
    </style>
    <clipPath id="clip-path">
      <path id="Path_2345" data-name="Path 2345" class="cls-1" d="M0,62.3H160.918V-100.653H0Z" transform="translate(0 100.653)"/>
    </clipPath>
  </defs>
  <g id="Group_3320" data-name="Group 3320" transform="translate(0 100.653)">
    <g id="Group_3319" data-name="Group 3319" class="cls-2" transform="translate(0 -100.653)">
      <g id="Group_3286" data-name="Group 3286" transform="translate(0 0.002)">
        <path id="Path_2312" data-name="Path 2312" class="cls-3" d="M30.762,62.3c44.437,0,80.459-36.479,80.459-81.477S75.2-100.652,30.762-100.652-49.7-64.174-49.7-19.175-13.674,62.3,30.762,62.3" transform="translate(49.697 100.652)"/>
      </g>
      <g id="Group_3287" data-name="Group 3287" transform="translate(127.546 63.479)">
        <path id="Path_2313" data-name="Path 2313" class="cls-4" d="M5.216,3.576c-.081-.327-.164-1.06-.327-1.794-.081-.246-.081-.408-.244-.327-.081,0-.081.081-.081.244a2.8,2.8,0,0,1,.081.816c-.081.408-.325.572-1.222.816l-6.69,1.549V4.8C-3.1,4.473-1.31,2.026-.575.721,1.138-1.971,3.1-4.744,3.259-4.989c.244-.327.408-.491.325-.652,0-.164-.244-.164-.57-.083l-8.974,1.8c-1.3.244-1.794.325-1.957-.083C-8-4.174-8.081-4.5-8.162-4.663c0-.164-.081-.244-.164-.244-.164,0-.081.164-.081.327A10.865,10.865,0,0,0-8-2.95c.081.244.162.9.325,1.876.083.244.083.327.244.327.083,0,.083-.083.083-.246a2.479,2.479,0,0,1-.083-.814c0-.327.408-.572,1.551-.9l6.363-1.3C.241-3.6-1.227-1.563-2.534.394-3.756,2.271-5.307,4.636-6.041,5.778a.88.88,0,0,0-.244.572c0,.164.164.164.489.081L3.748,4.555c.816-.164,1.224-.083,1.387.244.081.164.081.325.162.408,0,.162.083.244.164.244s.083-.164.083-.408c-.164-.735-.327-1.3-.327-1.468" transform="translate(8.427 5.777)"/>
      </g>
      <g id="Group_3288" data-name="Group 3288" transform="translate(33.972 114.322)">
        <path id="Path_2314" data-name="Path 2314" class="cls-4" d="M6.25,2.912c.164.081.244.164.408.244.164.164.244.164.325.083s0-.246-.162-.327c-.572-.489-.979-.9-1.143-.979l-1.3-1.3C4.21.464,4.048.383,3.965.464s-.081.164.083.246a4.6,4.6,0,0,1,.57.652c.164.408.083.652-.57,1.386L-.521,7.887-.6,7.806c0-.325,0-3.426-.083-4.894C-.765-.269-.765-3.695-.765-3.939c0-.408,0-.652-.081-.735s-.327,0-.491.244l-6.28,6.609c-.9.978-1.307,1.222-1.632,1.06a2.552,2.552,0,0,1-.572-.408c-.081-.083-.164-.164-.244-.083s0,.244.164.327c.572.57,1.141.978,1.224,1.06.244.164.652.652,1.386,1.3.164.164.244.244.327.164s0-.164-.083-.244a1.966,1.966,0,0,1-.489-.654c-.164-.325,0-.733.733-1.63l4-4.732c0,.408,0,3.019.083,5.385.081,2.284.162,5.058.244,6.444,0,.244,0,.491.164.572q.121.121.489-.244L4.945,3.484c.572-.652.9-.735,1.3-.572" transform="translate(10.097 4.705)"/>
      </g>
      <g id="Group_3289" data-name="Group 3289" transform="translate(74.382 131.156)">
        <path id="Path_2315" data-name="Path 2315" class="cls-4" d="M1.5.312A18.374,18.374,0,0,1,3.7.475c.735.081.9.325.979.57a1.4,1.4,0,0,1,.081.572c0,.164,0,.244.164.244A.174.174,0,0,0,5.086,1.7c0-.164.081-.816.081-.979A9.653,9.653,0,0,1,5.331-.26c0-.081,0-.162-.081-.162a.3.3,0,0,0-.244.081c-.164,0-.408.081-.654.081C4.026-.26,1.008-.34.517-.34A4.71,4.71,0,0,1-.461-.421C-.869-.421-1.277-.5-1.685-.5c-.244,0-.327,0-.327.164,0,.081.083.164.246.164.244,0,.489,0,.57.081A.807.807,0,0,1-.543.8c0,.491,0,.9-.081,3.264L-.951,6.756c-.081,1.387-.081,2.611-.162,3.264-.083.408-.164.816-.491.816-.162,0-.325.081-.57.081-.164,0-.244,0-.244.081s.081.164.325.164H-.135c.491,0,.979.083,1.632.083s1.468.081,2.692.162c.57,0,.733,0,.816-.408A10.877,10.877,0,0,0,5.25,9.284c0-.162,0-.244-.083-.244s-.162.083-.162.244c-.164.652-.327.979-.735,1.143a4.551,4.551,0,0,1-1.468.162c-1.549-.081-1.794-.325-1.794-1.386,0-.408.081-1.876.081-2.365V5.614c0-.081,0-.164.081-.164.408,0,1.876.083,2.2.083.572.081.733.325.816.652a1.393,1.393,0,0,0,.081.57c0,.083,0,.164.164.164s.164-.164.164-.325c0-.083.081-.735.081-1.06.081-.816.164-1.06.164-1.143a.288.288,0,0,0-.083-.164c-.081,0-.162.083-.244.164-.164.164-.408.164-.733.244-.327,0-2.121,0-2.448-.081-.081,0-.081-.081-.081-.164L1.416.475c0-.083,0-.164.081-.164" transform="translate(2.418 0.504)"/>
      </g>
      <g id="Group_3290" data-name="Group 3290" transform="translate(48.899 124.189)">
        <path id="Path_2316" data-name="Path 2316" class="cls-4" d="M3.505.761a14.789,14.789,0,0,1-1.632-.9C1.465-.38.651-.87.16-1.115-.084-1.2-.165-1.278-.248-1.2s0,.164.164.244A1.692,1.692,0,0,1,.4-.626C.651-.38.651-.055.4.353S0,1.169-1.145,3.209l-1.3,2.446c-.735,1.3-1.3,2.365-1.713,2.937q-.367.612-.735.489a.705.705,0,0,1-.489-.244c-.164-.081-.244-.081-.244,0-.081.081,0,.164.164.244.57.327,1.386.735,1.713.9s1.224.735,2.038,1.224c.164.083.246.083.327,0,0-.081,0-.164-.164-.244s-.489-.325-.652-.408c-.408-.244-.325-.572-.164-.978C-2.124,9-1.553,7.94-.818,6.553l1.3-2.365a29.808,29.808,0,0,1,1.63-2.854c.327-.491.491-.652.9-.491.162.083.325.083.408.164.162.083.244.083.325,0S3.669.842,3.505.761" transform="translate(5.663 1.23)"/>
      </g>
      <g id="Group_3291" data-name="Group 3291" transform="translate(60.025 127.506)">
        <path id="Path_2317" data-name="Path 2317" class="cls-4" d="M4.647,1.4c-.408-.164-1.141-.327-1.387-.408A8.754,8.754,0,0,0,1.71.5C1.465.416,1.3.416,1.221.5c0,.081.081.164.244.164.164.081.408.162.572.244.081.081.162.244.081.325,0,.164-.164.327-.325.491-.654.9-4,5.056-5.14,6.444h-.081L-3.918.743a2.87,2.87,0,0,1,0-1.224c.081-.164.081-.244.244-.244a.718.718,0,0,1,.57.081c.164,0,.246,0,.246-.081S-2.94-.889-3.184-.97c-.733-.244-1.468-.408-1.794-.489-.491-.164-1.307-.491-2.121-.735-.246-.081-.408-.081-.408,0s0,.164.162.164a1.406,1.406,0,0,1,.572.244c.489.327.652.572.735,1.468l1.06,10.2c.081.816.081.979.244,1.06.244.081.408-.164.978-.9C-3.184,9.39-2.043,8-.411,6.126.977,4.577,1.546,3.843,2.607,2.7c.652-.816.979-.978,1.224-1.06a1.264,1.264,0,0,1,.816.083c.164.081.244.081.244-.083,0-.081-.081-.164-.244-.244" transform="translate(7.507 2.254)"/>
      </g>
      <g id="Group_3292" data-name="Group 3292" transform="translate(122.529 98.282)">
        <path id="Path_2318" data-name="Path 2318" class="cls-4" d="M5.388,3.057c-.081,0-.164,0-.244.164a2.884,2.884,0,0,1-.408.652c-.244.408-.652.325-1.06.164a12.263,12.263,0,0,1-1.387-.652L1.146,2.812a3.422,3.422,0,0,1-1.3-.9A48.868,48.868,0,0,1-3.259-2.9a2.192,2.192,0,0,1-.325-1.06,1.27,1.27,0,0,1,.162-.652c.083-.164.083-.244,0-.327-.081,0-.162.083-.244.164A11.883,11.883,0,0,0-4.32-3.306c-.164.408-.489.816-.652,1.3-.081.164-.081.244,0,.327.083,0,.164-.083.244-.164.164-.244.327-.164.491-.081a1.881,1.881,0,0,1,.652.57c.325.408,2.529,3.672,2.773,3.916-.491,0-4.813.325-5.3.325a1.221,1.221,0,0,1-.572-.081.429.429,0,0,1-.164-.327c.083-.244.083-.325,0-.408s-.162,0-.244.164a14.192,14.192,0,0,0-.652,1.468c-.244.489-.733,1.468-.9,1.713-.083.164-.083.244,0,.327s.164,0,.244-.164A1.366,1.366,0,0,1-7.909,5.1,5.989,5.989,0,0,1-6.44,4.606c.979-.162,4.894-.489,5.139-.489A2.8,2.8,0,0,1,.33,4.525l1.143.652a12.515,12.515,0,0,1,1.386.733c.408.246.652.491.572.816a1.173,1.173,0,0,1-.164.491c-.081.162-.081.244,0,.244.081.081.164-.083.244-.244.244-.491.652-1.387.816-1.713.164-.408.652-1.224,1.06-2.121.081-.164.081-.327,0-.327" transform="translate(8.704 4.938)"/>
      </g>
      <g id="Group_3293" data-name="Group 3293" transform="translate(114.482 110.627)">
        <path id="Path_2319" data-name="Path 2319" class="cls-4" d="M5.19,3.607l-.572.572c-.325.325-.652.162-1.06-.083-.57-.408-1.468-1.222-2.529-2.121L-3.7-2.266l1.3-1.386c.979-.979,1.551-1.06,1.876-.735l.164.083c.164.162.244.162.325.081s0-.164-.081-.244c-.327-.244-1.06-.979-1.3-1.224-.164-.164-.244-.164-.327-.081,0,.081-.081.164-.244.325s-.325.491-.652.816L-6.719-.063A6.548,6.548,0,0,1-7.78,1c-.244.244-.491.244-.572.408-.081.081,0,.162.083.325.081.083.9,1.224,1.06,1.387.162.081.162.162.244.081a.153.153,0,0,0,0-.244,1.235,1.235,0,0,1-.244-.572c-.083-.408.081-.733.652-1.386L-5.089-.715-.112,3.363c1.06.978,1.957,1.794,2.365,2.284.327.325.489.652.327.9a5.075,5.075,0,0,1-.327.489c-.081.164-.164.244-.081.244.081.083.164,0,.325-.162.408-.491,1.06-1.224,1.224-1.468.244-.327.979-.979,1.632-1.8.081-.164.162-.244.081-.325s-.164,0-.244.081" transform="translate(8.385 5.828)"/>
      </g>
      <g id="Group_3294" data-name="Group 3294" transform="translate(108.234 120.273)">
        <path id="Path_2320" data-name="Path 2320" class="cls-4" d="M4.023,3.475a2.827,2.827,0,0,1-.652.408c-.408.244-.652.081-.979-.244C1.984,3.148,1.25,2.17.353.946l-1.632-2.2A20.728,20.728,0,0,1-3.155-3.948c-.325-.489-.325-.733-.081-1.06.164-.164.244-.244.325-.327.164-.081.164-.162.083-.244s-.164,0-.327.083c-.489.325-1.141.9-1.468,1.141s-1.141.816-1.63,1.141c-.164.164-.246.246-.246.327.083.081.164.081.327,0s.325-.244.489-.244c.327-.164.572,0,.9.408s.572.733,1.959,2.61l1.713,2.121A20.7,20.7,0,0,1,.761,4.78c.244.408.325.652.081.9-.081.083-.244.246-.408.408-.164.083-.164.164-.164.244.083.083.164.083.327-.081.489-.325,1.224-.979,1.549-1.141C2.474,4.862,3.29,4.291,4.1,3.719c.164-.081.246-.244.164-.325s-.164-.083-.244.081" transform="translate(6.5 5.614)"/>
      </g>
      <g id="Group_3295" data-name="Group 3295" transform="translate(86.209 130.247)">
        <path id="Path_2321" data-name="Path 2321" class="cls-4" d="M5.333,3.716a.9.9,0,0,0-.408.081,3.185,3.185,0,0,1-1.876-.652C1.988,2.411.6,1.268-1.029-.118.195-1.667.52-2.81.276-3.871A3.008,3.008,0,0,0-1.193-5.747,5.123,5.123,0,0,0-4.13-5.828c-.489.081-1.63.408-2.121.489-.325.083-1.3.244-2.038.408-.244.083-.327.083-.327.164s.083.081.244.081A1.86,1.86,0,0,1-7.8-4.768c.489,0,.652.244.816.733s.244.9.733,3.181l.572,2.611A18.834,18.834,0,0,1-5.108,4.94c0,.489,0,.816-.244.9A1.173,1.173,0,0,1-5.843,6c-.164,0-.244.081-.244.164s.164.162.327.081a12.674,12.674,0,0,1,1.794-.408c.244-.081,1.387-.244,2.2-.408.162,0,.325-.081.244-.244,0-.081-.083-.081-.244-.081s-.491.081-.735.081c-.489,0-.652-.244-.733-.735a20.732,20.732,0,0,1-.735-3.181l-.081-.244c0-.081,0-.162.081-.162l1.3-.246A.612.612,0,0,1-2.334.7c.244.164,1.141,1.06,1.957,1.794a7.682,7.682,0,0,0,2.529,1.8A2.516,2.516,0,0,0,3.865,4.2l1.387-.325A.217.217,0,0,0,5.5,3.635c0,.081-.083.081-.164.081M-1.845-.362a1.816,1.816,0,0,1-.978.489A2.8,2.8,0,0,1-3.966.207c-.081,0-.164-.081-.164-.244L-5.108-4.6a.3.3,0,0,1,.081-.244,3.3,3.3,0,0,1,.816-.246A2.458,2.458,0,0,1-1.356-2.81,3.227,3.227,0,0,1-1.845-.362" transform="translate(8.616 6.003)"/>
      </g>
      <g id="Group_3296" data-name="Group 3296" transform="translate(100.695 125.201)">
        <path id="Path_2322" data-name="Path 2322" class="cls-4" d="M1.635,1.934l-.489-.081C-.4,1.526-.975,1.2-1.3.546a1.582,1.582,0,0,1,.979-2.2,2.16,2.16,0,0,1,1.876-.081A1.813,1.813,0,0,1,2.368-1c.083.164.164.244.246.164S2.7-1,2.532-1.329A18.327,18.327,0,0,1,1.8-3.043a.3.3,0,0,0-.244-.081A8.794,8.794,0,0,0-.4-2.472C-2.362-1.492-3.1.14-2.362,1.689c.572,1.141,1.549,1.794,3.67,2.284l.9.162A3.049,3.049,0,0,1,4.653,5.687a1.852,1.852,0,0,1-1.06,2.446A2.263,2.263,0,0,1,.9,7.725a3.388,3.388,0,0,1-.491-.652C.33,6.991.247,6.828.167,6.909a.367.367,0,0,0,0,.408A18.125,18.125,0,0,0,.982,9.193c0,.491.081.491.325.491a4.835,4.835,0,0,0,2.2-.654A4.689,4.689,0,0,0,5.469,7.4a3.33,3.33,0,0,0,.164-3.018c-.652-1.307-1.713-1.959-4-2.448" transform="translate(2.641 3.124)"/>
      </g>
      <g id="Group_3297" data-name="Group 3297" transform="translate(51.112 21.053)">
        <path id="Path_2323" data-name="Path 2323" class="cls-4" d="M.1,2.394a.865.865,0,0,1,.652-.081,1.941,1.941,0,0,1,.9.814L8.1,11.122c.244.327.408.489.57.408s.164-.244.246-.979c.081-1.549.081-7.423.081-8.237l5.791,6.036c.408.489.572.572.735.572.162-.083.162-.244.162-.816-.162-2.448-.406-7.587-.406-9.625,0-.979-.083-1.551.244-1.8.162-.081.325-.244.489-.244.164-.081.164-.081.164-.244,0-.083-.164-.083-.327,0-.489.164-1.06.489-1.141.489-.164.081-.735.244-1.549.572-.246.081-.327.164-.246.244,0,.081.164.081.327,0,.572-.244.733-.081.816.164a2.185,2.185,0,0,1,.164.9c.162,1.876.489,6.118.57,7.179H14.7L8.912-.38c-.327-.408-.491-.572-.654-.489-.081.081-.162.162-.162.652l.081,8.564H8.1c-.572-.733-3.589-4.567-4.161-5.383A7.661,7.661,0,0,1,3.12,1.741a.373.373,0,0,1,0-.408.626.626,0,0,1,.327-.164c.164-.081.244-.081.244-.244,0-.081-.164-.081-.327,0a14.373,14.373,0,0,0-1.549.652C1.651,1.66.835,1.9.1,2.149c-.164.081-.327.164-.244.244a.153.153,0,0,0,.244,0" transform="translate(0.165 3.867)"/>
      </g>
      <g id="Group_3298" data-name="Group 3298" transform="translate(101.676 24.917)">
        <path id="Path_2324" data-name="Path 2324" class="cls-4" d="M.075,4.5c.572.327,1.387.733,1.713.9.408.164,1.224.735,2.121,1.143.164.081.244.081.327,0,0-.083,0-.164-.164-.246s-.489-.325-.652-.406c-.408-.246-.327-.654-.164-.979A32.068,32.068,0,0,1,4.724,1.974L7.661-3.572l1.713.979C10.6-1.94,10.76-1.371,10.6-.963L10.516-.8c-.081.244-.081.327,0,.327.083.081.164,0,.244-.164.164-.327.735-1.3.9-1.551.081-.162.162-.325.081-.325s-.164-.081-.408-.164a4.181,4.181,0,0,1-.979-.408L4.969-5.938a9.082,9.082,0,0,1-1.3-.816,2.474,2.474,0,0,1-.489-.489c-.083-.083-.164,0-.327.162C2.767-7,1.868-5.857,1.707-5.693c-.083.164-.083.244,0,.244.081.081.162,0,.244-.081a1.249,1.249,0,0,1,.489-.327c.327-.164.735-.081,1.549.327l2.04,1.06L3.092,1.077a31.744,31.744,0,0,1-1.63,2.854c-.246.408-.491.652-.816.572a.705.705,0,0,1-.491-.244c-.162-.083-.244-.083-.244,0-.081.081,0,.164.164.244" transform="translate(0.121 7.275)"/>
      </g>
      <g id="Group_3299" data-name="Group 3299" transform="translate(25.472 99.914)">
        <path id="Path_2325" data-name="Path 2325" class="cls-4" d="M4.759,3.9c.489-.244.816-.244,1.06.081.081.164.164.246.244.408s.164.244.244.164.083-.164,0-.325a11.235,11.235,0,0,0-.9-1.551A16.02,16.02,0,0,0,4.6,1.125C4.514.962,4.432.881,4.351.881c-.081.081-.081.164,0,.325A2.753,2.753,0,0,0,4.6,1.7c.164.489,0,.733-.489.978-.408.244-.816.491-2.856,1.551l-1.713.9c-1.386.733-2.61,1.386-3.751.978A3.088,3.088,0,0,1-5.927,4.632a2.928,2.928,0,0,1-.327-1.957C-6.09,1.7-5.438.881-3.48-.18L-1.6-1.159C.436-2.22.844-2.464,1.333-2.709s.816-.244,1.06.081c.081.164.164.244.244.408s.164.164.244.164.083-.164,0-.327c-.244-.489-.733-1.3-.9-1.63-.244-.408-.652-1.3-.979-2.04C.925-6.217.844-6.3.761-6.3c-.081.081-.081.164,0,.325a1.708,1.708,0,0,1,.244.572c.164.489,0,.735-.489.979-.408.244-.816.489-2.854,1.549l-2.284.979C-6.579-.832-7.314.228-7.559,1.206a4.649,4.649,0,0,0,.652,3.508A4.51,4.51,0,0,0-4.458,7c1.549.652,3.262-.083,4.812-.9l1.468-.733A27.6,27.6,0,0,1,4.759,3.9" transform="translate(7.688 6.298)"/>
      </g>
      <g id="Group_3300" data-name="Group 3300" transform="translate(120.654 45.75)">
        <path id="Path_2326" data-name="Path 2326" class="cls-4" d="M.242,2.589a1.8,1.8,0,0,1-.327-.408c-.081-.164-.162-.164-.244-.164-.081.083-.081.164,0,.327C0,2.833.486,3.649.65,3.894c.081.164.652,1.224,1.141,1.957.083.164.164.246.327.164.081,0,.081-.081,0-.244s-.244-.489-.327-.652c-.162-.408.083-.652.408-.979A28.359,28.359,0,0,1,4.972,2.344l.164-.083c.081-.081.164,0,.164.083l.652,1.141c.081.083.081.164.081.327-.081.325-.652,1.468-1.06,2.365a6.665,6.665,0,0,0-.816,2.937,3.022,3.022,0,0,0,.572,1.549l.735,1.224c.081.164.162.244.244.164.244,0,.244-.083.164-.164s-.083-.244-.164-.408a3.046,3.046,0,0,1,0-2.04c.325-1.3.978-2.854,1.713-4.975,1.876.652,3.018.572,4,0a2.964,2.964,0,0,0,1.3-1.957,4.886,4.886,0,0,0-.9-2.773c-.246-.408-.9-1.387-1.143-1.876-.164-.244-.652-1.143-1.06-1.8-.081-.164-.164-.244-.325-.244-.083.081-.083.164,0,.327a1.734,1.734,0,0,1,.244.57c.164.491,0,.735-.408,1.06-.408.244-.816.491-2.773,1.713L4.075.876c-1.224.733-2.284,1.386-2.854,1.632-.408.162-.735.244-.979.081m6.036-.979,4-2.446a.152.152,0,0,1,.244,0c.083.081.246.325.491.652.489.816.652,2.365-1.224,3.507A2.457,2.457,0,0,1,7.42,3.73,1.538,1.538,0,0,1,6.6,2.916a6.128,6.128,0,0,1-.489-1.06c0-.083,0-.164.162-.246" transform="translate(0.391 4.182)"/>
      </g>
      <g id="Group_3301" data-name="Group 3301" transform="translate(111.872 34.543)">
        <path id="Path_2327" data-name="Path 2327" class="cls-4" d="M.262,3.287C.181,3.206.018,3.123-.146,2.96S-.39,2.8-.39,2.879c-.081.081,0,.164.081.327.244.244.572.489.816.733a3.6,3.6,0,0,0,.652.572c.327.325.652.652,1.143,1.141L4.177,7.529c.408.408.572.489.9.244a8.227,8.227,0,0,0,1.3-1.141c.081-.083.164-.164.081-.244S6.3,6.3,6.217,6.468a1.218,1.218,0,0,1-1.3.327,4.1,4.1,0,0,1-1.141-.816c-1.143-1.06-1.143-1.387-.491-2.2.327-.325,1.3-1.386,1.632-1.713l.816-.9c.081-.081.081-.081.164-.081.244.244,1.386,1.3,1.549,1.549a.823.823,0,0,1,.244,1.06,1.752,1.752,0,0,1-.327.408c-.081.081-.081.164,0,.164.083.081.246,0,.327-.083l.733-.733c.572-.572.816-.652.816-.735.083-.081.083-.081,0-.162s-.162,0-.325,0a1.334,1.334,0,0,1-.735-.327C7.93,1.982,6.625.839,6.38.594c-.083-.081,0-.081,0-.162L9.073-2.423c.081-.081.162-.081.162,0,.244.244,1.387,1.3,1.551,1.549.489.572.489.816.408,1.143a2.577,2.577,0,0,1-.327.489A.3.3,0,0,0,10.786,1c.081.083.162,0,.244,0A5.725,5.725,0,0,0,11.764.35c.491-.489.735-.572.735-.652.081-.081.081-.081,0-.164a.3.3,0,0,0-.244-.081,5.9,5.9,0,0,0-.572-.408c-.244-.164-2.448-2.284-2.856-2.61-.162-.164-.408-.408-.652-.652s-.57-.572-.9-.9c-.164-.162-.244-.244-.325-.162s0,.162.081.244l.408.408c.325.408.244.652-.083,1.06a30.326,30.326,0,0,1-2.2,2.446L3.444.594C2.464,1.655,1.65,2.553,1.159,2.96c-.325.246-.652.491-.9.327" transform="translate(0.424 5.31)"/>
      </g>
      <g id="Group_3302" data-name="Group 3302" transform="translate(75.524 20.217)">
        <path id="Path_2328" data-name="Path 2328" class="cls-4" d="M.093.219H.665c.489.081.652.327.652.9,0,.491.081.9.081,3.264L1.235,6.908c0,1.386.083,2.61,0,3.262-.081.489-.162.816-.406.816-.164,0-.327.081-.572.081-.164,0-.244.083-.244.164s.081.164.325.164c.327,0,.735-.083,1.06-.083H6.62c.57,0,.733,0,.816-.408A12.236,12.236,0,0,0,7.6,9.191c0-.162,0-.244-.162-.244-.083,0-.164.083-.164.244-.083.652-.244.979-.652,1.143a9.454,9.454,0,0,1-1.468.244c-1.549,0-1.8-.164-1.876-1.224,0-.408,0-1.876-.081-2.365V5.765c0-.081,0-.164.081-.164h2.2c.572.083.816.246.9.572a1.4,1.4,0,0,1,.081.572c0,.081,0,.164.164.164s.164-.164.164-.327a5.9,5.9,0,0,1,.081-1.06c.081-.816.081-1.06.081-1.141A.08.08,0,0,0,6.864,4.3c-.081,0-.164.083-.244.164a1,1,0,0,1-.735.244c-.325,0-2.121.083-2.446.083-.083,0-.083-.083-.083-.164L3.275.707c0-.081,0-.162.081-.162h2.2c.733.081.9.244,1.06.57a1.4,1.4,0,0,1,.081.572c0,.164,0,.244.164.244a.176.176,0,0,0,.164-.164c0-.162.081-.9.081-.978A4.515,4.515,0,0,1,7.19-.189c0-.081,0-.164-.081-.164s-.164.083-.244.083-.408.081-.652.081c-.327,0-3.345.081-3.834.081H.174c-.244,0-.325,0-.325.164,0,.083.081.164.244.164" transform="translate(0.151 0.353)"/>
      </g>
      <g id="Group_3303" data-name="Group 3303" transform="translate(88.527 21.669)">
        <path id="Path_2329" data-name="Path 2329" class="cls-4" d="M.081,4.061a6.388,6.388,0,0,0,2.121.9,4.478,4.478,0,0,0,2.529-.081A3.122,3.122,0,0,0,6.688,2.592c.327-1.468-.081-2.61-1.632-4.323l-.325-.408c-1.06-1.224-1.3-1.8-1.141-2.529.162-.9.978-1.387,2.121-1.143A2,2,0,0,1,7.177-4.75a1.374,1.374,0,0,1,.164,1.06c0,.164,0,.246.083.327.081,0,.162-.081.244-.408.244-1.141.408-1.632.408-1.794,0-.083-.083-.164-.164-.246a7.67,7.67,0,0,0-1.957-.652c-2.121-.408-3.753.491-4.08,2.121-.244,1.224.083,2.367,1.468,4.08l.572.652c1.06,1.222,1.141,1.957.979,2.691A1.9,1.9,0,0,1,2.529,4.388a2.1,2.1,0,0,1-1.8-1.959V1.613c0-.081,0-.244-.081-.244S.489,1.532.408,1.7C.325,1.94.081,2.837-.083,3.653c-.081.164-.081.327.164.408" transform="translate(0.131 6.56)"/>
      </g>
      <g id="Group_3304" data-name="Group 3304" transform="translate(19.729 60.759)">
        <path id="Path_2330" data-name="Path 2330" class="cls-4" d="M4.085,5.645A2.888,2.888,0,0,1,4,6.134c-.083.164-.083.244,0,.244a.216.216,0,0,0,.244-.244,14.161,14.161,0,0,1,.325-1.468c.083-.244.327-.9.491-1.549.081-.244.081-.408-.083-.408-.081-.081-.164.083-.164.164-.081.081-.081.325-.244.572A.462.462,0,0,1,4,3.769a5.665,5.665,0,0,0-.652-.244l-5.71-2.365V1.076c1.3-.244,3.426-.57,3.751-.652C1.884.343,4.412-.228,5.227-.39c.491-.164.9-.164.9-.327.081-.081-.083-.164-.652-.733L-.4-6.509v-.083l6.771.9c.489.081.652.162.652.244s0,.162.081.162.164-.081.244-.406a30,30,0,0,0,.9-3.019c0-.162,0-.408-.083-.408S8-9.037,8-8.874a3.876,3.876,0,0,1-.406.9c-.246.408-.735.408-1.715.325L-3.665-8.793c-.325,0-.57,0-.57.164-.083.081,0,.244.244.408l7.423,6.28L-6.03-.146C-6.438-.065-6.6.016-6.6.1s.081.244.325.325l9.38,4.324c.491.164.979.489.979.9" transform="translate(6.6 9.12)"/>
      </g>
      <g id="Group_3305" data-name="Group 3305" transform="translate(34.95 33.83)">
        <path id="Path_2331" data-name="Path 2331" class="cls-4" d="M.106,2.374c.164-.164.408-.327.489-.408a.713.713,0,0,1,1.06.244c.327.327.652.652,2.2,2.365l1.794,2.04A27.742,27.742,0,0,1,7.773,9.064c.244.406.408.652.244.9a1.814,1.814,0,0,1-.408.408c-.162.081-.162.162-.081.244s.164,0,.327-.083A6.142,6.142,0,0,0,8.589,9.8a3.6,3.6,0,0,1,.652-.572c.244-.244.735-.57,1.141-.978A9.39,9.39,0,0,0,11.771,7.1a6.7,6.7,0,0,0,2.61-4.812,6.027,6.027,0,0,0-1.63-4.324A4.924,4.924,0,0,0,9.242-3.825C6.8-3.988,4.919-2.275,3.451-.971,2.8-.318,2.063.334,1.738.661S.677,1.558.025,2.13c-.164.164-.246.244-.164.325s.164,0,.244-.081M3.206.5a2.612,2.612,0,0,1,.652-.733A5.881,5.881,0,0,1,8.1-2.031a5.1,5.1,0,0,1,3.67,1.876A4.749,4.749,0,0,1,13.4,3.516,5.064,5.064,0,0,1,11.526,6.7c-.9.816-1.549.979-1.876.9a3.587,3.587,0,0,1-.9-.735c-.244-.244-.979-1.06-2.121-2.284l-1.3-1.468c-.816-.9-1.713-1.875-2.04-2.283C3.206.661,3.124.58,3.206.5" transform="translate(0.171 3.836)"/>
      </g>
      <g id="Group_3306" data-name="Group 3306" transform="translate(27.342 47.024)">
        <path id="Path_2332" data-name="Path 2332" class="cls-4" d="M.114,1.446a1.718,1.718,0,0,1,.327-.408q.367-.367.978,0c.408.244.816.489,2.773,1.713L6.558,4.3A29.826,29.826,0,0,1,9.331,6.177c.327.244.491.491.408.816-.081.164-.081.327-.244.489-.081.164-.081.246,0,.246.083.081.164,0,.327-.164.325-.489.816-1.387.978-1.632.246-.325.735-1.141,1.307-2.038.081-.164.081-.246,0-.327s-.164,0-.246.164a3.359,3.359,0,0,1-.489.652c-.325.325-.572.325-.979.081-.57-.325-1.63-.978-2.854-1.713L5.253,1.2C3.3-.022,2.888-.266,2.48-.594s-.572-.57-.408-.978c.083-.164.083-.244.164-.408s.081-.244,0-.327-.164,0-.244.244c-.327.491-.735,1.307-.979,1.632C.767-.022.2.713-.049,1.2c-.164.244-.164.325-.081.408s.164,0,.244-.164" transform="translate(0.185 2.337)"/>
      </g>
      <g id="Group_3307" data-name="Group 3307" transform="translate(13.754 14.814)">
        <path id="Path_2333" data-name="Path 2333" class="cls-4" d="M25.519,0A66.746,66.746,0,1,0,92.265,66.746,66.821,66.821,0,0,0,25.519,0m0,131.331A64.586,64.586,0,1,1,90.106,66.746a64.658,64.658,0,0,1-64.587,64.585" transform="translate(41.227)"/>
      </g>
      <g id="Group_3308" data-name="Group 3308" transform="translate(85.067 49.502)">
        <path id="Path_2334" data-name="Path 2334" class="cls-4" d="M.312,1.435c.408,0,.733-.652.733-1.794,0-.9-.244-1.959-.814-1.959-.491,0-.735.652-.735,1.8,0,.9.164,1.957.816,1.957" transform="translate(0.504 2.318)"/>
      </g>
      <g id="Group_3309" data-name="Group 3309" transform="translate(81.56 49.503)">
        <path id="Path_2335" data-name="Path 2335" class="cls-4" d="M0,.686c0,.9.164,1.957.816,1.957.408,0,.733-.652.733-1.794,0-.9-.244-1.957-.816-1.957C.244-1.108,0-.456,0,.686" transform="translate(0 1.108)"/>
      </g>
      <g id="Group_3310" data-name="Group 3310" transform="translate(76.993 49.258)">
        <path id="Path_2336" data-name="Path 2336" class="cls-4" d="M.436.9A1.132,1.132,0,0,0,1.17.66V.5a.079.079,0,0,0-.081.081A1.639,1.639,0,0,1,.681.66C.517.66-.053.5-.053-.4c0-.489.244-.816.652-.816s.816.408.816,1.387A2.974,2.974,0,0,1,.028,2.7l-.081.083a.079.079,0,0,0,.081.081H.109A3.482,3.482,0,0,0,2.149.007,1.462,1.462,0,0,0,.681-1.461,1.309,1.309,0,0,0-.7-.156,1.047,1.047,0,0,0,.436.9" transform="translate(0.705 1.461)"/>
      </g>
      <g id="Group_3311" data-name="Group 3311" transform="translate(74.463 49.176)">
        <path id="Path_2337" data-name="Path 2337" class="cls-4" d="M.249.312C.33.312.33.312.33.475V3.412c0,.162,0,.162-.162.244H-.239v.081c0,.083,0,.083.081.083H1.473c.081,0,.081,0,.081-.083V3.657H1.229a.424.424,0,0,1-.164-.327V-.421A.081.081,0,0,0,.983-.5a.281.281,0,0,0-.162.083C.657-.34-.322.393-.322.393A.08.08,0,0,0-.4.475V.556h.081C-.239.556.169.312.249.312" transform="translate(0.403 0.504)"/>
      </g>
      <g id="Group_3312" data-name="Group 3312" transform="translate(77.89 86.373)">
        <path id="Path_2338" data-name="Path 2338" class="cls-4" d="M.842,0a4.949,4.949,0,0,0-2.2,4.078,4.9,4.9,0,0,1,1.63-.57,3.883,3.883,0,0,1,2.529.57C2.718,2.365,2.066.572.842,0M-.708,3.181V3.018A2.84,2.84,0,0,1,.761.733l.081,2.04a5.97,5.97,0,0,0-1.549.408" transform="translate(1.36)"/>
      </g>
      <g id="Group_3313" data-name="Group 3313" transform="translate(46.972 101.219)">
        <path id="Path_2339" data-name="Path 2339" class="cls-4" d="M14.471,1.435c-1.06.733-2.365,1.713-2.365,1.713V5.432A27.519,27.519,0,0,1,14.552,7.8a2.953,2.953,0,0,1,.083,3.345c-.572.57-2.448.978-2.529,1.876,0,1.141,1.957,1.549,1.957,2.854,0,1.224-1.224,2.121-1.632,2.61a2.917,2.917,0,0,0-.408,1.876c0,.816-.652,1.632-2.038,1.143a1.53,1.53,0,0,1-1.3-1.8,2.571,2.571,0,0,1-2.2-1.224,2.248,2.248,0,0,1,1.468-1.06c1.143-.244.572-1.386.244-1.713-.978-1.06-2.2-1.222-2.446-2.691C5.416,10.9,8.19,10.407,8.19,10.407V8.531c0-.325-.652-.814-1.713-1.713C4.927,5.6,4.031,4.616,4.275,2.9c.164-1.387,3.1-2.856,3.1-2.856V-2.318L-23.379,7.47s12.236,15.337,33.528,15.418c20.963,0,33.607-15.418,33.607-15.418S17.326-.85,15.532-1.419a2.705,2.705,0,0,1-1.06,2.854" transform="translate(23.379 2.318)"/>
      </g>
      <g id="Group_3314" data-name="Group 3314" transform="translate(77.155 93.224)">
        <path id="Path_2340" data-name="Path 2340" class="cls-4" d="M0,.125a1.253,1.253,0,0,0,1.3,0C1.141.044,1.06-.2.733-.2S.244.044,0,.125" transform="translate(0 0.202)"/>
      </g>
      <g id="Group_3315" data-name="Group 3315" transform="translate(22.502 86.21)">
        <path id="Path_2341" data-name="Path 2341" class="cls-4" d="M1.559,0C.418.164-1.949,1.549-2.519,3.018A6.823,6.823,0,0,0,2.293,4.894,7.51,7.51,0,0,1,1.559,0M-1.867,2.937,1.07,2.529a5.1,5.1,0,0,0,.57,1.876H1.478A4.756,4.756,0,0,1-1.867,2.937" transform="translate(2.519)"/>
      </g>
      <g id="Group_3316" data-name="Group 3316" transform="translate(133.685 86.047)">
        <path id="Path_2342" data-name="Path 2342" class="cls-4" d="M.343,0a8.2,8.2,0,0,1-.9,4.894A6.182,6.182,0,0,0,4.34,3.181C3.851,1.632,1.484.244.343,0m0,4.405H.179a5.118,5.118,0,0,0,.652-1.8L3.688,3.1a4.149,4.149,0,0,1-3.345,1.3" transform="translate(0.554)"/>
      </g>
      <g id="Group_3317" data-name="Group 3317" transform="translate(33.708 34.687)">
        <path id="Path_2343" data-name="Path 2343" class="cls-4" d="M17.89,0A46.791,46.791,0,1,0,64.681,46.792,46.844,46.844,0,0,0,17.89,0M39.73,26.383,51.322,15.664q.483.52.949,1.054L41.243,26.25l.117.134,11.029-9.533c.314.361.628.722.929,1.093l-10.358,8.3.112.139,10.357-8.3c.312.385.62.774.92,1.171L43.7,27.225l.107.142,10.656-7.974c.287.384.56.777.835,1.171L45.165,27.631l.1.146L55.4,20.709c.266.379.523.763.775,1.149L46.148,28.282l.1.149L56.27,22.009c.256.4.515.792.761,1.2L45.58,30.074l.091.152,11.448-6.869c.243.4.476.814.706,1.227L46.559,30.808l.087.155,11.267-6.225c.24.432.466.873.691,1.313l-11.715,5.9.079.159,11.717-5.9c.212.419.421.84.622,1.268l-12.5,5.773.076.162L59.38,27.639c.2.437.408.873.6,1.316L49.75,33.249l.068.165,10.227-4.294c.188.447.361.9.534,1.355l-11.561,4.4.063.167,11.564-4.405c.162.431.314.865.465,1.3L49.838,35.777l.057.168,11.273-3.835c.154.45.308.9.448,1.36l-9.165,2.8.052.17,9.162-2.794q.214.709.406,1.428l-9.128,2.419.047.172,9.13-2.419c.118.453.22.913.325,1.371L50.5,39.363l.039.175,11.947-2.751c.107.476.207.954.3,1.436l-13.75,2.608.034.175L62.816,38.4c.084.455.173.908.244,1.368L47.242,42.217l.028.176,15.816-2.451c.071.474.126.954.183,1.433L48.878,43.114l.021.176,14.393-1.739c.055.478.1.957.139,1.439l-12.675,1.1.016.176,12.672-1.1c.039.479.079.958.1,1.441l-9.387.5a1.088,1.088,0,0,0-.256-.785c-.147-.219-.606-.07-1.363.181-.2.065-.416.136-.648.207a2.4,2.4,0,0,0-1.384,1.208,5.244,5.244,0,0,1-.432.6,1.958,1.958,0,0,1-.411.408.579.579,0,0,1,0-.074c0-.019,0-.04,0-.058a.2.2,0,0,1,.042-.1c.092-.146.138-.291-.222-.591A1.174,1.174,0,0,1,49.015,45a.273.273,0,0,0-.086-.222c-.128-.1-.358-.055-.649,0l-.062.013a.44.44,0,0,1-.489-.12.78.78,0,0,0,.142-.742.319.319,0,0,0-.194-.259,1.387,1.387,0,0,0-1.018.228c-.149.1-.151.1-.21.065a.987.987,0,0,0-.157-.07c-.275-.091-.293-.07-.618.256-.045.045-.074.076-.1.1-.045.049-.045.049-.128.074s-.189.057-.413.141c-.191.073-.322.083-.38.031-.087-.078-.028-.306.019-.489l.015-.058c.078-.316.1-.521-.269-.706-.34-.17-.6.21-.766.465l-.029.042a.394.394,0,0,0-.068.251,1.651,1.651,0,0,0-.262-.5c-.369-.491-.308-.58-.186-.756a1.146,1.146,0,0,0,.112-.183,1.094,1.094,0,0,0-.186-.809c-.021-.039-.042-.079-.065-.126-.149-.219-.606-.068-1.363.181-.2.065-.414.138-.648.209a2.376,2.376,0,0,0-1.384,1.2,4.976,4.976,0,0,1-.431.6,2.118,2.118,0,0,1-.411.408.553.553,0,0,1,0-.073c0-.019,0-.04,0-.06a.211.211,0,0,1,.042-.1c.091-.146.136-.29-.232-.6a.694.694,0,0,1-.233-.22c-.018-.023-.036-.045-.053-.066.2-.243.3-.363.345-.416a.211.211,0,0,0,.181-.026.89.89,0,0,0,.683-1.031.322.322,0,0,0-.194-.261,1.38,1.38,0,0,0-1.02.23c-.151.1-.149.1-.21.063a.922.922,0,0,0-.157-.07c-.217-.071-.277-.019-.439.113-.047.039-.1.084-.18.142s-.1.108-.128.138c-.039.045-.039.045-.115.062-.029.006-.068.015-.118.028A.534.534,0,0,0,36.743,42a1.572,1.572,0,0,1-.159-.066c-.071-.024-.157-.045-.2.008s-.013.144.039.249c-.1.023-.207.029-.254-.028-.066-.081-.023-.29.123-.583.078-.316.1-.521-.27-.706-.342-.17-.6.21-.766.465l-.028.04a.357.357,0,0,0-.066.191,1.568,1.568,0,0,0-.185-.356c-.368-.491-.306-.58-.185-.754a1.408,1.408,0,0,0,.112-.185,1.029,1.029,0,0,0-.253-.853c-.149-.22-.6-.07-1.362.181-.2.065-.414.136-.648.207a2.379,2.379,0,0,0-1.384,1.206l-.07.107v-17.5C31.14,19.9,29.228,14.471,26.2,9.678l1.791-7.46c.46.1.921.2,1.376.322l-2.1,7.847.173.045,2.1-7.844c.455.12.9.251,1.353.385l-2.806,9.042.17.052,2.807-9.045c.466.141.929.293,1.389.448l-2.979,8.705.168.057,2.981-8.7c.45.154.9.309,1.345.478l-3.84,9.8.165.065,3.84-9.8c.455.173.91.348,1.357.536l-4.219,9.847.164.07,4.222-9.852c.434.185.858.385,1.285.583L32.655,14.37l.16.074L37.1,5.328c.439.2.873.416,1.3.633L32.657,17.14l.157.081L38.563,6.042c.408.209.819.414,1.221.635l-5.82,10.46.155.087L39.938,6.766c.414.228.822.465,1.227.706l-5.812,9.664.152.091L41.32,7.561c.424.254.839.52,1.255.788l-5.752,8.783.147.1,5.754-8.785c.389.253.774.508,1.154.772l-5.586,7.912.144.1,5.586-7.914c.411.287.822.572,1.222.871L38.7,18.759l.141.107L45.384,10.3c.366.277.724.562,1.08.848l-7.352,9,.138.112,7.353-9c.369.3.732.607,1.091.918l-7.52,8.616.133.117,7.522-8.616c.372.324.742.649,1.1.984l-7.776,8.247.13.121L49.061,13.4c.334.311.665.623.989.944l-7.669,7.669.125.126,7.674-7.672c.348.348.683.709,1.02,1.069L39.609,26.252ZM20.351,59.067l0,.013c-.285-.227-.633-.39-.746-.787-.164-.489,0-1.141-.244-1.713-.408-.979-1.632-1.06-2.121-1.06-.816,0-.979.081-2.04.733a1.463,1.463,0,0,1-.325.735c-.816.816-2.121.489-2.937,1.794a2.53,2.53,0,0,0-.282.646L6.073,60.479c-.045-.586-.047-1.234-.047-1.614,0-.181-.015-.484-.034-.834-.019-.413-.045-.879-.047-1.235h.018a.218.218,0,0,0,.21-.118.8.8,0,0,0-.05-.572,1.2,1.2,0,0,0,.244.108.125.125,0,0,0,.13.018c.07-.044.053-.165.024-.358a1,1,0,0,1-.021-.236,2.533,2.533,0,0,0,.578-.416c.128-.173.236-.342.332-.491.266-.414.458-.716.853-.716A1.828,1.828,0,0,1,9,54.173a.888.888,0,0,0,.334.087l.006,0c.058-.015.11-.023.154-.031.1-.018.168-.031.207-.089s.034-.165,0-.35a1.307,1.307,0,0,0-.06-.13.345.345,0,0,0,.042-.042.936.936,0,0,0,.125-.157.247.247,0,0,1,.018-.026.985.985,0,0,1,.031.128,1.2,1.2,0,0,1-.063.346c-.029.105-.047.167,0,.2s.121,0,.382-.183c.07-.05.121-.068.152-.052.083.042.081.321.079.523,0,.29,0,.471.1.526a.14.14,0,0,0,.151-.015.531.531,0,0,0,.3-.515c.01-.147.013-.215.157-.215a.606.606,0,0,1,.076.018.069.069,0,0,0-.006.063c.019.053.092.113.746.244l.117.024c.695.138.9.18,1,.089.063-.062.045-.167.018-.324l-.016-.092a1.312,1.312,0,0,0-.147-.324l-.04-.073c.023.006.058.018.117.04a1.04,1.04,0,0,0,.614.232.169.169,0,0,0,.107-.087,2.447,2.447,0,0,1,.217-.359.562.562,0,0,0,.257.023.5.5,0,0,0,.334-.225.858.858,0,0,0,.128-.8c-.024-.121-.045-.225,0-.264s.178-.037.4.018c.029.01.123.042.175-.018.076-.091-.031-.3-.207-.623a1.707,1.707,0,0,1-.193-.418l.008,0a1.338,1.338,0,0,1,.536.142c.358.133.581.209.68.123a.151.151,0,0,0,.036-.164.532.532,0,0,1,.011-.536,1.519,1.519,0,0,0,.071-.16.745.745,0,0,1,.168-.181,1.274,1.274,0,0,0,.317-.385c.019-.032.047-.079.024-.121s-.1-.057-.209-.06a.872.872,0,0,1-.717-.282c-.123-.144-.121-.2-.113-.212.018-.044.157-.055.28-.065.219-.016.492-.037.572-.24.1-.159.39-.7.173-1-.149-.207-.5-.249-1.036-.13a3.019,3.019,0,0,0-.521.125.969.969,0,0,0,0-.251c-.091-.547.026-.722.112-.85a.34.34,0,0,0,.049-.382c-.3-.745-.6-1.177-.911-1.285a.436.436,0,0,0-.379.039,4.51,4.51,0,0,0-.38.248.8.8,0,0,1-.236.139.012.012,0,0,1-.008,0c-.011-.006-.039-.044-.039-.264a1.672,1.672,0,0,0-.423-1.094.266.266,0,0,0-.112-.053c-.118-.036-.282-.084-.282-.484,0-.478-.105-.827-.283-.937a.268.268,0,0,0-.269,0c-.105.021-.159.045-.181.083a.1.1,0,0,0,0,.089c0,.018.006.024,0,.031s-.066.065-.295.121a1.913,1.913,0,0,0-.563.168.7.7,0,0,1-.13.05h0c-.008-.011-.015-.065.011-.248.016-.1.026-.186.032-.253.023-.2.024-.207.139-.2.031,0,.066,0,.1,0a.829.829,0,0,0,.712-.07.315.315,0,0,0,.078-.311.7.7,0,0,0-.256-.491.454.454,0,0,0-.369-.036.911.911,0,0,1-.38-.021c-.194-.039-.379-.078-.541.2a2.847,2.847,0,0,0-.194.217c-.123.147-.149.178-.426.178a.672.672,0,0,0-.371.117l-.019.01c0-.053.018-.16.029-.236s.016-.146.023-.2c.01-.083.018-.147.024-.176l0,0a.4.4,0,0,0,.24,0,.341.341,0,0,0,.274-.34c0-.079-.065-.343-.607-.4a2.3,2.3,0,0,0-.9.065.39.39,0,0,1-.223.024.647.647,0,0,1-.1-.27c-.026-.126-.047-.225-.121-.241s-.125.049-.175.115a.69.69,0,0,1-.7.228c-.021-.013-.086-.049-.036-.178.176-.236.256-.371.2-.45s-.155-.052-.254-.026a.763.763,0,0,0-.356.168.361.361,0,0,1-.369.076,1.482,1.482,0,0,1-.484-.123c-.175-.066-.314-.118-.4-.06a.163.163,0,0,0-.062.147.685.685,0,0,0,.206.389c.178.219.332.406.055.636-.358.3-.312.445-.222.591a.2.2,0,0,1,.042.1c0,.019,0,.04,0,.06a.554.554,0,0,1,0,.073.963.963,0,0,1-.2-.178V25.5c2.773,1.8,3.507,4.65,4.567,6.69l-.652.733c.572.083.9-.164,1.143,0-.816,1.3-1.632,1.876-2.04,3.018a8.626,8.626,0,0,1,2.448-.081c-.979.408-2.448.244-3.1,1.387a16.175,16.175,0,0,0,2.692.978,17.531,17.531,0,0,0,2.935-.978c-1.3-1.876-.978-3.916-2.2-5.221.652-1.3,1.3-2.04,1.957-3.345a50.056,50.056,0,0,1,4.161,5.139l-.9.979a5.61,5.61,0,0,1,2.038-.081c-2.529-.164-2.365,2.446-3.1,3.915,1.222-.164,2.038-.408,2.529-.408.57,0,.408.164.57.327a9.84,9.84,0,0,1-2.691.57,1.559,1.559,0,0,0-1.307,1.307,18.757,18.757,0,0,0,3.672,1.63,9.982,9.982,0,0,0,3.67-1.63,8.141,8.141,0,0,0-.572-1.224,40.432,40.432,0,0,1-2.2-5.547c0-.735,3.589-4.08,4.161-4.486a22.361,22.361,0,0,0,1.957,3.1l-.652.735c.572.081.978-.164,1.3,0a4.8,4.8,0,0,0-2.2,3.181,5.425,5.425,0,0,1,1.549-.408c.572,0,.489,0,.652.081-.979.489-2.04.327-2.692,1.632a9.578,9.578,0,0,0,2.448.978,17.541,17.541,0,0,0,2.937-.978c-.652-1.876-2.2-4.977-2.2-5.547s2.448-3.753,3.834-5.955V40.768a1.473,1.473,0,0,1-.117-.665.268.268,0,0,0-.086-.222c-.128-.1-.358-.057-.649,0l-.053.011a.209.209,0,0,0-.162.108c-.05.11.034.254.094.359l.015.026-.008,0a1.555,1.555,0,0,1-.343-.159c-.149-.084-.236-.134-.3-.084s-.029.12.015.223a1.458,1.458,0,0,1,.044.72.782.782,0,0,0-.3-.288.882.882,0,0,1-.131-.089.1.1,0,0,0,.062-.071c.008-.044-.018-.094-.079-.154a.409.409,0,0,0-.311-.157,1.287,1.287,0,0,0-.784.282.175.175,0,0,0-.034-.06c-.076-.086-.257-.113-.546-.083-.34.037-.4.16-.4.257.011.194.342.4.554.4h0c.155.04.151.076.13.256a1.814,1.814,0,0,0,0,.521c.011.078.026.185.028.238l-.018-.011a.679.679,0,0,0-.371-.115c-.317,0-.317,0-.484-.219-.036-.047-.078-.1-.13-.167-.066-.113-.121-.164-.183-.17s-.12.042-.173.1a.326.326,0,0,1-.325.133.456.456,0,0,0-.371.036.7.7,0,0,0-.256.491c-.026.13-.015.209.036.253.074.065.2.018.361-.042a2.387,2.387,0,0,1,.23-.076.791.791,0,0,1,.125-.024.365.365,0,0,1,0,.06,1.538,1.538,0,0,0,.063.5,1.769,1.769,0,0,1,.026.244c-.021-.006-.055-.023-.087-.036a1.8,1.8,0,0,0-.615-.178c-.233-.058-.288-.1-.3-.123s0-.013,0-.031a.109.109,0,0,0,0-.089c-.024-.037-.076-.062-.183-.083a.262.262,0,0,0-.267,0c-.178.11-.283.46-.283.937,0,.4-.164.448-.282.486a.265.265,0,0,0-.1.045,1.506,1.506,0,0,0-.431,1.1.22.22,0,0,1-.015.1h0c-.036,0-.144-.108-.209-.173-.139-.141-.272-.28-.389-.238-.065.023-.1.1-.12.22-.154,1.022-.55,1.047-.9,1.072-.2.011-.382.024-.482.223a.338.338,0,0,0,.062.392,1.051,1.051,0,0,1,.18.845,1.021,1.021,0,0,0,.217.763c-.11-.034-.291-.086-.568-.151-.563-.125-.936-.065-1.114.183a1.035,1.035,0,0,0,.083,1.022c.113.287.105.3-.047.573-.052.092-.117.206-.2.368-.112.222-.133.363-.065.442.1.118.33.05.555-.013.047-.015.092-.028.133-.037l.015-.006c.065-.044.125-.094.178-.136.074-.062.154-.133.2-.121.015,0,.032.029.045.07a.581.581,0,0,0,.121.2c.083.1.141.173.04.429a1.451,1.451,0,0,1-.126.335c-.071.147-.126.264-.07.355.044.07.142.1.322.1.4,0,.589.3.855.716.1.149.2.317.33.487a.382.382,0,0,0,.287.2h0c.167,0,.3-.181.445-.372a1.115,1.115,0,0,1,.382-.379c.448-.18.6-.463.682-1.263.006-.066.021-.183.032-.28,0,0,0,.008,0,.011.01.057.021.121.036.191a3.092,3.092,0,0,1,.039.317c.023.256.042.476.172.531.073.031.159,0,.272-.086a1.8,1.8,0,0,0,.445-.68c.087-.191.168-.371.259-.371a.8.8,0,0,1,.356.269,1.223,1.223,0,0,1,.332.9,1.3,1.3,0,0,1-.032.188c-.023-.045-.05-.128-.076-.2a2.761,2.761,0,0,0-.212-.5c-.076-.125-.134-.18-.2-.181h0c-.076,0-.125.073-.183.155a.706.706,0,0,1-.256.257c-.22.165-.236.2-.236.309a.775.775,0,0,1-.026.209c-.028.136-.206.133-.492.11-.306-.023-.682-.052-.732.3a1.275,1.275,0,0,0,.01.439.276.276,0,0,1,.01.076,1.121,1.121,0,0,1-.3.016c-.249,0-.325,0-.355.057s0,.1.063.185a2.239,2.239,0,0,1,.249.479.826.826,0,0,1,.078.387v.113l.078-.081a1.481,1.481,0,0,1,.47-.314.13.13,0,0,1,.023.11l-.015.089c-.029.157-.047.261.016.324.094.091.3.049,1-.091l.118-.024c.4-.086.482-.151.481-.22,0-.052-.047-.087-.138-.117a.442.442,0,0,1,.16.068c.049.026.113.058.2.1.123.073.181.1.228.073s.037-.089.026-.2a2.453,2.453,0,0,1,.062-.967l.068-.282c.011-.05.023-.094.031-.13a1.155,1.155,0,0,0,.4.52c.338.241.351.275.379.348a1.034,1.034,0,0,0,.183.3c.065.081.151.172.233.141.112-.04.11-.257.1-.607,0-.074,0-.149,0-.215a.979.979,0,0,1,.006-.128c.011.013.024.029.034.042a1.069,1.069,0,0,0,.207.2c.058.057.1.052.125.036.074-.047.05-.251.013-.421l.115-.228-.023-.024c-.008-.008-.008-.011-.008-.011a.277.277,0,0,1,.219-.071,1.477,1.477,0,0,1,.525.144.237.237,0,0,1-.074.191,1.575,1.575,0,0,1-.225.248,1.577,1.577,0,0,0-.432.584c-.036.176-.047.277,0,.342s.108.071.207.089c.044.008.1.016.151.031a.09.09,0,0,0,.1-.013c.047-.044.026-.126-.006-.249s-.084-.317-.015-.406a.219.219,0,0,1,.181-.063c.4,0,.589.3.855.716.1.149.2.317.332.489a.507.507,0,0,0,.335.243.373.373,0,0,0,.272-.125l.21.21c-.081-.006-.17-.019-.262-.031a3.98,3.98,0,0,0-.518-.045c-.256,0-.324,0-.351.055s.013.1.084.188a2.609,2.609,0,0,1,.308.476.844.844,0,0,1,.076.387v.113l.079-.081a1.527,1.527,0,0,1,.471-.314c.052-.018.1-.036.138-.053a1.055,1.055,0,0,0-.115.243q-.012.046-.024.087c-.034.13-.057.214,0,.274s.155.066.436.029c0,.368.026.905.047,1.383.019.4.034.751.034.931,0,.389-.039,1.263-.115,1.964ZM19.2,62.861a5.432,5.432,0,0,1,2.529-1.3,20.838,20.838,0,0,1-2.2,2.611c-.244-.164-1.794-1.307-1.794-1.713,0-.327.164-.572.164-1.06a10.405,10.405,0,0,0,1.06-.327V62.78s-.083.081.244.081M16.83,60.9c-.327,0-.979-.164-1.551-.244l-.244.244c.9,1.876,6.934,4.894,6.934,7.26,0,1.143-2.04,1.876-2.529,2.121A6.163,6.163,0,0,0,19.276,68c-.408-1.713-7.179-4.732-7.179-7.1,0-2.121,2.121-2.937,3.427-2.937a7.572,7.572,0,0,1,4.323,1.551A4.043,4.043,0,0,1,16.83,60.9m-3.508,11.42c0-.816,1.8-1.713,2.529-2.121a5.063,5.063,0,0,0,.572,2.61c1.632,2.284,5.058,4,5.058,5.548,0,1.06-1.468,1.63-2.284,1.957V78.686c0-1.876-5.791-4.078-5.874-6.363m1.468,9.3c-.081-.652.816-.9,1.468-1.06a3.841,3.841,0,0,0,1.549,2.04c.408.162,2.611,1.467,2.529,2.365,0,.733-.57.733-1.3,1.386a7.515,7.515,0,0,0-.081-1.3c-1.224-.979-3.916-2.04-4.161-3.426m3.672,7.587s0,.162-.327.162-.572-.244-.735-.652V84.8c1.062,0,1.143,1.549,1.143,2.04a12.585,12.585,0,0,1-.081,2.365m.162-6.853a9.431,9.431,0,0,1-1.06-.814V77.707c.491.246,1.06.816,1.06,1.224Zm.164-8.076a2.231,2.231,0,0,1-1.06-1.386V67.349a4.107,4.107,0,0,1,1.06.733Zm-1.06-16.64v-1.06H18.3c.325,0,.489.325.733.571v.9c-.489-.164-.9-.244-1.3-.408M-27.822,46.792c0-.214.015-.424.016-.636l8.22.144c-.173.155-.154.335-.092.584l.016.062c.045.181.1.408.018.486-.057.052-.188.04-.38-.031-.225-.084-.343-.121-.413-.142s-.084-.024-.128-.074c-.021-.023-.05-.053-.1-.1-.073-.053-.128-.1-.175-.138-.164-.134-.227-.185-.439-.113a.807.807,0,0,0-.157.07c-.06.034-.062.034-.21-.065a1.391,1.391,0,0,0-1.02-.228.322.322,0,0,0-.194.259.879.879,0,0,0,.11.586l-5.05.06c0-.24-.021-.478-.021-.719m5.88,6.894a.13.13,0,0,0,.121.036c.144-.036.243-.314.387-.771.068-.214.181-.572.243-.583,0,0,.018.006.045.068a3.549,3.549,0,0,1-.074,1.736l-.761.076-.832-.831Zm-.1,3.249.865-1.337a.828.828,0,0,1,.193.494c0,.283.62.751.889.941a5.349,5.349,0,0,1-1.954-.079s.006-.016.008-.018m-3.044-2.594a2.478,2.478,0,0,1,.646-.074c.39,0,.785.07.876.223.039.068.006.155-.1.261a2.472,2.472,0,0,1-.652.317c-.317.118-.591.223-.659.414-.047.018-.091.037-.13.053-.068.029-.142.063-.165.047s-.029-.031-.029-.146a2.507,2.507,0,0,0-.055-.468c-.06-.327-.1-.525.266-.628m5.1,3.142c.023-.031.076-.042.191-.042.1,0,.1.011.11.073.021.134.073.275.44.413L-19.1,58l.149.327a2.487,2.487,0,0,1-.954-.287c-.087-.306-.13-.5-.084-.559m1.284-.559a.221.221,0,0,1-.018.047c0-.031,0-.049,0-.05l0,0,.013,0m.555-6.978,1.047.916a7.21,7.21,0,0,1-1.591.856H-18.7c0-.024.037-.1.249-.332a1.781,1.781,0,0,0,.306-1.441m5.668,5.045-.011.01a.5.5,0,0,0-.019.544v0c-.081-.04-.238-.133-.413-.235a1.851,1.851,0,0,1-.2-.118c-.036-.024-.073-.05-.115-.074a4.156,4.156,0,0,0,.468-.209l.015-.006a1.722,1.722,0,0,1,.63-.312.986.986,0,0,1-.355.4m-.6,3.431c-.024-.272-.06-.682-.062-1.171a2,2,0,0,1,.379-.222l1.253-.547a.751.751,0,0,1,0,.134.423.423,0,0,0,.076.342.726.726,0,0,0,.513.155,2.946,2.946,0,0,1-.827.531c-.029.013-.053.026-.078.037a6.414,6.414,0,0,0-.894,1.009c-.062.079-.121.155-.178.225a.7.7,0,0,1-.164.17.97.97,0,0,1,0-.212c0-.055,0-.115,0-.173s-.008-.149-.019-.278m1.2-1.97-.018,0c-.278.112-.416.055-.46.024s-.049-.05-.049-.063v-.112l-.16.16-.008.013a2.848,2.848,0,0,1-.654.586l-.07-.764c.338,0,.547-.008.7-.015a2.367,2.367,0,0,1,.85.091.231.231,0,0,1-.134.076M-11,45.529c-.053.066-.065.079-.337.244a.777.777,0,0,0-.308.293,1.27,1.27,0,0,1,.049-.644l0-.018a.586.586,0,0,1,.136-.278l.031.008a.167.167,0,0,0,.214-.078.214.214,0,0,0,.123.021,1.978,1.978,0,0,0,.206.322c-.06.063-.092.1-.117.13m-5.433,13.251c.165.149.28.251.41.251a.166.166,0,0,0,.028,0c.181-.021.361-.236.808-.874a8.971,8.971,0,0,1,.707-.967c.1-.12.131-.155.112-.2s-.06-.047-.134-.055a1.677,1.677,0,0,1-.541-.149,2.246,2.246,0,0,1-.842-1.03c-.147-.282-.266-.5-.418-.546a.212.212,0,0,0-.172.028c-.057.034-.126.079-.2.126a2.235,2.235,0,0,1-.584.312c-.006-.015-.015-.108.356-.615a8.924,8.924,0,0,0,.573-.839,1.517,1.517,0,0,1,.254-.355.2.2,0,0,0,.083.078.5.5,0,0,1,.07.049.378.378,0,0,0,.044.121.266.266,0,0,1,.036.1l0,.016a2.518,2.518,0,0,1,.094.983c-.011.343-.021.615.133.7.117.065.295,0,.576-.191a2.749,2.749,0,0,1,.478-.246l.049-.023a.7.7,0,0,0-.11.538.261.261,0,0,0,.165.134.984.984,0,0,0,.083.466c.079.316.157.633.238.949a.731.731,0,0,0-.253.505,3.333,3.333,0,0,1-.228.72,3.911,3.911,0,0,0-.253,1.689c0,.074,0,.142,0,.2,0,.465-.006.688-.117.688a3.127,3.127,0,0,1-1.1-.954,1.088,1.088,0,0,0-.094-.157c-.076-.1-.1-.142-.228-1.133-.016-.131-.032-.244-.052-.342l.024.019m1.656-9.24a.5.5,0,0,1-.41.283.5.5,0,0,1-.41-.283,1.516,1.516,0,0,1-.139-.358.96.96,0,0,0-.662-.764l.295-.118a1.181,1.181,0,0,1,1.256.078c.536.384.319.745.07,1.162m.329,10.149c.015-.058.034-.144.058-.251a9.721,9.721,0,0,1,.461-1.606,2.613,2.613,0,0,1,.206.868l0,.021c.165.329.142.366-.011.61a4.133,4.133,0,0,0-.233.41,9.925,9.925,0,0,0-.432,1.177,5.231,5.231,0,0,1-.052-1.229m.808-1.854a1.257,1.257,0,0,0-.066-.194.7.7,0,0,1,.308-.253c-.008.436-.078.628-.123.648-.008.006-.034-.013-.042-.021a.444.444,0,0,1-.076-.18m.162-.708-.316.251v-.016l-.021.021c-.049-.207-.1-.468-.144-.722-.023-.123-.047-.246-.07-.363h.55ZM-11.069,45Zm1.287,1.538c0-.026-.008-.05-.011-.073l.1.049.053.013c.178.045.423.1.437.181.006.031-.029.078-.105.136a.452.452,0,0,1-.481.087.854.854,0,0,0,.006-.393M-8.036,52.3c.01-.142.019-.3.031-.487.11-.016.207-.032.293-.047.389-.07.538-.1.853.283.189.191.593.176.913.164a1.656,1.656,0,0,1,.358.008,4.345,4.345,0,0,0-2.2.8.918.918,0,0,1-.244.141l-.008,0a2.536,2.536,0,0,1,0-.865m-.538,4.773a1.613,1.613,0,0,1,.274-.8l.1.2a.116.116,0,0,0-.062.1,2.965,2.965,0,0,0-.207.491c-.024.07-.053.151-.074.2a1.074,1.074,0,0,1-.032-.183m1.512-.834c.074.081.113.125.172.113s.076-.086.108-.243a1.327,1.327,0,0,0,.066-.18c.006-.021.015-.045.023-.066,0,.018.01.036.015.055a.955.955,0,0,1,.05.262c.013.108.024.21.036.3.052.47.086.784.29.937v.147a3.512,3.512,0,0,1,.062.487,1.174,1.174,0,0,1-.089-.079,1.711,1.711,0,0,0-.393-.295.651.651,0,0,1-.353-.327.973.973,0,0,0-.358-.39c-.015-.092-.1-.178-.264-.257a.979.979,0,0,1-.23-.241c-.081-.107-.16-.206-.262-.186l-.13-.259a.68.68,0,0,1,.351-.207.464.464,0,0,0,.123-.021c.105-.029.212-.057.5.173a2.239,2.239,0,0,1,.283.272M-5.3,47.169a1.554,1.554,0,0,1,.287-.576h.157l.011-.008a.748.748,0,0,0,.07-.047c.188-.133.28-.2.769.287A.825.825,0,0,0-3.15,47c.021,0,.029.018.029.1l-.068.066a1.162,1.162,0,0,0-.128.17,1.237,1.237,0,0,1-.117.157.257.257,0,0,1-.212.068l-.015,0a.806.806,0,0,1-.4.018,1.769,1.769,0,0,0-.219-.019,1.041,1.041,0,0,0-.753-.327,1.142,1.142,0,0,1-.267-.065m.468,10.744c.092-.123.173-.248.251-.366a4.767,4.767,0,0,1,.28-.4,2.958,2.958,0,0,0,.036,1.308c-.134.811-.291,1.175-.359,1.175a.974.974,0,0,1-.28-.372.782.782,0,0,1,.079-.3,2.092,2.092,0,0,1,.248-.474c.057-.089.089-.136.063-.185s-.107-.057-.356-.057a2.243,2.243,0,0,0-.374.042,2.3,2.3,0,0,1-.33.039l-.071-.142a1.363,1.363,0,0,0-.1-.131c-.057-.066-.074-.086-.118-.38.04.036.081.074.121.115a.9.9,0,0,0,.546.335h.019a.5.5,0,0,0,.348-.21M-1.977,52.4a.926.926,0,0,1,.612-.113.208.208,0,0,1,.12.065v.105a3.937,3.937,0,0,1-.732-.057m.827.47a.6.6,0,0,0,.065-.021.723.723,0,0,1,.274-.053c.01.01.019.021.031.034a.785.785,0,0,0,.4.272,2.407,2.407,0,0,1-.568.563.292.292,0,0,1-.044-.194c-.032-.125-.063-.223-.089-.312a1.343,1.343,0,0,1-.071-.288M0,53.234a5.594,5.594,0,0,0,.225-.523H.253a1.75,1.75,0,0,0,.7.126A4.036,4.036,0,0,1,1.964,53c-.244.144-.538.278-.8.4a2.641,2.641,0,0,0-.818.466Zm1.872-3.175.4-.108a.287.287,0,0,0,.049.112c-.081,0-.165-.006-.248-.006s-.136,0-.2,0m.978-6.1-.006,0c-.176-.062-.334-.113-.478.011a1.884,1.884,0,0,1,.152-.581,6.442,6.442,0,0,1,.685-.907ZM3.118,55.03l.042.173.008.042c.032.178.057.312.065.385-.008-.008-.018-.016-.026-.026a1.712,1.712,0,0,0-.324-.256.907.907,0,0,0,.235-.319m-.133-4.635c.1.026.2.05.3.076.385.091.78.185.842.355a2.764,2.764,0,0,0-.58.113c-.05.013-.1.028-.159.04a1.8,1.8,0,0,0-.408-.584m2.8-2.984c-.142.083-.253.159-.343.219-.107.074-.2.139-.233.125-.016-.006-.029-.039-.04-.076V46.238a.893.893,0,0,1,.377.181.693.693,0,0,1,.24.991M4.872,55.4a1.729,1.729,0,0,1-.238-.756l.008-.015,0-.016a.759.759,0,0,1-.026-.207c0-.113-.016-.144-.232-.3l-.049-.05c.087-.1.228-.316.382-.544l.021-.032-.22-.2c.29.2.529.317.672.269a.157.157,0,0,0,.1-.131c.015-.07.026-.134.037-.191a.021.021,0,0,1,0-.01c.013.1.024.21.032.274,0,.151.277.29.6.45.222.11.521.261.544.355a6.142,6.142,0,0,1-.534.646,4.234,4.234,0,0,0-.753.991,1.944,1.944,0,0,1-.329-.489l.006-.028Zm-.492.489c-.008-.159-.016-.324.074-.4a.381.381,0,0,1,.329-.018,6.339,6.339,0,0,0-.037.719,4.835,4.835,0,0,1-.062.9c-.058-.1-.206-.474-.351-.855a.563.563,0,0,0,.047-.348M7.8,44.838l.2.04a.66.66,0,0,1,.259.3Zm.526.448.584.44-.643.385a1.491,1.491,0,0,0,.058-.826m1.357,6.236a1.07,1.07,0,0,1,0,.12,2.5,2.5,0,0,1-.118-.256c.076.029.123.063.123.136m.021-.61c-.039.026-.073.049-.1.071a.022.022,0,0,1,0-.006l0-.011c.058-.176-.159-.277-.368-.372a1.4,1.4,0,0,1-.327-.186,3.381,3.381,0,0,1,.863-.157,1.126,1.126,0,0,0,.176.139c.078.053.144.1.144.147,0,.076-.13.2-.4.376m-.73,1.857a1.466,1.466,0,0,1,.5-.139,1.423,1.423,0,0,1,.186.751.329.329,0,0,1-.06.176l-.018.016a5.774,5.774,0,0,0-.434-.581c-.068-.084-.144-.178-.173-.223m1.716-7.58.278-.975.557.905ZM12.441,48.7a.645.645,0,0,0-.55-.018,3.4,3.4,0,0,1-.452.1c-.1.013-.16,0-.185-.04-.068-.11.1-.426.222-.609l1.494-.471.521,1.192c-.2-.023-.729-.087-1.051-.152m.759,4.613a1.264,1.264,0,0,1-.991-.117.517.517,0,0,0-.308-.149.251.251,0,0,0-.05,0c-.008-.028-.019-.084-.034-.159a.743.743,0,0,1-.026-.206c0-.113-.016-.144-.244-.314a.692.692,0,0,1-.248-.251c-.058-.084-.107-.157-.181-.157h0c-.065,0-.123.057-.2.181a2.792,2.792,0,0,0-.215.5c-.024.07-.053.151-.074.2a1.592,1.592,0,0,1-.032-.188,1.209,1.209,0,0,1,.332-.9.787.787,0,0,1,.356-.27.671.671,0,0,0,.185-.045c.123-.04.277-.092.356-.036a.237.237,0,0,1,.065.2c0,.447.07.672.212.685.164.018.325-.293.371-.513.013-.079.023-.152.032-.215a.408.408,0,0,0,.006-.044c.013.094.026.2.032.261.045.2.071.384.094.546.06.421.1.727.426.795a2.134,2.134,0,0,1,.254.172.1.1,0,0,1,.016.011l-.133.016M-22,47.853Zm.733.978a1.339,1.339,0,0,0,.463.293c.052.021.105.044.178.079l.055.013c.178.044.421.1.437.181.006.031-.031.078-.1.131a.827.827,0,0,1-.583.131,1.349,1.349,0,0,0-.377.023.549.549,0,0,0-.4.332c-.008.015-.013.021-.019.034l-.083.006a.826.826,0,0,0-.11-.766,2,2,0,0,0-.491-.41ZM-23.877,50.5c-.018,0-.045-.023-.078-.073l.232-.019c-.06.063-.115.1-.154.092m-.41,1.09c.094-.1.16-.164.248-.165h0a.523.523,0,0,1,.272.136l-.559.07Zm.7.128c.028.028.053.05.086.081a.957.957,0,0,0,1.025.181l.006,0c-.049.06-.13.149-.219.249a1.623,1.623,0,0,0-.389,1.035c0,.018,0,.036,0,.053-.04-.04-.1-.105-.191-.191l-.1-.112c-.512-.588-.766-.882-1.251-.719a.6.6,0,0,1-.508-.253,1.451,1.451,0,0,0-.13-.117Zm5.331,6.557a.039.039,0,0,0,.034,0c.04-.01.04-.047.039-.091,0-.07-.006-.217.079-.277.065-.047.175-.042.327.015a4.5,4.5,0,0,1,.886.484c.031.21.108.716.227,1.439a3.088,3.088,0,0,1,.06.518,1.213,1.213,0,0,1-.128-.112,2.733,2.733,0,0,0-.348-.29c-.241-.16-.248-.21-.256-.264-.013-.078-.039-.151-.235-.308a1.391,1.391,0,0,0-.652-.251,1.332,1.332,0,0,0-.406-.324l-.176-.392a.96.96,0,0,0,.55-.154m-4.371-10.648a.883.883,0,0,0,.447.269.254.254,0,0,0,.16.036,2.841,2.841,0,0,0,.311.44c.1.117.189.209.269.288l-2.543.121a.134.134,0,0,0-.126,0s0,.006,0,.01l-3.648.173c-.021-.423-.028-.847-.036-1.273Zm-1.538,1.341c0,.006,0,.011,0,.016-.023.113-.018.18.018.225s.118.062.212.068a.976.976,0,0,1,.521.162c.146.105.22.2.227.291.008.133-.125.259-.264.393-.031.029-.057.062-.086.091l-.491.042a1.894,1.894,0,0,1-.047-.212.884.884,0,0,1-.019-.191c0-.092-.032-.1-.118-.105a2.309,2.309,0,0,1-.474-.066,3.635,3.635,0,0,1-.782-.23c-.411-.151-.8-.295-1.007-.152a.392.392,0,0,0-.138.346,1.456,1.456,0,0,0,.217.816l-1.253.108c-.039-.476-.083-.95-.107-1.431Zm-2.1,1.661a.954.954,0,0,0,.675.288c.236,0,.481.233.7.44a1.191,1.191,0,0,0,.4.293l-1.781.219-.2-.062c-.233-.078-.368-.12-.45-.079a.289.289,0,0,0-.1.233l-.5.06c-.047-.421-.076-.848-.113-1.274Zm-.761,1.512c0,.04,0,.081.006.123.011.18.023.382-.05.437-.026.023-.073.023-.144,0a1.127,1.127,0,0,0-.217-.015c-.021-.164-.047-.324-.066-.486ZM-13.69,62.359a2.389,2.389,0,0,1-.108-1.114,1.3,1.3,0,0,0,.074-.361c.01-.144.015-.21.325-.521l.149-.181A15.509,15.509,0,0,1-10.813,57.6a4.218,4.218,0,0,1,.887-.162l.181-.084a.994.994,0,0,1,.016.155h-.311l.355.353c-.008.028-.015.057-.023.083-.045.172-.074.283-.013.329s.12-.01.146-.028a1,1,0,0,0,.214-.206l.036-.04a1.067,1.067,0,0,1,0,.126c0,.066,0,.141,0,.214-.01.351-.011.568.1.609.083.032.167-.058.235-.144.078-.117.1-.2.066-.253s-.125-.06-.2-.053c.028-.023.065-.05.12-.089a1.149,1.149,0,0,0,.4-.521c.008.036.019.081.031.13.018.074.04.167.068.283a2.445,2.445,0,0,1,.062.965c-.011.108-.019.168.026.2s.105,0,.225-.071a2.97,2.97,0,0,0,.291-.167c.078-.049.078-.047.2-.021.034.008.078.018.141.029.175,0,.183.01.2.028.042.055.112.149.855.3l.141.028c.711.142.9.18.981.1.042-.042.04-.1.026-.186A1.308,1.308,0,0,1-5,60.652c-.023.162-.042.283-.057.38a2.217,2.217,0,0,0-.042.581c.006.157.016.421.016.963l-8.49,1.6c0-.089,0-.176,0-.259.006-.309.013-.576.013-.729a3.933,3.933,0,0,0-.139-.829M-3.354,61.23c0-.217-.023-.525-.047-.85a8,8,0,0,1-.037-1.42,1.245,1.245,0,0,0,.071-.414c0-.157,0-.259.249-.554a5.694,5.694,0,0,1,.4-.482c.13-.146.275-.312.419-.492l.01-.013v-.016c0-.021.008-.029.028-.049a.156.156,0,0,0,.053-.1A7.558,7.558,0,0,1-.531,55.238a4.9,4.9,0,0,1,.822-.16l.016.049L.4,55.112v-.128H.358L.13,54.3l-.052.042A4.223,4.223,0,0,0-.578,55a3.327,3.327,0,0,1-.7.448c-.134.073-.262.141-.345.2a4.283,4.283,0,0,0-.787.855,1.889,1.889,0,0,0-.421-.486c-.039-.036-.078-.07-.112-.1v-.586h.117a.577.577,0,0,1,.295.149l.011.008c.21.107.589.264.72.123.079-.081.058-.235-.063-.465A.708.708,0,0,0-1.638,55,.666.666,0,0,1-1.5,54.91a1.2,1.2,0,0,0,.589-.662l.149-.076a2.146,2.146,0,0,0,.627-.751l.363.724a1.051,1.051,0,0,1-.01.149c-.008.062,0,.073.044.141.026.039.07.1.136.215a.794.794,0,0,1,.155.5H.24l.324.324,0,0c-.1.332-.1.411-.05.444s.1-.021.107-.032a1.058,1.058,0,0,0,.215-.206c.01-.013.023-.028.034-.04,0,.024,0,.066.006.136a.887.887,0,0,0,.652.593A.529.529,0,0,0,2.1,56.2a1.734,1.734,0,0,0,.2-.291c.034-.065.044-.083.257-.254l.126.063a1.487,1.487,0,0,0,.568.355.225.225,0,0,1,.151.113c0,.092,0,.167-.008.225-.008.121-.011.176.036.2s.087,0,.173-.053c.07.081.146.155.227.235a1.444,1.444,0,0,1,.552,1.328,4.484,4.484,0,0,0-.1,1.156c0,.206.015.516.015,1.051l-.015.343c0,.052,0,.092-.006.142l-7.6,1.431c-.021-.411-.034-.792-.034-1.017M23.11,27.052c-.978-1.387-1.875-2.937-2.773-4.405l7.587,1.386c-1.632.491-2.937,1.8-4.813,3.019m5.14-1.959h.816c-1.632,2.121-2.692,3.589-3.916,5.466-.572-.979-.979-1.3-1.468-2.284a9.39,9.39,0,0,1,4.569-3.181M7.041,24.032c2.773-.57,5.71-.978,8.484-1.63-1.06,1.468-2.2,3.018-3.181,4.4a15.055,15.055,0,0,0-5.3-2.773m4.65,3.753A19.311,19.311,0,0,1,10.3,30.722,16,16,0,0,0,6.8,25.256a9.462,9.462,0,0,1,4.9,2.529m6.117-5.466c1.8,0,4,4.65,4.488,5.547a61.73,61.73,0,0,0-4.569,4.894,49.484,49.484,0,0,0-4.405-5.139c.164-.408,2.692-5.3,4.486-5.3m3.181-5.71c0,1.3-.489,2.284-1.386,2.284-1.06,0-1.3-1.224-1.3-2.04,0-1.3.408-2.283,1.386-2.283,1.06,0,1.3,1.222,1.3,2.038m2.2-2.038c1.06,0,1.3,1.222,1.3,2.038,0,1.3-.489,2.284-1.387,2.284-1.06,0-1.3-1.224-1.3-2.04,0-1.3.408-2.283,1.387-2.283m1.965-6.448,1.219-6.24c.482.091.96.189,1.436.295l-1.75,7.3c-.293-.458-.593-.911-.905-1.353m-.144-.193c-.332-.463-.67-.918-1.022-1.358l.85-4.964c.457.07.907.16,1.36.243ZM23.842,6.393c-.359-.445-.729-.879-1.107-1.3L23.223,1.4c.482.055.965.112,1.443.183ZM22.576,4.931c-.392-.424-.793-.834-1.2-1.224l.235-2.464c.482.039.963.081,1.439.136ZM21.207,3.559c-.379-.351-.761-.691-1.153-1.01l.1-1.41c.429.021.853.06,1.279.092ZM19.885,2.42a17.893,17.893,0,0,0-1.927-1.339c.677,0,1.347.021,2.016.052Zm-4.732.2-.087-1.444c.661-.04,1.324-.062,1.993-.074-.649.47-1.284.978-1.906,1.519m-.168.144c-.377.335-.748.685-1.114,1.043l-.185-2.526c.4-.036.8-.065,1.2-.091Zm-1.279,1.2q-.585.583-1.145,1.2l-.479-3.7c.474-.06.949-.121,1.428-.167ZM12.4,5.335q-.576.641-1.119,1.31l-.748-4.964c.453-.074.91-.136,1.366-.2ZM11.132,6.827c-.356.442-.7.892-1.035,1.35L8.914,1.97c.479-.1.963-.178,1.447-.259ZM9.952,8.37c-.325.45-.638.908-.942,1.37l-1.7-7.41c.476-.113.95-.23,1.433-.329ZM8.874,9.941c-.28.431-.546.866-.806,1.3L5.788,2.718c.447-.123.894-.238,1.345-.348ZM17.563,2.5V20.689L5.246,23.216V21.5c0-4.242,7.423-17.375,12.317-19.005M12.669,37.166c-.572.083-1.3.572-1.876.572a13.557,13.557,0,0,0-2.446-.572c.652-.081,1.713-.57,2.284-.57a4.819,4.819,0,0,1,2.038.57m8.32,3.1a9.507,9.507,0,0,1-2.61.816,8.924,8.924,0,0,1-3.262-.816,11.007,11.007,0,0,1,2.937-.735,13.839,13.839,0,0,1,2.935.735m6.69-2.856c-.572.083-1.224.572-1.794.572-.408,0-1.387-.408-2.692-.572a6.993,6.993,0,0,1,2.121-.814,8.18,8.18,0,0,1,2.365.814M59.57,51.558l1.149.125a3.945,3.945,0,0,0-.557.6c-.092.113-.191.232-.295.351-.089.089-.154.154-.194.193,0-.016,0-.036,0-.053a1.607,1.607,0,0,0-.389-1.035c-.083-.092-.155-.175-.206-.233l.062.008a1.266,1.266,0,0,0,.432.047M57,54.011a3.566,3.566,0,0,1-.074-1.737.291.291,0,0,1,.047-.092,1.746,1.746,0,0,1,.2.529c.11.385.223.785.4.842a.158.158,0,0,0,.149-.031l.887-.272-.843.913Zm.037,1.506.784,1.332,0,0c.019.026.015.039.011.045-.073.155-.892.254-1.444.285a4.034,4.034,0,0,0,.457-1.174.826.826,0,0,1,.191-.492m-25.533.44c.016-.019.029-.036.172-.065h.081c-.055.1-.108.2-.162.3-.142.262-.319.589-.406.591a1.3,1.3,0,0,1-.272-.575c.5-.139.549-.2.588-.248M30.661,53c.008-.066.021-.183.034-.28a.1.1,0,0,1,0,.011c.008.057.021.121.036.191.032.167.052.236.108.249s.091-.037.155-.123a2.4,2.4,0,0,1,.183-.225l.13.2c.164.244.3.444.384.544l-.045.045c-.22.165-.236.2-.236.309a.814.814,0,0,1-.026.206.926.926,0,0,1-.562.589,3.344,3.344,0,0,0-.244-1.075,1.8,1.8,0,0,1,.081-.64M32.328,46.1a2.362,2.362,0,0,1-1.035.159.076.076,0,0,0-.079-.008,1.563,1.563,0,0,0-.4,1.1c-.023.139-.053.219-.091.233-.055.023-.175-.065-.327-.175q-.1-.075-.233-.165a.694.694,0,0,1,.238-.992c.411-.342,1.635-.266,2.038-.241l.044,0a.633.633,0,0,1-.154.086m.767,4.42c-.045.034-.17.115-.3.2a4.562,4.562,0,0,0-.818.589.457.457,0,0,1-.256-.057,2.894,2.894,0,0,0-.29-.691,3.509,3.509,0,0,1-.278-.641l1.634-.623c.094.332.291,1.052.309,1.224m-.351-8.288a3.556,3.556,0,0,1,.6.905,1.91,1.91,0,0,1,.151.591.288.288,0,0,0-.131-.026,1.2,1.2,0,0,0-.126.01c-.044,0-.091.008-.142.01Zm-.052,12.6.062-.256a1.5,1.5,0,0,0,.233.356,1.716,1.716,0,0,0-.334.261l-.026.026c.008-.073.032-.207.065-.387m-3.871-7.289c-.044.151-.091.332-.138.521-.183.725-.429,1.7-.843,1.7a.312.312,0,0,1-.039,0,.359.359,0,0,0-.029-.086.49.49,0,0,1-.047-.2,8.554,8.554,0,0,1,1.1-1.936m-2.237,3.56c-.115-.071-.256-.16-.431-.275-.219-.147-.21-.2-.209-.2.01-.042.241-.063.366-.073a1.068,1.068,0,0,0,.586-.149.387.387,0,0,1,.065-.058,1.784,1.784,0,0,0,.146.665c.013.039.026.074.037.108l0,.011c.147.219.079.363-.071.665a.988.988,0,0,1-.006-.12c0-.275-.112-.346-.487-.58m.115,1.477Zm-2.009-3.92c-.026.04-.089.053-.186.039a3.192,3.192,0,0,1-.452-.1.634.634,0,0,0-.546.016,6.591,6.591,0,0,0-1.051.144l.518-1.183,1.494.473c.125.181.288.5.222.609m.56-3.638-.837-.07.557-.905Zm1.693,7.8h0Zm14.051.9c.015-.162.026-.342.026-.5v-.141l1.6-1.266-1.579,1.922c-.016,0-.031-.013-.047-.019m.253,4.567a5.015,5.015,0,0,1-.559-.8l-.052-.083c.018,0,.036,0,.053,0,.366,0,.832-.411,1.145-.686l.126-.108a1.438,1.438,0,0,1-.523.661,1.416,1.416,0,0,0-.257.253l-.01.015Zm-1.8-3.253c.121.254.275.665.418,1.041.074.2.146.389.214.56A.145.145,0,0,0,40,56.615a.244.244,0,0,0-.228.1c-.117.2.139.646.41,1.114.094.164.193.334.267.482a.821.821,0,0,1,.076.376c-.031.052-.07.045-.168,0a.289.289,0,0,0-.105-.036,0,0,0,0,0,0,0,5.454,5.454,0,0,1-.774-1.912c0-.112,0-.243.01-.387a7.719,7.719,0,0,0-.034-1.311m1.047-1.682c-.081-.066-.162-.134-.243-.2a2.009,2.009,0,0,0,.063-.874c0-.144-.01-.319,0-.452.071.384.24,1.12.369,1.674-.06-.047-.123-.1-.185-.151m.565-6.325c-.112.034-.183.055-.206.115a1.053,1.053,0,0,0-.714.325,2.151,2.151,0,0,0-.219.019.787.787,0,0,1-.4-.016l-.015,0a.241.241,0,0,1-.1-.036.377.377,0,0,0-.121-.044,1.205,1.205,0,0,1-.1-.142,1.185,1.185,0,0,0-.13-.172l-.068-.068a.25.25,0,0,1,.049-.172.819.819,0,0,0,.834-.185c.487-.486.583-.421.771-.287.021.016.045.032.07.049l.011.006h.151a2.88,2.88,0,0,1,.235.46c.018.042.036.083.053.12l-.1.029m2.411,9.591c-.165.167.131,1.06.222,1.318-.2.112-.337-.032-.492-.2a.663.663,0,0,0-.439-.277.375.375,0,0,0-.175.045,1.644,1.644,0,0,0-.4.293,1.135,1.135,0,0,1-.089.079,4.056,4.056,0,0,1,.06-.487l0-.023-.062-.062c.183-.16.217-.466.267-.915.01-.1.023-.2.036-.312a.954.954,0,0,1,.049-.259c.006-.018.011-.036.016-.053.008.021.016.045.023.066a1.2,1.2,0,0,0,.066.18c.031.155.052.227.107.241s.1-.031.173-.113a2.251,2.251,0,0,1,.283-.27c.29-.233.4-.2.5-.175a.416.416,0,0,0,.123.021.684.684,0,0,1,.351.209l-.13.259c-.112-.019-.183.079-.262.185a1.067,1.067,0,0,1-.238.248m.589-.241.1-.2a1.592,1.592,0,0,1,.275.8,1.216,1.216,0,0,1-.034.189c-.021-.047-.05-.128-.074-.2a3.007,3.007,0,0,0-.207-.489.121.121,0,0,0-.062-.1m-7.119-3.316c-.028.087-.058.189-.091.327a.255.255,0,0,1-.037.1c-.008.016-.016.034-.024.052-.066-.063-.131-.12-.194-.176a2.477,2.477,0,0,1-.356-.358.8.8,0,0,0,.4-.272c.01-.013.021-.024.031-.036a.782.782,0,0,1,.274.053c.023.01.045.016.065.023a1.432,1.432,0,0,1-.07.285m-.147,1.1.144.071a.84.84,0,0,0,.418.533,1.035,1.035,0,0,1,.16.121l.013.01a.607.607,0,0,1,.134.092.762.762,0,0,0,.232.138c-.1.236-.107.39-.026.468.128.125.431,0,.68-.128a1.129,1.129,0,0,0,.324-.24h.1v.586c-.036.034-.073.068-.113.1a1.907,1.907,0,0,0-.419.484,4.3,4.3,0,0,0-.784-.852c-.086-.058-.214-.126-.35-.2a3.4,3.4,0,0,1-.7-.442,2.235,2.235,0,0,0-.772-.474.365.365,0,0,1,.065-.015c.1-.013.144-.047.146-.209A2.294,2.294,0,0,0,36.2,53.5c.212.389.411.617.589.675m-1.182-.419c-.06-.138-.228-.24-.536-.423-.084-.052-.18-.108-.287-.175a2.363,2.363,0,0,0,.829-.528h.032l.092.123c.06.113.139.274.2.4Zm9.729-2.864a.793.793,0,0,1,.3-.382H46l.146.664a2.256,2.256,0,0,0-.834,2.04L44.7,51.455l.628-.55Zm.309-4.125a.459.459,0,0,1-.487-.092c-.07-.053-.105-.1-.1-.131.016-.078.261-.138.439-.181l.063-.018.091-.045c0,.024-.006.049-.011.073a.861.861,0,0,0,.006.4m3.133,8.386c-.173.1-.329.193-.411.233,0,0,0,0,0,0a.5.5,0,0,0-.019-.544l-.008-.011-.013,0a.591.591,0,0,1-.372-.4,1.628,1.628,0,0,1,.662.319,4.5,4.5,0,0,0,.5.22,2.863,2.863,0,0,1-.338.186m6.625,2.406a.367.367,0,0,1-.24.2h-.031l-.011.029a2.87,2.87,0,0,1-.643.746,4.06,4.06,0,0,0-.565.61.323.323,0,0,0-.253.1,3.438,3.438,0,0,1-.173-1c-.024-.233-.042-.413-.063-.549l.044-.016A12.7,12.7,0,0,1,55,57.257c.092-.021.173-.039.238-.055.149.13.206.249.168.356M52.36,59.851a7.568,7.568,0,0,1,.866-2.058c.019.168.052.4.1.7a6.21,6.21,0,0,1,.094.827.941.941,0,0,0-.282.334c-.053.1-.1.178-.353.306a1.646,1.646,0,0,0-.4.295.868.868,0,0,1-.089.078,3.79,3.79,0,0,1,.062-.486M49.566,57.57a1.188,1.188,0,0,0-.063.185.414.414,0,0,1-.084.186c-.026.042-.042.045-.04.045-.037-.011-.11-.228-.117-.675a1.554,1.554,0,0,1,.3.259m-.028,1.54c.029-.049.071-.117.125-.225l0-.019a7.637,7.637,0,0,1,.058-1.078,10.282,10.282,0,0,1,.444,1.57c.024.107.044.194.058.251a5.244,5.244,0,0,1-.05,1.23,10.12,10.12,0,0,0-.432-1.179c-.089-.178-.154-.283-.2-.353-.066-.108-.066-.108-.011-.2m.165-1.574h0v0Zm0-.737c-.034.181-.066.364-.1.534l-.028-.013v.06l-.316-.251V56.3h.117l.016,0a1.39,1.39,0,0,1,.416-.079c-.036.183-.071.382-.107.58m-.61,1.993a.967.967,0,0,1,0,.212.641.641,0,0,1-.164-.168c-.058-.073-.12-.152-.186-.235a6.207,6.207,0,0,0-.886-1l-.015-.006a2.458,2.458,0,0,1-1.054-.563c.644-.024.652-.295.659-.513,0-.042,0-.083.008-.118l1.253.547.461.232c0,.538-.045,1.035-.066,1.276-.008.086-.013.144-.013.164,0,.06,0,.118,0,.173m.076-1.817a2.735,2.735,0,0,1-.646-.58l-.17-.172v.112a.1.1,0,0,1-.047.062c-.047.031-.181.087-.46-.024l-.018,0a.236.236,0,0,1-.134-.074,1.742,1.742,0,0,1,.719-.092c.151.006.376.015.756.016Zm-1.747-11a.794.794,0,0,0-.3-.288c-.27-.164-.282-.176-.335-.243-.024-.028-.057-.068-.117-.13A1.9,1.9,0,0,0,46.87,45a.236.236,0,0,0,.152-.032h.214a.572.572,0,0,1,.136.278l0,.018a1.459,1.459,0,0,1,.045.72m3.285,15.083a1.683,1.683,0,0,0,.105-.567,5.086,5.086,0,0,0-.332-1.975c-.3-.674-.4-.811-.657-1.012l.026-.052-.081-.04c.076-.3.151-.6.223-.9a1,1,0,0,0,.086-.471.406.406,0,0,0,.342-.259.49.49,0,0,0-.071-.393,2.944,2.944,0,0,1,.473.244c.282.2.46.256.576.191.155-.084.146-.355.134-.7a2.541,2.541,0,0,1,.092-.981l0-.018a.26.26,0,0,1,.036-.1.376.376,0,0,0,.045-.123.537.537,0,0,1,.068-.049.2.2,0,0,0,.084-.076,1.54,1.54,0,0,1,.256.356,8.6,8.6,0,0,0,.57.835c.372.507.363.6.361.612a.036.036,0,0,1-.015,0,2.425,2.425,0,0,1-.575-.311c-.073-.047-.142-.091-.2-.125a.22.22,0,0,0-.172-.029c-.154.044-.27.266-.419.546a2.235,2.235,0,0,1-.84,1.03,1.656,1.656,0,0,1-.542.151c-.073.006-.117.013-.133.053s.01.084.112.2a9.029,9.029,0,0,1,.708.967c.424.6.6.792.774.8.141.011.243-.1.4-.272.053-.058.113-.123.183-.191a4.713,4.713,0,0,0-.222.6,4.1,4.1,0,0,0-.261,1.149.41.41,0,0,1-.063.23,2.491,2.491,0,0,1-1.1.79h-.01a.6.6,0,0,1,.034-.121m1.556-12.724a1.047,1.047,0,0,0-.165.086l-1.443-.079c.021-.016.034-.032.058-.049a.942.942,0,0,1,.633-.228,1.46,1.46,0,0,1,.625.154Zm-.4.251a1.146,1.146,0,0,0-.269.512,1.528,1.528,0,0,1-.139.359.437.437,0,0,1-.818,0c-.2-.338-.376-.639-.154-.945Zm2.116,2.916c-.33.5-.329.606.01,1.028a1.722,1.722,0,0,1,.185.22,19.464,19.464,0,0,1-2.04-1.42l1.339.079-.065-.083a.213.213,0,0,1-.052-.189c.06-.257.559-.5.771-.6Zm5.511,2.7c.105-.168.944-.084,1.378.06a.359.359,0,0,1,.251.117c.078.107.045.29.008.5a2.891,2.891,0,0,0-.053.479c0,.113-.021.139-.029.144s-.1-.016-.165-.045c-.039-.018-.083-.037-.128-.053-.071-.209-.356-.4-.657-.6a3.612,3.612,0,0,1-.491-.371c-.058-.058-.151-.167-.113-.227m3.343-2.234c-.121,0-.214.115-.311.236-.149.185-.248.29-.4.18a1.4,1.4,0,0,1-.3-.363,2.251,2.251,0,0,0-.173-.235l1.29.141a.213.213,0,0,1-.107.04M30.044,55.684h0m33.283-3.9-2-.219c-.01,0-.016-.008-.026-.01a.561.561,0,0,0-.266-.021l-1.075-.118a.912.912,0,0,0,.134-.11c.489-.489.583-.419.771-.287q.032.024.068.049c.164.108.377-.023.6-.164a1.609,1.609,0,0,1,.484-.236.453.453,0,0,0,.173-.036l1.219.113c-.029.346-.049.695-.086,1.038m-1.886-2.432a2.2,2.2,0,0,0-.8.261c-.113.06-.112.057-.214-.079a1.093,1.093,0,0,0-.262-.236c-.084-.062-.157-.113-.157-.167a.19.19,0,0,1,.055-.1l1.831.1a1.171,1.171,0,0,1-.452.223m-3.291.016a5.677,5.677,0,0,0-.368.5.12.12,0,0,0-.084-.029c-.079,0-.112-.055-.167-.157a.542.542,0,0,0-.393-.332,1.381,1.381,0,0,0-.38-.024.826.826,0,0,1-.583-.131c-.07-.052-.107-.1-.1-.13.016-.078.259-.138.437-.181l.087-.023.07-.018,1.9.1c-.142.131-.283.269-.419.419m-.414-2.845c-.058.136-.113.21-.165.222s-.128-.055-.206-.126a1.115,1.115,0,0,0-.2-.149l.62-.008c-.016.021-.04.044-.053.062m-.965.026a.872.872,0,0,1-.248.287.564.564,0,0,1-.094.083.076.076,0,0,1-.015,0c-.071-.032-.178-.057-.528.074-.191.073-.324.083-.38.031-.086-.078-.028-.3.018-.486l.011-.044,1.287-.015c-.018.023-.034.049-.052.074M31.736,60.434l-.015-.346c0-.539.01-.85.016-1.056a4.369,4.369,0,0,0-.1-1.151,1.442,1.442,0,0,1,.554-1.331c.079-.078.157-.152.225-.233.083.053.133.078.173.053s.044-.083.036-.2c0-.058-.008-.133-.008-.225a.222.222,0,0,1,.142-.113,1.19,1.19,0,0,0,.491-.353l.131-.065c.212.172.222.189.257.254a1.63,1.63,0,0,0,.2.291.822.822,0,0,0,.822.262.5.5,0,0,0,.4-.374c0-.063,0-.1,0-.126l.036.04a.946.946,0,0,0,.207.2c.058.058.1.05.125.036.076-.047.049-.257.011-.427l.316-.421h-.29a.8.8,0,0,1,.037-.266l.121.175.181.1.021,0a4.156,4.156,0,0,1,.886.162,7.425,7.425,0,0,1,1.679,1.6.15.15,0,0,0,.052.1c.021.019.029.028.029.049v.016l.01.013c.3.382.649.814.819.983.287.288.278.389.267.542a.918.918,0,0,0,.045.411,17.9,17.9,0,0,1,.013,2.063c-.008.262-.013.487-.013.622,0,.217-.024.518-.058.839l-7.8-1.417c-.01-.212-.019-.439-.031-.708m9.537,2.433-.008-.168c0-.751.018-.984.029-1.125a4.621,4.621,0,0,0-.029-.839,1.5,1.5,0,0,1,.387-1.23h.028c.036,0,.05-.028.07-.112a1.344,1.344,0,0,1,1.03-.729.825.825,0,0,1,.6.024.4.4,0,0,1,.134.3.323.323,0,0,0,.091.225.182.182,0,0,0,.144.023c.108,0,.173-.006.215-.01.074-.006.076-.008.217.066l.2.1c.123.073.18.1.228.073s.037-.089.024-.2a2.511,2.511,0,0,1,.062-.965c.029-.117.052-.209.068-.282.013-.05.023-.1.032-.131a1.154,1.154,0,0,0,.4.521c.337.241.35.274.379.346a.975.975,0,0,0,.183.3c.065.083.149.173.233.141.11-.04.11-.257.1-.609,0-.073,0-.147,0-.214a.333.333,0,0,0-.154-.308,1.746,1.746,0,0,0-.034-.219l.335-.335h-.309a.816.816,0,0,1,.015-.155l.162.079.021,0A4.143,4.143,0,0,1,47,57.6a10.131,10.131,0,0,1,1.87,2.14c.2.266.372.5.474.618.27.324.282.389.312.544a2.126,2.126,0,0,0,.086.33,8.665,8.665,0,0,1,.016,1.4c-.008.233-.016.453-.016.633,0,.154,0,.426.011.742,0,.125.006.259.008.4Zm21.6-7.995L62.6,54.66c-.353-.267-1.086-.824-1.073-.937,0,0,.045-.031.317.047.52.149.792.168.937.07.126-.087.139-.249.159-.457.006-.068.013-.142.024-.222a.423.423,0,0,1,.217-.288c-.089.67-.188,1.337-.306,2m.552-4.3-1.069-.1a2.2,2.2,0,0,0,.118-1.01c0-.1,0-.2,0-.3l1.059.057c-.023.453-.068.9-.105,1.352m-.958-1.588c-.01-.128-.034-.186-.081-.206-.071-.031-.141.036-.256.146l-.042.04-1.834-.1a3.127,3.127,0,0,1,.371-.206c.233-.112.361-.173.3-.482,0-.108-.01-.183-.058-.215s-.105-.01-.178.021a.768.768,0,0,1-.453.068,2.338,2.338,0,0,0-1.48.733l-1.745-.1a4.816,4.816,0,0,0,.643-.646c.1-.13.172-.223.222-.3l5.7.105c-.01.4-.015.8-.034,1.193Zm-4.36-1.413.011,0a.969.969,0,0,0,.683-1.028.621.621,0,0,0-.024-.087l4.812-.058c0,.131.01.262.01.4,0,.295-.019.586-.024.881Zm5.477-1.353-4.859.06a.331.331,0,0,0-.2-.193.724.724,0,0,0-.546.2l-2.406.029a.447.447,0,0,0-.3-.546c-.34-.17-.6.21-.766.465l-.029.04c-.013.021-.01.036-.018.055l-.105,0a1.984,1.984,0,0,0-.126-.222c-.368-.491-.308-.58-.185-.756.013-.018.028-.049.042-.07l9.466-.5c.019.476.029.954.036,1.433m-78.265-31.46,8.851,8.929.125-.125-8.854-8.932c.334-.337.678-.662,1.022-.988l8.03,8.655.131-.12-8.033-8.658c.346-.324.695-.646,1.051-.96l6.933,8.024.134-.117-6.933-8.024c.34-.3.678-.6,1.028-.89l7.154,8.864.138-.11-7.153-8.866c.385-.316.782-.622,1.177-.926l7.386,9.9.142-.107-7.389-9.9c.364-.277.735-.544,1.106-.809l6.3,9.1.146-.1-6.3-9.105c.377-.267.754-.534,1.14-.79l5.586,8.689.151-.1L-7.2,8.608c.393-.261.788-.516,1.19-.764L-.3,17.39l.154-.091L-5.857,7.747c.4-.244.814-.474,1.224-.709l3.928,7.086.157-.086L-4.479,6.95c.421-.238.843-.466,1.273-.69L1.006,14.61l.16-.079L-3.048,6.178c.406-.21.811-.424,1.224-.622l4.543,9.866.162-.073L-1.662,5.482c.426-.2.856-.393,1.289-.583l4.151,9.869.164-.07L-.212,4.826C.211,4.642.64,4.472,1.069,4.3l3.605,9.4.165-.063L1.234,4.235c.461-.181.924-.359,1.392-.525L6.06,13.54l.167-.058L2.795,3.652c.448-.157.9-.314,1.352-.458l2.564,8.628.17-.05L4.315,3.138c.429-.134.868-.249,1.3-.371L7.94,11.454c-2.514,4.287-4.041,8.806-4,12.333V40.844a1.984,1.984,0,0,0-.8-.46c-.232-.071-.448-.142-.648-.209-.756-.249-1.213-.4-1.362-.18a1.022,1.022,0,0,0-.248.861,1.335,1.335,0,0,0,.107.175c.123.176.185.264-.186.758a1.5,1.5,0,0,0-.181.355.382.382,0,0,0-.066-.191l-.026-.039C.36,41.66.1,41.278-.239,41.448c-.371.185-.348.39-.266.716.141.283.185.492.118.573-.047.058-.157.05-.254.028.05-.105.086-.194.037-.249s-.131-.032-.207-.006a1.406,1.406,0,0,1-.152.065.534.534,0,0,0-.167.089l-.118-.028c-.076-.016-.076-.016-.115-.062-.024-.028-.062-.071-.13-.138l-.011-.01c-.084-.042-.147-.079-.2-.108a.384.384,0,0,0-.408-.057.953.953,0,0,0-.159.07c-.058.034-.062.034-.209-.063A1.38,1.38,0,0,0-3.5,42.039a.318.318,0,0,0-.193.259.89.89,0,0,0,.683,1.031c.083.039.139.049.181.026.047.053.149.173.343.416-.016.021-.034.042-.05.065a.742.742,0,0,1-.244.228c-.359.3-.312.444-.222.591a.2.2,0,0,1,.042.1c0,.019,0,.039,0,.06a.554.554,0,0,1,0,.073,2,2,0,0,1-.411-.408,4.991,4.991,0,0,1-.432-.6,2.382,2.382,0,0,0-1.384-1.2c-.233-.073-.448-.144-.648-.209-.758-.249-1.214-.4-1.362-.18a1.02,1.02,0,0,0-.248.861,1.178,1.178,0,0,0,.108.175c.121.176.183.266-.185.754a1.66,1.66,0,0,0-.2.282.4.4,0,0,0-.053-.115l-.028-.04c-.167-.254-.423-.638-.767-.465-.369.185-.348.39-.269.7l.016.062c.045.181.1.41.018.486-.057.052-.188.042-.379-.031-.227-.084-.345-.12-.414-.141s-.083-.026-.128-.074c-.021-.023-.05-.055-.1-.1-.071-.055-.128-.1-.175-.139-.164-.134-.225-.183-.439-.113a.891.891,0,0,0-.155.07c-.063.034-.063.036-.212-.063a1.383,1.383,0,0,0-1.02-.23.323.323,0,0,0-.193.257.778.778,0,0,0,.142.743.443.443,0,0,1-.5.118c-.079-.015-.157-.034-.23-.053-.214-.053-.382-.1-.482-.018a.239.239,0,0,0-.076.2,1.174,1.174,0,0,1-.473,1.106c-.359.3-.312.445-.222.591a.206.206,0,0,1,.042.1c0,.021,0,.04,0,.062a.535.535,0,0,1,0,.071,1.905,1.905,0,0,1-.411-.408,4.977,4.977,0,0,1-.432-.6,2.379,2.379,0,0,0-1.384-1.206c-.233-.071-.448-.142-.648-.207-.759-.251-1.217-.4-1.362-.181a1.022,1.022,0,0,0-.248.863,1.378,1.378,0,0,0,.107.175c.121.175.183.264-.186.758a1.456,1.456,0,0,0-.181.351.237.237,0,0,0-.068-.189l-.024-.037a1.382,1.382,0,0,0-.421-.465v-.05l-8.739-.154c.008-.478.013-.958.037-1.433l9.431.541.01-.178-9.432-.541c.024-.481.07-.957.108-1.434l12.167,1.093.015-.178-12.167-1.091q.063-.719.151-1.433l14.118,1.8.023-.175-14.119-1.805c.057-.455.107-.91.176-1.362l10.493,1.71.028-.175-10.488-1.71c.071-.458.159-.913.244-1.366l11.6,2.273.034-.175-11.6-2.273c.087-.45.185-.9.285-1.341l12.75,2.971.039-.173-12.748-2.971c.105-.458.207-.916.327-1.368l7.647,2.064.047-.172-7.645-2.064c.121-.453.251-.9.385-1.352l9.086,2.772.053-.17-9.091-2.773c.134-.44.282-.873.427-1.307l9.911,3.432.06-.167-9.913-3.436c.162-.474.329-.947.507-1.413l10.161,3.955.065-.167-10.161-3.955c.168-.439.337-.877.518-1.31l9,3.881.07-.164-9-3.882c.17-.4.356-.793.539-1.188l9.453,4.417.076-.16-9.457-4.418q.3-.656.63-1.3l10.706,5.469.081-.159-10.706-5.469c.219-.429.434-.858.665-1.279l9.549,5.356.087-.155-9.547-5.356c.228-.413.465-.819.7-1.224L-10.3,30.227l.092-.152-11.122-6.735c.232-.385.473-.761.716-1.138l12.351,8.024.1-.149-12.353-8.025c.259-.4.521-.8.793-1.193l10.97,7.734.1-.144L-19.62,20.713c.264-.38.529-.761.806-1.133l8.671,6.563.107-.142-8.675-6.565c.287-.382.588-.753.886-1.127L-8.108,26.3l.113-.138-9.72-8c.287-.356.581-.707.879-1.056l10.441,9.107.117-.134L-16.719,16.98c.309-.358.617-.717.937-1.065l9.465,8.917.123-.13-9.465-8.917q.481-.52.979-1.026M-27.246,54a.421.421,0,0,0,.272.16.148.148,0,0,0,.028,0c.168,0,.358-.131.578-.4.193-.235.272-.244.3-.238s.036.039.04.066a1.969,1.969,0,0,1-.487,1.334.31.31,0,0,0-.125.243c.011.1.113.168.232.243a.9.9,0,0,1,.453.539.764.764,0,0,1,0,.479,1.458,1.458,0,0,0,.084.992.188.188,0,0,0,.138.131.179.179,0,0,0,.029,0c.168,0,.387-.241.639-.518a4.171,4.171,0,0,1,.4-.406,2.209,2.209,0,0,0,.209-.126,1.735,1.735,0,0,1,.181-.11,1.915,1.915,0,0,0,.568.078,2.238,2.238,0,0,1,.636.421,4.589,4.589,0,0,0-1.567.722.256.256,0,0,0-.091.2c.01.115.125.2.236.275.086.06.173.123.168.175s-.06.117-.379.238c-.984.379-.882.714-.793,1.01.011.036.021.071.029.105a.688.688,0,0,0,.466.45.963.963,0,0,0,.916-.262c.206-.176.34-.3.424-.377a.188.188,0,0,0,.019.089.3.3,0,0,0,.254.136c.246.031.266.115.291.222.047.2.133.35.774.35.832,0,.886-.513.921-.853.015-.139.026-.259.083-.3A1.383,1.383,0,0,1-20.883,59c.374-.026.839-.058,1.012-.309a.457.457,0,0,0,.037-.41v0c.173.107.385.214.6.325.185.094.371.189.533.283l.329.732.008.021.023,0a.781.781,0,0,1,.291.118v.023l.018.013a3.916,3.916,0,0,1,.393.355c.113.113.256.254.583.542a1.154,1.154,0,0,0,.568.334c.087.019.117.026.236.3a.743.743,0,0,0,.518.324c.343.1.667.2.62.876a16.553,16.553,0,0,0-.023,1.841c0,.031,0,.065,0,.1l-8.43,1.587A45.357,45.357,0,0,1-27.246,54M17.89,92.5A45.764,45.764,0,0,1-23.077,67.064l7.964-1.5c0,.1,0,.2,0,.316,0,.73.036,1.195.063,1.535.04.523.053.682-.136.967-.513.7-.507.873-.444.947s.249.023.411-.058a1.773,1.773,0,0,0,.492-.165.714.714,0,0,0,.125-.055c0,.006.006.015.011.023a2.291,2.291,0,0,0,.139.262,2.7,2.7,0,0,1,.186.269c.1.162.185.29.295.29h.01c.105-.008.2-.125.324-.408a1.945,1.945,0,0,1,.269-.537,1.131,1.131,0,0,0,.238.155c.18.089.3.151.369.083s.065-.2-.142-.714l-.091-.225a7.785,7.785,0,0,1-.559-1.721,12.164,12.164,0,0,1-.036-1.248l8.464-1.593a4.3,4.3,0,0,1-.356,2.087c-.643.937-.557,1.01-.512,1.047.073.06.2-.04.243-.078a2.768,2.768,0,0,0,.73-.246.632.632,0,0,0,.125-.057c0,.008.006.016.011.026a2.185,2.185,0,0,0,.139.261,2.955,2.955,0,0,1,.185.267c.1.162.186.291.295.291h.011c.1-.008.2-.126.322-.408a1.918,1.918,0,0,1,.27-.538,1.146,1.146,0,0,0,.238.154l.053.028c.2.1.392.2.491.107s.062-.262-.073-.6a3.8,3.8,0,0,1-.214-1.483,5.16,5.16,0,0,0-.028-.628c-.021-.144-.042-.348-.062-.583l7.475-1.407A2.376,2.376,0,0,1,3.9,63.162c-.644.937-.557,1.009-.512,1.047.074.06.2-.042.243-.078a2.75,2.75,0,0,0,.73-.248.66.66,0,0,0,.125-.055.163.163,0,0,0,.011.024,2.461,2.461,0,0,0,.139.261,3.253,3.253,0,0,1,.186.269c.1.162.185.291.295.291l.011,0c.1-.006.2-.125.321-.406a1.9,1.9,0,0,1,.27-.538,1.207,1.207,0,0,0,.241.155c.053.021.105.044.154.065.193.084.33.146.41.07.063-.06.071-.186-.1-.6a3.8,3.8,0,0,1-.214-1.483c0-.134-.011-.254-.016-.379l5.246-.988s0,.008,0,.011c0,2.691,4.405,4.159,4.405,6.118v2.2c-.733.816-3.181,1.632-3.181,3.181,0,2.2,3.753,3.181,3.753,5.058v2.2c-.979.652-2.448.408-2.284,2.04.164,1.794,2.773,1.549,2.773,4.159,0,1.307-.816.735-1.876,1.551a2.491,2.491,0,0,0,1.876.652c.083,1.3.083,1.63,1.06,2.038.083,0,.816.083.979-.408.164-.652-.083-1.467.244-2.038.816-1.632,1.794-1.549,1.794-2.692,0-1.632-1.875-1.224-1.875-3.018,0-1.876,2.935-1.06,2.935-3.345,0-1.794-.978-1.794-2.935-3.834V71.752c.081-1.3,3.751-1.222,3.507-4-.081-1.143-.733-1.551-2.61-3.264,0,0,2.365-2.284,2.365-2.937,0-.57-.164-.733-.979-.733a3.97,3.97,0,0,0-1.794.733,2.182,2.182,0,0,1,.164-.816,2.45,2.45,0,0,1,.4-.609L29.88,61.9a7.015,7.015,0,0,1-.287,1.274c-.167.418-.159.542-.1.6s.215.015.41-.07c.049-.021.1-.044.157-.066a1.1,1.1,0,0,0,.236-.155,1.929,1.929,0,0,1,.272.541c.125.28.217.4.322.4h.01c.11,0,.191-.128.295-.29a2.813,2.813,0,0,1,.189-.274,2.61,2.61,0,0,0,.136-.257.148.148,0,0,0,.011-.023.667.667,0,0,0,.118.053c.178.087.259.008.4.079.053.042.342.241.452.146.076-.065.087-.217-.387-.865a1.705,1.705,0,0,1-.266-.743l7.574,1.375c-.019.141-.037.269-.052.368a4.569,4.569,0,0,0-.028.628,3.788,3.788,0,0,1-.214,1.481c-.168.416-.16.542-.1.6.078.078.217.015.41-.07.049-.021.1-.044.157-.066a1.179,1.179,0,0,0,.238-.155,1.94,1.94,0,0,1,.27.539c.125.282.217.4.321.406s.2-.123.306-.291a3.014,3.014,0,0,1,.189-.272,2.86,2.86,0,0,0,.136-.256.174.174,0,0,1,.011-.024.667.667,0,0,0,.118.053,2.8,2.8,0,0,0,.737.248c.044.037.167.136.241.079.047-.039.133-.112-.51-1.047a3.824,3.824,0,0,1-.346-1.881l8.453,1.536a9.9,9.9,0,0,1-.034,1.1,7.763,7.763,0,0,1-.557,1.715l-.092.233c-.232.576-.2.7-.133.756s.172.015.358-.126a1.307,1.307,0,0,0,.24-.154,1.933,1.933,0,0,1,.269.539c.125.28.219.4.322.4a.028.028,0,0,0,.011,0c.108,0,.191-.13.295-.291a3.023,3.023,0,0,1,.189-.274,2.648,2.648,0,0,0,.136-.256.163.163,0,0,1,.011-.024.567.567,0,0,0,.118.053,1.815,1.815,0,0,0,.5.167c.16.081.337.147.411.058s.068-.249-.442-.945c-.168-.253-.155-.408-.117-.819A12.148,12.148,0,0,0,51.3,65.88v-.094l7.514,1.365A45.77,45.77,0,0,1,17.89,92.5M51.314,64.692c0-.108,0-.212.006-.312a18.344,18.344,0,0,0-.021-1.928c-.049-.678.275-.774.62-.876a.743.743,0,0,0,.518-.327c.12-.277.147-.283.235-.3a1.187,1.187,0,0,0,.57-.335,6.148,6.148,0,0,0,.674-.654c.079-.089.16-.181.306-.327l.152-.152a4.29,4.29,0,0,0,.911-.746l.563-.648c.133-.1.356-.225.429-.172.024.016.073.086-.013.366-.232.774.434,1.188.753,1.387l.083.052a.118.118,0,0,0,.105.021c.047-.023.05-.081.053-.162.011-.219.032-.584.764-.584a.676.676,0,0,1,.5.128.355.355,0,0,1,.036.3c-.016.1-.031.2.031.259a.255.255,0,0,0,.178.055c.008.045.06.076.725.076a1.607,1.607,0,0,0,1.493-.649.789.789,0,0,0,.1-.724.442.442,0,0,1,.037-.34c.029-.073.049-.125.01-.157s-.1-.023-.6.314c-.045.026-.12.07-.188.107.178-.2.489-.588.243-.834a4.239,4.239,0,0,0-1.332-.72,4.38,4.38,0,0,1,.565-.505,1.915,1.915,0,0,0,.568-.078,1.676,1.676,0,0,1,.181.11,1.4,1.4,0,0,0,.2.12c.146.117.155.152.16.165.015.047.018.049.215.118.081.029.2.07.374.133a.73.73,0,0,0,.649.006c.193-.136.2-.424.2-.732a3.3,3.3,0,0,1,.021-.368.531.531,0,0,1,.38-.379A45.41,45.41,0,0,1,59.3,66.142Z" transform="translate(28.902)"/>
      </g>
      <g id="Group_3318" data-name="Group 3318" transform="translate(11.683 12.744)">
        <path id="Path_2344" data-name="Path 2344" class="cls-4" d="M26.311,0A68.894,68.894,0,0,0-42.506,68.815a68.19,68.19,0,0,0,20.158,48.6,68.211,68.211,0,0,0,48.505,20.058h.154A68.734,68.734,0,0,0,26.311,0m0,136.389a67.125,67.125,0,0,1-47.9-19.742A67.127,67.127,0,0,1-41.426,68.815a67.7,67.7,0,1,1,67.737,67.574" transform="translate(42.506)"/>
      </g>
    </g>
  </g>
</svg>
