<svg xmlns="http://www.w3.org/2000/svg" xmlns:xlink="http://www.w3.org/1999/xlink" width="164" height="164" viewBox="0 0 164 164">
  <defs>
    <style>
      .cls-1 {
        fill: none;
      }

      .cls-2 {
        clip-path: url(#clip-path);
      }

      .cls-3, .cls-4 {
        fill: #2b2e34;
      }

      .cls-4 {
        fill-rule: evenodd;
      }
    </style>
    <clipPath id="clip-path">
      <path id="Path_2480" data-name="Path 2480" class="cls-1" d="M0,74.049H164v-164H0Z" transform="translate(0 89.951)"/>
    </clipPath>
  </defs>
  <g id="Group_3590" data-name="Group 3590" transform="translate(0 89.951)">
    <g id="Group_3589" data-name="Group 3589" class="cls-2" transform="translate(0 -89.951)">
      <g id="Group_3470" data-name="Group 3470" transform="translate(136.766 146.922)">
        <g id="Group_3469" data-name="Group 3469" transform="translate(0 0)">
          <path id="Path_2420" data-name="Path 2420" class="cls-3" d="M2.261,2.133q.311,0,.589-.02A1.5,1.5,0,0,0,3.344,2a.775.775,0,0,0,.345-.291.993.993,0,0,0,.129-.548A.856.856,0,0,0,3.7.685.774.774,0,0,0,3.4.414a1.307,1.307,0,0,0-.42-.129A3.3,3.3,0,0,0,2.518.251H1.3V2.133ZM2.667-.493a2.422,2.422,0,0,1,1.563.42A1.555,1.555,0,0,1,4.738,1.2,1.437,1.437,0,0,1,4.291,2.37a2,2,0,0,1-1.109.44L4.874,5.421H3.885L2.275,2.877H1.3V5.421H.38V-.493ZM-1.508,4.17a4.211,4.211,0,0,0,.88,1.374A4.075,4.075,0,0,0,.7,6.457a4.122,4.122,0,0,0,1.658.332,4.047,4.047,0,0,0,1.638-.332,4.1,4.1,0,0,0,1.32-.914A4.222,4.222,0,0,0,6.193,4.17a4.587,4.587,0,0,0,.318-1.726A4.462,4.462,0,0,0,6.193.752,4.18,4.18,0,0,0,5.314-.609a4.158,4.158,0,0,0-1.32-.906,4.047,4.047,0,0,0-1.638-.332A4.129,4.129,0,0,0-.628-.609,4.17,4.17,0,0,0-1.508.752a4.462,4.462,0,0,0-.318,1.692A4.587,4.587,0,0,0-1.508,4.17M-2.341.454a5.021,5.021,0,0,1,1.1-1.6A5.14,5.14,0,0,1,.387-2.2a5.075,5.075,0,0,1,1.969-.386A5.025,5.025,0,0,1,4.318-2.2,5.038,5.038,0,0,1,7.025.454a4.873,4.873,0,0,1,.406,1.99,4.982,4.982,0,0,1-.406,2.023,5.121,5.121,0,0,1-1.1,1.611A4.914,4.914,0,0,1,4.318,7.14a5.1,5.1,0,0,1-1.962.379A5.154,5.154,0,0,1,.387,7.14,4.978,4.978,0,0,1-1.237,6.078a5.067,5.067,0,0,1-1.1-1.611,5,5,0,0,1-.406-2.023A4.886,4.886,0,0,1-2.341.454" transform="translate(2.747 2.591)"/>
        </g>
      </g>
      <g id="Group_3472" data-name="Group 3472" transform="translate(77.979 42.494)">
        <g id="Group_3471" data-name="Group 3471" transform="translate(0)">
          <path id="Path_2421" data-name="Path 2421" class="cls-3" d="M.544,0c.548,0,.659.385.987.465a2.762,2.762,0,0,1-2.192,0C-.333.385-.008,0,.544,0" transform="translate(0.661)"/>
        </g>
      </g>
      <g id="Group_3474" data-name="Group 3474" transform="translate(77.412 63.663)">
        <g id="Group_3473" data-name="Group 3473" transform="translate(0 0)">
          <path id="Path_2422" data-name="Path 2422" class="cls-4" d="M2.362,1.244c.72.356,1.562,1.06,1.539,1.5V7.006a4.51,4.51,0,0,1-1.539-.92ZM.345,4.8A4.72,4.72,0,0,0,2.69,7.324c.647.335,3.867,1.964,3.8,3.045-.056.878-.832.965-1.914,1.72a4.7,4.7,0,0,0-.117-1.614C2.64,9.253-1.458,7.923-1.836,6.169-2,5.366-.613,5.033.345,4.8M2.153,10.2c1.626.02,1.771,1.969,1.771,2.515,0,.439-.2,1.93-.215,3.03,0,0,.014.214-.484.214a1.125,1.125,0,0,1-1.072-.849Zm2.484-11.7C6.515-.19,8.165.984,8.165,2.08c0,1.294-2.255,1.988-3.426,2.469,0,0,0-1.8,0-2.049,0-1.252-2.414-2.591-4.7-4.011l-1.473,0C-.358-.756.539.007.544.946V3.729c-1.482.868-3.63.554-3.4,2.584.266,2.295,4.147,1.921,4.185,5.173.019,1.69-1.277.957-2.788,1.92a3.991,3.991,0,0,0,2.829.777c.126,1.605.062,2.09,1.645,2.546.068.019,1.25.144,1.426-.489.224-.832-.158-1.841.313-2.609,1.268-2.08,2.755-1.993,2.755-3.374,0-2.038-2.794-1.574-2.794-3.766C4.718,4.166,9.1,5.132,9.1,2.283,9.1.363,8.09.11,6-1.507Z" transform="translate(2.869 1.511)"/>
        </g>
      </g>
      <g id="Group_3476" data-name="Group 3476" transform="translate(73.457 38.886)">
        <g id="Group_3475" data-name="Group 3475" transform="translate(0 0)">
          <path id="Path_2423" data-name="Path 2423" class="cls-4" d="M4.235.48H5.08c.495-.009.695.365,1.1.746V2.382c-.709-.164-1.306-.34-1.944-.544ZM.92,2.222A13.743,13.743,0,0,1,7.465,4.2a6.335,6.335,0,0,1-4.273,1.9,10.807,10.807,0,0,1-2.147-.154l-.329.284c1.338,2.4,9.867,5.793,9.867,8.7,0,1.4-3.039,2.376-3.732,2.7A6.365,6.365,0,0,0,6.6,14.777C5.974,12.68-4.178,8.86-4.178,5.905c0-2.63,3.233-3.684,5.1-3.684m5.1,3.868c.038.6-.02,1.477-.032,2.134,0,0-.188.132.313.132C6.673,8.355,8,6.95,10.195,6.7A18.344,18.344,0,0,1,6.9,9.935c-.393-.262-2.693-1.62-2.693-2.193,0-.437-.069-.489-.041-1.077a7.432,7.432,0,0,0,1.857-.575M4.235,13.978a4.41,4.41,0,0,1,1.535.92v7.82c-.529-.27-1.564-1.259-1.535-1.806ZM.245,24.2c-1.6-1.139-3.608-2.254-3.608-3.919C-3.363,18.3.279,17.3,1.424,16.3V13.5c0-2.429-6.568-4.217-6.568-7.637a5.149,5.149,0,0,1,.773-2.291C-3.082,1.928-1.139,2.335.055,1.3A1.294,1.294,0,0,0,.491.38,4.4,4.4,0,0,1,3.512-.584C4.26-.584,6.141-.528,6.718.7c.3.656.02,1.464.326,2.1s1.2.811,1.617,1.387c-.614.753-1.129,1.036-1.4,1.6a3.462,3.462,0,0,0-.208,1A6.011,6.011,0,0,1,9.76,5.845c1.194,0,1.422.257,1.422.935,0,.812-3.5,3.681-3.546,3.657,2.832,2.115,3.725,2.6,3.882,4.048.374,3.467-5.12,3.358-5.12,5.025v3.627c.455.413.887.758,1.278,1.059H6.318a22.991,22.991,0,0,1-4.074-3.359,5.657,5.657,0,0,1-.862-3.283c-1.043.441-3.77,1.645-3.732,2.63.054,1.4,2.012,2.738,4.068,4.008Z" transform="translate(5.145 0.584)"/>
        </g>
      </g>
      <g id="Group_3478" data-name="Group 3478" transform="translate(79.191 33.752)">
        <g id="Group_3477" data-name="Group 3477" transform="translate(0)">
          <path id="Path_2424" data-name="Path 2424" class="cls-4" d="M1.467,0c1.817.784,2.8,3.023,2.977,5.132a6.426,6.426,0,0,0-3.808-.72,5.61,5.61,0,0,0-2.417.745A6.179,6.179,0,0,1,1.467,0M1.426,1v2.58a10.008,10.008,0,0,0-2.265.5l.024-.2A3.585,3.585,0,0,1,1.426,1" transform="translate(1.782)"/>
        </g>
      </g>
      <g id="Group_3480" data-name="Group 3480" transform="translate(67.909 85.481)">
        <g id="Group_3479" data-name="Group 3479" transform="translate(0 0)">
          <path id="Path_2425" data-name="Path 2425" class="cls-4" d="M6.447,3.153a1.3,1.3,0,0,1-1.368-1.2A1.3,1.3,0,0,1,6.447.745,1.292,1.292,0,0,1,7.808,1.95a1.292,1.292,0,0,1-1.362,1.2m14.644.681c-.058-.178-1.425-4.364-1.927-4.808s-8.2-3.653-14.651-2.67c-6.1.929-12.282,7.1-12.344,7.162l.079.1c.063-.043,6.423-4.283,9.394-4.929A15.84,15.84,0,0,1,3.65-1.623,4.215,4.215,0,0,0,1.516,1.95c0,2.4,2.21,4.34,4.93,4.34a4.661,4.661,0,0,0,4.923-4.34,3.913,3.913,0,0,0-.587-2.056c4.2,2.174,4.444,4.578,4.446,4.6l.005.065,5.883-.655Z" transform="translate(7.831 3.83)"/>
        </g>
      </g>
      <g id="Group_3482" data-name="Group 3482" transform="translate(12.874 76.817)">
        <g id="Group_3481" data-name="Group 3481" transform="translate(0 0)">
          <path id="Path_2426" data-name="Path 2426" class="cls-4" d="M0,1.556C.635-.126,3.286-1.7,4.625-1.89a8.833,8.833,0,0,0,.813,5.51A7.141,7.141,0,0,1,0,1.556m.756-.108L4.075.982a6.28,6.28,0,0,0,.641,2.111L4.5,3.1C3.17,3.123,1.273,2.348.756,1.447" transform="translate(0 1.89)"/>
        </g>
      </g>
      <g id="Group_3484" data-name="Group 3484" transform="translate(145.177 76.756)">
        <g id="Group_3483" data-name="Group 3483" transform="translate(0 0)">
          <path id="Path_2427" data-name="Path 2427" class="cls-4" d="M2.492,1.614C1.916-.094-.689-1.73-2.028-1.961a8.741,8.741,0,0,1-1,5.48,7.213,7.213,0,0,0,5.519-1.9m-.76-.1L-1.522.959a6.638,6.638,0,0,1-.735,2.034l.218.014c1.128.087,3.218-.615,3.771-1.493" transform="translate(3.027 1.961)"/>
        </g>
      </g>
      <g id="Group_3486" data-name="Group 3486" transform="translate(11.838 86.877)">
        <g id="Group_3485" data-name="Group 3485" transform="translate(0 0)">
          <path id="Path_2428" data-name="Path 2428" class="cls-3" d="M1.665,1.827a.044.044,0,0,0,.068.04L4.2.753c.04-.014.09-.028.087-.057s-.056-.04-.1-.045L1.547.073c-.042,0-.072.008-.068.044ZM.941-.012C.935-.058.913-.075.848-.086L-.689-.427A2.225,2.225,0,0,0-1.336-.5c-.186.02-.312.118-.28.407L-1.6.049c.012.111,0,.141-.067.147-.084.01-.111-.044-.123-.146-.032-.3-.045-.7-.076-.988-.011-.1-.1-.61-.151-1.092-.013-.12,0-.179.084-.188.062-.006.087.028.094.1a2.757,2.757,0,0,0,.054.286c.108.421.48.559,1.019.689L6,.484c.313.078.432.122.442.215s-.077.149-.306.268C5.586,1.252,1.522,3.2.011,3.961c-.893.454-1.01.74-1.04.94a1.816,1.816,0,0,0,0,.4c.009.074,0,.122-.069.129s-.114-.073-.151-.417S-1.358,4-1.418,3.252c-.009-.168-.021-.28.05-.287s.087.026.108.12a.177.177,0,0,0,.248.056L1.1,2.161a.091.091,0,0,0,.062-.1Z" transform="translate(2.022 2.219)"/>
        </g>
      </g>
      <g id="Group_3488" data-name="Group 3488" transform="translate(12.926 93.791)">
        <g id="Group_3487" data-name="Group 3487" transform="translate(0 0)">
          <path id="Path_2429" data-name="Path 2429" class="cls-3" d="M1.952,1.269c-.111.026-.147.052-.163.123a2.192,2.192,0,0,0,.053.715.861.861,0,0,0,.317.61,1.943,1.943,0,0,0,1.646.2C5.251,2.6,5.476,1.647,5.356,1.108A1.9,1.9,0,0,0,5.207.634C5.173.575,5.128.566,5.046.584ZM2.517.016c1.546-.343,1.832-.407,2.152-.5.342-.1.489-.2.493-.52a1.709,1.709,0,0,0-.05-.363c-.023-.1-.014-.159.057-.175s.106.044.136.18c.108.483.206,1.065.25,1.256.069.311.254,1,.317,1.28A2.724,2.724,0,0,1,5.81,2.95a1.872,1.872,0,0,1-1.254.93,3.018,3.018,0,0,1-2.549-.7C1.048,4.246.284,5.076-.227,5.753A1.814,1.814,0,0,0-.69,6.928a1.337,1.337,0,0,0,.026.263c.016.073-.005.116-.056.127-.083.019-.117-.042-.142-.151L-1.055,6.3a1.726,1.726,0,0,1-.023-1.018A4.785,4.785,0,0,1,.136,3.7c.478-.488,1.077-1.062,1.2-1.214a.188.188,0,0,0,.035-.18l-.156-.8c-.011-.047-.037-.069-.1-.055l-.144.031c-.945.211-1.75.388-2.167.529-.288.093-.5.2-.479.48a3.708,3.708,0,0,0,.059.456c.017.074-.006.117-.057.128-.071.014-.117-.041-.142-.16-.119-.529-.24-1.209-.27-1.347C-2.119,1.4-2.278.83-2.359.465-2.386.347-2.37.277-2.3.26c.053-.011.09.019.116.128a1.388,1.388,0,0,0,.113.32c.082.172.316.168.619.139C-1.014.8-.211.62.726.412Z" transform="translate(2.371 1.542)"/>
        </g>
      </g>
      <g id="Group_3490" data-name="Group 3490" transform="translate(14.856 100.964)">
        <g id="Group_3489" data-name="Group 3489" transform="translate(0 0)">
          <path id="Path_2430" data-name="Path 2430" class="cls-3" d="M2.182.763c1.507-.487,1.785-.577,2.1-.7.331-.128.471-.271.456-.483a1.156,1.156,0,0,0-.065-.332c-.028-.089-.026-.147.053-.174.061-.02.1.044.149.188C4.983-.4,5.135.17,5.22.429c.072.223.272.738.382,1.074.038.115.041.194-.017.212-.079.026-.117-.021-.145-.111a1.661,1.661,0,0,0-.117-.256C5.194,1.125,5,1.108,4.649,1.2c-.323.084-.6.174-2.108.662L.8,2.429c-.961.311-1.744.562-2.159.737-.259.114-.417.234-.37.513a3.514,3.514,0,0,0,.108.465c.031.1.017.152-.034.168-.069.023-.122-.039-.153-.138C-2,3.588-2.156,3.018-2.234,2.78c-.067-.206-.28-.756-.395-1.112-.038-.116-.029-.186.041-.209.049-.016.09.01.124.117a1.4,1.4,0,0,0,.145.307c.1.166.283.165.58.1.431-.091,1.214-.344,2.177-.653Z" transform="translate(2.651 0.926)"/>
        </g>
      </g>
      <g id="Group_3492" data-name="Group 3492" transform="translate(16.462 105.408)">
        <g id="Group_3491" data-name="Group 3491" transform="translate(0 0)">
          <path id="Path_2431" data-name="Path 2431" class="cls-3" d="M.9,2.692c.377.877.761,1.109,1.108,1.123a2.03,2.03,0,0,0,.526-.041c.1-.025.167-.032.19.02.029.069-.03.114-.26.212a7.074,7.074,0,0,1-1.243.329c-.191.031-.293,0-.359-.151C.248,2.749-.326,1.287-1.073-.448c-.041-.094-.034-.159.032-.186s.126-.024.343.006c2.63.31,5.342.655,7.859.943L6.436-1.368A2.942,2.942,0,0,0,5.7-2.519a1.185,1.185,0,0,0-.946-.143c-.143.04-.2.022-.217-.03s.018-.089.134-.138c.22-.092,1.148-.339,1.453-.418.141-.04.2-.026.226.026a2.577,2.577,0,0,0,.08.371c.314.832.5,1.24.653,1.594L8.212,1.361c.038.086.035.158-.014.179a.485.485,0,0,1-.212.009C5.33,1.28,2.575.912-.005.58Z" transform="translate(1.098 3.271)"/>
        </g>
      </g>
      <g id="Group_3494" data-name="Group 3494" transform="translate(20.668 112.396)">
        <g id="Group_3493" data-name="Group 3493" transform="translate(0 0)">
          <path id="Path_2432" data-name="Path 2432" class="cls-3" d="M2.349,2.8C4.367,1.625,5.008-.142,4.232-1.467c-.544-.927-1.74-1.65-3.982-.347C-1.622-.724-2.564,1.065-1.655,2.616c.331.564,1.4,1.693,4,.183M-.681-2.764A3.839,3.839,0,0,1,4.8-1.485,3.557,3.557,0,0,1,3.345,3.733C1.283,4.931-1.1,4.588-2.3,2.539c-1.358-2.316.029-4.378,1.623-5.3" transform="translate(2.854 3.399)"/>
        </g>
      </g>
      <g id="Group_3496" data-name="Group 3496" transform="translate(24.428 119.059)">
        <g id="Group_3495" data-name="Group 3495" transform="translate(0 0)">
          <path id="Path_2433" data-name="Path 2433" class="cls-3" d="M.934,2.025c-.635.506-.776.766-.72.958a1.337,1.337,0,0,0,.238.43c.063.083.081.138.03.177s-.133,0-.214-.107C-.1,3-.3,2.684-.414,2.542c-.05-.065-.344-.4-.64-.782-.074-.1-.116-.17-.042-.226.049-.038.1-.006.158.069a1.523,1.523,0,0,0,.3.3c.214.143.477-.01,1.2-.551L5.518-2.31c.165-.127.3-.192.355-.118s.007.229-.046.469C5.788-1.787,5.3.369,4.934,2.365c-.174.934-.6,2.844-.635,3.07l.029.038L7.99,2.568c.5-.391.605-.578.551-.819a1.366,1.366,0,0,0-.252-.432c-.068-.089-.066-.138-.016-.175.065-.05.136.024.222.135.3.386.545.762.664.917.063.082.3.345.584.709.074.1.122.177.056.227-.05.038-.109.013-.177-.077a.956.956,0,0,0-.2-.2c-.226-.156-.445-.083-.916.262l-5.288,3.9c-.181.139-.28.167-.331.1a.559.559,0,0,1-.012-.39c.138-.846.495-2.621.756-4.043.273-1.49.676-3.1.73-3.356L4.35-.7Z" transform="translate(1.134 2.46)"/>
        </g>
      </g>
      <g id="Group_3498" data-name="Group 3498" transform="translate(29.854 126.942)">
        <g id="Group_3497" data-name="Group 3497" transform="translate(0 0)">
          <path id="Path_2434" data-name="Path 2434" class="cls-3" d="M2.43,1.757a.044.044,0,0,0,.077-.012L3.728-.664c.023-.036.053-.079.033-.1s-.069,0-.106.026L1.233.465c-.035.023-.052.05-.026.078ZM.707.778C.674.746.646.747.587.777l-1.411.7a2.176,2.176,0,0,0-.549.348c-.132.132-.168.287.038.492l.1.1c.079.081.083.115.04.158-.059.059-.114.034-.187-.038-.212-.211-.476-.517-.682-.722-.074-.072-.46-.413-.805-.756-.086-.086-.111-.141-.052-.2.044-.045.085-.033.138.021s.161.144.221.189c.35.259.726.135,1.227-.1l6.29-2.958c.293-.135.415-.176.481-.111s.032.165-.069.4c-.246.562-2.186,4.616-2.882,6.154-.41.914-.32,1.208-.217,1.382a1.747,1.747,0,0,0,.25.308c.053.051.079.092.027.144s-.135.014-.379-.23S1.442,5.336.924,4.793c-.111-.126-.191-.2-.139-.258S.87,4.5.945,4.562a.175.175,0,0,0,.229-.111L2.2,2.368a.093.093,0,0,0-.015-.119Z" transform="translate(2.952 2.135)"/>
        </g>
      </g>
      <g id="Group_3500" data-name="Group 3500" transform="translate(40.336 133.343)">
        <g id="Group_3499" data-name="Group 3499" transform="translate(0 0)">
          <path id="Path_2435" data-name="Path 2435" class="cls-3" d="M.027,2.219A4.138,4.138,0,0,1,.857-.95,4.162,4.162,0,0,1,3.405-2.636a3.864,3.864,0,0,1,3.057.808,8.528,8.528,0,0,1,1.05.87c.26.248.451.5.662.685.078.068.079.132.043.182-.048.068-.144.153-.371.44-.215.267-.538.738-.673.9-.1.121-.162.178-.232.13S6.913,1.254,7,1.136A1.571,1.571,0,0,0,7.256.147,2.614,2.614,0,0,0,6.075-1.475a2.306,2.306,0,0,0-1.812-.492A3.716,3.716,0,0,0,2-.272C.561,1.744,1.235,3.72,2.261,4.446c.681.48,1.153.686,1.738.514a1.779,1.779,0,0,0,.658-.376c.12-.119.159-.141.222-.1s.026.108-.023.176A11.235,11.235,0,0,1,3.885,5.67a.364.364,0,0,1-.374.1A4.93,4.93,0,0,1,1.995,5,4.375,4.375,0,0,1,.027,2.219" transform="translate(0.033 2.695)"/>
        </g>
      </g>
      <g id="Group_3502" data-name="Group 3502" transform="translate(47.121 137.442)">
        <g id="Group_3501" data-name="Group 3501" transform="translate(0 0)">
          <path id="Path_2436" data-name="Path 2436" class="cls-3" d="M2.743,2.447c1.093-2.053.7-3.893-.657-4.611-.953-.5-2.353-.488-3.568,1.8C-2.5,1.54-2.348,3.558-.757,4.4c.58.305,2.09.7,3.5-1.95M-2.777-.687A3.839,3.839,0,0,1,2.56-2.478a3.555,3.555,0,0,1,1.524,5.2C2.967,4.822.757,5.783-1.349,4.671A3.77,3.77,0,0,1-2.777-.687" transform="translate(3.333 2.973)"/>
        </g>
      </g>
      <g id="Group_3504" data-name="Group 3504" transform="translate(54.589 140.248)">
        <g id="Group_3503" data-name="Group 3503" transform="translate(0 0)">
          <path id="Path_2437" data-name="Path 2437" class="cls-3" d="M1.315,2.355C.83,3.594.568,4.26.683,4.506c.092.2.292.359.973.624.465.18.808.3,1.129.127a1.374,1.374,0,0,0,.456-.492c.043-.083.083-.135.154-.106s.05.074,0,.189a8.772,8.772,0,0,1-.567,1.062c-.135.192-.2.223-.653.045C.921,5.467.367,5.185-.341,4.91c-.2-.077-.763-.264-1.112-.4-.114-.044-.164-.1-.137-.165.018-.048.065-.063.171-.023a1.411,1.411,0,0,0,.328.083c.192.03.319-.167.463-.433.2-.389.5-1.152.851-2.042L.891.23c.576-1.47.683-1.741.786-2.056.111-.335.1-.518-.159-.7a1.27,1.27,0,0,0-.277-.142c-.1-.037-.141-.076-.114-.145s.095-.062.226-.012c.411.16.949.4,1.185.5.21.082.859.3,1.2.433.122.047.174.089.149.159S3.8-1.669,3.7-1.71a2.232,2.232,0,0,0-.351-.1c-.254-.043-.388.094-.54.426-.138.3-.244.574-.821,2.043Z" transform="translate(1.597 2.861)"/>
        </g>
      </g>
      <g id="Group_3506" data-name="Group 3506" transform="translate(60.785 142.306)">
        <g id="Group_3505" data-name="Group 3505" transform="translate(0 0)">
          <path id="Path_2438" data-name="Path 2438" class="cls-3" d="M1.223,2.341C.858,3.618.66,4.307.8,4.541c.111.193.326.329,1.029.529.479.136.833.226,1.136.02a1.408,1.408,0,0,0,.407-.531c.033-.088.069-.143.141-.122s.059.071.023.189a9.13,9.13,0,0,1-.463,1.112c-.118.2-.178.239-.647.106-1.3-.37-1.877-.6-2.608-.807-.208-.057-.784-.189-1.146-.292-.117-.034-.171-.082-.153-.153.015-.049.059-.068.168-.037a1.642,1.642,0,0,0,.336.052c.192.01.3-.2.419-.474.166-.408.391-1.2.655-2.114L.6.264c.435-1.518.516-1.8.589-2.122.08-.344.053-.523-.225-.679a1.3,1.3,0,0,0-.289-.116c-.1-.027-.147-.062-.128-.131s.089-.073.225-.035c.425.121.983.313,1.227.381.217.063.883.22,1.235.318.127.038.185.077.164.145s-.08.074-.188.044A2.263,2.263,0,0,0,2.85-2c-.259-.019-.378.13-.5.474-.111.314-.19.593-.626,2.111Z" transform="translate(1.486 2.843)"/>
        </g>
      </g>
      <g id="Group_3508" data-name="Group 3508" transform="translate(67.167 143.83)">
        <g id="Group_3507" data-name="Group 3507" transform="translate(0 0)">
          <path id="Path_2439" data-name="Path 2439" class="cls-3" d="M.748,1.4c.288-1.551.341-1.837.383-2.168.046-.35,0-.528-.289-.655a1.723,1.723,0,0,0-.355-.1c-.1-.018-.153-.05-.14-.122s.083-.078.22-.053c.489.089,1.064.227,1.324.274.295.054,2.131.392,2.308.414a3.432,3.432,0,0,0,.408.013A.7.7,0,0,1,4.763-1c.046.008.047.049.038.1-.013.071-.083.185-.2.65-.026.1-.129.547-.171.666-.019.049-.049.106-.113.095S4.246.442,4.263.35a1.244,1.244,0,0,0,.013-.378c-.03-.2-.1-.336-.55-.481-.153-.049-1.119-.247-1.3-.282C2.378-.8,2.353-.772,2.341-.7l-.48,2.582c-.012.072-.011.114.044.124.2.038,1.264.233,1.48.251a.615.615,0,0,0,.472-.071c.079-.071.126-.115.171-.108s.062.033.05.094-.088.217-.212.733c-.056.2-.15.605-.163.677s-.038.193-.12.178c-.065-.011-.076-.055-.066-.108a2.849,2.849,0,0,0,.032-.373c-.008-.214-.11-.39-.444-.494-.171-.052-1.082-.232-1.3-.271-.046-.009-.062.03-.074.092l-.148.806C1.514,3.761,1.33,4.7,1.284,5c-.111.708.007.888.95,1.061a2.205,2.205,0,0,0,.89.038c.262-.079.412-.272.555-.68.04-.108.065-.145.129-.134s.059.095.04.2a8.881,8.881,0,0,1-.33,1.111c-.114.253-.2.238-.547.174-1.393-.256-2-.43-2.544-.531-.212-.041-.8-.116-1.168-.183-.119-.023-.178-.066-.165-.136.009-.051.051-.077.161-.056a1.318,1.318,0,0,0,.341.02c.193-.006.28-.223.372-.511C.091,4.944.242,4.139.416,3.2Z" transform="translate(0.909 1.704)"/>
        </g>
      </g>
      <g id="Group_3510" data-name="Group 3510" transform="translate(73.966 144.995)">
        <g id="Group_3509" data-name="Group 3509" transform="translate(0 0)">
          <path id="Path_2440" data-name="Path 2440" class="cls-3" d="M2.933,3.375c-.019.279-.03.3-.147.364A4.883,4.883,0,0,1,.5,4.052C-1.8,3.9-3.745,2.557-3.549-.3a3.994,3.994,0,0,1,1.86-3.275,4.186,4.186,0,0,1,2.563-.5A10.447,10.447,0,0,1,2.521-3.8a5.513,5.513,0,0,0,.731.165c.112.018.128.062.123.134a15.326,15.326,0,0,0-.182,1.694c-.012.165-.043.214-.119.21s-.08-.058-.083-.141a1.55,1.55,0,0,0-.26-.883A2.841,2.841,0,0,0,.7-3.57a2.531,2.531,0,0,0-1.9.516A3.272,3.272,0,0,0-2.232-.574C-2.385,1.652-1.216,3.4.758,3.54a1.92,1.92,0,0,0,.8-.06.378.378,0,0,0,.2-.371l.067-.973c.035-.519.062-.912.073-1.223C1.921.558,1.849.386,1.545.294A1.774,1.774,0,0,0,1.182.239C1.1.233,1.042.208,1.047.145c.006-.081.072-.1.2-.089.487.033,1.074.1,1.356.123S3.394.2,3.7.221c.123.008.185.034.18.117,0,.062-.062.078-.127.074A1.477,1.477,0,0,0,3.5.426c-.257.036-.362.207-.4.567-.032.311-.059.724-.095,1.241Z" transform="translate(3.562 4.1)"/>
        </g>
      </g>
      <g id="Group_3512" data-name="Group 3512" transform="translate(82.661 145.02)">
        <g id="Group_3511" data-name="Group 3511" transform="translate(0 0)">
          <path id="Path_2441" data-name="Path 2441" class="cls-3" d="M.489,1.469C.416-.108.4-.4.367-.728.331-1.081.25-1.242-.064-1.3A1.7,1.7,0,0,0-.43-1.314c-.1,0-.161-.014-.163-.086s.059-.1.2-.1C.1-1.527.7-1.524.959-1.536c.3-.015,2.165-.1,2.342-.12a3.117,3.117,0,0,0,.4-.08.835.835,0,0,1,.149-.048c.048,0,.059.039.062.089a6.688,6.688,0,0,0-.044.678c0,.1,0,.56-.014.686-.008.052-.025.116-.089.119s-.086-.047-.091-.141A1.246,1.246,0,0,0,3.6-.723c-.075-.183-.176-.3-.647-.344-.16-.014-1.145.013-1.332.02-.048,0-.064.035-.061.108l.123,2.624c0,.073.015.114.071.11.205-.009,1.284-.059,1.5-.089s.364-.068.444-.177c.062-.086.1-.14.144-.143s.068.018.071.081-.038.23-.041.761c-.009.207-.008.623,0,.7s.009.195-.074.2c-.065,0-.088-.037-.089-.089a2.986,2.986,0,0,0-.055-.371c-.056-.2-.195-.354-.544-.38-.179-.012-1.108.02-1.332.032-.049,0-.056.044-.053.105l.04.82c.017.352.051,1.307.075,1.608.053.714.21.863,1.165.819A2.181,2.181,0,0,0,3.873,5.5c.238-.135.339-.359.386-.787.013-.114.029-.157.1-.16s.079.08.083.183A8.854,8.854,0,0,1,4.371,5.89c-.053.273-.136.277-.494.294-1.414.066-2.045.034-2.6.059C1.062,6.253.473,6.312.1,6.33c-.12.005-.188-.023-.19-.1,0-.051.032-.085.145-.089a1.489,1.489,0,0,0,.335-.057c.186-.051.22-.28.244-.583C.659,5.066.619,4.247.575,3.293Z" transform="translate(0.594 1.784)"/>
        </g>
      </g>
      <g id="Group_3514" data-name="Group 3514" transform="translate(92.576 143.529)">
        <g id="Group_3513" data-name="Group 3513" transform="translate(0 0)">
          <path id="Path_2442" data-name="Path 2442" class="cls-3" d="M2.869,1.691C2.36-.579.865-1.725-.637-1.393c-1.053.234-2.108,1.148-1.542,3.671.471,2.108,1.9,3.547,3.655,3.157.642-.144,2.047-.817,1.392-3.744M-3.373,2.872A3.812,3.812,0,0,1-.478-1.937,3.576,3.576,0,0,1,4.069,1.032c.518,2.319-.538,4.478-2.862,5A3.8,3.8,0,0,1-3.373,2.872" transform="translate(3.485 2.054)"/>
        </g>
      </g>
      <g id="Group_3516" data-name="Group 3516" transform="translate(100.314 141.011)">
        <g id="Group_3515" data-name="Group 3515" transform="translate(0 0)">
          <path id="Path_2443" data-name="Path 2443" class="cls-3" d="M1.62,2.462c.329.941.589,1.676.776,2.071.126.275.256.474.537.419a3.8,3.8,0,0,0,.457-.115c.114-.041.159-.023.177.027.023.068-.028.119-.16.165-.558.194-1.126.359-1.357.438s-.777.3-1.114.422c-.123.043-.192.045-.22-.032C.7,5.806.724,5.766.82,5.733a1.471,1.471,0,0,0,.305-.151c.164-.1.132-.332.068-.628-.1-.429-.36-1.162-.689-2.1L-.1,1.126C-.626-.364-.722-.638-.849-.946c-.135-.327-.262-.459-.577-.426a1.851,1.851,0,0,0-.355.091c-.089.031-.159.033-.18-.026-.027-.077.037-.123.171-.168C-1.331-1.635-.763-1.8-.506-1.89c.336-.118,2.135-.742,2.335-.825a1.515,1.515,0,0,0,.348-.165c.048-.037.077-.092.123-.108s.075.018.092.068c.026.068.023.2.086.464.024.1.21.686.233.809.02.083.022.146-.04.168s-.1-.023-.145-.126a1.086,1.086,0,0,0-.183-.353.661.661,0,0,0-.688-.089L.28-1.6c-.053.018-.069.057-.029.165l.86,2.45c.02.059.04.086.092.065l1.132-.4c.15-.053.273-.1.394-.149a.474.474,0,0,0,.32-.309c.023-.074.028-.12.08-.138.036-.014.065.011.084.069s.062.32.144.633c.05.2.19.658.214.726.032.088.066.186-.023.219-.053.017-.1-.045-.119-.114a1.293,1.293,0,0,0-.16-.285.565.565,0,0,0-.575-.2c-.231.05-1.171.376-1.322.429-.044.014-.054.041-.032.109Z" transform="translate(1.968 2.991)"/>
        </g>
      </g>
      <g id="Group_3518" data-name="Group 3518" transform="translate(110.116 136.794)">
        <g id="Group_3517" data-name="Group 3517" transform="translate(0 0)">
          <path id="Path_2444" data-name="Path 2444" class="cls-3" d="M2.815,1.393C1.677-.636-.086-1.309-1.43-.561c-.941.524-1.688,1.7-.423,3.957C-.795,5.281.987,6.252,2.56,5.377c.573-.32,1.727-1.365.256-3.984M-2.825,4.306A3.806,3.806,0,0,1-1.436-1.128,3.586,3.586,0,0,1,3.775.419c1.163,2.075.774,4.444-1.305,5.6a3.805,3.805,0,0,1-5.3-1.716" transform="translate(3.42 1.692)"/>
        </g>
      </g>
      <g id="Group_3520" data-name="Group 3520" transform="translate(116.339 132.743)">
        <g id="Group_3519" data-name="Group 3519" transform="translate(0 0)">
          <path id="Path_2445" data-name="Path 2445" class="cls-3" d="M1.132,1.879C.2.6.027.367-.183.108-.406-.166-.565-.258-.859-.134a1.756,1.756,0,0,0-.314.189c-.086.061-.142.077-.186.019s0-.114.112-.2c.4-.291.9-.612,1.112-.766.31-.225.733-.568,1.08-.82a2.174,2.174,0,0,1,1.762-.545,1.906,1.906,0,0,1,1.107.726,2.32,2.32,0,0,1-.383,3.384,1.519,1.519,0,0,1-.166.106c-.044.02-.1.049-.146-.009s-.016-.132.146-.246A1.586,1.586,0,0,0,3.273-.416a2.139,2.139,0,0,0-1.367-.935,1.331,1.331,0,0,0-1,.22,1.229,1.229,0,0,0-.271.249c-.025.044-.012.111.056.2L3.142,2.681c.564.773,1.048,1.437,1.35,1.771.192.218.374.37.626.238a3.6,3.6,0,0,0,.414-.246c.081-.062.139-.063.169-.02.043.059,0,.126-.083.189-.5.361-1,.683-1.2.825-.173.126-.634.5-.936.717-.1.071-.171.084-.214.027s-.018-.091.072-.156a1.369,1.369,0,0,0,.249-.232c.128-.144.031-.356-.116-.621-.22-.38-.7-1.044-1.268-1.817Z" transform="translate(1.375 2.283)"/>
        </g>
      </g>
      <g id="Group_3522" data-name="Group 3522" transform="translate(121.118 127.367)">
        <g id="Group_3521" data-name="Group 3521" transform="translate(0 0)">
          <path id="Path_2446" data-name="Path 2446" class="cls-3" d="M1.018,1.313,0,2.275c-.391.377-.523.565-.475.831a1.379,1.379,0,0,0,.126.376c.044.072.051.123.007.161s-.1.018-.173-.068c-.112-.123-.614-.944-.653-1.018-.072-.12-.092-.185-.05-.223s.2-.035.382-.175A8.658,8.658,0,0,0-.1,1.573L2.663-.9A4.108,4.108,0,0,0,3.11-1.37a2.14,2.14,0,0,1,.153-.207c.05-.044.1,0,.2.112.145.161.606.712.786.914.062.083.093.142.049.179s-.1.023-.217-.086L4-.536c-.2-.189-.579-.235-1.214.3l-.9.763L4.748,3.7c.64.71,1.191,1.321,1.525,1.621.217.2.412.33.649.174A3.78,3.78,0,0,0,7.305,5.2c.077-.069.132-.078.167-.038.05.054.015.127-.062.2-.461.411-.923.782-1.116.957-.162.144-.58.56-.861.81-.088.082-.16.1-.207.047-.035-.039-.027-.086.054-.161a1.393,1.393,0,0,0,.225-.256c.111-.156,0-.364-.18-.606-.257-.356-.809-.965-1.45-1.675Z" transform="translate(1.236 1.595)"/>
        </g>
      </g>
      <g id="Group_3524" data-name="Group 3524" transform="translate(127.587 122.617)">
        <g id="Group_3523" data-name="Group 3523" transform="translate(0)">
          <path id="Path_2447" data-name="Path 2447" class="cls-3" d="M2.644,1.055C.884-.471-1-.51-2.013.647c-.711.809-1.014,2.169.944,3.867C.566,5.93,2.572,6.246,3.756,4.893c.431-.494,1.16-1.866-1.112-3.838M-1.676,5.7A3.8,3.8,0,0,1-2.212.114a3.588,3.588,0,0,1,5.429-.3c1.8,1.562,2.237,3.922.673,5.712A3.808,3.808,0,0,1-1.676,5.7" transform="translate(3.211 1.282)"/>
        </g>
      </g>
      <g id="Group_3526" data-name="Group 3526" transform="translate(132.304 114.537)">
        <g id="Group_3525" data-name="Group 3525" transform="translate(0 0)">
          <path id="Path_2448" data-name="Path 2448" class="cls-3" d="M.07,2.257c-.134-.117-.181-.216-.142-.279S.042,1.9.337,1.94L6.669,2.952,3.035-2.387c-.106-.145-.145-.236-.1-.308s.162-.062.363.033L9.183.082c.6.283.9.367,1.135.18a1.753,1.753,0,0,0,.4-.43c.047-.071.091-.122.143-.088.071.044.036.156-.034.266-.128.2-.853,1.265-1.08,1.564-.134.168-.192.2-.244.166s-.05-.077-.041-.147-.086-.156-.353-.281L4.945-.68l-.021.032L7.8,3.61c.3.443.352.533.305.6s-.271.038-.617,0C6.969,4.14,5.226,3.9,4.919,3.842c-.229-.046-1.638-.28-2.474-.425l-.02.031L5.655,6.086a4.559,4.559,0,0,0,.4.287.327.327,0,0,0,.433-.058,1.669,1.669,0,0,0,.257-.3c.04-.062.092-.107.137-.08.079.051.051.132-.025.252-.214.329-.466.666-.559.808s-.314.544-.475.795c-.05.08-.108.131-.187.081-.044-.028-.031-.086.021-.165a1.149,1.149,0,0,0,.125-.253c.089-.254-.213-.535-.486-.764Z" transform="translate(0.085 2.742)"/>
        </g>
      </g>
      <g id="Group_3528" data-name="Group 3528" transform="translate(136.849 108.262)">
        <g id="Group_3527" data-name="Group 3527" transform="translate(0 0)">
          <path id="Path_2449" data-name="Path 2449" class="cls-3" d="M1.4,2.037c-1.432-.674-1.7-.8-2.005-.925-.329-.134-.512-.137-.71.111a1.624,1.624,0,0,0-.186.314c-.044.093-.086.135-.153.1s-.057-.1,0-.226c.214-.447.495-.965.608-1.2C-.916-.057-.115-1.738-.05-1.9a3.281,3.281,0,0,0,.117-.388.662.662,0,0,1,.027-.154c.02-.041.061-.032.108-.011.067.032.16.128.58.357.089.053.5.265.6.336.044.029.092.074.063.133s-.082.053-.166.014a1.277,1.277,0,0,0-.365-.11c-.2-.02-.349.011-.606.405C.223-1.185-.219-.308-.3-.139c-.02.044,0,.074.066.1L2.15,1.089c.065.032.108.041.131-.01C2.37.893,2.832-.078,2.9-.281s.111-.352.051-.471C2.909-.846,2.879-.9,2.9-.944S2.946-1,3-.969s.187.14.656.392c.18.106.549.3.615.332s.18.083.144.159a.079.079,0,0,1-.12.036A3.022,3.022,0,0,0,3.94-.175a.516.516,0,0,0-.592.3c-.1.153-.5.983-.6,1.187-.02.042.013.068.069.1l.744.35c.321.151,1.183.569,1.461.689.656.289.864.221,1.272-.639A2.144,2.144,0,0,0,6.56.959C6.553.687,6.4.492,6.045.25c-.094-.065-.126-.1-.1-.159s.105-.032.2.014a8.945,8.945,0,0,1,.993.6c.218.176.182.253.028.574C6.563,2.553,6.238,3.091,6,3.589c-.093.194-.319.741-.479,1.078-.053.109-.108.156-.172.123s-.061-.068-.014-.168A1.407,1.407,0,0,0,5.445,4.3c.043-.185-.146-.326-.4-.489-.375-.229-1.12-.58-1.986-.988Z" transform="translate(1.7 2.474)"/>
        </g>
      </g>
      <g id="Group_3530" data-name="Group 3530" transform="translate(139.166 101.351)">
        <g id="Group_3529" data-name="Group 3529" transform="translate(0 0)">
          <path id="Path_2450" data-name="Path 2450" class="cls-3" d="M.664,1.649.24,2.975c-.162.519-.188.747-.02.956a1.3,1.3,0,0,0,.292.27c.072.044.1.086.083.138S.519,4.4.412,4.363c-.157-.053-.993-.537-1.066-.581-.117-.072-.168-.119-.148-.171.023-.071.154-.124.251-.338a8.869,8.869,0,0,0,.361-.864L1.045-1.08a4.3,4.3,0,0,0,.166-.626,2.175,2.175,0,0,1,.033-.255c.023-.062.084-.05.232,0,.207.072.874.336,1.13.428.1.043.15.08.132.135-.026.069-.083.069-.232.027L2.393-1.4c-.26-.073-.62.069-.918.846L1.054.547,5.085,1.962c.9.318,1.68.59,2.12.695.285.069.52.092.651-.159a2.982,2.982,0,0,0,.2-.435c.035-.1.08-.131.128-.114.068.024.076.106.04.2-.205.581-.431,1.126-.518,1.373-.072.2-.24.768-.363,1.12-.042.115-.093.166-.163.143-.047-.018-.065-.064-.027-.171a1.293,1.293,0,0,0,.073-.33c.023-.189-.175-.317-.451-.444-.4-.19-1.174-.462-2.078-.779Z" transform="translate(0.807 2.003)"/>
        </g>
      </g>
      <g id="Group_3532" data-name="Group 3532" transform="translate(141.563 95.102)">
        <g id="Group_3531" data-name="Group 3531" transform="translate(0 0)">
          <path id="Path_2451" data-name="Path 2451" class="cls-3" d="M1.889,1.946c.111.024.156.016.2-.041a2.237,2.237,0,0,0,.261-.668A.855.855,0,0,0,2.328.552a1.937,1.937,0,0,0-1.4-.889C-.511-.669-1.126.09-1.251.628a1.874,1.874,0,0,0-.071.492c.005.068.041.095.123.115ZM.836,2.835c-1.543-.356-1.828-.421-2.157-.477-.35-.062-.529-.026-.669.257a1.714,1.714,0,0,0-.113.349c-.023.1-.058.15-.127.134s-.077-.085-.045-.222c.111-.481.274-1.05.32-1.24.071-.309.2-1.01.267-1.29A2.742,2.742,0,0,1-.862-1.229a1.879,1.879,0,0,1,1.533-.3A3.007,3.007,0,0,1,2.668.2C3.994-.351,5.043-.771,5.8-1.162a1.822,1.822,0,0,0,.928-.861,1.5,1.5,0,0,0,.09-.247c.017-.074.055-.1.105-.09.082.018.088.086.061.195l-.2.866a1.74,1.74,0,0,1-.419.929,4.812,4.812,0,0,1-1.783.9c-.642.238-1.432.5-1.61.581a.182.182,0,0,0-.11.146l-.2.789c-.011.044,0,.077.065.09l.143.033c.945.217,1.746.4,2.183.455.3.041.537.037.643-.227a4.043,4.043,0,0,0,.142-.436c.018-.072.055-.1.107-.092.071.018.087.089.059.207C5.877,2.6,5.69,3.27,5.657,3.408c-.04.172-.143.753-.227,1.117-.028.118-.071.176-.144.159-.05-.011-.073-.056-.047-.165a1.328,1.328,0,0,0,.035-.336c0-.192-.212-.29-.5-.393-.417-.144-1.22-.328-2.153-.543Z" transform="translate(2.294 2.364)"/>
        </g>
      </g>
      <g id="Group_3534" data-name="Group 3534" transform="translate(142.927 87.586)">
        <g id="Group_3533" data-name="Group 3533" transform="translate(0 0)">
          <path id="Path_2452" data-name="Path 2452" class="cls-3" d="M2.481,2.158a2.432,2.432,0,0,0-1.112.08c-.175.046-2.6,1.011-3.181,1.271a2.5,2.5,0,0,0-.835.548.894.894,0,0,0-.18.374c-.011.074-.038.137-.111.128s-.086-.076-.071-.188c.02-.165.137-.858.174-1.165.025-.193.04-.578.091-1,.012-.092.047-.135.111-.127s.064.074.088.217a.184.184,0,0,0,.171.153,1.041,1.041,0,0,0,.364-.068c.326-.092,2.978-1.087,3.287-1.2C1.04,1.06-1.094-.384-1.4-.553a1.479,1.479,0,0,0-.523-.2A.245.245,0,0,0-2.2-.584c-.03.08-.062.161-.124.153S-2.416-.489-2.4-.6c.04-.306.108-.6.138-.868.026-.2.069-.82.089-1,.014-.1.041-.165.1-.158s.1.088.083.189a.922.922,0,0,0,.075.423,1.441,1.441,0,0,0,.445.564A34.292,34.292,0,0,0,1.606.725,2.77,2.77,0,0,0,2.623.989l.849.1c.166.021.6.073,1.038.1.3.017.539-.038.615-.311a3.54,3.54,0,0,0,.1-.459c.014-.1.05-.145.1-.139.071.01.092.088.078.208-.071.584-.174,1.165-.2,1.415-.029.232-.07.819-.111,1.162-.015.131-.047.2-.129.192C4.909,3.252,4.884,3.2,4.9,3.1a1.4,1.4,0,0,0,0-.329c-.019-.191-.236-.3-.534-.357-.432-.08-.865-.133-1.032-.153Z" transform="translate(3.014 2.621)"/>
        </g>
      </g>
      <g id="Group_3536" data-name="Group 3536" transform="translate(12.724 61.582)">
        <g id="Group_3535" data-name="Group 3535" transform="translate(0 0)">
          <path id="Path_2453" data-name="Path 2453" class="cls-3" d="M.112,3.348c-.181-.077-.265-.165-.244-.254s.092-.141.413-.217L7.218,1.324,1.611-3.138c-.159-.118-.231-.2-.208-.3s.149-.138.389-.118l7.064.59c.719.062,1.065.027,1.243-.279a2.275,2.275,0,0,0,.271-.657c.023-.1.051-.174.118-.158.088.02.091.16.054.315-.064.274-.454,1.785-.591,2.217-.081.247-.129.306-.2.291s-.078-.065-.092-.15c-.008-.07-.144-.136-.462-.165L4.183-2.028l-.011.044L8.625,1.583c.46.373.547.451.523.55s-.269.158-.642.256c-.57.146-2.465.622-2.805.682-.256.045-1.8.38-2.723.572l-.01.044,4.262,1.6a4.647,4.647,0,0,0,.512.154.372.372,0,0,0,.432-.248,2.162,2.162,0,0,0,.162-.449c.021-.088.062-.16.117-.147.1.023.1.127.059.292-.108.461-.258.949-.3,1.147s-.14.744-.223,1.1c-.026.11-.069.192-.168.169-.054-.013-.061-.084-.035-.194a1.493,1.493,0,0,0,.044-.338c.006-.324-.4-.511-.767-.654Z" transform="translate(0.135 4.067)"/>
        </g>
      </g>
      <g id="Group_3538" data-name="Group 3538" transform="translate(16.198 54.285)">
        <g id="Group_3537" data-name="Group 3537" transform="translate(0 0)">
          <path id="Path_2454" data-name="Path 2454" class="cls-3" d="M1.528,1.521C-.076.892-.372.776-.719.665c-.367-.12-.588-.084-.732.126a1.613,1.613,0,0,0-.191.362c-.042.105-.089.159-.172.127-.064-.025-.052-.117.014-.286.159-.4.452-1.05.572-1.353.1-.263.317-.9.476-1.3.053-.137.107-.212.171-.187.086.033.081.105.04.21a1.9,1.9,0,0,0-.093.328c-.059.3.086.459.447.625.33.153.626.269,2.232.9L3.9.945c1.023.4,1.859.727,2.329.864.3.08.517.081.683-.218a4.5,4.5,0,0,0,.254-.52c.046-.117.1-.156.152-.135.074.029.071.125.026.241-.274.695-.567,1.344-.679,1.629-.1.241-.326.917-.492,1.337-.053.137-.115.2-.189.169-.053-.02-.068-.075-.017-.2a1.9,1.9,0,0,0,.107-.4c.041-.227-.113-.36-.408-.512-.422-.226-1.256-.553-2.28-.954Z" transform="translate(1.857 1.848)"/>
        </g>
      </g>
      <g id="Group_3540" data-name="Group 3540" transform="translate(18.646 44.651)">
        <g id="Group_3539" data-name="Group 3539" transform="translate(0 0)">
          <path id="Path_2455" data-name="Path 2455" class="cls-3" d="M2.333,2.972c1.051.585,1.819,1,2.011,1.095a2.481,2.481,0,0,0,.814.311c.262-.023.685-.292,1.123-1.071A3.62,3.62,0,0,0,6.842.641a3.573,3.573,0,0,0-2-2.2,3.868,3.868,0,0,0-3.008-.432A4.49,4.49,0,0,0-.73.256a2.965,2.965,0,0,0-.291.679.2.2,0,0,0,.131.229c.332.2,1.194.677,1.976,1.113ZM.552,3.6C-.955,2.76-1.232,2.6-1.56,2.448c-.347-.168-.551-.178-.8.109a2.218,2.218,0,0,0-.245.368c-.062.108-.115.156-.184.118s-.05-.119.033-.267c.293-.523.672-1.128.828-1.4.171-.307.49-.944.823-1.536.692-1.232,1.619-2.88,3.35-3.325A4.064,4.064,0,0,1,5.3-3.042,4.492,4.492,0,0,1,7.456-.428a5.148,5.148,0,0,1-.688,3.955c-.4.719-1.023,1.541-1.3,2.034-.128.227-.447.864-.668,1.259-.072.128-.14.18-.21.142-.049-.027-.057-.084.01-.2a1.846,1.846,0,0,0,.159-.377c.072-.22-.119-.389-.383-.59-.389-.28-1.171-.716-2.082-1.223Z" transform="translate(2.834 3.611)"/>
        </g>
      </g>
      <g id="Group_3542" data-name="Group 3542" transform="translate(24.495 31.284)">
        <g id="Group_3541" data-name="Group 3541" transform="translate(0 0)">
          <path id="Path_2456" data-name="Path 2456" class="cls-3" d="M.669,4.359a1.664,1.664,0,0,0-.886-.2,1.01,1.01,0,0,0-.372.28c-.072.086-.126.132-.195.073S-.8,4.375-.7,4.256c.381-.449.811-.9.876-.979S.538,2.8.963,2.3c.1-.12.18-.159.232-.115.069.059.019.135-.055.221a.6.6,0,0,0-.149.245c-.03.107.015.174.111.255a7.264,7.264,0,0,0,.959.481c.7.335,4,1.746,4.619,2L6.7,5.358,3.611-.119c-.162-.3-.187-.409-.129-.479.08-.094.247-.028.62.094L9.984,1.372l.023-.026C9.559.7,7.857-1.914,7.1-3.07a2.4,2.4,0,0,0-.43-.511c-.138-.117-.325-.141-.611.2-.073.086-.15.124-.2.081s-.019-.135.09-.265c.389-.457.722-.8.789-.876.051-.059.341-.453.582-.737.081-.095.149-.141.2-.1s.05.117-.017.194a1.236,1.236,0,0,0-.213.338c-.1.272.168.659.508,1.256.753,1.317,2.739,4.544,3.679,6.061.223.351.29.482.195.594-.073.086-.221.05-.651-.091L5.155,1.211l-.014.018c.3.536,2.393,4.267,2.875,5.31.216.463.283.593.2.7-.072.086-.2.049-.489-.072Z" transform="translate(0.812 5.295)"/>
        </g>
      </g>
      <g id="Group_3544" data-name="Group 3544" transform="translate(34.599 26.31)">
        <g id="Group_3543" data-name="Group 3543" transform="translate(0 0)">
          <path id="Path_2457" data-name="Path 2457" class="cls-3" d="M1.336,2.4C.218,1.092.012.851-.239.591-.507.312-.694.233-1.029.414A2.423,2.423,0,0,0-1.39.673c-.095.08-.161.108-.214.047s0-.128.126-.238C-1.021.094-.453-.341-.211-.545c.277-.234,2-1.69,2.155-1.838a4.8,4.8,0,0,0,.329-.366A1.016,1.016,0,0,1,2.381-2.9c.044-.037.082-.01.119.033a6.621,6.621,0,0,0,.408.618c.065.094.371.488.441.605.028.051.054.117-.006.168s-.114.023-.18-.055A1.232,1.232,0,0,0,2.845-1.8c-.192-.1-.366-.133-.843.181-.162.107-1.084.858-1.258,1C.7-.576.706-.535.757-.475L2.616,1.7c.051.059.09.087.141.044.189-.162,1.185-1,1.369-1.188s.3-.328.305-.48c0-.12,0-.192.042-.229s.075-.035.12.017a7.877,7.877,0,0,0,.466.687c.13.187.407.546.458.607s.14.164.062.229a.091.091,0,0,1-.144-.011,2.769,2.769,0,0,0-.3-.281c-.189-.135-.421-.163-.771.074-.178.121-1.042.838-1.25,1.013-.044.036-.023.078.022.13L3.719,3c.249.292.916,1.092,1.138,1.335.525.58.773.592,1.654-.154a2.854,2.854,0,0,0,.726-.79.954.954,0,0,0-.154-.967c-.064-.11-.076-.158-.015-.21s.128.01.2.1a8.921,8.921,0,0,1,.7,1.051c.131.275.053.341-.276.619C6.39,5.081,5.766,5.519,5.256,5.951c-.2.168-.722.655-1.068.947-.112.1-.195.121-.246.061-.037-.044-.025-.1.08-.186a1.808,1.808,0,0,0,.281-.3c.144-.181.025-.408-.153-.686C3.885,5.39,3.3,4.71,2.628,3.918Z" transform="translate(1.623 2.918)"/>
        </g>
      </g>
      <g id="Group_3546" data-name="Group 3546" transform="translate(42.471 21.875)">
        <g id="Group_3545" data-name="Group 3545" transform="translate(0 0)">
          <path id="Path_2458" data-name="Path 2458" class="cls-3" d="M1.755,4.2c-.2.034-.254.005-.393-.2C1.018,3.475.679,2.885.588,2.729s-.126-.271-.05-.32.152.023.2.1a2.354,2.354,0,0,0,.4.424,1.569,1.569,0,0,0,1.986.059,1.371,1.371,0,0,0,.553-1.911C3.377.617,2.94.268,1.754.183L1.093.132C-.487.008-1.285-.414-1.793-1.176c-.689-1.036-.314-2.355,1-3.223A5.507,5.507,0,0,1,.573-5.07c.1-.038.163-.041.208.026.082.122.225.42.714,1.155.138.207.159.3.084.351s-.133.007-.208-.107A1.371,1.371,0,0,0,.711-4.1a1.439,1.439,0,0,0-1.338.219,1.186,1.186,0,0,0-.48,1.714c.289.432.726.618,1.906.694l.4.023c1.718.127,2.555.483,3.15,1.378a2.27,2.27,0,0,1,.2,2.226A3.274,3.274,0,0,1,3.3,3.529,3.943,3.943,0,0,1,1.755,4.2" transform="translate(2.132 5.096)"/>
        </g>
      </g>
      <g id="Group_3548" data-name="Group 3548" transform="translate(47.851 16.903)">
        <g id="Group_3547" data-name="Group 3547" transform="translate(0 0)">
          <path id="Path_2459" data-name="Path 2459" class="cls-3" d="M1.33,1.162l-1.5.785c-.58.311-.8.481-.842.78a1.324,1.324,0,0,0,0,.44c.02.091.008.146-.051.176s-.118-.005-.172-.117c-.081-.162-.344-1.179-.364-1.27-.035-.147-.035-.223.026-.253a2.634,2.634,0,0,0,.5-.093c.311-.115.707-.285,1.044-.449L4-.82A5.006,5.006,0,0,0,4.931-1.4c.071-.035.111.02.187.172.105.214.421.928.552,1.19.04.107.05.177-.012.208-.08.04-.126,0-.211-.148L5.382-.085c-.151-.254-.567-.4-1.483.023l-1.3.6L4.661,4.692c.461.932.858,1.733,1.126,2.143.171.268.341.462.667.353a5.106,5.106,0,0,0,.541-.214c.111-.056.177-.05.2,0,.035.071-.031.141-.144.2-.672.331-1.328.615-1.612.756-.235.114-.861.459-1.268.66-.132.065-.219.069-.254,0-.025-.051,0-.1.123-.161a1.824,1.824,0,0,0,.347-.22c.183-.141.135-.394.02-.7-.161-.451-.558-1.251-1.019-2.184Z" transform="translate(1.615 1.411)"/>
        </g>
      </g>
      <g id="Group_3550" data-name="Group 3550" transform="translate(56.908 14.225)">
        <g id="Group_3549" data-name="Group 3549" transform="translate(0 0)">
          <path id="Path_2460" data-name="Path 2460" class="cls-3" d="M.954,2.054C.4.426.3.127.162-.209c-.146-.356-.289-.5-.67-.454a2.392,2.392,0,0,0-.43.109c-.118.04-.189.04-.216-.035s.043-.122.2-.177C-.379-.957.309-1.152.61-1.254c.344-.115,2.483-.836,2.683-.916a4.467,4.467,0,0,0,.44-.22.982.982,0,0,1,.158-.1c.053-.018.079.021.1.074.026.076.016.222.15.726.027.111.165.589.187.724.007.058.007.129-.068.154s-.115-.021-.148-.117a1.209,1.209,0,0,0-.195-.364c-.141-.168-.292-.26-.852-.143-.19.041-1.326.4-1.541.471-.053.019-.064.058-.038.133L2.4,1.876c.026.074.05.114.115.092.237-.079,1.473-.5,1.713-.6s.4-.194.461-.334c.047-.111.071-.179.125-.2s.083,0,.1.061.027.253.18.811c.052.221.176.656.2.732s.069.2-.027.236a.091.091,0,0,1-.13-.064A3.136,3.136,0,0,0,4.97,2.24c-.127-.2-.332-.306-.744-.215-.212.047-1.279.4-1.537.482-.054.018-.05.065-.029.129l.287.846c.124.363.447,1.353.563,1.659.271.731.5.834,1.6.465a2.9,2.9,0,0,0,.966-.468.95.95,0,0,0,.214-.956c-.017-.124-.01-.175.065-.2s.116.056.151.164a8.774,8.774,0,0,1,.265,1.235c.019.3-.078.337-.486.473-1.623.547-2.365.726-3,.939-.247.083-.914.343-1.344.488-.14.047-.226.04-.251-.035-.019-.053.014-.1.142-.143A1.819,1.819,0,0,0,2.2,6.929c.2-.114.173-.368.112-.694-.1-.467-.387-1.312-.722-2.3Z" transform="translate(1.159 2.495)"/>
        </g>
      </g>
      <g id="Group_3552" data-name="Group 3552" transform="translate(65.288 12.623)">
        <g id="Group_3551" data-name="Group 3551" transform="translate(0 0)">
          <path id="Path_2461" data-name="Path 2461" class="cls-3" d="M1.45,1.98c.023.122.053.162.139.18a3,3,0,0,0,.868-.05,1.137,1.137,0,0,0,.755-.34A1.982,1.982,0,0,0,3.55-.019a1.814,1.814,0,0,0-2.1-1.706,2.549,2.549,0,0,0-.583.157C.8-1.531.783-1.482.8-1.393ZM-.034,1.355c-.325-1.688-.383-2-.475-2.349-.094-.374-.218-.534-.6-.542a2.389,2.389,0,0,0-.442.05c-.123.024-.193.015-.209-.063s.059-.115.227-.147c.59-.112,1.3-.213,1.533-.258.379-.072,1.22-.267,1.565-.333A3.639,3.639,0,0,1,3.707-2.2,1.958,1.958,0,0,1,4.758-.825a3.16,3.16,0,0,1-.992,2.766C5,3,5.956,3.836,6.746,4.4a2.265,2.265,0,0,0,1.392.517,1.664,1.664,0,0,0,.319-.026c.089-.017.14.008.15.064.019.088-.055.126-.189.15l-1.059.2a2.307,2.307,0,0,1-1.233.017,5.451,5.451,0,0,1-1.84-1.34c-.564-.526-1.222-1.182-1.4-1.32a.239.239,0,0,0-.217-.04L1.7,2.784a.079.079,0,0,0-.071.107l.03.155c.2,1.032.366,1.909.513,2.364.095.315.208.548.552.528a5.428,5.428,0,0,0,.554-.059c.09-.017.141.008.151.063.016.077-.056.126-.2.153-.647.123-1.477.247-1.646.28-.211.04-.907.208-1.353.292C.081,6.694,0,6.676-.019,6.6c-.011-.056.028-.1.162-.123a1.859,1.859,0,0,0,.392-.121c.214-.087.224-.342.207-.673-.035-.476-.2-1.353-.4-2.374Z" transform="translate(1.762 2.406)"/>
        </g>
      </g>
      <g id="Group_3554" data-name="Group 3554" transform="translate(75.584 11.377)">
        <g id="Group_3553" data-name="Group 3553" transform="translate(0 0)">
          <path id="Path_2462" data-name="Path 2462" class="cls-3" d="M.869,3.245c.045.88.2,1.17.429,1.244a1.788,1.788,0,0,0,.592.065c.125,0,.195.017.2.086,0,.09-.1.114-.258.119-.738.018-1.192,0-1.409,0-.1,0-.634.051-1.224.065-.147,0-.25-.005-.251-.106,0-.068.065-.092.178-.1a2.043,2.043,0,0,0,.51-.068c.292-.1.329-.427.316-1.41l-.065-6.69c-.005-.226.023-.385.137-.387s.232.141.429.339c.14.144,1.911,1.941,3.608,3.539C4.847.693,6.42,2.281,6.617,2.457l.056,0-.24-5.068c-.03-.689-.138-.9-.412-1.008a1.86,1.86,0,0,0-.6-.053c-.136,0-.181-.029-.183-.1,0-.09.122-.1.292-.109.591-.015,1.137.006,1.374,0,.124,0,.556-.048,1.111-.062.147,0,.262,0,.263.1,0,.068-.065.1-.2.106a1.225,1.225,0,0,0-.338.043c-.317.1-.4.338-.4.97L7.393,4.4c.006.249-.038.351-.138.353-.126,0-.265-.117-.392-.238-.732-.66-2.222-2.1-3.431-3.238C2.165.093.869-1.288.659-1.5l-.034,0Z" transform="translate(1.056 3.942)"/>
        </g>
      </g>
      <g id="Group_3556" data-name="Group 3556" transform="translate(92.042 12.071)">
        <g id="Group_3555" data-name="Group 3555" transform="translate(0 0)">
          <path id="Path_2463" data-name="Path 2463" class="cls-3" d="M.23,1.54C.588-.139.654-.449.708-.806c.057-.381.007-.577-.342-.732A2.418,2.418,0,0,0-.06-1.663c-.123-.026-.183-.062-.167-.14s.1-.082.264-.047c.589.125,1.28.305,1.614.377.265.056.971.172,1.371.256.166.035.241.074.223.153s-.088.084-.2.061a1.8,1.8,0,0,0-.328-.035c-.312-.008-.441.161-.546.543-.1.348-.165.658-.524,2.338L1.317,3.389c-.345,1.6-.167,2.345.282,2.9A2.1,2.1,0,0,0,2.89,7.04a2.218,2.218,0,0,0,1.658-.272c.743-.477.989-1.465,1.232-2.6l.3-1.381C6.436,1.1,6.5.793,6.556.435c.057-.38.008-.576-.342-.731a2.179,2.179,0,0,0-.392-.118C5.7-.44,5.638-.476,5.654-.553s.1-.084.254-.05c.565.12,1.259.3,1.268.3.134.028.84.144,1.274.235.154.033.228.071.211.149S8.574.17,8.44.143A1.661,1.661,0,0,0,8.112.107C7.8.1,7.67.268,7.565.65c-.1.349-.165.658-.523,2.338L6.789,4.17a4.275,4.275,0,0,1-1.768,3.1,3.4,3.4,0,0,1-2.477.306,3.657,3.657,0,0,1-2.3-1.286,3.69,3.69,0,0,1-.36-3.138Z" transform="translate(0.279 1.871)"/>
        </g>
      </g>
      <g id="Group_3558" data-name="Group 3558" transform="translate(100.548 15.03)">
        <g id="Group_3557" data-name="Group 3557" transform="translate(0 0)">
          <path id="Path_2464" data-name="Path 2464" class="cls-3" d="M1.069,3.128C.757,3.954.782,4.282.963,4.44a1.787,1.787,0,0,0,.518.295c.115.046.168.092.144.156-.034.083-.137.066-.284.007C.656,4.621.249,4.419.048,4.338c-.094-.037-.6-.206-1.147-.427-.138-.054-.229-.1-.19-.2.026-.064.1-.059.2-.017a1.969,1.969,0,0,0,.495.138c.307.027.474-.259.855-1.165L2.882-3.492c.084-.21.177-.343.283-.3s.155.22.256.482c.072.186.974,2.538,1.893,4.678.424,1,1.23,3.082,1.341,3.321l.052.022L8.515-.034c.25-.644.238-.881.026-1.087a1.832,1.832,0,0,0-.532-.288c-.126-.051-.155-.1-.13-.162.035-.084.156-.048.312.016.547.22,1.039.456,1.259.545.117.047.529.176,1.044.385.137.054.239.108.2.192-.026.063-.1.068-.227.017a1.251,1.251,0,0,0-.329-.1c-.327-.035-.5.15-.752.733L6.585,6.782c-.094.231-.174.308-.269.271-.117-.047-.195-.214-.265-.375-.406-.9-1.194-2.811-1.849-4.332C3.518.752,2.883-1.028,2.775-1.3l-.032-.013Z" transform="translate(1.298 3.8)"/>
        </g>
      </g>
      <g id="Group_3560" data-name="Group 3560" transform="translate(111.135 19.924)">
        <g id="Group_3559" data-name="Group 3559" transform="translate(0 0)">
          <path id="Path_2465" data-name="Path 2465" class="cls-3" d="M1.554,1.485C2.415,0,2.572-.278,2.733-.6c.175-.344.172-.566-.016-.741a1.608,1.608,0,0,0-.332-.242c-.1-.056-.147-.11-.1-.188.035-.059.125-.033.282.057.374.214.977.6,1.262.763.247.141.844.444,1.216.657.128.074.2.139.162.2-.045.078-.116.064-.215.008a1.879,1.879,0,0,0-.311-.139c-.295-.1-.468.017-.687.349-.2.3-.359.576-1.22,2.065l-1,1.723c-.55.95-1,1.724-1.2,2.168-.123.281-.157.5.115.705a4.971,4.971,0,0,0,.48.327c.108.062.14.119.112.168-.04.069-.135.053-.244-.008C.388,6.894-.214,6.509-.48,6.357-.7,6.227-1.343,5.9-1.735,5.676c-.128-.073-.179-.142-.14-.211.028-.05.084-.056.2.012a1.862,1.862,0,0,0,.377.164c.219.073.373-.059.568-.326C-.44,4.931.008,4.158.556,3.208Z" transform="translate(1.888 1.804)"/>
        </g>
      </g>
      <g id="Group_3562" data-name="Group 3562" transform="translate(118.33 22.393)">
        <g id="Group_3561" data-name="Group 3561" transform="translate(0 0)">
          <path id="Path_2466" data-name="Path 2466" class="cls-3" d="M.889.765C1.054.111.971-.1.712-.437a1.73,1.73,0,0,0-.329-.3C.3-.8.293-.843.335-.9c.052-.072.159-.008.3.093.483.357.983.768,1.3,1,.228.168.686.465,1.141.8.109.08.2.173.15.236s-.117.042-.2-.019a.831.831,0,0,0-.4-.2.271.271,0,0,0-.233.124,3.309,3.309,0,0,0-.313.853L.578,7.272.613,7.3c1.135-.71,4.5-2.756,5.162-3.194a1.4,1.4,0,0,0,.333-.275.216.216,0,0,0,.011-.259,1.521,1.521,0,0,0-.332-.315c-.083-.06-.149-.123-.1-.187s.148-.031.322.1c.456.337.819.647.937.734.156.114.6.4.877.606.119.087.177.159.131.223s-.115.041-.207-.026a.982.982,0,0,0-.528-.221c-.18-.005-.432.047-1.109.447-.989.591-1.6.9-2.926,1.651C1.613,7.475.449,8.148-.091,8.454c-.629.351-.792.456-.92.362s-.077-.255.066-.811Z" transform="translate(1.08 0.929)"/>
        </g>
      </g>
      <g id="Group_3564" data-name="Group 3564" transform="translate(122.807 29.176)">
        <g id="Group_3563" data-name="Group 3563" transform="translate(0 0)">
          <path id="Path_2467" data-name="Path 2467" class="cls-3" d="M1.954,1.4C3.155.166,3.376-.061,3.612-.337c.252-.292.313-.484.1-.8a2.418,2.418,0,0,0-.294-.33c-.091-.088-.124-.151-.068-.207s.128-.018.25.1c.431.417.92.937,1.149,1.157C5.012-.166,6.633,1.4,6.8,1.54a4.8,4.8,0,0,0,.4.289.878.878,0,0,1,.162.093c.04.039.017.08-.022.12a6.63,6.63,0,0,0-.578.464c-.088.073-.451.415-.563.5-.047.032-.111.065-.167.01s-.034-.111.036-.184A1.183,1.183,0,0,0,6.3,2.491c.086-.2.1-.377-.261-.819C5.913,1.521,5.072.68,4.909.523c-.038-.04-.08-.031-.136.026l-2,2.053c-.056.056-.078.1-.029.144.179.173,1.117,1.077,1.32,1.241s.356.266.509.256c.12-.009.192-.018.232.022s.041.07-.006.119-.214.14-.642.529c-.173.147-.506.456-.562.513s-.151.153-.222.083a.087.087,0,0,1,0-.144,3.214,3.214,0,0,0,.251-.323c.118-.2.123-.434-.149-.757-.139-.165-.937-.953-1.133-1.141-.041-.04-.08-.015-.128.034l-.624.641c-.268.276-1,1.015-1.223,1.258-.53.576-.519.823.314,1.625a2.873,2.873,0,0,0,.862.642A.96.96,0,0,0,2.494,7.1c.1-.074.151-.091.208-.036s0,.129-.077.21a9.057,9.057,0,0,1-.981.8c-.263.156-.336.085-.647-.214C-.234,6.668-.733,6.092-1.212,5.628c-.189-.18-.726-.652-1.05-.966-.107-.1-.14-.181-.086-.238.041-.041.1-.033.194.062a1.843,1.843,0,0,0,.326.25c.192.125.408-.015.669-.218.372-.3,1-.943,1.723-1.69Z" transform="translate(2.374 1.7)"/>
        </g>
      </g>
      <g id="Group_3566" data-name="Group 3566" transform="translate(128.217 35.371)">
        <g id="Group_3565" data-name="Group 3565" transform="translate(0 0)">
          <path id="Path_2468" data-name="Path 2468" class="cls-3" d="M2.18,2.022c-.1.077-.119.123-.1.206a2.955,2.955,0,0,0,.444.744c.28.355.408.442.65.511a2,2,0,0,0,1.75-.524A1.8,1.8,0,0,0,5.487.322,2.474,2.474,0,0,0,5.079-.12c-.065-.049-.115-.038-.187.018ZM2.057.423C3.412-.639,3.663-.835,3.933-1.077c.289-.256.377-.439.208-.78a2.265,2.265,0,0,0-.249-.368c-.076-.1-.1-.165-.038-.213s.13,0,.235.132c.371.47.786,1.05.935,1.238.239.3.8.956,1.017,1.231A3.617,3.617,0,0,1,6.948,2.1,1.958,1.958,0,0,1,6.2,3.659a3.2,3.2,0,0,1-2.926.393C2.905,5.625,2.6,6.859,2.457,7.817a2.239,2.239,0,0,0,.18,1.47,1.647,1.647,0,0,0,.171.269c.055.071.056.128.012.163-.072.055-.138.008-.222-.1L1.93,8.777a2.306,2.306,0,0,1-.581-1.083A5.449,5.449,0,0,1,1.7,5.449c.21-.74.493-1.622.534-1.842A.226.226,0,0,0,2.169,3.4L1.576,2.61A.078.078,0,0,0,1.45,2.6l-.125.1C.5,3.343-.209,3.9-.547,4.233c-.238.23-.392.437-.217.732.088.147.225.356.307.462.057.071.059.128.014.162-.061.05-.138.008-.228-.107-.409-.515-.9-1.194-1.006-1.327-.134-.169-.6-.706-.883-1.062-.092-.115-.114-.2-.053-.247.046-.035.1-.021.185.086a1.811,1.811,0,0,0,.288.291c.175.15.408.041.693-.126.41-.25,1.114-.8,1.935-1.444Z" transform="translate(2.648 2.457)"/>
        </g>
      </g>
      <g id="Group_3568" data-name="Group 3568" transform="translate(133.773 44.439)">
        <g id="Group_3567" data-name="Group 3567" transform="translate(0 0)">
          <path id="Path_2469" data-name="Path 2469" class="cls-3" d="M0,1.614c-.025-.195.006-.253.22-.381C.76.913,1.366.6,1.528.521S1.8.408,1.851.486s-.03.149-.108.2a2.326,2.326,0,0,0-.443.383,1.553,1.553,0,0,0-.149,1.974,1.382,1.382,0,0,0,1.892.636c.476-.285.846-.7.986-1.88l.08-.655c.2-1.565.656-2.341,1.444-2.811C6.624-2.309,7.93-1.877,8.741-.53A5.568,5.568,0,0,1,9.352.859c.032.1.032.164-.035.2-.126.075-.433.205-1.192.658-.213.129-.31.146-.356.068s0-.132.117-.2a1.372,1.372,0,0,0,.49-.636A1.422,1.422,0,0,0,8.218-.388a1.2,1.2,0,0,0-1.7-.556C6.072-.677,5.867-.25,5.737.92L5.7,1.313c-.2,1.7-.6,2.52-1.525,3.071a2.3,2.3,0,0,1-2.241.1A3.267,3.267,0,0,1,.6,3.181,3.915,3.915,0,0,1,0,1.614" transform="translate(0.004 1.961)"/>
        </g>
      </g>
      <g id="Group_3570" data-name="Group 3570" transform="translate(137.031 50.285)">
        <g id="Group_3569" data-name="Group 3569" transform="translate(0 0)">
          <path id="Path_2470" data-name="Path 2470" class="cls-3" d="M2.327,1.019C3.89.291,4.178.157,4.5-.016c.341-.183.467-.368.415-.617a1.774,1.774,0,0,0-.132-.387c-.05-.1-.056-.173.024-.212.062-.028.121.044.2.208.183.388.454,1.048.593,1.344.12.256.436.846.619,1.235.061.133.078.225.017.254-.081.038-.13-.014-.18-.117A1.656,1.656,0,0,0,5.877,1.4c-.182-.253-.4-.253-.765-.105-.337.133-.625.266-2.188.993l-1.808.844C.118,3.6-.7,3.973-1.118,4.219c-.263.16-.414.319-.311.644a4.645,4.645,0,0,0,.205.541c.052.113.044.178-.007.2-.072.033-.141-.035-.194-.147-.317-.676-.589-1.335-.718-1.611-.111-.235-.445-.866-.638-1.275-.062-.133-.065-.219.008-.253.051-.023.1,0,.159.126A1.732,1.732,0,0,0-2.4,2.8c.136.186.34.165.652.057C-1.291,2.7-.478,2.325.52,1.862Z" transform="translate(2.827 1.238)"/>
        </g>
      </g>
      <g id="Group_3572" data-name="Group 3572" transform="translate(139.829 55.783)">
        <g id="Group_3571" data-name="Group 3571" transform="translate(0 0)">
          <path id="Path_2471" data-name="Path 2471" class="cls-3" d="M3.522,1.353,2.943-.229c-.231-.615-.371-.854-.662-.935a1.361,1.361,0,0,0-.436-.056c-.094.007-.149-.011-.171-.075s.022-.114.14-.153c.173-.058,1.22-.181,1.314-.189.151-.014.225,0,.247.062a2.673,2.673,0,0,0,.024.5c.073.321.189.735.308,1.088L5.134,4.26a4.8,4.8,0,0,0,.453.993c.025.075-.036.107-.2.16-.226.076-.98.291-1.259.384-.111.026-.183.026-.205-.039-.029-.086.018-.125.176-.189l.115-.05c.271-.114.477-.5.177-1.465L3.972,2.692-.441,4.163c-.989.33-1.84.614-2.285.821-.289.133-.505.276-.439.612a4.812,4.812,0,0,0,.14.561c.039.118.026.182-.028.2-.076.026-.138-.05-.178-.168-.236-.708-.43-1.393-.532-1.693-.083-.246-.342-.911-.486-1.338-.047-.141-.041-.226.035-.251.054-.018.1.014.144.143a1.792,1.792,0,0,0,.174.371c.114.2.373.186.695.113.47-.1,1.32-.38,2.311-.71Z" transform="translate(4.278 1.643)"/>
        </g>
      </g>
      <g id="Group_3574" data-name="Group 3574" transform="translate(142.133 64.094)">
        <g id="Group_3573" data-name="Group 3573" transform="translate(0 0)">
          <path id="Path_2472" data-name="Path 2472" class="cls-3" d="M1.371,2.094a2.393,2.393,0,0,0,1.121-.477c.165-.111,2.334-2.063,2.84-2.562A2.74,2.74,0,0,0,6-1.864a1.1,1.1,0,0,0,.057-.492c-.017-.09-.009-.172.068-.186s.115.058.143.192c.037.2.163,1.039.232,1.406.044.232.165.681.26,1.181.02.111,0,.172-.07.186S6.6.359,6.52.2A.205.205,0,0,0,6.29.084a1.027,1.027,0,0,0-.355.2c-.3.22-2.7,2.281-2.973,2.518.289.06,3.008,1,3.384,1.086a1.469,1.469,0,0,0,.608.045.268.268,0,0,0,.233-.285c0-.1.009-.208.074-.221s.112.037.138.169c.069.367.1.729.163,1.05.049.244.221.971.261,1.182.024.122.017.2-.051.217s-.128-.068-.151-.19A1.211,1.211,0,0,0,7.4,5.4a1.676,1.676,0,0,0-.66-.5,35.9,35.9,0,0,0-3.95-1.45,2.727,2.727,0,0,0-1.147.044l-.915.173C.546,3.7.076,3.788-.384,3.91c-.319.083-.546.23-.526.572a4.4,4.4,0,0,0,.061.562c.023.122,0,.183-.056.195-.078.014-.128-.068-.155-.212-.135-.7-.235-1.405-.291-1.705-.052-.277-.221-.971-.3-1.38-.029-.156-.024-.249.064-.266.058-.01.1.039.125.161a1.718,1.718,0,0,0,.119.38c.086.214.35.267.679.228C-.19,2.39.278,2.3.457,2.267Z" transform="translate(1.666 2.544)"/>
        </g>
      </g>
      <g id="Group_3576" data-name="Group 3576" transform="translate(70.339 113.746)">
        <g id="Group_3575" data-name="Group 3575" transform="translate(0 0)">
          <path id="Path_2473" data-name="Path 2473" class="cls-3" d="M1.3,2.6a1.4,1.4,0,0,0,.935-.22,1.312,1.312,0,0,0,.318-.408.2.2,0,0,1,.219.059,4.44,4.44,0,0,1-.457,1.214c-.408-.02-.825-.03-1.283-.03H-.407c-.557,0-.886.011-1.1.03a.139.139,0,0,1-.071-.129c0-.03.049-.07.11-.11A8.25,8.25,0,0,0,.05,1.571,4.382,4.382,0,0,0,1.472-1.164c0-.9-.438-1.451-1.244-1.451a1.455,1.455,0,0,0-1.292.995A.16.16,0,0,1-1.3-1.75a2.091,2.091,0,0,1,2-1.4A1.545,1.545,0,0,1,2.337-1.532,3.433,3.433,0,0,1,1.272.657l-.607.7c-.815.934-.9,1.094-.9,1.153S-.188,2.6.07,2.6Z" transform="translate(1.582 3.153)"/>
        </g>
      </g>
      <g id="Group_3578" data-name="Group 3578" transform="translate(75.48 113.746)">
        <g id="Group_3577" data-name="Group 3577" transform="translate(0 0)">
          <path id="Path_2474" data-name="Path 2474" class="cls-3" d="M.4,1.468c0,.934.08,2.953,1.174,2.953S2.746,2.4,2.746,1.468,2.667-1.486,1.573-1.486.4.533.4,1.468m3.232,0c0,1.561-.607,3.251-2.059,3.251S-.485,3.029-.485,1.468c0-1.5.607-3.252,2.059-3.252S3.632-.033,3.632,1.468" transform="translate(0.485 1.784)"/>
        </g>
      </g>
      <g id="Group_3580" data-name="Group 3580" transform="translate(85.424 113.746)">
        <g id="Group_3579" data-name="Group 3579" transform="translate(0 0)">
          <path id="Path_2475" data-name="Path 2475" class="cls-3" d="M.4,1.468C.4,2.4.48,4.422,1.574,4.422S2.747,2.4,2.747,1.468,2.668-1.486,1.574-1.486.4.533.4,1.468m3.233,0c0,1.561-.607,3.251-2.059,3.251S-.485,3.029-.485,1.468c0-1.5.607-3.252,2.059-3.252S3.632-.033,3.632,1.468" transform="translate(0.485 1.784)"/>
        </g>
      </g>
      <g id="Group_3582" data-name="Group 3582" transform="translate(90.545 113.746)">
        <g id="Group_3581" data-name="Group 3581" transform="translate(0 0)">
          <path id="Path_2476" data-name="Path 2476" class="cls-3" d="M.418.633c0,.686.677,1.1,1.3,1.412A1.67,1.67,0,0,0,2.515.7,1.108,1.108,0,0,0,1.462-.471,1.028,1.028,0,0,0,.418.633m2.168,3.6c0-.786-.745-1.332-1.471-1.66A1.792,1.792,0,0,0,.209,3.984,1.3,1.3,0,0,0,1.432,5.436a1.106,1.106,0,0,0,1.153-1.2m.6-3.55c0,.816-.676,1.183-1.173,1.512A2.108,2.108,0,0,1,3.32,4.044c0,1.053-.824,1.69-1.988,1.69A1.649,1.649,0,0,1-.507,4.074c0-.746.686-1.254,1.341-1.67A1.855,1.855,0,0,1-.3.842,1.645,1.645,0,0,1,1.53-.769,1.482,1.482,0,0,1,3.181.682" transform="translate(0.507 0.769)"/>
        </g>
      </g>
      <g id="Group_3584" data-name="Group 3584" transform="translate(24.95 25.138)">
        <g id="Group_3583" data-name="Group 3583" transform="translate(0)">
          <path id="Path_2477" data-name="Path 2477" class="cls-4" d="M38.65,46.7,29.58,31.175l.014-1.066-.641-.007-.439-.753,0-.074L28.87,29l.3-.1h.394l.293-.091H31.48l6.844,9.6.338-.242-5.28-7.4,0,0h.094l.293.294.392.3.39.19.492.2.392.1H37.49l.121-.019,5.55,6.632.318-.267-5.39-6.443.581-.092.685-.1.589-.1.589-.2.518-.17,7.487,7.667A55.033,55.033,0,0,1,38.65,46.7M4.924,54.818l.841-8.623,1.079.009,1.087.375.726.378.72.733.354.369.362.371.356.365.369-.359.366-.357.371-.361.491-.482.223,4.849.415-.02-.235-5.121.936-.3.732-.353,1.459.015,1.45.023.033.01.453,3.065.411-.061L17.5,46.454l.983.258,1.453.375,1.083.38,1.08.738.284,0,1.252,5.035a54.2,54.2,0,0,1-13.875,1.8c-1.631,0-3.24-.086-4.835-.227M-34.52,32.206l9.776-7.285.18.031.585.1.589-.1.683-.2h.292l.3-.1.29-.2.292-.1.3-.195.292-.1h.3l.292.1.589.195.2.1-5.153,4.381-.145.02h-.785l-.1.108v.286h.195v.1h.1v.1l.014,0-4.158,3.534.27.317,4.4-3.74.359.18.292.2.392.1.389.2.4.195.292.295.386.2.589.292.589.191.589.2.589.1.687.1.589.094.586.1h.332l-8.1,9.611a55.24,55.24,0,0,1-8.553-9.4m-4.573-56.357,10.257,4.832-.039.2-.195.489-.2.486-.1.684-.194.69-.1.686v.9l-7.719-2.716-.139.392,7.858,2.764v.035l.1.678.1.687.1.792.395.585.195.686.1.686v.68l-.026.184-8.216-1.824-.09.406,2.493.553h-.04v.1h-.1v.1h-.1l-.2,2.347-.1.587-.1.685-.1.589-.027.2-6.253-.677-.045.414,6.238.675-.011.078v1.365l.1.7.292.677v.487l.1.2.2.192.195.29.1.2.2.192.2.2.194.192,0,0-6.641.038,0,.417L-33.469-.4l.09.178.195.2.194.194.1.189.2.2h.386l.1.095.1.1h.284l.208.1.187.1.1.2.195.195.1.2.1.194.1.195v.4l.1.387V3.4l.1.3v.392l-.095.377-5.985.872-.476-.274.047.336-3.783.552.061.411,3.8-.554.067.135.195.2v.2l.093.2v.488l.1.194.1.2v.292l.1.1v.1l.092.2v.1l.1.2.1.186.1.2v.3l.1.186.1.2.1.206.1.187.2.2v.284l.1.2.1.1h0l-8.108,2.108A54.94,54.94,0,0,1-44.808.229a54.651,54.651,0,0,1,5.715-24.38m14.3-18.015,5.021,5.887c-1.278.362-2.475.672-3.553.935l-.738-.755-.3.291.565.577c-1.165.277-2.168.495-2.938.652l-.733-.672-.281.307.509.467c-.751.149-1.188.223-1.209.227l-.515.086.025.521c0,.044.071,1.318.319,3.426l-.744-.562-.251.332,1.064.8c.189,1.519.464,3.4.859,5.538l-6.32-3.753-.213.358,6.634,3.939q.108.567.229,1.156l-.741-.741-.09.1-.1.1-.1.092v.588l.1.1-.1.49-.1.489-.1.587-.1.492-.073.365L-38.9-24.523A55.09,55.09,0,0,1-24.788-42.167M15.449-54.289l-.49,4.832-4.689-3.421-.391.251-.623.453-.023-.856-.416.011.033,1.143L5.2-49.219,4.927-51.9l-.414.043.3,2.921-.6.437c-1.983,1.461-3.5,2.58-5.007,3.6l-1.653-6.287-.4.105,1.689,6.426c-1.019.677-2.047,1.318-3.224,1.992l-3.24-9.057A54.086,54.086,0,0,1,9.758-54.588a54.527,54.527,0,0,1,5.69.3M60.42-20.108,48.956-15.777v-.474l-.1-.683-.2-.69-.1-.684-.2-.487-.2-.488-.008-.042,7.908-3.849-.18-.374-.188.091-7.623,3.709-.1-.515-.1-.5-.1-.584-.077-.383c.446-2.1.78-4.034,1.028-5.7l.508-.349L49-28.117,48.829-28l-.017.013c.486-3.419.6-5.6.606-5.658l.026-.521-.514-.086c-.042-.007-1.514-.258-3.786-.777l3.367-3.293A55.01,55.01,0,0,1,60.42-20.108M47.974-10.679v-.082l.1-.69.194-.682.393-.587.1-.787.1-.69.1-.678v-.456L60.572-19.72a54.825,54.825,0,0,1,1.805,5.444Zm.87,33.229.01-.01.59-.684.684-.59.687-.586.788-.591.778-.49.339-.169,3.609,1.682.174-.377-3.338-1.556V19.01h-.1v-.094h-.2l-.392-.058-5.574-2.6.192-.189.189-.1.3-.194.195-.2.292-.29.1-.1.1-.2.2-.1.1-.1h1.374l.489-.1.486-.2.486-.292.489-.295.077-.061,1.277.444.136-.393-1.028-.357.032-.025.489-.387.39-.49.2-.2.2-.2.1-.293.291-.591.1-.29.194-.2v-.193l.1-.1.095-.1.1-.1.1-.2V9.906l.2-.2.009-.017,8.206,1.88a54.567,54.567,0,0,1-6.093,15.954Zm-7.136,8.216.389-.2.295-.292.4-.2.384-.193.392-.1.3-.2.389-.2.493-.094v-.1h.1v-.1h.166L48.9,32.473l.273-.314L39.73,23.977l.215-.071h.291l.3.1.292.195.3.1.294.2.292.1H42l.678.2.592.1.587-.1.59-.1.408-.068,4.9,3.587.247-.335-4.632-3.39.25-.08.591-.105.486-.188L46.8,24H46.9l.1-.1.1-.1h.1l.195-.086.092-.109h.1l.584-.49.341-.287,8.341,5.048a55.115,55.115,0,0,1-8.024,10.567L41.45,30.9Zm-5.4-5.138.508-.248.486-.293.586-.3.591-.294.58-.3.212-.07L44.55,28.7h-.4l-.687-.094-.678-.2L42,28.216l-.686-.2-.684-.292-.689-.189-.786-.105-.489-.188-.59-.1h-.294Zm-1.848,1.126.1-.1h.1l.2-.1h.1l.1-.1.1-.1.492-.394.28-.142,1.289,1.319H35.734l-.59-.1h-.59l-.1-.2Zm-1.874-1.59.212-.373L33.189,24l.274-.692L35.5,25.4l-.262.172-.293.2-.3.194-.293.1-.392.19-.284.2-.008.005Zm-4.678,3.145L28,28.216l.186-.1.793-.2.778-.386.6-.3.517.725-.43.158-.689.292-.778.292-.732.184ZM23.195,48.222l1.08.372.735.011.723.011,1.092.013.825-.263L28.779,51.6q-2.323.87-4.744,1.526l-1.223-4.914ZM11.256,41.887s.025-1.449.025-1.449.014-1.459.014-1.459l.03-2.18s.015-1.817.015-1.817l.05-3.638s.023-2,.026-2.323c.214-.1.586-.281.586-.281s.3-.294.366-.36l1.407-.683s1.05-.334,1.05-.334c.047-.019.776-.368.78-.371s.678-.214.929-.3l2.017.7,1.08.743,1.136.393s.676.351.676.351c.047.02,1.133.4,1.133.4l1.144.4.871.006.732-.353,1.008.015c-.015,1.294-.186,15.279-.186,15.279l-.358-.01L24.382,44.6l-1.027-.358c-.027-.008-1.464-.388-1.472-.39s-1.386-.716-1.386-.716l-2.238-1.156-.729-.008-.721-.368L16,41.584l-1.82-.019-.817-.012-.862.42-.3.3-.665-.011-.28.137c0-.253,0-.508,0-.508M45.9-14.62s0-.005,0-.007l0,0Zm1.586,3.662-.079.422-.057.014-.352-.436-.293-.493-.293-.586-.291-.491-.3-.587-.255-.429c.059-.191.125-.384.184-.573l.379-.143.09.362.193.392.293.392.293.492.2.389.195.39.092.493Zm-2.338-1.295c.089-.27.173-.537.259-.805l.024.041.292.395.2.49.2.39.192.489-.094.2-.4-.292-.388-.392-.194-.39Zm.189,2.077.353.068-1.423.355c.066-.173.121-.345.186-.517h.391Zm.5,4.453-.4-.243-.49-.2-.59-.3-.486-.194-.49-.2-.229-.117c.329-.771.645-1.544.94-2.317l2.262-.565.357.356h.1L46.9-9.4l.2.1V-9.1l.1.095.092.105.1.1v.193l.484.778.391.882.263.869Zm3.32,1.617.2.88.189.982.041.355-.707.021-.021-.083-.292-.783-.393-.687-.486-.685-.486-.589-.586-.483L46.34-5.37l2.317-.306.2.6Zm.2,4.6V.4L49.248.2V.012l-.1-.1v-.2l-.1-.095v-.784l-.074-.289.649-.02.011.11V-.48l.1.194V.307l-.1.187-.2.1ZM48.136,12.088l.328-.815.389-.98.3-.982.244-.9,1.406.323-.18.192-.1.291-.1.189-.194.293-.2.2-.295.483-.2.491-.189.489-.1.492-.181.55Zm-1.435,3.2v-.1l-.092-.1.489-.883.486-.982.38-.76.948.329-.058.144-.1.488-.2.487-.2.2-.2.205-.194.186-.2.1L47.389,15l-.195.1-.2.3h-.1v-.1Zm-2.937,4.187.389-.466.395-.689.389-.582.4-.489.386-.295.29-.195.3-.2.153-.047,4.6,2.141-.244-.033h-.687l-.684-.1h-.686l-.687.1-.681.192-.781.195-.792.2-.682.3-.786.295-.026.017Zm-2.273,2.165.12-.08.292-.206.192-.286.2-.2.286-.294.493-.49.375-.315.488.3-.18.121-.683.489-.59.482L42,21.856l-.074.108ZM43.837,2.908l.024.241.1.88V4.9l-.1.882v.886l.006.049L35.749,4.861C36.5,4,37.225,3.131,37.9,2.25ZM42.353,14.143l-.055-.517L42,12.646l-.1-.489-.292-.591-.2-.486-.294-.493-.3-.49-.063-.125,4.77,1.655.091.138.3.393.089.392.106.392v.783l-.106.388V14.5l-.089.392-.2.394v.1h-.1v.191l-.043.066Zm-.574,4.132.025-.046.292-.888.2-.872.092-.983v-.866l2.993,1.394-.05.156-.2.394-.1.3-.194.291-.1.292-.2.3-.3.189-.489.695-.472.565Zm-.963,3.389-.283.286-.589.392-.2-.094v-.687l.1-.1v-.108l.1-.194.05-.1Zm-.56-.926.078-.159.2-.1.1-.195.094-.2.1-.2.492-.783.26-.469,1.443.873-.233.283-.6.489-.483.587-.586.483-.01.009ZM47.791,7.62l-.013-.067-.195-.392-.1-.389-.092-.393L47.1,5.691,46.8,5l-.5-.688-.387-.582-.493-.49-.178-.178,4.194.465V5.206l-.2,1.07-.1,1.08L49,7.9Zm.083.811V8.066l1.017.233-.038.132-.2,1.088-.194.283-.1.2-.1.295-.1.292v.195l-.1.3-.2.194-.192.2-.1-.2v-.194l.1-.3.1-.195v-.2l.1-.2V9.311l.1-.382ZM44.938-1.332l.1.065.2.2.194.285.292.2.1.095.195.1.106.095h.1l.193.1h.1l.2.095h.2l.3.195.287.1.2.1h.583l.3.092.292.2.2.194.194,1.177.2,1.08v.063l-4.679-.519-.514-.427-.59-.489-.1.095h-.1l.1.1v.1h.1v.1l.1.1.033.32-5.6-.622Q39.326.351,40.268-1.191ZM42.4-5.269c.053-.113.1-.226.15-.339l.038.137.086.166Zm.472.357.011.022.2.683.292.6.289.58.3.491.2.294.194.293.147.215-3.966.12c.3-.5.58-1.009.838-1.515.286-.561.559-1.126.825-1.692ZM33.7,7.083q.889-.923,1.73-1.868l8.482,1.944.044.395.1.783.194.884.1.386.1.392.194.39.292.392.12.241-4.6-1.593-.321-.409-.3-.486h-.392v.544Zm5.457,4.386-.286.98-.022.063L31.623,9.146c.595-.57,1.183-1.149,1.756-1.735l6.073,2.106v.089l-.1.98Zm-4.753,7.9.051-.55V17.74l-.072-.783,4.672,3.42v0h0l.127.092.064.208v.292l-.094.295-.1.3-.1.195-.086.3-.109.2v.292l-.271.365Zm-.538,2.687.294-1.082.195-1.08,0-.017L38.2,23.2l-.023.022-.394.387-.293.3L37.1,24.3l-.394.295-.39.3-.492.2-.026.026L33.62,22.877Zm-4.189-11.1q.819-.736,1.623-1.5l7.413,3.452-.148.423-.186.88-.2.983v.9Zm-1.263,1.12c.314-.273.626-.55.94-.829l8.821,5.338v1.552l.107.489.193.486.193.392.064.123-4.426-3.239-.146-.806-.2-.094h-.195l-.089.094-.108.2-.024.05ZM27.2,13.118c.3-.253.6-.51.9-.768l5.27,3.857-.086.158-.088.1-.882.974-.055.056Zm-1.72,1.42c.465-.376.929-.759,1.4-1.15l5.083,4.4-.535.529-.88.989-.205.2Zm-1.068.855c.247-.2.494-.392.744-.592l4.89,5.007-.384.383-.532.841ZM21.614,17.54q.586-.439,1.188-.9l4.946,6.938-.34,1.014v2.356l-.066.4Zm-1.553,1.144c.4-.289.806-.587,1.217-.892L27.17,27.875l-.059.144-.095.242-.671-.008s0,.356,0,.362L25.161,28.6l-.445.214ZM18.2,20.007q.738-.517,1.514-1.076l4.6,10.02-.427,0h-.049l-2.114-.735s-.677-.351-.677-.351l-.127-.045Zm-2.056,1.415c.543-.366,1.108-.753,1.7-1.166l2.576,7.385-.462-.161c-.076-.051-1.081-.742-1.081-.742l-1.545-.532Zm-1.97,5.386-.671.215c-.047.02-.777.373-.777.373l-.786.382-.354.349-.168-3.654c.529-.324,1.285-.8,2.207-1.389Zm-.166-3.971c.542-.352,1.134-.741,1.769-1.168l1.089,4.375-.326-.113-.116.037-1.089.35c-.042.017-.661.314-.759.361Zm13.811,6.156h-.033v-.056Zm-4.692-12.6c.316-.243.632-.488.95-.738l4.807,5.744-.6.854-.362.868Zm16.519,7.026v-.1l.1-.1.1-.1.1-.2.1-.1.1-.089.194-.1.1-.2.2-.092.192-.193.3-.2.037-.037.54.4-.086.126-.2.3-.2.292-.293.192-.288.192-.4.1h-.489v-.1ZM49.641-3.518v-.391l-.1-.1v-.2l-.1-.094v-.486l-.092-.392-.1-.392-.109-.168,1.632-.216-.347.874-.3.975-.094,1.077h-.295v-.287ZM29.328-40.3c-.36-.173-.719-.349-1.07-.53-1.065-.548-2-1.048-2.852-1.527L27.669-48.8l-.392-.137-.069.2-2.169,6.175c-1.392-.792-2.577-1.533-3.766-2.336l.893-3.565-.4-.1-.051.2-.805,3.214c-1.392-.955-2.826-2.011-4.653-3.359l-.9-.659.512-5.063a53.947,53.947,0,0,1,17.811,5.2ZM41.31-37.448l-.135.157L40.3-36.268c-1-.284-2.055-.6-3.131-.95l1.621-2.2-.335-.247-.124.167-1.577,2.141c-1.223-.4-2.474-.851-3.722-1.341l4.041-6.735-.357-.214-.106.177-3.971,6.616c-.989-.4-1.972-.823-2.934-1.276l4.339-8.716A54.865,54.865,0,0,1,48.22-38.618L44.663-35.14c-1.153-.269-2.486-.6-3.923-1l.887-1.034ZM-8.615-40.407c-1.044.508-2.117.982-3.2,1.423l-3.173-5.428-.359.21,3.142,5.377c-1.189.475-2.386.911-3.563,1.307l-1.087-1.5-.337.244,1.011,1.4c-1.077.357-2.133.681-3.147.975l-5.133-6.02a54.487,54.487,0,0,1,16.45-9.163l3.267,9.132c-.9.508-1.882,1.037-3.018,1.623-.158.081-.32.16-.48.24l-2.206-4.768-.378.174ZM10.246,23.812C7.727,22.289-13.174,9.376-19.825-3.662A63.121,63.121,0,0,1-22.8-10.5h.092l.1-.2.2-.1.3-.2.193-.2.2-.2.192-.095.1-.2.1-.2.195-.1.194-.2.195-.388.1-.1.1-.1.194-.195.1-.1.1-.095.1-.1.195-.192h-.1v-.1h.1v-.1l.1-.095h.1v-.1l.092-.1v-.1h.105v-.187h.1v-.195l.186-.108.1-.188.1-.1v-.287h.1l.1-.1.1-.1.2-.1.195-.2.194-.195.192-.2.1-.189.1-.2.1-.2v-.292l-.485.1-.487.105-.495.087-.386.1-.489.1-.493.095-.492.1-.491.1-.487.194-.393.2-.391.293-.482.2-.4.3-.394.292-.157.159q-.122-.4-.238-.789l.3-.447.394-.487.292-.59.39-.592.389-.489.494-.485.582-.389.3-.3.292-.393.4-.295.292-.292.393-.2.394-.1.386-.1.495.1.293.294.194.095.288.2.2.1.3.1.292.1.3.1h.392l.683.1h.589l.589-.1.58-.1.6-.195.488-.2.583-.293.487-.3h.1l.1-.095.1-.1.1-.1v-.1h.1l.1-.094.1-.1.1-.1h.1l.094-.1.1-.1h.1l.1-.1h.2l.2-.1h.1l.2-.1h.195l.195-.1H-9v-.1h.105l.089-.1h.1l.1-.1.1-.092-.589-.3-.68-.2-.692-.19-.686-.105h-2.06l-.687-.092h-.487l-.386.092h-.393l-.389.105-.395.09-.292.1-.393.1h-.394l.1-.2.1-.2.2-.195.2-.19.2-.1.292-.1.195-.192h.3l.195-.29.292-.1.3-.108h1.662l.487-.092h.492l.589-.095.49-.1.487-.095.492-.2.394-.2.485-.293.291-.1.3-.2.291-.194.3-.2.191-.3.294-.292.2-.2.194-.284.195-.3.3-.293.195-.3.2-.293.1-.392.191-.287.105-.392v-.292l-.49.292-.492.295-.588.2-.489.187-.584.108L-9-28.232l-.581.2-.49.187h-.492l-.1.107h-.1l-.192.1h-.294l-.392.2-.394.188-.492.3-.287.187-.488.3-.3.292-.49.3-.386.2-.294.492-.393.49-.389.488-.493.392-.491.388-.49.392-.589.3-.485.388h-.291l-.2.095-.194.2-.2.188-.2.2-.091.2-.194.2-.3.1h-.292v-.1l-.1-.1.585-.882.2-.095h.186l.2-.093.1-.1.1-.1.1-.09.1-.105.1-.092.775-.883.1-.192.1-.2.2-.2.1-.2.2-.294.1-.2.1-.2v-.295l.2-.29.1-.392.1-.4.1-.385.1-.389.1-.4.1-.383.1-.395v-.195l.1-.195v-.395l.1-.2.1-.195.1-.1.194-.1v-.2l-1.178.2h-.1l-.2.1-.2.1-.2.1-.292.2-.1.1h-.2l-.383.2-.2.295-.293.292-.2.288-.3.3-.186.294-.3.391-.292.294-.1.385-.1.2-.1.292-.1.2v.2l-.1.294v.2l-.1.2-.1.2v1.077l.1.2.1.3v.288l.1.195v.792l-.194.677-.3.687-.39.688-.49.587-.493.588-.487.586-.482.687-.2.192-.292.2-.2.294-.2.205-.195.288-.1.292-.174.26A90.071,90.071,0,0,1-27.728-33.19c2.377-.442,12.52-2.491,20.5-6.6a74.279,74.279,0,0,0,12.14-7.764l5.333-3.89,5.311,3.874a74.353,74.353,0,0,0,12.165,7.779c7.974,4.111,18.117,6.159,20.491,6.6a86.243,86.243,0,0,1-1.52,10.583l-.085.086-.6.784-.583.883-.294.98-.293.983v1.956l.248.913q-.173.609-.36,1.226l-.083-.081-.1-.194-.1-.1-.1-.195-.1-.1-.1-.1v-.2l-.292-.2-.2-.292-.1-.292-.194-.285-.2-.205-.2-.295-.295-.2-.194-.193L42-18.407l-.489-.583-.494-.585-.486-.591-.393-.687-.3-.688-.195-.679v-.793l.1-.192v-.286l.1-.3.1-.192v-1.08l-.1-.2-.1-.2v-.2l-.1-.293v-.2l-.1-.2-.1-.293-.1-.2-.1-.383-.293-.3-.289-.391-.193-.294-.3-.3-.2-.286-.292-.291-.2-.3-.386-.2H36.91l-.1-.095-.3-.2-.2-.1-.2-.1-.195-.1h-.1l-1.177-.194v.194l.2.1.1.1.1.2.1.195v.395l.1.2v.2l.1.394.1.382.1.4.1.392.1.383.094.4.1.389.195.3v.292l.1.2.1.2.2.294.1.2.2.2.1.2.1.2.776.88.1.09.092.108.1.089.1.1.107.107.193.089h.193l.2.1.578.882-.1.1v.1h-.3l-.293-.1-.2-.2-.09-.195-.193-.2-.2-.189-.194-.2-.2-.1h-.293l-.483-.385-.59-.3-.492-.392-.49-.385-.487-.392-.392-.492-.4-.488-.289-.494-.387-.2-.489-.294-.3-.293-.487-.294-.286-.19-.493-.3-.39-.188-.392-.2h-.293l-.189-.1h-.107l-.1-.107h-.492L28.87-28.2l-.579-.195-.595-.2-.586-.1-.487-.191-.588-.192-.494-.3-.488-.292v.292l.1.393.19.288.1.391.2.293.2.295.3.3.194.3.2.287.2.2.292.293.193.294.6.392.293.2.288.1.485.293.4.195.489.2.492.1.488.1.588.1h.493l.491.087h1.658l.295.108.293.1.2.293h.292l.2.192.294.106.2.1.2.189.195.192.1.2.1.208h-.391l-.395-.107-.294-.1-.39-.089-.392-.108h-.4l-.379-.09h-.492l-.686.09h-2.06l-.689.108-.684.189-.686.2-.581.3.094.094.1.1h.1l.086.1h.108v.1h.383l.2.1h.2l.195.1h.1l.2.1h.195l.1.1h.1l.107.1.088.1h.1l.1.1.1.1.1.1h.1v.1l.1.095.1.1.1.1h.1l.487.3.582.292.487.2.6.2.581.095.587.1h.589l.689-.1h.387l.3-.095.293-.1.3-.1.194-.1.289-.2.195-.1.3-.295.495-.1.383.1.395.1.391.2.293.292.392.3.3.386.292.3.589.389.489.485.395.49.383.592.295.588.394.489.39.587.489.488.3.493.02.026c-.063.2-.129.408-.195.611l-.026-.05-.389-.293-.3-.392-.386-.395-.395-.289-.391-.3-.484-.2-.392-.292-.4-.2-.487-.2-.492-.095-.489-.1-.493-.1-.489-.1-.383-.095-.495-.09-.493-.105-.483-.1v.3l.1.195.1.2.1.192.191.2.195.2.2.2.2.1.1.1.1.1h.107v.286l.1.108.1.188.193.1v.2h.094v.189h.109v.1l.086.1v.095h.1l.1.093v.105h.094v.1h-.094l.2.192.1.092.1.1.1.1.1.1.1.1.1.1.1.1.192.389.2.2.2.1.094.194.1.2.195.1.195.2.2.2.292.195.2.1.1.2h.186l.108.095h.489l.46.187q-.556,1.5-1.194,3l-.347-.057h-.1v.1l-.1.1h.1l.231.347c-.472,1.083-.977,2.162-1.52,3.229C33.666,9.376,12.764,22.289,10.246,23.812M4.637,41.451,3.9,41.8l-1.113-.011L.873,42.91s-1.428.695-1.437.7-1.383.321-1.383.321c-.023.007-.922.292-1.07.341l-.666,0-.727-.016-.723-.008c.008-.66.166-13.975.183-15.277l.727.008.643.011.721.372.87,0,1.152-.362c.051-.02.774-.374.779-.377S.99,28.293.99,28.293l1.143-.368,1.1-.714,1.05-.336.953-.306.589.3c.046.02,1.126.4,1.132.4s.686.35.686.35.715.374.715.374l.725.372.665.347c.043.044.126.129.213.22,0,.223-.008.949-.008.949L9.91,33.142l-.019,1.82-.071,5.462s-.01,1.458-.01,1.458,0,.167-.006.36l-.646-.011L8.517,41.9l-.8-.41L6.9,41.481l-.725-.012-1.542-.017M-7.98,38.8l-.1,8.677L-7,47.859l1.083.378,1.092.008,1.09.011.729.012,1.1-.35.726.009.25-.162L-1.5,50.3l.405.092.666-2.951.348-.226,1.467-.344,1.453-.351L4.3,46.174l1.05.014-.839,8.6a53.934,53.934,0,0,1-17.722-4.851Zm-3.156-9.83h.577l.295.086h.389l.3.1.386.292.39.1.492.2.4.1.041.017v.055l-5.553,9.945.364.2,5.178-9.277L-7.967,37.8l-5.623,11.96a54.567,54.567,0,0,1-8.821-5.294ZM-17.319,32h1.178l.389-.1.492-.2.395-.189.389-.3.292-.292h.094l.105-.1.191-.2.194-.291.2-.3.193-.195.1-.3.2-.192.292-.2.3-.189h.67l-11.1,15.252c-1-.746-1.961-1.533-2.9-2.344Zm.834-5.944.148.075.488.391.1.1.1.1h.1l.194.1h.1l.1.1V27l-.1.2h-.589l-.586.107h-1.311Zm-2.674-1.386.571.283.581.291.492.3.588.292.05.026-1.461,1.45h-.444l-.589.1-.492.187-.783.108-.686.188-.687.3-.686.2-.783.2-.393.111Zm6.85-6.369-.7-.694-.774-.853L-7.73,12.24q.636.549,1.274,1.084Zm1.464,1.568-.4-.4-.777-.869L-6.133,13.6q.44.365.877.723Zm1.5,2.033-.332-.475-.681-1.077-.188-.187,5.62-5.581q.527.426,1.047.838Zm1.089,2.415-.244-.738L-9,22.406l-.107-.153,5.547-6.577c.34.267.677.528,1.012.786Zm-2.016,3.475.594.291.791.2.187.1.1.1.2.1.092.195.1.1.1.195.1.1-.1.2-.775-.3-.791-.195-.782-.292-.29-.124Zm-2.251-1.477,0,.006.593.5.684.489.592.3-.492.676,0,0-.78-.289-.691-.4-.691-.345Zm-3.871-.934-.138-.138-.49-.194-.389-.3-.4-.295-.383-.393-.117-.116,3.43-2.916.018.1.289,1.083.293.977.026.065Zm2.308-1.705.194.489.4.786.388.68L-12.8,26l-.883,1.047-.405-.226-.294-.2-.287-.2-.394-.189-.293-.1-.3-.2-.293-.2-.13-.087Zm6.97,4.9h0v.008l-.189.339-.308-.24-.2-.5-.2-.483-.1-.589V24.824l5.9-8.108q.61.466,1.206.91Zm3.64-.317-.732-.012,0,0h-.3l-.267,0-.152-.156c0-.1,0-.213,0-.213l-.728-.009v.005l0,0-.36-.37-.01,1.092-.61-.008,5.975-10.7c.526.39,1.038.761,1.544,1.125Zm3.7-.486-.548.172c-.05.02-.773.374-.778.377s-.85.262-.995.308h-.3l-.284,0-.411-.211,4.311-9.168c.555.4,1.1.78,1.619,1.142ZM5.3,22.061c.851.564,1.613,1.056,2.262,1.468l-.3,3.082L7.243,26.6c-.045-.019-1.124-.395-1.131-.4s-.679-.355-.679-.355L5.3,25.783l-.144.046-.762.245ZM3.933,26.222l-1.016.326-1.1.714C1.733,27.289.77,27.6.77,27.6l-.053.016,2.471-6.982c.608.42,1.192.815,1.738,1.18Zm-23.8-5.679h.1v-.1h.1v-.1l.092-.1v-.2l.2-.39.186-.392.2-.486.1-.49V16.9l9.871-5.789c.32.286.639.571.961.851l-5.988,4.462-.05-.094-.094-.194-.1-.194-.1-.2-.092-.1h-.195l-.194.1-.2,1.077-.036.395-4.858,3.621Zm.78-6.17-.138-.629,8.554-4.152q.659.621,1.329,1.227l-9.547,5.6V15.353Zm6.841-6.312q.619.618,1.254,1.223l-8.341,4.049-.246-.725-.289-.978-.125-.565Zm-9.165,14.373.074.072.195.089.1.2.195.1.1.089.1.094.1.2.1.1.1.1v.1h-.1v.1h-.492l-.389-.1-.3-.2-.293-.191-.165-.249Zm-2.709-2.466.338.281.486.493.292.294.2.192.19.29.294.2.3.2.195.2.081.054-.573.427-.2-.284-.194-.292-.482-.694-.589-.486-.688-.487-.141-.093Zm-1.723-.306-.682-.3-.789-.194-.786-.2-.68-.189-.631-.1,3.077-1.493.292.218.393.491.392.579.393.69.422.5-.553.324-.065-.042Zm-3.4,3.311.365.308.591.492h.1l.09.106.194.09h.1l.1.1.089.1h.1l.1.1.487.189.59.108.589.187.429.071-9.449,7.041q-1.405-1.992-2.637-4.109Zm-.8-8.014h.77l.1.1.2.1.1.2.1.1.3.294.2.2.291.194.192.1.194.194.3.2.3.094.291.2-3.714,1.8-.407.062h-.685l-.685.092-.683.1-.687.1h-.195v.1h-.1v.194l.784.392.226.141-4.994,2.425.181.374,5.228-2.537.139.087.784.587.685.59.688.59.577.67L-37.606,27.4a54.709,54.709,0,0,1-3.769-8.042Zm-4.813-3.72.1.292.1.2.1.2.1.2.1.291.2.2.2.2.389.489.983.78.491.3.492.293.48.194.13.026-10.52,4.078a54.439,54.439,0,0,1-1.737-5.8l8.21-2.134v.009Zm4.794-16.254-.094.389v.482l-.1.1v.2l-.1.094v.393l-.1.2v.288h-.292l-.1-1.078-.294-.974-.089-.221Zm1.28-4.221-.195.686-.2.687-.195.587-.1.395-.1.393-.1.387-.1.393-.183.286-1.45-.157-.129-.325-.581-.977-.491-.982-.589-.877-.687-.977-.469-.844,5.577,1.238Zm5.193,4.5.292-.577.2-.69.385-.487.159-.241c.318.741.647,1.48,1,2.216ZM-25.971-.855l.034-.049.2-.2.291-.189.2-.2.2-.291.2-.292.194-.3.3-.492.292-.577.3-.6.079-.283,2.364.256c.153.314.306.629.465.941.383.749.817,1.5,1.28,2.238Zm-4.374.025V-1.2l.1-.877.192-.985.2-.881.3-.974.014-.041,1.911.208-.268.217-.48.59-.492.683-.392.69-.292.785-.2.782v.173Zm.585.413v.2l-.1.092v.2l-.1.1V.363l-.1.2V.657l-.095.1-.195-.1-.1-.19V-.126l.1-.192v-.1ZM-27.5,5.161l-.3.69-.3.689-.09.389-.1.392-.2.391-.1.493v.383l-.071.347-.813.212-.1-.559-.3-1.074-.1-1.08-.2-1.067V4.8l3.238-.471-.1.146Zm-.413,8.975.116.236.491.88-.1.1v.1h-.2v.1H-27.7l-.206-.3-.194-.1-.187-.2-.2-.2-.2-.095-.173-.168Zm-1.254-2.7.395.977.492.975.183.374-1.066.414-.1-.1-.2-.485-.1-.489-.2-.493-.193-.586-.1-.49-.192-.49-.2-.492-.292-.48-.122-.126,1.061-.277.239.787Zm.692-.887v.2l.1.2.1.3v.2l-.1.194-.195-.194-.2-.2-.1-.3v-.2l-.1-.293-.1-.294-.1-.192-.195-.287-.021-.12.779-.2.031.117v.88Zm5.869,1.768-.1.489-.292.98-.092.88v.494l-2.841,1.379-.105-.209-.1-.291-.194-.3v-.194h-.1v-.1l-.193-.393-.094-.389v-.395l-.107-.386v-.173l4.36-1.689Zm-1.347,7.076-.022-.026-.487-.583-.491-.692-.3-.189-.2-.3-.1-.295-.195-.292-.032-.1,2.681-1.3v.023l.092.983.2.872.287.889.066.117Zm3.5,2.33v.683l-.195.1-.452-.3Zm-.969.2-.4-.406-.589-.483-.483-.59-.593-.489-.2-.24,1.444-.847.223.4.486.783.1.2.1.2.1.2.2.1.1.193.195.195.1.192.008.019ZM-24.594,3.572l.031-.267.1-.977.1-.1v-.1h.1v-.1l.1-.1h-.1l-.1-.095-.589.492-.589.49-.589.584-.456.461-3.558.519V3.211l.2-1.083L-29.76.954l.2-.2.292-.194.3-.1h.589l.2-.1.284-.1.3-.192h.2l.2-.094h.093l.195-.106h.1l.107-.092.195-.1.092-.1.033-.023,7.059-.041c.644,1,1.361,1.992,2.124,2.973Zm-.071,1.493V4.191l.022-.19,7.73-1.126q.993,1.247,2.089,2.467L-24.69,7.906l.024-.194.1-.881V5.946ZM-28.1-8.444v-.2l.1-.1.09-.105.1-.1V-9.11l4.688,1.041c.116.284.24.568.359.851L-23-7.175l-.491.192-.586.3-.487.2-.492.192L-25.645-6l-.491.195-.486.3-.544.388-2.247-.244.146-.441.3-.98.394-.883Zm1.931-5.081-.068.086-.288.483-.3.587-.292.49-.292.59-.289.49-.4.49-.09-.49v-.393l.09-.489.194-.392.206-.391.289-.492.292-.4.195-.387.012-.047Zm.716-1.095v.2l-.389.483-.055.068-.892-.314.165-.237.1-.2.192-.292.194-.2.1-.2.1-.192.1-.2.059-.214c.116.411.247.832.373,1.25Zm-.091.874.288-.386,0,0c.056.183.1.363.164.548Zm-1.468,2.652.186-.491.2-.389.193-.49.293-.394.3-.493.035-.046.574.2-.022.044-.2.39-.195.392-.292.395-.2.389-.386.393-.4.3Zm.487,1.172.483-.095.492-.095h.983l.585-.1.041-.017c.205.562.411,1.126.635,1.691l-4.006-.889.3-.292Zm-4.12,15.772.1.095v.295l.1.194v.4l.1.2v.1l.1.2.1,1.081.237.863-1.213.315-.006-.008-.095-.191-.1-.292-.2-.207-.194-.293-.2-.186-.188-.2-.491-.493-.589-.49-.687-.391-.686-.291-.687-.3-.686-.389-.253-.17,5.444-.793v.084Zm10.092,2.841-.3.486-.39.5-.3.577-.292.49-.29.493-.1.241-4.608,1.786V13.1l.107-.389.094-.4.292-.392.194-.295.3-.294.195-.393.292-.394.2-.39.1-.393.1-.383.192-.883.02-.147L-14.513,5.69q.948,1.039,1.951,2.048l-7.507,2.91-.091-.883V8.693Zm.974,13.521-.092-.3-.1-.2-.1-.294-.038-.116,4.749-3.539-.011.132v1.07l.1,1.079.095.511-3.638,3.093-.275-.274-.3-.3-.285-.38v-.3Zm29.762,5.91-.772-.4-.723-.371-.717-.376-.317-.161.3-3.036c1.106.7,1.815,1.117,1.968,1.207l.3.175.35-.175.447-.266.166,3.609-.487.234,0,.227,0,0c0-.082,0-.144,0-.144Zm19.3,11.063.088-7.2L38.3,46.927a54.162,54.162,0,0,1-9.134,4.523l-1.117-3.2,1.329-.317.094-7.775,2.219,4.829.378-.174ZM32.411,29.4l-.02-.026.014.014Zm-.5-1.971-.641.374-.561-.784.516-.365.589-.494.536-.626.968,1.156-.622.347ZM63.237,11.159,55.129,9.3l.093-.186.1-.186v-.3l.1-.2.1-.191.1-.2V7.948l.1-.2v-.1l.1-.1V7.26l.1-.2.1-.2V6.379l.092-.2v-.2l.2-.2.1-.2.094-.685-.679.392-.589.395-.687.39-.684.3-.686.293-.687.391-.591.49-.489.49-.186.2-.137.132L49.465,8l.076-.843.1-.2v-.1l.1-.194v-.4l.1-.195v-.3l.1-.095.1-.877v-.5l-.1-.384V3.584l7.693.854.047-.414-7.641-.847V2.555l.094-.389V1.772l.1-.195.1-.195.1-.2.2-.194.1-.2.193-.1.2-.1H51.4l.106-.1L51.6.4h.382l.2-.195.1-.193.195-.195.2-.2.1-.194.2-.2.1-.2.194-.189.2-.2.2-.192.02-.039,7.374-.223-.014-.416-.207.006-6.9.208.018-.026.2-.2.1-.195v-.492l.29-.678.1-.692V-5.668l-.1-.688-.016-.093,3.159-.417-.055-.412-.205.027-2.964.391-.014-.086-.1-.684-.1-.59-.2-2.347h-.1v-.095h-.1v-.1h-.195l-.491.883-.687.977-.591.877-.489.98-.378.637-2.032.268-.032-.123-.1-.389-.1-.393-.1-.392-.194-.588-.2-.684L48.071-9.4l-.1-.688v-.168l14.515-3.624A54.891,54.891,0,0,1,64.329.229a55,55,0,0,1-1.092,10.93M9.758-56.73A56.9,56.9,0,0,0-46.95.229,56.9,56.9,0,0,0,9.758,57.187,56.9,56.9,0,0,0,66.471.229,56.9,56.9,0,0,0,9.758-56.73" transform="translate(46.95 56.73)"/>
        </g>
      </g>
      <g id="Group_3586" data-name="Group 3586" transform="translate(2.76 2.759)">
        <g id="Group_3585" data-name="Group 3585" transform="translate(0 0)">
          <path id="Path_2478" data-name="Path 2478" class="cls-3" d="M35.778,1.057a76.9,76.9,0,1,0,76.9,76.9,76.985,76.985,0,0,0-76.9-76.9m0,156.139a79.24,79.24,0,1,1,79.24-79.24,79.328,79.328,0,0,1-79.24,79.24" transform="translate(43.461 1.284)"/>
        </g>
      </g>
      <g id="Group_3588" data-name="Group 3588" transform="translate(0 0)">
        <g id="Group_3587" data-name="Group 3587" transform="translate(0 0)">
          <path id="Path_2479" data-name="Path 2479" class="cls-3" d="M37.024.688A80.477,80.477,0,1,0,117.5,81.163,80.567,80.567,0,0,0,37.024.688m0,162.477a82,82,0,1,1,82-82,82.093,82.093,0,0,1-82,82" transform="translate(44.975 0.836)"/>
        </g>
      </g>
    </g>
  </g>
</svg>
