<svg xmlns="http://www.w3.org/2000/svg" xmlns:xlink="http://www.w3.org/1999/xlink" width="164" height="164" viewBox="0 0 164 164">
  <defs>
    <style>
      .cls-1 {
        fill: none;
      }

      .cls-2 {
        clip-path: url(#clip-path);
      }

      .cls-3, .cls-4 {
        fill: #2b2e34;
      }

      .cls-4 {
        fill-rule: evenodd;
      }
    </style>
    <clipPath id="clip-path">
      <path id="Path_2849" data-name="Path 2849" class="cls-1" d="M0,74.049H164v-164H0Z" transform="translate(0 89.951)"/>
    </clipPath>
  </defs>
  <g id="Group_4328" data-name="Group 4328" transform="translate(0 89.951)">
    <g id="Group_4327" data-name="Group 4327" class="cls-2" transform="translate(0 -89.951)">
      <g id="Group_4208" data-name="Group 4208" transform="translate(136.838 146.662)">
        <g id="Group_4207" data-name="Group 4207" transform="translate(0 0)">
          <path id="Path_2789" data-name="Path 2789" class="cls-3" d="M2.261,2.133q.311,0,.589-.02A1.5,1.5,0,0,0,3.344,2a.775.775,0,0,0,.345-.291.993.993,0,0,0,.129-.548A.856.856,0,0,0,3.7.685.774.774,0,0,0,3.4.414a1.307,1.307,0,0,0-.42-.129A3.3,3.3,0,0,0,2.518.251H1.3V2.133ZM2.667-.493a2.422,2.422,0,0,1,1.563.42A1.555,1.555,0,0,1,4.738,1.2,1.437,1.437,0,0,1,4.291,2.37a2,2,0,0,1-1.109.44L4.874,5.421H3.885L2.275,2.877H1.3V5.421H.38V-.493ZM-1.508,4.17a4.211,4.211,0,0,0,.88,1.374A4.075,4.075,0,0,0,.7,6.457a4.122,4.122,0,0,0,1.658.332,4.047,4.047,0,0,0,1.638-.332,4.1,4.1,0,0,0,1.32-.914A4.222,4.222,0,0,0,6.193,4.17a4.587,4.587,0,0,0,.318-1.726A4.462,4.462,0,0,0,6.193.752,4.18,4.18,0,0,0,5.314-.609a4.158,4.158,0,0,0-1.32-.906,4.047,4.047,0,0,0-1.638-.332A4.129,4.129,0,0,0-.628-.609,4.17,4.17,0,0,0-1.508.752a4.462,4.462,0,0,0-.318,1.692A4.587,4.587,0,0,0-1.508,4.17M-2.341.454a5.021,5.021,0,0,1,1.1-1.6A5.14,5.14,0,0,1,.387-2.2a5.075,5.075,0,0,1,1.969-.386A5.025,5.025,0,0,1,4.318-2.2,5.038,5.038,0,0,1,7.025.454a4.873,4.873,0,0,1,.406,1.99,4.982,4.982,0,0,1-.406,2.023,5.121,5.121,0,0,1-1.1,1.611A4.914,4.914,0,0,1,4.318,7.14a5.1,5.1,0,0,1-1.962.379A5.154,5.154,0,0,1,.387,7.14,4.978,4.978,0,0,1-1.237,6.078a5.067,5.067,0,0,1-1.1-1.611,5,5,0,0,1-.406-2.023A4.886,4.886,0,0,1-2.341.454" transform="translate(2.747 2.591)"/>
        </g>
      </g>
      <g id="Group_4210" data-name="Group 4210" transform="translate(13.011 78.135)">
        <g id="Group_4209" data-name="Group 4209" transform="translate(0 0)">
          <path id="Path_2790" data-name="Path 2790" class="cls-4" d="M0,1.094C.964-.41,3.875-1.412,5.225-1.324a8.647,8.647,0,0,0-.317,5.507A7.149,7.149,0,0,1,0,1.094m.762.049,3.348.21a6.093,6.093,0,0,0,.2,2.176L4.094,3.49C2.791,3.248,1.089,2.118.762,1.143" transform="translate(0 1.329)"/>
        </g>
      </g>
      <g id="Group_4212" data-name="Group 4212" transform="translate(144.821 76.326)">
        <g id="Group_4211" data-name="Group 4211" transform="translate(0 0)">
          <path id="Path_2791" data-name="Path 2791" class="cls-4" d="M2.331,1.143C1.409-.391-1.48-1.438-2.832-1.386a8.657,8.657,0,0,1,.165,5.514,7.22,7.22,0,0,0,5-2.985M1.564,1.2l-3.3.138a6.4,6.4,0,0,1-.3,2.122l.22-.032C-.691,3.282,1.209,2.167,1.564,1.2" transform="translate(2.832 1.388)"/>
        </g>
      </g>
      <g id="Group_4214" data-name="Group 4214" transform="translate(76.493 61.486)">
        <g id="Group_4213" data-name="Group 4213" transform="translate(0)">
          <path id="Path_2792" data-name="Path 2792" class="cls-4" d="M.6,0c.606,0,.727.524,1.089.634a2.548,2.548,0,0,1-2.418,0C-.368.524-.005,0,.6,0" transform="translate(0.729)"/>
        </g>
      </g>
      <g id="Group_4216" data-name="Group 4216" transform="translate(75.761 120.303)">
        <g id="Group_4215" data-name="Group 4215" transform="translate(0)">
          <path id="Path_2793" data-name="Path 2793" class="cls-3" d="M.56,0C-.553,0-.68,2.468-.68,3.671S-.553,7.341.56,7.341,1.8,4.872,1.8,3.671,1.673,0,.56,0" transform="translate(0.68)"/>
        </g>
      </g>
      <g id="Group_4218" data-name="Group 4218" transform="translate(84.201 120.303)">
        <g id="Group_4217" data-name="Group 4217" transform="translate(0)">
          <path id="Path_2794" data-name="Path 2794" class="cls-3" d="M.56,0C-.553,0-.68,2.468-.68,3.671S-.553,7.341.56,7.341,1.8,4.872,1.8,3.671,1.673,0,.56,0" transform="translate(0.68)"/>
        </g>
      </g>
      <g id="Group_4220" data-name="Group 4220" transform="translate(25.309 25.692)">
        <g id="Group_4219" data-name="Group 4219" transform="translate(0 0)">
          <path id="Path_2795" data-name="Path 2795" class="cls-3" d="M42.8,22.208l13.562,6.707L42.8,35.621a40.561,40.561,0,0,0,0-13.413m.267,45.065L26.884,51.086q.6-.629,1.174-1.293l22.6-1.505L35.683,31.175c.047-.705.08-1.414.08-2.131,0-.8-.041-1.6-.1-2.386L50.674,9.5,27.78,7.976a32.357,32.357,0,0,0-2.989-2.967L24.218-3.6l.758.513A39.9,39.9,0,0,1,30.829,1.74a39.775,39.775,0,0,1,4.825,5.853l.6.89L42.428-9.769A54.458,54.458,0,0,1,58.686,28.874L41.367,20.309l.2,1.054a40.045,40.045,0,0,1,.728,7.553,39.976,39.976,0,0,1-.728,7.55l-.2,1.055,17.322-8.566c0,.041,0,.08,0,.121a54.447,54.447,0,0,1-15.62,38.2M7.063,31.266v-.123c0-.827.958-1.33,2.065-1.912,1.708-.9,3.834-2.015,3.58-4.908-.157-1.78-.952-2.5-3.312-4.639-.277-.251-.575-.523-.9-.817.855-.7,3.84-4.009,3.84-4.962,0-1.074-.4-1.4-1.705-1.4a5.47,5.47,0,0,0-2.824,1.145,4.453,4.453,0,0,1,.2-1.035,3.859,3.859,0,0,1,.74-1.111,10.969,10.969,0,0,0,.787-1.026l.047-.071-.043-.074a3.124,3.124,0,0,0-.888-.883,2.336,2.336,0,0,1-.888-.977A4.027,4.027,0,0,1,7.594,7.1a4.433,4.433,0,0,0-.186-1.48C6.948,4.412,5.715,3.8,3.745,3.8c-1.39,0-1.7.082-3.414,1.328L.285,5.16l-.029.194A1.6,1.6,0,0,1-.165,6.4,4.481,4.481,0,0,1-2.113,7.448,4.968,4.968,0,0,0-5.064,9.492a8.284,8.284,0,0,0-.87,3.18c0,2.573,2.192,4.489,4.127,6.178,1.6,1.4,3.111,2.719,3.113,4.162V26.74A10.434,10.434,0,0,1-.41,27.989C-2,29.005-3.969,30.27-3.969,32.182a4.139,4.139,0,0,0,1.005,2.593L-18.059,50.15a30.355,30.355,0,0,1-8.526-21.106A30.5,30.5,0,0,1,3.878-1.417,30.5,30.5,0,0,1,34.341,29.044a30.351,30.351,0,0,1-8.462,21.038ZM19.492,66.789a6.493,6.493,0,0,0-2.775,1.6,5.689,5.689,0,0,0-1.356,3.644c-.039,1.586.485,2.942,1.5,2.942.858,0,1.2-.793,1.2-1.624,0-1.241-.537-2.328-1.471-2.328a1.087,1.087,0,0,0-.423.076.192.192,0,0,1-.089-.255,2.1,2.1,0,0,1,1.356-.486,2.126,2.126,0,0,1,2.034,2.43,2.643,2.643,0,0,1-2.762,2.7c-1.893,0-2.892-1.432-2.892-3.261a5.56,5.56,0,0,1,1.7-3.978,6.97,6.97,0,0,1,3.928-1.8.284.284,0,0,1,.05.345m-11.355,8.7c-1.971,0-2.751-2.173-2.751-4.181,0-1.931.78-4.184,2.751-4.184s2.75,2.253,2.75,4.184c0,2.008-.78,4.181-2.75,4.181m-3.9-15.515V53.484c1.6.164,1.68,2.735,1.68,3.262,0,.237-.037.724-.08,1.288-.065.856-.145,1.923-.156,2.813,0,.053-.088.154-.395.154-.6,0-.9-.556-1.049-1.031M-.159,47.862c-.16-.93,1.2-1.368,2.182-1.658a6.067,6.067,0,0,0,2.6,3.359l.1.066c3.379,2.162,4.052,3.334,4.02,3.937-.04.768-.436,1.046-1.1,1.5-.222.154-.465.324-.73.535a6.747,6.747,0,0,0-.144-1.916l-.011-.045-.035-.03A22.426,22.426,0,0,0,4.313,52c-1.969-1.2-4.2-2.566-4.472-4.141m6.046-4.615V48.8a4.89,4.89,0,0,1-1.422-1.08V41.468c.725.5,1.443,1.305,1.422,1.78M2.239,33.02a27.169,27.169,0,0,0,4.486,4.55c2.074,1.8,3.866,3.35,3.866,4.779,0,1.45-1.835,2.327-3.174,2.968-.114.053-.221.105-.324.156,0-.608-.008-2.281-.008-2.556,0-1.6-2.177-3.235-4.482-4.969C.087,36.054-2.514,34.1-2.576,32.055c-.026-.832,1.374-2.044,3.848-3.337v.007c.063,1.32.148,3.128.968,4.295M6.1,24.948V35.219a4.054,4.054,0,0,1-1.423-2.177V23.866A4.788,4.788,0,0,1,6.1,24.948M6.312,16c.059.158.29.179.508.179.176,0,.4-.18.774-.48a7.493,7.493,0,0,1,3.258-1.713A21.986,21.986,0,0,1,7.8,17.65l-.327.341-.2-.154c-.648-.5-2.62-2.031-2.62-2.626,0-.254-.015-.417-.028-.575a5.5,5.5,0,0,1-.025-.77,7.526,7.526,0,0,0,1.787-.674c.014.536-.006,1.2-.026,1.838-.008.272-.017.537-.023.78A.206.206,0,0,0,6.312,16M4.678,7.119v-1.6H5.5c.335,0,.526.252.789.6.078.1.16.21.251.318V7.768c-.6-.178-1.168-.378-1.865-.649m3.24,3.305a6.313,6.313,0,0,1-4.526,2.417l-.318,0a8.516,8.516,0,0,1-2.016-.211l-.077-.018L.5,13.13l.038.083c.634,1.392,2.663,3,4.814,4.705,2.837,2.25,6.053,4.8,6.053,7.023,0,1.519-2.374,2.7-3.516,3.27l-.329.166c.005-.088.014-.185.026-.294a8.861,8.861,0,0,0-.3-3.38C6.974,23.425,4.758,21.8,2.193,19.91c-3.182-2.339-6.787-4.99-6.787-7.193,0-3.306,3.272-4.846,5.483-4.846a13.207,13.207,0,0,1,7.029,2.553M-.3,75.485c-1.969,0-2.75-2.173-2.75-4.181,0-1.931.78-4.184,2.75-4.184s2.75,2.253,2.75,4.184c0,2.008-.78,4.181-2.75,4.181m-6.214-.139c-.5-.026-1.023-.04-1.611-.04h-2.111c-.717,0-1.138.014-1.407.04a.181.181,0,0,1-.077-.231c.69-.614,1.138-1.011,1.918-1.828a5.5,5.5,0,0,0,1.855-3.582A1.573,1.573,0,0,0-9.47,67.939a1.833,1.833,0,0,0-1.573,1.126.265.265,0,0,1-.333-.192A2.8,2.8,0,0,1-8.7,67.121a2.078,2.078,0,0,1,2.226,2.124c0,.818-.359,1.637-1.51,2.852l-1.049,1.1c-.55.577-.6.744-.6.833s.064.178.4.178h1.5c.921,0,1.138-.1,1.535-.805a.257.257,0,0,1,.32.076,5.278,5.278,0,0,1-.627,1.868m-28.4-8.032A54.442,54.442,0,0,1-50.574,29.076c0-.035,0-.068,0-.1l17.07,8.44-9.477,10.83,22.644,1.51q.62.724,1.281,1.409Zm.017-31.778-13.56-6.7,13.56-6.708a40.637,40.637,0,0,0,0,13.412m-.014-44.7,5.98,17.687-14.031.935,9.444,10.795-17.049,8.432A54.44,54.44,0,0,1-34.91-9.164m1.571,1.32L-19.009-3A40.911,40.911,0,0,0-24.144,1.35a41.1,41.1,0,0,0-4.349,5.138Zm5.4,38.9-5.534,6.325-.192-1a39.653,39.653,0,0,1,0-15.1l.189-.977,5.566,6.363c-.059.786-.1,1.577-.1,2.379,0,.675.029,1.344.07,2.008m31.8-56.6L-4.616-8.411l-10.907-9.544L-17.055,5.027a32.072,32.072,0,0,0-2.925,2.9l-8.606.574.368-.543A40.08,40.08,0,0,1-23.391,2.1a40.072,40.072,0,0,1,5.852-4.825l.889-.6L-34.668-9.418A54.465,54.465,0,0,1,3.861-25.551M10.6-9.65a41.016,41.016,0,0,0-6.705-.557,41,41,0,0,0-6.706.557L3.891-23.209Zm1.617,1.383-6.288,5.5c-.677-.043-1.358-.073-2.047-.073s-1.368.03-2.044.073l-6.283-5.5.789-.153a39.859,39.859,0,0,1,15.1,0Zm28.563.059L35.928,6.122A40.649,40.649,0,0,0,31.582.987a40.857,40.857,0,0,0-5.136-4.348ZM4.059-25.556a54.441,54.441,0,0,1,38.274,15.7L24.21-3.73l-.947-14.206L12.392-8.424,3.921-25.553c.047,0,.092,0,.138,0M60.113,29.076A56.117,56.117,0,0,0,4.059-26.977,56.117,56.117,0,0,0-52,29.076,55.864,55.864,0,0,0-35.907,68.329l-.011.011.193.18a56.426,56.426,0,0,0,11.1,8.688c9.12,5.841,18.612,8.805,28.349,8.805,23.143,0,39.8-16.969,39.964-17.141l.485-.5-.094-.094a55.863,55.863,0,0,0,16.038-39.2" transform="translate(51.996 26.977)"/>
        </g>
      </g>
      <g id="Group_4222" data-name="Group 4222" transform="translate(12.621 63.807)">
        <g id="Group_4221" data-name="Group 4221" transform="translate(0 0)">
          <path id="Path_2796" data-name="Path 2796" class="cls-4" d="M3.262,4.581-3.711,2.114q-.274-.106-.25-.24a.16.16,0,0,1,.088-.114,1.239,1.239,0,0,1,.311-.115L3.24-.14-2.472-4.324c-.164-.1-.235-.2-.217-.292s.144-.141.378-.13L4.7-4.428a3.109,3.109,0,0,0,.815-.032.556.556,0,0,0,.4-.289A2.2,2.2,0,0,0,6.161-5.4c.014-.108.049-.161.111-.161a.113.113,0,0,1,.076.1.573.573,0,0,1-.011.2c-.021.106-.065.3-.126.6s-.131.593-.2.905-.13.544-.171.7a1.039,1.039,0,0,1-.094.244c-.027.041-.059.056-.09.049-.051-.012-.085-.059-.1-.144S5.4-3.025,5.09-3.047L.113-3.326.1-3.283,4.642.062c.229.169.378.288.451.356s.1.124.084.166S5.106.677,5,.718s-.26.089-.442.144l-.62.179c-.265.078-.545.157-.839.242s-.562.159-.8.225-.4.108-.491.128-.3.069-.6.147-.65.163-1.03.258L-.865,2.3l-.011.044L3.4,3.757a4.34,4.34,0,0,0,.512.133.317.317,0,0,0,.255-.049.492.492,0,0,0,.16-.211,2.134,2.134,0,0,0,.147-.448c.017-.1.053-.148.108-.15.09.023.114.118.071.285-.047.236-.1.459-.147.67s-.091.366-.111.471-.047.279-.077.491-.066.411-.1.6c-.014.123-.069.179-.159.172-.053-.014-.068-.076-.044-.188.008-.043.018-.088.023-.137a1.694,1.694,0,0,0,.009-.2.485.485,0,0,0-.257-.381,2.489,2.489,0,0,0-.527-.234" transform="translate(3.963 5.565)"/>
        </g>
      </g>
      <g id="Group_4224" data-name="Group 4224" transform="translate(15.64 56.651)">
        <g id="Group_4223" data-name="Group 4223" transform="translate(0 0)">
          <path id="Path_2797" data-name="Path 2797" class="cls-4" d="M2.361,1.743.493,1.1-.732.687c-.29-.1-.506-.168-.653-.216S-1.659.387-1.768.359c-.356-.106-.6-.056-.716.155a1.488,1.488,0,0,0-.174.363c-.033.112-.086.156-.165.132-.062-.02-.062-.114,0-.281.075-.211.163-.45.265-.714s.183-.478.24-.642c.05-.145.111-.342.191-.6s.152-.486.224-.7c.044-.142.1-.208.162-.192s.09.1.047.2a1.715,1.715,0,0,0-.077.327.423.423,0,0,0,.08.356A.982.982,0,0,0-1.3-.989c.1.044.227.091.369.144s.361.129.65.226S.415-.38.944-.2L2.815.438Q3.592.7,4.193.9c.4.132.722.228.962.285a.8.8,0,0,0,.388.017A.456.456,0,0,0,5.821.946c.035-.072.077-.158.12-.255S6.019.506,6.05.424c.039-.114.088-.161.143-.141S6.275.4,6.228.52c-.123.354-.242.678-.352.97s-.195.512-.248.661-.111.335-.19.6-.164.511-.239.735c-.046.14-.105.2-.18.175-.057-.011-.065-.077-.026-.2a1.859,1.859,0,0,0,.088-.393.31.31,0,0,0-.088-.277,1.132,1.132,0,0,0-.336-.21c-.219-.1-.526-.226-.924-.367s-.853-.3-1.371-.475" transform="translate(2.869 2.117)"/>
        </g>
      </g>
      <g id="Group_4226" data-name="Group 4226" transform="translate(17.986 46.493)">
        <g id="Group_4225" data-name="Group 4225" transform="translate(0 0)">
          <path id="Path_2798" data-name="Path 2798" class="cls-4" d="M1.745,2.637l1.249.657c.532.28.973.511,1.328.693s.581.3.684.343c.134.066.283.132.444.2a.907.907,0,0,0,.368.092A.905.905,0,0,0,6.3,4.361a3,3,0,0,0,.6-.819A4.8,4.8,0,0,0,7.428,2.17,2.955,2.955,0,0,0,7.4.905,2.478,2.478,0,0,0,6.7-.3a5.563,5.563,0,0,0-1.319-.92,4.3,4.3,0,0,0-1.725-.508,3.368,3.368,0,0,0-1.259.146A3.843,3.843,0,0,0,.794-.571,5.578,5.578,0,0,0-.1.684c-.057.108-.117.232-.176.374a1.149,1.149,0,0,0-.1.3.2.2,0,0,0,.135.222c.177.1.453.248.82.443l1.159.612m1.244,2.23L1.245,3.95.1,3.346C-.17,3.206-.373,3.1-.51,3.032s-.258-.127-.359-.171a.831.831,0,0,0-.435-.1.558.558,0,0,0-.356.228,1.172,1.172,0,0,0-.113.159c-.042.068-.083.138-.122.209-.053.113-.114.151-.178.12s-.059-.12.026-.262c.144-.269.294-.535.444-.792s.263-.462.345-.608.193-.38.333-.657S-.64.584-.478.281q.326-.628.754-1.307A6.175,6.175,0,0,1,1.313-2.257a3.7,3.7,0,0,1,1.452-.806A3.858,3.858,0,0,1,4.13-3.192a4.388,4.388,0,0,1,1.665.5A4.664,4.664,0,0,1,7.26-1.5,4.188,4.188,0,0,1,7.988-.16a3.677,3.677,0,0,1,.16.918A4.83,4.83,0,0,1,8.03,2.081a6.654,6.654,0,0,1-.638,1.668c-.2.366-.426.733-.668,1.1s-.431.677-.576.932c-.065.126-.159.314-.283.565s-.237.477-.351.688c-.068.131-.135.178-.2.144-.053-.02-.05-.086.006-.2A1.8,1.8,0,0,0,5.464,6.6a.305.305,0,0,0-.07-.3,1.573,1.573,0,0,0-.322-.274,9.8,9.8,0,0,0-.847-.5q-.546-.3-1.238-.662" transform="translate(2.119 3.203)"/>
        </g>
      </g>
      <g id="Group_4228" data-name="Group 4228" transform="translate(23.798 32.671)">
        <g id="Group_4227" data-name="Group 4227" transform="translate(0 0)">
          <path id="Path_2799" data-name="Path 2799" class="cls-4" d="M3.84,5.535-3.2,2.922a1.648,1.648,0,0,0-.883-.176.694.694,0,0,0-.208.128,1.488,1.488,0,0,0-.152.154c-.065.1-.129.121-.193.075s-.029-.132.077-.253q.29-.349.538-.63c.167-.187.27-.305.31-.352s.116-.155.25-.331.3-.395.508-.65c.1-.121.176-.16.227-.12.053.058.035.132-.049.22a.569.569,0,0,0-.141.243.22.22,0,0,0,.113.25,2.046,2.046,0,0,0,.344.181c.168.074.368.164.609.267.187.084.5.215.929.393s.9.368,1.411.573.973.392,1.393.558.717.283.884.35l.02-.026L-.393-1.556a1.5,1.5,0,0,1-.154-.318.148.148,0,0,1,.014-.15.191.191,0,0,1,.2-.038c.095.019.234.059.417.116L5.95-.214l.02-.026c-.117-.165-.3-.423-.547-.774S4.9-1.763,4.607-2.2L3.729-3.473,3-4.529a2.43,2.43,0,0,0-.435-.492.281.281,0,0,0-.25-.066.7.7,0,0,0-.35.272c-.076.092-.143.12-.2.082s-.029-.132.082-.26q.29-.349.5-.583t.264-.3c.031-.039.1-.135.212-.286s.226-.3.348-.453c.08-.1.144-.135.2-.1s.053.113-.014.191a1.263,1.263,0,0,0-.2.338.683.683,0,0,0,.1.5q.157.3.429.729.3.494.78,1.252T5.5-2.083q.553.859,1.068,1.655T7.452.935a2.215,2.215,0,0,1,.225.374.189.189,0,0,1-.019.206c-.03.042-.092.056-.187.043a3.723,3.723,0,0,1-.46-.119L1.169-.27l-.012.016.38.641c.185.314.4.685.652,1.111s.5.862.759,1.308.49.857.7,1.23.366.667.471.878a5.157,5.157,0,0,1,.22.471.2.2,0,0,1-.011.211c-.056.08-.219.059-.485-.06" transform="translate(4.664 6.724)"/>
        </g>
      </g>
      <g id="Group_4230" data-name="Group 4230" transform="translate(33.733 27.4)">
        <g id="Group_4229" data-name="Group 4229" transform="translate(0 0)">
          <path id="Path_2800" data-name="Path 2800" class="cls-4" d="M1.941,3.035.618,1.579Q.056.961-.252.625C-.456.4-.608.235-.716.124s-.2-.207-.275-.283A.832.832,0,0,0-1.365-.4a.556.556,0,0,0-.416.095,1.681,1.681,0,0,0-.16.108c-.065.05-.126.1-.185.156-.09.088-.161.1-.209.052s-.013-.132.114-.238c.232-.2.462-.4.692-.593s.406-.344.532-.454c.076-.067.214-.19.416-.372s.426-.379.666-.6.456-.41.647-.58l.35-.32a4.342,4.342,0,0,0,.312-.371,1.36,1.36,0,0,1,.1-.153c.041-.028.081-.018.119.03.02.026.056.081.111.17s.156.229.31.428l.132.166c.061.077.123.155.188.235s.108.14.134.182a.12.12,0,0,1,0,.166c-.055.046-.117.029-.18-.049a1.245,1.245,0,0,0-.129-.126A.862.862,0,0,0,1.991-2.6a.466.466,0,0,0-.315-.057,1.386,1.386,0,0,0-.515.257c-.06.044-.175.138-.347.281S.471-1.826.3-1.678s-.29.25-.354.308c-.044.035-.038.079.015.134L1.865.856c.048.064.094.078.141.039.07-.063.2-.177.383-.344s.371-.335.557-.5.31-.289.38-.361A.786.786,0,0,0,3.614-.8c-.011-.115,0-.191.035-.226s.073-.029.117.016c.019.02.059.083.124.183s.186.261.359.479c.076.1.164.214.266.338S4.686.2,4.72.24A.657.657,0,0,1,4.8.353a.085.085,0,0,1-.017.112c-.059.044-.105.041-.144-.008a3.039,3.039,0,0,0-.3-.268A.5.5,0,0,0,4.016.1.9.9,0,0,0,3.58.283C3.514.331,3.4.426,3.235.566S2.9.85,2.738,1s-.289.251-.365.319c-.035.036-.027.079.026.127l.593.653c.092.1.213.235.365.406s.3.338.453.5.262.289.345.374a1.374,1.374,0,0,0,.473.364.568.568,0,0,0,.477-.05,3.54,3.54,0,0,0,.681-.511c.117-.1.244-.222.38-.362a1.678,1.678,0,0,0,.316-.438.716.716,0,0,0,.049-.436,1.5,1.5,0,0,0-.23-.51c-.068-.1-.077-.165-.021-.207s.129-.012.2.089c.062.07.142.171.24.3s.2.266.286.4a3.222,3.222,0,0,1,.2.311.321.321,0,0,1,.044.3,1.238,1.238,0,0,1-.3.314q-.628.557-1.062.925c-.291.246-.541.453-.745.62s-.389.327-.55.468c-.105.1-.26.241-.462.435s-.389.369-.566.529c-.108.1-.191.122-.243.065-.044-.037-.018-.1.074-.184a2.01,2.01,0,0,0,.271-.3A.31.31,0,0,0,3.7,5.2,1.631,1.631,0,0,0,3.5,4.833c-.14-.2-.349-.448-.621-.759s-.586-.655-.937-1.04" transform="translate(2.357 3.686)"/>
        </g>
      </g>
      <g id="Group_4232" data-name="Group 4232" transform="translate(41.535 22.847)">
        <g id="Group_4231" data-name="Group 4231" transform="translate(0 0)">
          <path id="Path_2801" data-name="Path 2801" class="cls-4" d="M2.494,3.8a5.562,5.562,0,0,1-.762.448A3.2,3.2,0,0,1,.983,4.5a.328.328,0,0,1-.217,0,.524.524,0,0,1-.177-.184q-.274-.391-.5-.743c-.147-.235-.249-.4-.3-.483-.1-.15-.12-.256-.058-.314a.093.093,0,0,1,.111,0,.344.344,0,0,1,.09.1,1.654,1.654,0,0,0,.179.2,2.578,2.578,0,0,0,.233.2A1.5,1.5,0,0,0,1.37,3.62a1.812,1.812,0,0,0,.943-.343,1.7,1.7,0,0,0,.572-.64,1.29,1.29,0,0,0,.132-.677,1.169,1.169,0,0,0-.208-.579A1.636,1.636,0,0,0,2.167.818,3.234,3.234,0,0,0,.878.549L.223.515A5.276,5.276,0,0,1-1.612.153,2.445,2.445,0,0,1-2.664-.7a1.907,1.907,0,0,1-.292-1.642A2.883,2.883,0,0,1-1.756-3.9a5.889,5.889,0,0,1,.784-.465,5.061,5.061,0,0,1,.548-.229c.094-.046.164-.038.207.02s.107.165.211.338.277.432.523.782c.138.189.169.3.093.344S.479-3.1.4-3.209a1.143,1.143,0,0,0-.22-.211,1.4,1.4,0,0,0-.447-.226A1.376,1.376,0,0,0-.793-3.7a1.631,1.631,0,0,0-.786.309,1.435,1.435,0,0,0-.616.821,1.07,1.07,0,0,0,.183.877,1.2,1.2,0,0,0,.626.459,4.551,4.551,0,0,0,1.278.177l.392.014A6.16,6.16,0,0,1,2.27-.7,2.537,2.537,0,0,1,3.436.229a2.326,2.326,0,0,1,.4.959A2.222,2.222,0,0,1,3.69,2.414a2.741,2.741,0,0,1-.511.8,4.1,4.1,0,0,1-.685.592" transform="translate(3.029 4.621)"/>
        </g>
      </g>
      <g id="Group_4234" data-name="Group 4234" transform="translate(46.848 17.7)">
        <g id="Group_4233" data-name="Group 4233" transform="translate(0 0)">
          <path id="Path_2802" data-name="Path 2802" class="cls-4" d="M2.283,3.012.12-1.017-1.335-.2a3.32,3.32,0,0,0-.6.407.591.591,0,0,0-.2.384,1.213,1.213,0,0,0,.016.432c.025.088.011.147-.047.177s-.121,0-.172-.112A2.886,2.886,0,0,1-2.483.719C-2.542.534-2.6.354-2.65.177s-.083-.285-.1-.325c-.041-.141-.036-.224.02-.25a.577.577,0,0,1,.178-.028,1,1,0,0,0,.31-.079c.154-.062.323-.136.5-.219s.351-.167.518-.256L2.708-3.048a5.7,5.7,0,0,0,.659-.409,2.6,2.6,0,0,1,.239-.19c.058-.037.122.018.189.165.041.074.1.186.17.335s.149.3.225.453.141.277.188.368.049.171-.006.2-.135,0-.214-.139l-.067-.1a.527.527,0,0,0-.457-.226A2.178,2.178,0,0,0,2.626-2.3l-1.267.626,2.162,4.03q.368.686.668,1.228t.509.849a1.045,1.045,0,0,0,.284.3.415.415,0,0,0,.388.021c.077-.026.165-.062.264-.1s.185-.083.263-.123c.108-.055.176-.057.2-.005.028.071-.019.137-.137.2-.333.173-.643.331-.926.469s-.5.244-.644.322c-.128.067-.313.171-.556.309s-.468.265-.679.378q-.193.106-.251.006c-.035-.048.006-.1.117-.163a1.906,1.906,0,0,0,.335-.226.322.322,0,0,0,.111-.286,1.4,1.4,0,0,0-.114-.405q-.135-.336-.421-.886c-.189-.367-.406-.777-.653-1.233" transform="translate(2.773 3.658)"/>
        </g>
      </g>
      <g id="Group_4236" data-name="Group 4236" transform="translate(56.218 14.882)">
        <g id="Group_4235" data-name="Group 4235" transform="translate(0)">
          <path id="Path_2803" data-name="Path 2803" class="cls-4" d="M1.241,2.864.6,1.012Q.321.225.174-.2C.073-.485,0-.7-.056-.844s-.1-.265-.146-.365a.818.818,0,0,0-.244-.371.555.555,0,0,0-.418-.073,1.261,1.261,0,0,0-.19.038c-.08.022-.159.045-.235.071-.116.045-.188.035-.213-.034s.041-.126.2-.174c.29-.1.58-.191.868-.28s.512-.157.671-.211l.529-.18c.258-.089.541-.186.848-.29L2.439-3c.24-.083.389-.138.448-.16a4.268,4.268,0,0,0,.435-.219,1.174,1.174,0,0,1,.156-.1c.05-.011.081.012.1.072.008.031.021.1.035.2a4.827,4.827,0,0,0,.117.515c.011.041.029.109.057.2s.05.192.08.289.044.171.052.22a.121.121,0,0,1-.067.152c-.068.022-.117-.017-.145-.115a1.6,1.6,0,0,0-.07-.165A.984.984,0,0,0,3.507-2.3a.469.469,0,0,0-.266-.174,1.39,1.39,0,0,0-.577.038c-.074.017-.217.058-.432.125s-.428.133-.641.2-.368.116-.45.145c-.053.015-.065.057-.035.13L2.03.831c.017.077.056.107.115.089L2.632.753C2.87.672,3.106.588,3.342.5s.4-.147.492-.186a.793.793,0,0,0,.457-.331c.037-.112.075-.177.122-.2s.079,0,.1.059c.008.026.02.1.041.216s.067.313.14.58c.032.12.068.259.111.414s.077.256.094.305a.578.578,0,0,1,.032.136.084.084,0,0,1-.059.1c-.074.02-.114,0-.129-.06a3.152,3.152,0,0,0-.176-.366A.507.507,0,0,0,4.308.964a.866.866,0,0,0-.474,0c-.078.02-.222.061-.43.127s-.415.132-.626.2-.365.121-.461.154c-.047.02-.056.062-.026.128l.289.83q.065.191.175.515t.22.64c.071.209.129.368.171.476a1.34,1.34,0,0,0,.291.518A.566.566,0,0,0,3.9,4.7a3.535,3.535,0,0,0,.829-.206c.147-.048.311-.111.495-.186a1.659,1.659,0,0,0,.459-.282A.712.712,0,0,0,5.9,3.64a1.509,1.509,0,0,0-.012-.559c-.026-.116-.005-.181.062-.2s.126.041.152.16c.029.087.062.213.1.372s.072.321.105.481a3.087,3.087,0,0,1,.057.362.32.32,0,0,1-.078.295,1.311,1.311,0,0,1-.4.174c-.529.18-.976.326-1.343.44s-.674.208-.932.283-.485.149-.687.216c-.138.05-.338.123-.6.222s-.506.189-.73.268c-.14.049-.223.038-.25-.032-.026-.053.023-.1.141-.143a1.89,1.89,0,0,0,.367-.172.31.31,0,0,0,.151-.265,1.64,1.64,0,0,0-.044-.419c-.053-.234-.146-.548-.275-.94s-.278-.832-.45-1.32" transform="translate(1.508 3.48)"/>
        </g>
      </g>
      <g id="Group_4238" data-name="Group 4238" transform="translate(64.721 13.101)">
        <g id="Group_4237" data-name="Group 4237" transform="translate(0 0)">
          <path id="Path_2804" data-name="Path 2804" class="cls-4" d="M1.146.452,1.8,3.773c.015.111.062.171.138.178a2.317,2.317,0,0,0,.418.005A3.733,3.733,0,0,0,2.793,3.9a1.972,1.972,0,0,0,.475-.133.807.807,0,0,0,.273-.2,1.428,1.428,0,0,0,.336-.66,2.572,2.572,0,0,0-.008-1.1A2.37,2.37,0,0,0,3.338.646,1.641,1.641,0,0,0,2.55.157,1.725,1.725,0,0,0,1.788.124a2.523,2.523,0,0,0-.575.157.129.129,0,0,0-.067.171M.7,5.083.326,3.161Q.167,2.343.078,1.9c-.059-.3-.1-.518-.137-.668S-.12.955-.15.849a.838.838,0,0,0-.19-.4A.58.58,0,0,0-.747.317,1.588,1.588,0,0,0-.94.329c-.081.01-.163.024-.242.039C-1.3.4-1.372.376-1.39.305s.059-.119.226-.145c.3-.056.6-.109.889-.153s.5-.08.628-.105S.645-.158.842-.2s.394-.085.587-.129.35-.076.47-.1a5.657,5.657,0,0,1,1.068-.12,2.649,2.649,0,0,1,1.053.2,1.765,1.765,0,0,1,.6.458A1.9,1.9,0,0,1,5.064,1a2.406,2.406,0,0,1-.079,1.25,4.584,4.584,0,0,1-.9,1.476c.608.52,1.153.98,1.641,1.386s.923.749,1.314,1.026a2.938,2.938,0,0,0,.9.445,1.893,1.893,0,0,0,.789.032c.09-.014.141.005.149.062.014.081-.05.132-.187.151l-1.047.2a4.15,4.15,0,0,1-.723.092,1.538,1.538,0,0,1-.5-.073,2.674,2.674,0,0,1-.815-.445c-.288-.218-.623-.508-1.011-.869-.189-.176-.38-.353-.568-.535s-.358-.341-.5-.481-.251-.232-.312-.281A.241.241,0,0,0,3.008,4.4l-.964.162c-.059.008-.082.041-.071.105L2,4.822c.1.513.192.972.277,1.375s.164.722.237.951a1.071,1.071,0,0,0,.18.383.425.425,0,0,0,.366.135c.088-.006.186-.014.289-.025s.19-.023.26-.035c.088-.015.138.005.15.061.012.077-.053.127-.2.153-.22.041-.442.081-.671.119s-.429.073-.6.1S2,8.087,1.935,8.1s-.187.039-.343.074l-.5.112c-.181.041-.344.076-.5.1S.373,8.4.356,8.324c-.017-.054.035-.1.159-.121A1.869,1.869,0,0,0,.9,8.083a.309.309,0,0,0,.186-.241,1.533,1.533,0,0,0,.016-.422c-.021-.24-.067-.562-.138-.968S.8,5.59.7,5.083" transform="translate(1.392 0.55)"/>
        </g>
      </g>
      <g id="Group_4240" data-name="Group 4240" transform="translate(75.259 11.77)">
        <g id="Group_4239" data-name="Group 4239" transform="translate(0 0)">
          <path id="Path_2805" data-name="Path 2805" class="cls-4" d="M.727,1.121,1.01,5.787a3.114,3.114,0,0,0,.153.91c.074.18.168.284.283.311a1.8,1.8,0,0,0,.586.059c.123-.008.191.019.2.081,0,.082-.087.123-.253.121q-1.083.02-1.392.014l-.426.032c-.225.019-.488.032-.786.044-.156.018-.241-.017-.252-.1,0-.062.061-.094.177-.095a2.41,2.41,0,0,0,.247-.02A1.35,1.35,0,0,0-.2,7.087c.139-.039.229-.162.267-.37A5.7,5.7,0,0,0,.1,5.7L-.034-.891c-.016-.235.029-.364.134-.383a.282.282,0,0,1,.186.091c.064.062.144.142.241.24.058.058.266.262.623.611s.8.777,1.327,1.283,1.08,1.026,1.656,1.555q.413.385.968.921t1.012.979c.3.3.5.48.574.551l.057,0L6.454-.036a2.11,2.11,0,0,0-.119-.711.475.475,0,0,0-.3-.276,1.067,1.067,0,0,0-.3-.048c-.113,0-.211,0-.292,0-.126,0-.188-.027-.183-.094s.105-.115.289-.11c.295-.009.565-.014.808-.012s.426,0,.549,0c.065,0,.193-.014.391-.03s.431-.031.708-.041c.158-.017.244.013.262.089,0,.068-.066.1-.2.108a1.279,1.279,0,0,0-.335.045.457.457,0,0,0-.313.283,1.989,1.989,0,0,0-.07.677l.125,7.021c.009.237-.033.353-.134.349a.332.332,0,0,1-.193-.069,1.683,1.683,0,0,1-.2-.162q-.376-.33-.946-.859C5.626,5.776,5.221,5.4,4.787,5S3.937,4.2,3.528,3.83q-.645-.591-1.235-1.172c-.392-.387-.728-.722-1-1S.837,1.2.76,1.12Z" transform="translate(0.883 1.362)"/>
        </g>
      </g>
      <g id="Group_4242" data-name="Group 4242" transform="translate(91.965 12.428)">
        <g id="Group_4241" data-name="Group 4241" transform="translate(0 0)">
          <path id="Path_2806" data-name="Path 2806" class="cls-4" d="M.072,2.235.414.646Q.588-.17.682-.611C.744-.9.79-1.128.82-1.278s.05-.279.067-.389a.8.8,0,0,0-.02-.443.556.556,0,0,0-.319-.277,1.345,1.345,0,0,0-.183-.063C.284-2.474.206-2.493.126-2.51,0-2.53-.054-2.577-.04-2.647s.1-.086.262-.047c.3.065.6.133.893.2s.529.129.7.166c.093.02.218.044.38.072l.511.089c.174.033.333.063.466.09.166.03.24.079.223.15s-.085.091-.2.061a.954.954,0,0,0-.154-.024c-.046,0-.1-.009-.169-.011a.43.43,0,0,0-.347.123.936.936,0,0,0-.193.411c-.031.106-.062.234-.1.383s-.086.37-.151.665S1.936.4,1.82.942L1.491,2.465A5.588,5.588,0,0,0,1.34,4.281a1.976,1.976,0,0,0,.437,1.043,1.906,1.906,0,0,0,.648.526,2.582,2.582,0,0,0,.629.209,2.467,2.467,0,0,0,.8.032,1.989,1.989,0,0,0,.838-.3,2.141,2.141,0,0,0,.794-1.038,9.345,9.345,0,0,0,.425-1.527L6.2,1.865c.114-.543.2-.962.265-1.256s.108-.517.138-.667.055-.28.068-.389A.855.855,0,0,0,6.659-.89a.565.565,0,0,0-.325-.277,1.518,1.518,0,0,0-.178-.064c-.076-.021-.147-.038-.21-.052-.123-.02-.179-.066-.162-.137s.1-.089.25-.05c.189.04.381.084.572.13l.477.117c.129.033.195.05.207.052.047.011.144.026.287.053s.308.053.483.085.339.063.489.092.224.077.21.147S8.671-.7,8.54-.737a1.416,1.416,0,0,0-.159-.024c-.047,0-.1-.009-.169-.011a.428.428,0,0,0-.344.123.974.974,0,0,0-.195.412c-.028.106-.062.234-.1.383S7.49.516,7.428.81s-.155.714-.271,1.257L6.908,3.231a7.6,7.6,0,0,1-.561,1.76,2.862,2.862,0,0,1-1.186,1.3,3.258,3.258,0,0,1-1.3.4A4.034,4.034,0,0,1,2.71,6.59a5.938,5.938,0,0,1-.7-.186,3.623,3.623,0,0,1-.825-.385,2.688,2.688,0,0,1-.75-.693A2.624,2.624,0,0,1-.045,4.14a5.318,5.318,0,0,1,.117-1.9" transform="translate(0.088 2.715)"/>
        </g>
      </g>
      <g id="Group_4244" data-name="Group 4244" transform="translate(100.811 15.498)">
        <g id="Group_4243" data-name="Group 4243" transform="translate(0 0)">
          <path id="Path_2807" data-name="Path 2807" class="cls-4" d="M1.8,1.1.148,5.48a3.174,3.174,0,0,0-.236.892.459.459,0,0,0,.132.4,1.82,1.82,0,0,0,.511.289c.119.042.168.094.146.155s-.132.075-.279.007c-.663-.278-1.095-.461-1.281-.549l-.4-.143c-.214-.074-.459-.167-.738-.277-.148-.044-.212-.109-.186-.194q.039-.086.2-.016c.067.028.147.056.233.082A1.475,1.475,0,0,0-1.5,6.18a.419.419,0,0,0,.4-.229A5.454,5.454,0,0,0-.651,5.03L1.935-1.039c.08-.225.175-.322.279-.3a.287.287,0,0,1,.132.159c.036.082.077.188.126.317.026.076.132.344.316.808S3.2.98,3.472,1.654s.565,1.372.875,2.088q.218.519.506,1.234c.191.475.363.909.521,1.3s.258.637.3.732l.053.023L7.513,2.357a2.208,2.208,0,0,0,.182-.7.471.471,0,0,0-.159-.373,1.037,1.037,0,0,0-.259-.167c-.1-.047-.189-.086-.268-.116C6.894.957,6.849.9,6.881.844s.143-.061.311.017c.274.111.521.216.742.315s.389.173.5.22q.092.034.368.129c.184.063.406.146.663.249.152.049.22.112.2.189-.026.061-.1.067-.225.017a1.2,1.2,0,0,0-.325-.094.453.453,0,0,0-.4.134,1.887,1.887,0,0,0-.344.589L5.609,9.072c-.089.222-.175.31-.265.266A.332.332,0,0,1,5.2,9.2a1.381,1.381,0,0,1-.113-.226c-.137-.3-.306-.691-.511-1.165s-.419-.981-.647-1.523S3.469,5.214,3.25,4.708C3.021,4.175,2.8,3.653,2.606,3.14s-.373-.952-.509-1.32-.224-.6-.263-.7Z" transform="translate(2.189 1.341)"/>
        </g>
      </g>
      <g id="Group_4246" data-name="Group 4246" transform="translate(111.527 20.581)">
        <g id="Group_4245" data-name="Group 4245" transform="translate(0 0)">
          <path id="Path_2808" data-name="Path 2808" class="cls-4" d="M1.111,2.213,2.129.534c.289-.475.51-.842.666-1.1s.274-.456.351-.588.139-.248.19-.347c.177-.323.177-.566,0-.727a1.5,1.5,0,0,0-.325-.245c-.1-.053-.134-.115-.1-.186.035-.056.125-.035.279.06.192.117.408.253.648.406s.435.277.584.368c.132.077.316.18.55.308s.448.249.641.362c.135.075.186.14.158.2-.047.068-.115.069-.215,0a1.745,1.745,0,0,0-.3-.143.425.425,0,0,0-.368,0,.984.984,0,0,0-.319.326c-.061.091-.135.2-.216.33s-.2.323-.359.58-.381.626-.671,1.1L2.3,2.923q-.425.7-.747,1.242t-.483.871a.829.829,0,0,0-.1.372.468.468,0,0,0,.2.326c.065.05.143.108.227.17s.166.115.244.159c.1.064.138.12.108.168-.047.06-.129.056-.244-.014C1.189,6.023.9,5.841.63,5.674s-.462-.3-.6-.378c-.123-.073-.308-.176-.552-.311S-1,4.722-1.2,4.6c-.126-.072-.174-.144-.135-.21s.09-.048.2.016a1.851,1.851,0,0,0,.37.169.326.326,0,0,0,.291-.03A1.094,1.094,0,0,0-.2,4.264q.221-.284.555-.817t.754-1.234" transform="translate(1.349 2.689)"/>
        </g>
      </g>
      <g id="Group_4248" data-name="Group 4248" transform="translate(118.638 22.996)">
        <g id="Group_4247" data-name="Group 4247" transform="translate(0 0)">
          <path id="Path_2809" data-name="Path 2809" class="cls-4" d="M.063,3.966,1.93-3.152a1.69,1.69,0,0,0,.077-.709,1.065,1.065,0,0,0-.243-.474,1.321,1.321,0,0,0-.175-.179c-.06-.052-.11-.09-.147-.118-.079-.056-.092-.109-.047-.159s.156-.023.293.093c.242.182.475.363.7.545s.419.331.578.453c.119.085.276.2.478.336s.418.292.644.461a.591.591,0,0,1,.132.124.092.092,0,0,1,.016.11c-.05.055-.114.047-.2-.02a.83.83,0,0,0-.4-.2.275.275,0,0,0-.232.12,3.173,3.173,0,0,0-.314.84L1.573,3.256l.036.026,1.183-.717c.5-.3,1.015-.609,1.558-.935S5.385,1.009,5.819.744,6.563.29,6.741.177a1.373,1.373,0,0,0,.33-.269.208.208,0,0,0,.012-.256,1.5,1.5,0,0,0-.326-.312c-.095-.061-.127-.121-.1-.185q.073-.1.316.1c.229.17.426.324.586.456s.277.225.335.272c.088.063.218.153.39.27s.332.228.476.333c.123.086.165.161.126.222s-.114.046-.2-.027a1.238,1.238,0,0,0-.2-.132A.816.816,0,0,0,8.167.558.943.943,0,0,0,7.8.625a4.82,4.82,0,0,0-.738.364c-.323.188-.625.358-.9.51l-.886.482c-.315.17-.689.374-1.121.614Q2.98,3.251,2.147,3.717c-.556.313-.971.546-1.244.7-.3.17-.517.283-.642.338s-.218.06-.269.013-.079-.114-.063-.227a4.243,4.243,0,0,1,.135-.571" transform="translate(0.077 4.818)"/>
        </g>
      </g>
      <g id="Group_4250" data-name="Group 4250" transform="translate(123.088 29.802)">
        <g id="Group_4249" data-name="Group 4249" transform="translate(0 0)">
          <path id="Path_2810" data-name="Path 2810" class="cls-4" d="M1.311,2.016,2.685.607q.582-.6.9-.926c.213-.217.369-.381.475-.492s.193-.211.265-.3a.84.84,0,0,0,.223-.386.554.554,0,0,0-.128-.4A.99.99,0,0,0,4.3-2.047c-.053-.059-.11-.118-.168-.174-.095-.083-.118-.15-.068-.2s.136-.021.248.1q.332.319.648.641c.208.215.374.38.492.5L5.852-.8c.2.189.412.394.645.619s.443.422.63.6.3.283.347.325a4.18,4.18,0,0,0,.4.283,1.1,1.1,0,0,1,.159.092c.033.038.025.077-.023.118-.023.022-.077.062-.159.121a4.637,4.637,0,0,0-.412.338c-.031.028-.083.074-.156.141l-.224.2c-.079.069-.135.117-.175.147a.121.121,0,0,1-.165.011c-.055-.051-.04-.112.034-.182a1.11,1.11,0,0,0,.117-.137.8.8,0,0,0,.117-.2.464.464,0,0,0,.037-.315,1.433,1.433,0,0,0-.3-.49C6.673.809,6.573.7,6.416.543S6.1.225,5.94.066,5.671-.2,5.608-.263c-.039-.039-.083-.03-.138.026L3.5,1.789c-.063.051-.072.1-.031.143.07.065.193.183.374.355s.365.343.549.514.311.288.388.35a.778.778,0,0,0,.5.253.322.322,0,0,1,.23.018c.04.031.037.071,0,.119-.02.019-.079.063-.175.135s-.25.2-.461.387c-.092.081-.2.176-.319.287s-.2.182-.233.219a.606.606,0,0,1-.107.09A.089.089,0,0,1,4.1,4.65c-.047-.054-.05-.1,0-.141a2.591,2.591,0,0,0,.248-.32.484.484,0,0,0,.07-.329A.875.875,0,0,0,4.2,3.444c-.054-.06-.158-.168-.31-.32s-.31-.308-.468-.463-.277-.268-.349-.338c-.035-.032-.078-.02-.125.035l-.618.633c-.094.1-.22.226-.381.388s-.32.325-.474.484-.271.282-.353.368a1.423,1.423,0,0,0-.332.491.549.549,0,0,0,.083.47,3.435,3.435,0,0,0,.562.638c.11.108.239.226.392.352a1.674,1.674,0,0,0,.462.279.743.743,0,0,0,.444.02,1.569,1.569,0,0,0,.5-.265c.09-.074.156-.086.2-.034s.021.128-.074.2q-.1.1-.288.259c-.129.108-.255.212-.383.311s-.231.173-.3.218a.324.324,0,0,1-.3.063,1.321,1.321,0,0,1-.338-.272q-.6-.58-1-.985c-.268-.271-.492-.5-.678-.693s-.355-.362-.51-.512c-.1-.1-.261-.239-.468-.425s-.4-.36-.574-.524c-.1-.1-.132-.178-.082-.236s.1-.025.192.061a1.931,1.931,0,0,0,.322.247.32.32,0,0,0,.308.013,1.532,1.532,0,0,0,.354-.23,9.622,9.622,0,0,0,.72-.668q.441-.438.983-1" transform="translate(1.592 2.449)"/>
        </g>
      </g>
      <g id="Group_4252" data-name="Group 4252" transform="translate(128.604 36.354)">
        <g id="Group_4251" data-name="Group 4251" transform="translate(0 0)">
          <path id="Path_2811" data-name="Path 2811" class="cls-4" d="M3.4,1.056.668,3.092c-.09.063-.126.129-.1.2a2.317,2.317,0,0,0,.178.374,2.98,2.98,0,0,0,.247.367,1.912,1.912,0,0,0,.327.364.834.834,0,0,0,.3.153,1.485,1.485,0,0,0,.747.011,2.707,2.707,0,0,0,1-.492,2.366,2.366,0,0,0,.811-.977,1.613,1.613,0,0,0,.1-.914,1.706,1.706,0,0,0-.3-.693,2.4,2.4,0,0,0-.394-.444.132.132,0,0,0-.186.014M-1,2.693.581,1.514c.447-.333.793-.591,1.035-.772s.425-.32.544-.415.226-.177.311-.25A.835.835,0,0,0,2.748-.27a.548.548,0,0,0-.059-.417,1.475,1.475,0,0,0-.1-.169c-.044-.068-.091-.135-.141-.2-.08-.1-.091-.166-.035-.213s.133,0,.231.136c.184.246.362.488.529.726s.292.41.368.512.186.236.311.393.25.313.374.465.222.279.294.375a5.754,5.754,0,0,1,.578.9,2.691,2.691,0,0,1,.282,1.026A1.751,1.751,0,0,1,5.231,4a1.942,1.942,0,0,1-.615.789,2.477,2.477,0,0,1-1.169.479,4.647,4.647,0,0,1-1.731-.152q-.308,1.153-.539,2.069C1.022,7.8.9,8.334.823,8.8a2.868,2.868,0,0,0-.008,1,1.613,1.613,0,0,0,.154.451,1.876,1.876,0,0,0,.159.268c.054.073.057.126.011.161-.066.046-.141.011-.217-.1L.279,9.736a3.905,3.905,0,0,1-.4-.6,1.507,1.507,0,0,1-.152-.474,2.611,2.611,0,0,1,.046-.922A12.639,12.639,0,0,1,.121,6.455c.076-.245.154-.492.234-.74s.153-.469.215-.66.1-.326.118-.4A.227.227,0,0,0,.63,4.445L.061,3.659a.078.078,0,0,0-.126-.018l-.123.094q-.636.47-1.127.85c-.332.254-.583.463-.762.628a1.054,1.054,0,0,0-.265.331.412.412,0,0,0,.038.384c.044.077.094.158.149.246a2.488,2.488,0,0,0,.147.217c.053.071.057.126.008.159-.064.044-.137.008-.224-.111-.136-.177-.271-.358-.4-.543s-.255-.351-.356-.495-.173-.241-.21-.289-.12-.15-.219-.272-.206-.253-.321-.395-.219-.274-.31-.4-.107-.2-.048-.244c.042-.041.1-.011.18.088a1.969,1.969,0,0,0,.277.294.323.323,0,0,0,.3.061,1.715,1.715,0,0,0,.386-.171c.211-.123.482-.306.818-.549S-1.414,3-1,2.693" transform="translate(4.125 1.283)"/>
        </g>
      </g>
      <g id="Group_4254" data-name="Group 4254" transform="translate(134.027 45.282)">
        <g id="Group_4253" data-name="Group 4253" transform="translate(0 0)">
          <path id="Path_2812" data-name="Path 2812" class="cls-4" d="M.272,2.29a5.261,5.261,0,0,1-.4-.784,3.242,3.242,0,0,1-.2-.758A.325.325,0,0,1-.3.535.546.546,0,0,1-.1.372C.17.21.432.064.678-.068s.418-.218.508-.263c.158-.088.262-.1.32-.035A.093.093,0,0,1,1.5-.255a.359.359,0,0,1-.1.082,1.5,1.5,0,0,0-.218.163A2.621,2.621,0,0,0,.961.206a1.464,1.464,0,0,0-.426.986,1.785,1.785,0,0,0,.279.956,1.724,1.724,0,0,0,.6.611,1.3,1.3,0,0,0,.672.176,1.194,1.194,0,0,0,.6-.162,1.651,1.651,0,0,0,.614-.6A3.17,3.17,0,0,0,3.66.921L3.743.277a5.118,5.118,0,0,1,.489-1.79,2.425,2.425,0,0,1,.934-.982,1.949,1.949,0,0,1,1.671-.173A2.891,2.891,0,0,1,8.321-1.374a5.866,5.866,0,0,1,.413.808,5.251,5.251,0,0,1,.192.559c.038.1.026.163-.033.2S8.717.288,8.536.38s-.451.246-.821.465c-.2.124-.319.145-.352.066s0-.13.114-.2A1.1,1.1,0,0,0,7.7.512,1.367,1.367,0,0,0,7.961.087a1.3,1.3,0,0,0,.1-.522,1.575,1.575,0,0,0-.253-.8A1.439,1.439,0,0,0,7.019-1.9a1.09,1.09,0,0,0-.9.12,1.173,1.173,0,0,0-.5.585A4.494,4.494,0,0,0,5.349.057L5.308.445a5.9,5.9,0,0,1-.485,1.938A2.513,2.513,0,0,1,3.8,3.472a2.376,2.376,0,0,1-.992.331,2.3,2.3,0,0,1-1.226-.23A2.758,2.758,0,0,1,.821,3.01a3.9,3.9,0,0,1-.549-.72" transform="translate(0.33 2.781)"/>
        </g>
      </g>
      <g id="Group_4256" data-name="Group 4256" transform="translate(137.226 51.305)">
        <g id="Group_4255" data-name="Group 4255" transform="translate(0 0)">
          <path id="Path_2813" data-name="Path 2813" class="cls-4" d="M1.5,1.343l1.8-.8C3.817.32,4.21.146,4.488.022s.486-.217.622-.28.262-.124.359-.176c.334-.165.475-.363.42-.6a1.57,1.57,0,0,0-.123-.383c-.057-.1-.047-.171.029-.209.055-.026.12.044.189.209.091.206.19.439.3.7s.193.473.266.633c.063.139.152.326.272.563s.222.46.312.663c.066.136.072.219.017.25-.078.029-.138-.009-.174-.118A2.141,2.141,0,0,0,6.806.985a.419.419,0,0,0-.3-.2.958.958,0,0,0-.451.086c-.1.038-.227.086-.369.145s-.354.15-.629.271-.674.3-1.184.522l-1.806.8c-.5.22-.945.417-1.329.592s-.685.32-.9.438a.8.8,0,0,0-.3.251.442.442,0,0,0-.024.379c.024.078.05.168.085.267s.07.189.106.268c.05.112.047.177-.01.2-.073.023-.138-.026-.188-.147-.154-.344-.286-.66-.408-.95s-.212-.5-.274-.65c-.059-.129-.15-.32-.273-.569s-.235-.483-.333-.7c-.062-.134-.059-.217.011-.249.05-.03.1.013.155.126a1.723,1.723,0,0,0,.205.347.316.316,0,0,0,.256.141,1.094,1.094,0,0,0,.39-.072c.231-.073.538-.19.927-.356S1,1.564,1.5,1.343" transform="translate(1.822 1.631)"/>
        </g>
      </g>
      <g id="Group_4258" data-name="Group 4258" transform="translate(139.867 56.703)">
        <g id="Group_4257" data-name="Group 4257" transform="translate(0 0)">
          <path id="Path_2814" data-name="Path 2814" class="cls-4" d="M1.515,1.97,5.892.56,5.333-1a3.213,3.213,0,0,0-.3-.661.6.6,0,0,0-.35-.266,1.333,1.333,0,0,0-.43-.059c-.092.01-.146-.015-.168-.075s.023-.117.139-.15a3.436,3.436,0,0,1,.4-.068c.193-.026.382-.049.568-.07s.3-.032.338-.035c.146-.017.23,0,.247.062a.66.66,0,0,1,0,.177,1.057,1.057,0,0,0,.023.317c.037.163.08.338.129.527s.108.372.165.55l1.377,4.19a5.489,5.489,0,0,0,.289.714,2.791,2.791,0,0,1,.149.269c.026.063-.038.115-.2.156-.081.026-.2.062-.36.108l-.491.141c-.164.049-.3.088-.4.12s-.18.016-.2-.042.025-.134.172-.184l.115-.049a.513.513,0,0,0,.3-.405,2.129,2.129,0,0,0-.114-1.036l-.4-1.344L1.947,3.294Q1.2,3.533.612,3.731t-.932.35a1,1,0,0,0-.35.223.406.406,0,0,0-.091.377c.014.081.034.173.059.276s.048.194.075.276c.037.116.027.183-.03.2-.076.014-.134-.041-.172-.166-.114-.357-.218-.686-.3-.987s-.158-.53-.208-.685c-.046-.135-.117-.333-.214-.595s-.18-.5-.256-.729c-.047-.138-.035-.22.036-.245.054-.026.1.022.142.141a1.778,1.778,0,0,0,.169.367.315.315,0,0,0,.265.159A1.475,1.475,0,0,0-.777,2.65c.236-.05.554-.133.949-.256s.846-.263,1.343-.423" transform="translate(1.84 2.394)"/>
        </g>
      </g>
      <g id="Group_4260" data-name="Group 4260" transform="translate(142.095 65.615)">
        <g id="Group_4259" data-name="Group 4259" transform="translate(0 0)">
          <path id="Path_2815" data-name="Path 2815" class="cls-4" d="M.943,2.061l.909-.142a2.776,2.776,0,0,0,.676-.18,2.965,2.965,0,0,0,.447-.256c.053-.034.2-.153.449-.359S3.961.679,4.287.4s.638-.54.927-.79.508-.44.647-.566a2.736,2.736,0,0,0,.686-.886,1.3,1.3,0,0,0,.064-.252.7.7,0,0,0,.006-.232c-.021-.1,0-.159.076-.18s.11.056.132.193c.012.071.028.195.05.365s.047.355.069.547.05.349.068.477.053.281.1.486S7.193,0,7.234.25c.02.111-.006.169-.071.181S7.056.367,7,.209A.205.205,0,0,0,6.776.086a1.033,1.033,0,0,0-.355.191Q6.287.367,5.861.7t-.96.759l-.95.762c-.283.228-.466.373-.549.439.083.021.28.088.586.2s.652.235,1.041.374.738.268,1.053.383.529.185.633.216a1.473,1.473,0,0,0,.6.062.283.283,0,0,0,.156-.069.3.3,0,0,0,.085-.2.6.6,0,0,1,.017-.141.082.082,0,0,1,.061-.073c.072-.015.117.041.129.17.047.369.092.714.132,1.039.014.086.038.207.067.365s.063.311.093.464.048.266.062.341c.025.127,0,.2-.057.213-.077,0-.127-.062-.145-.192a.8.8,0,0,0-.069-.216,1.248,1.248,0,0,0-.139-.248,1.211,1.211,0,0,0-.25-.261,3.948,3.948,0,0,0-.389-.247q-.205-.116-.745-.348C5.97,4.338,5.573,4.174,5.142,4s-.829-.324-1.186-.457-.607-.217-.748-.253a2.128,2.128,0,0,0-.59-.055,5.371,5.371,0,0,0-.546.064l-.908.143c-.1.016-.246.04-.446.074S.3,3.6.06,3.653a.875.875,0,0,0-.392.174A.463.463,0,0,0-.479,4.2c0,.083.006.176.017.28a2.656,2.656,0,0,0,.028.277c.017.119,0,.183-.059.188-.079.008-.129-.063-.149-.213-.056-.354-.1-.684-.141-.991s-.075-.538-.1-.7S-.944,2.682-1,2.41s-.1-.517-.135-.734c-.032-.156-.009-.244.071-.259.056-.012.1.043.117.161a1.728,1.728,0,0,0,.108.378A.35.35,0,0,0-.6,2.17,1.1,1.1,0,0,0-.172,2.2C.07,2.181.293,2.155.5,2.126s.353-.05.447-.065" transform="translate(1.145 2.503)"/>
        </g>
      </g>
      <g id="Group_4262" data-name="Group 4262" transform="translate(13.38 86.973)">
        <g id="Group_4261" data-name="Group 4261" transform="translate(0 0)">
          <path id="Path_2816" data-name="Path 2816" class="cls-3" d="M.353.655a3.555,3.555,0,0,1,2.7-1.44,3.558,3.558,0,0,1,2.7.914A4.306,4.306,0,0,1,7.03,3.109a9.774,9.774,0,0,1,.026,1.415c-.017.372-.075.689-.077.983,0,.109-.045.15-.1.156-.076.006-.192-.013-.527,0-.316.008-.838.062-1.03.058-.144,0-.22-.011-.229-.1s.068-.1.2-.115a1.342,1.342,0,0,0,.842-.453,2.936,2.936,0,0,0,.42-2.02,2.573,2.573,0,0,0-.746-1.773A3.157,3.157,0,0,0,3.267.575,3.231,3.231,0,0,0,.145,3.918C.219,4.78.359,5.3.83,5.647a1.6,1.6,0,0,0,.656.277c.154.016.195.032.2.11s-.059.093-.135.1A8.729,8.729,0,0,1,.27,6.027a.339.339,0,0,1-.3-.229A5.777,5.777,0,0,1-.4,4.071,4.933,4.933,0,0,1,.353.655" transform="translate(0.429 0.796)"/>
        </g>
      </g>
      <g id="Group_4264" data-name="Group 4264" transform="translate(14.393 94.297)">
        <g id="Group_4263" data-name="Group 4263" transform="translate(0 0)">
          <path id="Path_2817" data-name="Path 2817" class="cls-3" d="M1.605,2.617C3.361,2.248,4.213.943,3.922-.41,3.722-1.343,3-2.338,1.04-1.926-.594-1.582-1.678-.359-1.339,1.223c.127.592.685,1.87,2.944,1.394M.531-3.114A3.265,3.265,0,0,1,4.394-.252C4.849,1.865,3.983,3.421,2.162,3.8a3.334,3.334,0,0,1-4-2.833A3.188,3.188,0,0,1,.531-3.114" transform="translate(1.95 3.179)"/>
        </g>
      </g>
      <g id="Group_4266" data-name="Group 4266" transform="translate(15.688 100.853)">
        <g id="Group_4265" data-name="Group 4265" transform="translate(0 0)">
          <path id="Path_2818" data-name="Path 2818" class="cls-3" d="M1.261,1.349c-.991.314-1.482.471-1.571.693-.073.176-.017.507.187,1.137.141.436.252.749.528.885a.977.977,0,0,0,.529.058c.076-.014.127-.011.147.054s-.056.1-.149.131A5.957,5.957,0,0,1,0,4.468c-.191,0-.239-.026-.377-.452-.189-.584-.333-1.06-.447-1.474s-.224-.758-.332-1.092c-.03-.092-.1-.265-.159-.462S-1.459.6-1.512.43c-.033-.1-.024-.167.03-.183.037-.011.092,0,.125.1a1.181,1.181,0,0,0,.12.277c.09.157.251.157.486.112C-.411.674.2.48.907.254L2.271-.178C3.444-.55,3.662-.621,3.9-.706c.257-.1.315-.2.3-.486a1.153,1.153,0,0,0-.059-.278c-.03-.092-.018-.146.037-.165s.091.035.13.153c.123.38.272.905.344,1.127.063.2.3.859.4,1.175.039.12.038.182-.016.2S4.946,1,4.913.894A1.966,1.966,0,0,0,4.784.588C4.677.376,4.546.348,4.268.416c-.252.059-.47.128-1.643.5Z" transform="translate(1.532 1.639)"/>
        </g>
      </g>
      <g id="Group_4268" data-name="Group 4268" transform="translate(17.397 105.473)">
        <g id="Group_4267" data-name="Group 4267" transform="translate(0 0)">
          <path id="Path_2819" data-name="Path 2819" class="cls-3" d="M1.3,1.454c-.96.4-1.437.593-1.505.822-.059.181.026.5.282,1.115.177.422.314.724.6.84a.966.966,0,0,0,.532.012c.074-.02.126-.02.153.042s-.049.1-.138.143a6.278,6.278,0,0,1-.912.238c-.19.015-.241-.005-.414-.421-.237-.565-.421-1.028-.568-1.432S-.964,2.079-1.1,1.755c-.038-.089-.118-.256-.2-.444s-.18-.38-.248-.542C-1.587.67-1.582.6-1.53.585c.035-.017.091-.006.132.091a1.3,1.3,0,0,0,.143.268c.1.147.263.134.495.071C-.427.919.163.677.85.394L2.173-.151C3.309-.618,3.521-.706,3.755-.814c.248-.123.3-.227.263-.508a1.181,1.181,0,0,0-.083-.272c-.037-.089-.03-.145.023-.167s.093.023.142.142c.155.367.348.88.438,1.1.08.189.368.827.5,1.132.05.117.054.178,0,.2S4.938.8,4.9.7A1.9,1.9,0,0,0,4.741.4C4.615.2,4.483.184,4.212.276c-.246.077-.457.165-1.595.632Z" transform="translate(1.573 1.766)"/>
        </g>
      </g>
      <g id="Group_4270" data-name="Group 4270" transform="translate(19.54 109.914)">
        <g id="Group_4269" data-name="Group 4269" transform="translate(0 0)">
          <path id="Path_2820" data-name="Path 2820" class="cls-3" d="M1.654.82c1.092-.564,1.3-.668,1.52-.8A.4.4,0,0,0,3.392-.5a1.612,1.612,0,0,0-.134-.315c-.04-.077-.042-.142.009-.17s.1.028.158.138c.208.4.446.89.559,1.107.127.241,1,1.931,1.087,2.074a3.288,3.288,0,0,0,.21.3c.032.04.08.071.1.1s-.008.071-.041.087A3.055,3.055,0,0,0,4.84,3c-.081.031-.4.174-.5.2-.039.009-.132.035-.164-.025s0-.078.062-.109a.749.749,0,0,0,.235-.188c.095-.125.165-.238,0-.635-.052-.138-.51-1.056-.592-1.211C3.866,1,3.832.993,3.79,1.014L2.011,1.93c-.042.022-.072.048-.049.092.09.171.608,1.157.714,1.32s.188.279.3.308c.083.032.138.037.157.07a.078.078,0,0,1-.044.1c-.042.023-.17.065-.557.21-.153.059-.45.19-.5.216s-.165.072-.2,0c-.028-.051-.011-.081.023-.1.071-.05.164-.1.248-.163.121-.116.182-.269.058-.566C2.1,3.275,1.668,2.4,1.568,2.214c-.018-.035-.057-.027-.1,0l-.576.3c-.245.127-.86.432-1.068.55-.481.27-.47.561-.062,1.336a2.364,2.364,0,0,0,.47.671.691.691,0,0,0,.705.053c.086-.022.129-.023.156.03s-.057.117-.132.156a5.41,5.41,0,0,1-.852.307c-.214.045-.25-.026-.4-.31C-.589,4.727-.821,4.265-1,3.884S-1.325,3.219-1.444,3c-.044-.089-.139-.247-.235-.429s-.211-.362-.293-.518c-.05-.095-.052-.159,0-.185.034-.018.089-.015.139.08a1.366,1.366,0,0,0,.166.256c.115.138.274.111.5.027.323-.121.892-.414,1.552-.754Z" transform="translate(2.01 0.996)"/>
        </g>
      </g>
      <g id="Group_4272" data-name="Group 4272" transform="translate(23.211 115.413)">
        <g id="Group_4271" data-name="Group 4271" transform="translate(0 0)">
          <path id="Path_2821" data-name="Path 2821" class="cls-3" d="M1.207,3.182c-.184.119-.192.126-.3.068A5.327,5.327,0,0,1-.555,1.7c-1.166-1.757-1.414-3.823.46-5.044a3.007,3.007,0,0,1,3.049-.19A4.407,4.407,0,0,1,4.672-1.9,10.2,10.2,0,0,1,5.4-.555a6.882,6.882,0,0,0,.306.617c.047.087.033.12-.015.15A11.132,11.132,0,0,0,4.544.889c-.1.068-.179.059-.217,0S4.316.8,4.367.762a1.059,1.059,0,0,0,.4-.608,2.684,2.684,0,0,0-.512-1.893A2.467,2.467,0,0,0,2.935-2.864a2.347,2.347,0,0,0-2.089.419A2.817,2.817,0,0,0-.024,1.689a1.449,1.449,0,0,0,.407.456.267.267,0,0,0,.331-.017l.623-.4c.335-.22.59-.386.792-.53.226-.158.25-.28.162-.548A1.532,1.532,0,0,0,2.131.354c-.044-.067-.044-.135,0-.162.056-.035.1.017.166.117.247.374.571.9.712,1.109.151.229.416.592.572.826.065.1.089.15.033.187a.1.1,0,0,1-.132-.044,1.12,1.12,0,0,0-.153-.179c-.161-.174-.305-.186-.55-.039-.213.128-.483.3-.819.523Z" transform="translate(1.467 3.866)"/>
        </g>
      </g>
      <g id="Group_4274" data-name="Group 4274" transform="translate(26.497 120.18)">
        <g id="Group_4273" data-name="Group 4273" transform="translate(0 0)">
          <path id="Path_2822" data-name="Path 2822" class="cls-3" d="M1.519.95C2.475.182,2.654.038,2.847-.129a.4.4,0,0,0,.106-.562,1.651,1.651,0,0,0-.194-.283c-.057-.068-.071-.132-.027-.168s.1.006.183.1c.285.349.617.783.772.972C3.86.145,5.06,1.624,5.172,1.747A3.526,3.526,0,0,0,5.439,2a.907.907,0,0,1,.116.082c.032.037.008.069-.022.092a3.581,3.581,0,0,0-.451.275c-.074.047-.36.251-.446.3-.037.016-.123.061-.165.008s-.014-.077.038-.12A.723.723,0,0,0,4.7,2.4c.067-.141.112-.268-.129-.624-.078-.125-.714-.93-.826-1.065-.025-.032-.059-.028-.1,0L2.094,1.967c-.037.031-.06.062-.029.1.123.153.829,1.013.968,1.152s.24.233.357.242c.087.016.143.009.167.039a.076.076,0,0,1-.023.106c-.038.029-.153.1-.5.317-.138.087-.4.275-.446.309s-.147.106-.2.047-.027-.079,0-.1c.06-.062.142-.126.211-.207.095-.141.124-.3-.058-.568-.084-.134-.689-.9-.825-1.067-.025-.029-.06-.015-.1.015l-.5.407C.9,2.929.361,3.35.182,3.506c-.417.361-.347.643.211,1.323a2.384,2.384,0,0,0,.6.561.684.684,0,0,0,.7-.089c.08-.038.121-.047.158,0s-.032.126-.1.178a5.328,5.328,0,0,1-.771.471c-.2.086-.25.026-.453-.223-.409-.5-.729-.908-.98-1.244S-.911,3.9-1.072,3.7c-.062-.074-.187-.211-.317-.37s-.281-.314-.392-.45c-.068-.083-.083-.145-.038-.182.029-.023.086-.031.153.053a1.314,1.314,0,0,0,.214.216c.141.112.291.054.494-.072.292-.183.788-.584,1.366-1.05Z" transform="translate(1.845 1.154)"/>
        </g>
      </g>
      <g id="Group_4276" data-name="Group 4276" transform="translate(33.146 127.188)">
        <g id="Group_4275" data-name="Group 4275" transform="translate(0 0)">
          <path id="Path_2823" data-name="Path 2823" class="cls-3" d="M2.284,2.278a2.567,2.567,0,0,0,.117-3.8C1.692-2.167.524-2.562-.833-1.1A2.654,2.654,0,0,0-.927,2.837c.448.407,1.649,1.128,3.211-.559M-1.942-1.775a3.285,3.285,0,0,1,4.822.111C4.487-.2,4.692,1.566,3.432,2.925A3.352,3.352,0,0,1-1.486,2.92a3.172,3.172,0,0,1-.456-4.695" transform="translate(2.774 2.767)"/>
        </g>
      </g>
      <g id="Group_4278" data-name="Group 4278" transform="translate(37.948 130.833)">
        <g id="Group_4277" data-name="Group 4277" transform="translate(0 0)">
          <path id="Path_2824" data-name="Path 2824" class="cls-3" d="M1.3,1.891C.827,2.509.489,2.97.314,3.264c-.12.208-.165.365.017.547a3.09,3.09,0,0,0,.32.274c.086.065.089.126.066.156-.035.044-.1.034-.2-.043-.441-.329-.91-.715-1.09-.849s-.638-.441-.9-.634c-.094-.069-.129-.12-.089-.175.023-.029.074-.048.153.009a1.2,1.2,0,0,0,.261.16c.164.074.3-.018.463-.188.238-.248.6-.724,1.072-1.344L1.252.044c.741-.975.88-1.156,1.026-1.365a.39.39,0,0,0-.033-.57,1.612,1.612,0,0,0-.258-.228c-.063-.048-.1-.111-.065-.157s.1-.017.211.063c.353.265.781.607.978.753C3.377-1.261,4.9-.11,5.072.006a2.743,2.743,0,0,0,.306.18c.045.02.1.014.138.043a.076.076,0,0,1,0,.1c-.035.044-.124.1-.273.245-.061.062-.364.429-.429.5-.048.047-.121.112-.168.077s-.063-.1-.005-.172A.624.624,0,0,0,4.787.7C4.808.579,4.75.38,4.5.179L3.368-.7c-.039-.031-.074-.034-.132.041L2.052.9c-.03.036-.038.064,0,.094l.971.714c.118.088.212.157.32.226a.456.456,0,0,0,.377.1c.067-.008.106-.026.146,0,.023.018.022.052-.008.089s-.192.189-.37.374c-.114.118-.346.405-.38.453s-.117.137-.188.083c-.04-.029-.029-.091.007-.138a.763.763,0,0,0,.1-.231.434.434,0,0,0-.153-.482c-.16-.144-.971-.759-1.089-.847-.031-.023-.052-.029-.087.018Z" transform="translate(1.576 2.298)"/>
        </g>
      </g>
      <g id="Group_4280" data-name="Group 4280" transform="translate(44.948 134.4)">
        <g id="Group_4279" data-name="Group 4279" transform="translate(0 0)">
          <path id="Path_2825" data-name="Path 2825" class="cls-3" d="M1.535,1.958c-.48.881-.82,1.526-.9,1.689a1.97,1.97,0,0,0-.25.684c.026.217.268.573.95.938a3.238,3.238,0,0,0,2.314.465A2.949,2.949,0,0,0,5.507,4.05a3.144,3.144,0,0,0,.3-2.524,3.948,3.948,0,0,0-2-2.144,2.707,2.707,0,0,0-.593-.244.175.175,0,0,0-.195.11c-.162.28-.557,1-.914,1.661ZM.954.463c.689-1.263.815-1.5.942-1.773.138-.292.141-.462-.112-.674a2.235,2.235,0,0,0-.325-.206c-.095-.05-.137-.094-.105-.154s.1-.041.231.032c.458.245.989.561,1.23.69.268.144.826.411,1.345.684C5.24-.358,6.683.414,7.109,1.868A3.3,3.3,0,0,1,6.8,4.429,3.726,3.726,0,0,1,4.591,6.247a4.59,4.59,0,0,1-3.429-.57C.85,5.513.51,5.3.195,5.1s-.6-.388-.82-.505c-.095-.05-.285-.153-.5-.254s-.432-.211-.6-.3c-.113-.06-.16-.12-.128-.177.023-.041.071-.048.175.008A1.615,1.615,0,0,0-1.35,4c.19.059.333-.1.5-.323C-.618,3.35-.26,2.692.156,1.928Z" transform="translate(1.865 2.378)"/>
        </g>
      </g>
      <g id="Group_4282" data-name="Group 4282" transform="translate(52.674 139.06)">
        <g id="Group_4281" data-name="Group 4281" transform="translate(0 0)">
          <path id="Path_2826" data-name="Path 2826" class="cls-3" d="M.95,1.1C1.421-.021,1.509-.231,1.6-.472a.4.4,0,0,0-.177-.543,1.669,1.669,0,0,0-.307-.157c-.081-.034-.126-.083-.1-.134s.092-.044.211,0c.417.171.918.4,1.146.49.254.1,2.021.838,2.18.895s.286.076.353.092a.883.883,0,0,1,.142.019c.045.018.04.056.026.091A3.634,3.634,0,0,0,4.8.74c-.041.076-.194.392-.248.473-.025.031-.08.11-.143.085s-.049-.062-.023-.123A.729.729,0,0,0,4.447.882C4.439.725,4.419.592,4.033.393,3.9.321,2.959-.088,2.8-.155c-.037-.014-.066,0-.084.047L1.944,1.729c-.018.044-.023.082.023.1.181.073,1.217.5,1.405.555s.323.092.429.044c.085-.026.13-.06.167-.046A.079.079,0,0,1,4,2.49c-.019.044-.089.16-.291.517-.08.14-.223.431-.244.482s-.078.163-.151.134c-.054-.023-.062-.056-.047-.089.023-.086.063-.18.086-.285.017-.168-.036-.322-.324-.471-.138-.077-1.04-.465-1.239-.548-.037-.014-.06.017-.078.06l-.248.593c-.106.256-.378.88-.461,1.1-.193.516,0,.73.822,1.066a2.437,2.437,0,0,0,.794.213c.236-.006.392-.125.574-.41.052-.07.084-.1.139-.074s.032.125,0,.2a5.173,5.173,0,0,1-.453.777c-.135.172-.208.141-.507.02-.6-.247-1.077-.453-1.46-.63s-.683-.3-.92-.4c-.091-.038-.267-.1-.458-.18s-.4-.141-.561-.21c-.1-.041-.143-.089-.122-.141.015-.035.06-.068.16-.029a1.214,1.214,0,0,0,.293.09c.177.032.281-.09.4-.3.168-.3.412-.887.7-1.567Z" transform="translate(1.154 1.342)"/>
        </g>
      </g>
      <g id="Group_4284" data-name="Group 4284" transform="translate(57.461 141.035)">
        <g id="Group_4283" data-name="Group 4283" transform="translate(0 0)">
          <path id="Path_2827" data-name="Path 2827" class="cls-3" d="M.806,2.286C.642,2.891.69,3.1.833,3.2a1.539,1.539,0,0,0,.417.185c.093.028.129.077.115.123-.019.063-.1.059-.213.025-.535-.162-.912-.3-1.063-.35-.075-.023-.478-.113-.9-.239-.113-.034-.185-.066-.162-.14.014-.044.081-.063.156-.041a1.908,1.908,0,0,0,.387.076c.234.011.325-.189.54-.856L1.581-2.553c.046-.153.137-.245.221-.219.1.03.18.181.28.36.073.131.94,1.726,1.8,3.219.4.7,1.167,2.121,1.256,2.265l.038.012L6.136-.363c.135-.474.1-.632-.074-.765A1.454,1.454,0,0,0,5.643-1.3c-.1-.031-.12-.078-.108-.124.02-.062.108-.045.23-.01.432.129.868.279,1.047.332.093.028.409.1.814.229.113.034.186.066.166.129-.014.044-.072.066-.166.038a.917.917,0,0,0-.262-.049c-.244,0-.352.112-.495.542L5.289,4.612c-.053.17-.141.225-.207.205a.526.526,0,0,1-.289-.265c-.376-.617-1.118-1.878-1.736-2.943C2.409.5,1.821-.691,1.7-.874L1.675-.883Z" transform="translate(0.98 2.777)"/>
        </g>
      </g>
      <g id="Group_4286" data-name="Group 4286" transform="translate(66.046 142.901)">
        <g id="Group_4285" data-name="Group 4285" transform="translate(0 0)">
          <path id="Path_2828" data-name="Path 2828" class="cls-3" d="M1.133.451-.136.239C-.63.154-.843.171-1,.324a.934.934,0,0,0-.2.241c-.032.062-.059.1-.116.086S-1.385.588-1.369.506c.025-.13.337-.86.368-.923.039-.1.077-.138.126-.129.068.014.142.094.349.163.246.073.562.144.842.2L3.761.469a4.1,4.1,0,0,0,.586.073c.138.006.21,0,.238.006.057.012.058.06.035.18-.033.168-.165.749-.2.953-.026.082-.055.125-.1.114-.067-.014-.08-.053-.065-.174l.007-.086c.02-.208-.156-.493-.916-.647L2.271.667l-.619,3.2c-.14.723-.251,1.348-.279,1.7-.015.228.005.385.25.47a2.905,2.905,0,0,0,.429.11c.1.02.126.074.118.109-.011.057-.083.072-.18.053C1.43,6.2.866,6.063.624,6.015.433,5.979-.153,5.9-.49,5.832c-.107-.02-.159-.059-.148-.114.008-.038.045-.078.152-.059a1.2,1.2,0,0,0,.3.029c.181,0,.259-.143.332-.37.1-.326.223-.949.364-1.673Z" transform="translate(1.376 0.548)"/>
        </g>
      </g>
      <g id="Group_4288" data-name="Group 4288" transform="translate(69.983 144.081)">
        <g id="Group_4287" data-name="Group 4287" transform="translate(0 0)">
          <path id="Path_2829" data-name="Path 2829" class="cls-3" d="M1.993,1.735c.038,0,.051-.012.044-.043L1.45-.425C1.444-.454,1.439-.5,1.42-.5s-.044.044-.057.069L.309,1.5c-.023.035-.007.056.023.06ZM.108,1.978c-.05,0-.059,0-.085.049L-.555,3.048a1.438,1.438,0,0,0-.18.476c-.015.141.052.233.317.263l.126.011c.108.012.123.053.117.1-.008.066-.057.077-.146.069-.283-.029-.68-.1-.954-.132-.088-.009-.55-.032-1-.079-.108-.012-.155-.037-.147-.1,0-.047.038-.081.106-.075s.177.011.256.02c.4-.015.57-.243.79-.629l2.8-4.787c.123-.216.2-.3.289-.292.126.014.158.092.226.28.156.467,1.229,3.893,1.643,5.166.252.759.485.889.638.935a2.179,2.179,0,0,0,.32.062c.077.011.114.041.108.1s-.059.079-.38.045c-.3-.034-.929-.1-1.648-.2-.156-.026-.253-.037-.247-.094s.028-.072.117-.072a.125.125,0,0,0,.1-.17l-.486-1.68A.085.085,0,0,0,2.129,2.2Z" transform="translate(2.42 2.108)"/>
        </g>
      </g>
      <g id="Group_4290" data-name="Group 4290" transform="translate(77.371 144.583)">
        <g id="Group_4289" data-name="Group 4289" transform="translate(0 0)">
          <path id="Path_2830" data-name="Path 2830" class="cls-3" d="M.883,1.711c-.029,1.031-.041,1.542.14,1.7.144.126.477.182,1.145.2.461.014.8.014,1.018-.2a.964.964,0,0,0,.229-.477c.012-.074.033-.122.1-.119s.076.085.074.18a6.037,6.037,0,0,1-.152.924c-.065.177-.1.214-.557.2-.618-.017-1.12-.038-1.55-.069S.536,4.013.182,4c-.1,0-.284,0-.491,0s-.423.009-.6,0c-.108,0-.166-.032-.165-.089,0-.037.031-.084.14-.081a1.321,1.321,0,0,0,.305-.02c.177-.032.231-.183.267-.419.048-.341.066-.972.086-1.709L-.238.263C-.2-.957-.2-1.183-.2-1.44-.212-1.716-.29-1.8-.562-1.885a1.188,1.188,0,0,0-.284-.037c-.1,0-.147-.032-.145-.088s.062-.075.189-.068c.4.011.953.044,1.188.05.205.006.913.006,1.248.014.127,0,.186.023.184.079s-.051.086-.16.083a2,2,0,0,0-.335.019c-.236.031-.308.143-.335.426C.961-1.154.955-.926.922.294Z" transform="translate(1.073 2.079)"/>
        </g>
      </g>
      <g id="Group_4292" data-name="Group 4292" transform="translate(85.219 142.533)">
        <g id="Group_4291" data-name="Group 4291" transform="translate(0 0)">
          <path id="Path_2831" data-name="Path 2831" class="cls-3" d="M.417.447C.426.284.474.192.551.183s.142.029.3.257L4.189,5.4,6.155-.291c.059-.16.1-.241.184-.251s.159.073.214.268L8.18,5.413c.164.58.3.84.6.888a2.05,2.05,0,0,0,.617.018c.087-.011.158-.011.164.047.009.077-.1.117-.24.135-.243.029-1.59.168-1.986.191-.226.01-.288-.012-.3-.068s.03-.081.1-.117.069-.152,0-.41L6.016,2.043l-.038,0L4.4,6.574c-.167.468-.205.559-.294.57S3.9,6.98,3.7,6.718c-.289-.4-1.243-1.742-1.392-1.99-.114-.186-.85-1.295-1.281-1.954l-.038,0-.029,3.8a3.563,3.563,0,0,0,.026.445c.022.178.16.245.331.263a1.865,1.865,0,0,0,.415,0c.077-.011.148,0,.154.05.011.083-.074.112-.22.132-.411.049-.853.075-1.027.1s-.65.111-.962.15c-.1.012-.177,0-.188-.082,0-.046.05-.074.149-.085a1.34,1.34,0,0,0,.286-.065c.266-.089.3-.465.305-.79Z" transform="translate(0.507 0.543)"/>
        </g>
      </g>
      <g id="Group_4294" data-name="Group 4294" transform="translate(94.319 142.306)">
        <g id="Group_4293" data-name="Group 4293" transform="translate(0 0)">
          <path id="Path_2832" data-name="Path 2832" class="cls-3" d="M.628,1.415C.334.232.28.009.209-.236.124-.5.027-.563-.258-.57A1.555,1.555,0,0,0-.6-.517c-.086.02-.15.005-.163-.049s.048-.088.171-.119C-.149-.791.389-.9.627-.959c.267-.066,2.13-.508,2.289-.556s.277-.106.343-.131a.806.806,0,0,1,.124-.071c.047-.012.067.023.074.06a3.407,3.407,0,0,0,.059.521c.01.086.076.431.079.528,0,.038,0,.133-.063.15s-.076-.02-.092-.085a.729.729,0,0,0-.126-.271c-.1-.12-.2-.216-.625-.15-.148.016-1.153.241-1.326.282-.038.009-.05.041-.04.088L1.8,1.336c.011.045.029.08.077.068.192-.045,1.277-.31,1.465-.376s.314-.114.371-.214c.054-.073.07-.126.108-.135a.078.078,0,0,1,.088.068c.011.046.023.178.074.586.017.16.077.477.09.533s.032.177-.043.193c-.058.015-.083-.007-.093-.045a2.761,2.761,0,0,0-.1-.277c-.085-.146-.22-.238-.541-.189-.157.017-1.115.23-1.326.283-.038.008-.038.047-.026.092l.153.626c.065.267.22.929.286,1.159.15.527.438.586,1.3.377a2.365,2.365,0,0,0,.768-.3c.186-.141.242-.329.219-.667,0-.086.009-.127.066-.142s.1.083.123.166a5.365,5.365,0,0,1,.1.892c-.008.216-.083.235-.4.31-.629.152-1.138.268-1.553.348s-.73.156-.977.217c-.1.023-.275.075-.476.123s-.405.12-.577.162C.87,5.224.806,5.21.794,5.156.783,5.118.8,5.066.906,5.04a1.279,1.279,0,0,0,.288-.1c.165-.077.174-.238.147-.474-.043-.341-.2-.956-.372-1.673Z" transform="translate(0.763 1.719)"/>
        </g>
      </g>
      <g id="Group_4296" data-name="Group 4296" transform="translate(99.08 140.816)">
        <g id="Group_4295" data-name="Group 4295" transform="translate(0 0)">
          <path id="Path_2833" data-name="Path 2833" class="cls-3" d="M1.342,1.731c.285.8.5,1.382.561,1.53a1.518,1.518,0,0,0,.282.5c.154.108.535.154,1.175-.068a2.791,2.791,0,0,0,1.6-1.136A2.411,2.411,0,0,0,4.987.432,2.6,2.6,0,0,0,3.558-1.2a3.605,3.605,0,0,0-2.539.072A1.954,1.954,0,0,0,.537-.9.138.138,0,0,0,.49-.71C.573-.447.793.179,1,.776ZM-.051,1.273C-.457.122-.532-.093-.627-.329c-.111-.254-.211-.308-.5-.289a1.824,1.824,0,0,0-.332.085c-.085.031-.15.024-.169-.031s.04-.092.161-.133c.426-.147.952-.311,1.185-.391.25-.088.828-.308,1.319-.482,1.02-.355,2.392-.834,3.589-.277A2.786,2.786,0,0,1,6.079-.187a3.051,3.051,0,0,1-.142,2.426A4.1,4.1,0,0,1,3.518,4.082c-.3.1-.659.2-.99.294s-.638.171-.841.242c-.092.032-.266.1-.459.17S.833,4.944.668,5c-.1.033-.168.026-.188-.029-.012-.035,0-.088.1-.123a1.3,1.3,0,0,0,.279-.128c.153-.094.15-.253.1-.486C.884,3.906.671,3.308.424,2.612Z" transform="translate(1.63 2.102)"/>
        </g>
      </g>
      <g id="Group_4298" data-name="Group 4298" transform="translate(106.245 138.616)">
        <g id="Group_4297" data-name="Group 4297" transform="translate(0 0)">
          <path id="Path_2834" data-name="Path 2834" class="cls-3" d="M.737,1.293C.229.177.135-.029.02-.258-.11-.5-.231-.55-.425-.527a1.221,1.221,0,0,0-.3.094C-.809-.4-.859-.394-.892-.464-.91-.506-.856-.552-.731-.6c.3-.132.841-.356,1.065-.457.2-.086.7-.332,1-.471.1-.044.168-.056.189-.011.031.068-.005.105-.086.142a1.156,1.156,0,0,0-.222.129c-.2.131-.215.262-.117.53.091.239.183.448.69,1.561l.59,1.294c.323.708.591,1.295.767,1.589a.362.362,0,0,0,.471.206,3.735,3.735,0,0,0,.415-.155c.089-.041.144-.014.161.021.023.051-.028.105-.117.147-.52.231-1.068.445-1.283.542-.179.077-.7.347-1.017.487-.1.043-.165.041-.187-.011-.017-.034-.009-.091.089-.134a1.328,1.328,0,0,0,.265-.15c.147-.108.144-.231.072-.459-.1-.319-.37-.9-.692-1.612Z" transform="translate(0.895 1.57)"/>
        </g>
      </g>
      <g id="Group_4300" data-name="Group 4300" transform="translate(110.273 135.645)">
        <g id="Group_4299" data-name="Group 4299" transform="translate(0 0)">
          <path id="Path_2835" data-name="Path 2835" class="cls-3" d="M1.112,3.106A2.96,2.96,0,0,1-.988,1.54,2.932,2.932,0,0,1-1.172-.874,3.953,3.953,0,0,1,.817-2.928a8.942,8.942,0,0,1,1.144-.526c.306-.114.583-.2.821-.3.092-.037.134-.019.158.022.032.059.061.151.181.41.112.242.328.63.4.775.047.106.061.194-.006.231s-.111-.014-.16-.108A1.13,1.13,0,0,0,2.7-2.917,2.531,2.531,0,0,0,1-2.534,2.385,2.385,0,0,0-.208-1.356,2.555,2.555,0,0,0,.111.854,2.755,2.755,0,0,0,3.84,2.039c.671-.365,1.014-.617,1.137-1.106a1.283,1.283,0,0,0,0-.612C4.93.205,4.928.161,4.99.129s.121.02.153.078A6.514,6.514,0,0,1,5.5,1.232a.283.283,0,0,1-.083.316,5.2,5.2,0,0,1-1.28.9,4.578,4.578,0,0,1-3.024.655" transform="translate(1.351 3.772)"/>
        </g>
      </g>
      <g id="Group_4302" data-name="Group 4302" transform="translate(114.985 133.734)">
        <g id="Group_4301" data-name="Group 4301" transform="translate(0 0)">
          <path id="Path_2836" data-name="Path 2836" class="cls-3" d="M.855,1.329C.179.308.053.119-.1-.09c-.166-.219-.293-.25-.48-.194a1.076,1.076,0,0,0-.283.138c-.075.049-.126.06-.168,0-.028-.041.022-.094.136-.171C-.624-.5-.121-.8.083-.935.264-1.053.72-1.374,1-1.553c.09-.06.159-.08.184-.041.044.063.014.106-.06.153a1.262,1.262,0,0,0-.2.165C.748-1.118.754-.984.9-.738c.126.225.251.414.927,1.433l.788,1.186c.429.65.786,1.186,1.008,1.45a.359.359,0,0,0,.5.128A3.2,3.2,0,0,0,4.5,3.244c.082-.053.141-.035.162,0s-.01.109-.092.162c-.474.311-.983.608-1.179.734-.165.109-.642.454-.929.641-.089.059-.155.068-.186.02-.021-.032-.023-.089.068-.147a1.381,1.381,0,0,0,.238-.189c.124-.129.1-.25,0-.464-.15-.3-.507-.835-.938-1.483Z" transform="translate(1.038 1.614)"/>
        </g>
      </g>
      <g id="Group_4304" data-name="Group 4304" transform="translate(118.355 128.967)">
        <g id="Group_4303" data-name="Group 4303" transform="translate(0 0)">
          <path id="Path_2837" data-name="Path 2837" class="cls-3" d="M1.659,3.36c.408.476.611.559.777.5a1.453,1.453,0,0,0,.389-.234c.077-.062.14-.062.169-.025.042.052-.007.115-.1.188-.438.345-.773.57-.895.668-.062.048-.366.325-.713.6-.092.074-.161.114-.208.054-.029-.037-.007-.1.054-.151a1.769,1.769,0,0,0,.283-.273c.14-.181.028-.371-.4-.926L-1.921-.02c-.1-.126-.124-.253-.055-.307s.253-.043.459-.023c.15.015,1.965.215,3.693.366C2.988.09,4.6.271,4.771.279L4.8.254,2.488-2.49c-.317-.38-.469-.442-.677-.374a1.515,1.515,0,0,0-.384.241c-.085.068-.132.057-.162.019s.023-.113.123-.195c.353-.279.726-.548.872-.664.077-.06.32-.274.651-.532.091-.074.158-.115.2-.063s.014.1-.063.157a.9.9,0,0,0-.188.186c-.145.2-.109.351.168.712L6.137,1.026c.114.143.107.244.054.286a.519.519,0,0,1-.384.084c-.726-.044-2.2-.156-3.432-.257C1.091,1.04-.236.841-.457.833L-.481.85Z" transform="translate(2.016 4.082)"/>
        </g>
      </g>
      <g id="Group_4306" data-name="Group 4306" transform="translate(123.751 125.546)">
        <g id="Group_4305" data-name="Group 4305" transform="translate(0 0)">
          <path id="Path_2838" data-name="Path 2838" class="cls-3" d="M1.008,1.854C.145.982-.014.819-.2.643A.406.406,0,0,0-.776.591a1.613,1.613,0,0,0-.266.217c-.063.062-.127.083-.166.041s0-.1.087-.188C-.8.347-.392-.02-.215-.191c.2-.19,1.572-1.513,1.685-1.635s.183-.233.226-.286a1.224,1.224,0,0,1,.072-.123c.035-.032.07-.013.1.014a3.042,3.042,0,0,0,.318.42c.051.067.286.331.338.414.02.032.073.114.025.161s-.076.022-.123-.025a.733.733,0,0,0-.25-.17c-.149-.053-.279-.088-.614.186-.12.088-.871.79-1,.912C.534-.3.539-.262.573-.229l1.4,1.42c.034.034.068.053.1.02C2.219,1.076,3.02.3,3.147.148s.212-.259.208-.374c.011-.089,0-.142.024-.168a.079.079,0,0,1,.112.013c.032.032.112.141.363.465.1.129.314.372.354.413s.12.137.064.192c-.044.038-.077.032-.1.006A2.445,2.445,0,0,0,3.939.506C3.792.424,3.626.411,3.375.617c-.126.095-.841.763-1,.913-.029.028-.009.06.025.094l.455.462c.193.193.668.689.84.85.4.38.68.283,1.311-.33a2.377,2.377,0,0,0,.511-.639.668.668,0,0,0-.153-.684c-.047-.076-.059-.117-.017-.157s.129.02.19.081a5.244,5.244,0,0,1,.544.717c.1.189.048.244-.184.47-.463.449-.841.8-1.157,1.082s-.548.505-.731.682c-.07.067-.2.2-.344.346s-.289.309-.416.431c-.077.074-.138.1-.179.056s-.038-.083.038-.157a1.247,1.247,0,0,0,.2-.232c.1-.148.028-.29-.117-.48-.214-.271-.659-.723-1.182-1.251Z" transform="translate(1.225 2.252)"/>
        </g>
      </g>
      <g id="Group_4308" data-name="Group 4308" transform="translate(129.752 124.598)">
        <g id="Group_4307" data-name="Group 4307" transform="translate(0 0)">
          <path id="Path_2839" data-name="Path 2839" class="cls-3" d="M.879.079C1-.053,1.1-.144,1.187-.068S1.2.162,1.052.4C.835.727-.127,2.265-.281,2.583c-.1.177-.12.364-.172.422s-.122.023-.182-.055l-.394-.54c-.068-.1-.049-.134.062-.257Z" transform="translate(1.068 0.096)"/>
        </g>
      </g>
      <g id="Group_4310" data-name="Group 4310" transform="translate(130.49 119.173)">
        <g id="Group_4309" data-name="Group 4309" transform="translate(0 0)">
          <path id="Path_2840" data-name="Path 2840" class="cls-3" d="M1.8.987c.027-.04.012-.064-.017-.073L-.638.22C-.674.206-.719.186-.737.209s.009.068.034.1L.641,2.415c.024.03.053.041.075.008ZM.982,2.864c-.029.039-.026.065.009.114L1.77,4.209a1.756,1.756,0,0,0,.378.463c.137.1.29.105.472-.139l.087-.115c.072-.095.1-.106.15-.071s.041.1-.023.188c-.189.252-.463.57-.647.812-.064.085-.365.533-.67.937-.075.1-.126.137-.186.094s-.04-.078.008-.141a2.6,2.6,0,0,0,.166-.253c.225-.393.076-.734-.189-1.171L-2.019-.7c-.15-.258-.2-.365-.141-.444s.156-.067.39-.016C-1.207-1.037,2.857.022,4.4.38,5.308.593,5.585.446,5.748.311A2.354,2.354,0,0,0,6.024,0c.048-.062.084-.1.139-.055s.022.126-.195.414-.641.853-1.125,1.465c-.113.135-.183.229-.236.19s-.038-.077.012-.161a.152.152,0,0,0-.123-.2L2.4,1.083a.093.093,0,0,0-.113.039Z" transform="translate(2.184 1.199)"/>
        </g>
      </g>
      <g id="Group_4312" data-name="Group 4312" transform="translate(133.61 113.593)">
        <g id="Group_4311" data-name="Group 4311" transform="translate(0 0)">
          <path id="Path_2841" data-name="Path 2841" class="cls-3" d="M1.595,1.578c.075.044.109.042.164.005a2.449,2.449,0,0,0,.4-.521.882.882,0,0,0,.2-.586A1.352,1.352,0,0,0,1.612-.61,1.3,1.3,0,0,0-.3-.22,3.309,3.309,0,0,0-.538.231c-.015.057,0,.089.059.122ZM.49,2.2C-.567,1.572-.764,1.455-.991,1.334a.4.4,0,0,0-.568.1,1.5,1.5,0,0,0-.2.278c-.044.074-.1.109-.149.081s-.03-.1.037-.206c.231-.384.529-.842.62-.993C-1.1.34-.718-.34-.581-.568A3.084,3.084,0,0,1,.553-1.788a1.416,1.416,0,0,1,1.272.046c.518.306.8.878.929,1.93C3.934,0,4.878-.145,5.58-.332a1.622,1.622,0,0,0,.931-.516.764.764,0,0,0,.124-.164.1.1,0,0,1,.129-.05c.057.034.043.094-.012.186l-.422.7a1.924,1.924,0,0,1-.623.72,3.894,3.894,0,0,1-1.629.4c-.554.071-1.208.1-1.371.134a.189.189,0,0,0-.128.1l-.416.652a.058.058,0,0,0,.022.089l.1.06c.648.382,1.193.693,1.509.834.221.094.371.138.541-.065a3.734,3.734,0,0,0,.241-.346A.1.1,0,0,1,4.7,2.36c.05.029.039.1-.017.195-.257.427-.648,1.02-.714,1.131-.086.142-.344.626-.52.918-.055.091-.111.125-.158.1s-.06-.067,0-.161a1.4,1.4,0,0,0,.13-.275c.058-.168-.049-.287-.238-.435C2.91,3.624,2.36,3.3,1.721,2.92Z" transform="translate(1.937 1.917)"/>
        </g>
      </g>
      <g id="Group_4314" data-name="Group 4314" transform="translate(136.783 109.459)">
        <g id="Group_4313" data-name="Group 4313" transform="translate(0 0)">
          <path id="Path_2842" data-name="Path 2842" class="cls-3" d="M1.087,1.213C-.019.677-.225.578-.462.473-.718.37-.842.407-.978.548a1.15,1.15,0,0,0-.171.265C-1.187.889-1.227.924-1.3.89c-.043-.02-.029-.089.03-.212.144-.288.42-.8.526-1.022.1-.193.325-.7.471-1,.048-.1.095-.15.139-.128.068.033.064.085.024.161a1.358,1.358,0,0,0-.086.243c-.068.226,0,.338.253.478C.284-.457.489-.356,1.6.181L2.883.8c.7.342,1.286.626,1.611.74.212.069.348.071.494-.139a3.329,3.329,0,0,0,.22-.383c.044-.085.105-.1.139-.082.05.023.046.1,0,.185-.25.505-.535,1.017-.637,1.229-.088.174-.322.713-.472,1.017-.047.1-.1.137-.15.113-.035-.017-.065-.065-.016-.162a1.36,1.36,0,0,0,.108-.282c.043-.175-.038-.268-.241-.4-.282-.18-.865-.462-1.568-.8Z" transform="translate(1.321 1.473)"/>
        </g>
      </g>
      <g id="Group_4316" data-name="Group 4316" transform="translate(138.365 104.025)">
        <g id="Group_4315" data-name="Group 4315" transform="translate(0 0)">
          <path id="Path_2843" data-name="Path 2843" class="cls-3" d="M2.9,1.616C3.222.8,3.175.457,3,.232A1.748,1.748,0,0,0,2.709-.05C2.636-.1,2.6-.135,2.62-.189s.087-.06.264.007a5.071,5.071,0,0,1,.862.518.244.244,0,0,1,.1.323c-.531,1.33-1.107,2.664-1.75,4.275-.037.091-.083.126-.135.1S1.873,5,1.777,4.853C.563,3.08-.676,1.252-1.8-.426l-.6,1.5a3.039,3.039,0,0,0-.32,1.182.865.865,0,0,0,.406.653c.1.059.111.105.093.15s-.068.071-.156.035c-.178-.071-.815-.457-1.027-.592-.1-.05-.124-.1-.1-.147a2.975,2.975,0,0,0,.178-.294C-3,1.314-2.858.929-2.728.6l.982-2.451c.031-.083.08-.126.115-.112a.262.262,0,0,1,.125.1C-.254-.092.992,1.781,2.131,3.526Z" transform="translate(3.518 1.963)"/>
        </g>
      </g>
      <g id="Group_4318" data-name="Group 4318" transform="translate(140.953 97.606)">
        <g id="Group_4317" data-name="Group 4317" transform="translate(0 0)">
          <path id="Path_2844" data-name="Path 2844" class="cls-3" d="M1.8.645A2.612,2.612,0,0,0-1.661,2.285c-.253.92-.07,2.13,1.863,2.65,1.613.435,3.141-.16,3.571-1.72C3.93,2.633,4.027,1.246,1.8.645M.107,6.222A3.231,3.231,0,0,1-2.008,1.928C-1.435-.155.053-1.147,1.85-.662A3.3,3.3,0,0,1,4.1,3.667a3.217,3.217,0,0,1-4,2.555" transform="translate(2.183 0.783)"/>
        </g>
      </g>
      <g id="Group_4320" data-name="Group 4320" transform="translate(142.153 89.898)">
        <g id="Group_4319" data-name="Group 4319" transform="translate(0 0)">
          <path id="Path_2845" data-name="Path 2845" class="cls-3" d="M2.346,2.884c.626.07.831-.009.911-.165a1.452,1.452,0,0,0,.12-.435c.015-.1.059-.14.106-.132.067.011.074.089.058.206-.079.549-.165.939-.186,1.093-.012.077-.041.486-.106.923-.016.113-.036.188-.112.176-.046-.006-.076-.068-.064-.145a1.874,1.874,0,0,0,.017-.39c-.023-.231-.238-.291-.935-.4l-4.749-.756c-.161-.023-.266-.1-.254-.183.016-.107.155-.2.319-.329C-2.41,2.254-.954,1.163.407.1c.639-.5,1.936-1.464,2.068-1.572l.006-.04L-1.1-1.936c-.492-.06-.644,0-.75.187a1.442,1.442,0,0,0-.111.437c-.017.107-.059.131-.105.124-.066-.011-.063-.1-.044-.223.063-.443.148-.892.174-1.076.013-.1.041-.417.1-.833.014-.116.035-.191.1-.183.049.008.081.062.065.157a.92.92,0,0,0-.008.265c.033.239.165.327.617.4l5.048.818c.181.026.246.1.237.171A.515.515,0,0,1,4-1.365C3.443-.9,2.3.014,1.329.781c-1,.8-2.106,1.559-2.27,1.7l0,.03Z" transform="translate(2.85 3.503)"/>
        </g>
      </g>
      <g id="Group_4322" data-name="Group 4322" transform="translate(143.051 83.623)">
        <g id="Group_4321" data-name="Group 4321" transform="translate(0 0)">
          <path id="Path_2846" data-name="Path 2846" class="cls-3" d="M1.741,1.328c0-.04-.017-.05-.047-.041l-2.086.744c-.029.01-.077.018-.077.037s.044.041.074.051l2.026.891c.039.02.057,0,.059-.028Zm.392,1.844c0,.048.007.058.053.079l1.074.492a1.484,1.484,0,0,0,.494.142c.141,0,.23-.072.238-.334l0-.126c0-.108.043-.126.09-.124.065,0,.083.052.081.139-.009.281-.049.68-.058.953,0,.087.012.546,0,.993,0,.107-.025.155-.092.153-.047,0-.084-.032-.081-.1s0-.175,0-.253c-.046-.391-.289-.544-.695-.732L-1.8,2.056c-.226-.1-.319-.176-.317-.262,0-.127.081-.164.266-.246.456-.191,3.82-1.517,5.067-2.023.745-.309.858-.548.891-.7A2.179,2.179,0,0,0,4.148-1.5c0-.077.032-.115.089-.114s.087.051.075.371C4.3-.939,4.284-.317,4.241.4c-.014.156-.015.253-.074.251S4.092.632,4.085.543A.126.126,0,0,0,3.906.461l-1.651.611a.08.08,0,0,0-.06.086Z" transform="translate(2.114 1.614)"/>
        </g>
      </g>
      <g id="Group_4324" data-name="Group 4324" transform="translate(2.76 2.759)">
        <g id="Group_4323" data-name="Group 4323" transform="translate(0 0)">
          <path id="Path_2847" data-name="Path 2847" class="cls-3" d="M35.778,1.057a76.9,76.9,0,1,0,76.9,76.9,76.985,76.985,0,0,0-76.9-76.9m0,156.139a79.24,79.24,0,1,1,79.24-79.24,79.328,79.328,0,0,1-79.24,79.24" transform="translate(43.461 1.284)"/>
        </g>
      </g>
      <g id="Group_4326" data-name="Group 4326" transform="translate(0 0)">
        <g id="Group_4325" data-name="Group 4325" transform="translate(0 0)">
          <path id="Path_2848" data-name="Path 2848" class="cls-3" d="M37.024.688A80.477,80.477,0,1,0,117.5,81.163,80.567,80.567,0,0,0,37.024.688m0,162.477a82,82,0,1,1,82-82,82.093,82.093,0,0,1-82,82" transform="translate(44.975 0.836)"/>
        </g>
      </g>
    </g>
  </g>
</svg>
