<svg xmlns="http://www.w3.org/2000/svg" xmlns:xlink="http://www.w3.org/1999/xlink" width="163.951" height="163.951" viewBox="0 0 163.951 163.951">
  <defs>
    <style>
      .cls-1 {
        fill: none;
      }

      .cls-2 {
        clip-path: url(#clip-path);
      }

      .cls-3, .cls-4 {
        fill: #2b2e34;
      }

      .cls-4 {
        fill-rule: evenodd;
      }
    </style>
    <clipPath id="clip-path">
      <path id="Path_2916" data-name="Path 2916" class="cls-1" d="M0,74H163.951V-89.951H0Z" transform="translate(0 89.951)"/>
    </clipPath>
  </defs>
  <g id="Group_4462" data-name="Group 4462" transform="translate(0 89.951)">
    <g id="Group_4461" data-name="Group 4461" class="cls-2" transform="translate(0 -89.951)">
      <g id="Group_4330" data-name="Group 4330" transform="translate(138.065 147.244)">
        <g id="Group_4329" data-name="Group 4329" transform="translate(0 0)">
          <path id="Path_2850" data-name="Path 2850" class="cls-3" d="M2.27,2.141q.313,0,.591-.02a1.5,1.5,0,0,0,.5-.116A.779.779,0,0,0,3.7,1.713a1,1,0,0,0,.129-.55A.86.86,0,0,0,3.717.687a.778.778,0,0,0-.3-.272A1.312,1.312,0,0,0,3,.286,3.313,3.313,0,0,0,2.528.252H1.306V2.141ZM2.678-.5a2.432,2.432,0,0,1,1.57.421A1.562,1.562,0,0,1,4.757,1.2a1.443,1.443,0,0,1-.449,1.176,2.007,2.007,0,0,1-1.114.442l1.7,2.623H3.9L2.284,2.889H1.306V5.444H.381V-.5ZM-1.516,4.187a4.229,4.229,0,0,0,.883,1.38A4.093,4.093,0,0,0,.7,6.484a4.14,4.14,0,0,0,1.665.333A4.064,4.064,0,0,0,4.01,6.484a4.113,4.113,0,0,0,1.325-.917,4.24,4.24,0,0,0,.883-1.38,4.607,4.607,0,0,0,.319-1.733,4.481,4.481,0,0,0-.319-1.7A4.2,4.2,0,0,0,5.336-.612a4.176,4.176,0,0,0-1.325-.91,4.064,4.064,0,0,0-1.645-.333,4.147,4.147,0,0,0-3,1.243A4.188,4.188,0,0,0-1.516.755a4.481,4.481,0,0,0-.319,1.7,4.607,4.607,0,0,0,.319,1.733M-2.351.456a5.043,5.043,0,0,1,1.109-1.6A5.162,5.162,0,0,1,.387-2.215,5.1,5.1,0,0,1,2.365-2.6a5.047,5.047,0,0,1,1.971.387A5.06,5.06,0,0,1,7.054.456a4.894,4.894,0,0,1,.408,2,5,5,0,0,1-.408,2.031A5.143,5.143,0,0,1,5.953,6.1,4.936,4.936,0,0,1,4.336,7.17a5.125,5.125,0,0,1-1.971.381A5.176,5.176,0,0,1,.387,7.17,5,5,0,0,1-1.243,6.1,5.089,5.089,0,0,1-2.351,4.485a5.016,5.016,0,0,1-.408-2.031,4.907,4.907,0,0,1,.408-2" transform="translate(2.759 2.603)"/>
        </g>
      </g>
      <g id="Group_4332" data-name="Group 4332" transform="translate(0 -0.001)">
        <g id="Group_4331" data-name="Group 4331" transform="translate(0 0)">
          <path id="Path_2851" data-name="Path 2851" class="cls-3" d="M37,.473A80.95,80.95,0,0,0,5.5,155.97a80.858,80.858,0,0,0,88.725-17.344A80.9,80.9,0,0,0,37,.473m0,162.9A82,82,0,0,1,5.091,5.867,81.907,81.907,0,0,1,94.967,23.435,81.952,81.952,0,0,1,37,163.378" transform="translate(44.975 0.575)"/>
        </g>
      </g>
      <g id="Group_4334" data-name="Group 4334" transform="translate(2.495 2.493)">
        <g id="Group_4333" data-name="Group 4333" transform="translate(0 0)">
          <path id="Path_2852" data-name="Path 2852" class="cls-3" d="M35.874.956A77.384,77.384,0,0,0,5.762,149.6a77.3,77.3,0,0,0,84.818-16.58A77.34,77.34,0,0,0,35.874.956m0,156.846A79.5,79.5,0,0,1,4.936,5.084,79.418,79.418,0,0,1,92.078,22.117,79.459,79.459,0,0,1,35.874,157.8" transform="translate(43.606 1.163)"/>
        </g>
      </g>
      <g id="Group_4336" data-name="Group 4336" transform="translate(25.493 25.649)">
        <g id="Group_4335" data-name="Group 4335" transform="translate(0 0)">
          <path id="Path_2853" data-name="Path 2853" class="cls-3" d="M25.378.956A54.125,54.125,0,0,0,4.317,104.926a54.063,54.063,0,0,0,59.324-11.6A54.094,54.094,0,0,0,25.378.956m0,110.34A56.245,56.245,0,0,1,3.491,3.256a56.182,56.182,0,0,1,61.648,12.05A56.213,56.213,0,0,1,25.378,111.3" transform="translate(30.849 1.163)"/>
        </g>
      </g>
      <g id="Group_4338" data-name="Group 4338" transform="translate(39.26 69.343)">
        <g id="Group_4337" data-name="Group 4337" transform="translate(0 0)">
          <path id="Path_2854" data-name="Path 2854" class="cls-3" d="M.608,3.554.155,1.746-.222-.282l-.3-2.073L-.739-4.319l.33.892.266.938.2,1L.2-.462Z" transform="translate(0.739 4.319)"/>
        </g>
      </g>
      <g id="Group_4340" data-name="Group 4340" transform="translate(77.907 64.809)">
        <g id="Group_4339" data-name="Group 4339" transform="translate(0)">
          <path id="Path_2855" data-name="Path 2855" class="cls-3" d="M.567,0c.569,0,.683.443,1.025.537a2.622,2.622,0,0,1-2.281,0C-.347.443-.007,0,.567,0" transform="translate(0.689)"/>
        </g>
      </g>
      <g id="Group_4342" data-name="Group 4342" transform="translate(77.319 89.15)">
        <g id="Group_4341" data-name="Group 4341" transform="translate(0 0)">
          <path id="Path_2856" data-name="Path 2856" class="cls-4" d="M2.454,1.429c.751.406,1.626,1.222,1.6,1.723v4.9A4.63,4.63,0,0,1,2.454,7ZM.357,5.523A5.222,5.222,0,0,0,2.8,8.414c.668.39,4.021,2.265,3.954,3.508-.061,1.005-.872,1.109-1.991,1.975a5.987,5.987,0,0,0-.125-1.852C2.747,10.64-1.518,9.107-1.91,7.093-2.082,6.168-.633,5.785.357,5.523m1.88,6.2c1.69.02,1.842,2.263,1.842,2.891,0,.5-.2,2.219-.219,3.477,0,0,.015.251-.505.251a1.206,1.206,0,0,1-1.118-.97ZM4.826-1.737C6.775-.214,8.495,1.129,8.495,2.39c0,1.485-2.345,2.289-3.56,2.84,0,0-.005-2.074-.005-2.357,0-1.441-2.511-2.979-4.892-4.61H-1.49C-.372-.87.561.006.564,1.088v3.2c-1.54,1-3.774.641-3.528,2.968.276,2.638,4.311,2.211,4.351,5.947.02,1.941-1.331,1.1-2.9,2.21a3.862,3.862,0,0,0,2.94.893c.133,1.849.064,2.4,1.712,2.926.074.025,1.3.165,1.486-.566.231-.955-.165-2.114.325-3,1.318-2.395,2.863-2.293,2.863-3.878,0-2.341-2.9-1.812-2.9-4.334C4.907,4.788,9.47,5.9,9.47,2.624c0-2.209-1.057-2.5-3.235-4.362Z" transform="translate(2.982 1.737)"/>
        </g>
      </g>
      <g id="Group_4344" data-name="Group 4344" transform="translate(73.204 60.665)">
        <g id="Group_4343" data-name="Group 4343" transform="translate(0 0)">
          <path id="Path_2857" data-name="Path 2857" class="cls-4" d="M4.4.553h.884c.52-.017.72.417,1.138.854V2.738C5.692,2.546,5.071,2.346,4.4,2.11Zm-3.444,2c1.606,0,5.164.874,6.81,2.271A6.336,6.336,0,0,1,3.322,7.006,9.758,9.758,0,0,1,1.09,6.823l-.345.335C2.14,9.908,11.011,13.812,11.011,17.163c0,1.611-3.16,2.732-3.885,3.11a7.912,7.912,0,0,0-.259-3.285c-.652-2.412-11.211-6.8-11.211-10.2,0-3.021,3.36-4.23,5.3-4.23M6.266,7c.038.685-.022,1.7-.036,2.453,0,0-.195.155.325.155.387,0,1.769-1.62,4.056-1.9a20.364,20.364,0,0,1-3.43,3.715c-.412-.3-2.8-1.864-2.8-2.518,0-.5-.074-.567-.047-1.242A7.016,7.016,0,0,0,6.266,7M4.4,16.071A4.532,4.532,0,0,1,6,17.123v9c-.547-.314-1.627-1.451-1.6-2.081ZM.257,27.813c-1.67-1.3-3.752-2.589-3.752-4.5,0-2.267,3.784-3.424,4.975-4.573V15.526c0-2.8-6.829-4.852-6.829-8.781a6.45,6.45,0,0,1,.8-2.638C-3.2,2.218-1.185,2.682.058,1.5A1.545,1.545,0,0,0,.508.437C2.093-.6,2.359-.672,3.654-.672,4.428-.672,6.389-.608,6.99.8c.305.755.022,1.683.332,2.416s1.254.933,1.685,1.6C8.365,5.68,7.83,6.009,7.555,6.654A4.2,4.2,0,0,0,7.335,7.8a5.882,5.882,0,0,1,2.819-1.081c1.241,0,1.481.294,1.481,1.075,0,.932-3.646,4.232-3.693,4.2,2.946,2.433,3.878,2.989,4.043,4.65.387,3.989-5.329,3.864-5.331,5.78V26.6c.48.473.924.869,1.331,1.214H6.574a24.429,24.429,0,0,1-4.238-3.859c-.794-1.023-.837-2.675-.9-3.774-1.087.5-3.92,1.892-3.882,3.026.054,1.608,2.091,3.144,4.227,4.606Z" transform="translate(5.35 0.672)"/>
        </g>
      </g>
      <g id="Group_4346" data-name="Group 4346" transform="translate(79.166 54.762)">
        <g id="Group_4345" data-name="Group 4345" transform="translate(0)">
          <path id="Path_2858" data-name="Path 2858" class="cls-4" d="M1.526,0c1.887.9,2.914,3.475,3.1,5.9A6.138,6.138,0,0,0,.659,5.074a5.354,5.354,0,0,0-2.513.857A7.205,7.205,0,0,1,1.526,0M1.483,1.15V4.116a9.8,9.8,0,0,0-2.36.575l.027-.227A4.11,4.11,0,0,1,1.483,1.15" transform="translate(1.854)"/>
        </g>
      </g>
      <g id="Group_4348" data-name="Group 4348" transform="translate(77.076 120.029)">
        <g id="Group_4347" data-name="Group 4347" transform="translate(0 0)">
          <path id="Path_2859" data-name="Path 2859" class="cls-3" d="M.732,0C-.78,0-.889,3.03-.889,4.432S-.78,8.864.732,8.864s1.621-3.03,1.621-4.433S2.244,0,.732,0" transform="translate(0.889)"/>
        </g>
      </g>
      <g id="Group_4350" data-name="Group 4350" transform="translate(29.958 30.618)">
        <g id="Group_4349" data-name="Group 4349">
          <path id="Path_2860" data-name="Path 2860" class="cls-3" d="M44.306,24.807l-.012.729-.079.647-.375,1.468-.611,1.1-.865.886-1,.853-.924.788-.865.881-.611,1.1-.3,1.4-.079.069L38.45,34.7l-.14-.03-.111-.182L38.14,34.4l-.121-.2-.116-.189-.059-.09-.04-.254-.1-.35-.035-.254-.049-.249.042-.325.013-.153-.035-.257-.045-.251.476-1.7.7-1.321L39.82,27.63l1.015-1.01,1.1-1.079.84-1.3.65-1.423.143-1.843.3.47.273.626.135.609.064.659-.014.729Zm-2.838,10.2-.074.637.008.569-.274.516L41,37.272l-.33.43-.769.649-.89.474-.865.306-.867.312-.887.471-.81.407-.754.489-.64.681,0,.009-.073.063.069-.072-.051-.087-.057-.088.151-.712.17-.859.153-.71.221-.764.286-.675.345-.581.483-.561.52-.3.692-.014.7-.025L38.441,36l.574-.2.54-.464.463-.393.486-.55.4-.5.017-.156L41,33.676l.079-.067.073-.066-.054-.087.074-.063.082-.069.137.6.084.5Zm-1.432,5.83-.15.7-.359.745-.308.834-.5.713-.5.717-.419.641-.481.562-.384.325-.443.234-.389.324-.362.175-.428.079-.365.161-.365.172-.285.1-.612-.205-.673-.142-.621-.045-.621-.051-.557.051-.638.112-.52.3-.52.308L29.4,47.6l-.082.069-.059-.091-.051-.092-.064-.1-.057-.089.02-.164.2-.6.288-.685.269-.516.4-.482.46-.4.466-.4.461-.388.52-.3,1.064-.2,1.139-.245,1.064-.193,1.062-.187.948-.376,1.015-.44.85-.721.726-.907ZM29.328,4.209l-.022.162-.018.159-1.214-.257-1.126.1-1.138.254-1.217.313-1.118.1-1.183,0-1.128-.479-1.141-.894-.192-.122-.254-.215-.12-.189L19.2,2.919l-.116-.191-.2-.115-.113-.189L18.6,2.148l.017-.165,1.4-.039,1.355-.291,1.4-.2,1.41-.2,1.374.13,1.357.276,1.281.921L29.35,4.052l.052.1Zm-7.009,3.36-.113.07-.121.05-.247.038-.258.011-.259.019-.123-.01-.069-.014-.18-.066-.345-.2-.325-.257-.325-.279-.123-.177-.14-.141-.335-.218-.335-.2-.158-.119-.13-.138.076-.071.091-.042.2-.058.19-.041.177-.088.746-.033.384-.014.392.008.372.054.364.114.175.086.165.1.157.135.148.152.091.085.079.084.061.1.049.109.059.236.042.244.076.1.091.082.187.131.2.092.205.063.209.075.2.079.187.12.17.165-.16.108-.18.04-.193,0-.192-.029-.4-.094L22.974,8l-.168-.01-.146-.025-.145-.049-.126-.081L22.3,7.689l.066-.026.037-.057ZM33.5,10.147l-.483-.025-.465-.177-.424.075-.557.045-.428.078-.446.236-.362.165-.643.116-.554.045-.621-.045-.542-.111-.545-.116-.6-.205-.535-.113-.618-.049-.2-.123-.257-.212-.2-.124-.266-.048-.2-.129-.187-.121-.2-.13L24,8.9l.074-.066.079-.064.076-.063.754-.5.772-.651.751-.5.744-.5.813-.4L28.914,6l.909-.061.931.363.5.429.426.5.372.407.43.495.294.47.433.5.286.465.276.634ZM32.53,18.6l-.352-.57-.1-.336-.042-.257-.121-.193-.094-.343-.039-.254.014-.158-.039-.254-.039-.258.244-.927.392.813.414.662.54.68.623.626.488.591.47.749.236.949.025.987L35.122,22l-.108.954-.091.8-.029.891-.1.8.1.92.118.766.256.791-.717-.4L33.988,27l-.559-.532-.564-.521-.483-.592-.47-.751-.258-.791-.254-.79.148-.7.214-.611.2-.608.286-.679.209-.61.131-.536Zm3.646-1.532-.074.062-.022.162-.074.076.059.088-.665-.876-.818-.739-.68-.714-.895-.674-.892-.677-.9-.68-.966-.61-1.05-.539.079-.071.077-.066.443-.235.441-.232.428-.073.5-.144.488.02.544.117.461.174.448.337.643.46.486.593.486.6.409.659.276.619.258.792.276.629.195.695-.02.157ZM13.558-2.906,13.4-3.348,13.3-3.7l-.1-.347.039-.32,1.084.8,1.2.415,1.318.028,1.315.03,1.313.029,1.278.341,1.028.711.882,1.4-.5.137-.5.148-.584.205-.5.137-.444.234-.579.211-.562.045-.637.115L17.8.668,17.259.557,16.713.442l-.6-.2L15.667-.1,15.216-.44l-.441-.336-.372-.4-.236-.377-.212-.537-.1-.165-.181,0-.192-.026-.4-.094-.185-.039-.17-.011-.145-.023-.146-.05-.12-.082-.094-.141.069-.029.035-.054-.087-.035-.11.07-.119.048-.249.035-.258.014-.259.02-.123-.014-.071-.014-.177-.067-.343-.2L10.2-3.2l-.325-.277-.122-.177L9.608-3.8l-.332-.214-.34-.2-.153-.119-.136-.141.079-.069.091-.045.2-.057.193-.042.177-.088.745-.032.384-.018.392.014.372.054.368.11.169.088.168.1.158.137.146.153.1.079L12.461-4l.057.1.051.113.062.233.042.246.076.1.089.085L13.026-3l.2.091.207.067.168.061Zm-36.119,5.33-.113.189-.2.115-.116.191-.251.221-.121.189-.254.215-.193.122-1.141.894-1.128.479-1.183,0-1.118-.1-1.217-.313-1.138-.254-1.126-.1-1.214.257-.017-.159-.023-.162-.074-.061.052-.1,1.155-1.469,1.281-.921,1.358-.276,1.374-.13,1.409.2,1.4.2,1.355.291,1.4.039.017.165Zm-10.915,8.235-.643-.116-.362-.165-.446-.236-.429-.078-.557-.045-.424-.075-.466.177-.483.025-.273.054.276-.634L-37,9.1l.433-.5.293-.47.431-.495.372-.407.427-.5.5-.429.931-.363L-32.7,6l.853.15.813.4.744.5.752.5.77.651.754.5.076.063.079.064.074.066-.177.277-.2.13-.187.121-.2.129-.267.048-.2.124-.256.212-.2.123-.618.049-.535.113-.6.205-.544.116-.542.111-.621.045ZM-35.9,13.778l-.892.677-.894.674-.68.714-.819.739-.665.876.059-.088-.074-.076-.023-.162-.074-.062.062-.094-.02-.157.195-.695.276-.629.259-.792.276-.619.409-.659.485-.6.486-.593.643-.46.448-.337.461-.174.544-.117.488-.02.5.144.429.073.442.232.443.235.076.066.079.071-1.05.539L-35,13.1Zm-2.776,10.87-.03-.891-.091-.8L-38.905,22l-.032-.893.024-.987.237-.949.47-.749.488-.591.624-.626.539-.68.414-.662.392-.813.244.927-.039.258-.039.254.014.158-.039.254-.094.343-.12.193-.042.257-.1.336-.353.57-.061.671.13.536.21.61.285.679.2.608.214.611.148.7-.254.79-.258.791-.47.751-.483.592-.563.521-.56.532-.569.522-.717.4.256-.791.118-.766.1-.92ZM-26.149,7.663l.067.026-.091.144-.125.081-.146.049-.145.025-.168.01-.185.035-.4.094-.192.029-.193,0-.18-.04L-28.065,8l.171-.165.187-.12.2-.079.21-.075.2-.063.2-.092.187-.131.091-.082.076-.1.042-.244.059-.236.049-.109.062-.1.079-.084.091-.085.148-.152.157-.135.165-.1.175-.086.364-.114.372-.054.392-.008L-24,5.6l.747.033.177.088.189.041.2.058.091.042.077.071-.131.138-.158.119-.335.2-.335.218-.14.141-.123.177-.325.279-.325.257-.344.2-.18.066-.069.014-.123.01-.259-.019-.258-.011-.247-.038-.12-.05-.113-.07-.084.036ZM-16.07-2.748l.069.029-.094.141-.121.083-.145.047-.146.023-.17.012-.185.037-.4.094-.193.028-.181,0-.1.165-.212.537-.236.377-.372.4L-19-.44l-.45.344L-19.9.241l-.6.2-.544.114-.54.111L-22.14.624l-.638-.115L-23.34.464l-.579-.211-.443-.234-.5-.137-.583-.205-.5-.148-.5-.137.882-1.4,1.027-.711,1.279-.341,1.312-.029,1.315-.03,1.318-.029,1.2-.415,1.084-.8.039.322-.1.345-.1.352-.158.443-.046.122.167-.06.207-.069.2-.089.187-.128.088-.087.076-.1.042-.244.061-.234.052-.113.057-.1.079-.084.1-.079.145-.152.158-.136.168-.106.17-.088.367-.112.372-.052.391-.015.384.018.744.032.177.088.193.042.2.057.091.044.079.072-.135.138-.153.121-.34.2-.333.214-.143.143-.121.179-.325.279-.328.258-.342.2-.177.067-.072.014-.123.013-.258-.018-.259-.014-.248-.035-.119-.049-.111-.069L-16.1-2.8ZM-35.857,54.2l2.962-6.868-.035.055-.064.1-.052.092-.059.091-.081-.069-.134.035-.52-.308-.52-.3L-35,46.924l-.557-.051-.621.051-.621.045-.673.142-.611.205-.285-.1-.365-.172-.365-.161-.429-.079-.362-.175-.389-.324-.443-.234-.384-.325-.48-.562L-42,44.544l-.5-.717-.5-.713-.309-.834-.359-.745-.15-.7-.01-.731.726.907.85.721,1.016.44.948.376,1.062.187,1.064.193,1.139.245,1.064.2.52.3.461.388.466.4.461.4.4.482.268.516.288.685.2.6.019.151.606-1.406-.267-.45-1.8-2.4-1.84-2.722-1.644-2.847-1.47-3.129-1.276-3.247-1.022-3.462-.675-3.452-.269-3.545.135-3.046.562-2.974.924-2.809,1.237-2.547,1.52-2.432L-36.538,4.6-34.821,2.6-33.145.868l.1-.345.023-.417-.037-.316-.04-.324-.036-.322-.035-.319.02-.406-.037-.32.079-.511.082-.5.084-.51.1-.333.236-.381.237-.377.369-.409.308-.312.49-.591.353-.564.33-.72.273-.631.2-.692.123-.763.039-.83-.01-.727.071.063.158.134.074.062.082.069.153.128.074.071.1.217.156.14.288.677.222.766.094.8.014.739-.12.756-.123.759-.269.634-.2.695-.121.182-.175.285-.113.187-.177.279-.192.13-.2.11-.259.222-.267.059-.463.173-.313.313-.313.308-.315.31-.232.381-.158.437-.153.442-.1.351,2.6-1.518,2.446-1.661,2.37-1.718L-23.2-6.754l1.969-2.21,1.673-2.311,1.294-2.632.909-2.974.492,1.291.056.488.149-.133.17-.116.375-.2.172-.1.143-.109.131-.088.143-.06.135-.02.141.05-.042.074,0,.071.084-.032.061-.135.076-.126.19-.208.2-.19.207-.2.109-.076.061-.035.18-.076.372-.079.39-.014.389,0,.18.062.179.017.378-.054.367-.074.182-.012.175.022-.035.111-.059.1-.136.184-.14.173-.106.2-.6.551-.31.285-.328.268-.335.221-.353.167-.18.048-.187.032-.187,0-.195-.025-.109,0-.1-.014-.094-.042-.091-.052-.158-.152-.146-.174-.108-.027-.109-.005-.214.025L-16-15l-.2.091-.2.086-.2.076-.16.025.047.409-.066,1.234-.254,1.368-.359,1.13-.493,1.168-.564,1.1-.5,1,.828-.011.811-.167.5-.208,0-.2.022-.231.077-.47.034-.22.01-.2.015-.174.042-.169.069-.153.119-.106.027.079.045.042.032-.1-.061-.13-.042-.146-.032-.295-.01-.3-.017-.307.01-.151.01-.079.059-.213.162-.409.217-.387.237-.386.15-.144.12-.171.18-.394.17-.4.1-.186.116-.161.061.1.037.106.047.234.037.229.076.207.029.882.015.454-.008.466-.044.443-.094.433-.074.2-.089.2-.113.19-.128.172-.067.113-.071.091-.084.069-.091.066-.2.072-.2.047-.084.094-.066.1-.113.224-.076.242-.054.243-.062.247-.013.047.6-.323.773-.492.7-.554.643-.46.638-.461-.158.44-.177.284-.156.439-.175.283-.236.374-.156.44-.236.376-.293.473-1.106,1.209-1.241.668-1.439.214-1.446.062-1.51.15-1.569.246-1.448.619-1.325,1.185-2.274,1.364L-30.053.062-31.97,1.445l-1.749,1.668-1.658,1.894-1.5,2.028-1.4,2.255-1.294,2.633-.744,1.961L-40.706,16l-.31,2.188-.008,2.287.064,2.36.333,2.3.406,2.364.537,2.176,1.116,3.119,1.431,2.808,1.595,2.368,1.786,2.239,1.9,2.058.763.89.185-.428-.611-.611-.618-1.1-.286-1.251-.155-1.445-.094-1.361.184-1.426.048-1.4.18-1.429-.089-.22-.081-.072-.037-.313-.02-.165-.153-.128-.017-.162-.212-.034-.14.028-1.106,6.681-.2-.036-.081-.069-.077-.071-.076-.06-.136.029-.025-.165-.069-.06-.079-.066-.327-.421-.328-.429-.264-.51-.269-.523-.133-.541-.15-.706.007-.57-.076-.64.315-.878.177-.859.183-.856.1-.918.02-.985-.165-.865-.111-.958-.222-.769.71.177.6.372.478.549.421.643.369.744.217.77.306.834.153.707.074.067.079.068.14-.032.074.071.138-.033.079.061.532.468.537.46.466.393.48.554.367.737.347.588.222.764.091.8-.1.924-.242.946-.175.854-.18.853-.182.857.009.248,28.234-65.47L26.309,40.983l.015-.386-.182-.857-.18-.853-.174-.854-.242-.946-.1-.924.091-.8.222-.764.347-.588.367-.737.481-.554.465-.393.537-.46.532-.468.079-.061.138.033.074-.071.14.032L29,31.266l.073-.067.153-.707.305-.834.217-.77.37-.744.421-.643.478-.549.6-.372.71-.177-.222.769-.11.958-.165.865.02.985.1.918.183.856.177.859.316.878-.076.64.008.57-.151.706-.133.541L32,36.469l-.264.51-.327.429-.328.421L31,37.894l-.069.06-.025.165-.135-.029-.076.06-.076.071-.082.069-.2.036-1.106-6.681-.14-.028-.212.034-.017.162-.153.128-.02.165-.036.313-.082.072-.089.22.18,1.429.046,1.4.186,1.426L28.8,38.327l-.156,1.445-.286,1.251-.618,1.1-.658.658.186.433.809-.943,1.9-2.058,1.787-2.239L33.353,35.6,34.785,32.8,35.9,29.677l.537-2.176.407-2.364.332-2.3.064-2.36-.007-2.287L36.923,16l-.382-2.116L35.8,11.923,34.5,9.29,33.1,7.036,31.594,5.007,29.936,3.113l-1.75-1.668L26.27.062,24.208-1.349,21.934-2.714,20.609-3.9,19.16-4.517l-1.569-.246-1.51-.15-1.446-.062L13.2-5.189l-1.241-.668L10.848-7.067l-.294-.473-.236-.376-.155-.44-.237-.374-.175-.283L9.6-9.452l-.177-.282-.158-.441.638.461.643.46.7.555.773.493.6.321L12.6-7.93l-.061-.246-.054-.245-.077-.242-.113-.224-.066-.1-.084-.094-.205-.047-.2-.073-.091-.066-.084-.067-.072-.091-.066-.113L11.3-9.714l-.113-.19-.088-.2-.074-.2-.094-.432-.045-.446-.008-.464.015-.455.029-.88L11-13.189l.037-.23.047-.233.037-.106.062-.1.116.16.1.185.171.4.18.394.121.171.15.145.237.384.217.389.162.408.059.213.01.079.01.151-.017.307-.01.3-.032.295-.042.146-.062.129.032.1.045-.044.026-.079.119.106.069.153.042.169.014.174.011.2.034.22.076.471.023.232,0,.2.5.208.81.167.828.011-.5-1-.563-1.1-.493-1.167-.359-1.13L13-13.08l-.066-1.235.047-.41-.16-.024-.2-.076-.2-.086-.2-.092-.207-.069-.214-.025-.109.006-.108.027-.145.174-.158.152-.091.052-.094.042-.1.015-.109,0-.194.023-.187,0-.187-.032-.18-.048-.352-.167-.335-.221-.328-.268-.31-.285-.6-.551-.106-.2-.14-.172-.135-.187-.06-.1-.034-.112.174-.023.182.014.368.073.377.054.18-.016.18-.063.389,0,.39.015.372.077.18.077.062.035.108.075.207.2.2.19.19.207.076.127.062.135.084.031,0-.07-.042-.073.14-.051.136.02.143.06.13.088.143.108.172.1.375.205.17.115.149.132.056-.487.492-1.291.91,2.974,1.293,2.629,1.673,2.312,1.968,2.21,2.065,1.977,2.37,1.718L26.3-1.4,28.9.119l-.1-.351-.153-.442-.158-.437-.232-.381-.315-.31-.313-.308-.313-.313L26.849-2.6l-.267-.057-.258-.222-.2-.113-.193-.128L25.758-3.4l-.114-.185-.175-.286-.12-.183-.2-.7-.268-.631-.123-.758-.121-.757.014-.739.094-.8.222-.766.288-.677.155-.14.1-.216.074-.072.153-.128.081-.071.074-.06.158-.134.072-.063-.01.726.039.831.123.763.2.692.274.631.33.718.352.565.491.591.307.312.369.409.237.375.236.383.1.335.084.51.082.5.079.511-.037.32.02.406-.035.319-.037.322-.04.324-.036.316.022.417.1.345L31.037,2.6,32.754,4.6l1.618,2.219,1.521,2.432L37.13,11.8l.924,2.809.562,2.974.135,3.046-.269,3.545-.675,3.452-1.022,3.462-1.276,3.247L34.038,37.46,32.4,40.307,30.554,43.03l-1.8,2.4-.31.522L31.986,54.2ZM9.365,67.539a6.877,6.877,0,0,1-3.27,1.716.265.265,0,0,1-.082-.344,6.467,6.467,0,0,0,2.034-1.044c1.264-1.015,2.116-2.552,2.116-5.373,0-1.358-.357-3.238-1.69-3.238-.88,0-1.539.731-1.539,2.059,0,1.164.536,2.507,1.58,2.507a1.9,1.9,0,0,0,.6-.06.145.145,0,0,1,.042.179,1.8,1.8,0,0,1-1.237.433,2.265,2.265,0,0,1-2.089-2.522,2.864,2.864,0,0,1,2.817-3.044c1.717,0,2.734,1.611,2.734,3.805a7.006,7.006,0,0,1-2.02,4.925M1.754,68.569c-2.006,0-2.845-2.536-2.845-4.88,0-2.253.838-4.88,2.845-4.88S4.6,61.436,4.6,63.689c0,2.343-.838,4.88-2.844,4.88m-6.87,0c-2.006,0-2.845-2.536-2.845-4.88,0-2.253.838-4.88,2.845-4.88s2.844,2.626,2.844,4.88c0,2.343-.838,4.88-2.844,4.88M-9.678,68.4c-.563-.029-1.14-.045-1.772-.045h-1.993c-.769,0-1.223.015-1.525.045a.218.218,0,0,1-.1-.194c0-.045.069-.1.151-.164a11.762,11.762,0,0,0,2.1-2.149,6.767,6.767,0,0,0,1.965-4.1c0-1.358-.6-2.179-1.717-2.179a2.043,2.043,0,0,0-1.787,1.492.22.22,0,0,1-.329-.194,2.913,2.913,0,0,1,2.761-2.1,2.23,2.23,0,0,1,2.267,2.432,5.345,5.345,0,0,1-1.47,3.283l-.838,1.044c-1.127,1.4-1.25,1.642-1.25,1.732s.069.134.426.134h1.7a1.822,1.822,0,0,0,1.291-.328,1.988,1.988,0,0,0,.44-.612.262.262,0,0,1,.3.09A7.023,7.023,0,0,1-9.678,68.4M-44.786,37.272l-.125-.544-.273-.516.007-.569-.074-.637,0-.579.083-.5.138-.6.081.069.074.063-.054.087.073.066.079.067.076.068.017.156.4.5.486.55.464.393.539.464.574.2.638.113.7.025.692.014.52.3.483.561.345.581.286.675.221.764.153.71.171.859.15.712-.057.088-.052.087.069.072-.073-.063,0-.009-.64-.681-.754-.489-.81-.407-.887-.471-.868-.312-.865-.306-.889-.474-.769-.649Zm-2.227-8.523-.611-1.1L-48,26.183l-.079-.647-.013-.729-.015-.735-.014-.729.064-.659.135-.609.273-.626.3-.47.143,1.843.65,1.423.84,1.3,1.1,1.079,1.015,1.01,1.042,1.176.7,1.321.476,1.7-.044.251-.035.257.012.153.042.325-.05.249-.034.254-.1.35-.039.254-.059.09-.116.189-.12.2-.06.094-.111.182-.14.03-.137.024-.079-.069-.3-1.4-.611-1.1-.865-.881-.924-.788-1-.853Zm-.5-15.824.184-.854.195-.7.332-.721.412-.655.539-.684-.022.983.247.931.381.9.436.81.446.806.5.711.381.9.38.895-.313,3.9-.359-.73-.483-.557-.614-.53-.6-.363-.544-.455-.473-.563-.424-.644-.306-.831-.243-.936-.091-.794Zm3.554-5.888.1-.92.18-.857.19-.853.248-.787.335-.726.331-.719.412-.656L-40.829,7.7l-.121.757-.061.669-.141.6-.135.6-.276.628-.14.6-.293.471-.217.534-.126-.545-.138-.541-.266-.518-.212-.611-.209-.609-.266-.52-.288-.671-.261-.52Zm3.841-1.613.108-2.071.458-2.055.766-1.785.85-1.728.991-1.6,1.069-1.528,1.022-1.439.994-1.6.017.16.074.069.023.157.074.066-.06.091.079.057-.04.266-.044.254-.042.253-.035.249-.044.254.039.325.02.157.037.319L-33.838-3.9l-.377,1.555-.816,1.312L-36.01.156l-1.1,1.21L-38.22,2.578l-.9,1.247-.724,1.543-.062.092-.057.092-.079-.06-.054.088-.082-.065ZM-32.8-9.759l.042-.214.14-.42.187-.393.222-.388.239-.369.468-.715.165-.125.146-.165.155-.168.091-.063.094-.042.015.208-.008.212-.063.44-.047.439.015.215.054.214v.465l-.014.46-.064.44-.062.21-.032.078-.064.123-.17.246-.16.247-.175.224-.1.092-.119.068-.024.1.059-.008.059-.048.048.164-.023.171-.047.165-.072.153-.094.171-.081.2-.172.443-.1.2-.116.188-.137.149-.168.1-.015-.256.029-.25.062-.236.072-.242.079-.238.059-.248.02-.253,0-.128-.022-.134-.148-.168-.128-.186-.047-.109-.032-.109-.014-.122,0-.134-.02-.227,0-.221Zm4.843-2.737.064-.458.084-.209.045-.21.012-.446,0-.436.02-.217.05-.2.086.05.079.074.128.179.123.179.145.141.365.754.187.392.168.411.131.409.082.429.01.217,0,.219-.035.227-.052.221-.014.133-.032.119-.048.1-.064.107-.155.172-.168.148-.042.128-.02.131-.017.249.025.254.039.246.039.246.032.239-.01.251-.047.253-.155-.123-.111-.165-.091-.195-.069-.212-.111-.453-.057-.212-.064-.176-.049-.164-.027-.17.005-.167.066-.161.054.057.057.012-.01-.1-.106-.079-.091-.1-.143-.242-.123-.261-.133-.257-.047-.137-.02-.074L-28-11.594-28-12.038Zm3.274,1.355-.118-.165-.089-.2-.066-.212-.111-.454-.054-.211-.067-.177-.051-.165-.027-.168.008-.167.064-.156.057.052.059.014-.012-.106-.1-.079-.094-.106-.146-.239-.123-.261-.133-.257-.047-.135-.02-.079-.032-.214,0-.444.049-.458.069-.46.082-.207.045-.212.017-.443,0-.442.02-.217.046-.2.091.048.076.074.131.179.121.177.15.143.36.758.19.387.17.411.131.412.076.428.012.217-.005.222-.032.224-.049.221-.02.133-.032.119-.046.106-.064.1-.153.169-.168.153-.042.126-.022.131-.017.252.022.251.045.243.039.251.032.239-.01.251-.032.162.1-.136.739-.808.727-.958.094-.355.1-.344-.038-.322-.029-.316-.044-.323-.032-.314-.1-.227-.094-.231,1.3,2.263.049.48-.072.51-.029.412-.079.507-.157.443-.156.437-.157.445-.158.439-.39.814-.527.846-.473.754-.619.62-.628.616-.638.461-.7.554-.72.4-.014-.162-.017-.155-.082-.069.2-1.266L-26.87-7.3l.43-1.064.591-.939.72-.968.571-.771Zm4.952-7.995.059-.55.076-.551.1-.251.054-.254.015-.532,0-.528.024-.258.054-.241.109.056.091.089.159.217.143.214.177.17.436.909.224.47.2.492.155.493.1.512.012.264-.005.263-.036.267-.064.267-.02.159-.038.146-.056.125-.077.125-.184.2-.2.182-.051.155-.025.153-.02.305.027.305.049.291.051.3.035.288-.01.3-.059.306-.185-.145-.137-.2-.106-.238-.081-.256-.131-.547-.066-.251L-19-16.123l-.06-.195-.032-.2.005-.2.081-.195.067.067.069.017-.015-.124-.125-.1-.111-.123-.172-.291-.146-.313-.162-.311-.057-.16-.025-.094-.039-.261Zm3.279,2.486.057-.222.145-.453.062-.212.039-.2.042-.167.066-.162.089-.131.131-.083.017.081.036.057.045-.1-.042-.142-.017-.151.01-.3.034-.3.03-.31.029-.143.024-.079.087-.2.224-.369.267-.339.285-.333.171-.113.14-.143.237-.353.224-.363.123-.162.14-.134.044.106.02.116.013.241,0,.232.042.221-.1.883-.052.456-.076.458-.112.428-.155.409-.1.19-.116.177-.138.162-.153.146-.082.1-.084.076-.091.054-.1.039-.207.035-.207,0-.094.074-.084.092-.143.2-.109.227-.091.227-.094.236-.1.217-.133.2-.168.173-.054-.208-.008-.219Zm2.91-2.572.13-.165.158-.134.168-.115.372-.207.172-.1.145-.109.131-.086.137-.063.143-.021.137.054-.042.072-.005.071.087-.029.056-.14.079-.126.187-.208.209-.187.2-.2.106-.076.066-.037.18-.074.369-.079.387-.017.392,0,.182.063.183.018.369-.057.37-.072.182-.012.172.023-.032.112-.057.1-.138.183-.14.173-.106.194-.6.557-.313.285-.328.264-.333.222-.352.166-.183.048-.184.034-.19,0-.19-.023h-.113l-.1-.017-.091-.037-.1-.054-.156-.153-.14-.17-.113-.032-.106,0-.214.026-.21.067-.2.089-.207.09-.2.076-.212.031-.217-.015ZM4.5-21.261l.182.012.369.072.37.057.182-.017.183-.064h.391l.387.018.369.079.18.075.066.036.106.076.2.2.209.189.187.207.079.126.057.14.086.028-.005-.07-.042-.072.138-.053.143.02.138.062.131.086.145.109.173.1.372.207.168.115.158.134.131.165.088.2-.217.015-.211-.032-.2-.076L9.01-19.2l-.2-.089L8.6-19.36l-.214-.026-.106,0-.113.032-.14.171-.156.151-.1.056-.091.035-.1.018H7.468l-.19.022-.19,0L6.9-18.93l-.183-.048-.352-.167-.333-.22-.327-.265L5.4-19.915l-.6-.557-.106-.194-.14-.172-.137-.184-.057-.1-.032-.113Zm5.392-.214,0-.233L9.9-21.95l.02-.115.044-.106.141.134.123.162.224.363.237.353.14.141L11-20.9l.285.333.267.34.224.368.086.2.024.079.029.143.03.31.034.3.01.3-.017.151-.042.142.045.1.037-.056.017-.081.131.084.088.131.066.162.042.167.039.2.061.21.146.454.057.224.032.227-.008.218L12.634-16l-.168-.173-.133-.2-.1-.219-.094-.236-.091-.227-.109-.227-.143-.2-.084-.092-.094-.074-.207,0L11.2-17.68l-.1-.039-.091-.055-.084-.076-.081-.1-.153-.145-.137-.162-.116-.177-.1-.189-.155-.41-.111-.429L10-19.917l-.052-.457-.1-.882Zm3.871,2.8.1-.513.156-.494.2-.493.224-.469.436-.909.177-.17.143-.214.16-.217.091-.091.109-.055.054.241.024.258,0,.527.015.534.054.253.1.25.076.552.06.551v.531l-.04.261-.024.093-.057.16-.162.312-.145.313-.173.29-.111.125-.125.1-.014.125.069-.018.066-.066.082.193,0,.2-.032.2-.06.195-.081.213-.067.253-.13.547-.082.254-.106.239-.138.2-.185.146-.059-.305-.01-.3.035-.288.051-.3.05-.291.026-.306-.02-.305-.025-.151-.051-.156-.2-.183-.185-.2-.076-.126-.057-.125-.037-.146-.02-.159-.064-.267-.037-.267-.005-.264ZM18-13.182l1.3-2.263-.094.232-.1.227-.032.314-.044.322-.029.315-.037.325.1.344.094.355.727.958.739.808.1.136-.032-.162-.01-.25.032-.239.04-.251.044-.244.022-.251-.017-.253-.023-.13-.042-.126-.168-.151-.153-.172-.064-.1-.047-.1-.032-.119-.02-.133-.05-.222-.032-.224-.005-.221.013-.217.076-.427.131-.412.169-.41.19-.388.359-.757.15-.143.121-.179.131-.179.076-.074.091-.048.047.2.02.215,0,.44.018.445.044.212.082.207.069.46.049.458,0,.443-.032.215-.02.079-.048.135-.133.257-.123.26-.145.24-.094.1-.1.079-.013.106.059-.014.057-.052.064.156.007.168-.026.168-.052.164-.066.179-.054.21-.111.454L21.1-11.5l-.088.2-.119.165-.12.1.571.77.72.97.591.938L23.087-7.3,23.363-6.1l.2,1.268-.082.067-.017.156-.014.163-.72-.4-.7-.555L21.4-5.858l-.628-.616-.618-.62-.473-.754-.528-.846-.389-.815L18.6-9.947l-.158-.446-.156-.436-.157-.443-.079-.506-.029-.412-.071-.511Zm4.4,1.526.082-.429.131-.41.168-.411.187-.392.365-.753.145-.143.124-.179.128-.18.079-.072.085-.051.05.2.02.216,0,.438.012.444.045.211.084.209.064.458.052.458-.005.444-.032.218-.02.074-.046.137-.133.257-.124.261-.143.241-.091.1-.106.081-.01.1.057-.014.054-.054.066.159.005.167-.028.17-.049.164-.064.177-.056.21-.112.454-.069.211-.091.2-.112.164-.155.125-.047-.254-.01-.251.032-.24.039-.247.039-.245.025-.254L23.02-9.73,23-9.86l-.042-.128-.168-.15-.155-.173-.064-.106-.047-.1-.032-.119-.014-.132-.051-.222-.035-.227,0-.22Zm4.664-1.166.094.042.091.064.156.166.145.166.165.125.468.715.239.369.222.387.187.394.14.421.042.213.027.222,0,.221-.02.227,0,.134-.014.122-.032.108-.047.11L28.8-8.43l-.148.169-.023.131,0,.128.02.253L28.7-7.5l.079.237.072.242.062.236.029.251-.015.255-.168-.1-.137-.15-.116-.187-.1-.2-.172-.443-.082-.2-.094-.171-.072-.153-.047-.165-.022-.17.047-.163.059.047.059.008-.024-.1-.119-.068-.1-.094-.174-.222L27.5-9.07l-.169-.245-.064-.125-.032-.077-.061-.21-.064-.44-.015-.458v-.467l.054-.214.015-.216-.048-.439-.063-.439-.008-.214Zm2.828,4.895.074-.066.022-.159.074-.067.017-.161.993,1.6,1.022,1.441,1.069,1.526.99,1.6L35-.489,35.77,1.3l.458,2.055.109,2.071.059.093-.082.065-.054-.088-.079.06-.057-.092-.062-.092-.724-1.543-.9-1.247L33.331,1.366l-1.1-1.21-.98-1.184-.816-1.312L30.054-3.9,29.981-5.7l.036-.317.02-.156.039-.327-.044-.252L30-7.005l-.042-.253-.045-.254-.039-.265.079-.058Zm8.49,9.445.411.656.331.719.335.726.249.787.19.853.18.857.1.92.02.984-.261.52-.288.671-.266.52-.21.609-.212.611-.266.518-.138.541-.125.545-.217-.534-.294-.471-.14-.6L37.5,10.32l-.135-.6-.14-.6-.062-.669-.12-.757Zm2.646,11.418.436-.81.382-.9.246-.931-.022-.983.539.684.412.655.333.721.194.7.185.854.042.826-.091.794-.244.936-.306.831-.424.644-.473.563-.544.455-.6.363-.613.53L40,19.425l-.359.73-.313-3.9.38-.895.382-.9.495-.711ZM-2.081-30.154A51.775,51.775,0,0,0-53.857,21.622,51.774,51.774,0,0,0-2.081,73.395,51.773,51.773,0,0,0,49.692,21.622,51.774,51.774,0,0,0-2.081-30.154" transform="translate(53.857 30.154)"/>
        </g>
      </g>
      <g id="Group_4352" data-name="Group 4352" transform="translate(83.946 120.029)">
        <g id="Group_4351" data-name="Group 4351" transform="translate(0 0)">
          <path id="Path_2861" data-name="Path 2861" class="cls-3" d="M.732,0C-.78,0-.889,3.03-.889,4.432S-.78,8.864.732,8.864s1.621-3.03,1.621-4.433S2.244,0,.732,0" transform="translate(0.889)"/>
        </g>
      </g>
      <g id="Group_4354" data-name="Group 4354" transform="translate(13.038 77.757)">
        <g id="Group_4353" data-name="Group 4353" transform="translate(0 0)">
          <path id="Path_2862" data-name="Path 2862" class="cls-4" d="M0,1.185C.9-.364,3.77-1.478,5.118-1.439a8.761,8.761,0,0,0-.11,5.549A7.117,7.117,0,0,1,0,1.185m.761.021,3.345.088a6.207,6.207,0,0,0,.28,2.182L4.17,3.444C2.863,3.247,1.124,2.176.761,1.206" transform="translate(0 1.44)"/>
        </g>
      </g>
      <g id="Group_4356" data-name="Group 4356" transform="translate(144.677 76.67)">
        <g id="Group_4355" data-name="Group 4355" transform="translate(0 0)">
          <path id="Path_2863" data-name="Path 2863" class="cls-4" d="M2.37,1.057c-.982-1.506-3.9-2.441-5.251-2.334A8.775,8.775,0,0,1-2.488,4.26a7.193,7.193,0,0,0,4.858-3.2m-.763.089-3.277.273A6.51,6.51,0,0,1-1.88,3.565l.217-.042c1.108-.193,2.956-1.392,3.269-2.377" transform="translate(2.881 1.285)"/>
        </g>
      </g>
      <g id="Group_4358" data-name="Group 4358" transform="translate(12.643 63.422)">
        <g id="Group_4357" data-name="Group 4357" transform="translate(0)">
          <path id="Path_2864" data-name="Path 2864" class="cls-4" d="M3.253,4.609-3.7,2.125c-.182-.07-.266-.152-.249-.241a.158.158,0,0,1,.087-.116,1.232,1.232,0,0,1,.31-.116L3.23-.143l-5.7-4.211q-.244-.156-.216-.3c.018-.1.143-.141.378-.129l6.989.32A3.1,3.1,0,0,0,5.5-4.491a.55.55,0,0,0,.4-.291,2.228,2.228,0,0,0,.245-.66c.014-.109.049-.162.111-.161a.109.109,0,0,1,.074.1.582.582,0,0,1-.01.207c-.021.1-.064.305-.126.6s-.131.6-.2.91-.129.548-.171.708a1.23,1.23,0,0,1-.092.247.09.09,0,0,1-.091.049c-.05-.014-.084-.061-.1-.146s-.156-.124-.464-.146L.111-3.349.1-3.307,4.628.059c.229.171.378.291.45.359s.1.125.084.168-.071.092-.18.135S4.721.81,4.54.865l-.618.181-.837.242c-.3.085-.56.16-.8.226s-.4.109-.492.13-.294.069-.6.148L.17,2.051l-1.034.261-.01.045,4.266,1.42a4.425,4.425,0,0,0,.51.135.321.321,0,0,0,.254-.049.5.5,0,0,0,.159-.212A2.119,2.119,0,0,0,4.462,3.2c.017-.1.054-.149.108-.152.091.023.113.119.069.289-.045.236-.1.461-.145.673s-.091.368-.111.475-.046.279-.078.492-.066.415-.1.6c-.015.123-.07.18-.159.174-.053-.013-.068-.076-.044-.19.008-.042.017-.088.022-.137a1.7,1.7,0,0,0,.01-.2.482.482,0,0,0-.257-.381,2.389,2.389,0,0,0-.525-.236" transform="translate(3.954 5.602)"/>
        </g>
      </g>
      <g id="Group_4360" data-name="Group 4360" transform="translate(15.653 56.218)">
        <g id="Group_4359" data-name="Group 4359" transform="translate(0 0)">
          <path id="Path_2865" data-name="Path 2865" class="cls-4" d="M2.354,1.754.491,1.112-.731.692-1.382.474C-1.528.428-1.656.39-1.763.36c-.356-.1-.6-.055-.715.156a1.552,1.552,0,0,0-.174.365c-.032.113-.086.157-.164.134-.062-.021-.062-.115,0-.282.076-.214.162-.454.266-.72s.182-.481.239-.646c.049-.146.112-.345.19-.6s.152-.489.224-.7c.043-.144.1-.208.162-.193.075.031.09.1.046.207a1.758,1.758,0,0,0-.076.328.422.422,0,0,0,.079.358.979.979,0,0,0,.39.24c.1.045.225.093.368.146l.647.228c.285.1.692.24,1.22.421L2.807.44q.775.268,1.374.468c.4.133.72.229.96.288a.769.769,0,0,0,.387.017A.447.447,0,0,0,5.8.952C5.84.879,5.882.793,5.925.7S6,.508,6.033.428c.04-.113.088-.162.143-.142s.082.113.035.237c-.123.358-.242.683-.351.977s-.194.515-.248.665c-.047.135-.111.338-.19.6s-.163.513-.237.739c-.048.141-.106.2-.18.177-.057-.012-.066-.078-.026-.2a1.883,1.883,0,0,0,.088-.4.316.316,0,0,0-.088-.279A1.168,1.168,0,0,0,4.644,2.6q-.327-.155-.921-.369c-.393-.143-.852-.3-1.368-.479" transform="translate(2.862 2.132)"/>
        </g>
      </g>
      <g id="Group_4362" data-name="Group 4362" transform="translate(17.994 45.997)">
        <g id="Group_4361" data-name="Group 4361" transform="translate(0 0)">
          <path id="Path_2866" data-name="Path 2866" class="cls-4" d="M1.739,2.653l1.245.661q.8.422,1.325.7c.352.182.578.3.682.347.134.067.282.133.443.2a.892.892,0,0,0,.368.094.907.907,0,0,0,.48-.261,3.028,3.028,0,0,0,.6-.825,4.916,4.916,0,0,0,.522-1.378A3.017,3.017,0,0,0,7.382.909,2.5,2.5,0,0,0,6.677-.3,5.484,5.484,0,0,0,5.361-1.23a4.275,4.275,0,0,0-1.72-.513A3.339,3.339,0,0,0,2.385-1.6,3.838,3.838,0,0,0,.792-.575,5.555,5.555,0,0,0-.1.688C-.153.8-.211.922-.271,1.065a1.214,1.214,0,0,0-.1.3.205.205,0,0,0,.134.223c.177.1.452.25.819.447s.751.4,1.155.615M2.979,4.9,1.241,3.973.1,3.367c-.269-.142-.47-.248-.607-.317s-.257-.126-.358-.172a.841.841,0,0,0-.434-.1A.558.558,0,0,0-1.658,3a1.168,1.168,0,0,0-.113.159c-.043.069-.084.14-.122.211-.054.113-.113.153-.177.122s-.059-.122.026-.264c.143-.271.293-.538.443-.8s.263-.465.344-.612.193-.382.333-.661S-.639.587-.478.282c.217-.422.467-.86.753-1.315a6.269,6.269,0,0,1,1.035-1.24,3.639,3.639,0,0,1,1.448-.809,3.82,3.82,0,0,1,1.361-.131,4.331,4.331,0,0,1,1.659.506,4.656,4.656,0,0,1,1.462,1.2A4.213,4.213,0,0,1,7.966-.163a3.653,3.653,0,0,1,.159.925,4.884,4.884,0,0,1-.118,1.33,6.685,6.685,0,0,1-.636,1.679q-.3.555-.666,1.106c-.239.368-.43.682-.574.936-.065.127-.159.319-.283.57s-.236.48-.35.691c-.067.132-.134.18-.2.146-.054-.021-.051-.088.005-.2a1.758,1.758,0,0,0,.149-.376.309.309,0,0,0-.069-.3,1.629,1.629,0,0,0-.321-.277c-.2-.137-.481-.306-.843-.505S3.44,5.141,2.979,4.9" transform="translate(2.114 3.224)"/>
        </g>
      </g>
      <g id="Group_4364" data-name="Group 4364" transform="translate(23.791 32.087)">
        <g id="Group_4363" data-name="Group 4363" transform="translate(0 0)">
          <path id="Path_2867" data-name="Path 2867" class="cls-4" d="M3.828,5.568l-7.021-2.63a1.641,1.641,0,0,0-.882-.177.685.685,0,0,0-.205.13,1.358,1.358,0,0,0-.153.154c-.064.1-.128.122-.192.075s-.029-.132.076-.254c.193-.234.37-.446.535-.634s.27-.309.31-.354l.249-.335q.195-.267.507-.653c.1-.121.175-.161.227-.12.053.058.035.132-.049.222a.561.561,0,0,0-.141.245.222.222,0,0,0,.112.251,2.027,2.027,0,0,0,.343.183l.608.27q.281.126.927.394c.428.179.9.371,1.405.578l1.391.562c.421.168.715.286.882.35l.02-.025L-.394-1.567a1.542,1.542,0,0,1-.153-.32.158.158,0,0,1,.014-.153.192.192,0,0,1,.2-.039c.094.02.233.06.417.119L5.933-.218l.021-.026c-.118-.166-.3-.426-.547-.78s-.517-.753-.815-1.189S4-3.079,3.718-3.5L2.994-4.559a2.407,2.407,0,0,0-.435-.5.273.273,0,0,0-.248-.066.688.688,0,0,0-.35.273c-.077.093-.143.119-.2.083s-.029-.134.082-.263q.289-.351.5-.586t.262-.3c.032-.039.1-.135.212-.286s.226-.3.347-.458c.079-.1.143-.134.2-.1s.053.113-.014.192a1.3,1.3,0,0,0-.2.341.691.691,0,0,0,.1.5c.106.2.247.445.429.734.2.332.458.753.779,1.26S5.115-2.675,5.482-2.1,6.206-.967,6.548-.433s.638.991.883,1.371a2.293,2.293,0,0,1,.224.378.186.186,0,0,1-.02.206c-.029.043-.091.057-.187.045a3.923,3.923,0,0,1-.458-.122L1.165-.274l-.012.016.378.646q.275.473.65,1.118T2.938,2.82c.257.452.489.865.7,1.241s.365.671.47.882.184.379.219.474a.2.2,0,0,1-.011.212c-.056.08-.219.06-.483-.06" transform="translate(4.653 6.769)"/>
        </g>
      </g>
      <g id="Group_4366" data-name="Group 4366" transform="translate(33.698 26.782)">
        <g id="Group_4365" data-name="Group 4365" transform="translate(0 0)">
          <path id="Path_2868" data-name="Path 2868" class="cls-4" d="M1.935,3.052.615,1.589C.243,1.173-.047.854-.251.628S-.608.235-.714.123s-.2-.208-.276-.284a.841.841,0,0,0-.372-.248.562.562,0,0,0-.415.1A1.886,1.886,0,0,0-1.937-.2c-.063.051-.125.1-.183.158-.091.088-.16.1-.209.053s-.013-.133.113-.24c.232-.2.461-.4.69-.6s.406-.345.532-.457c.075-.066.213-.193.414-.375s.425-.381.665-.6S.54-2.673.73-2.846l.35-.322a4.253,4.253,0,0,0,.311-.372.969.969,0,0,1,.1-.153c.042-.029.081-.02.119.03a1.9,1.9,0,0,1,.109.171c.053.087.156.23.31.43l.131.167c.061.078.123.155.187.237s.107.14.134.182a.123.123,0,0,1,0,.168c-.054.045-.117.029-.181-.049a1.178,1.178,0,0,0-.128-.127,1,1,0,0,0-.191-.129.46.46,0,0,0-.313-.057,1.38,1.38,0,0,0-.515.26c-.06.043-.175.138-.346.282s-.341.291-.51.44-.289.25-.353.307c-.043.035-.038.08.015.136L1.86.86C1.908.925,1.954.939,2,.9c.07-.065.2-.179.381-.347s.37-.337.555-.507.309-.291.378-.362A.8.8,0,0,0,3.6-.8c-.011-.116,0-.193.035-.227s.073-.031.116.015c.018.02.059.084.123.184s.186.263.358.482c.076.1.165.214.266.341s.17.207.205.248A.535.535,0,0,1,4.79.354a.086.086,0,0,1-.016.113C4.716.51,4.669.508,4.631.459a2.914,2.914,0,0,0-.3-.27A.492.492,0,0,0,4.005.1.9.9,0,0,0,3.57.283C3.5.332,3.388.429,3.226.569S2.9.855,2.73,1s-.289.252-.364.321c-.035.035-.027.079.026.127l.592.658.363.407c.152.171.3.342.453.507s.262.291.344.375a1.413,1.413,0,0,0,.471.368.562.562,0,0,0,.475-.051,3.517,3.517,0,0,0,.68-.516c.118-.1.245-.224.379-.365a1.69,1.69,0,0,0,.316-.44.744.744,0,0,0,.049-.44,1.56,1.56,0,0,0-.23-.513c-.069-.1-.076-.165-.02-.208s.128-.011.2.091c.06.069.142.171.238.3s.2.269.286.4a3.177,3.177,0,0,1,.2.313.324.324,0,0,1,.044.3,1.229,1.229,0,0,1-.3.316c-.418.373-.769.684-1.058.931s-.539.457-.744.624-.388.33-.547.471c-.1.1-.261.244-.461.437s-.388.372-.566.532c-.107.1-.19.123-.242.067-.043-.039-.018-.1.076-.187a2.02,2.02,0,0,0,.269-.3.31.31,0,0,0,.035-.3,1.642,1.642,0,0,0-.206-.372c-.14-.2-.347-.451-.619-.762s-.585-.66-.935-1.049" transform="translate(2.352 3.71)"/>
        </g>
      </g>
      <g id="Group_4368" data-name="Group 4368" transform="translate(41.48 22.2)">
        <g id="Group_4367" data-name="Group 4367" transform="translate(0 0)">
          <path id="Path_2869" data-name="Path 2869" class="cls-4" d="M2.486,3.827a5.228,5.228,0,0,1-.76.452,3.124,3.124,0,0,1-.746.247.323.323,0,0,1-.215,0,.538.538,0,0,1-.179-.186c-.18-.263-.347-.51-.5-.747s-.247-.4-.3-.486c-.1-.151-.119-.257-.058-.316a.093.093,0,0,1,.111,0,.346.346,0,0,1,.09.1,1.822,1.822,0,0,0,.177.2,2.989,2.989,0,0,0,.233.207,1.488,1.488,0,0,0,1.021.354A1.792,1.792,0,0,0,2.306,3.3a1.7,1.7,0,0,0,.572-.645,1.307,1.307,0,0,0,.131-.681A1.2,1.2,0,0,0,2.8,1.389,1.645,1.645,0,0,0,2.161.823,3.2,3.2,0,0,0,.875.552L.221.517A5.218,5.218,0,0,1-1.608.152a2.433,2.433,0,0,1-1.05-.859,1.937,1.937,0,0,1-.291-1.652,2.92,2.92,0,0,1,1.2-1.565,6.1,6.1,0,0,1,.784-.468,4.921,4.921,0,0,1,.547-.23c.093-.046.162-.038.205.02s.106.168.21.338.278.435.523.788c.138.19.169.305.093.347s-.131.008-.206-.1a1.221,1.221,0,0,0-.219-.212A1.391,1.391,0,0,0-.263-3.67a1.4,1.4,0,0,0-.529-.06,1.615,1.615,0,0,0-.784.312,1.436,1.436,0,0,0-.615.826,1.083,1.083,0,0,0,.184.884,1.2,1.2,0,0,0,.623.461A4.535,4.535,0,0,0-.108-1.07l.39.014a6.07,6.07,0,0,1,1.98.347A2.532,2.532,0,0,1,3.425.228a2.378,2.378,0,0,1,.4.966A2.264,2.264,0,0,1,3.68,2.429a2.711,2.711,0,0,1-.51.8,3.932,3.932,0,0,1-.683.6" transform="translate(3.022 4.651)"/>
        </g>
      </g>
      <g id="Group_4370" data-name="Group 4370" transform="translate(46.778 17.02)">
        <g id="Group_4369" data-name="Group 4369" transform="translate(0 0)">
          <path id="Path_2870" data-name="Path 2870" class="cls-4" d="M2.276,3.03.119-1.024-1.332-.2a3.2,3.2,0,0,0-.6.409.592.592,0,0,0-.2.388,1.2,1.2,0,0,0,.017.435c.025.088.01.148-.047.177s-.122,0-.172-.113A3.257,3.257,0,0,1-2.477.722C-2.535.536-2.594.356-2.644.177s-.084-.288-.1-.328c-.041-.14-.035-.224.02-.251A.554.554,0,0,1-2.541-.43a1,1,0,0,0,.307-.08c.156-.063.322-.137.5-.218s.35-.17.516-.258L2.7-3.068a5.953,5.953,0,0,0,.656-.412A2.5,2.5,0,0,1,3.6-3.671c.057-.038.122.018.189.166.041.076.1.187.169.336s.15.3.224.456.141.28.187.37.049.173,0,.205-.135,0-.214-.14l-.067-.1a.52.52,0,0,0-.455-.227,2.168,2.168,0,0,0-1.006.293l-1.263.632L3.51,2.373q.367.692.667,1.235t.51.854a1.027,1.027,0,0,0,.282.307.411.411,0,0,0,.387.022c.077-.026.165-.063.263-.1s.185-.084.263-.125c.107-.054.175-.057.2,0,.026.072-.02.137-.137.2-.331.175-.642.335-.925.473s-.5.246-.642.323c-.128.067-.311.172-.554.312s-.467.266-.677.38c-.129.07-.212.073-.251.006-.035-.048.006-.1.116-.164a2.014,2.014,0,0,0,.335-.227.331.331,0,0,0,.111-.291,1.384,1.384,0,0,0-.114-.406c-.091-.225-.229-.522-.42-.892s-.4-.782-.65-1.241" transform="translate(2.767 3.683)"/>
        </g>
      </g>
      <g id="Group_4372" data-name="Group 4372" transform="translate(56.123 14.184)">
        <g id="Group_4371" data-name="Group 4371" transform="translate(0 0)">
          <path id="Path_2871" data-name="Path 2871" class="cls-4" d="M1.238,2.881.6,1.019Q.32.226.173-.2C.074-.489,0-.7-.055-.849s-.1-.267-.145-.369a.832.832,0,0,0-.245-.373.545.545,0,0,0-.417-.074,1.22,1.22,0,0,0-.19.039c-.079.023-.157.045-.233.072-.117.045-.187.035-.214-.035s.041-.127.2-.174c.289-.1.578-.192.866-.281s.51-.159.668-.212l.529-.182.846-.294c.306-.1.58-.2.822-.286s.387-.137.447-.162A4.44,4.44,0,0,0,3.313-3.4a1.158,1.158,0,0,1,.156-.1c.05-.011.081.013.1.072.008.031.02.1.035.2a4.873,4.873,0,0,0,.116.517c.011.042.029.11.057.205s.05.193.079.291.044.172.051.222a.121.121,0,0,1-.066.153c-.067.023-.117-.017-.146-.115a1.474,1.474,0,0,0-.069-.168A1.1,1.1,0,0,0,3.5-2.314a.462.462,0,0,0-.266-.175,1.388,1.388,0,0,0-.575.038c-.073.018-.216.06-.43.126s-.427.134-.64.2S1.22-2,1.138-1.976c-.053.015-.064.06-.036.131L2.026.836c.016.078.054.108.113.09L2.626.758q.355-.123.708-.25c.237-.085.4-.148.49-.186A.8.8,0,0,0,4.28-.012c.037-.112.076-.177.122-.2s.079,0,.1.06c.007.026.019.1.039.217s.067.316.14.584c.031.122.066.261.11.418s.077.257.094.307a.54.54,0,0,1,.032.136.086.086,0,0,1-.059.1c-.072.02-.113,0-.129-.061a2.718,2.718,0,0,0-.175-.368A.486.486,0,0,0,4.3.971a.861.861,0,0,0-.473,0c-.079.02-.22.062-.428.128s-.415.134-.625.2-.365.122-.459.154c-.048.022-.057.063-.028.128l.289.835c.044.129.1.3.174.518s.147.433.22.645.128.369.169.479a1.353,1.353,0,0,0,.291.521.555.555,0,0,0,.459.139,3.346,3.346,0,0,0,.827-.207c.147-.048.31-.109.494-.187a1.7,1.7,0,0,0,.458-.282.726.726,0,0,0,.219-.384A1.545,1.545,0,0,0,5.87,3.1c-.025-.116,0-.182.063-.2s.125.04.151.162c.029.088.062.213.1.375s.072.322.106.483a3.253,3.253,0,0,1,.057.365.323.323,0,0,1-.079.3,1.306,1.306,0,0,1-.4.176q-.792.271-1.339.442c-.363.113-.672.209-.93.285s-.483.15-.686.219c-.137.049-.335.123-.594.222s-.505.19-.729.269c-.14.049-.222.038-.25-.032-.026-.054.023-.1.141-.143a1.784,1.784,0,0,0,.365-.174.318.318,0,0,0,.153-.267,1.723,1.723,0,0,0-.044-.421c-.054-.236-.146-.552-.275-.946s-.278-.836-.449-1.329" transform="translate(1.505 3.502)"/>
        </g>
      </g>
      <g id="Group_4374" data-name="Group 4374" transform="translate(64.604 12.392)">
        <g id="Group_4373" data-name="Group 4373" transform="translate(0 0)">
          <path id="Path_2872" data-name="Path 2872" class="cls-4" d="M1.143.455,1.793,3.8c.014.11.061.171.137.178a2.109,2.109,0,0,0,.418.006,3.7,3.7,0,0,0,.437-.059,2,2,0,0,0,.474-.134.844.844,0,0,0,.272-.2,1.439,1.439,0,0,0,.335-.665,2.6,2.6,0,0,0-.008-1.111A2.385,2.385,0,0,0,3.33.649,1.637,1.637,0,0,0,2.543.158,1.719,1.719,0,0,0,1.784.124,2.479,2.479,0,0,0,1.21.283a.13.13,0,0,0-.067.172M.7,5.115.326,3.18C.22,2.631.137,2.211.078,1.912s-.1-.52-.137-.671S-.121.961-.149.855a.851.851,0,0,0-.19-.4A.575.575,0,0,0-.745.319,1.482,1.482,0,0,0-.939.332C-1.019.34-1.1.355-1.178.37-1.3.4-1.369.378-1.387.307s.06-.12.225-.146c.3-.059.6-.11.887-.155S.223-.075.351-.1.643-.159.84-.2s.393-.086.587-.131.348-.077.468-.1A5.554,5.554,0,0,1,2.959-.553a2.618,2.618,0,0,1,1.05.2A1.741,1.741,0,0,1,4.6.108a1.916,1.916,0,0,1,.446.9,2.42,2.42,0,0,1-.078,1.257,4.648,4.648,0,0,1-.895,1.485q.91.784,1.636,1.4c.487.409.922.754,1.312,1.032a2.933,2.933,0,0,0,.9.449,1.735,1.735,0,0,0,.475.06,1.85,1.85,0,0,0,.313-.027c.091-.015.14.005.149.062.014.081-.05.133-.187.151l-1.044.2a4.063,4.063,0,0,1-.72.092,1.5,1.5,0,0,1-.5-.072A2.67,2.67,0,0,1,5.6,6.647q-.432-.331-1.008-.873c-.189-.178-.379-.357-.567-.54s-.358-.342-.5-.483-.25-.234-.311-.284A.234.234,0,0,0,3,4.43l-.962.162c-.057.008-.081.042-.07.1L2,4.852c.1.517.192.979.276,1.385s.163.726.236.957a1.06,1.06,0,0,0,.18.386.421.421,0,0,0,.365.135c.087-.005.185-.014.288-.024s.19-.023.261-.035c.088-.014.137.005.148.061.014.077-.053.127-.2.153-.218.043-.439.083-.669.122s-.427.071-.6.1-.292.048-.353.06-.187.039-.341.076-.317.071-.5.112-.344.076-.495.1-.225.008-.242-.067c-.018-.055.034-.1.158-.122A1.913,1.913,0,0,0,.9,8.134a.31.31,0,0,0,.186-.242A1.554,1.554,0,0,0,1.1,7.468c-.02-.242-.066-.566-.138-.976S.8,5.626.7,5.115" transform="translate(1.389 0.553)"/>
        </g>
      </g>
      <g id="Group_4376" data-name="Group 4376" transform="translate(75.115 11.052)">
        <g id="Group_4375" data-name="Group 4375" transform="translate(0 0)">
          <path id="Path_2873" data-name="Path 2873" class="cls-4" d="M.724,1.128l.282,4.7a3.205,3.205,0,0,0,.153.916c.074.181.168.285.282.315a1.829,1.829,0,0,0,.585.057c.123-.008.19.02.2.082,0,.082-.088.124-.253.122-.72.014-1.185.017-1.389.014-.059,0-.2.015-.425.031s-.488.033-.785.045c-.155.018-.24-.016-.251-.1,0-.064.06-.094.177-.1.074,0,.156-.01.246-.02A1.6,1.6,0,0,0-.2,7.133c.137-.039.228-.165.264-.373A5.628,5.628,0,0,0,.1,5.734L-.035-.9c-.015-.237.028-.365.134-.385a.271.271,0,0,1,.184.093c.064.06.145.141.242.24.057.059.265.263.621.614S1.942.447,2.47.957,3.547,1.989,4.121,2.523q.413.386.966.926t1.008.985c.3.3.5.483.575.556l.055,0L6.437-.036A2.146,2.146,0,0,0,6.32-.751a.485.485,0,0,0-.3-.279,1.073,1.073,0,0,0-.3-.046,2.837,2.837,0,0,0-.291,0c-.125,0-.187-.027-.182-.094s.106-.116.288-.112c.294-.008.565-.013.806-.011s.424,0,.547,0c.066,0,.195-.014.389-.029s.43-.032.707-.043c.157-.017.246.014.261.092s-.063.1-.2.106a1.275,1.275,0,0,0-.335.046A.456.456,0,0,0,7.4-.836a2.012,2.012,0,0,0-.069.681l.125,7.066c.008.237-.035.356-.134.35a.349.349,0,0,1-.193-.069,1.713,1.713,0,0,1-.2-.162c-.25-.223-.565-.51-.942-.865s-.783-.732-1.215-1.136-.85-.8-1.257-1.174c-.43-.4-.838-.791-1.231-1.181s-.727-.724-1-1.007S.835,1.2.758,1.127Z" transform="translate(0.88 1.371)"/>
        </g>
      </g>
      <g id="Group_4378" data-name="Group 4378" transform="translate(91.775 11.715)">
        <g id="Group_4377" data-name="Group 4377" transform="translate(0 0)">
          <path id="Path_2874" data-name="Path 2874" class="cls-4" d="M.073,2.248.411.649C.527.1.618-.319.68-.616s.107-.52.138-.671.049-.281.066-.392a.817.817,0,0,0-.02-.446A.554.554,0,0,0,.545-2.4a1.127,1.127,0,0,0-.183-.064C.283-2.489.2-2.51.126-2.526,0-2.547-.054-2.593-.042-2.664s.1-.087.264-.048q.451.1.89.207c.294.071.527.128.7.166.094.018.219.043.379.072l.508.09c.176.033.331.063.467.091.165.03.239.079.22.15s-.085.093-.2.063A1.221,1.221,0,0,0,3.036-1.9c-.046,0-.1-.008-.169-.01a.418.418,0,0,0-.344.123.964.964,0,0,0-.195.415c-.029.106-.061.236-.1.385s-.085.372-.15.669S1.93.4,1.813.947L1.488,2.482a5.657,5.657,0,0,0-.153,1.827A1.993,1.993,0,0,0,1.77,5.357a1.924,1.924,0,0,0,.649.531,2.474,2.474,0,0,0,.627.208,2.357,2.357,0,0,0,.8.033,2,2,0,0,0,.837-.3,2.166,2.166,0,0,0,.791-1.044A9.442,9.442,0,0,0,5.9,3.245l.291-1.37c.113-.545.2-.967.264-1.265s.108-.519.137-.671.054-.282.066-.39A.838.838,0,0,0,6.638-.9a.553.553,0,0,0-.321-.279,1.538,1.538,0,0,0-.177-.064c-.077-.02-.146-.038-.211-.052-.122-.02-.177-.066-.162-.137s.1-.089.251-.05c.19.04.379.084.572.129l.475.119c.128.033.2.051.207.053.047.01.143.026.288.052l.481.085c.177.033.338.064.486.094s.224.077.209.148-.086.09-.217.057a1.19,1.19,0,0,0-.159-.024c-.045,0-.1-.008-.168-.012a.434.434,0,0,0-.344.125.981.981,0,0,0-.193.415c-.027.1-.062.233-.1.384S7.47.518,7.408.814L7.135,2.079,6.889,3.251a7.678,7.678,0,0,1-.56,1.772,2.869,2.869,0,0,1-1.183,1.3,3.233,3.233,0,0,1-1.3.4A4.013,4.013,0,0,1,2.7,6.631,6.331,6.331,0,0,1,2,6.444a3.7,3.7,0,0,1-.823-.387,2.748,2.748,0,0,1-.746-.7A2.675,2.675,0,0,1-.047,4.165a5.408,5.408,0,0,1,.12-1.917" transform="translate(0.088 2.733)"/>
        </g>
      </g>
      <g id="Group_4380" data-name="Group 4380" transform="translate(100.599 14.804)">
        <g id="Group_4379" data-name="Group 4379" transform="translate(0 0)">
          <path id="Path_2875" data-name="Path 2875" class="cls-4" d="M1.8,1.111.144,5.515a3.277,3.277,0,0,0-.233.9.463.463,0,0,0,.133.4,1.789,1.789,0,0,0,.51.291c.116.042.165.1.145.156-.037.072-.131.076-.279.006-.662-.279-1.091-.463-1.278-.552-.054-.021-.187-.067-.4-.143s-.458-.169-.735-.279c-.148-.044-.211-.111-.186-.195.025-.058.094-.064.2-.017a2.312,2.312,0,0,0,.234.082,1.423,1.423,0,0,0,.254.054.417.417,0,0,0,.394-.23,5.386,5.386,0,0,0,.446-.928L1.928-1.047c.082-.226.175-.324.279-.3a.278.278,0,0,1,.131.159c.037.082.077.19.126.319.026.077.133.348.315.813s.409,1.04.683,1.719.566,1.38.872,2.1c.144.348.314.761.5,1.241s.365.915.523,1.311.256.642.3.736l.051.023,1.781-4.7a2.2,2.2,0,0,0,.18-.7.477.477,0,0,0-.156-.376,1.061,1.061,0,0,0-.257-.168c-.1-.05-.19-.088-.267-.117-.118-.048-.16-.1-.129-.161s.144-.062.309.015c.274.113.522.218.742.319s.387.174.5.22c.062.023.185.067.368.131s.406.146.662.25c.153.049.22.112.2.19-.026.062-.1.069-.224.019a1.2,1.2,0,0,0-.325-.1.443.443,0,0,0-.4.136,1.821,1.821,0,0,0-.341.591L5.593,9.129c-.088.223-.174.312-.265.267a.334.334,0,0,1-.146-.141,1.458,1.458,0,0,1-.113-.228q-.206-.459-.511-1.174c-.2-.475-.417-.987-.646-1.533S3.458,5.247,3.24,4.737C3.012,4.2,2.795,3.674,2.6,3.159S2.227,2.2,2.09,1.83s-.224-.606-.263-.708Z" transform="translate(2.184 1.35)"/>
        </g>
      </g>
      <g id="Group_4382" data-name="Group 4382" transform="translate(111.285 19.92)">
        <g id="Group_4381" data-name="Group 4381" transform="translate(0 0)">
          <path id="Path_2876" data-name="Path 2876" class="cls-4" d="M1.107,2.226,2.125.537c.288-.479.51-.848.662-1.108s.274-.458.352-.591.139-.25.189-.348c.179-.325.179-.57,0-.732A1.593,1.593,0,0,0,3-2.489c-.1-.054-.134-.117-.1-.187s.127-.035.278.06c.194.118.409.255.648.409s.434.279.582.371c.133.077.317.181.549.31s.446.251.64.364c.133.076.182.141.156.2-.045.069-.116.07-.213,0a1.9,1.9,0,0,0-.3-.143.42.42,0,0,0-.368.005.951.951,0,0,0-.316.328c-.062.091-.135.2-.217.332s-.2.325-.356.583-.381.63-.67,1.108L2.3,2.942c-.283.468-.529.887-.744,1.249s-.375.655-.482.876a.851.851,0,0,0-.1.376.472.472,0,0,0,.2.327c.066.051.143.109.227.169s.165.117.241.161c.1.066.14.122.109.171-.047.06-.128.057-.242-.013-.321-.2-.614-.379-.88-.549s-.463-.3-.6-.381-.307-.177-.55-.312-.471-.264-.678-.386c-.125-.074-.172-.144-.133-.211.023-.053.091-.048.2.017A1.83,1.83,0,0,0-.763,4.6a.318.318,0,0,0,.291-.029A1.116,1.116,0,0,0-.2,4.291Q.025,4,.356,3.468t.751-1.241" transform="translate(1.346 2.706)"/>
        </g>
      </g>
      <g id="Group_4384" data-name="Group 4384" transform="translate(118.377 22.35)">
        <g id="Group_4383" data-name="Group 4383" transform="translate(0 0)">
          <path id="Path_2877" data-name="Path 2877" class="cls-4" d="M.063,3.99,1.926-3.173A1.722,1.722,0,0,0,2-3.886a1.05,1.05,0,0,0-.243-.478,1.133,1.133,0,0,0-.175-.18c-.058-.052-.107-.091-.145-.119-.079-.057-.094-.112-.047-.162s.155-.022.293.094c.242.184.473.366.7.548s.417.334.577.457c.118.087.276.2.476.338s.418.292.644.464a.656.656,0,0,1,.131.125.1.1,0,0,1,.015.112c-.05.054-.113.048-.2-.022a.83.83,0,0,0-.4-.2.267.267,0,0,0-.23.12,3.2,3.2,0,0,0-.314.846L1.571,3.276l.034.026,1.18-.72c.5-.3,1.013-.613,1.555-.942S5.37,1.014,5.8.748s.742-.457.919-.571a1.371,1.371,0,0,0,.33-.271.211.211,0,0,0,.012-.257A1.514,1.514,0,0,0,6.74-.666c-.1-.061-.128-.123-.1-.187q.071-.1.315.1c.227.172.424.328.584.461s.276.225.335.273c.087.063.217.154.389.271s.331.23.476.337c.121.086.165.161.124.224s-.114.045-.2-.028a1.279,1.279,0,0,0-.2-.134A.8.8,0,0,0,8.147.561a.9.9,0,0,0-.365.066,4.9,4.9,0,0,0-.734.367c-.323.188-.621.359-.9.512s-.572.315-.884.486-.688.377-1.117.618q-1.175.66-2,1.13c-.556.314-.968.548-1.241.7-.3.171-.516.285-.642.342s-.215.06-.268.012-.079-.114-.064-.229A4.845,4.845,0,0,1,.063,3.99" transform="translate(0.077 4.85)"/>
        </g>
      </g>
      <g id="Group_4386" data-name="Group 4386" transform="translate(122.816 29.199)">
        <g id="Group_4385" data-name="Group 4385" transform="translate(0 0)">
          <path id="Path_2878" data-name="Path 2878" class="cls-4" d="M1.307,2.028,2.677.609q.583-.6.895-.93t.475-.5c.1-.113.192-.212.264-.3A.853.853,0,0,0,4.532-1.5a.556.556,0,0,0-.126-.407,1.308,1.308,0,0,0-.12-.152c-.054-.06-.111-.119-.171-.174-.094-.084-.116-.153-.066-.207s.133-.02.246.1c.221.216.434.43.646.646s.373.384.492.5c.071.071.2.2.4.388s.411.4.643.622l.628.6c.183.176.3.284.347.327a4.662,4.662,0,0,0,.393.285.972.972,0,0,1,.16.092c.033.039.025.078-.022.12-.024.021-.076.062-.16.122a4.58,4.58,0,0,0-.409.34c-.032.028-.085.074-.158.142s-.147.134-.221.2-.135.117-.175.146A.124.124,0,0,1,6.7,2.2c-.051-.051-.038-.114.036-.183a1.149,1.149,0,0,0,.116-.139.8.8,0,0,0,.116-.2A.48.48,0,0,0,7,1.366a1.421,1.421,0,0,0-.3-.494C6.655.815,6.554.706,6.4.546S6.084.226,5.924.067,5.656-.2,5.594-.265c-.039-.04-.084-.03-.138.026L3.49,1.8c-.062.051-.072.1-.032.143.071.066.194.184.375.358s.362.345.545.517.312.29.388.353a.774.774,0,0,0,.5.251.326.326,0,0,1,.23.02c.039.031.035.072-.005.119-.022.02-.079.065-.175.137s-.248.2-.458.39c-.094.082-.2.177-.319.288s-.2.184-.233.219a.533.533,0,0,1-.109.094.086.086,0,0,1-.113-.01c-.046-.054-.049-.1,0-.142a2.562,2.562,0,0,0,.247-.321A.491.491,0,0,0,4.4,3.886a.9.9,0,0,0-.217-.419C4.13,3.4,4.027,3.3,3.876,3.142s-.31-.309-.467-.465l-.345-.34c-.038-.032-.08-.021-.126.035l-.616.637c-.094.1-.221.227-.381.39l-.473.487c-.155.161-.27.284-.35.37a1.419,1.419,0,0,0-.333.5.563.563,0,0,0,.084.473,3.536,3.536,0,0,0,.56.642q.165.163.391.355A1.687,1.687,0,0,0,2.28,6.5a.726.726,0,0,0,.443.021,1.574,1.574,0,0,0,.5-.266c.09-.076.156-.088.2-.035s.02.128-.075.205c-.064.066-.159.154-.285.261S2.808,6.9,2.68,7a3.63,3.63,0,0,1-.3.218.323.323,0,0,1-.3.064,1.325,1.325,0,0,1-.337-.274c-.4-.389-.734-.72-1-.991s-.492-.506-.677-.7-.353-.365-.507-.516c-.1-.1-.26-.24-.468-.427s-.4-.362-.572-.527c-.1-.1-.133-.18-.082-.236.035-.048.1-.028.19.059a1.869,1.869,0,0,0,.322.248.311.311,0,0,0,.307.013A1.493,1.493,0,0,0-.391,3.7c.187-.155.429-.379.717-.672s.621-.629.98-1" transform="translate(1.588 2.465)"/>
        </g>
      </g>
      <g id="Group_4388" data-name="Group 4388" transform="translate(128.317 35.793)">
        <g id="Group_4387" data-name="Group 4387" transform="translate(0)">
          <path id="Path_2879" data-name="Path 2879" class="cls-4" d="M3.386,1.062.664,3.11c-.091.063-.124.131-.1.2a2.233,2.233,0,0,0,.179.376,3.009,3.009,0,0,0,.245.369,2.079,2.079,0,0,0,.325.366.845.845,0,0,0,.3.155,1.464,1.464,0,0,0,.745.011,2.674,2.674,0,0,0,1-.494,2.4,2.4,0,0,0,.809-.983,1.636,1.636,0,0,0,.1-.922,1.682,1.682,0,0,0-.3-.7,2.5,2.5,0,0,0-.392-.448.13.13,0,0,0-.184.014M-1,2.709.578,1.522c.446-.335.791-.594,1.031-.779s.424-.32.542-.415S2.377.149,2.46.077a.816.816,0,0,0,.279-.35.557.557,0,0,0-.057-.419,1.688,1.688,0,0,0-.1-.171c-.044-.067-.088-.134-.137-.2-.08-.1-.091-.167-.038-.214s.136,0,.232.136c.184.248.362.492.527.731s.292.412.368.515.184.237.31.395.25.314.372.47.222.279.3.377a5.674,5.674,0,0,1,.574.9,2.682,2.682,0,0,1,.282,1.033,1.763,1.763,0,0,1-.151.739,1.945,1.945,0,0,1-.616.791A2.415,2.415,0,0,1,3.435,5.3a4.58,4.58,0,0,1-1.727-.153c-.2.774-.381,1.469-.537,2.083S.9,8.386.819,8.858A2.959,2.959,0,0,0,.81,9.864a1.7,1.7,0,0,0,.155.453,1.906,1.906,0,0,0,.16.271c.054.073.057.127.01.162-.066.047-.14.013-.216-.1L.277,9.8a3.924,3.924,0,0,1-.4-.606,1.522,1.522,0,0,1-.153-.478,2.635,2.635,0,0,1,.046-.928A12.6,12.6,0,0,1,.12,6.5C.2,6.248.273,6,.353,5.75s.151-.47.215-.664.1-.328.117-.407a.232.232,0,0,0-.058-.207L.059,3.68a.079.079,0,0,0-.127-.017l-.123.094c-.421.316-.8.6-1.124.856s-.581.465-.759.633a1.035,1.035,0,0,0-.266.331.413.413,0,0,0,.039.388c.043.078.093.159.146.247a2.121,2.121,0,0,0,.146.218c.052.072.057.126.01.162-.064.044-.138.006-.227-.113-.133-.177-.268-.359-.4-.547s-.253-.351-.355-.5-.172-.242-.207-.291-.12-.15-.219-.273-.207-.256-.32-.4-.219-.276-.31-.4-.106-.2-.047-.247c.042-.04.1-.01.18.089a1.739,1.739,0,0,0,.279.3.314.314,0,0,0,.3.062A1.7,1.7,0,0,0-2.936,4.1q.311-.187.816-.552T-1,2.709" transform="translate(4.116 1.291)"/>
        </g>
      </g>
      <g id="Group_4390" data-name="Group 4390" transform="translate(133.726 44.778)">
        <g id="Group_4389" data-name="Group 4389" transform="translate(0 0)">
          <path id="Path_2880" data-name="Path 2880" class="cls-4" d="M.271,2.3a5.3,5.3,0,0,1-.4-.788,3.386,3.386,0,0,1-.2-.762A.349.349,0,0,1-.3.537.575.575,0,0,1-.1.373C.171.211.431.063.675-.068s.418-.22.507-.266c.158-.089.264-.1.319-.035A.093.093,0,0,1,1.5-.256a.343.343,0,0,1-.1.081,1.65,1.65,0,0,0-.217.164A2.9,2.9,0,0,0,.958.207,1.481,1.481,0,0,0,.533,1.2a1.794,1.794,0,0,0,.28.963,1.711,1.711,0,0,0,.6.614,1.3,1.3,0,0,0,.67.179,1.194,1.194,0,0,0,.6-.165,1.645,1.645,0,0,0,.611-.6A3.2,3.2,0,0,0,3.651.927L3.732.278a5.178,5.178,0,0,1,.49-1.8,2.435,2.435,0,0,1,.93-.988A1.928,1.928,0,0,1,6.82-2.685,2.891,2.891,0,0,1,8.3-1.384,6.09,6.09,0,0,1,8.71-.57,5.514,5.514,0,0,1,8.9-.008c.037.1.025.164-.035.2s-.175.1-.354.186S8.063.63,7.694.849c-.2.124-.317.147-.352.068s0-.132.113-.2a1.027,1.027,0,0,0,.229-.2A1.385,1.385,0,0,0,7.94.086a1.307,1.307,0,0,0,.1-.524,1.593,1.593,0,0,0-.254-.8A1.431,1.431,0,0,0,7-1.911a1.072,1.072,0,0,0-.893.12,1.185,1.185,0,0,0-.5.589A4.526,4.526,0,0,0,5.336.058L5.294.447A6.032,6.032,0,0,1,4.812,2.4a2.518,2.518,0,0,1-1.018,1.1,2.384,2.384,0,0,1-.99.333,2.272,2.272,0,0,1-1.22-.233,2.739,2.739,0,0,1-.766-.567A3.918,3.918,0,0,1,.271,2.3" transform="translate(0.329 2.799)"/>
        </g>
      </g>
      <g id="Group_4392" data-name="Group 4392" transform="translate(136.916 50.84)">
        <g id="Group_4391" data-name="Group 4391" transform="translate(0 0)">
          <path id="Path_2881" data-name="Path 2881" class="cls-4" d="M1.5,1.351l1.8-.8c.51-.227.9-.4,1.18-.526S4.96-.2,5.1-.262s.259-.124.357-.177q.5-.246.419-.6a1.643,1.643,0,0,0-.123-.388c-.057-.1-.047-.171.028-.208.055-.025.121.044.191.208.089.208.19.443.3.708s.193.475.264.637c.064.14.153.329.271.568s.222.461.316.668c.063.134.069.218.014.251-.079.029-.137-.01-.175-.12a2.182,2.182,0,0,0-.17-.292.422.422,0,0,0-.3-.207.957.957,0,0,0-.45.088c-.1.039-.227.088-.367.147s-.354.151-.628.273L3.86,1.817l-1.8.8c-.5.222-.941.421-1.323.6s-.683.322-.9.442a.821.821,0,0,0-.3.253.458.458,0,0,0-.023.381c.023.079.05.168.085.268s.07.19.1.271c.049.112.046.177-.01.2C-.374,5.053-.438,5-.489,4.882c-.153-.347-.286-.665-.407-.956s-.21-.507-.273-.655c-.059-.13-.149-.321-.271-.572s-.234-.486-.332-.7c-.062-.133-.06-.217.01-.25.052-.029.1.013.156.127a1.8,1.8,0,0,0,.2.351.314.314,0,0,0,.256.142A1.07,1.07,0,0,0-.76,2.291c.231-.074.537-.192.926-.358S.994,1.573,1.5,1.351" transform="translate(1.817 1.642)"/>
        </g>
      </g>
      <g id="Group_4394" data-name="Group 4394" transform="translate(139.551 56.273)">
        <g id="Group_4393" data-name="Group 4393" transform="translate(0 0)">
          <path id="Path_2882" data-name="Path 2882" class="cls-4" d="M1.51,1.982,5.876.563,5.319-1.01a3.333,3.333,0,0,0-.3-.664.6.6,0,0,0-.347-.269A1.308,1.308,0,0,0,4.243-2c-.094.01-.147-.015-.168-.075S4.1-2.2,4.213-2.23A3.456,3.456,0,0,1,4.607-2.3c.193-.026.382-.049.567-.07s.3-.033.337-.035c.146-.018.229,0,.247.06a.644.644,0,0,1-.005.179,1.081,1.081,0,0,0,.023.32c.035.163.08.338.129.529s.107.375.163.554L7.44,3.457a5.62,5.62,0,0,0,.291.718,2.878,2.878,0,0,1,.149.271c.026.063-.038.115-.2.157-.079.026-.2.063-.36.107l-.489.143c-.164.049-.3.088-.4.12s-.178.016-.2-.042c-.029-.073.028-.135.176-.185l.115-.05a.527.527,0,0,0,.3-.409,2.183,2.183,0,0,0-.116-1.041l-.4-1.353L1.942,3.313c-.5.16-.939.307-1.333.441s-.7.251-.929.352a1.024,1.024,0,0,0-.35.224.412.412,0,0,0-.091.378c.015.082.035.174.057.279s.05.194.078.278c.035.116.026.184-.031.2C-.732,5.479-.79,5.423-.83,5.3Q-1,4.76-1.132,4.3c-.09-.3-.158-.532-.207-.689-.046-.137-.116-.335-.212-.6s-.182-.506-.256-.732c-.048-.14-.035-.222.036-.246.053-.028.1.02.141.141a1.661,1.661,0,0,0,.167.369.322.322,0,0,0,.265.159,1.431,1.431,0,0,0,.422-.041c.237-.049.555-.135.948-.258s.844-.264,1.339-.425" transform="translate(1.836 2.409)"/>
        </g>
      </g>
      <g id="Group_4396" data-name="Group 4396" transform="translate(141.772 65.241)">
        <g id="Group_4395" data-name="Group 4395" transform="translate(0 0)">
          <path id="Path_2883" data-name="Path 2883" class="cls-4" d="M.939,2.073l.908-.143a2.725,2.725,0,0,0,.671-.182,2.852,2.852,0,0,0,.448-.257c.052-.034.2-.156.449-.361S3.95.683,4.277.406s.637-.545.924-.8.506-.443.643-.57a2.728,2.728,0,0,0,.687-.892A1.838,1.838,0,0,0,6.6-2.1a.821.821,0,0,0,0-.234c-.021-.1,0-.159.076-.18s.11.056.131.193c.013.073.028.2.05.369s.047.358.07.55.049.352.067.48.052.282.1.489S7.175,0,7.217.25c.017.111-.007.171-.074.182-.052.01-.1-.064-.16-.224A.2.2,0,0,0,6.758.085a1.022,1.022,0,0,0-.353.194q-.136.088-.561.43c-.285.227-.606.482-.956.763s-.665.54-.948.768L3.4,2.682c.081.021.276.089.584.2s.65.236,1.038.378l1.05.384c.317.115.529.187.633.217a1.441,1.441,0,0,0,.6.062.287.287,0,0,0,.158-.07.315.315,0,0,0,.084-.205A.5.5,0,0,1,7.556,3.5c.01-.043.029-.067.062-.074.071-.017.113.042.128.172.046.37.094.717.13,1.044.015.088.04.21.067.368s.061.312.092.466.05.269.063.345c.025.127.005.2-.057.214s-.125-.063-.143-.193a.857.857,0,0,0-.071-.218,1.194,1.194,0,0,0-.138-.249,1.122,1.122,0,0,0-.248-.261,3.525,3.525,0,0,0-.389-.25q-.206-.116-.742-.35T5.127,4.028C4.7,3.855,4.3,3.7,3.945,3.568s-.6-.218-.746-.255a2.03,2.03,0,0,0-.586-.054,5.149,5.149,0,0,0-.547.063l-.9.145c-.1.014-.244.039-.446.074S.3,3.621.06,3.675a.906.906,0,0,0-.393.175.474.474,0,0,0-.145.375c0,.084.006.177.015.282a2.6,2.6,0,0,0,.029.277c.018.12,0,.184-.06.191-.078.006-.127-.064-.146-.214-.057-.358-.1-.69-.142-1s-.072-.541-.094-.7S-.941,2.7-.994,2.424s-.1-.52-.134-.738c-.032-.158-.01-.245.069-.261.059-.011.1.043.117.163a1.69,1.69,0,0,0,.108.379A.346.346,0,0,0-.6,2.182a1.085,1.085,0,0,0,.424.033c.242-.023.463-.048.665-.077s.352-.05.446-.065" transform="translate(1.142 2.52)"/>
        </g>
      </g>
      <g id="Group_4398" data-name="Group 4398" transform="translate(13.796 87.895)">
        <g id="Group_4397" data-name="Group 4397" transform="translate(0 0)">
          <path id="Path_2884" data-name="Path 2884" class="cls-3" d="M.349.668A3.522,3.522,0,0,1,3.04-.8a3.511,3.511,0,0,1,2.7.93A4.433,4.433,0,0,1,7.016,3.163,10.141,10.141,0,0,1,7.045,4.6c-.014.38-.072.7-.076,1,0,.109-.044.153-.1.159-.076.006-.193-.014-.526,0-.315.008-.835.063-1.027.06-.143,0-.22-.011-.228-.1s.067-.106.2-.117a1.333,1.333,0,0,0,.839-.461,3.04,3.04,0,0,0,.414-2.055,2.654,2.654,0,0,0-.749-1.806A3.11,3.11,0,0,0,3.256.585a3.257,3.257,0,0,0-3.107,3.4c.077.878.217,1.4.689,1.76a1.558,1.558,0,0,0,.655.282c.155.017.194.033.2.112s-.058.1-.134.1a8.778,8.778,0,0,1-1.28-.107.341.341,0,0,1-.3-.233A5.947,5.947,0,0,1-.391,4.144,5.092,5.092,0,0,1,.349.668" transform="translate(0.424 0.812)"/>
        </g>
      </g>
      <g id="Group_4400" data-name="Group 4400" transform="translate(14.835 95.349)">
        <g id="Group_4399" data-name="Group 4399" transform="translate(0 0)">
          <path id="Path_2885" data-name="Path 2885" class="cls-3" d="M1.608,2.659A2.609,2.609,0,0,0,3.9-.424C3.7-1.373,2.97-2.382,1.016-1.958A2.7,2.7,0,0,0-1.338,1.25c.13.6.694,1.9,2.946,1.409M.5-3.165c1.349-.293,3.313.316,3.874,2.9.466,2.15-.389,3.735-2.2,4.128A3.344,3.344,0,0,1-1.841.994,3.229,3.229,0,0,1,.5-3.165" transform="translate(1.955 3.232)"/>
        </g>
      </g>
      <g id="Group_4402" data-name="Group 4402" transform="translate(16.168 102.006)">
        <g id="Group_4401" data-name="Group 4401" transform="translate(0 0)">
          <path id="Path_2886" data-name="Path 2886" class="cls-3" d="M1.263,1.375C.277,1.7-.212,1.858-.3,2.085c-.072.18-.012.514.2,1.155.145.443.259.76.535.9a.954.954,0,0,0,.529.056c.076-.014.127-.01.148.056s-.057.1-.147.131a5.952,5.952,0,0,1-.927.168c-.19,0-.239-.026-.381-.459C-.536,3.5-.684,3.015-.8,2.594s-.232-.769-.343-1.108c-.031-.094-.1-.27-.164-.468s-.15-.4-.206-.569c-.034-.1-.026-.168.029-.187.036-.012.091,0,.125.1a1.359,1.359,0,0,0,.123.283c.092.158.252.157.488.112C-.413.693.193.495.9.264L2.256-.181C3.423-.563,3.64-.634,3.882-.724s.313-.207.3-.494A1.235,1.235,0,0,0,4.118-1.5c-.031-.094-.019-.15.035-.168s.091.032.131.156c.127.386.282.919.356,1.145.065.2.305.871.41,1.191.04.122.04.185-.014.2S4.939,1.005,4.9.9A1.973,1.973,0,0,0,4.773.591c-.11-.214-.24-.245-.518-.174C4,.477,3.787.548,2.62.93Z" transform="translate(1.535 1.672)"/>
        </g>
      </g>
      <g id="Group_4404" data-name="Group 4404" transform="translate(17.933 106.705)">
        <g id="Group_4403" data-name="Group 4403" transform="translate(0 0)">
          <path id="Path_2887" data-name="Path 2887" class="cls-3" d="M1.3,1.483c-.955.406-1.428.608-1.494.84-.056.185.032.514.3,1.134.183.429.323.735.61.85a.958.958,0,0,0,.532.011c.074-.021.125-.021.153.042s-.048.106-.135.144a5.978,5.978,0,0,1-.909.247c-.19.016-.24-.006-.419-.425C-.313,3.752-.5,3.283-.655,2.874s-.3-.746-.436-1.075c-.039-.091-.122-.261-.2-.452S-1.479.962-1.549.8C-1.591.7-1.588.632-1.536.61-1.5.595-1.446.6-1.4.7a1.363,1.363,0,0,0,.146.272c.1.149.264.135.5.069C-.43.947.157.7.84.407l1.315-.56c1.13-.481,1.34-.57,1.573-.68.247-.127.294-.233.256-.518A1.2,1.2,0,0,0,3.9-1.627c-.039-.091-.032-.148.021-.17s.093.025.143.143c.159.374.359.892.452,1.111.082.192.378.841.51,1.151.051.119.056.181,0,.2S4.93.8,4.887.7A2.022,2.022,0,0,0,4.729.4C4.6.2,4.468.177,4.2.271c-.244.082-.455.172-1.585.653Z" transform="translate(1.578 1.802)"/>
        </g>
      </g>
      <g id="Group_4406" data-name="Group 4406" transform="translate(20.13 111.194)">
        <g id="Group_4405" data-name="Group 4405" transform="translate(0 0)">
          <path id="Path_2888" data-name="Path 2888" class="cls-3" d="M1.646.835C2.73.258,2.932.151,3.154.021c.235-.147.273-.257.21-.538a1.628,1.628,0,0,0-.138-.319c-.042-.079-.045-.145.006-.171s.1.025.16.139c.214.4.458.9.575,1.12C4.1.5,5,2.206,5.085,2.351s.173.245.214.3c.032.039.08.069.1.1s-.006.07-.039.088a3.334,3.334,0,0,0-.5.184c-.08.032-.4.18-.494.207-.039.009-.131.036-.164-.025s0-.079.06-.11A.742.742,0,0,0,4.5,2.91c.094-.128.162-.243-.01-.646-.053-.14-.525-1.068-.609-1.225C3.861,1,3.826,1,3.784,1.022l-1.765.94c-.042.022-.071.048-.048.092.093.175.624,1.173.734,1.339s.192.279.305.309c.083.035.139.039.158.073a.079.079,0,0,1-.043.1c-.042.023-.169.067-.554.216-.152.059-.447.193-.5.22s-.164.076-.2.007c-.028-.053-.012-.084.022-.1.071-.048.163-.1.247-.165.119-.12.177-.274.048-.576-.057-.149-.507-1.033-.609-1.226-.019-.035-.057-.026-.1,0l-.572.3c-.244.129-.853.443-1.059.563-.479.277-.462.572-.043,1.359a2.452,2.452,0,0,0,.48.677A.68.68,0,0,0,.993,5.2c.085-.023.128-.023.156.029s-.055.119-.131.159a5.243,5.243,0,0,1-.846.316c-.213.046-.25-.024-.4-.313C-.539,4.816-.777,4.348-.96,3.963s-.338-.674-.458-.9c-.047-.088-.143-.249-.242-.433s-.217-.367-.3-.525c-.051-.1-.054-.162,0-.189.033-.018.09-.014.14.082a1.364,1.364,0,0,0,.17.257c.118.14.275.112.5.026.322-.126.884-.426,1.54-.775Z" transform="translate(2.001 1.015)"/>
        </g>
      </g>
      <g id="Group_4408" data-name="Group 4408" transform="translate(23.887 116.786)">
        <g id="Group_4407" data-name="Group 4407" transform="translate(0 0)">
          <path id="Path_2889" data-name="Path 2889" class="cls-3" d="M1.238,3.226c-.182.122-.19.128-.3.069A5.433,5.433,0,0,1-.549,1.729c-1.2-1.776-1.478-3.868.379-5.117A2.973,2.973,0,0,1,2.877-3.6,4.514,4.514,0,0,1,4.623-1.942,10.333,10.333,0,0,1,5.376-.584c.076.164.208.446.316.623.048.088.035.12-.012.152A10.574,10.574,0,0,0,4.54.885c-.1.069-.177.06-.217,0S4.311.8,4.36.755A1.055,1.055,0,0,0,4.748.136,2.768,2.768,0,0,0,4.2-1.78,2.517,2.517,0,0,0,2.869-2.912a2.313,2.313,0,0,0-2.083.434,2.863,2.863,0,0,0-.8,4.2A1.474,1.474,0,0,0,.4,2.179a.266.266,0,0,0,.331-.02l.616-.414c.331-.224.584-.393.785-.54.224-.162.245-.284.153-.557a1.677,1.677,0,0,0-.165-.3C2.072.288,2.071.217,2.11.19c.056-.037.1.015.168.114.254.378.587.907.731,1.121.156.23.426.6.586.837.066.1.091.153.036.19A.1.1,0,0,1,3.5,2.409a1.245,1.245,0,0,0-.156-.181c-.164-.176-.309-.187-.551-.035-.211.13-.48.31-.812.534Z" transform="translate(1.505 3.921)"/>
        </g>
      </g>
      <g id="Group_4410" data-name="Group 4410" transform="translate(27.271 121.591)">
        <g id="Group_4409" data-name="Group 4409" transform="translate(0 0)">
          <path id="Path_2890" data-name="Path 2890" class="cls-3" d="M1.508.966c.945-.785,1.12-.932,1.311-1.1a.4.4,0,0,0,.1-.57,1.669,1.669,0,0,0-.2-.285c-.057-.069-.073-.133-.029-.169s.1,0,.186.1c.291.35.631.79.79.98.177.214,1.406,1.705,1.522,1.829s.219.2.271.251a.9.9,0,0,1,.118.082c.032.038.009.07-.02.094a3.369,3.369,0,0,0-.447.282c-.072.047-.356.257-.442.3-.035.017-.122.062-.165.009s-.015-.078.035-.121a.722.722,0,0,0,.19-.234c.065-.145.109-.271-.141-.631C4.5,1.661,3.85.848,3.736.712c-.026-.031-.06-.028-.1,0L2.1,1.993c-.037.03-.06.063-.028.1.127.153.85,1.021.991,1.161s.245.235.362.241c.088.017.143.009.169.039a.079.079,0,0,1-.022.109c-.036.03-.152.1-.5.324-.137.088-.4.28-.443.316s-.145.108-.2.048-.029-.079,0-.1c.06-.062.14-.129.208-.211.093-.141.118-.3-.069-.574-.087-.134-.706-.908-.845-1.076-.026-.03-.061-.014-.1.017l-.5.414C.923,2.973.39,3.4.213,3.564c-.412.369-.336.653.234,1.34a2.439,2.439,0,0,0,.607.565.682.682,0,0,0,.7-.094c.079-.04.12-.049.158,0s-.029.128-.1.183a5.294,5.294,0,0,1-.764.481c-.2.088-.25.027-.459-.224C.178,5.308-.151,4.9-.409,4.558s-.467-.591-.632-.789c-.063-.076-.191-.215-.324-.375s-.287-.316-.4-.452c-.07-.084-.086-.148-.042-.184s.085-.032.155.051a1.369,1.369,0,0,0,.218.218c.143.113.292.054.495-.076.288-.189.779-.6,1.35-1.072Z" transform="translate(1.833 1.174)"/>
        </g>
      </g>
      <g id="Group_4412" data-name="Group 4412" transform="translate(34.053 128.662)">
        <g id="Group_4411" data-name="Group 4411" transform="translate(0 0)">
          <path id="Path_2891" data-name="Path 2891" class="cls-3" d="M2.308,2.3a2.609,2.609,0,0,0,.047-3.842c-.724-.648-1.9-1.039-3.237.452A2.7,2.7,0,0,0-.905,2.884C-.447,3.293.771,4.013,2.308,2.3M-2.008-1.77c.92-1.028,2.868-1.688,4.84.076,1.64,1.467,1.879,3.252.64,4.636a3.347,3.347,0,0,1-4.935.031A3.228,3.228,0,0,1-2.008-1.77" transform="translate(2.805 2.791)"/>
        </g>
      </g>
      <g id="Group_4414" data-name="Group 4414" transform="translate(38.971 132.313)">
        <g id="Group_4413" data-name="Group 4413" transform="translate(0 0)">
          <path id="Path_2892" data-name="Path 2892" class="cls-3" d="M1.3,1.913c-.462.63-.792,1.1-.963,1.4-.117.21-.159.368.026.55a3.142,3.142,0,0,0,.327.276c.088.064.091.126.069.157-.034.046-.1.034-.2-.042C.106,3.921-.372,3.534-.556,3.4s-.649-.44-.912-.634c-.1-.07-.132-.121-.093-.174.023-.031.075-.051.155.008a1.316,1.316,0,0,0,.264.159c.166.075.3-.019.461-.193.235-.252.59-.736,1.052-1.365L1.216.046c.727-.99.862-1.174,1.007-1.387a.4.4,0,0,0-.045-.576,1.68,1.68,0,0,0-.263-.228c-.063-.047-.1-.111-.069-.157s.1-.02.213.062c.359.264.8.607,1,.754.272.2,1.824,1.351,2,1.466a2.579,2.579,0,0,0,.31.18c.045.021.1.014.14.044a.074.074,0,0,1,0,.1c-.034.046-.122.1-.27.251-.058.063-.356.435-.421.506-.048.048-.119.113-.168.078s-.066-.1-.009-.172a.623.623,0,0,0,.14-.275c.02-.128-.043-.327-.3-.528l-1.15-.88c-.04-.029-.075-.032-.131.045L2.036.908c-.029.038-.038.067,0,.1l.988.714c.12.088.216.159.325.227a.459.459,0,0,0,.38.1c.069-.009.107-.028.147,0,.023.017.023.053-.005.091s-.19.192-.366.381c-.112.119-.339.412-.373.458s-.116.14-.187.087c-.04-.029-.03-.093,0-.139a.727.727,0,0,0,.1-.235.442.442,0,0,0-.161-.484c-.165-.144-.99-.763-1.11-.85-.032-.023-.054-.027-.088.019Z" transform="translate(1.577 2.325)"/>
        </g>
      </g>
      <g id="Group_4416" data-name="Group 4416" transform="translate(46.09 135.863)">
        <g id="Group_4415" data-name="Group 4415" transform="translate(0 0)">
          <path id="Path_2893" data-name="Path 2893" class="cls-3" d="M1.53,1.974c-.468.894-.8,1.548-.875,1.713a2.012,2.012,0,0,0-.239.692c.03.22.279.577.973.94a3.271,3.271,0,0,0,2.338.45A2.935,2.935,0,0,0,5.565,4.054,3.17,3.17,0,0,0,5.827,1.5,4.032,4.032,0,0,0,3.775-.645a2.779,2.779,0,0,0-.6-.24.173.173,0,0,0-.194.114C2.821-.489,2.436.245,2.087.912ZM.919.471c.671-1.282.8-1.518.919-1.8.133-.3.133-.467-.125-.678a2.07,2.07,0,0,0-.329-.2c-.1-.051-.14-.1-.109-.155s.1-.043.233.026c.466.244,1.006.559,1.251.688.273.142.839.406,1.365.683,1.1.575,2.564,1.342,3.017,2.8a3.326,3.326,0,0,1-.27,2.589A3.705,3.705,0,0,1,4.68,6.278a4.622,4.622,0,0,1-3.463-.545C.9,5.568.554,5.354.234,5.154s-.615-.387-.834-.5C-.7,4.6-.89,4.5-1.105,4.4s-.439-.208-.615-.3c-.114-.06-.162-.117-.131-.176.022-.042.07-.049.176.006a1.651,1.651,0,0,0,.334.131c.193.059.335-.1.5-.33.23-.332.578-1,.985-1.774Z" transform="translate(1.86 2.4)"/>
        </g>
      </g>
      <g id="Group_4418" data-name="Group 4418" transform="translate(53.937 140.523)">
        <g id="Group_4417" data-name="Group 4417" transform="translate(0 0)">
          <path id="Path_2894" data-name="Path 2894" class="cls-3" d="M.933,1.114c.456-1.14.541-1.352.628-1.595.085-.264.042-.373-.187-.547a1.615,1.615,0,0,0-.311-.156C.979-1.216.935-1.264.956-1.318s.093-.045.212,0c.424.17.932.393,1.162.486.257.1,2.049.83,2.209.884s.29.075.358.091A1.019,1.019,0,0,1,5.04.163c.046.018.042.057.027.093a3.44,3.44,0,0,0-.259.461c-.041.076-.19.4-.244.476-.023.032-.077.113-.142.087s-.05-.061-.026-.123a.722.722,0,0,0,.055-.3C4.44.7,4.417.57,4.027.373,3.9.3,2.937-.1,2.771-.171c-.037-.014-.066,0-.084.049L1.945,1.734c-.018.045-.023.083.023.1.183.073,1.233.493,1.424.549s.327.091.432.04c.086-.027.131-.06.168-.045a.078.078,0,0,1,.032.1c-.018.045-.086.161-.284.523-.079.143-.217.436-.239.489s-.076.164-.15.134C3.3,3.609,3.29,3.575,3.3,3.54c.023-.083.061-.18.082-.285.014-.169-.042-.325-.335-.473C2.912,2.706,2,2.32,1.8,2.239c-.037-.015-.06.017-.078.061l-.241.6c-.1.256-.366.889-.446,1.114-.187.52.016.735.844,1.065a2.427,2.427,0,0,0,.8.208c.238-.007.393-.129.572-.417.05-.072.083-.1.138-.078s.035.127,0,.206a5.271,5.271,0,0,1-.443.787c-.133.172-.207.143-.51.021-.607-.243-1.091-.447-1.48-.623s-.692-.3-.932-.393c-.092-.037-.27-.1-.464-.175s-.4-.14-.568-.207c-.1-.041-.146-.089-.125-.142.014-.035.059-.069.16-.028a1.373,1.373,0,0,0,.3.088c.18.031.282-.092.4-.3.164-.3.4-.9.677-1.586Z" transform="translate(1.134 1.354)"/>
        </g>
      </g>
      <g id="Group_4420" data-name="Group 4420" transform="translate(58.786 142.471)">
        <g id="Group_4419" data-name="Group 4419" transform="translate(0 0)">
          <path id="Path_2895" data-name="Path 2895" class="cls-3" d="M.809,2.306c-.156.609-.1.822.041.924a1.533,1.533,0,0,0,.422.182c.1.028.132.079.119.124-.019.064-.1.06-.214.027C.634,3.405.251,3.264.1,3.22.023,3.2-.385,3.109-.813,2.984-.927,2.951-1,2.92-.979,2.847-.967,2.8-.9,2.781-.822,2.8a1.876,1.876,0,0,0,.391.075c.235.008.325-.193.531-.868L1.517-2.575c.045-.156.134-.248.22-.224.1.03.184.183.287.361C2.1-2.306,3-.707,3.882.79,4.3,1.5,5.09,2.917,5.182,3.062l.038.011.92-3.48c.129-.479.093-.638-.086-.769a1.524,1.524,0,0,0-.424-.173c-.1-.03-.122-.076-.109-.121.019-.064.107-.048.231-.012.438.128.88.276,1.06.328.1.027.415.1.824.22.115.033.188.064.169.128-.013.046-.072.069-.167.041a.913.913,0,0,0-.264-.048c-.248,0-.354.116-.491.551L5.361,4.612c-.051.174-.138.228-.2.208a.528.528,0,0,1-.3-.264C4.473,3.938,3.706,2.673,3.067,1.6,2.4.5,1.787-.7,1.665-.886L1.636-.894Z" transform="translate(0.983 2.803)"/>
        </g>
      </g>
      <g id="Group_4422" data-name="Group 4422" transform="translate(67.422 144.302)">
        <g id="Group_4421" data-name="Group 4421" transform="translate(0 0)">
          <path id="Path_2896" data-name="Path 2896" class="cls-3" d="M1.141.447-.142.243C-.64.162-.855.181-1.015.336a.931.931,0,0,0-.2.245c-.031.062-.057.1-.116.085S-1.4.606-1.381.522c.024-.131.329-.87.361-.932.038-.1.076-.141.125-.132.068.013.144.094.353.161A8.54,8.54,0,0,0,.31-.188L3.791.444a4.038,4.038,0,0,0,.592.069c.14.006.211,0,.241,0,.058.011.06.06.038.181-.031.168-.158.755-.195.961-.025.082-.053.126-.1.117C4.3,1.765,4.284,1.724,4.3,1.6L4.3,1.515c.017-.21-.162-.495-.931-.643L2.292.656,1.707,3.879c-.132.731-.236,1.36-.261,1.714-.011.23.01.389.257.472a3.347,3.347,0,0,0,.434.108c.1.018.128.072.121.109-.01.056-.084.072-.181.054C1.511,6.234.941,6.1.7,6.057.5,6.021-.088,5.944-.43,5.882c-.107-.02-.16-.058-.15-.115.007-.037.045-.079.152-.06a1.276,1.276,0,0,0,.307.027c.183-.006.258-.146.33-.376.1-.33.214-.958.347-1.688Z" transform="translate(1.387 0.543)"/>
        </g>
      </g>
      <g id="Group_4424" data-name="Group 4424" transform="translate(71.456 145.43)">
        <g id="Group_4423" data-name="Group 4423" transform="translate(0 0)">
          <path id="Path_2897" data-name="Path 2897" class="cls-3" d="M2,1.746c.039,0,.051-.014.045-.043L1.431-.426C1.424-.456,1.419-.5,1.4-.506s-.045.043-.057.071L.3,1.518c-.023.036-.006.057.024.06Zm-1.9.26c-.049-.005-.06,0-.085.049L-.555,3.088a1.408,1.408,0,0,0-.177.48c-.014.142.056.235.322.262l.128.013c.108.011.124.051.119.1-.007.066-.057.08-.146.071-.286-.029-.688-.1-.964-.125-.089-.008-.556-.026-1.009-.072-.109-.011-.156-.035-.15-.1,0-.048.038-.082.107-.076s.178.008.257.016c.4-.017.572-.248.791-.638L1.5-1.825c.122-.217.2-.306.289-.3.128.013.16.093.23.282.163.466,1.282,3.908,1.712,5.185.263.763.5.892.654.936a2.175,2.175,0,0,0,.322.061c.079.008.116.04.109.1s-.057.081-.383.048C4.13,4.457,3.5,4.394,2.77,4.3c-.157-.025-.256-.035-.25-.092s.027-.073.117-.074a.126.126,0,0,0,.1-.172L2.226,2.276a.082.082,0,0,0-.083-.066Z" transform="translate(2.431 2.122)"/>
        </g>
      </g>
      <g id="Group_4426" data-name="Group 4426" transform="translate(78.915 145.909)">
        <g id="Group_4425" data-name="Group 4425" transform="translate(0 0)">
          <path id="Path_2898" data-name="Path 2898" class="cls-3" d="M.882,1.716c-.02,1.038-.029,1.552.156,1.707.146.126.483.18,1.156.193.466.009.8.005,1.025-.209a.954.954,0,0,0,.227-.482c.011-.076.032-.123.1-.122s.078.087.076.182a5.989,5.989,0,0,1-.146.931c-.063.18-.1.217-.559.208-.624-.012-1.13-.031-1.565-.057S.552,4.034.2,4.027c-.1,0-.288,0-.5,0s-.427.011-.6.008c-.109,0-.168-.032-.167-.089,0-.038.032-.085.14-.083A1.348,1.348,0,0,0-.625,3.84c.18-.035.232-.187.266-.424.046-.342.058-.98.072-1.722L-.26.266c.023-1.228.027-1.456.022-1.713-.015-.276-.093-.363-.368-.445a1.218,1.218,0,0,0-.287-.034q-.148,0-.147-.088c0-.057.061-.075.19-.072.406.008.961.037,1.2.041.208,0,.922,0,1.259,0,.129,0,.188.023.187.08s-.051.085-.16.082a2.023,2.023,0,0,0-.338.023c-.239.033-.31.146-.335.432C.936-1.168.932-.94.909.288Z" transform="translate(1.073 2.086)"/>
        </g>
      </g>
      <g id="Group_4428" data-name="Group 4428" transform="translate(86.831 143.728)">
        <g id="Group_4427" data-name="Group 4427" transform="translate(0)">
          <path id="Path_2899" data-name="Path 2899" class="cls-3" d="M.406.472C.414.307.462.214.54.2s.143.029.3.257L4.234,5.427,6.19-.317c.059-.162.1-.244.186-.255s.16.075.216.269L8.261,5.41c.167.583.3.843.608.89a2.078,2.078,0,0,0,.621.014c.088-.012.159-.012.166.045.01.076-.1.12-.242.138-.246.032-1.605.184-2,.208-.229.011-.291-.009-.3-.066s.029-.081.094-.119.069-.153,0-.412L6.062,2.034l-.039.005L4.45,6.608c-.167.473-.2.566-.294.577s-.211-.164-.406-.426c-.294-.4-1.261-1.744-1.414-1.992-.115-.187-.862-1.3-1.3-1.96L1,2.813.985,6.637a3.582,3.582,0,0,0,.029.448c.024.179.163.247.335.263a2,2,0,0,0,.419-.008c.079-.011.15,0,.156.046.011.085-.075.116-.222.135-.412.055-.859.085-1.035.109s-.654.116-.969.158c-.1.013-.179,0-.19-.08-.006-.048.05-.074.148-.087a1.316,1.316,0,0,0,.291-.068c.267-.093.3-.471.3-.8Z" transform="translate(0.493 0.573)"/>
        </g>
      </g>
      <g id="Group_4430" data-name="Group 4430" transform="translate(95.991 143.447)">
        <g id="Group_4429" data-name="Group 4429" transform="translate(0 0)">
          <path id="Path_2900" data-name="Path 2900" class="cls-3" d="M.636,1.435C.338.244.282.022.21-.225.123-.488.026-.551-.262-.558A1.658,1.658,0,0,0-.606-.5c-.087.022-.151.008-.165-.047S-.722-.64-.6-.671C-.155-.782.388-.9.629-.958c.269-.067,2.146-.527,2.308-.578s.279-.109.344-.135a1.06,1.06,0,0,1,.125-.071c.048-.012.066.023.076.06a3.384,3.384,0,0,0,.06.525c.011.085.078.432.082.529,0,.039,0,.137-.064.153s-.076-.02-.092-.085a.747.747,0,0,0-.13-.272c-.1-.122-.2-.216-.629-.146-.149.017-1.164.251-1.337.3-.039.01-.051.042-.039.088l.486,1.94c.011.046.03.08.079.069.192-.048,1.288-.323,1.476-.39S3.691.906,3.748.8c.053-.072.07-.125.109-.135a.078.078,0,0,1,.088.066c.011.047.025.18.076.59.02.162.079.481.093.536s.035.178-.042.2c-.057.014-.084-.008-.093-.045-.031-.081-.056-.182-.1-.279-.088-.144-.224-.238-.547-.187-.159.02-1.125.242-1.337.3-.039.01-.039.049-.027.1l.157.628c.067.268.224.936.291,1.164.154.531.443.586,1.309.369A2.429,2.429,0,0,0,4.5,3.8a.681.681,0,0,0,.22-.674c0-.088.008-.13.066-.144s.1.082.123.165a5.268,5.268,0,0,1,.1.9c-.007.217-.084.236-.4.316-.634.159-1.146.277-1.565.362s-.735.165-.985.227c-.1.024-.276.079-.478.13S1.17,5.2,1,5.242C.891,5.268.826,5.255.812,5.2.8,5.163.821,5.109.927,5.083a1.325,1.325,0,0,0,.291-.1c.164-.081.175-.24.146-.479-.045-.342-.2-.961-.38-1.681Z" transform="translate(0.773 1.745)"/>
        </g>
      </g>
      <g id="Group_4432" data-name="Group 4432" transform="translate(100.789 141.9)">
        <g id="Group_4431" data-name="Group 4431" transform="translate(0 0)">
          <path id="Path_2901" data-name="Path 2901" class="cls-3" d="M1.353,1.751c.287.807.5,1.387.568,1.536a1.431,1.431,0,0,0,.285.505c.154.106.538.152,1.183-.077A2.834,2.834,0,0,0,5,2.556,2.418,2.418,0,0,0,5.023.414,2.583,2.583,0,0,0,3.58-1.215a3.618,3.618,0,0,0-2.556.091A1.9,1.9,0,0,0,.539-.89.142.142,0,0,0,.49-.7C.573-.438.8.19,1.011.791ZM-.05,1.3C-.461.143-.538-.072-.633-.312c-.112-.253-.215-.307-.5-.286a1.664,1.664,0,0,0-.336.089c-.085.03-.15.023-.169-.03s.04-.1.162-.139C-1.05-.83-.52-1-.287-1.082c.252-.09.834-.317,1.329-.493,1.027-.365,2.41-.857,3.616-.307A2.778,2.778,0,0,1,6.123-.219a3.079,3.079,0,0,1-.14,2.444A4.166,4.166,0,0,1,3.547,4.1c-.3.106-.663.206-1,.3s-.642.177-.847.251c-.094.033-.268.106-.464.175s-.395.161-.563.22c-.1.037-.168.03-.187-.024-.013-.035,0-.091.1-.127a1.315,1.315,0,0,0,.28-.13c.156-.1.151-.256.1-.49C.892,3.946.678,3.345.429,2.645Z" transform="translate(1.644 2.128)"/>
        </g>
      </g>
      <g id="Group_4434" data-name="Group 4434" transform="translate(108.03 139.634)">
        <g id="Group_4433" data-name="Group 4433" transform="translate(0 0)">
          <path id="Path_2902" data-name="Path 2902" class="cls-3" d="M.742,1.305C.231.188.137-.02.021-.25-.112-.493-.232-.543-.427-.516a1.152,1.152,0,0,0-.3.1c-.082.037-.134.04-.166-.029-.02-.044.035-.09.162-.148.3-.136.846-.365,1.072-.468.2-.091.7-.343,1.01-.483.1-.045.171-.057.19-.013.032.069-.005.106-.087.144a1.246,1.246,0,0,0-.223.133c-.2.133-.216.266-.116.534C1.2-.506,1.3-.3,1.806.82l.593,1.3c.325.711.594,1.3.772,1.595a.359.359,0,0,0,.473.2,3.42,3.42,0,0,0,.418-.159c.091-.042.146-.014.162.02.023.052-.028.106-.118.148-.523.239-1.076.459-1.292.558-.18.082-.71.356-1.025.5-.1.045-.165.044-.189-.008-.016-.035-.008-.09.091-.135a1.309,1.309,0,0,0,.268-.154c.146-.109.144-.233.072-.462-.1-.319-.372-.908-.7-1.619Z" transform="translate(0.902 1.587)"/>
        </g>
      </g>
      <g id="Group_4436" data-name="Group 4436" transform="translate(112.076 136.585)">
        <g id="Group_4435" data-name="Group 4435" transform="translate(0 0)">
          <path id="Path_2903" data-name="Path 2903" class="cls-3" d="M1.118,3.139A2.941,2.941,0,0,1-.994,1.578,2.953,2.953,0,0,1-1.177-.857a4.035,4.035,0,0,1,2-2.09,9.284,9.284,0,0,1,1.152-.54c.309-.117.587-.207.827-.307.091-.04.136-.021.159.021.032.058.061.151.182.41.112.243.329.634.4.781.047.1.063.194-.007.233s-.11-.015-.161-.106a1.121,1.121,0,0,0-.66-.495,2.537,2.537,0,0,0-1.7.4,2.42,2.42,0,0,0-1.217,1.2A2.57,2.57,0,0,0,.113.877,2.752,2.752,0,0,0,3.864,2.042C4.54,1.667,4.885,1.41,5.008.917A1.276,1.276,0,0,0,5,.3C4.963.181,4.961.138,5.022.1s.123.019.156.077a6.907,6.907,0,0,1,.357,1.032.288.288,0,0,1-.084.319,5.3,5.3,0,0,1-1.291.923,4.607,4.607,0,0,1-3.042.685" transform="translate(1.359 3.816)"/>
        </g>
      </g>
      <g id="Group_4438" data-name="Group 4438" transform="translate(116.839 134.621)">
        <g id="Group_4437" data-name="Group 4437" transform="translate(0 0)">
          <path id="Path_2904" data-name="Path 2904" class="cls-3" d="M.858,1.342C.179.319.053.128-.1-.08-.267-.3-.394-.329-.582-.273a1.164,1.164,0,0,0-.285.143c-.074.049-.126.061-.168,0-.026-.04.021-.094.137-.171C-.627-.484-.121-.8.086-.934c.181-.12.642-.449.923-.635.091-.06.159-.083.185-.043.042.063.011.106-.063.156a1.273,1.273,0,0,0-.2.167C.755-1.126.76-.992.9-.743c.126.225.252.415.932,1.439l.79,1.19c.431.651.789,1.191,1.012,1.454a.359.359,0,0,0,.5.125,3.424,3.424,0,0,0,.387-.223c.082-.055.142-.037.163-.005.032.048-.011.109-.093.165-.48.318-.991.623-1.189.754-.165.109-.645.462-.934.654-.091.06-.156.069-.188.022-.021-.032-.023-.088.068-.148a1.323,1.323,0,0,0,.241-.194c.127-.13.106-.253,0-.467-.151-.3-.509-.84-.941-1.49Z" transform="translate(1.043 1.632)"/>
        </g>
      </g>
      <g id="Group_4440" data-name="Group 4440" transform="translate(120.231 129.746)">
        <g id="Group_4439" data-name="Group 4439" transform="translate(0 0)">
          <path id="Path_2905" data-name="Path 2905" class="cls-3" d="M1.663,3.4c.409.478.612.558.78.5a1.509,1.509,0,0,0,.391-.24c.078-.062.14-.063.17-.026.042.052-.008.116-.1.191-.441.353-.776.585-.9.685-.062.049-.368.332-.717.611-.093.074-.161.116-.208.057-.029-.038-.008-.1.054-.154a1.837,1.837,0,0,0,.285-.278c.143-.187.029-.376-.4-.932L-1.926.019c-.1-.126-.126-.253-.057-.309.085-.068.255-.046.461-.027.15.014,1.975.2,3.71.332C3,.082,4.623.248,4.795.256L4.826.231,2.505-2.52c-.318-.38-.469-.442-.679-.371a1.517,1.517,0,0,0-.386.248c-.085.069-.132.057-.162.02-.042-.052.022-.116.122-.2.356-.285.731-.562.878-.68.077-.062.32-.282.653-.548.093-.075.16-.117.2-.065.029.037.014.1-.063.16a.921.921,0,0,0-.191.19c-.144.2-.109.356.17.718L6.166,1c.113.141.106.244.052.288a.523.523,0,0,1-.385.089c-.729-.038-2.2-.135-3.447-.226C1.1,1.062-.237.873-.458.867L-.481.886Z" transform="translate(2.022 4.135)"/>
        </g>
      </g>
      <g id="Group_4442" data-name="Group 4442" transform="translate(125.656 126.253)">
        <g id="Group_4441" data-name="Group 4441" transform="translate(0 0)">
          <path id="Path_2906" data-name="Path 2906" class="cls-3" d="M1.009,1.879C.146,1.005-.014.842-.2.666A.4.4,0,0,0-.777.619a1.707,1.707,0,0,0-.267.224c-.063.063-.126.084-.166.043s0-.1.088-.193C-.8.372-.39,0-.214-.178c.2-.195,1.58-1.546,1.693-1.671s.185-.236.227-.291a1.121,1.121,0,0,1,.072-.125c.035-.035.069-.015.1.012a3.4,3.4,0,0,0,.319.421c.054.068.287.333.34.415.02.034.072.116.023.165s-.076.021-.123-.026a.734.734,0,0,0-.249-.168c-.15-.053-.279-.085-.617.193-.119.091-.873.809-1,.934-.028.028-.022.062.011.1L1.982,1.2c.033.034.067.054.1.02.141-.14.945-.933,1.073-1.086s.213-.264.209-.381c.009-.09,0-.144.025-.172A.077.077,0,0,1,3.5-.408c.033.034.113.143.365.469.1.129.313.373.353.414s.12.136.063.192S4.207.7,4.18.675C4.113.621,4.04.547,3.951.486,3.8.406,3.638.394,3.385.6c-.126.1-.845.781-1,.934-.028.028-.008.062.025.1l.455.461c.194.2.669.691.843.853.4.379.68.279,1.314-.347a2.435,2.435,0,0,0,.512-.652.681.681,0,0,0-.153-.692c-.046-.075-.059-.116-.017-.158s.13.019.19.08A5.26,5.26,0,0,1,6.1,1.9c.1.191.048.246-.185.476-.465.459-.846.822-1.162,1.108s-.55.516-.733.7c-.07.069-.2.209-.346.355s-.29.313-.417.439c-.078.076-.14.1-.18.057s-.039-.082.039-.159a1.344,1.344,0,0,0,.2-.236c.1-.153.028-.3-.118-.486-.213-.272-.661-.726-1.183-1.254Z" transform="translate(1.227 2.284)"/>
        </g>
      </g>
      <g id="Group_4444" data-name="Group 4444" transform="translate(131.686 125.224)">
        <g id="Group_4443" data-name="Group 4443" transform="translate(0 0)">
          <path id="Path_2907" data-name="Path 2907" class="cls-3" d="M.882.08C1-.054,1.1-.146,1.191-.071S1.2.163,1.055.4C.837.739-.127,2.306-.283,2.63c-.1.18-.12.369-.173.428s-.122.025-.181-.053l-.4-.544c-.066-.1-.048-.134.063-.261Z" transform="translate(1.072 0.098)"/>
        </g>
      </g>
      <g id="Group_4446" data-name="Group 4446" transform="translate(131.137 119.629)">
        <g id="Group_4445" data-name="Group 4445" transform="translate(0 0)">
          <path id="Path_2908" data-name="Path 2908" class="cls-3" d="M1.211,1.484C.061.6-.151.442-.4.273-.673.092-.862.072-1.033.217A1.476,1.476,0,0,0-1.28.477c-.06.079-.112.114-.172.068C-1.5.51-1.464.436-1.367.31c.229-.3.631-.778.8-1.007.151-.2.483-.678.712-.978.079-.1.142-.153.187-.119.06.046.039.1-.021.183a1.871,1.871,0,0,0-.158.254c-.125.242-.045.4.208.621.23.2.442.363,1.591,1.243L3.288,1.526c.734.561,1.331,1.018,1.68,1.235.223.132.4.181.612-.032a4.436,4.436,0,0,0,.338-.378c.066-.087.119-.109.157-.08.053.041.027.122-.039.208-.4.52-.8,1-.962,1.21-.138.181-.5.695-.736,1.01-.078.1-.143.14-.2.1-.038-.029-.037-.078.035-.172a1.628,1.628,0,0,0,.187-.307c.091-.18,0-.326-.2-.517-.288-.282-.885-.74-1.618-1.3Z" transform="translate(1.472 1.804)"/>
        </g>
      </g>
      <g id="Group_4448" data-name="Group 4448" transform="translate(134.23 117.311)">
        <g id="Group_4447" data-name="Group 4447" transform="translate(0 0)">
          <path id="Path_2909" data-name="Path 2909" class="cls-3" d="M1.9,1.238c.868.569,1.3.852,1.528.778.185-.057.409-.312.779-.876.256-.389.433-.676.369-.979A.954.954,0,0,0,4.29-.288C4.232-.338,4.2-.381,4.241-.439s.115-.02.195.033a5.983,5.983,0,0,1,.709.619c.119.15.128.2-.122.584-.343.522-.628.939-.883,1.294s-.457.661-.652.959c-.054.083-.15.246-.264.42s-.217.367-.316.516c-.06.091-.116.125-.164.094-.032-.021-.055-.072,0-.163a1.352,1.352,0,0,0,.144-.273c.066-.17-.034-.3-.217-.451-.264-.221-.8-.571-1.419-.979L.064,1.432C-.963.758-1.154.633-1.375.5a.4.4,0,0,0-.572.074A1.215,1.215,0,0,0-2.129.8c-.054.083-.1.109-.153.077s-.032-.091.039-.2c.223-.339.544-.793.674-.992.114-.174.489-.781.674-1.062.071-.108.119-.147.167-.116s.045.088-.015.18a2,2,0,0,0-.161.3C-1-.8-.944-.677-.716-.5c.2.158.395.283,1.422.957Z" transform="translate(2.309 1.504)"/>
        </g>
      </g>
      <g id="Group_4450" data-name="Group 4450" transform="translate(136.927 113.021)">
        <g id="Group_4449" data-name="Group 4449" transform="translate(0 0)">
          <path id="Path_2910" data-name="Path 2910" class="cls-3" d="M1.909,1.133c.912.495,1.365.74,1.588.647.18-.072.382-.345.7-.938.222-.409.375-.71.286-1.006a.96.96,0,0,0-.323-.424C4.1-.632,4.069-.673,4.1-.733s.113-.029.2.017a5.9,5.9,0,0,1,.759.558c.131.138.145.191-.072.592-.3.549-.547.989-.772,1.363s-.4.7-.569,1.01c-.048.087-.129.257-.228.44s-.187.384-.272.541c-.052.1-.1.134-.156.107-.033-.018-.061-.067-.009-.163A1.306,1.306,0,0,0,3.1,3.448c.051-.174-.059-.291-.254-.43-.282-.2-.843-.5-1.5-.856L.1,1.48C-.984.894-1.185.786-1.416.671A.4.4,0,0,0-1.98.794a1.213,1.213,0,0,0-.162.239c-.048.088-.1.117-.146.09s-.039-.088.023-.2c.194-.357.476-.836.589-1.045.1-.183.423-.819.583-1.115.062-.113.107-.157.157-.129s.052.084,0,.18a2,2,0,0,0-.136.31c-.08.227-.012.342.23.5.216.14.417.249,1.5.834Z" transform="translate(2.32 1.377)"/>
        </g>
      </g>
      <g id="Group_4452" data-name="Group 4452" transform="translate(139.298 108.573)">
        <g id="Group_4451" data-name="Group 4451" transform="translate(0 0)">
          <path id="Path_2911" data-name="Path 2911" class="cls-3" d="M1.09,1.211C-.03.707-.238.612-.477.516-.737.42-.86.463-.99.611a1.149,1.149,0,0,0-.165.273C-1.191.966-1.229,1-1.3.972c-.043-.02-.032-.091.025-.217.134-.3.4-.833.5-1.059.089-.2.3-.722.443-1.029.045-.1.091-.155.134-.135.069.031.066.085.03.165a1.246,1.246,0,0,0-.08.247c-.063.233.013.343.265.478C.243-.454.45-.36,1.57.145l1.3.587c.711.32,1.3.587,1.63.691a.359.359,0,0,0,.49-.159A3.429,3.429,0,0,0,5.2.868c.041-.091.1-.107.135-.091.052.023.05.1.009.189-.236.524-.507,1.054-.6,1.272-.082.18-.3.735-.443,1.051-.045.1-.1.141-.147.118-.035-.015-.066-.062-.021-.162a1.319,1.319,0,0,0,.1-.291c.039-.179-.045-.271-.25-.4-.287-.173-.877-.439-1.59-.76Z" transform="translate(1.325 1.472)"/>
        </g>
      </g>
      <g id="Group_4454" data-name="Group 4454" transform="translate(140.852 101.112)">
        <g id="Group_4453" data-name="Group 4453" transform="translate(0 0)">
          <path id="Path_2912" data-name="Path 2912" class="cls-3" d="M2.286,3.217c.6.183.817.14.925,0a1.512,1.512,0,0,0,.2-.414c.032-.094.084-.128.129-.113.063.022.056.1.017.216-.181.535-.338.911-.389,1.061-.026.075-.132.478-.276.9-.038.113-.072.184-.145.16-.045-.015-.062-.084-.036-.159A1.923,1.923,0,0,0,2.8,4.48c.019-.234-.179-.332-.843-.568L-2.56,2.3c-.153-.052-.242-.145-.214-.23.035-.1.19-.176.373-.271C-2.266,1.728-.629.9.906.081,1.628-.3,3.083-1.034,3.232-1.12l.013-.038L-.192-2.227c-.473-.149-.634-.12-.772.053a1.539,1.539,0,0,0-.191.417c-.035.1-.081.119-.125.1-.063-.022-.044-.109,0-.231.146-.432.313-.867.374-1.045.032-.094.119-.41.256-.814.038-.113.072-.185.135-.163.045.015.066.074.034.168a.894.894,0,0,0-.059.262c-.014.247.1.359.529.514l4.8,1.731c.171.058.221.149.2.214a.523.523,0,0,1-.277.282C4.076-.373,2.778.339,1.683.931.548,1.551-.676,2.109-.866,2.223l-.009.028Z" transform="translate(2.779 3.911)"/>
        </g>
      </g>
      <g id="Group_4456" data-name="Group 4456" transform="translate(143.573 94.399)">
        <g id="Group_4455" data-name="Group 4455" transform="translate(0 0)">
          <path id="Path_2913" data-name="Path 2913" class="cls-3" d="M1.718.632A2.609,2.609,0,0,0-1.616,2.541c-.191.952.07,2.167,2.031,2.561a2.7,2.7,0,0,0,3.44-2c.121-.6.123-2.017-2.136-2.47M.4,6.413C-.95,6.142-2.506,4.8-1.986,2.2-1.554.047-.136-1.064,1.684-.7a3.347,3.347,0,0,1,2.53,4.237A3.229,3.229,0,0,1,.4,6.413" transform="translate(2.089 0.768)"/>
        </g>
      </g>
      <g id="Group_4458" data-name="Group 4458" transform="translate(144.449 90.919)">
        <g id="Group_4457" data-name="Group 4457" transform="translate(0 0)">
          <path id="Path_2914" data-name="Path 2914" class="cls-3" d="M1.08.967C-.141.838-.368.813-.625.8c-.277-.01-.381.069-.458.251a1.155,1.155,0,0,0-.072.311c-.009.088-.033.136-.109.128-.047,0-.059-.076-.044-.214.035-.325.116-.915.143-1.161.023-.217.064-.781.1-1.115.011-.109.038-.176.085-.171.076.008.089.06.08.148a1.245,1.245,0,0,0,0,.26c.013.24.119.321.4.372.254.047.481.071,1.7.2l1.42.151C3.4.038,4.044.107,4.389.1,4.611.1,4.74.051,4.8-.2a3.366,3.366,0,0,0,.076-.44c.011-.1.062-.133.1-.129.057.006.078.079.067.177C4.987-.023,4.9.566,4.87.8c-.021.2-.056.792-.092,1.137-.011.108-.047.165-.1.159-.038,0-.082-.039-.07-.147a1.386,1.386,0,0,0,0-.309c-.02-.181-.128-.242-.361-.3C3.92,1.269,3.277,1.2,2.5,1.118Z" transform="translate(1.313 1.176)"/>
        </g>
      </g>
      <g id="Group_4460" data-name="Group 4460" transform="translate(144.77 86.115)">
        <g id="Group_4459" data-name="Group 4459" transform="translate(0)">
          <path id="Path_2915" data-name="Path 2915" class="cls-3" d="M2.734,1.715c-.062.137-.1.165-.282.159-.437-.014-.941-.07-1.074-.085s-.208-.047-.205-.116.079-.086.136-.085a1.427,1.427,0,0,0,.421-.066A1.356,1.356,0,0,0,2.576.162,1.078,1.078,0,0,0,1.587-1.08c-.352-.011-.707.066-1.17.825l-.3.5C-.5,1.252-1.053,1.571-1.766,1.547-2.756,1.515-3.361.5-3.322-.705a5.423,5.423,0,0,1,.174-1.234c.022-.079.052-.117.109-.116.1,0,.332.041.97.062.171.005.256.048.254.117s-.051.088-.146.085A.9.9,0,0,0-2.5-1.58a1.194,1.194,0,0,0-.412.958C-2.935,0-2.64.577-2.088.6c.362.011.652-.118,1.1-.887l.2-.35C-.143-1.771.488-2.108,1.22-2.083A1.714,1.714,0,0,1,2.7-1.162,2.63,2.63,0,0,1,2.99.305a3.843,3.843,0,0,1-.256,1.41" transform="translate(3.324 2.085)"/>
        </g>
      </g>
    </g>
  </g>
</svg>
