<svg xmlns="http://www.w3.org/2000/svg" xmlns:xlink="http://www.w3.org/1999/xlink" width="164" height="164" viewBox="0 0 164 164">
  <defs>
    <style>
      .cls-1 {
        fill: none;
      }

      .cls-2 {
        clip-path: url(#clip-path);
      }

      .cls-3 {
        fill: #2b2e34;
      }
    </style>
    <clipPath id="clip-path">
      <path id="Path_2972" data-name="Path 2972" class="cls-1" d="M0,74.049H164v-164H0Z" transform="translate(0 89.951)"/>
    </clipPath>
  </defs>
  <g id="Group_4574" data-name="Group 4574" transform="translate(0 89.951)">
    <g id="Group_4573" data-name="Group 4573" class="cls-2" transform="translate(0 -89.951)">
      <g id="Group_4464" data-name="Group 4464" transform="translate(136.856 146.482)">
        <g id="Group_4463" data-name="Group 4463" transform="translate(0 0)">
          <path id="Path_2917" data-name="Path 2917" class="cls-3" d="M2.255,2.127q.31,0,.587-.02a1.494,1.494,0,0,0,.493-.115.773.773,0,0,0,.344-.29.991.991,0,0,0,.128-.547A.853.853,0,0,0,3.692.683a.772.772,0,0,0-.3-.27A1.3,1.3,0,0,0,2.977.285,3.29,3.29,0,0,0,2.511.251H1.3V2.127Zm.4-2.618a2.415,2.415,0,0,1,1.559.418A1.551,1.551,0,0,1,4.725,1.2a1.433,1.433,0,0,1-.445,1.167A1.993,1.993,0,0,1,3.173,2.8l1.687,2.6H3.874L2.269,2.869H1.3V5.406H.379v-5.9ZM-1.5,4.158a4.2,4.2,0,0,0,.877,1.37A4.064,4.064,0,0,0,.7,6.439a4.111,4.111,0,0,0,1.653.331,4.035,4.035,0,0,0,1.634-.331A4.084,4.084,0,0,0,5.3,5.528a4.21,4.21,0,0,0,.877-1.37,4.574,4.574,0,0,0,.317-1.721A4.45,4.45,0,0,0,6.175.75,4.168,4.168,0,0,0,5.3-.607a4.147,4.147,0,0,0-1.316-.9,4.035,4.035,0,0,0-1.634-.331A4.118,4.118,0,0,0-.627-.607,4.158,4.158,0,0,0-1.5.75a4.45,4.45,0,0,0-.317,1.687A4.574,4.574,0,0,0-1.5,4.158m-.83-3.7a5.007,5.007,0,0,1,1.1-1.593A5.125,5.125,0,0,1,.385-2.2a5.061,5.061,0,0,1,1.964-.385A5.011,5.011,0,0,1,4.306-2.2,5.024,5.024,0,0,1,7.005.453a4.86,4.86,0,0,1,.4,1.984,4.968,4.968,0,0,1-.4,2.017A5.107,5.107,0,0,1,5.912,6.061,4.9,4.9,0,0,1,4.306,7.12,5.089,5.089,0,0,1,2.349,7.5,5.139,5.139,0,0,1,.385,7.12,4.964,4.964,0,0,1-1.233,6.061a5.053,5.053,0,0,1-1.1-1.607,4.981,4.981,0,0,1-.4-2.017,4.872,4.872,0,0,1,.4-1.984" transform="translate(2.739 2.583)"/>
        </g>
      </g>
      <g id="Group_4466" data-name="Group 4466" transform="translate(0 -0.001)">
        <g id="Group_4465" data-name="Group 4465" transform="translate(0 0)">
          <path id="Path_2918" data-name="Path 2918" class="cls-3" d="M37.024,73.392A80.015,80.015,0,0,1-19.928,49.8,80.02,80.02,0,0,1-43.519-7.154,80.015,80.015,0,0,1-19.928-64.107,80.016,80.016,0,0,1,37.024-87.7,80.635,80.635,0,0,1,117.568-7.154,80.636,80.636,0,0,1,37.024,73.392m0-162.545A81.464,81.464,0,0,0-20.958-65.136,81.461,81.461,0,0,0-44.975-7.154,81.465,81.465,0,0,0-20.958,50.832,81.462,81.462,0,0,0,37.024,74.848,81.462,81.462,0,0,0,95,50.832a81.465,81.465,0,0,0,24.02-57.986,82.093,82.093,0,0,0-82-82" transform="translate(44.975 89.153)"/>
        </g>
      </g>
      <g id="Group_4468" data-name="Group 4468" transform="translate(2.494 2.487)">
        <g id="Group_4467" data-name="Group 4467" transform="translate(0 0)">
          <path id="Path_2919" data-name="Path 2919" class="cls-3" d="M35.9,70.47A76.653,76.653,0,0,1-40.666-6.1,76.65,76.65,0,0,1,35.9-82.661,76.649,76.649,0,0,1,112.461-6.1,76.652,76.652,0,0,1,35.9,70.47M35.9-85.6A79.6,79.6,0,0,0-43.608-6.1,79.6,79.6,0,0,0,35.9,73.411,79.6,79.6,0,0,0,115.4-6.1,79.594,79.594,0,0,0,35.9-85.6" transform="translate(43.608 85.603)"/>
        </g>
      </g>
      <g id="Group_4470" data-name="Group 4470" transform="translate(25.376 25.53)">
        <g id="Group_4469" data-name="Group 4469">
          <path id="Path_2920" data-name="Path 2920" class="cls-3" d="M25.451,49.575A53.487,53.487,0,0,1-27.975-3.851,53.487,53.487,0,0,1,25.451-57.28,53.489,53.489,0,0,1,78.88-3.851a53.489,53.489,0,0,1-53.43,53.426m0-109.8A56.433,56.433,0,0,0-30.916-3.851,56.431,56.431,0,0,0,25.451,52.517,56.433,56.433,0,0,0,81.822-3.851,56.434,56.434,0,0,0,25.451-60.222" transform="translate(30.916 60.222)"/>
        </g>
      </g>
      <g id="Group_4472" data-name="Group 4472" transform="translate(12.329 61.307)">
        <g id="Group_4471" data-name="Group 4471" transform="translate(0 0)">
          <path id="Path_2921" data-name="Path 2921" class="cls-3" d="M3.271,4.61c.366.142.777.331.772.656A1.549,1.549,0,0,1,4,5.605c-.025.109-.019.183.036.193.1.025.144-.058.169-.168.084-.353.176-.89.225-1.1s.2-.687.307-1.149c.04-.166.041-.27-.061-.293-.055-.013-.094.058-.115.145a2.271,2.271,0,0,1-.165.453.375.375,0,0,1-.435.247,4.285,4.285,0,0,1-.514-.153l-4.293-1.6.01-.046C.088,1.939,1.646,1.6,1.9,1.557,2.245,1.5,4.152,1.02,4.728.875c.376-.1.625-.157.647-.256S5.311.44,4.847.063L.364-3.514l.009-.043,5.053.473c.322.028.457.094.464.168s.039.135.094.147.117-.04.2-.289c.137-.436.53-1.949.6-2.224.036-.155.034-.295-.055-.316-.067-.017-.1.058-.119.158a2.3,2.3,0,0,1-.273.658c-.178.308-.527.344-1.251.28l-7.113-.593c-.241-.02-.368.02-.391.12s.05.185.209.305L3.43-.193-3.555,1.36c-.323.077-.394.13-.415.22s.064.178.246.254Z" transform="translate(3.974 5.6)"/>
        </g>
      </g>
      <g id="Group_4474" data-name="Group 4474" transform="translate(15.828 53.988)">
        <g id="Group_4473" data-name="Group 4473" transform="translate(0 0)">
          <path id="Path_2922" data-name="Path 2922" class="cls-3" d="M.019,1.416c.085.033.132-.022.174-.127A1.6,1.6,0,0,1,.386.927C.53.714.752.681,1.123.8c.349.112.646.226,2.262.858l1.872.73c1.031.4,1.871.73,2.3.96.295.15.45.284.409.511a1.757,1.757,0,0,1-.107.4c-.05.127-.035.181.018.2.074.031.136-.033.19-.168.168-.422.4-1.1.5-1.341.111-.285.408-.937.684-1.634.046-.117.047-.214-.027-.241-.053-.02-.106.02-.153.135a4.664,4.664,0,0,1-.255.521c-.168.3-.389.3-.688.219-.475-.137-1.314-.463-2.346-.868L3.9.35C2.288-.278,1.99-.4,1.66-.55c-.364-.165-.512-.32-.453-.626A1.913,1.913,0,0,1,1.3-1.5c.043-.106.046-.178-.04-.211-.064-.025-.118.051-.173.188C.929-1.126.714-.492.61-.227.49.078.193.729.036,1.131c-.068.168-.081.262-.016.285" transform="translate(0.023 1.72)"/>
        </g>
      </g>
      <g id="Group_4476" data-name="Group 4476" transform="translate(18.292 44.329)">
        <g id="Group_4475" data-name="Group 4475" transform="translate(0 0)">
          <path id="Path_2923" data-name="Path 2923" class="cls-3" d="M.956,1.75A4.517,4.517,0,0,1,3.538-.5a3.9,3.9,0,0,1,3.029.435A3.579,3.579,0,0,1,8.581,2.137a3.626,3.626,0,0,1-.565,2.674c-.442.781-.868,1.05-1.13,1.074a2.562,2.562,0,0,1-.82-.31c-.194-.1-.967-.511-2.025-1.1l-1.256-.7C2,3.34,1.129,2.859.8,2.661a.2.2,0,0,1-.133-.229A2.974,2.974,0,0,1,.956,1.75M-.933,4.429A2.344,2.344,0,0,1-.687,4.06c.256-.287.46-.28.81-.112.33.157.609.313,2.125,1.155L4,6.075c.917.511,1.7.947,2.094,1.229.268.2.46.372.388.591a1.73,1.73,0,0,1-.16.379c-.067.12-.058.175-.01.2.07.037.139-.016.211-.143.223-.4.545-1.035.672-1.264.28-.493.9-1.317,1.308-2.037A5.135,5.135,0,0,0,9.2,1.065,4.509,4.509,0,0,0,7.024-1.557,4.125,4.125,0,0,0,3.95-2C2.205-1.555,1.274.1.577,1.333c-.334.592-.657,1.231-.83,1.539-.155.277-.538.883-.832,1.407-.085.148-.1.229-.033.267s.123-.007.184-.117" transform="translate(1.161 2.126)"/>
        </g>
      </g>
      <g id="Group_4478" data-name="Group 4478" transform="translate(24.182 30.923)">
        <g id="Group_4477" data-name="Group 4477" transform="translate(0 0)">
          <path id="Path_2924" data-name="Path 2924" class="cls-3" d="M.1,4.407a1.02,1.02,0,0,1,.373-.28,1.689,1.689,0,0,1,.893.2l7.1,2.816c.285.119.418.157.493.071.088-.1.02-.234-.2-.7-.485-1.045-2.592-4.785-2.9-5.324l.014-.018,5.905,1.87c.433.14.583.175.656.089.1-.112.028-.242-.195-.593-.947-1.524-2.946-4.76-3.7-6.081-.343-.6-.61-.987-.512-1.259a1.246,1.246,0,0,1,.214-.339c.067-.079.077-.145.016-.2s-.121,0-.2.1c-.244.287-.535.679-.586.74-.067.079-.4.42-.794.878-.111.13-.153.214-.091.267s.13,0,.2-.083c.287-.337.476-.313.616-.193a2.364,2.364,0,0,1,.432.508C8.606-1.963,10.318.66,10.77,1.308l-.022.025L4.825-.549C4.45-.671,4.282-.737,4.2-.643c-.059.068-.033.181.13.481l3.113,5.49-.023.026C6.8,5.1,3.47,3.687,2.769,3.351A7.882,7.882,0,0,1,1.8,2.868c-.1-.081-.142-.148-.109-.256a.573.573,0,0,1,.148-.244c.075-.086.125-.163.054-.222-.052-.043-.13,0-.233.115-.427.5-.727.906-.793.982s-.5.532-.883.982c-.1.121-.145.206-.084.257s.122.012.2-.074" transform="translate(0.123 5.354)"/>
        </g>
      </g>
      <g id="Group_4480" data-name="Group 4480" transform="translate(34.356 25.936)">
        <g id="Group_4479" data-name="Group 4479" transform="translate(0 0)">
          <path id="Path_2925" data-name="Path 2925" class="cls-3" d="M.106,1.626a2.248,2.248,0,0,1,.362-.259c.34-.183.527-.1.8.175.254.262.46.5,1.586,1.817l1.3,1.521c.68.794,1.263,1.476,1.532,1.875.179.28.3.506.154.687a1.942,1.942,0,0,1-.283.3c-.106.087-.117.143-.081.186.052.061.135.035.249-.061.348-.293.875-.781,1.074-.949.514-.433,1.142-.873,2.457-1.982.331-.277.409-.344.278-.621a8.724,8.724,0,0,0-.709-1.053c-.073-.086-.133-.155-.2-.1s-.049.1.016.211a.952.952,0,0,1,.155.969,2.883,2.883,0,0,1-.73.794c-.889.748-1.139.736-1.666.153-.223-.242-.9-1.043-1.147-1.338l-.583-.682c-.044-.051-.065-.094-.023-.13.211-.175,1.08-.893,1.26-1.017.352-.237.586-.208.776-.073a3.083,3.083,0,0,1,.3.282.092.092,0,0,0,.145.013c.078-.066,0-.16-.063-.231s-.33-.42-.46-.608A8.032,8.032,0,0,1,6.132.82C6.087.766,6.045.772,6.011.8s-.041.109-.043.229c-.005.153-.114.287-.307.481S4.473,2.543,4.282,2.7c-.052.046-.09.018-.142-.043L2.268.474c-.051-.061-.055-.1-.013-.137.174-.148,1.1-.9,1.266-1.008.481-.316.655-.285.85-.181a1.236,1.236,0,0,1,.319.267c.067.079.121.107.182.056s.034-.117,0-.17C4.807-.817,4.5-1.21,4.433-1.3a7.17,7.17,0,0,1-.411-.621c-.037-.043-.076-.069-.118-.033a1.175,1.175,0,0,0-.11.152,4.461,4.461,0,0,1-.33.367C3.306-1.292,1.571.169,1.293.4,1.049.609.478,1.046.017,1.433c-.131.112-.177.181-.125.239s.119.036.214-.046" transform="translate(0.129 1.976)"/>
        </g>
      </g>
      <g id="Group_4482" data-name="Group 4482" transform="translate(42.282 21.489)">
        <g id="Group_4481" data-name="Group 4481" transform="translate(0 0)">
          <path id="Path_2926" data-name="Path 2926" class="cls-3" d="M1.466,2.367l.666.051c1.194.086,1.635.435,1.943.9a1.371,1.371,0,0,1-.557,1.916,1.586,1.586,0,0,1-2-.058,2.416,2.416,0,0,1-.408-.425c-.05-.076-.116-.155-.2-.1s-.034.173.05.32.432.751.778,1.269c.139.209.2.237.4.2a3.984,3.984,0,0,0,1.554-.667A3.306,3.306,0,0,0,4.944,4.39a2.269,2.269,0,0,0-.2-2.231C4.141,1.26,3.3.9,1.569.777L1.17.754C-.019.678-.458.492-.749.057A1.187,1.187,0,0,1-.265-1.66a1.463,1.463,0,0,1,1.347-.222,1.38,1.38,0,0,1,.666.463c.074.112.141.15.208.106s.054-.145-.085-.353C1.378-2.4,1.233-2.7,1.151-2.823c-.043-.066-.11-.064-.209-.025a5.573,5.573,0,0,0-1.374.672c-1.324.87-1.7,2.193-1.007,3.231.512.766,1.315,1.188,2.905,1.313" transform="translate(1.781 2.875)"/>
        </g>
      </g>
      <g id="Group_4484" data-name="Group 4484" transform="translate(47.699 16.503)">
        <g id="Group_4483" data-name="Group 4483" transform="translate(0 0)">
          <path id="Path_2927" data-name="Path 2927" class="cls-3" d="M.176,2.1c.055.112.1.153.173.119S.421,2.132.4,2.041a1.34,1.34,0,0,1,0-.44c.042-.3.263-.471.847-.784L2.752.03,4.826,4.2c.464.934.865,1.738,1.024,2.188.117.31.167.562-.019.7a1.875,1.875,0,0,1-.349.222c-.124.061-.149.109-.124.16.036.071.124.066.256,0,.41-.2,1.04-.547,1.276-.664.286-.14.948-.425,1.624-.756.112-.055.179-.124.143-.2-.024-.051-.091-.058-.2,0a4.871,4.871,0,0,1-.543.217c-.328.109-.5-.084-.674-.354-.268-.412-.667-1.216-1.132-2.15L4.033-.6l1.306-.6c.922-.424,1.341-.274,1.492-.022l.067.106c.085.148.132.188.214.148.061-.028.052-.1.01-.206-.131-.265-.449-.979-.556-1.193-.076-.153-.117-.209-.187-.173a5.216,5.216,0,0,1-.933.583L1.388.028C1.049.193.651.364.338.479a2.651,2.651,0,0,1-.5.094C-.224.6-.226.679-.19.824-.17.916.095,1.936.176,2.1" transform="translate(0.214 2.55)"/>
        </g>
      </g>
      <g id="Group_4486" data-name="Group 4486" transform="translate(56.819 13.817)">
        <g id="Group_4485" data-name="Group 4485" transform="translate(0 0)">
          <path id="Path_2928" data-name="Path 2928" class="cls-3" d="M.1.879A2.387,2.387,0,0,1,.534.769c.382-.043.528.1.674.455.139.336.241.639.8,2.27L2.65,5.382c.336.99.625,1.837.725,2.3.062.326.089.58-.112.7a1.876,1.876,0,0,1-.376.172c-.13.043-.163.092-.144.145.025.073.112.081.253.033.433-.145,1.1-.407,1.353-.489.639-.216,1.386-.394,3.019-.941.412-.138.509-.17.49-.476A8.685,8.685,0,0,0,7.593,5.59c-.036-.106-.066-.193-.151-.163s-.083.076-.064.2a.948.948,0,0,1-.217.957,2.883,2.883,0,0,1-.973.471c-1.1.368-1.332.267-1.606-.466-.116-.307-.442-1.3-.567-1.664l-.29-.85c-.022-.064-.025-.109.028-.127.26-.087,1.335-.438,1.548-.484.416-.092.622.017.75.214a3.335,3.335,0,0,1,.175.374.09.09,0,0,0,.13.063c.1-.033.058-.152.028-.236s-.15-.514-.2-.736C6.027,2.588,6.023,2.4,6,2.334s-.061-.074-.1-.061-.079.087-.127.2c-.059.14-.211.226-.463.336s-1.487.521-1.726.6c-.064.022-.089-.018-.116-.092L2.539.6C2.513.525,2.524.484,2.577.466,2.794.395,3.937.034,4.129-.007c.564-.115.716-.023.858.145a1.212,1.212,0,0,1,.2.364c.034.1.073.142.15.117s.075-.1.067-.153c-.022-.137-.162-.616-.188-.727a6.946,6.946,0,0,1-.151-.728c-.018-.053-.043-.091-.1-.073a1.011,1.011,0,0,0-.159.1,4.728,4.728,0,0,1-.444.222c-.2.079-2.355.8-2.7.916-.3.1-1,.3-1.57.491-.162.056-.231.1-.205.175s.1.076.217.036" transform="translate(0.122 1.067)"/>
        </g>
      </g>
      <g id="Group_4488" data-name="Group 4488" transform="translate(65.257 10.961)">
        <g id="Group_4487" data-name="Group 4487" transform="translate(0 0)">
          <path id="Path_2929" data-name="Path 2929" class="cls-3" d="M1.2.944A2.6,2.6,0,0,1,1.782.785,1.827,1.827,0,0,1,3.893,2.5a1.986,1.986,0,0,1-.34,1.8,1.151,1.151,0,0,1-.76.341,3.041,3.041,0,0,1-.874.051c-.085-.02-.117-.058-.14-.181L1.126,1.119c-.018-.089,0-.137.07-.175m-2.44.083A2.371,2.371,0,0,1-.8.977c.385.007.509.168.6.542.091.351.151.664.478,2.356L.664,5.833c.2,1.023.368,1.9.4,2.381.016.331.007.586-.208.675a1.855,1.855,0,0,1-.394.119C.329,9.036.29,9.078.3,9.134c.015.076.1.094.246.068C1,9.116,1.7,8.948,1.909,8.907c.168-.03,1.005-.155,1.657-.28.145-.028.217-.076.2-.152-.01-.056-.061-.082-.151-.064-.135.025-.386.048-.559.058-.345.02-.46-.211-.556-.529-.146-.455-.316-1.335-.516-2.369l-.031-.158c-.013-.066.016-.094.073-.1l.98-.166a.245.245,0,0,1,.218.04c.178.14.84.8,1.407,1.326A5.554,5.554,0,0,0,6.487,7.854a2.359,2.359,0,0,0,1.242-.018l1.065-.2a.45.45,0,0,0,.134-.042c.034.05.121.056.237.054.594-.015,1.13-.063,1.233-.066.217,0,.674.018,1.417,0,.16,0,.263-.03.26-.119,0-.069-.07-.089-.2-.087a1.816,1.816,0,0,1-.6-.063c-.231-.074-.386-.367-.432-1.25L10.606,1.3h.034c.211.211,1.515,1.6,2.79,2.789,1.217,1.137,2.717,2.585,3.454,3.246.128.12.268.242.394.239.1,0,.145-.107.141-.356L17.363.073c0-.636.082-.875.4-.974A1.328,1.328,0,0,1,18.1-.944c.136,0,.2-.038.2-.107,0-.088-.117-.1-.267-.094-.559.013-.993.058-1.117.061-.24.007-.79-.015-1.384,0-.171.005-.3.021-.294.109,0,.069.047.1.184.1a1.912,1.912,0,0,1,.608.054c.277.106.385.32.415,1.01l.241,5.083-.056,0c-.2-.178-1.781-1.769-2.577-2.522-1.71-1.6-3.493-3.4-3.634-3.547-.2-.2-.305-.346-.431-.34s-.145.16-.138.389l.067,6.707c.013.987-.025,1.315-.319,1.414a2.033,2.033,0,0,1-.512.069.334.334,0,0,0-.122.02c-.02-.037-.061-.058-.136-.043a1.688,1.688,0,0,1-.319.025,2.272,2.272,0,0,1-1.4-.517c-.8-.565-1.761-1.41-3-2.465a3.16,3.16,0,0,0,1-2.773A1.975,1.975,0,0,0,4.052.307,3.692,3.692,0,0,0,1.9.224C1.547.29.7.483.318.557.084.6-.631.7-1.225.816c-.169.031-.242.069-.227.145s.086.089.209.066" transform="translate(1.454 1.146)"/>
        </g>
      </g>
      <g id="Group_4490" data-name="Group 4490" transform="translate(92.195 11.657)">
        <g id="Group_4489" data-name="Group 4489" transform="translate(0 0)">
          <path id="Path_2930" data-name="Path 2930" class="cls-3" d="M.231,1.545-.118,3.163A3.686,3.686,0,0,0,.246,6.31,3.7,3.7,0,0,0,2.563,7.6a3.431,3.431,0,0,0,2.494-.308,4.274,4.274,0,0,0,1.78-3.109L7.091,3c.362-1.685.431-2,.529-2.346.1-.385.233-.552.549-.544A1.886,1.886,0,0,1,8.5.143c.134.028.205.021.223-.058S8.666-.03,8.509-.063C8.074-.157,7.363-.272,7.226-.3c-.01,0-.708-.186-1.277-.305C5.793-.638,5.71-.633,5.7-.554s.043.112.166.139a2.24,2.24,0,0,1,.4.117c.355.155.4.352.346.733-.057.361-.123.671-.485,2.356l-.3,1.384c-.246,1.142-.493,2.132-1.239,2.61a2.259,2.259,0,0,1-1.67.275,2.13,2.13,0,0,1-1.3-.751C1.159,5.75.98,5.005,1.326,3.4L1.66,1.848c.361-1.684.428-2,.529-2.346.1-.382.235-.552.549-.544a1.892,1.892,0,0,1,.331.036c.113.025.182.015.2-.061s-.056-.117-.223-.152c-.4-.084-1.113-.2-1.383-.257C1.326-1.549.631-1.73.038-1.854c-.166-.038-.251-.031-.267.046s.046.115.169.139a2.338,2.338,0,0,1,.429.127c.352.155.4.351.343.733C.659-.45.592-.139.231,1.545" transform="translate(0.28 1.877)"/>
        </g>
      </g>
      <g id="Group_4492" data-name="Group 4492" transform="translate(100.76 14.625)">
        <g id="Group_4491" data-name="Group 4491" transform="translate(0 0)">
          <path id="Path_2931" data-name="Path 2931" class="cls-3" d="M0,3.4c-.039.094.054.142.19.2.552.221,1.062.389,1.157.427.2.081.613.283,1.3.559.148.061.251.079.287-.007.023-.061-.031-.109-.146-.155a1.869,1.869,0,0,1-.52-.295c-.18-.158-.208-.486.1-1.316L4.066-1.644l.031.016c.107.274.746,2.06,1.439,3.658.659,1.524,1.452,3.445,1.859,4.343.07.163.149.328.267.377.1.037.177-.041.27-.272L10.758-.1c.251-.583.426-.769.757-.733a1.2,1.2,0,0,1,.328.094c.128.051.2.046.232-.018.033-.084-.07-.137-.205-.19-.518-.209-.934-.341-1.052-.387-.22-.089-.716-.325-1.267-.547-.159-.063-.28-.1-.316-.015-.023.064,0,.112.133.163a1.86,1.86,0,0,1,.533.287c.214.209.226.445-.025,1.092L8.055,4.4,8,4.379c-.11-.239-.921-2.327-1.35-3.331C5.727-1.1,4.817-3.454,4.745-3.643c-.1-.259-.141-.435-.256-.481s-.2.091-.285.3L1.569,2.356c-.385.908-.552,1.2-.862,1.167a1.972,1.972,0,0,1-.5-.137C.1,3.343.03,3.338,0,3.4" transform="translate(0.005 4.132)"/>
        </g>
      </g>
      <g id="Group_4494" data-name="Group 4494" transform="translate(111.419 19.531)">
        <g id="Group_4493" data-name="Group 4493" transform="translate(0 0)">
          <path id="Path_2932" data-name="Path 2932" class="cls-3" d="M.27,3.372A2.053,2.053,0,0,1-.11,3.206c-.121-.068-.175-.061-.205-.012-.038.068.013.139.141.211.4.226,1.036.555,1.265.685.267.152.875.539,1.527.911.11.063.208.079.246.01.028-.049-.005-.107-.113-.168a5.033,5.033,0,0,1-.482-.328c-.274-.211-.241-.424-.115-.707.205-.445.657-1.221,1.211-2.175l1-1.728C5.231-1.587,5.391-1.862,5.6-2.165c.218-.333.393-.455.69-.351a1.993,1.993,0,0,1,.313.139c.1.056.172.072.215-.007.036-.058-.033-.124-.161-.2-.377-.214-.978-.52-1.227-.659-.285-.166-.893-.55-1.269-.766C4-4.1,3.91-4.124,3.874-4.063s0,.132.1.188a1.616,1.616,0,0,1,.336.242c.187.175.192.4.015.742-.161.325-.32.6-1.188,2.094l-1,1.728c-.555.951-1,1.728-1.293,2.111-.195.267-.352.4-.572.328" transform="translate(0.328 4.096)"/>
        </g>
      </g>
      <g id="Group_4496" data-name="Group 4496" transform="translate(118.664 22.008)">
        <g id="Group_4495" data-name="Group 4495" transform="translate(0 0)">
          <path id="Path_2933" data-name="Path 2933" class="cls-3" d="M.032,4.412c.128.1.292-.01.926-.361.541-.308,1.716-.982,3.3-1.878C5.586,1.417,6.2,1.107,7.2.517c.682-.4.936-.455,1.116-.448A.994.994,0,0,1,8.85.29c.09.066.159.089.2.025s-.01-.135-.13-.224C8.652-.11,8.2-.4,8.041-.514c-.118-.089-.482-.4-.942-.738-.177-.127-.272-.17-.325-.1s.017.124.1.185a1.511,1.511,0,0,1,.331.316.215.215,0,0,1-.01.262,1.376,1.376,0,0,1-.333.274C6.2.13,2.81,2.18,1.666,2.893l-.035-.028L3.141-2.427a3.382,3.382,0,0,1,.315-.857.267.267,0,0,1,.234-.122.838.838,0,0,1,.406.2c.079.061.151.084.2.021s-.04-.158-.151-.237c-.459-.338-.918-.636-1.149-.8-.321-.237-.823-.649-1.311-1.008-.136-.1-.244-.166-.3-.091-.044.053-.037.1.048.163a1.79,1.79,0,0,1,.328.3c.265.334.346.547.18,1.2L.1,3.6c-.144.557-.185.725-.064.811" transform="translate(0.039 5.359)"/>
        </g>
      </g>
      <g id="Group_4498" data-name="Group 4498" transform="translate(123.172 28.81)">
        <g id="Group_4497" data-name="Group 4497" transform="translate(0 0)">
          <path id="Path_2934" data-name="Path 2934" class="cls-3" d="M2.767.255c.215.318.154.511-.1.8-.238.275-.459.5-1.67,1.74L-.4,4.232c-.731.748-1.359,1.392-1.737,1.692-.262.206-.48.346-.675.221a1.956,1.956,0,0,1-.326-.252c-.1-.094-.154-.1-.194-.061-.057.056-.023.135.084.239.326.316.868.786,1.057.966.485.466.985,1.044,2.225,2.234.313.3.387.371.651.216a9.143,9.143,0,0,0,.988-.8c.079-.081.144-.148.077-.208s-.106-.041-.208.033a.97.97,0,0,1-.957.249,2.95,2.95,0,0,1-.867-.643c-.839-.8-.85-1.053-.319-1.631C-.379,6.241.36,5.5.632,5.224L1.26,4.58c.046-.048.085-.07.126-.033.2.191,1,.98,1.144,1.145.272.323.267.558.149.758a2.923,2.923,0,0,1-.254.326.088.088,0,0,0,0,.142c.072.071.159-.018.226-.082s.391-.369.565-.514a7.749,7.749,0,0,1,.646-.532c.046-.048.038-.088.005-.119s-.113-.03-.233-.02c-.154.01-.3-.084-.514-.257S1.976,4.323,1.794,4.148c-.049-.046-.025-.087.028-.142L3.837,1.947c.054-.058.094-.069.136-.028.164.158,1.011,1,1.134,1.152.362.443.349.621.265.822a1.26,1.26,0,0,1-.239.341c-.069.071-.094.13-.035.183s.12.023.169-.01c.112-.082.477-.425.564-.5.39-.349.529-.407.583-.466.041-.04.064-.082.022-.12a.9.9,0,0,0-.163-.094,3.956,3.956,0,0,1-.4-.29C5.709,2.8,4.075,1.23,3.81.978,3.583.756,3.088.235,2.654-.182c-.12-.12-.2-.158-.251-.1s-.023.119.069.208a2.35,2.35,0,0,1,.3.331" transform="translate(3.361 0.31)"/>
        </g>
      </g>
      <g id="Group_4500" data-name="Group 4500" transform="translate(128.62 35.022)">
        <g id="Group_4499" data-name="Group 4499" transform="translate(0 0)">
          <path id="Path_2935" data-name="Path 2935" class="cls-3" d="M3.426,1.066c.074-.056.123-.067.193-.018a2.358,2.358,0,0,1,.407.443,1.8,1.8,0,0,1-.562,2.646A2.025,2.025,0,0,1,1.7,4.664c-.244-.071-.372-.157-.655-.514A2.96,2.96,0,0,1,.6,3.4C.578,3.32.6,3.274.7,3.2ZM2.464.089c-.272.241-.526.438-1.891,1.5L-1.007,2.825c-.826.646-1.534,1.2-1.947,1.45-.287.168-.52.277-.7.127a1.865,1.865,0,0,1-.29-.292c-.084-.106-.141-.122-.184-.086-.061.048-.041.132.051.247.283.356.754.9.888,1.065.108.136.6.814,1.013,1.331.09.115.167.158.232.107.043-.033.043-.091-.013-.163a5.163,5.163,0,0,1-.311-.463c-.177-.295-.02-.5.219-.733C-1.708,5.076-1,4.521-.163,3.87l.126-.1a.08.08,0,0,1,.128.015l.6.789a.237.237,0,0,1,.067.211C.709,5,.425,5.893.214,6.633A5.454,5.454,0,0,0-.14,8.884,2.318,2.318,0,0,0,.447,9.968l.673.848c.085.106.151.155.223.1.043-.035.043-.091-.013-.163a1.607,1.607,0,0,1-.169-.272A2.215,2.215,0,0,1,.976,9.007c.142-.959.454-2.2.829-3.776A3.223,3.223,0,0,0,4.75,4.837,1.958,1.958,0,0,0,5.5,3.272a3.631,3.631,0,0,0-.913-1.941C4.365,1.056,3.8.4,3.562.1c-.148-.188-.569-.769-.941-1.242-.108-.132-.175-.181-.236-.132s-.038.117.038.214a2.257,2.257,0,0,1,.249.369c.169.343.082.526-.208.784" transform="translate(4.162 1.295)"/>
        </g>
      </g>
      <g id="Group_4502" data-name="Group 4502" transform="translate(134.215 44.115)">
        <g id="Group_4501" data-name="Group 4501" transform="translate(0 0)">
          <path id="Path_2936" data-name="Path 2936" class="cls-3" d="M1.384,2.552a1.393,1.393,0,0,1-1.9-.639A1.552,1.552,0,0,1-.368-.066,2.482,2.482,0,0,1,.076-.45c.079-.046.162-.107.11-.2S.012-.689-.139-.611-.915-.216-1.453.1c-.216.127-.247.185-.22.382a3.929,3.929,0,0,0,.6,1.569A3.3,3.3,0,0,0,.263,3.363a2.322,2.322,0,0,0,2.258-.1C3.452,2.709,3.849,1.893,4.057.183L4.1-.211c.131-1.173.337-1.6.788-1.867a1.2,1.2,0,0,1,1.708.556A1.421,1.421,0,0,1,6.753-.178a1.389,1.389,0,0,1-.492.639c-.118.068-.16.132-.118.2S6.286.722,6.5.593C7.267.14,7.574.01,7.7-.066c.069-.04.069-.106.036-.205a5.444,5.444,0,0,0-.613-1.392C6.305-3.015,4.991-3.45,3.914-2.809,3.121-2.335,2.657-1.559,2.459.01L2.378.667c-.142,1.18-.514,1.6-.993,1.885" transform="translate(1.681 3.1)"/>
        </g>
      </g>
      <g id="Group_4504" data-name="Group 4504" transform="translate(137.493 49.977)">
        <g id="Group_4503" data-name="Group 4503" transform="translate(0 0)">
          <path id="Path_2937" data-name="Path 2937" class="cls-3" d="M1.521,1.4C.516,1.87-.3,2.246-.757,2.4c-.319.109-.521.13-.66-.055a1.859,1.859,0,0,1-.215-.352c-.059-.122-.11-.15-.162-.124-.072.033-.069.12-.007.252.195.412.532,1.043.644,1.28.128.277.4.939.721,1.615.054.112.123.181.2.148.053-.025.061-.091.007-.2a4.459,4.459,0,0,1-.205-.542c-.1-.328.046-.486.313-.646C.3,3.521,1.116,3.141,2.121,2.677l1.822-.845c1.572-.73,1.862-.865,2.2-1,.372-.148.588-.148.77.106a1.991,1.991,0,0,1,.177.293c.046.1.1.155.179.117.061-.031.043-.122-.018-.255C7.07.707,6.755.115,6.632-.143c-.139-.3-.413-.957-.6-1.349-.076-.163-.136-.236-.2-.208-.079.038-.072.112-.023.214a1.714,1.714,0,0,1,.133.387c.052.252-.074.435-.418.619C5.2-.305,4.915-.171,3.342.557Z" transform="translate(1.848 1.706)"/>
        </g>
      </g>
      <g id="Group_4506" data-name="Group 4506" transform="translate(140.31 55.492)">
        <g id="Group_4505" data-name="Group 4505" transform="translate(0 0)">
          <path id="Path_2938" data-name="Path 2938" class="cls-3" d="M2.706.157c.023.064.076.082.172.074a1.412,1.412,0,0,1,.439.058c.292.081.433.32.667.939l.585,1.585L.125,4.289C-.873,4.62-1.728,4.9-2.2,5c-.323.072-.585.087-.7-.114a1.683,1.683,0,0,1-.172-.372c-.046-.129-.092-.163-.146-.145-.076.025-.085.112-.036.252.146.43.406,1.1.49,1.344.1.3.295.987.533,1.7.041.12.106.193.18.168.056-.018.067-.082.028-.2a4.664,4.664,0,0,1-.14-.565c-.067-.336.151-.478.443-.613.446-.208,1.3-.491,2.3-.822L5.022,4.156,5.446,5.52c.3.964.1,1.356-.179,1.47l-.115.051c-.16.064-.205.1-.177.188.02.067.094.067.2.04.283-.094,1.039-.31,1.268-.386.163-.054.225-.084.2-.16a4.739,4.739,0,0,1-.457-.995L4.753,1.472A11.278,11.278,0,0,1,4.445.381a2.522,2.522,0,0,1-.026-.507C4.4-.189,4.322-.2,4.17-.184c-.094.005-1.149.13-1.323.186-.118.041-.164.079-.141.155" transform="translate(3.287 0.19)"/>
        </g>
      </g>
      <g id="Group_4508" data-name="Group 4508" transform="translate(142.63 63.825)">
        <g id="Group_4507" data-name="Group 4507" transform="translate(0 0)">
          <path id="Path_2939" data-name="Path 2939" class="cls-3" d="M4.315,3.793c-.039-.211-.216-.942-.262-1.185-.061-.324-.1-.685-.167-1.053-.025-.132-.058-.183-.136-.171s-.072.117-.074.224a.272.272,0,0,1-.236.285,1.473,1.473,0,0,1-.613-.046C2.449,1.755-.291.818-.58.758-.3.521,2.106-1.547,2.413-1.766a1.07,1.07,0,0,1,.357-.206A.211.211,0,0,1,3-1.856c.076.16.1.237.169.223s.089-.076.071-.187c-.1-.5-.22-.949-.264-1.183-.069-.367-.2-1.209-.234-1.41-.025-.135-.073-.206-.14-.193s-.088.1-.07.186a1.1,1.1,0,0,1-.059.5A2.73,2.73,0,0,1,1.805-3C1.3-2.5-.888-.546-1.052-.433A2.45,2.45,0,0,1-2.184.045L-3.1.218C-3.285.251-3.754.34-4.232.4c-.331.038-.6-.015-.685-.229a1.736,1.736,0,0,1-.121-.382c-.023-.121-.067-.17-.123-.16-.09.018-.1.109-.064.265.077.412.247,1.109.3,1.386.056.3.157,1.007.292,1.71.025.145.077.226.156.214.057-.013.077-.073.057-.2a4.549,4.549,0,0,1-.064-.565c-.018-.343.211-.489.532-.573.464-.122.936-.211,1.116-.247l.921-.172A2.747,2.747,0,0,1-.76,1.4,36.668,36.668,0,0,1,3.216,2.856a1.684,1.684,0,0,1,.664.5,1.224,1.224,0,0,1,.232.466c.022.122.071.2.151.188s.074-.094.052-.216" transform="translate(5.241 4.607)"/>
        </g>
      </g>
      <g id="Group_4510" data-name="Group 4510" transform="translate(105.017 140.233)">
        <g id="Group_4509" data-name="Group 4509" transform="translate(0 0)">
          <path id="Path_2940" data-name="Path 2940" class="cls-3" d="M1.627,1.911l-1.9.775c-.034.014-.065,0-.061-.053L-.363-.154c0-.037-.014-.1.019-.113s.057.043.082.072l1.91,2.032c.025.029.023.056-.022.074M6.059,3.264a2.479,2.479,0,0,1-.382.117c-.2.028-.526.02-1.254-.68C3.212,1.524-.014-1.689-.462-2.117-.649-2.289-.73-2.36-.876-2.3c-.1.041-.133.185-.135.5l-.127,7.017c-.005.562-.054.922-.472,1.17-.089.036-.2.093-.286.13a.105.105,0,0,0-.071.145c.032.077.1.076.22.026.513-.209,1.024-.456,1.125-.5.313-.128.783-.283,1.106-.415.1-.041.148-.086.115-.164C.578,5.556.536,5.52.414,5.571L.269,5.63c-.3.123-.431.058-.5-.109a1.859,1.859,0,0,1-.092-.64l0-1.487c0-.065.006-.081.061-.1l2.309-.943a.1.1,0,0,1,.127.026l1.539,1.6a.16.16,0,0,1,0,.248c-.1.052-.1.094-.082.15s.139.021.322-.04c.835-.316,1.548-.607,1.894-.748.368-.151.415-.2.383-.273s-.085-.082-.175-.046" transform="translate(1.976 2.322)"/>
        </g>
      </g>
      <g id="Group_4512" data-name="Group 4512" transform="translate(108.578 136.1)">
        <g id="Group_4511" data-name="Group 4511" transform="translate(0 0)">
          <path id="Path_2941" data-name="Path 2941" class="cls-3" d="M3.714,3.388a3.822,3.822,0,0,1-.49.232c-.3.111-.443-.028-.616-.263-.259-.365-.664-1.065-1.123-1.885L-.539-2.147.64-2.778c.836-.454,1.23-.315,1.38-.1l.064.088c.087.131.132.161.206.119.053-.029.045-.094,0-.194-.129-.232-.478-.907-.584-1.1-.077-.136-.117-.183-.181-.148-.031.018-.094.08-.23.184a5.1,5.1,0,0,1-.607.393l-3.753,2.1a9.922,9.922,0,0,1-.949.475c-.248.1-.384.079-.458.12-.052.029-.055.1-.011.227.02.085.324,1.049.406,1.2.052.094.1.136.166.1s.061-.089.04-.175A1.2,1.2,0,0,1-3.881.121c.025-.276.211-.463.742-.773l1.361-.8L.245,2.165C.7,2.986,1.1,3.69,1.267,4.093c.115.28.157.478-.009.626a1.488,1.488,0,0,1-.308.214c-.115.064-.118.134-.1.177.035.062.116.058.232-.006.368-.206.982-.589,1.193-.706.262-.147.9-.463,1.509-.8.1-.058.161-.131.126-.193-.023-.042-.094-.07-.2-.012" transform="translate(4.512 4.115)"/>
        </g>
      </g>
      <g id="Group_4514" data-name="Group 4514" transform="translate(114.896 132.976)">
        <g id="Group_4513" data-name="Group 4513" transform="translate(0 0)">
          <path id="Path_2942" data-name="Path 2942" class="cls-3" d="M3.7,2.32c-.062-.089-.147-.191-.217-.143s-.052.094-.01.2a.867.867,0,0,1,.057.886,2.857,2.857,0,0,1-.746.679c-.892.619-1.249.675-1.668.114C.936,3.811.451,3.091.252,2.8L-.216,2.13c-.034-.049-.052-.1-.012-.124C-.009,1.854,1,1.188,1.168,1.1c.348-.2.546-.144.712-.009.1.1.171.2.243.286.027.04.067.055.127.015.079-.055.006-.181-.042-.25S1.953.73,1.855.547C1.611.088,1.534-.064,1.5-.114a.1.1,0,0,0-.131-.041c-.039.028-.034.1-.062.2C1.289.194,1.175.3.98.467s-1.315.94-1.513,1.078c-.049.034-.087,0-.121-.048L-2.1-.585c-.034-.049-.035-.093,0-.121C-1.914-.829-.86-1.53-.7-1.613c.464-.263.616-.192.787-.091a.97.97,0,0,1,.272.267c.048.069.085.1.145.061s.02-.161,0-.207C.461-1.7.228-2.077.175-2.173a4.652,4.652,0,0,1-.308-.593C-.16-2.806-.2-2.838-.247-2.8s-.069.091-.111.136c-.063.058-.18.183-.331.3S-2.79-.909-3.067-.717c-.247.171-.816.536-1.272.852-.128.089-.184.157-.143.217s.121.046.21-.015A1.931,1.931,0,0,1-3.9.126a.5.5,0,0,1,.692.195c.2.261.361.5,1.247,1.777L-.937,3.583c.536.772,1,1.436,1.2,1.82.142.268.2.461.052.625a1.474,1.474,0,0,1-.286.244c-.109.075-.1.145-.077.184.04.059.121.047.229-.028.178-.123.39-.284.591-.439s.388-.284.488-.352c.257-.178.59-.4,1.023-.681s.972-.63,1.626-1.083c.326-.226.406-.281.314-.54A6.893,6.893,0,0,0,3.7,2.32" transform="translate(4.495 2.818)"/>
        </g>
      </g>
      <g id="Group_4516" data-name="Group 4516" transform="translate(122.889 125.99)">
        <g id="Group_4515" data-name="Group 4515" transform="translate(0 0)">
          <path id="Path_2943" data-name="Path 2943" class="cls-3" d="M1.651,1.691l-.419.045c-1.251.126-1.741.006-2.119-.4A1.269,1.269,0,0,1-.683-.55,1.526,1.526,0,0,1,.681-1.014a1.449,1.449,0,0,1,.772.369c.1.106.175.134.236.076s.031-.16-.15-.354C.9-1.611.7-1.9.588-2.014c-.057-.061-.125-.046-.22.009a5.823,5.823,0,0,0-1.313.943C-2.172.08-2.334,1.53-1.431,2.5c.665.715,1.575,1.021,3.251.877l.7-.061c1.267-.109,1.777.174,2.18.607a1.466,1.466,0,0,1-.246,2.107,1.662,1.662,0,0,1-2.092.283,2.561,2.561,0,0,1-.5-.376c-.066-.071-.148-.142-.227-.069s-.007.187.108.328.58.712,1.032,1.2c.18.193.247.213.445.144a4.2,4.2,0,0,0,1.5-.97A3.493,3.493,0,0,0,5.793,4.9a2.429,2.429,0,0,0-.6-2.306c-.781-.838-1.726-1.095-3.541-.9" transform="translate(2.005 2.054)"/>
        </g>
      </g>
      <g id="Group_4518" data-name="Group 4518" transform="translate(139.81 103.195)">
        <g id="Group_4517" data-name="Group 4517" transform="translate(0 0)">
          <path id="Path_2944" data-name="Path 2944" class="cls-3" d="M3.773,1.1c-.045-.017-.118.007-.16.119a4.036,4.036,0,0,1-.226.494c-.157.276-.328.288-.6.223-.423-.109-1.189-.4-2.114-.752L-1.018.539c-1.454-.553-1.724-.655-2.02-.793-.329-.151-.434-.282-.376-.569a1.394,1.394,0,0,1,.077-.306c.038-.1.037-.166-.052-.2-.055-.021-.108.049-.155.173-.145.383-.368,1.032-.463,1.28-.106.282-.385.949-.526,1.321-.06.157-.067.245-.011.266.089.034.133-.014.172-.115a1.36,1.36,0,0,1,.182-.343c.149-.189.3-.247.636-.145.308.1.579.207,2.032.76L.167,2.51c.924.352,1.69.643,2.067.838.269.141.383.249.351.469a1.5,1.5,0,0,1-.1.362c-.047.124,0,.179.04.2.067.026.127-.029.174-.153.15-.394.374-1.082.46-1.307.1-.27.392-.934.64-1.587.043-.112.04-.2-.028-.229" transform="translate(4.583 1.333)"/>
        </g>
      </g>
      <g id="Group_4520" data-name="Group 4520" transform="translate(126.708 108.011)">
        <g id="Group_4519" data-name="Group 4519" transform="translate(0 0)">
          <path id="Path_2945" data-name="Path 2945" class="cls-3" d="M7.876,2.819c-.37.745-.753,1.026-.984,1.059a1.885,1.885,0,0,1-.7-.214c-.189-.081-.9-.418-1.868-.9L3.167,2.19c-.723-.359-1.479-.736-1.787-.9a.18.18,0,0,1-.124-.21A2.253,2.253,0,0,1,1.481.463,4.283,4.283,0,0,1,3.675-1.759,3.335,3.335,0,0,1,6.4-1.507,3.131,3.131,0,0,1,8.28.435a3.347,3.347,0,0,1-.4,2.384M6.82-2.995a3.593,3.593,0,0,0-2.776-.263C2.483-2.742,1.689-1.144,1.1.044.814.616.5,1.305.352,1.6c-.133.269-.454.864-.7,1.36A.338.338,0,0,0-.4,3.171c-.235.343-.57.861-.634.952-.007.01-.43.581-.739,1.027-.082.118-.1.192-.045.232s.123.012.192-.087A1.826,1.826,0,0,1-1.382,5a.5.5,0,0,1,.71-.05c.274.175.519.33,1.8,1.216L2.185,6.9c.862.6,1.582,1.126,1.7,1.927a2.024,2.024,0,0,1-.365,1.479,2.043,2.043,0,0,1-1.1.867c-.632.192-1.272.1-2.5-.751L-1.258,9.6c-1.278-.886-1.516-1.05-1.77-1.256-.283-.226-.354-.378-.235-.633a1.473,1.473,0,0,1,.148-.278c.062-.089.067-.16.007-.2s-.12,0-.209.133c-.22.317-.606.914-.757,1.131-.172.249-.572.79-.89,1.245-.053-.032-.088-.036-.119,0s-.06.108-.151.253a4.976,4.976,0,0,1-.431.581L-8.44,13.865a10.044,10.044,0,0,1-.722.779c-.2.18-.331.208-.386.273-.039.046-.016.112.07.217.047.071.671.868.8.976.083.07.145.091.191.035s.025-.1-.023-.178a1.181,1.181,0,0,1-.15-.364c-.074-.267.034-.507.422-.984l.991-1.229,3.166,2.677c.718.607,1.334,1.128,1.635,1.446.207.222.315.393.211.589a1.463,1.463,0,0,1-.214.309c-.085.1-.063.167-.026.2.055.046.129.015.214-.087.273-.322.712-.9.868-1.08.194-.229.679-.749,1.13-1.282.078-.092.1-.18.05-.226-.037-.031-.113-.033-.191.059a4.062,4.062,0,0,1-.377.391c-.239.208-.425.129-.67-.03-.372-.251-1-.763-1.713-1.371L-6.33,12.305l.881-1c.623-.718,1.041-.727,1.259-.575l.091.061c.127.092.18.1.235.04.039-.046.009-.1-.066-.183-.184-.155-.661-.584-.873-.769A1.637,1.637,0,0,1-4.6,9.635a.5.5,0,0,1,.717-.06c.281.166.512.34,1.791,1.226l1.238.859a3.291,3.291,0,0,0,2.779.754A3.667,3.667,0,0,0,3.882,10.82a3.315,3.315,0,0,0,.675-2.261A3.79,3.79,0,0,0,2.6,5.969l-.9-.625C.416,4.458.185,4.284-.076,4.088c-.283-.226-.361-.367-.235-.633a1.5,1.5,0,0,1,.148-.278c.06-.087.068-.15.031-.193A1.46,1.46,0,0,1,.026,2.74a.5.5,0,0,1,.7-.163c.3.134.556.263,1.949.955l1.62.8c.841.418,1.565.778,1.931,1.014.253.166.4.306.346.522a1.5,1.5,0,0,1-.133.352c-.059.118-.022.178.022.2.064.032.128-.016.187-.136.1-.194.2-.437.306-.669s.2-.436.256-.544c.118-.237.311-.572.531-.934s.446-.761.618-1.107a4.943,4.943,0,0,0,.5-3.721A3.972,3.972,0,0,0,6.82-2.995" transform="translate(9.567 3.425)"/>
        </g>
      </g>
      <g id="Group_4522" data-name="Group 4522" transform="translate(141.231 97.302)">
        <g id="Group_4521" data-name="Group 4521" transform="translate(0 0)">
          <path id="Path_2946" data-name="Path 2946" class="cls-3" d="M3.9.84A6.883,6.883,0,0,0,2.844.4c-.1-.028-.235-.051-.257.03s.021.106.119.157c.389.18.567.353.614.64a2.851,2.851,0,0,1-.133,1c-.283,1.048-.52,1.322-1.2,1.162C1.692,3.326.857,3.088.519,3l-.791-.214c-.058-.016-.1-.04-.089-.087C-.292,2.44.046,1.282.12,1.1.259.728.445.64.659.635c.134.012.262.046.37.063.046.013.088,0,.106-.07C1.16.536,1.024.486.942.464S.483.315.291.238c-.483-.193-.64-.26-.7-.276A.1.1,0,0,0-.534.015c-.012.047.036.1.085.2.079.121.061.278.019.529s-.4,1.566-.462,1.8c-.016.058-.065.058-.124.041L-3.46,1.92c-.058-.016-.087-.048-.074-.1C-3.478,1.615-3.123.4-3.053.23c.185-.5.346-.543.543-.577a.973.973,0,0,1,.38.028c.082.022.131.023.15-.046s-.088-.136-.131-.16c-.109-.055-.534-.194-.635-.234a4.538,4.538,0,0,1-.618-.255c-.046-.013-.1-.013-.112.044a1.423,1.423,0,0,0,0,.176,4.457,4.457,0,0,1-.058.445c-.041.2-.667,2.468-.756,2.793-.078.29-.277.935-.423,1.47-.04.151-.039.239.03.258s.122-.042.151-.147a2.013,2.013,0,0,1,.145-.4.5.5,0,0,1,.655-.3c.317.073.6.148,2.1.556l1.745.472c.907.246,1.686.457,2.093.616.281.114.451.222.442.444a1.474,1.474,0,0,1-.061.37c-.034.128.013.179.06.191.069.019.123-.041.157-.169.057-.209.115-.469.169-.716s.113-.468.145-.584c.081-.3.2-.682.344-1.18s.337-1.108.545-1.876c.1-.383.128-.476-.108-.615" transform="translate(4.738 1.02)"/>
        </g>
      </g>
      <g id="Group_4524" data-name="Group 4524" transform="translate(143.136 91.754)">
        <g id="Group_4523" data-name="Group 4523" transform="translate(0 0)">
          <path id="Path_2947" data-name="Path 2947" class="cls-3" d="M2.694.307C1.778.156.935.455-.055,1.708L-.364,2.1c-.679.853-1.063.96-1.515.886-.69-.114-.97-.857-.846-1.607A1.425,1.425,0,0,1-2.056.288,1.162,1.162,0,0,1-1.345.125c.118.02.184-.006.2-.076s-.086-.148-.3-.183c-.8-.133-1.076-.215-1.206-.237-.071-.011-.115.03-.154.121a6.27,6.27,0,0,0-.412,1.458c-.241,1.452.358,2.771,1.595,2.976C-.734,4.331.011,4.04.941,2.925L1.4,2.376c.7-.837,1.159-.871,1.6-.8A1.33,1.33,0,0,1,4.041,3.242a1.641,1.641,0,0,1-1.275,1.5,1.931,1.931,0,0,1-.539.008c-.071-.012-.169-.016-.184.079s.085.148.24.174.787.19,1.335.281c.226.037.278.01.377-.144a4.528,4.528,0,0,0,.543-1.657,3.1,3.1,0,0,0-.125-1.818A2.192,2.192,0,0,0,2.694.307" transform="translate(3.273 0.373)"/>
        </g>
      </g>
      <g id="Group_4526" data-name="Group 4526" transform="translate(72.074 144.79)">
        <g id="Group_4525" data-name="Group 4525" transform="translate(0 0)">
          <path id="Path_2948" data-name="Path 2948" class="cls-3" d="M5.34,2.328l-2.048.025c-.037,0-.061-.022-.037-.071l.992-2.6c.011-.036.022-.1.058-.1s.037.061.049.1L5.387,2.267c.013.036,0,.06-.047.061m-7.6-.959a1.065,1.065,0,0,1-.76.1,2.9,2.9,0,0,1-.8-.167c-.069-.043-.09-.081-.08-.189l.27-3.039c.007-.084.034-.118.109-.135a3.78,3.78,0,0,1,.628.019A1.612,1.612,0,0,1-1.444-.083a1.734,1.734,0,0,1-.82,1.452M8.968,5.211a2.594,2.594,0,0,1-.4-.031c-.194-.046-.5-.175-.918-1.092-.694-1.54-2.519-5.711-2.779-6.274-.112-.227-.16-.323-.317-.321-.109,0-.191.123-.308.414L1.557,4.389a1.509,1.509,0,0,1-.538.8,2.668,2.668,0,0,1-.677-.61C-.237,3.884-.9,2.893-1.733,1.659-.627.922-.136.287-.068-.469A1.79,1.79,0,0,0-.688-1.94a3.72,3.72,0,0,0-1.967-.61c-.324-.028-1.287-.091-1.647-.123-.216-.019-.886-.1-1.438-.151-.156-.013-.242,0-.248.074s.062.113.17.123a1.992,1.992,0,0,1,.418.073c.327.126.413.243.406.593-.016.325-.042.613-.18,2.163L-5.332,2c-.083.937-.154,1.742-.241,2.17-.063.3-.14.484-.361.513a1.523,1.523,0,0,1-.375,0c-.132-.011-.173.045-.178.092-.007.072.062.114.194.126.421.037,1.1.062,1.3.08.156.013,1.029.126,1.641.181.132.011.22-.016.226-.088a.122.122,0,0,0-.122-.118,4.014,4.014,0,0,1-.514-.082c-.32-.076-.351-.273-.361-.577-.01-.436.049-1.23.133-2.179l.013-.145A.076.076,0,0,1-3.885,1.9l.946.108a.247.247,0,0,1,.187.089c.118.168.5.892.874,1.482A4.8,4.8,0,0,0-.573,5.21a1.933,1.933,0,0,0,.843.273c.024.04.082.053.181.052l.263-.005L1.57,5.6c.133.012.206-.006.214-.089,0-.01-.008-.02-.011-.031.331,0,.769.023,1.089.019.109,0,.169-.026.167-.11,0-.06-.025-.107-.158-.106l-.157,0c-.325,0-.423-.1-.425-.284a1.862,1.862,0,0,1,.148-.629L2.986,3c.023-.061.034-.073.1-.073L5.576,2.89a.1.1,0,0,1,.109.071l.845,2.052a.16.16,0,0,1-.093.23c-.109.013-.132.049-.131.109s.121.07.314.08c.892.012,1.663,0,2.036,0,.4-.005.458-.03.457-.113s-.049-.107-.146-.106" transform="translate(6.487 2.828)"/>
        </g>
      </g>
      <g id="Group_4528" data-name="Group 4528" transform="translate(15.571 100.725)">
        <g id="Group_4527" data-name="Group 4527" transform="translate(0 0)">
          <path id="Path_2949" data-name="Path 2949" class="cls-3" d="M.443,2.653C-.222.765.947-.924,2.937-1.625c2.388-.841,3.44.258,3.832,1.373.569,1.614-.3,3.364-2.435,4.117C1.582,4.833.691,3.358.443,2.653M5.21,5.228c2.217-.781,3.062-2.84,2.173-5.365C6.314-3.173,3.77-3.579,2.121-3A4,4,0,0,0-.223,2.427a4.138,4.138,0,0,0,5.433,2.8" transform="translate(0.538 3.223)"/>
        </g>
      </g>
      <g id="Group_4530" data-name="Group 4530" transform="translate(44.905 136.379)">
        <g id="Group_4529" data-name="Group 4529" transform="translate(0 0)">
          <path id="Path_2950" data-name="Path 2950" class="cls-3" d="M3.015,2.61C1.531,5.121-.1,4.563-.743,4.183-2.466,3.164-2.658,1.118-1.584-.7-.3-2.877,1.217-2.711,2.234-2.11c1.474.871,1.934,2.768.781,4.719m1.548.481c1.2-2.024.52-4.144-1.785-5.507C.009-4.054-2.2-2.73-3.091-1.225A4,4,0,0,0-1.4,4.438,4.138,4.138,0,0,0,4.564,3.09" transform="translate(3.663 3.17)"/>
        </g>
      </g>
      <g id="Group_4532" data-name="Group 4532" transform="translate(18.03 107.996)">
        <g id="Group_4531" data-name="Group 4531" transform="translate(0 0)">
          <path id="Path_2951" data-name="Path 2951" class="cls-3" d="M1.774,3.507c-.037-.076-.1-.07-.194-.038a1.226,1.226,0,0,1-.668.036C.545,3.391.352,3.03.1,2.522c-.364-.734-.493-1.128-.433-1.359C-.262.872.32.582,1.5,0l1.62-.8c1.392-.692,1.652-.821,1.954-.944.334-.139.5-.129.673.109a2.42,2.42,0,0,1,.215.351c.058.119.118.157.182.125s.053-.107-.016-.248c-.182-.367-.589-1.134-.7-1.359C5.3-3.033,5.015-3.647,4.8-4.09c-.07-.14-.124-.194-.187-.162s-.07.1-.016.209a1.39,1.39,0,0,1,.123.329.5.5,0,0,1-.292.657c-.286.156-.545.285-1.938.977l-1.62.8C.024-.857-.7-.5-1.109-.348c-.286.1-.486.134-.625-.039a1.476,1.476,0,0,1-.2-.318c-.059-.118-.129-.124-.172-.1-.064.031-.064.112-.005.232.1.193.226.426.349.647S-1.538.5-1.484.6c.193.388.38.793.606,1.272S-.4,2.92-.063,3.6c.247.5.311.518.548.481A7.787,7.787,0,0,0,1.612,3.7c.108-.053.194-.123.162-.188" transform="translate(2.155 4.261)"/>
        </g>
      </g>
      <g id="Group_4534" data-name="Group 4534" transform="translate(95.08 141.768)">
        <g id="Group_4533" data-name="Group 4533" transform="translate(0 0)">
          <path id="Path_2952" data-name="Path 2952" class="cls-3" d="M3.7,1.384C3.26-.107,3.189-.387,3.108-.7c-.08-.354-.052-.513.211-.642a1.485,1.485,0,0,1,.29-.124c.115-.034.163-.086.142-.155s-.1-.071-.235-.029c-.393.116-1.067.34-1.182.375-.011,0-.7.184-1.219.339C.976-.9.914-.854.934-.785s.088.086.2.052a1.8,1.8,0,0,1,.38-.075c.351,0,.463.076.586.4.1.308.2.582.642,2.073l.368,1.236a3.283,3.283,0,0,1,.122,2.567A2.02,2.02,0,0,1,2.027,6.4a2.04,2.04,0,0,1-1.4-.011C.014,6.141-.429,5.67-.855,4.236l-.409-1.374c-.444-1.491-.526-1.768-.6-2.087C-1.94.421-1.9.258-1.648.133a1.423,1.423,0,0,1,.29-.124c.1-.031.151-.083.131-.151s-.1-.071-.247-.027c-.37.11-1.044.334-1.3.41-.3.089-.987.27-1.53.432-.151.044-.213.088-.192.157s.088.086.2.052A1.936,1.936,0,0,1-3.888.8c.351,0,.471.061.6.4.115.305.187.586.63,2.076l.43,1.445a3.292,3.292,0,0,0,1.7,2.325,3.669,3.669,0,0,0,2.521-.022A3.316,3.316,0,0,0,3.928,5.682a3.792,3.792,0,0,0,.088-3.247Z" transform="translate(4.499 1.681)"/>
        </g>
      </g>
      <g id="Group_4536" data-name="Group 4536" transform="translate(13.386 91.892)">
        <g id="Group_4535" data-name="Group 4535" transform="translate(0 0)">
          <path id="Path_2953" data-name="Path 2953" class="cls-3" d="M1.368,3.911C1.35,3.817,1.3,3.8,1.1,3.8a2,2,0,0,1-.859-.253c-.635-.369-.876-.985-1.078-2.039a4.052,4.052,0,0,1,3.5-4.537,4.027,4.027,0,0,1,3.275.5A3.148,3.148,0,0,1,7.1-.439a3.6,3.6,0,0,1-.274,2.544,1.721,1.721,0,0,1-1,.671c-.166.031-.256.073-.238.167s.12.112.3.089c.241-.022.89-.158,1.285-.209.419-.056.568-.047.663-.066.071-.013.121-.072.108-.2-.033-.361,0-.76-.026-1.221a11.931,11.931,0,0,0-.211-1.74,5.256,5.256,0,0,0-1.97-3.5,4.534,4.534,0,0,0-3.509-.763A4.55,4.55,0,0,0-.984-2.535a6.028,6.028,0,0,0-.511,4.308,6.982,6.982,0,0,0,.68,2.079.424.424,0,0,0,.4.241,11.465,11.465,0,0,0,1.624-.042c.1-.018.173-.058.157-.14" transform="translate(1.662 4.751)"/>
        </g>
      </g>
      <g id="Group_4538" data-name="Group 4538" transform="translate(21.013 113.307)">
        <g id="Group_4537" data-name="Group 4537" transform="translate(0 0)">
          <path id="Path_2954" data-name="Path 2954" class="cls-3" d="M1.951,3.617c-.044-.072-.109-.06-.2-.019a1.229,1.229,0,0,1-.662.1c-.376-.077-.6-.419-.9-.9-.434-.7-.6-1.074-.563-1.311C-.331,1.19.221.845,1.336.15L2.87-.808c1.319-.823,1.565-.976,1.853-1.128.319-.171.487-.176.681.043a2.42,2.42,0,0,1,.248.328c.07.112.133.145.193.107s.043-.112-.04-.245c-.217-.348-.7-1.071-.829-1.286-.153-.245-.491-.829-.753-1.248-.083-.133-.142-.182-.2-.144s-.059.108,0,.211a1.385,1.385,0,0,1,.154.316.5.5,0,0,1-.228.682c-.27.182-.515.336-1.835,1.159L.584-1.055C-.213-.558-.9-.13-1.292.058c-.275.129-.471.18-.626.022a1.466,1.466,0,0,1-.23-.3c-.07-.112-.14-.112-.181-.086-.061.038-.053.118.017.231.115.184.265.4.41.611s.265.4.328.5c.229.368.456.752.726,1.209s.576.99.978,1.635c.294.47.36.486.592.426A7.7,7.7,0,0,0,1.807,3.82c.1-.064.181-.142.143-.2" transform="translate(2.369 4.393)"/>
        </g>
      </g>
      <g id="Group_4540" data-name="Group 4540" transform="translate(62.616 142.223)">
        <g id="Group_4539" data-name="Group 4539" transform="translate(0 0)">
          <path id="Path_2955" data-name="Path 2955" class="cls-3" d="M4.166,2.63c-.386-.094-1.014-.212-1.377-.3s-1.08-.3-1.689-.448c-.164-.04-.252-.037-.274.056-.017.07.048.11.153.136a2.43,2.43,0,0,1,.448.147c.367.176.427.389.34.79-.074.355-.182.8-.325,1.385L1.173,5.5c-.049.2-.133.34-.328.379A2.676,2.676,0,0,1-.183,5.762c-2.471-.6-3.616-2.881-3-5.4A3.589,3.589,0,0,1-1.407-2.242a3.473,3.473,0,0,1,2.5-.16A3.855,3.855,0,0,1,3.478-.852,1.7,1.7,0,0,1,3.638.217c-.01.1,0,.161.08.181s.142-.027.189-.214a16.26,16.26,0,0,1,.55-1.9c.02-.082.007-.133-.13-.18a7.935,7.935,0,0,1-.893-.354,14.529,14.529,0,0,0-2.027-.693,5.856,5.856,0,0,0-3.337-.009A4.509,4.509,0,0,0-4.9.38c-.788,3.232,1.42,5.209,4.29,5.908a6.826,6.826,0,0,0,2.95.163c.16-.048.178-.068.255-.385l.314-1.289c.143-.586.257-1.054.355-1.4.111-.407.277-.577.607-.559a1.823,1.823,0,0,1,.325.042c.082.02.158.013.175-.056.023-.093-.053-.136-.205-.173" transform="translate(5.06 3.195)"/>
        </g>
      </g>
      <g id="Group_4542" data-name="Group 4542" transform="translate(24.549 118.294)">
        <g id="Group_4541" data-name="Group 4541" transform="translate(0 0)">
          <path id="Path_2956" data-name="Path 2956" class="cls-3" d="M3.012,2.695a.1.1,0,0,0,.035-.133c-.03-.038-.1-.03-.208-.053C2.695,2.5,2.58,2.39,2.407,2.2S1.4.935,1.258.744C1.221.7,1.252.658,1.3.621L3.309-.921c.048-.037.091-.039.121,0,.132.172.884,1.192.975,1.35.284.451.22.606.128.782A.972.972,0,0,1,4.28,1.5c-.067.051-.1.09-.054.148s.161.012.207-.007c.109-.053.478-.306.571-.362A4.626,4.626,0,0,1,5.582.936C5.62.907,5.651.868,5.615.82a1.4,1.4,0,0,0-.142-.1A4.3,4.3,0,0,1,5.155.4C5.021.244,3.6-1.629,3.395-1.9c-.183-.239-.574-.789-.912-1.229-.1-.124-.166-.177-.223-.133s-.041.123.025.209a1.936,1.936,0,0,1,.228.356.5.5,0,0,1-.161.7c-.251.208-.481.384-1.716,1.33L-.8.439C-1.543,1.01-2.184,1.5-2.558,1.727c-.261.155-.451.225-.621.082a1.473,1.473,0,0,1-.257-.274c-.081-.1-.15-.1-.188-.068-.057.043-.041.123.039.228.133.172.3.376.467.569s.3.375.376.47c.19.249.422.571.728.99s.676.94,1.16,1.572c.241.315.3.391.554.288a6.9,6.9,0,0,0,.987-.574c.086-.066.184-.156.133-.223s-.1-.047-.2,0a.864.864,0,0,1-.881.1,2.876,2.876,0,0,1-.714-.712c-.661-.862-.734-1.215-.193-1.66.232-.193.928-.712,1.206-.925l.651-.5c.048-.037.093-.056.122-.018.162.211.877,1.182.975,1.35.214.338.169.538.043.711-.09.1-.2.181-.274.256-.038.029-.052.07-.008.127.058.076.18,0,.247-.054s.4-.274.575-.38c.447-.266.6-.35.643-.387" transform="translate(3.659 3.273)"/>
        </g>
      </g>
      <g id="Group_4544" data-name="Group 4544" transform="translate(30.076 124.623)">
        <g id="Group_4543" data-name="Group 4543" transform="translate(0 0)">
          <path id="Path_2957" data-name="Path 2957" class="cls-3" d="M2.994,3.205a1.426,1.426,0,0,1,.228.181.122.122,0,0,0,.169.019c.06-.058.018-.118-.082-.222-.244-.25-.648-.631-.883-.872-.219-.224-.733-.783-1.12-1.179-.1-.1-.169-.156-.229-.1-.043.042-.026.127.04.2a1.95,1.95,0,0,1,.261.318.5.5,0,0,1-.077.716c-.215.228-.492.5-.854.851l-.673.657a.338.338,0,0,1-.4.106,1.754,1.754,0,0,1-.6-.459,3.558,3.558,0,0,1,.148-5.3A2.985,2.985,0,0,1,1.388-2.925,2.978,2.978,0,0,1,3.252-1.88,3.281,3.281,0,0,1,4.3.315a1.368,1.368,0,0,1-.352.849c-.052.067-.07.118-.019.169s.154.053.265-.056A13.742,13.742,0,0,1,5.452.149C5.5.1,5.512.056,5.437-.038a8.249,8.249,0,0,1-.511-.679A12.2,12.2,0,0,0,3.732-2.18,5.326,5.326,0,0,0,1.262-3.762,3.8,3.8,0,0,0-2.433-2.747C-4.458-.769-3.7,1.7-1.875,3.565A6.376,6.376,0,0,0,.261,5.1c.144.045.153.037.351-.157l.811-.792c.362-.354.655-.64.889-.85.267-.244.447-.268.683-.094" transform="translate(3.638 3.894)"/>
        </g>
      </g>
      <g id="Group_4546" data-name="Group 4546" transform="translate(86.713 144.664)">
        <g id="Group_4545" data-name="Group 4545" transform="translate(0 0)">
          <path id="Path_2958" data-name="Path 2958" class="cls-3" d="M3.243,2.851a3.343,3.343,0,0,1-2.2,1.013c-.824.115-1.272-.04-1.431-.214a1.864,1.864,0,0,1-.219-.7C-.644,2.75-.764,1.976-.914.9L-1.093-.376c-.112-.8-.229-1.636-.265-1.984a.181.181,0,0,1,.1-.221A2.284,2.284,0,0,1-.62-2.744a4.283,4.283,0,0,1,3.073.556A3.332,3.332,0,0,1,3.785.207a3.129,3.129,0,0,1-.543,2.645M3.9-2.73C2.59-3.727.823-3.479-.491-3.3c-.633.088-1.381.216-1.7.261-.3.042-.969.113-1.518.19-.155.022-.235.057-.226.128s.087.1.194.082a1.972,1.972,0,0,1,.423-.023c.348.049.458.143.53.487.057.32.1.607.313,2.147l.251,1.791c.13.93.242,1.73.254,2.166.006.3-.027.5-.235.581a1.512,1.512,0,0,1-.364.088c-.131.019-.159.082-.152.13.01.07.086.1.217.078.215-.03.476-.079.725-.126s.475-.078.595-.1c.262-.037.647-.066,1.07-.088s.88-.062,1.262-.115A4.949,4.949,0,0,0,4.5,2.7,3.979,3.979,0,0,0,5.248-.29,3.589,3.589,0,0,0,3.9-2.73" transform="translate(3.939 3.464)"/>
        </g>
      </g>
      <g id="Group_4548" data-name="Group 4548" transform="translate(52.167 139.332)">
        <g id="Group_4547" data-name="Group 4547" transform="translate(0 0)">
          <path id="Path_2959" data-name="Path 2959" class="cls-3" d="M3.475.914A2.96,2.96,0,0,1,3.06.785C2.823.695.673-.259.3-.423.022-.543-.586-.836-1.083-1.053c-.154-.067-.241-.079-.271-.013s.034.132.123.171a1.93,1.93,0,0,1,.372.2A.5.5,0,0,1-.662,0C-.781.3-.9.566-1.52,1.992l-.724,1.655c-.4.907-.7,1.6-.919,1.981-.154.262-.286.414-.5.371a1.56,1.56,0,0,1-.357-.116c-.11-.049-.167-.008-.187.036-.033.076.023.127.156.185.364.16,1,.4,1.25.509s.924.442,1.543.713c.144.063.224.058.253-.007.019-.043,0-.118-.122-.171a3.787,3.787,0,0,1-.46-.241c-.268-.17-.257-.376-.169-.667.13-.417.409-1.085.8-1.991l.338-.773c.029-.067.056-.068.1-.049.166.073,1.31.586,1.544.715a.54.54,0,0,1,.314.545A.971.971,0,0,1,1.28,5c-.029.067-.025.147.029.171.1.043.168-.085.2-.162s.229-.493.333-.67c.163-.283.318-.517.343-.573s.016-.1-.016-.112c-.055-.025-.1.01-.176.041a.542.542,0,0,1-.48-.013c-.148-.052-.281-.109-.447-.182L-.3,2.921C-.353,2.9-.349,2.859-.325,2.8l1-2.276C.719.417.761.41.817.434l1.6.739c.36.171.484.4.493.558a.823.823,0,0,1-.1.377c-.048.11-.012.178.054.208s.137-.071.181-.145c.059-.1.323-.646.377-.741.139-.229.232-.32.261-.386A.092.092,0,0,0,3.653.927C3.6.9,3.535.927,3.475.914" transform="translate(4.221 1.111)"/>
        </g>
      </g>
      <g id="Group_4550" data-name="Group 4550" transform="translate(35.419 129.345)">
        <g id="Group_4549" data-name="Group 4549" transform="translate(0 0)">
          <path id="Path_2960" data-name="Path 2960" class="cls-3" d="M3.951,1.455a4.432,4.432,0,0,1-.379-.241c-.164-.123-1.952-1.65-2.21-1.868C1.133-.848.634-1.3.21-1.66c-.12-.1-.2-.137-.246-.082s-.014.129.068.2a1.949,1.949,0,0,1,.3.3.5.5,0,0,1-.008.72c-.2.256-.388.478-1.392,1.665l-1.167,1.38c-.607.718-1.128,1.334-1.446,1.635-.222.207-.392.315-.589.211a1.458,1.458,0,0,1-.31-.212c-.1-.085-.167-.063-.2-.027-.046.055-.014.13.087.215.166.139.376.3.577.456s.376.3.467.379c.239.2.535.468.923.812s.861.775,1.468,1.289c.3.256.377.319.6.163a6.986,6.986,0,0,0,.841-.772c.07-.083.147-.193.082-.247s-.1-.025-.193.042c-.328.275-.559.364-.839.285a2.844,2.844,0,0,1-.85-.545c-.829-.7-.977-1.03-.544-1.58.186-.238.756-.894.981-1.161l.53-.626c.039-.046.079-.075.116-.043.2.171,1.107.968,1.239,1.111.28.284.28.49.194.685C.838,4.71.752,4.811.692,4.9c-.031.037-.036.08.019.126.073.062.175-.04.23-.1s.33-.353.481-.494c.379-.355.507-.469.546-.515a.1.1,0,0,0,.006-.137c-.037-.031-.1-.008-.214-.007-.144.022-.279-.061-.488-.206S.022,2.537-.162,2.381c-.046-.039-.024-.083.015-.13L1.488.318c.039-.046.08-.058.118-.027.165.14,1.117.976,1.239,1.111.374.379.345.544.292.737a.977.977,0,0,1-.186.331c-.055.064-.076.109-.022.156s.161-.022.2-.051c.1-.076.4-.4.481-.476A4.539,4.539,0,0,1,4.1,1.648c.031-.037.052-.082.007-.121a1.367,1.367,0,0,0-.16-.072" transform="translate(4.799 1.768)"/>
        </g>
      </g>
      <g id="Group_4552" data-name="Group 4552" transform="translate(68.778 58.093)">
        <g id="Group_4551" data-name="Group 4551" transform="translate(0 0)">
          <path id="Path_2961" data-name="Path 2961" class="cls-3" d="M.135.99,9.235,5.2c.267.123.591-.262.725-.861s.025-1.185-.241-1.308L.618-1.179C.352-1.3.028-.917-.107-.318S-.132.866.135.99" transform="translate(0.164 1.202)"/>
        </g>
      </g>
      <g id="Group_4554" data-name="Group 4554" transform="translate(71.838 35.485)">
        <g id="Group_4553" data-name="Group 4553" transform="translate(0 0)">
          <path id="Path_2962" data-name="Path 2962" class="cls-3" d="M1.674,10.51a.94.94,0,0,0,1.492-.473A1.888,1.888,0,0,0,3.2,8.587a1.51,1.51,0,0,0,2.15-.754L8.689,1.018c2.644,2.237,3.844,6.515,3.844,10.053a14.662,14.662,0,0,1-3.783,9.347H-.694c-.319,0-.7.378-.85.841L-2.025,23.6c-.055.514.161.935.48.935h19.17c.319,0,.535-.421.48-.935l-.482-2.339c-.149-.463-.532-.841-.85-.841h-2.64a25.013,25.013,0,0,0,1.659-8.432c0-5.438-1.578-12.1-5.086-15.078l1.41-2.874a2.966,2.966,0,0,0-.32-2.928,1.079,1.079,0,0,0,.862-.686,1.771,1.771,0,0,0-.352-2l-1.163-.966a.94.94,0,0,0-1.492.473,1.883,1.883,0,0,0-.1,1.234,1.51,1.51,0,0,0-2.022.819L.76,3.775a2.962,2.962,0,0,0,.451,3.088A1.016,1.016,0,0,0,.16,7.54a1.77,1.77,0,0,0,.352,2Z" transform="translate(2.034 12.767)"/>
        </g>
      </g>
      <g id="Group_4556" data-name="Group 4556" transform="translate(41.96 95.686)">
        <g id="Group_4555" data-name="Group 4555" transform="translate(0)">
          <path id="Path_2963" data-name="Path 2963" class="cls-3" d="M12.882,7.972a28.934,28.934,0,0,0-10.4-2.128s-1.8.069-4.748-2.462c0,0,.938.17-3.624-2.859S-12.977.278-11.22.851l3.771,3.684L-4.8,6.417-7.464,5.6A16.982,16.982,0,0,0-12.324.687,1.467,1.467,0,0,1-11.01-1.36s-.4-6.22-.817-6.712c0,0-2.1-3.274-2.977-.491L-15.493-4.8l-.057,3.274s-.529,1.368.855,3.262l4.413,7.215a10.891,10.891,0,0,0,2.336,1.964L4.206,16.076s2.619.736,2.374,3.193v3.058l12.769-.235s-.573-3.314,0-4.87c0,0,2.866-2.7-6.466-9.25" transform="translate(15.649 9.684)"/>
        </g>
      </g>
      <g id="Group_4558" data-name="Group 4558" transform="translate(86.981 95.686)">
        <g id="Group_4557" data-name="Group 4557" transform="translate(0 0)">
          <path id="Path_2964" data-name="Path 2964" class="cls-3" d="M14.264.728c-.421.491-.817,6.712-.817,6.712a1.467,1.467,0,0,1,1.314,2.046A16.99,16.99,0,0,0,9.9,14.4l-2.665.818,2.651-1.883L13.657,9.65c1.757-.573-.774-3.355-5.336-.327S4.7,12.182,4.7,12.182C1.751,14.713-.05,14.644-.05,14.644a28.924,28.924,0,0,0-10.4,2.129c-9.332,6.548-6.467,9.25-6.467,9.25.574,1.555,0,4.87,0,4.87l12.77.235V28.068c-.246-2.456,2.374-3.193,2.374-3.193l12.153-5.156a10.883,10.883,0,0,0,2.336-1.965l4.413-7.215c1.383-1.894.854-3.262.854-3.262L17.93,4,17.241.237c-.881-2.783-2.977.491-2.977.491" transform="translate(17.327 0.884)"/>
        </g>
      </g>
      <g id="Group_4560" data-name="Group 4560" transform="translate(73.885 107.027)">
        <g id="Group_4559" data-name="Group 4559" transform="translate(0 0)">
          <path id="Path_2965" data-name="Path 2965" class="cls-3" d="M1.184,1.971c.593,0,.691-.016.927-.447.057-.057.244-.057.276.049a3.685,3.685,0,0,1-.4,1.26C1.663,2.816,1.37,2.807.85,2.807H-.442c-.423,0-.772.008-.91.025-.073-.016-.1-.106-.081-.179.309-.284.772-.715,1.26-1.251A3.288,3.288,0,0,0,.891-.768.9.9,0,0,0,.005-1.76a1.234,1.234,0,0,0-1.048.748.174.174,0,0,1-.268-.114A2,2,0,0,1,.558-2.394,1.4,1.4,0,0,1,2.094-1.012C2.094-.378,1.85.085.867,1l-.39.366c-.358.334-.431.447-.431.512,0,.049.041.1.154.1Z" transform="translate(1.438 2.394)"/>
        </g>
      </g>
      <g id="Group_4562" data-name="Group 4562" transform="translate(78.188 107.027)">
        <g id="Group_4561" data-name="Group 4561" transform="translate(0)">
          <path id="Path_2966" data-name="Path 2966" class="cls-3" d="M.848,2.231c.618,0,.691-1.56.691-2.284S1.466-2.337.848-2.337.157-.776.157-.053.23,2.231.848,2.231M2.725-.053c0,1.309-.561,2.658-1.877,2.658S-1.03,1.256-1.03-.053c0-1.259.561-2.657,1.877-2.657s1.877,1.4,1.877,2.657" transform="translate(1.03 2.71)"/>
        </g>
      </g>
      <g id="Group_4564" data-name="Group 4564" transform="translate(82.956 106.995)">
        <g id="Group_4563" data-name="Group 4563" transform="translate(0 0)">
          <path id="Path_2967" data-name="Path 2967" class="cls-3" d="M.859,1.89c0,.65.049.732.447.764l.334.024c.073.049.064.26-.016.285C1.331,2.946.843,2.938.339,2.938c-.536,0-1.023.008-1.316.025-.082-.025-.09-.236-.016-.285l.333-.024c.4-.032.447-.114.447-.764V-.768c0-.537-.032-.667-.39-.708l-.373-.048a.222.222,0,0,1-.016-.285,9.15,9.15,0,0,0,1.04-.227C.4-2.141.713-2.3.77-2.3a.117.117,0,0,1,.114.089c-.016.187-.025.561-.025.967Z" transform="translate(1.044 2.296)"/>
        </g>
      </g>
      <g id="Group_4566" data-name="Group 4566" transform="translate(86.695 107.027)">
        <g id="Group_4565" data-name="Group 4565" transform="translate(0 0)">
          <path id="Path_2968" data-name="Path 2968" class="cls-3" d="M.543.51c0,.382.276.724.942,1.008A1.012,1.012,0,0,0,1.876.632c0-.561-.349-.878-.675-.878A.693.693,0,0,0,.543.51M1.925,3.575c0-.643-.448-1-1.122-1.317A1.375,1.375,0,0,0,.389,3.322a.914.914,0,0,0,.862,1,.687.687,0,0,0,.675-.747M-.66,3.363A1.44,1.44,0,0,1,.413,2.03,1.42,1.42,0,0,1-.448.794,1.484,1.484,0,0,1,1.217-.62c.919,0,1.569.5,1.569,1.284A1.289,1.289,0,0,1,1.9,1.77,1.663,1.663,0,0,1,2.99,3.306C2.99,4.086,2.4,4.7,1.12,4.7.169,4.7-.66,4.281-.66,3.363" transform="translate(0.66 0.62)"/>
        </g>
      </g>
      <g id="Group_4568" data-name="Group 4568" transform="translate(33.514 38.151)">
        <g id="Group_4567" data-name="Group 4567" transform="translate(0 0)">
          <path id="Path_2969" data-name="Path 2969" class="cls-3" d="M35.56,26.367c-1.077-2.537-2.516-5.111-3.808-7.807a59.8,59.8,0,0,1,5.347,8.35Zm-25.79.756c2.626-3.316,6.318-3.594,9.254-3.544,4.616.077,7.854,1.005,15,3.719-7.6-1.055-17.379-3.376-24.251-.175m18.557-12.21c1.239,1.617,4,7.447,4.978,9.5-2.126-1.317-4.386-7.561-4.978-9.5M7.874,27.312H7.836c-.12.262-.238.468-.356.683a4.46,4.46,0,0,0-3.972-.028,4.029,4.029,0,0,0-.124-.592c-1.269-4.415-9.721-5.737-13.268-5.737-.851,0-6.576,1.878-10.161,2.425,3.723-3.915,6.1-6.768,9.507-6.768,5.233,0,14.009,4.955,16.04,8.935,1.707-4.571,11.528-8.623,15.953-8.623,2.893,0,6.815,3.019,9.5,6.471a34.843,34.843,0,0,0-11.035-1.916c-5.184,0-8.911-.013-12.041,5.151m-30.616-.092c4.56-1.939,8.663-3.729,13.469-3.915,3.792-.146,9.975,2.119,10.55,3.7-8.132-3.256-17.81-1.029-24.019.211m-3.3-.388,5.209-7.959c-1.3,2.389-2.367,4.728-3.451,7.261ZM-16.825,14c-.89,2.645-2.4,7.718-5.2,10.125A69.067,69.067,0,0,1-16.825,14m8.159-6.349c.893,0,13.759,3.981,13.7,7.95l.025,8.221c-5.391-5.568-10.154-7.458-15.6-7.458-.85,0-3.88.619-5.746.877,1.292-3.19,3.364-9.59,7.619-9.59m28.588.311c4.127,0,5.364,6.9,7.634,9.571-1.881-.239-5.081-.858-5.932-.858-5.105,0-10.088,1.663-15.433,6.523L6.172,15.37c-.053-3.462,12.857-7.41,13.75-7.41M53.7,8.8l-.76.453-.886.448-.883.342-.884.335-.886.449-.761.562-.632.562-.133.126a8.205,8.205,0,0,1-1.052,1.326l-.068.116-.25.336-.247.226-.036.048-.073.106c-.138.243-.265.49-.387.736-.027.072-.06.14-.082.216a.171.171,0,0,1-.065.094c-.094.2-.19.407-.273.609l-.1.439-.25.673-.223.487-.045.123-.113.514-.255.558-.252.225-.1.092a2.8,2.8,0,0,1-.714.742l-1.62.7a.212.212,0,0,1,.028-.217c.049-.06.106-.113.158-.17l-.018-.017.631-1.012.626-1.126.628-1.119.506-1.123.5-1.125.383-1.125.058-.187q.206-1.043.425-2.081l.02-.2.036-.062c.067-.311.13-.623.2-.934a15.285,15.285,0,0,0,.271-2.8V6.791l.018-.046c.01-.229.022-.458.04-.688a6.335,6.335,0,0,1,.19-1.291v0l0,0a1.986,1.986,0,0,1,.476-.859,1.538,1.538,0,0,1,.25-.2l.017-.031c.013,0,.028,0,.04,0a5.619,5.619,0,0,1,1.508-.46c.018-.007.037-.012.055-.019h.018l.041-.011.043-.038a3.671,3.671,0,0,0,.746-.493c.031-.025.063-.05.093-.077s.07-.063.106-.094A6.084,6.084,0,0,0,51.687.324a5.883,5.883,0,0,0,.5-4.109l-.128-.772-.121-.676-.127-.785L51.682-6.7v0c-.048-.221-.094-.443-.134-.667-.127-.708-.194-1.425-.318-2.133h-.056V-9.51a13.754,13.754,0,0,1-1.242,1.5,5.085,5.085,0,0,1-.763.748,11,11,0,0,0-2.642,4.476,10.089,10.089,0,0,0-.384,1.737l0,.028a2.1,2.1,0,0,0-.064.288.347.347,0,0,0-.119.2.141.141,0,0,1-.143-.132c-.039-.284-.087-.568-.134-.853a.2.2,0,0,1-.031-.084,3.327,3.327,0,0,0-.13-.575L45.491-2.2v-.088c-.1-.312-.217-.619-.292-.939-.054-.226-.1-.452-.142-.679L44.988-4l-.126-.448-.133-.447-.123-.451-.129-.45-.251-.674-.256-.784-.25-.79L43.6-8.832v-.776l.125-.792.25-.783.1-.132a.939.939,0,0,0,.134-.119c.954-1.038,1-3.073.847-4.4a31.675,31.675,0,0,0-1.23-4.638c-.065-.181-.107-.375-.154-.562-.027-.078-.05-.154-.07-.23a3.374,3.374,0,0,1-.319-1,8.574,8.574,0,0,1-.211-1.521L43-23.842a5.1,5.1,0,0,1-.974.8,15.462,15.462,0,0,0-1.557,1.589,6.93,6.93,0,0,0,.982,8.477l.12.216.378.45.377.565.26.447.25.448.119.565v.45l-.119.562-.511-.562-.377-.565-.378-.673-.376-.563-.387-.673-.372-.554-.508-.572-.5-.557v-.048a1.2,1.2,0,0,1-.212-.3c-.427-.48-.8-1.024-1.182-1.509-.468-.59-1-1.138-1.49-1.719l-.024-.021-.067-.085c-.022-.027-.043-.055-.066-.083l-.491-.621-.632-.67-.636-.67L34-20.394l-.507-.789-.383-.789-.25-.779v-.78a4.047,4.047,0,0,0,.34-1.151,1.6,1.6,0,0,0,.142-.857,2.643,2.643,0,0,0-.265-1.678,4.42,4.42,0,0,0-.889-1.838,4.036,4.036,0,0,0-.282-.331,5.566,5.566,0,0,0-3.3-2.225l-.038-.017-.125-.057c-.332-.076-.667-.147-1-.206-.063-.01-.466-.09-.849-.138a1.877,1.877,0,0,1,.4.749l.056.1v.135a4.492,4.492,0,0,1,.063.526q.039.334.058.672c.433,2.72,1.636,6.118,4.536,6.876a.857.857,0,0,0,.151.024c.5-.133.759.752.8,1.138a.158.158,0,0,1-.183.178.193.193,0,0,1-.088,0,1.851,1.851,0,0,1-.569-.2l-.093-.026-.112-.1c-.418-.283-.766-.676-1.207-.962-.425-.276-.874-.482-1.3-.724l-.531-.24-.636-.451-.632-.441-.628-.451-.507-.565-.12-.13a.856.856,0,0,0-.163-.547c-2.011-2.953-6.482-3.413-9.686-3.966a1.032,1.032,0,0,0-.287-.006l-.073-.021a3,3,0,0,1-1.526-.607c.176.689.419,1.359.637,2.04.043.085.087.17.131.254,2.047,3.291,6.214,3.935,9.792,3.7.03,0,.055-.01.084-.014a1.036,1.036,0,0,0,.362-.037h.213l.067.022a4.548,4.548,0,0,1,2.1.954l.112.049.253.218.25.221.127.225.084.158a25.267,25.267,0,0,0-5.439-.589,14.566,14.566,0,0,1-1.5.1,14.2,14.2,0,0,1-1.684.277,1.84,1.84,0,0,1-.238.052.2.2,0,0,0-.019.016l-.424.1-.884.223-.7.32a3.076,3.076,0,0,1,1.088.281,3.271,3.271,0,0,1,.778.411h.028a.7.7,0,0,0,.437.252c.513.334,1.048.651,1.6.94l.052.043h.033c.445.23.9.441,1.362.626l.113.051.4.142.033.012.2.071.126.037c.164.052.329.1.494.145l.153.045.038.005a7.245,7.245,0,0,0,6.139-.93.81.81,0,0,0,.331-.122.852.852,0,0,0,.082-.065l.1-.019.495.115.509.112.5.227.378.334.507.343.383.443.376.342.271.159q1.277,1.3,2.459,2.681l.044.079.417.46c.049.059.1.117.148.177l.447.6.112.1q1.633,2.047,3.061,4.253a1.084,1.084,0,0,1,.083.19l.028.063-.007.013,0,.007c.04.215-.249.316-.341.161a3.677,3.677,0,0,1-1.085-1.386,12.457,12.457,0,0,0-1.739-2.134.19.19,0,0,1-.022-.034c-.07-.067-.136-.137-.208-.2l-.015-.017-.5-.452-.219-.143c-.234-.178-.475-.352-.73-.518a6.405,6.405,0,0,0-3.352-1.2l-.247-.046-.636-.111-.63-.115-.495-.108-.638-.1-.635-.12-.622-.115v.04a3.762,3.762,0,0,1,1.514,1.99s0,0,0,.006a16.381,16.381,0,0,0,3.747,4.641c1.308,1.06,2.979,1.172,4.6,1.314.407-.017.815-.054,1.212-.05.016-.01.035-.019.051-.031l.268.046a2.39,2.39,0,0,1,1.377.516,4.815,4.815,0,0,1,1.323,2.023l.044.064.5,1.011.381,1.125.378,1.014.383,1.118.26,1.01L45.616.159l.124.966c0,.005,0,.009.005.015a4.792,4.792,0,0,1,.127,1.878v.067l-.049.082c-.011.024-.028.045-.04.069l-.038.064-.007,0a.98.98,0,0,1-.073.111.193.193,0,0,1-.318-.084,6.472,6.472,0,0,1-.219-.664c-.005-.01-.007-.021-.011-.031l0,0V2.623a1.27,1.27,0,0,1-.082-.243.206.206,0,0,1,0-.048l-.042-.037V1.553c0-.034,0-.068,0-.1V1.392c-.029-3.229-3.779-5.7-6.707-6.292l-.62-.219-.751-.342-.632-.223-.76-.112h-.01c.044.063.087.126.13.189a1.825,1.825,0,0,1,.68,1.184l.079.089.25.791.082.142q.232.566.495,1.125l.059.184.378.685.059.106.063.112.251.448.236.346a10.83,10.83,0,0,0,.648.886l0,0,.258.337.2.175a6.44,6.44,0,0,0,3.751,2.033l.093.043h.3c.083.007.163.022.247.026a1,1,0,0,0,.241-.016l.343.1.378.226.259.223L45,3.73c.59.484.524,1.857.486,2.674V8.7l-.134.65a15.354,15.354,0,0,1-.214,1.524l-.029.292L45,11.532c-.08.324-.18.649-.291.974l-.231,1.143-.023.029a11.149,11.149,0,0,1-.785,1.908c-.188.305-.4.6-.6.9a7.647,7.647,0,0,0-.363.793.178.178,0,0,1-.022.106,2.133,2.133,0,0,0-.121.246l-.208.334c-.13.037-.3-.057-.24-.22.038-.112.082-.221.13-.329a3.543,3.543,0,0,1,.484-1.1c.1-.195.209-.388.322-.58a.181.181,0,0,1,.05-.055l-.015-.026h0a1.136,1.136,0,0,0,.055-.109,6.822,6.822,0,0,0,.436-2.539l.011-.04-.013-.061a8.286,8.286,0,0,0-2.563-5.8l-.07-.094-.636-.561-.757-.674-.761-.562-.61-.449a2.976,2.976,0,0,1-.018.483l.125,1.094.125,1.008V8.02a12.657,12.657,0,0,0,.024,4.485,7.141,7.141,0,0,0,.678,2c.415.782,1.157,1.41,1.59,2.181a.175.175,0,0,1,.082.073c.026.046.046.091.07.137a3.7,3.7,0,0,1,.31.646c.01.011.019.025.031.035v.054a1.409,1.409,0,0,1,.052.866,5,5,0,0,1-.636,2.277,13.539,13.539,0,0,1-1.1,1.731l-.063.169-1.376,1.705c-2.919-4.7-11.952-17.7-16.99-17.7-4.761,0-12.307,3.216-15.4,6.948C2.08,9.185-4.374,6.443-8.625,6.443c-5.993,0-1.608,2.2-8.711,4.605-2.691,3.885-7.6,10.336-9.6,13.332l-1.38-1.71-.063-.169a13.539,13.539,0,0,1-1.1-1.731,5,5,0,0,1-.636-2.277,1.409,1.409,0,0,1,.052-.866v-.054c.011-.01.02-.024.031-.035a3.7,3.7,0,0,1,.31-.646c.024-.046.043-.091.07-.137a.175.175,0,0,1,.082-.073c.433-.772,1.174-1.4,1.59-2.181a7.141,7.141,0,0,0,.678-2,12.657,12.657,0,0,0,.024-4.485V7.352l.125-1.008.125-1.094a2.977,2.977,0,0,1-.018-.483l-.61.449-.761.562-.757.674-.636.561-.07.094a8.286,8.286,0,0,0-2.563,5.8l-.013.061.011.04a6.822,6.822,0,0,0,.436,2.539,1.134,1.134,0,0,0,.055.109h0l-.015.026a.182.182,0,0,1,.05.055c.113.192.22.385.322.58a3.543,3.543,0,0,1,.484,1.1c.048.108.091.217.13.329.055.163-.109.258-.24.22l-.208-.334a2.132,2.132,0,0,0-.121-.246.178.178,0,0,1-.023-.106,7.649,7.649,0,0,0-.363-.793c-.191-.305-.407-.6-.6-.9a11.149,11.149,0,0,1-.785-1.908l-.023-.029-.231-1.143c-.111-.325-.211-.65-.291-.974l-.113-.364-.03-.292c-.1-.5-.166-1.012-.214-1.524l-.134-.65V6.4c-.038-.817-.1-2.19.486-2.674l.016-.09.259-.223.377-.226.344-.1a1,1,0,0,0,.241.016c.085,0,.164-.019.247-.026h.3l.093-.043a6.438,6.438,0,0,0,3.75-2.033l.2-.175L-27.779.5l0,0a10.828,10.828,0,0,0,.648-.886l.235-.346.252-.448.063-.112.059-.106.377-.685.06-.184q.264-.558.495-1.125l.082-.142.25-.791.079-.089a1.825,1.825,0,0,1,.68-1.184c.043-.063.086-.126.13-.189h-.01l-.76.112-.632.223-.751.342-.62.219c-2.928.587-6.678,3.062-6.707,6.292l0,0v.055c0,.034,0,.068,0,.1v.742l-.042.037a.206.206,0,0,1,0,.048,1.218,1.218,0,0,1-.082.243v.008l0,0c0,.01-.006.021-.011.031a6.47,6.47,0,0,1-.219.664.193.193,0,0,1-.318.084A.978.978,0,0,1-34.6,3.3l-.007,0-.038-.064c-.013-.024-.029-.045-.04-.069l-.049-.082V3.018A4.792,4.792,0,0,1-34.6,1.14c0-.006,0-.01.005-.015l.124-.966.243-1.126.26-1.01.383-1.118.377-1.014.382-1.125.5-1.011.044-.064a4.815,4.815,0,0,1,1.323-2.023,2.388,2.388,0,0,1,1.377-.516l.268-.046a.58.58,0,0,0,.051.031c.4,0,.8.033,1.212.05,1.62-.142,3.291-.254,4.6-1.314A16.394,16.394,0,0,0-19.7-14.767s0,0,0-.006a3.759,3.759,0,0,1,1.514-1.99v-.04l-.622.115-.635.12-.638.1-.495.108-.63.115-.636.111-.247.046a6.405,6.405,0,0,0-3.352,1.2c-.255.166-.5.34-.73.518l-.219.143-.5.452-.014.017c-.072.065-.138.136-.208.2a.189.189,0,0,1-.022.034,12.457,12.457,0,0,0-1.739,2.134,3.677,3.677,0,0,1-1.085,1.386c-.092.155-.382.054-.341-.161l0-.007-.007-.013.028-.063a1.083,1.083,0,0,1,.083-.19q1.427-2.2,3.061-4.253l.112-.1.447-.6c.049-.06.1-.118.148-.177l.417-.46.044-.079q1.183-1.381,2.459-2.681l.271-.159.376-.342.383-.443.507-.343.378-.334.5-.227.509-.112.495-.115.1.019a.852.852,0,0,0,.082.065.806.806,0,0,0,.331.122,7.245,7.245,0,0,0,6.139.93l.038-.005.153-.045c.165-.045.33-.093.494-.145l.126-.037.2-.071.033-.012.4-.142.113-.051c.462-.185.917-.4,1.362-.626h.033l.052-.043c.551-.289,1.086-.607,1.6-.94a.7.7,0,0,0,.437-.252h.028a3.257,3.257,0,0,1,.778-.411A3.076,3.076,0,0,1-6.5-22.775l-.7-.32-.884-.223-.424-.1a.146.146,0,0,0-.02-.016,1.856,1.856,0,0,1-.237-.052,14.179,14.179,0,0,1-1.684-.277,14.552,14.552,0,0,1-1.5-.1,25.267,25.267,0,0,0-5.439.589l.084-.158.127-.225.25-.221.253-.218.112-.049a4.548,4.548,0,0,1,2.1-.954l.067-.022h.213a1.036,1.036,0,0,0,.362.037c.028,0,.054.012.084.014,3.578.237,7.745-.407,9.792-3.7.044-.084.088-.169.131-.254.218-.681.461-1.351.637-2.04a3,3,0,0,1-1.526.607l-.073.021a1.032,1.032,0,0,0-.287.006c-3.2.553-7.675,1.014-9.686,3.966a.856.856,0,0,0-.163.547l-.12.13-.507.565-.628.451-.632.441-.636.451-.531.24c-.427.242-.877.448-1.3.724-.442.286-.789.679-1.207.962l-.112.1-.093.026a1.851,1.851,0,0,1-.569.2.193.193,0,0,1-.088,0,.158.158,0,0,1-.183-.178c.037-.386.293-1.271.795-1.138a.854.854,0,0,0,.152-.024c2.9-.759,4.1-4.156,4.536-6.876q.018-.337.058-.672a4.492,4.492,0,0,1,.062-.526v-.135l.057-.1a1.877,1.877,0,0,1,.4-.749c-.382.048-.786.127-.849.138-.336.059-.67.13-1,.206l-.125.057-.038.017a5.566,5.566,0,0,0-3.3,2.225,4.039,4.039,0,0,0-.282.331,4.42,4.42,0,0,0-.889,1.838,2.643,2.643,0,0,0-.265,1.678,1.6,1.6,0,0,0,.142.857,4.073,4.073,0,0,0,.341,1.151v.78l-.25.779-.383.789-.507.789-.628.677-.637.67-.632.67-.49.621c-.022.028-.043.056-.066.083l-.067.085-.024.021c-.487.58-1.022,1.128-1.49,1.719-.383.484-.756,1.029-1.182,1.509a1.2,1.2,0,0,1-.212.3v.048l-.5.557-.508.572-.372.554-.387.673-.376.563-.378.673-.377.565-.511.562-.119-.562v-.45l.119-.565.25-.448.26-.447.377-.565.378-.45.12-.216a6.93,6.93,0,0,0,.982-8.477,15.464,15.464,0,0,0-1.557-1.589,5.074,5.074,0,0,1-.974-.8l-.063.057a8.574,8.574,0,0,1-.211,1.521,3.356,3.356,0,0,1-.319,1c-.019.076-.042.152-.069.23-.047.187-.09.382-.154.562a31.675,31.675,0,0,0-1.23,4.638c-.152,1.325-.106,3.359.847,4.4a.94.94,0,0,0,.134.119l.1.132.25.783.125.792v.776l-.125.789-.25.79-.256.784-.251.674-.129.45-.123.451-.133.447L-33.848-4l-.068.094c-.045.226-.088.453-.142.679-.076.32-.193.628-.292.939V-2.2l-.036.031a3.326,3.326,0,0,0-.13.575.2.2,0,0,1-.031.084c-.047.284-.1.568-.134.853a.141.141,0,0,1-.143.132.347.347,0,0,0-.119-.2,2.1,2.1,0,0,0-.064-.288l0-.028a10.09,10.09,0,0,0-.384-1.737,11,11,0,0,0-2.642-4.476,5.084,5.084,0,0,1-.763-.748,13.669,13.669,0,0,1-1.242-1.5V-9.5h-.056c-.124.709-.191,1.425-.318,2.133-.04.223-.086.445-.134.667v0l-.125.676-.127.785-.121.676-.128.772a5.883,5.883,0,0,0,.5,4.109,6.084,6.084,0,0,0,1.918,2.153c.035.031.07.064.106.094s.061.052.092.077a3.7,3.7,0,0,0,.747.493l.043.038.041.011h.018c.018.007.037.013.055.019a5.619,5.619,0,0,1,1.508.46c.013,0,.028,0,.04,0l.017.031a1.538,1.538,0,0,1,.25.2,1.986,1.986,0,0,1,.476.859l0,0v0a6.335,6.335,0,0,1,.19,1.291c.018.229.03.459.04.688l.017.046v.355a15.353,15.353,0,0,0,.272,2.8c.07.311.134.623.2.934l.036.062.02.2q.219,1.038.425,2.081l.058.187.383,1.125.5,1.125.506,1.123.628,1.119.626,1.126.631,1.012-.018.017c.052.057.109.11.158.17a.212.212,0,0,1,.028.217l-1.62-.7a2.8,2.8,0,0,1-.714-.742l-.1-.092-.253-.225-.254-.558-.113-.514-.045-.123-.223-.487-.25-.673-.1-.439c-.083-.2-.178-.4-.273-.609a.171.171,0,0,1-.065-.094c-.022-.076-.055-.144-.082-.216-.122-.247-.249-.493-.387-.736l-.073-.106-.036-.048-.247-.226-.25-.336-.068-.116a8.2,8.2,0,0,1-1.052-1.326l-.133-.126-.632-.562-.761-.562-.886-.449-.884-.335-.883-.342-.886-.448-.76-.453-.634-.326c.055.353.118.7.191,1.052l.07.064V9.82l.12.227v.25a5.45,5.45,0,0,1,.439,1.536,24.964,24.964,0,0,0,2.239,4.585,5.356,5.356,0,0,0,2,1.824l.632.448.632.338.628.336.626.227.631.112h1.773l.035.031a.2.2,0,0,1,.085.021,18.351,18.351,0,0,1,2.6,1.569,5.156,5.156,0,0,1,1.077.946l.15.1,1.9,2.675a2.829,2.829,0,0,0-.448.9l.285,1.427h0l.556,2.79s.2.809.628,2.171h30.4a6.741,6.741,0,0,1,1.572-2.792,8.693,8.693,0,0,0,.091,2.792l31.311,0c.612-1.874.889-3.027.889-3.027l.4-1.932h.013l.406-1.885c-.07-.124-.156-.27-.252-.431L40.4,22.371l.15-.1a5.156,5.156,0,0,1,1.077-.946,18.385,18.385,0,0,1,2.6-1.569.2.2,0,0,1,.085-.021l.034-.031h1.773l.632-.112.626-.227.628-.336.632-.338.632-.448a5.356,5.356,0,0,0,2-1.824,24.963,24.963,0,0,0,2.239-4.585,5.451,5.451,0,0,1,.439-1.536v-.25l.12-.227V9.594l.07-.064c.073-.348.136-.7.191-1.052Z" transform="translate(43.196 32.029)"/>
        </g>
      </g>
      <g id="Group_4570" data-name="Group 4570" transform="translate(12.501 78.413)">
        <g id="Group_4569" data-name="Group 4569" transform="translate(0 0)">
          <path id="Path_2970" data-name="Path 2970" class="cls-3" d="M2.044,2.181C.706,2.206-1.2,1.428-1.722.528L1.619.059a6.28,6.28,0,0,0,.646,2.117Zm.128-4.83C.825-2.461-1.845-.884-2.484.8A7.2,7.2,0,0,0,2.991,2.874a8.81,8.81,0,0,1-.818-5.524" transform="translate(2.484 2.649)"/>
        </g>
      </g>
      <g id="Group_4572" data-name="Group 4572" transform="translate(145.716 78.35)">
        <g id="Group_4571" data-name="Group 4571" transform="translate(0)">
          <path id="Path_2971" data-name="Path 2971" class="cls-3" d="M.447,2.271.226,2.259A6.587,6.587,0,0,0,.968.218L4.244.775c-.557.88-2.661,1.584-3.8,1.5m.015-5.03a8.759,8.759,0,0,1-1.005,5.5A7.278,7.278,0,0,0,5.013.828C4.434-.887,1.809-2.525.462-2.759" transform="translate(0.543 2.759)"/>
        </g>
      </g>
    </g>
  </g>
</svg>
