<svg xmlns="http://www.w3.org/2000/svg" xmlns:xlink="http://www.w3.org/1999/xlink" width="164" height="164" viewBox="0 0 164 164">
  <defs>
    <style>
      .cls-1 {
        fill: none;
      }

      .cls-2 {
        clip-path: url(#clip-path);
      }

      .cls-3, .cls-4 {
        fill: #2b2e34;
      }

      .cls-4 {
        fill-rule: evenodd;
      }
    </style>
    <clipPath id="clip-path">
      <path id="Path_3024" data-name="Path 3024" class="cls-1" d="M0,74.049H164v-164H0Z" transform="translate(0 89.951)"/>
    </clipPath>
  </defs>
  <g id="Group_4678" data-name="Group 4678" transform="translate(0 89.951)">
    <g id="Group_4677" data-name="Group 4677" class="cls-2" transform="translate(0 -89.951)">
      <g id="Group_4576" data-name="Group 4576" transform="translate(137.238 146.594)">
        <g id="Group_4575" data-name="Group 4575" transform="translate(0 0)">
          <path id="Path_2973" data-name="Path 2973" class="cls-3" d="M2.261,2.133q.311,0,.589-.02A1.5,1.5,0,0,0,3.344,2a.775.775,0,0,0,.345-.291.993.993,0,0,0,.129-.548A.856.856,0,0,0,3.7.685.774.774,0,0,0,3.4.414a1.307,1.307,0,0,0-.42-.129A3.3,3.3,0,0,0,2.518.251H1.3V2.133ZM2.667-.493a2.422,2.422,0,0,1,1.563.42A1.555,1.555,0,0,1,4.738,1.2,1.437,1.437,0,0,1,4.291,2.37a2,2,0,0,1-1.109.44L4.874,5.421H3.885L2.275,2.877H1.3V5.421H.38V-.493ZM-1.508,4.17a4.211,4.211,0,0,0,.88,1.374A4.075,4.075,0,0,0,.7,6.457a4.122,4.122,0,0,0,1.658.332,4.047,4.047,0,0,0,1.638-.332,4.1,4.1,0,0,0,1.32-.914A4.222,4.222,0,0,0,6.193,4.17a4.587,4.587,0,0,0,.318-1.726A4.462,4.462,0,0,0,6.193.752,4.18,4.18,0,0,0,5.314-.609a4.158,4.158,0,0,0-1.32-.906,4.047,4.047,0,0,0-1.638-.332A4.129,4.129,0,0,0-.628-.609,4.17,4.17,0,0,0-1.508.752a4.462,4.462,0,0,0-.318,1.692A4.587,4.587,0,0,0-1.508,4.17M-2.341.454a5.021,5.021,0,0,1,1.1-1.6A5.14,5.14,0,0,1,.387-2.2a5.075,5.075,0,0,1,1.969-.386A5.025,5.025,0,0,1,4.318-2.2,5.038,5.038,0,0,1,7.025.454a4.873,4.873,0,0,1,.406,1.99,4.982,4.982,0,0,1-.406,2.023,5.121,5.121,0,0,1-1.1,1.611A4.914,4.914,0,0,1,4.318,7.14a5.1,5.1,0,0,1-1.962.379A5.154,5.154,0,0,1,.387,7.14,4.978,4.978,0,0,1-1.237,6.078a5.067,5.067,0,0,1-1.1-1.611,5,5,0,0,1-.406-2.023A4.886,4.886,0,0,1-2.341.454" transform="translate(2.747 2.591)"/>
        </g>
      </g>
      <g id="Group_4578" data-name="Group 4578" transform="translate(12.921 61.994)">
        <g id="Group_4577" data-name="Group 4577" transform="translate(0 0)">
          <path id="Path_2974" data-name="Path 2974" class="cls-3" d="M3.213,4.571-3.661,1.706c-.179-.082-.259-.168-.238-.258a.165.165,0,0,1,.095-.112,1.372,1.372,0,0,1,.318-.1L3.44-.213-2.074-4.755q-.237-.17-.2-.308c.023-.1.153-.135.389-.112l7.022.692a3.078,3.078,0,0,0,.82.011.565.565,0,0,0,.42-.271A2.279,2.279,0,0,0,6.653-5.4c.02-.11.059-.162.12-.156a.11.11,0,0,1,.072.108.624.624,0,0,1-.023.208q-.039.158-.16.6c-.08.294-.163.6-.252.907s-.157.544-.208.7a1.038,1.038,0,0,1-.107.242c-.03.042-.061.056-.092.046-.051-.015-.081-.065-.091-.151s-.149-.134-.458-.171L.469-3.608l-.011.042L4.838.065c.22.183.365.312.435.386s.1.13.077.172-.078.089-.191.126S4.9.824,4.706.87l-.63.15c-.27.065-.556.132-.857.2s-.572.132-.814.186S2,1.5,1.9,1.51s-.3.056-.614.117L.243,1.834c-.386.078-.738.147-1.056.21l-.011.043L3.4,3.744a4.355,4.355,0,0,0,.507.162.326.326,0,0,0,.261-.036.525.525,0,0,0,.171-.205A2.183,2.183,0,0,0,4.5,3.218c.024-.1.062-.147.118-.146.089.028.107.126.056.294q-.091.355-.185.669c-.062.211-.108.367-.135.472S4.3,4.788,4.253,5s-.087.414-.132.6c-.021.123-.077.178-.17.168-.052-.017-.062-.082-.033-.194.011-.042.021-.088.03-.138a1.7,1.7,0,0,0,.02-.2.485.485,0,0,0-.238-.4,2.493,2.493,0,0,0-.516-.268" transform="translate(3.903 5.553)"/>
        </g>
      </g>
      <g id="Group_4580" data-name="Group 4580" transform="translate(16.429 54.417)">
        <g id="Group_4579" data-name="Group 4579" transform="translate(0 0)">
          <path id="Path_2975" data-name="Path 2975" class="cls-3" d="M2.352,1.865.509,1.12-.7.632c-.284-.114-.5-.2-.643-.253s-.27-.1-.377-.135q-.529-.189-.73.119a1.641,1.641,0,0,0-.195.36c-.037.111-.094.153-.172.126C-2.876.824-2.869.73-2.8.564c.088-.213.189-.448.305-.71s.209-.475.277-.639Q-2.133-1-2-1.379c.091-.253.179-.486.262-.7.054-.143.112-.2.173-.186.076.035.088.1.038.211a1.713,1.713,0,0,0-.1.326.428.428,0,0,0,.062.365.984.984,0,0,0,.377.264c.1.048.223.1.365.165s.355.148.638.265l1.208.488L2.877.566c.511.208.965.388,1.361.544s.712.268.95.341a.82.82,0,0,0,.389.038.465.465,0,0,0,.293-.249c.042-.073.087-.156.135-.252S6.093.8,6.127.721c.047-.112.1-.156.151-.132s.077.117.024.241q-.215.528-.407.965t-.284.656c-.053.135-.128.335-.223.6s-.189.51-.279.732c-.053.139-.116.195-.188.168s-.063-.081-.017-.2a1.911,1.911,0,0,0,.111-.393.32.32,0,0,0-.076-.284,1.1,1.1,0,0,0-.326-.231C4.4,2.724,4.1,2.583,3.707,2.42s-.842-.351-1.355-.556" transform="translate(2.857 2.265)"/>
        </g>
      </g>
      <g id="Group_4582" data-name="Group 4582" transform="translate(18.966 44.731)">
        <g id="Group_4581" data-name="Group 4581" transform="translate(0 0)">
          <path id="Path_2976" data-name="Path 2976" class="cls-4" d="M1.76,2.66,3,3.349q.794.44,1.323.725t.683.362c.135.07.283.139.444.208a.932.932,0,0,0,.368.1.919.919,0,0,0,.491-.253,3.036,3.036,0,0,0,.621-.82,4.962,4.962,0,0,0,.553-1.383A3.044,3.044,0,0,0,7.482,1,2.51,2.51,0,0,0,6.791-.234a5.582,5.582,0,0,0-1.309-.957,4.3,4.3,0,0,0-1.728-.547,3.362,3.362,0,0,0-1.267.126,3.9,3.9,0,0,0-1.626,1A5.686,5.686,0,0,0-.055.646q-.09.162-.183.375a1.258,1.258,0,0,0-.1.305.2.2,0,0,0,.132.227q.267.158.817.464L1.76,2.66M2.972,4.946,1.233,3.982.092,3.351c-.267-.148-.47-.257-.607-.331s-.256-.132-.357-.18a.847.847,0,0,0-.436-.114.565.565,0,0,0-.362.228,1.1,1.1,0,0,0-.117.158c-.044.069-.086.138-.127.211-.056.114-.117.152-.181.12s-.056-.124.031-.268q.228-.4.46-.795c.156-.261.276-.463.359-.611s.2-.381.347-.661S-.6.534-.433.23Q-.1-.4.351-1.083A6.135,6.135,0,0,1,1.415-2.315,3.7,3.7,0,0,1,2.89-3.107a3.834,3.834,0,0,1,1.374-.106,4.345,4.345,0,0,1,1.665.539A4.7,4.7,0,0,1,7.38-1.438,4.246,4.246,0,0,1,8.089-.07a3.733,3.733,0,0,1,.146.935,4.964,4.964,0,0,1-.144,1.342A6.758,6.758,0,0,1,7.42,3.886q-.317.553-.689,1.1t-.595.934q-.1.191-.3.566c-.128.253-.25.483-.365.695-.07.13-.14.178-.208.143s-.052-.089.009-.2a1.834,1.834,0,0,0,.158-.376.32.32,0,0,0-.067-.3,1.64,1.64,0,0,0-.317-.286q-.3-.212-.844-.524T2.972,4.946" transform="translate(2.138 3.231)"/>
        </g>
      </g>
      <g id="Group_4584" data-name="Group 4584" transform="translate(24.303 32.058)">
        <g id="Group_4583" data-name="Group 4583" transform="translate(0 0)">
          <path id="Path_2977" data-name="Path 2977" class="cls-3" d="M3.84,5.622-3.193,2.847a1.645,1.645,0,0,0-.883-.2.652.652,0,0,0-.213.127,1.259,1.259,0,0,0-.156.153c-.066.1-.131.121-.194.074s-.027-.136.081-.256c.2-.233.381-.442.552-.631s.276-.3.317-.35.12-.154.257-.333.311-.394.523-.65c.1-.12.179-.159.231-.116.053.059.035.132-.053.221a.575.575,0,0,0-.147.246.229.229,0,0,0,.111.255,2.043,2.043,0,0,0,.341.189c.168.079.37.172.608.281.187.089.5.228.926.414s.9.389,1.409.607.972.415,1.393.592.715.3.882.368l.022-.025L-.291-1.649a1.651,1.651,0,0,1-.147-.326.156.156,0,0,1,.017-.153c.038-.046.1-.056.2-.035A3.971,3.971,0,0,1,.2-2.035L6.067-.177,6.088-.2c-.119-.169-.3-.435-.538-.8s-.508-.766-.8-1.212l-.86-1.31q-.417-.637-.711-1.083a2.342,2.342,0,0,0-.429-.507.279.279,0,0,0-.25-.072.713.713,0,0,0-.358.268c-.078.093-.145.12-.2.082s-.026-.137.089-.265q.294-.347.51-.582c.143-.155.234-.253.271-.295s.1-.136.217-.287.234-.3.359-.453c.081-.1.148-.134.2-.1.058.052.053.117-.015.195a1.208,1.208,0,0,0-.211.339.691.691,0,0,0,.091.506q.156.3.42.748.293.505.763,1.284T5.645-2.081q.54.882,1.046,1.7t.867,1.4a2.331,2.331,0,0,1,.217.385.189.189,0,0,1-.021.208c-.032.043-.1.055-.19.04A3.356,3.356,0,0,1,7.1,1.52L1.26-.317,1.246-.3c.065.115.189.334.37.657s.394.7.638,1.139.489.883.741,1.34.477.877.68,1.261.355.683.457.9a5,5,0,0,1,.212.483.2.2,0,0,1-.015.213q-.086.121-.487-.069" transform="translate(4.665 6.829)"/>
        </g>
      </g>
      <g id="Group_4586" data-name="Group 4586" transform="translate(33.895 27.384)">
        <g id="Group_4585" data-name="Group 4585" transform="translate(0 0)">
          <path id="Path_2978" data-name="Path 2978" class="cls-3" d="M1.952,3.08.621,1.6Q.056.975-.251.634c-.2-.226-.361-.4-.466-.508s-.2-.21-.28-.287A.825.825,0,0,0-1.372-.41a.558.558,0,0,0-.417.1A1.4,1.4,0,0,0-1.951-.2c-.064.051-.127.1-.188.158-.089.089-.16.107-.211.054s-.012-.135.117-.242q.347-.31.694-.6c.232-.2.411-.347.538-.46.075-.068.214-.194.419-.377l.67-.605.649-.589c.189-.173.308-.281.353-.326A4.542,4.542,0,0,0,1.4-3.57a.915.915,0,0,1,.1-.155c.041-.031.08-.02.118.03a1.642,1.642,0,0,1,.111.171c.054.089.158.233.314.434.025.035.07.09.132.169s.125.157.188.238.109.143.136.184a.122.122,0,0,1,0,.168c-.056.049-.117.032-.182-.048a1.267,1.267,0,0,0-.131-.128A.913.913,0,0,0,2-2.636a.471.471,0,0,0-.317-.056,1.384,1.384,0,0,0-.518.261c-.062.044-.178.141-.35.286S.476-1.853.3-1.7s-.292.254-.357.312c-.041.035-.036.08.017.137L1.876.869c.048.065.1.079.142.04.071-.065.2-.181.386-.351S2.778.22,2.963.049s.314-.294.383-.366a.789.789,0,0,0,.289-.489.324.324,0,0,1,.037-.231c.034-.034.073-.03.119.015.018.022.059.084.124.186s.186.265.36.487c.075.1.165.217.267.344s.172.211.206.249a.509.509,0,0,1,.085.114.088.088,0,0,1-.017.114c-.059.045-.107.043-.144-.008A3.276,3.276,0,0,0,4.366.191.51.51,0,0,0,4.039.1.88.88,0,0,0,3.6.288c-.066.048-.182.145-.347.286s-.333.288-.5.436-.29.256-.365.325c-.035.036-.027.08.026.129l.6.664c.092.1.214.238.368.411s.306.343.456.511.266.293.347.379a1.419,1.419,0,0,0,.475.369.568.568,0,0,0,.48-.051,3.546,3.546,0,0,0,.686-.52c.117-.1.245-.226.383-.369a1.648,1.648,0,0,0,.315-.442.731.731,0,0,0,.051-.444,1.56,1.56,0,0,0-.232-.518c-.07-.1-.077-.166-.021-.209s.131-.011.2.09c.062.07.143.173.242.308s.2.27.289.408.159.241.2.316a.321.321,0,0,1,.043.306,1.293,1.293,0,0,1-.3.32c-.42.375-.775.689-1.068.937s-.542.46-.75.632-.391.33-.553.474c-.106.1-.261.246-.463.441s-.394.374-.571.537c-.109.1-.191.123-.244.068-.044-.039-.02-.1.074-.189a1.844,1.844,0,0,0,.271-.305.318.318,0,0,0,.035-.307A1.646,1.646,0,0,0,3.52,4.9c-.143-.2-.35-.454-.626-.769S2.3,3.47,1.952,3.08" transform="translate(2.371 3.742)"/>
        </g>
      </g>
      <g id="Group_4588" data-name="Group 4588" transform="translate(41.787 22.752)">
        <g id="Group_4587" data-name="Group 4587" transform="translate(0 0)">
          <path id="Path_2979" data-name="Path 2979" class="cls-3" d="M2.508,3.861a5.257,5.257,0,0,1-.766.456,3.246,3.246,0,0,1-.753.25.333.333,0,0,1-.217,0,.53.53,0,0,1-.18-.186C.409,4.11.243,3.858.093,3.62s-.251-.4-.3-.489c-.1-.153-.12-.259-.058-.319a.093.093,0,0,1,.113,0,.328.328,0,0,1,.09.1,1.648,1.648,0,0,0,.179.2,2.994,2.994,0,0,0,.234.208,1.522,1.522,0,0,0,1.03.359,1.82,1.82,0,0,0,.948-.351A1.718,1.718,0,0,0,2.9,2.677a1.311,1.311,0,0,0,.133-.687A1.2,1.2,0,0,0,2.827,1.4,1.663,1.663,0,0,0,2.18.832,3.2,3.2,0,0,0,.884.558L.225.522A5.25,5.25,0,0,1-1.621.155,2.451,2.451,0,0,1-2.679-.711a1.945,1.945,0,0,1-.294-1.667A2.936,2.936,0,0,1-1.767-3.956a5.785,5.785,0,0,1,.789-.471A4.868,4.868,0,0,1-.426-4.66c.095-.046.164-.039.208.019s.107.169.213.344.28.438.528.793q.208.289.092.349c-.064.044-.133.01-.209-.1a1.147,1.147,0,0,0-.22-.212A1.385,1.385,0,0,0-.263-3.7,1.374,1.374,0,0,0-.8-3.76a1.631,1.631,0,0,0-.789.314,1.453,1.453,0,0,0-.62.833,1.09,1.09,0,0,0,.186.891,1.192,1.192,0,0,0,.628.465,4.615,4.615,0,0,0,1.286.18l.4.012a6.148,6.148,0,0,1,2,.351A2.531,2.531,0,0,1,3.455.233a2.361,2.361,0,0,1,.405.973,2.288,2.288,0,0,1-.147,1.246,2.8,2.8,0,0,1-.514.809,4.087,4.087,0,0,1-.691.6" transform="translate(3.046 4.69)"/>
        </g>
      </g>
      <g id="Group_4590" data-name="Group 4590" transform="translate(46.8 17.768)">
        <g id="Group_4589" data-name="Group 4589" transform="translate(0 0)">
          <path id="Path_2980" data-name="Path 2980" class="cls-3" d="M2.3,3.056.122-1.032-1.342-.2A3.314,3.314,0,0,0-1.949.21.605.605,0,0,0-2.156.6a1.3,1.3,0,0,0,.016.438c.026.089.011.149-.046.179s-.123,0-.174-.112A3.269,3.269,0,0,1-2.5.73c-.061-.187-.117-.37-.17-.55S-2.75-.11-2.761-.152C-2.8-.293-2.8-.377-2.742-.4a.513.513,0,0,1,.179-.028A1,1,0,0,0-2.25-.513q.233-.094.5-.22t.521-.259l3.949-2.1a5.474,5.474,0,0,0,.662-.417A2.949,2.949,0,0,1,3.627-3.7q.089-.056.191.168.061.113.171.339c.074.15.15.3.227.46s.14.28.189.373.047.174-.006.208-.138,0-.215-.141l-.068-.1a.527.527,0,0,0-.459-.229,2.185,2.185,0,0,0-1.014.3l-1.274.638L3.543,2.394q.369.7.671,1.247t.514.861a1.038,1.038,0,0,0,.284.309.419.419,0,0,0,.392.022c.078-.028.167-.063.265-.1s.186-.083.265-.126c.108-.055.176-.058.2-.005.028.073-.017.14-.137.2q-.5.266-.932.477T4.416,5.6q-.191.1-.556.316c-.244.14-.472.268-.684.382-.13.072-.214.074-.253.008-.034-.049.005-.1.117-.165a1.766,1.766,0,0,0,.338-.232.324.324,0,0,0,.113-.291,1.405,1.405,0,0,0-.115-.411c-.09-.226-.231-.526-.422-.9S2.544,3.52,2.3,3.056" transform="translate(2.789 3.713)"/>
        </g>
      </g>
      <g id="Group_4592" data-name="Group 4592" transform="translate(55.962 14.971)">
        <g id="Group_4591" data-name="Group 4591" transform="translate(0 0)">
          <path id="Path_2981" data-name="Path 2981" class="cls-3" d="M1.248,2.908.6,1.028Q.326.229.175-.2t-.23-.652C-.108-1-.157-1.126-.2-1.228a.844.844,0,0,0-.247-.377.559.559,0,0,0-.422-.074,1.251,1.251,0,0,0-.192.04c-.08.02-.158.045-.235.071-.118.046-.189.035-.215-.033s.042-.129.2-.177q.44-.15.874-.283c.289-.09.514-.161.674-.215L.772-2.46c.26-.089.545-.186.853-.3s.585-.2.828-.287.393-.139.453-.162a4.587,4.587,0,0,0,.437-.223,1.158,1.158,0,0,1,.156-.1c.05-.011.082.014.1.075a1.626,1.626,0,0,1,.035.2,5.2,5.2,0,0,0,.119.523c.011.042.029.11.056.206s.053.195.08.295.044.173.053.223a.124.124,0,0,1-.066.154c-.071.022-.12-.017-.148-.117a1.266,1.266,0,0,0-.071-.168.892.892,0,0,0-.125-.2A.469.469,0,0,0,3.26-2.51a1.381,1.381,0,0,0-.58.039c-.074.017-.219.059-.433.126s-.431.134-.648.2-.367.119-.45.148c-.053.015-.065.059-.038.132l.93,2.7c.019.079.057.109.115.092C2.248.9,2.412.846,2.65.763S3.125.6,3.363.513s.4-.149.5-.189a.791.791,0,0,0,.457-.335c.037-.114.078-.179.123-.2s.08,0,.1.06c.008.026.022.1.042.22s.067.316.141.589q.044.183.111.42c.045.158.075.261.092.311a.487.487,0,0,1,.034.137.088.088,0,0,1-.059.1c-.071.018-.114,0-.13-.063A2.868,2.868,0,0,0,4.6,1.192.491.491,0,0,0,4.335.98a.868.868,0,0,0-.477,0c-.08.02-.224.062-.432.129s-.419.135-.632.205-.367.123-.463.156c-.047.021-.056.063-.028.13l.292.842q.065.194.177.523c.074.221.147.437.22.649s.131.374.172.485a1.41,1.41,0,0,0,.293.525.566.566,0,0,0,.462.141,3.5,3.5,0,0,0,.835-.211c.147-.047.312-.111.5-.189a1.692,1.692,0,0,0,.464-.285.736.736,0,0,0,.22-.389,1.57,1.57,0,0,0-.012-.568c-.026-.117-.005-.183.062-.2s.126.041.152.163c.029.089.063.214.1.377s.074.326.106.487.052.285.06.369a.324.324,0,0,1-.081.3,1.3,1.3,0,0,1-.4.176q-.8.274-1.349.446t-.937.288c-.258.078-.489.151-.695.22-.136.049-.335.124-.6.226s-.508.191-.735.271c-.139.05-.223.039-.25-.033-.026-.053.02-.1.141-.144a1.815,1.815,0,0,0,.369-.176.317.317,0,0,0,.153-.268A1.638,1.638,0,0,0,1.978,5.2c-.053-.238-.146-.556-.275-.952S1.42,3.4,1.248,2.908" transform="translate(1.516 3.533)"/>
        </g>
      </g>
      <g id="Group_4594" data-name="Group 4594" transform="translate(64.317 13.193)">
        <g id="Group_4593" data-name="Group 4593" transform="translate(0 0)">
          <path id="Path_2982" data-name="Path 2982" class="cls-4" d="M1.153.474l.714,3.359c.018.111.065.171.141.178a2.191,2.191,0,0,0,.421,0,3.805,3.805,0,0,0,.442-.067A2.027,2.027,0,0,0,3.346,3.8a.855.855,0,0,0,.271-.212,1.467,1.467,0,0,0,.326-.674,2.657,2.657,0,0,0-.028-1.121A2.4,2.4,0,0,0,3.362.633a1.633,1.633,0,0,0-.8-.482A1.674,1.674,0,0,0,1.8.13,2.521,2.521,0,0,0,1.22.3a.135.135,0,0,0-.067.176M.791,5.181.377,3.237.106,1.962c-.065-.3-.114-.523-.15-.674s-.068-.28-.1-.388a.838.838,0,0,0-.2-.4A.564.564,0,0,0-.751.371a1.336,1.336,0,0,0-.2.015c-.08.011-.162.026-.241.043C-1.311.461-1.381.441-1.4.37s.056-.122.221-.151c.306-.064.6-.12.893-.173s.5-.09.628-.115.3-.067.493-.115l.586-.141c.194-.046.351-.083.471-.108a5.727,5.727,0,0,1,1.071-.14,2.634,2.634,0,0,1,1.062.183,1.77,1.77,0,0,1,.611.453,1.967,1.967,0,0,1,.463.9,2.451,2.451,0,0,1-.055,1.268A4.649,4.649,0,0,1,4.17,3.747q.93.776,1.675,1.379c.5.4.943.742,1.339,1.017a2.944,2.944,0,0,0,.917.436,1.689,1.689,0,0,0,.48.053A1.638,1.638,0,0,0,8.9,6.6c.089-.016.139,0,.151.062.014.081-.048.133-.186.156l-1.05.221a4.048,4.048,0,0,1-.726.106,1.488,1.488,0,0,1-.5-.065,2.7,2.7,0,0,1-.829-.438,13.3,13.3,0,0,1-1.031-.863q-.291-.264-.582-.533T3.63,4.765c-.15-.139-.257-.232-.32-.282a.24.24,0,0,0-.216-.035l-.965.182c-.058.008-.082.044-.07.108l.032.154q.165.778.3,1.392t.255.96a1.057,1.057,0,0,0,.19.386.418.418,0,0,0,.369.13c.089-.007.186-.017.29-.029a2.631,2.631,0,0,0,.261-.041c.089-.017.139,0,.151.061.014.075-.051.128-.2.156-.219.047-.443.092-.671.135l-.607.112-.354.067c-.074.015-.188.043-.342.082l-.5.122c-.18.044-.346.083-.5.115S.517,8.553.5,8.476c-.02-.056.033-.1.158-.126a1.958,1.958,0,0,0,.388-.128.32.32,0,0,0,.185-.25,1.679,1.679,0,0,0,.007-.427q-.036-.364-.158-.979T.791,5.181" transform="translate(1.4 0.575)"/>
        </g>
      </g>
      <g id="Group_4596" data-name="Group 4596" transform="translate(74.65 11.729)">
        <g id="Group_4595" data-name="Group 4595" transform="translate(0 0)">
          <path id="Path_2983" data-name="Path 2983" class="cls-3" d="M.73,1.138l.285,4.736a3.2,3.2,0,0,0,.153.923q.113.276.285.318a1.83,1.83,0,0,0,.59.058c.125-.008.191.02.2.083-.005.083-.09.124-.256.123Q.9,7.4.585,7.393c-.059,0-.2.014-.429.032s-.49.034-.791.044c-.156.02-.24-.015-.252-.1,0-.064.06-.1.177-.1a2.435,2.435,0,0,0,.25-.02A1.406,1.406,0,0,0-.2,7.195q.212-.062.268-.375A5.562,5.562,0,0,0,.1,5.783L-.035-.9c-.016-.241.029-.37.135-.389A.281.281,0,0,1,.287-1.2c.065.061.147.143.244.242.058.06.265.266.624.622s.8.788,1.335,1.3S3.578,2.007,4.156,2.544q.417.391.975.936t1.017.993q.46.451.578.559l.056,0L6.493-.034a2.165,2.165,0,0,0-.12-.721.489.489,0,0,0-.3-.283,1.068,1.068,0,0,0-.3-.048c-.114,0-.212,0-.295,0-.128.005-.189-.026-.184-.1S5.4-1.3,5.58-1.291c.3-.01.57-.012.814-.011s.429,0,.553,0c.065,0,.2-.014.392-.031s.432-.03.714-.043c.16-.017.247.015.262.093s-.064.1-.2.109a1.181,1.181,0,0,0-.338.046.453.453,0,0,0-.313.287,1.9,1.9,0,0,0-.071.687l.123,7.126c.012.24-.034.359-.134.355a.342.342,0,0,1-.195-.071,1.5,1.5,0,0,1-.2-.164c-.252-.223-.568-.515-.95-.871s-.789-.738-1.225-1.147-.857-.8-1.268-1.185c-.431-.4-.844-.8-1.24-1.189S1.575,1.967,1.3,1.681.841,1.215.764,1.137Z" transform="translate(0.887 1.383)"/>
        </g>
      </g>
      <g id="Group_4598" data-name="Group 4598" transform="translate(91.898 12.321)">
        <g id="Group_4597" data-name="Group 4597" transform="translate(0 0)">
          <path id="Path_2984" data-name="Path 2984" class="cls-3" d="M.073,2.268.414.655C.532.1.622-.32.684-.62s.11-.525.138-.677.052-.284.068-.395a.846.846,0,0,0-.02-.449.561.561,0,0,0-.323-.281,1.25,1.25,0,0,0-.185-.065C.285-2.509.205-2.53.126-2.547,0-2.568-.055-2.614-.041-2.686s.1-.088.264-.048c.3.067.6.136.9.209s.532.129.707.168c.093.018.221.043.384.072l.511.092c.177.032.334.062.471.092.165.029.239.08.222.15s-.085.092-.2.063a1.282,1.282,0,0,0-.158-.026c-.047,0-.1-.008-.171-.011a.429.429,0,0,0-.348.126.981.981,0,0,0-.194.417c-.031.108-.064.237-.1.388s-.086.375-.15.675S1.945.4,1.829.956L1.5,2.5a5.69,5.69,0,0,0-.154,1.844A2.024,2.024,0,0,0,1.784,5.4a1.975,1.975,0,0,0,.656.537,2.659,2.659,0,0,0,.629.211,2.409,2.409,0,0,0,.808.032,2.017,2.017,0,0,0,.843-.3,2.176,2.176,0,0,0,.8-1.055,9.316,9.316,0,0,0,.427-1.549l.293-1.381q.176-.826.271-1.275c.062-.3.108-.526.137-.677s.052-.285.068-.394A.843.843,0,0,0,6.695-.9a.57.57,0,0,0-.323-.28,1.346,1.346,0,0,0-.181-.064q-.114-.034-.21-.054c-.125-.02-.18-.066-.167-.139s.1-.088.253-.05c.194.041.386.084.576.13l.481.119.207.053q.076.017.291.054l.486.086c.177.032.341.064.489.1s.226.076.211.148-.089.092-.22.057A1.168,1.168,0,0,0,8.43-.773c-.046,0-.1-.008-.169-.01a.43.43,0,0,0-.348.125.976.976,0,0,0-.194.418c-.031.108-.063.238-.1.388s-.085.376-.15.675S7.315,1.546,7.2,2.1L6.948,3.28a7.783,7.783,0,0,1-.565,1.786A2.888,2.888,0,0,1,5.191,6.383a3.244,3.244,0,0,1-1.313.4,3.981,3.981,0,0,1-1.155-.094,6.229,6.229,0,0,1-.71-.189,3.721,3.721,0,0,1-.828-.389,2.784,2.784,0,0,1-.753-.706A2.661,2.661,0,0,1-.046,4.2,5.414,5.414,0,0,1,.073,2.268" transform="translate(0.089 2.755)"/>
        </g>
      </g>
      <g id="Group_4600" data-name="Group 4600" transform="translate(100.568 15.261)">
        <g id="Group_4599" data-name="Group 4599" transform="translate(0 0)">
          <path id="Path_2985" data-name="Path 2985" class="cls-3" d="M1.813,1.12.146,5.563a3.167,3.167,0,0,0-.235.906.467.467,0,0,0,.132.4,1.824,1.824,0,0,0,.514.294c.117.043.168.1.148.156C.668,7.4.574,7.4.422,7.331c-.668-.283-1.1-.467-1.286-.556l-.4-.145c-.214-.076-.461-.171-.742-.281-.15-.047-.211-.113-.186-.2.027-.058.094-.064.2-.015.069.028.149.055.235.083a1.5,1.5,0,0,0,.257.054.422.422,0,0,0,.4-.232,5.755,5.755,0,0,0,.451-.935l2.6-6.162c.083-.226.177-.326.281-.3a.28.28,0,0,1,.135.161c.034.083.075.189.125.322q.043.115.317.82t.689,1.733Q3.906,2.708,4.37,3.8q.223.528.51,1.251t.526,1.322q.237.6.3.744l.054.022L7.555,2.393a2.2,2.2,0,0,0,.183-.706.489.489,0,0,0-.159-.38,1.1,1.1,0,0,0-.259-.168c-.1-.049-.193-.088-.27-.118-.118-.049-.162-.1-.13-.162s.146-.062.311.015c.276.114.526.22.748.322s.391.174.505.222c.062.023.185.068.37.132s.408.148.669.252c.152.05.22.114.2.191s-.1.07-.224.018a1.269,1.269,0,0,0-.328-.095.454.454,0,0,0-.4.135,1.9,1.9,0,0,0-.343.6L5.642,9.208c-.089.225-.178.314-.268.269a.338.338,0,0,1-.15-.144,1.455,1.455,0,0,1-.113-.23C4.972,8.8,4.8,8.4,4.6,7.921s-.42-1-.652-1.547-.458-1.082-.677-1.6q-.347-.81-.65-1.59c-.2-.52-.371-.968-.51-1.341s-.227-.611-.266-.713Z" transform="translate(2.203 1.361)"/>
        </g>
      </g>
      <g id="Group_4602" data-name="Group 4602" transform="translate(111.244 20.164)">
        <g id="Group_4601" data-name="Group 4601" transform="translate(0 0)">
          <path id="Path_2986" data-name="Path 2986" class="cls-3" d="M1.081,2.275,2.044.536c.274-.492.485-.873.632-1.141s.259-.47.331-.607.132-.256.18-.357c.167-.335.159-.582-.029-.741a1.683,1.683,0,0,0-.334-.235c-.105-.051-.141-.112-.1-.186.032-.056.125-.039.282.053.2.112.42.241.666.389s.447.265.6.351c.135.074.323.171.562.292s.46.238.659.347c.135.071.189.135.164.194-.044.071-.114.074-.213.011a1.914,1.914,0,0,0-.313-.135.431.431,0,0,0-.37.017,1,1,0,0,0-.308.344q-.091.141-.208.342t-.34.6q-.223.4-.632,1.139L2.306,2.954q-.4.723-.706,1.284c-.2.373-.353.674-.454.9a.809.809,0,0,0-.083.381.457.457,0,0,0,.211.322c.066.051.144.105.233.165s.172.111.249.154c.105.061.145.117.114.168-.046.062-.127.061-.242-.006Q1.13,6.044.721,5.8C.448,5.638.243,5.517.1,5.439s-.316-.168-.568-.3-.481-.25-.693-.366c-.13-.069-.179-.138-.142-.208.021-.054.089-.051.2.008a1.894,1.894,0,0,0,.377.158A.319.319,0,0,0-.43,4.7a1.075,1.075,0,0,0,.269-.3c.141-.2.317-.48.527-.848s.449-.794.715-1.277" transform="translate(1.313 2.763)"/>
        </g>
      </g>
      <g id="Group_4604" data-name="Group 4604" transform="translate(118.576 22.732)">
        <g id="Group_4603" data-name="Group 4603" transform="translate(0 0)">
          <path id="Path_2987" data-name="Path 2987" class="cls-3" d="M.058,4.036,1.811-3.219a1.745,1.745,0,0,0,.062-.722,1.091,1.091,0,0,0-.252-.477A1.25,1.25,0,0,0,1.442-4.6c-.062-.052-.113-.091-.15-.117-.077-.057-.095-.111-.05-.162s.156-.026.3.09c.246.18.484.36.714.538s.426.33.589.451c.12.086.282.195.487.332s.424.289.658.457a.623.623,0,0,1,.132.123.094.094,0,0,1,.018.111c-.049.056-.114.051-.2-.017a.81.81,0,0,0-.4-.195.273.273,0,0,0-.231.126,3.349,3.349,0,0,0-.3.856L1.564,3.288l.038.028q.439-.283,1.177-.749T4.328,1.59q.811-.511,1.462-.926T6.707.073a1.38,1.38,0,0,0,.327-.279.215.215,0,0,0,.008-.26A1.562,1.562,0,0,0,6.71-.778c-.1-.059-.133-.12-.1-.185s.153-.036.322.1c.232.169.429.321.6.453s.28.223.343.27q.131.094.4.266c.175.116.336.226.483.331.128.085.171.159.132.222S8.766.723,8.675.651A1.424,1.424,0,0,0,8.469.522.8.8,0,0,0,8.148.435.914.914,0,0,0,7.782.51a4.819,4.819,0,0,0-.735.382q-.48.293-.895.532c-.278.159-.571.327-.885.5s-.686.392-1.117.643q-1.171.686-2,1.177L.911,4.476c-.3.177-.516.3-.641.354s-.215.064-.27.017-.08-.114-.068-.23a4.641,4.641,0,0,1,.126-.58" transform="translate(0.071 4.903)"/>
        </g>
      </g>
      <g id="Group_4606" data-name="Group 4606" transform="translate(122.841 29.309)">
        <g id="Group_4605" data-name="Group 4605" transform="translate(0 0)">
          <path id="Path_2988" data-name="Path 2988" class="cls-3" d="M1.319,2.046,2.7.616q.588-.607.9-.938t.476-.5c.106-.114.195-.214.267-.3a.851.851,0,0,0,.223-.392.564.564,0,0,0-.126-.409,1.344,1.344,0,0,0-.123-.154c-.054-.061-.112-.119-.171-.176-.094-.084-.117-.153-.066-.207s.131-.02.248.1c.223.218.44.434.65.651s.376.386.5.5l.405.392q.3.286.65.626c.236.227.448.429.633.605s.3.287.351.33a4.315,4.315,0,0,0,.4.288,1.112,1.112,0,0,1,.161.093c.034.04.026.08-.021.12a1.716,1.716,0,0,1-.164.123,5.252,5.252,0,0,0-.411.343c-.032.027-.085.076-.159.144l-.224.2c-.076.069-.135.119-.174.15a.121.121,0,0,1-.167.01c-.053-.051-.04-.114.035-.183a1.432,1.432,0,0,0,.119-.14.9.9,0,0,0,.117-.2.466.466,0,0,0,.035-.319,1.373,1.373,0,0,0-.3-.5c-.05-.059-.154-.168-.31-.329S6.136.228,5.975.067,5.7-.206,5.639-.266C5.6-.306,5.557-.3,5.5-.239L3.519,1.816c-.062.053-.071.1-.029.144l.375.362c.18.174.364.347.547.522s.316.291.392.355a.791.791,0,0,0,.507.255.322.322,0,0,1,.233.02c.038.032.036.072-.006.12-.02.02-.079.065-.177.138s-.251.2-.461.393c-.1.082-.2.179-.323.289s-.2.186-.235.223a.551.551,0,0,1-.108.093.089.089,0,0,1-.114-.01c-.049-.055-.05-.1,0-.143a3.186,3.186,0,0,0,.25-.324.49.49,0,0,0,.068-.333A.872.872,0,0,0,4.22,3.5c-.055-.063-.159-.172-.311-.327S3.6,2.858,3.438,2.7L3.09,2.357c-.039-.032-.082-.02-.127.035l-.62.642c-.095.1-.224.23-.384.4s-.322.329-.478.49-.274.286-.355.373a1.423,1.423,0,0,0-.335.5.564.564,0,0,0,.085.476,3.509,3.509,0,0,0,.567.648c.109.109.239.229.394.357a1.641,1.641,0,0,0,.465.283.721.721,0,0,0,.444.021,1.558,1.558,0,0,0,.5-.269c.092-.076.161-.089.207-.036s.022.131-.075.21c-.065.066-.162.153-.29.263s-.256.215-.386.316a3.444,3.444,0,0,1-.3.22.325.325,0,0,1-.3.065,1.3,1.3,0,0,1-.339-.277q-.608-.588-1.01-1t-.682-.7c-.186-.2-.357-.367-.512-.518Q-.6,4.7-.916,4.416c-.211-.188-.4-.366-.577-.532-.108-.1-.136-.182-.084-.239.036-.047.1-.028.192.059a1.888,1.888,0,0,0,.325.251.316.316,0,0,0,.308.014,1.723,1.723,0,0,0,.359-.233q.281-.235.723-.679t.988-1.013" transform="translate(1.602 2.485)"/>
        </g>
      </g>
      <g id="Group_4608" data-name="Group 4608" transform="translate(128.323 35.551)">
        <g id="Group_4607" data-name="Group 4607" transform="translate(0 0)">
          <path id="Path_2989" data-name="Path 2989" class="cls-4" d="M3.369,1.056.7,3.218c-.091.066-.123.136-.094.206A2.2,2.2,0,0,0,.8,3.8a3.936,3.936,0,0,0,.26.364A2.09,2.09,0,0,0,1.4,4.52a.849.849,0,0,0,.311.144,1.462,1.462,0,0,0,.751-.015,2.685,2.685,0,0,0,.986-.532A2.413,2.413,0,0,0,4.23,3.1,1.637,1.637,0,0,0,4.3,2.164a1.7,1.7,0,0,0-.328-.691,2.4,2.4,0,0,0-.413-.438.134.134,0,0,0-.186.02M-.99,2.871.555,1.62C.994,1.265,1.33.993,1.567.8S1.982.461,2.1.359,2.32.172,2.4.1a.847.847,0,0,0,.268-.362A.567.567,0,0,0,2.6-.687a1.533,1.533,0,0,0-.1-.168c-.047-.067-.1-.132-.148-.2-.084-.1-.1-.166-.043-.214s.135-.005.236.129c.2.243.381.483.559.718s.308.4.388.505.194.233.326.389L4.2.936c.13.151.235.274.311.37a5.681,5.681,0,0,1,.611.891,2.656,2.656,0,0,1,.32,1.029,1.77,1.77,0,0,1-.126.75,2,2,0,0,1-.592.822,2.47,2.47,0,0,1-1.156.528,4.656,4.656,0,0,1-1.75-.1q-.265,1.183-.468,2.12T1.056,9a2.934,2.934,0,0,0,.027,1.014,1.7,1.7,0,0,0,.172.452,1.891,1.891,0,0,0,.172.268c.056.071.06.126.016.162-.067.05-.142.018-.223-.1L.545,9.97a3.931,3.931,0,0,1-.423-.6A1.509,1.509,0,0,1-.049,8.9,2.722,2.722,0,0,1-.034,7.96q.09-.539.3-1.311c.069-.252.138-.506.211-.759s.137-.48.191-.677S.759,4.878.776,4.8a.241.241,0,0,0-.066-.208l-.6-.777C.075,3.767.032,3.761-.019,3.8l-.123.1q-.619.5-1.1.9t-.741.662a1.115,1.115,0,0,0-.257.345A.421.421,0,0,0-2.19,6.2c.046.077.1.158.157.244s.111.158.154.213c.056.073.062.126.017.164-.061.047-.138.011-.231-.106-.139-.173-.281-.353-.423-.535s-.268-.348-.375-.489-.181-.238-.22-.286-.124-.148-.229-.269-.216-.249-.336-.39-.231-.271-.329-.39-.112-.2-.054-.247c.041-.041.1-.014.185.085a1.848,1.848,0,0,0,.291.286.318.318,0,0,0,.3.052,1.7,1.7,0,0,0,.385-.187c.205-.132.473-.327.8-.586s.7-.553,1.1-.884" transform="translate(4.092 1.283)"/>
        </g>
      </g>
      <g id="Group_4610" data-name="Group 4610" transform="translate(133.927 44.642)">
        <g id="Group_4609" data-name="Group 4609" transform="translate(0 0)">
          <path id="Path_2990" data-name="Path 2990" class="cls-3" d="M.273,2.324a5.074,5.074,0,0,1-.4-.8,3.15,3.15,0,0,1-.2-.769A.346.346,0,0,1-.3.543.537.537,0,0,1-.1.379C.171.213.434.065.683-.068S1.1-.29,1.191-.335c.159-.09.267-.1.321-.037a.092.092,0,0,1,0,.114.351.351,0,0,1-.1.083A1.491,1.491,0,0,0,1.19-.01,2.922,2.922,0,0,0,.967.208a1.518,1.518,0,0,0-.429,1,1.813,1.813,0,0,0,.283.971,1.709,1.709,0,0,0,.606.619,1.314,1.314,0,0,0,.677.18,1.2,1.2,0,0,0,.6-.167,1.664,1.664,0,0,0,.617-.605A3.277,3.277,0,0,0,3.682.935L3.763.28a5.266,5.266,0,0,1,.495-1.815,2.454,2.454,0,0,1,.939-1,1.947,1.947,0,0,1,1.682-.176A2.936,2.936,0,0,1,8.37-1.393a5.834,5.834,0,0,1,.415.819c.089.232.155.421.194.566.04.1.028.167-.035.207s-.176.094-.357.187-.456.25-.828.471c-.2.126-.32.149-.355.069s0-.135.117-.2A1.17,1.17,0,0,0,7.749.519,1.365,1.365,0,0,0,8.008.087a1.381,1.381,0,0,0,.1-.529,1.633,1.633,0,0,0-.258-.81,1.456,1.456,0,0,0-.788-.677,1.093,1.093,0,0,0-.9.123,1.186,1.186,0,0,0-.508.595A4.592,4.592,0,0,0,5.382.058L5.341.452a6.166,6.166,0,0,1-.487,1.966,2.546,2.546,0,0,1-1.027,1.1,2.379,2.379,0,0,1-1,.337A2.289,2.289,0,0,1,1.6,3.625a2.8,2.8,0,0,1-.77-.569,3.9,3.9,0,0,1-.552-.732" transform="translate(0.332 2.823)"/>
        </g>
      </g>
      <g id="Group_4612" data-name="Group 4612" transform="translate(137.186 50.566)">
        <g id="Group_4611" data-name="Group 4611" transform="translate(0 0)">
          <path id="Path_2991" data-name="Path 2991" class="cls-3" d="M1.5,1.4l1.8-.84L4.486,0c.276-.13.484-.229.623-.3s.259-.128.356-.183q.5-.258.411-.615a1.639,1.639,0,0,0-.131-.388c-.057-.1-.048-.174.026-.211.058-.028.123.041.2.206.1.208.2.444.311.708s.2.475.279.638c.067.138.161.329.283.566s.232.463.329.668c.068.137.074.22.019.253-.077.031-.136-.008-.18-.117A1.9,1.9,0,0,0,6.837.942a.429.429,0,0,0-.31-.2.975.975,0,0,0-.45.1c-.1.04-.228.092-.37.153s-.351.159-.629.286-.671.312-1.18.55l-1.8.84q-.751.35-1.326.625c-.383.184-.683.338-.9.462a.815.815,0,0,0-.294.259A.466.466,0,0,0-.438,4.4c.024.079.056.169.092.271s.074.189.111.269c.05.113.047.179-.005.2-.074.023-.139-.026-.193-.147q-.239-.518-.427-.956t-.286-.656c-.063-.13-.159-.322-.286-.572s-.244-.485-.347-.7q-.1-.2.008-.253c.048-.032.1.01.158.125a1.645,1.645,0,0,0,.213.349.315.315,0,0,0,.259.14,1.122,1.122,0,0,0,.39-.081c.232-.078.539-.2.926-.377S1,1.632,1.5,1.4" transform="translate(1.827 1.696)"/>
        </g>
      </g>
      <g id="Group_4614" data-name="Group 4614" transform="translate(139.868 55.707)">
        <g id="Group_4613" data-name="Group 4613" transform="translate(0 0)">
          <path id="Path_2992" data-name="Path 2992" class="cls-3" d="M1.522,2.032,5.9.525,5.311-1.052A3.32,3.32,0,0,0,5-1.716a.612.612,0,0,0-.354-.266,1.414,1.414,0,0,0-.436-.053c-.092.013-.148-.012-.169-.073s.02-.12.138-.154a3.122,3.122,0,0,1,.395-.076c.193-.031.383-.057.569-.08s.3-.039.343-.043c.145-.02.227,0,.246.058a.6.6,0,0,1,0,.182.953.953,0,0,0,.03.321c.038.165.085.341.139.532s.114.375.175.554L7.528,3.415a5.294,5.294,0,0,0,.308.719,2.775,2.775,0,0,1,.153.271c.028.064-.037.118-.2.162-.081.028-.2.067-.362.115l-.489.153c-.167.051-.3.094-.4.127-.114.032-.181.02-.2-.038q-.053-.109.174-.191l.113-.051a.529.529,0,0,0,.3-.417,2.219,2.219,0,0,0-.134-1.049L6.359,1.859,1.981,3.367c-.5.171-.943.326-1.336.468s-.705.266-.931.373a1.015,1.015,0,0,0-.35.231.422.422,0,0,0-.083.383C-.7,4.9-.683,5-.656,5.1s.054.2.082.282c.038.116.029.183-.026.2-.077.015-.135-.04-.177-.166q-.184-.541-.326-1c-.094-.3-.167-.535-.22-.691-.049-.138-.123-.337-.223-.6s-.191-.507-.271-.734c-.05-.141-.04-.225.032-.251.054-.026.1.02.145.141a1.851,1.851,0,0,0,.174.37.328.328,0,0,0,.271.156,1.368,1.368,0,0,0,.424-.05q.356-.08.953-.276t1.339-.453" transform="translate(1.849 2.469)"/>
        </g>
      </g>
      <g id="Group_4616" data-name="Group 4616" transform="translate(142.242 63.963)">
        <g id="Group_4615" data-name="Group 4615" transform="translate(0 0)">
          <path id="Path_2993" data-name="Path 2993" class="cls-3" d="M.956,2.182l.909-.176A2.811,2.811,0,0,0,2.537,1.8a2.78,2.78,0,0,0,.442-.275q.076-.053.438-.378T4.26.383c.318-.29.621-.569.9-.834s.494-.462.629-.6a2.753,2.753,0,0,0,.66-.923,1.411,1.411,0,0,0,.056-.256.86.86,0,0,0,0-.238c-.026-.1,0-.161.067-.186.068-.008.114.056.142.192.014.074.035.2.062.371l.09.55c.032.193.06.353.084.482s.062.283.113.491.1.437.151.69c.022.11,0,.171-.068.186C7.1.322,7.043.249,6.981.091a.2.2,0,0,0-.23-.117,1.045,1.045,0,0,0-.352.2C6.313.245,6.131.4,5.85.634s-.59.508-.935.8l-.929.806q-.414.362-.535.466c.085.02.283.079.6.179s.667.216,1.059.345l1.075.35c.322.1.538.169.644.2a1.45,1.45,0,0,0,.606.043.277.277,0,0,0,.154-.077.305.305,0,0,0,.078-.21.833.833,0,0,1,.012-.144.087.087,0,0,1,.06-.077c.071-.018.117.039.136.169.06.371.118.72.169,1.049.017.087.044.21.08.368s.072.313.108.466.061.269.076.345c.029.128.012.2-.05.218-.077.005-.129-.059-.153-.19a.988.988,0,0,0-.076-.216,1.163,1.163,0,0,0-.152-.245,1.084,1.084,0,0,0-.258-.256,3.493,3.493,0,0,0-.4-.237c-.141-.075-.393-.183-.759-.327S5.686,4.163,5.247,4,4.4,3.7,4.038,3.583s-.62-.2-.76-.23a2.043,2.043,0,0,0-.6-.035,4.661,4.661,0,0,0-.547.084l-.909.177c-.095.017-.243.048-.444.091s-.422.1-.657.158a.879.879,0,0,0-.387.189A.466.466,0,0,0-.4,4.4c0,.084.013.178.023.283s.026.2.041.28c.02.121,0,.185-.055.194-.077.01-.129-.061-.156-.211-.068-.359-.127-.691-.177-1s-.091-.544-.12-.7-.078-.367-.141-.64-.117-.52-.16-.74c-.04-.157-.018-.246.062-.265.057-.014.1.04.124.159a1.707,1.707,0,0,0,.12.38.359.359,0,0,0,.249.208,1.091,1.091,0,0,0,.427.018c.241-.03.465-.064.668-.1S.86,2.2.956,2.182" transform="translate(1.161 2.651)"/>
        </g>
      </g>
      <g id="Group_4618" data-name="Group 4618" transform="translate(12.619 79.11)">
        <g id="Group_4617" data-name="Group 4617" transform="translate(0 0)">
          <path id="Path_2994" data-name="Path 2994" class="cls-4" d="M0,1.2C1-.422,4.07-1.529,5.5-1.454A9.306,9.306,0,0,0,5.24,4.435,7.565,7.565,0,0,1,0,1.2m.807.043,3.549.18A6.554,6.554,0,0,0,4.6,3.743L4.368,3.7c-1.383-.24-3.2-1.423-3.561-2.462" transform="translate(0 1.458)"/>
        </g>
      </g>
      <g id="Group_4620" data-name="Group 4620" transform="translate(146.155 79.811)">
        <g id="Group_4619" data-name="Group 4619" transform="translate(0 0)">
          <path id="Path_2995" data-name="Path 2995" class="cls-4" d="M2.462,1.234C1.494-.408-1.56-1.545-2.991-1.5a9.3,9.3,0,0,1,.141,5.891,7.62,7.62,0,0,0,5.311-3.16m-.815.059-3.486.128a6.957,6.957,0,0,1-.329,2.267l.231-.033c1.188-.15,3.2-1.332,3.584-2.362" transform="translate(2.991 1.499)"/>
        </g>
      </g>
      <g id="Group_4622" data-name="Group 4622" transform="translate(82.959 124.193)">
        <g id="Group_4621" data-name="Group 4621" transform="translate(0 0)">
          <path id="Path_2996" data-name="Path 2996" class="cls-4" d="M2.521,0h.085A13.616,13.616,0,0,1,.69,5.7a9.475,9.475,0,0,1-3.7,3.917c-.1-2.839-.016-5.861-.043-8.77A15.539,15.539,0,0,0,2.521,0" transform="translate(3.063)"/>
        </g>
      </g>
      <g id="Group_4624" data-name="Group 4624" transform="translate(26.351 26.199)">
        <g id="Group_4623" data-name="Group 4623" transform="translate(0 0)">
          <path id="Path_2997" data-name="Path 2997" class="cls-4" d="M46.705,25.621c2.169.035,4.558.086,6.853.127-.088.536-.013,1.237-.085,1.789-2.841-.153-5.841-.375-8.6-.469.129.267.641.195.978.214,2.477.137,5.141.271,7.62.426-.05.559-.065,1.156-.129,1.7-2.458-.195-5.005-.526-7.405-.638.084.224.516.186.808.214,2.094.187,4.423.393,6.555.6.034.463-.108,1.108-.128,1.66-1.675-.234-3.549-.467-5.321-.723a9.4,9.4,0,0,1-1.744-.256c-.322-.126-.826-.759-1.151-1.065-4.2-3.941-8.289-7.717-13.537-10.642A15.111,15.111,0,0,0,25,16.214a29.657,29.657,0,0,0-7.535.766C10.52,18.31,4.4,20.554-.29,24.131a39.544,39.544,0,0,0-19.964-8c-2.721-.315-7.442-.477-9.067.895-.576.486-.958,1.066-1.532,1.532A14.806,14.806,0,0,1-36.174,20.9a8.89,8.89,0,0,0-1.235.3,7.5,7.5,0,0,0-1.4,1.362c-2.8,2.8-5.5,5.246-8.344,8.088-.428.428-.978,1.162-1.4,1.32a9.537,9.537,0,0,1-1.575.213c-1.474.236-3.1.565-4.554.766-.114-.526-.138-1.14-.256-1.661,1.759-.351,3.744-.531,5.662-.765.219-.027.533-.023.68-.214a21.238,21.238,0,0,0-3.107.341c-1.074.138-2.18.266-3.235.383-.072-.552-.136-1.113-.17-1.7,2.981-.3,6.156-.435,9.067-.852a33.411,33.411,0,0,0-4.513.3c-1.529.134-3.066.235-4.554.383a14.251,14.251,0,0,1-.128-1.745c2.476-.114,5.132-.1,7.449-.383-2.3-.112-4.942.2-7.449.214-.1-.494.012-1.2-.086-1.7,2.98-.1,6.128-.03,9.11-.127-.033-.235-.354-.123-.468-.129-2.829-.1-5.747.132-8.641.044v-1.49c3.24-.091,7.149.249,10.429.085-3.3-.262-6.9-.171-10.387-.3-.014-.6.009-1.153.043-1.7,3.74.147,7.5.5,11.195.553-.111-.245-.467-.119-.638-.128-3.4-.178-7.065-.447-10.556-.6.047-.562.075-1.145.128-1.7,4.541.369,9.178.868,13.621,1.192-.118-.27-.511-.2-.723-.214-4.209-.356-8.584-.8-12.856-1.149-.041-.485.13-1.117.128-1.7,3.3.377,6.65.771,9.918,1.192a20.194,20.194,0,0,0,3.192.3c-.037-.159-.406-.136-.68-.169-4.035-.489-8.327-1-12.388-1.533.091-.548.132-1.146.256-1.659,3.608.559,7.319,1.217,10.983,1.787a4.221,4.221,0,0,0,1.489.127c-.038-.172-.4-.124-.681-.17-3.832-.62-7.919-1.32-11.791-1.916.1-.548.192-1.113.3-1.659,4.028.736,8.076,1.58,12.132,2.383a5.251,5.251,0,0,0,1.66.214,33.077,33.077,0,0,0-3.406-.766c-3.392-.674-6.935-1.33-10.344-2.044.1-.563.237-1.1.341-1.66,4.4,1.071,8.89,2.05,13.366,3.108a5.038,5.038,0,0,0,1.83.341c-4.937-1.32-10.118-2.4-15.153-3.619.147-.547.264-1.126.426-1.66,1.487.411,3,.838,4.512,1.235s3,.888,4.512,1.149c-.129-.253-.616-.274-1.022-.383-2.583-.7-5.349-1.467-7.959-2.171.147-.549.289-1.1.468-1.618,2.706.78,5.39,1.682,8.088,2.512a22.086,22.086,0,0,0,2.682.723c-.1-.232-.4-.237-.6-.3C-46.1,10.9-49.6,9.8-52.947,8.807c.16-.55.343-1.076.511-1.617,3.95,1.271,7.867,2.8,11.749,4-.041-.266-.41-.277-.6-.341-3.6-1.262-7.411-2.6-11.068-3.831.151-.573.386-1.061.553-1.618,3.05,1.126,6.074,2.368,9.109,3.533A26,26,0,0,0-39.665,10c-.138-.231-.459-.3-.68-.383-3.741-1.439-7.6-2.933-11.365-4.385.2-.535.4-1.07.638-1.574C-47.5,5.122-43.9,6.789-40.389,8.169c0-.239-.356-.317-.511-.383-3.294-1.411-6.787-2.868-10.088-4.3a9.339,9.339,0,0,1,.681-1.533c3.51,1.607,7.062,3.281,10.6,4.938.2.092.4.3.638.213-.1-.217-.39-.286-.6-.383C-43.117,5.1-46.733,3.394-50.222,1.783c.177-.561.476-1,.681-1.532,3.225,1.587,6.451,3.217,9.62,4.895a27.485,27.485,0,0,0,3.193,1.532c-.145-.3-.512-.333-.766-.468C-41.371,4.153-45.436,2.1-49.413.08c.232-.52.515-.989.766-1.49C-44.78.584-41.018,2.909-37.238,4.848c-.02-.294-.4-.36-.6-.468C-41.321,2.433-44.988.341-48.519-1.58c.226-.54.563-.969.808-1.49,4.45,2.574,8.848,5.426,13.238,7.918-.028-.247-.442-.45-.68-.6-4.059-2.485-8.359-4.967-12.43-7.492.285-.5.589-.972.894-1.447C-41.8-1.535-36.874,1.817-32,4.848c.1-.237-.238-.271-.341-.341-4.619-3.119-9.531-6.237-14.217-9.323.224-.556.638-.923.894-1.447,3.251,2.282,6.556,4.593,9.833,6.9A34.351,34.351,0,0,0-32.6,2.847c-.042-.251-.423-.457-.68-.639-4.028-2.835-8.207-5.758-12.26-8.6.308-.486.68-.909.98-1.4,2.559,1.924,5.146,3.9,7.747,5.832A20.089,20.089,0,0,0-34.259-.09c-.041-.252-.335-.423-.511-.553-3.18-2.362-6.462-4.884-9.662-7.279.323-.471.709-.88,1.021-1.362,2.893,2.363,5.862,4.707,8.769,7.11a36.167,36.167,0,0,0,2.895,2.3c-.03-.316-.383-.465-.6-.638-3.58-2.9-7.291-5.962-10.9-8.9a15.373,15.373,0,0,1,1.064-1.32c4.146,3.573,8.19,7.25,12.388,10.771-.041-.332-.394-.554-.639-.766C-34.012-3.842-37.61-7-41.283-10.178a9.678,9.678,0,0,1-.766-.681c-.029-.265,1.051-1.012,1.107-1.277,3.817,3.461,7.459,7.1,11.323,10.514-.038-.331-.374-.519-.6-.723-3.5-3.227-7.042-6.656-10.556-9.919.317-.463.777-.784,1.106-1.234,2.7,2.576,5.267,5.266,7.918,7.918.88.879,1.726,1.793,2.682,2.6.025-.338-.347-.517-.554-.723-3.042-3.043-6.075-6.161-9.194-9.28a7.479,7.479,0,0,1-.681-.638,3.962,3.962,0,0,1,.6-.638,6.178,6.178,0,0,1,.681-.553c2.744,2.993,5.521,6.052,8.343,9.024A6.281,6.281,0,0,0-28.683-4.6c-.162-.513-.708-.886-1.106-1.32q-3.8-4.148-7.747-8.386a7.884,7.884,0,0,1-.6-.638,4.129,4.129,0,0,1,.6-.6,8.227,8.227,0,0,0,.638-.553c2.42,2.73,4.847,5.57,7.279,8.343A4.6,4.6,0,0,0-28.6-6.645a3.8,3.8,0,0,0-.937-1.235c-2.361-2.743-4.836-5.591-7.194-8.387.456-.323.849-.711,1.277-1.063,2.893,3.464,5.62,7.094,8.556,10.514.077-.277-.227-.486-.383-.68-2.443-3.062-4.944-6.129-7.45-9.28-.151-.192-.554-.587-.553-.639,0-.171.568-.462.681-.553.292-.236.441-.467.681-.511,2.925,3.885,5.793,7.827,8.768,11.663.085-.311-.229-.56-.383-.766-2.722-3.605-5.565-7.4-8.259-11.068q.685-.465,1.32-.979c2.613,3.517,4.976,7.284,7.62,10.77.075-.274-.214-.5-.341-.681-2.311-3.338-4.767-6.832-7.065-10.217.472-.308.893-.667,1.4-.937,2.238,3.411,4.37,6.925,6.683,10.259.132-.267-.178-.453-.3-.638-2.052-3.172-4.14-6.566-6.257-9.706a11.325,11.325,0,0,1,1.489-.936c2.054,3.546,4.217,7.108,6.343,10.642.116.193.177.5.426.6.083-.265-.183-.488-.3-.68-2.072-3.484-4.265-7.15-6.343-10.685.529-.237.923-.61,1.489-.809.761,1.386,1.533,2.787,2.3,4.172s1.48,2.814,2.341,4.129c.05-.3-.228-.708-.425-1.064-1.313-2.365-2.744-4.949-4.087-7.322.448-.332,1.011-.55,1.49-.851,1.268,2.426,2.532,4.919,3.789,7.365A15.891,15.891,0,0,0-20.935-13.8c.043-.457-.308-.809-.511-1.193-1.495-2.817-2.88-5.842-4.342-8.726.521-.216.994-.482,1.489-.723,1.7,3.59,3.414,7.339,5.108,10.982.092.2.132.524.383.6a21.17,21.17,0,0,0-1.277-2.894c-1.334-2.889-2.683-5.835-4-8.769.5-.235,1-.476,1.533-.681,1.526,3.6,3.1,7.343,4.64,10.982.078.185.1.508.341.6.1-.25-.126-.474-.213-.681-1.5-3.584-3.041-7.364-4.6-10.94a7.582,7.582,0,0,1,1.618-.681c1.213,3.25,2.411,6.491,3.661,9.748a4.8,4.8,0,0,0,.6,1.277,3.615,3.615,0,0,0-.426-1.363c-1.2-3.178-2.451-6.536-3.7-9.7.457-.28,1.077-.4,1.574-.639,1.331,3.861,2.783,7.9,4.087,11.834.071.215.044.535.3.638.105-.252-.094-.505-.171-.723-1.358-3.852-2.642-7.939-4-11.835.59-.132,1.068-.377,1.66-.511,1.086,3.588,2.129,7.175,3.235,10.769a1.168,1.168,0,0,0,.3.6A3.132,3.132,0,0,0-14-17.2c-1.014-3.294-2.027-6.767-3.023-10.089a16.193,16.193,0,0,0,1.576-.468c.867,2.956,1.686,6.22,2.511,9.281.038.146.02.416.213.468a3.14,3.14,0,0,0-.213-1.192c-.727-2.759-1.542-5.77-2.3-8.557a15.121,15.121,0,0,1,1.7-.468c.5,2.226,1,4.47,1.532,6.726a11.936,11.936,0,0,0,.6,2.129,8.076,8.076,0,0,0-.426-2.171c-.505-2.193-1.026-4.5-1.532-6.726.561-.107,1.062-.273,1.66-.341.436,2.133.786,4.351,1.277,6.428.222-.179.041-.512,0-.724-.352-1.813-.744-3.908-1.107-5.747a13.43,13.43,0,0,1,1.7-.3c.3,1.983.67,4.047.979,6.044a6.888,6.888,0,0,0,.383,1.916,8.914,8.914,0,0,0-.213-1.958c-.3-1.931-.67-4.061-.979-6.044.547-.105,1.121-.184,1.7-.256.275,1.952.438,4.018.765,5.917.248-.135.066-.449.043-.639-.2-1.683-.4-3.606-.638-5.278a16.96,16.96,0,0,1,1.7-.212c.276,2.292.314,4.843.681,7.066.065-2.186-.4-4.844-.468-7.109.567.014,1.008-.1,1.575-.085.068.774.106,1.609.17,2.426a9.876,9.876,0,0,0,.255,2.3c.075-1.377-.18-3.19-.255-4.725a12.55,12.55,0,0,1,1.787-.086c-.006.792.086,1.608.129,2.428a8.979,8.979,0,0,0,.213,2.341c.132-1.359-.233-3.366-.128-4.768a7.317,7.317,0,0,1,1.744,0C-.41-27.865-.509-25.894-.418-24.1c.239-.107.127-.445.128-.638.008-1.567.034-3.39.084-4.981.556.057,1.218,0,1.747.086a26.358,26.358,0,0,0-.127,3.874c.223-1.153.171-2.6.3-3.874.615-.018,1.119.072,1.7.085-.066,1.709-.367,3.408-.383,5.023.234-.073.151-.385.17-.554.144-1.409.263-3.017.425-4.427.605-.008,1.076.117,1.661.129-.08,1.382-.508,2.911-.468,4.171.229-.268.165-.667.213-1.022.13-.95.322-2.11.468-3.108.586.053,1.122.156,1.7.213-.266,1.908-.738,3.832-.895,5.7.233-.111.18-.433.214-.638.256-1.58.6-3.361.85-5.023.574.092,1.168.165,1.7.3-.423,2.572-1.113,5.1-1.447,7.619.217-.118.235-.542.3-.85.45-2.19.9-4.5,1.319-6.726a13.6,13.6,0,0,1,1.746.341c-.5,2.2-1.134,4.486-1.489,6.683.247-.159.238-.52.3-.766.45-1.895.88-3.939,1.362-5.875.586.095,1.086.275,1.66.383-.447,1.591-.835,3.215-1.278,4.811S10.587-20,10.309-18.394c.217-.066.214-.355.256-.511.793-2.945,1.633-6.02,2.426-9.024.545.163,1.1.315,1.659.467-1.12,3.847-2.441,7.718-3.489,11.494.24-.014.289-.39.34-.554,1.1-3.553,2.214-7.3,3.32-10.854a13.519,13.519,0,0,1,1.661.511c-1.077,3.047-2.223,6.25-3.322,9.364-.056.165-.187.379-.085.554.215-.077.239-.391.3-.554,1.079-3.044,2.18-6.234,3.277-9.322.539.2,1.1.378,1.619.6-1.385,3.6-2.81,7.29-4.215,10.939-.075.2-.268.413-.169.639.226-.089.266-.406.339-.6,1.369-3.548,2.835-7.325,4.215-10.9.595.143,1.058.417,1.617.6-1.281,3.16-2.789,6.32-3.959,9.451a2.517,2.517,0,0,0,.6-1.108c1.157-2.672,2.362-5.529,3.533-8.258.529.224,1.043.462,1.576.681C20.158-21.146,18.4-17.63,16.78-13.967c.249,0,.347-.345.426-.511,1.571-3.329,3.173-6.88,4.767-10.217.5.25,1.008.5,1.533.723-1.236,2.54-2.5,5.075-3.83,7.578a20.419,20.419,0,0,0-1.194,2.511c.248-.019.307-.354.385-.511,1.526-3.086,3.271-6.312,4.809-9.45.552.215.99.542,1.532.766-2.032,3.842-4.245,7.5-6.257,11.366.3-.008.362-.4.468-.6,1.926-3.481,4.034-7.141,5.96-10.642.519.262,1.008.554,1.489.852-2.017,3.325-4,6.7-6.044,10.046a4.911,4.911,0,0,0-.766,1.4,5.228,5.228,0,0,0,.937-1.362c1.989-3.287,4.035-6.673,6.044-10,.48.3.959.6,1.448.894-2.058,3.287-4.241,6.529-6.386,9.79-.13.2-.327.43-.3.681.226-.088.345-.365.468-.553,2.083-3.2,4.276-6.565,6.384-9.791.511.284.932.658,1.448.937-2.164,3.143-4.408,6.2-6.555,9.366.266.064.411-.285.511-.426,2.018-2.87,4.139-5.9,6.172-8.812.493.3.911.68,1.405.98-2.5,3.461-5.165,6.755-7.662,10.217.3.11.392-.31.511-.468,2.341-3.151,4.961-6.39,7.279-9.578a17.155,17.155,0,0,1,1.4,1.022C31-15.111,28.826-12.4,26.656-9.711a22.409,22.409,0,0,0-2.087,2.64c.277-.041.432-.347.6-.554,2.476-3.088,5.044-6.18,7.62-9.322a5.914,5.914,0,0,1,.511-.681c.134-.016.553.481.639.553.287.243.523.4.68.511-2.862,3.48-5.95,6.735-8.812,10.217.223.113.428-.277.6-.468,2.747-3.112,5.611-6.42,8.343-9.578.17.124.392.3.682.553.07.062.633.486.639.6a10.328,10.328,0,0,1-1.151,1.234c-2.583,2.782-5.615,5.883-7.959,8.557.258.068.449-.276.6-.426,2.523-2.574,4.98-5.271,7.491-8a9.5,9.5,0,0,1,1.15-1.235c.147-.006.51.517.6.6.27.25.512.412.638.553-2.914,3.13-6.114,5.975-9.026,9.109.274.038.468-.255.639-.425Q32.96-9.2,37-13.244c.154-.154.541-.553.553-.553.125-.006.574.523.639.6.255.28.407.543.6.638C35.116-9.111,31.334-5.769,27.72-2.26c.226.08.5-.265.724-.469,3.415-3.161,6.991-6.49,10.428-9.663.455.354.768.85,1.192,1.235C36-7.624,31.88-4.008,27.761-.474c-.241.208-.623.364-.68.725,1.156-.82,2.189-1.825,3.278-2.768,3.232-2.8,6.585-5.615,9.79-8.471A9.113,9.113,0,0,1,41.3-9.625C37.216-6.374,33.111-3.141,29.124.208c.329.056.549-.3.767-.468,3.81-3.029,7.7-6.247,11.578-9.237.317.462.672.889,1.022,1.32-2.047,1.633-4.2,3.142-6.3,4.726-2.087,1.57-4.2,3.118-6.215,4.767a1.837,1.837,0,0,0,.852-.468C34.7-2.029,38.684-5.092,42.576-8.008A16.636,16.636,0,0,1,43.6-6.645c-3.667,2.677-7.535,5.306-11.322,7.917a2.123,2.123,0,0,0-.639.553c.3.032.549-.232.766-.383,3.714-2.573,7.565-5.335,11.365-7.875.285.509.67.918.937,1.447C40.737-2.455,36.748.056,32.871,2.677c.3.116.517-.209.723-.341,3.667-2.371,7.53-4.808,11.238-7.194.277.5.592.968.892,1.448C41.264-.663,36.649,1.927,32.232,4.72c.309.063.612-.2.851-.341C37.237,1.88,41.6-.7,45.769-3.24a6.745,6.745,0,0,1,.892,1.532C42.514.529,38.3,2.905,34.147,5.189c-.236.129-.586.192-.723.468.3.057.575-.213.809-.341C38.35,3.07,42.641.708,46.748-1.58c.338.443.529,1.032.851,1.489-4.256,2.293-8.782,4.4-13.111,6.683-.243.129-.587.2-.724.468A36.321,36.321,0,0,0,37.255,5.4C40.671,3.684,44.188,1.864,47.642.123A7.275,7.275,0,0,1,48.408,1.7c-4.288,1.924-8.553,4-12.856,5.959a7.92,7.92,0,0,0-1.787.895c.316.056.621-.171.895-.3C39.2,6.135,43.922,3.943,48.536,1.868c.215.537.475,1.028.68,1.574C45.176,5.137,41.11,6.8,37.128,8.552c.217.18.527-.045.724-.129,3.714-1.56,7.667-3.277,11.451-4.81.21.541.444,1.059.638,1.617-4.595,1.72-9.2,3.425-13.706,5.236a4.107,4.107,0,0,0,1.7-.511C41.9,8.446,46,6.881,50.025,5.4c.169.554.4,1.044.553,1.618-3.311,1.14-6.684,2.243-10,3.406A31.122,31.122,0,0,0,37.3,11.616c.277.136.565-.086.808-.171,4.1-1.408,8.4-2.837,12.559-4.256.164.559.371,1.076.509,1.66C47.557,9.927,43.935,11,40.362,12.127c.14.217.482.048.638,0,3.317-.995,6.841-2.138,10.26-3.108.145.551.28,1.109.468,1.618-3.281.953-6.782,1.812-10.217,2.724-.157.041-.447.06-.512.256a4.615,4.615,0,0,0,1.321-.256c3.04-.8,6.364-1.711,9.448-2.511.1.593.31,1.082.384,1.7-4.275.954-8.674,2-12.984,2.98-.222.05-.562.01-.68.255a7.023,7.023,0,0,0,1.659-.3c3.956-.911,8.092-1.872,12.089-2.766.081.6.235,1.127.341,1.7-2.047.371-4.117.765-6.171,1.149s-4.114.741-6.088,1.235a4.312,4.312,0,0,0,1.533-.17c3.491-.656,7.191-1.4,10.769-2.044.059.592.213,1.092.255,1.7-2.523.423-5.1.756-7.661,1.148-2.539.39-5.083.751-7.535,1.235a6.369,6.369,0,0,0,1.872-.17c4.347-.667,8.947-1.356,13.367-2.044a16.433,16.433,0,0,1,.213,1.745c-1.883.2-3.81.423-5.7.639s-3.782.383-5.576.723a15.6,15.6,0,0,0,2.808-.213c2.75-.305,5.687-.69,8.514-.979.076.563.136,1.142.17,1.745-3.94.355-8.057.584-11.96,1.064a16.359,16.359,0,0,0,2.98-.127c2.951-.265,6.026-.535,9.024-.766,0,.613.091,1.128.085,1.745-3.008.2-6.265.213-9.237.553,2.931.06,6.19-.293,9.237-.383.12.376-.036,1.03.085,1.4-3.183.208-6.687.1-9.918.256.037.234.367.123.511.127,2.98.1,6.319-.193,9.365-.17a7.291,7.291,0,0,1,0,1.746c-2.446-.023-5.008-.158-7.406-.086.1.241.438.125.595.128m6.215,7.491c-1.187-.171-2.343-.416-3.576-.638A6.9,6.9,0,0,1,48.11,32.3c-.28-.118-.583-.583-.853-.851-.371-.371-.688-.66-.977-.936,2.226.185,4.559.632,6.852.893-.046.593-.169,1.108-.213,1.7m-.341,1.874c-.82-.307-1.66-.2-2.34-.511-.61-.275-1.329-1.527-1.917-1.915,1.477.111,3.028.52,4.555.723-.091.575-.194,1.14-.3,1.7m-.341,1.745c-.669-.621-1.2-1.38-1.872-2a21.709,21.709,0,0,1,2.171.426c-.065.56-.238,1.009-.3,1.574m-4.3,2c-1.951-2.986-4.04-5.836-6.087-8.726a58.556,58.556,0,0,1,8.427,9.323c-.791-.188-1.592-.366-2.34-.6m-3.832.938c-5.931-.6-12.022-1.447-18.305-1.746-6.88-.328-14.1-.24-19.41,1.66-.041-.132.443-.456.68-.638a16.711,16.711,0,0,1,7.322-2.98,47.1,47.1,0,0,1,11.153-.212c7.253.55,13.491,2.414,19.581,4a5.655,5.655,0,0,1-1.02-.085M27.184,56.782a33.917,33.917,0,0,1-6.408.123c.093-.583.738-.98,1.281-1.465,1.521-1.357,3.749-3.209,3.42-6.288a1.97,1.97,0,0,0-2.749-1.77,1.67,1.67,0,0,0-.853.794c-.153.313-.029.827-.429,1.1a9.168,9.168,0,0,1-.12-2.014c2.338-1.35,6.25-.717,5.918,2.625-.274,2.789-3.2,4.417-4.577,5.982,2.075-.042,4.558.324,4.884-1.466.272.706-.188,1.721-.366,2.381m-12.7-1.953a7.266,7.266,0,0,1-3.417,2.32c.213-.523.771-.692,1.158-1.038a7.792,7.792,0,0,0,2.442-4.944c.12-1.647-.4-4.475-2.442-3.968-1.87.466-1.416,4.23.366,4.517a3.51,3.51,0,0,0,1.465-.244c-.937,1.526-3.55.7-4.211-.427-1.208-2.065.564-4.239,2.5-4.456,2.7-.3,4.171,1.506,3.968,4.211a6.712,6.712,0,0,1-1.832,4.029M6.309,69.467c-1.323,3.725-3.37,6.99-6.47,8.981a13.913,13.913,0,0,1-4.9-5.278,17.33,17.33,0,0,1-2.256-7.875A27.025,27.025,0,0,0-.161,66.4a33.2,33.2,0,0,0,7.193-1.192h.041a10.037,10.037,0,0,1-.765,4.258M-6.59,58.824A7.681,7.681,0,0,0-.545,65.081c-2.62-.032-5.526-.23-6.514-2-.716-1.285-.019-3.087.468-4.257m-20.22-21.2a185.857,185.857,0,0,0-19.155,2.044c6.309-1.924,12.8-4.014,20.772-4.384a38.886,38.886,0,0,1,9.962,1.064c2.5.567,5.256,1.186,7.108,2.468.214.149.6.4.553.639-5.514-1.624-12.261-2.11-19.241-1.831m16.653,13.053a6.866,6.866,0,0,1-1.831,4.09,7.045,7.045,0,0,1-3.419,2.381c.241-.552.8-.705,1.281-1.16,1.641-1.562,3.278-5.393,1.77-7.874a1.651,1.651,0,0,0-3.111.732c-.217,2.1,1.327,3.474,3.051,2.625-1.324,1.772-4.211.481-4.517-1.283-.4-2.3,1.5-3.875,3.968-3.6,1.859.206,2.965,1.878,2.808,4.09m-16.114,6.166c.229-.383,1.156-.065,1.465-.366.459-2.269.195-5.444.183-8-.741-.154-1.273.708-2.014.55a9,9,0,0,1,1.771-1.28,6.37,6.37,0,0,1,1.83-1.1c.14,2.007.06,5.092.06,7.751a5.939,5.939,0,0,0,.122,1.893c.269.514,1.093.277,1.467.55a29.419,29.419,0,0,1-4.883,0M-45.029,36.136A75.92,75.92,0,0,1-36.77,24.685c-1.935,4.465-4.237,8.931-8.259,11.451M5.158,55.12C5.312,57.4,6.785,58.9,6.607,61.378c-.208,2.9-2.956,3.738-6.3,3.7a5.1,5.1,0,0,0,3.447-5.235c-.18-2.7-2.4-3.754-2.6-6.257a7.791,7.791,0,0,1,.213-2.214C.7,52.7-.076,54.084-.8,55.547a12.465,12.465,0,0,0-1.66,4.641,6.408,6.408,0,0,0,1.83,4.766c-1.58-1.041-3.677-2.675-3.873-5.235-.183-2.368.944-4.075,1.447-6-.88,1.221-2.353,2.217-3.108,3.7C-5.9,55.9-4.9,54.364-4.76,52.482a11.953,11.953,0,0,0-.34-3.576c.723,1.22,2.023,1.865,2.341,3.49a13.194,13.194,0,0,0-.511-3.448A6.54,6.54,0,0,1-.8,42.691c.1-.082.226-.257.383-.213-.779,3.765,1.97,5.015,1.872,8.513a11.249,11.249,0,0,1,1.662-3.022c-.715,2.11.915,3.653.765,6a3.679,3.679,0,0,1,1.746-2.044,6.2,6.2,0,0,0-.468,3.193M36.234,25.749c3.012,3.033,5.4,7.062,7.959,10.685-1.964-.948-3.34-2.784-4.6-4.6a50.224,50.224,0,0,1-3.363-6.087M.52,25.706c.474-1.408,2.954-2.468,4.341-3.065a53.946,53.946,0,0,1,5.405-2,80.266,80.266,0,0,1,11.919-2.895,6.058,6.058,0,0,1,1.107-.043c3.184.214,5.318,2.461,6.811,4.513a56.438,56.438,0,0,0,4.512,6.129c.075.078.273.133.214.3-3.179-.214-6.338-.98-9.705-.98A44.61,44.61,0,0,0,.478,35.071V27.92A7.736,7.736,0,0,1,.52,25.706m-36.269,2.6a34.658,34.658,0,0,1,4.427-6.938,10.441,10.441,0,0,1,7.492-4.044,13.8,13.8,0,0,1,3.32.553,70.1,70.1,0,0,1,14.729,4.64,16.805,16.805,0,0,1,2.512,1.362A4.6,4.6,0,0,1-1.44,25.919,10.684,10.684,0,0,1-1.354,28.3V35.71c-.145.056-.41-.165-.6-.3C-8.143,31-15.669,27.24-26.3,27.282c-3.311.013-6.2.832-9.45,1.021m4.257,1.065a13.942,13.942,0,0,1,2.171-.68c3.426-.761,7.4.014,10.6.808a51.9,51.9,0,0,1,6.853,2.214c4.379,1.758,8.528,3.7,11.238,6.853,1.856-2.82,5.232-4.488,8.684-5.875a58.3,58.3,0,0,1,11.238-3.32,26.268,26.268,0,0,1,6.6-.6,17.274,17.274,0,0,1,5.7,1.575,30.3,30.3,0,0,1,8.727,5.747,80.737,80.737,0,0,0-21.157-2.129c-3.9.123-7.3.364-10.129,1.532a16.608,16.608,0,0,0-6.514,5.065,10.6,10.6,0,0,0-6.385,0C-4.36,38.432-6.28,37.2-8.207,36.349a37.919,37.919,0,0,0-11.025-2.6,36.251,36.251,0,0,0-6.385-.426,32,32,0,0,0-4.044.681c-3.9.783-7.92,1.584-12.047,2.086-.059-.12.462-.432.681-.6,2.892-2.168,5.892-4.693,9.535-6.129m-19.965,9.876c2.639-2.967,5.382-5.829,8.045-8.769-1.779,2.478-3.665,5.217-5.278,8-.936.241-1.836.52-2.767.767m-2.468-2.469a7.053,7.053,0,0,1-.383-1.746c1.094-.183,2.177-.377,3.235-.6-.552.682-1.389,1.449-2.044,2.171a3.012,3.012,0,0,0-.808.171m-.724-3.662c1.979-.319,3.971-.626,5.917-.978a8.964,8.964,0,0,1-1.021,1.107,6.826,6.826,0,0,1-1.065.979,9.733,9.733,0,0,1-1.788.341c-.587.107-1.17.2-1.787.3-.052-.615-.229-1.105-.256-1.746m109.1-16.047a49.775,49.775,0,0,0-1.15-5.832A55.984,55.984,0,0,0,44.491-7.88a51.005,51.005,0,0,0-6.469-7.493A55.248,55.248,0,0,0,10.694-29.931,53.21,53.21,0,0,0-2.12-31.08a62.978,62.978,0,0,0-12.387,1.619,54.4,54.4,0,0,0-19.028,8.9A54.153,54.153,0,0,0-52.18,2.677,54.122,54.122,0,0,0-56.693,26a61.449,61.449,0,0,0,1.618,12.3A54.942,54.942,0,0,0-43.113,61.251,54.927,54.927,0,0,0-22.979,76.021,53.44,53.44,0,0,0,.35,80.534a56.941,56.941,0,0,0,22.6-5.278,56.816,56.816,0,0,0,8.768-5.193,49.116,49.116,0,0,0,7.493-6.471,57.981,57.981,0,0,0,11.2-16.729,56.773,56.773,0,0,0,3.362-10.6,61.5,61.5,0,0,0,.682-19.2" transform="translate(56.735 31.124)"/>
        </g>
      </g>
      <g id="Group_4626" data-name="Group 4626" transform="translate(63.119 39.342)">
        <g id="Group_4625" data-name="Group 4625" transform="translate(0 0)">
          <path id="Path_2998" data-name="Path 2998" class="cls-4" d="M14.823,9.4a3.076,3.076,0,0,1-.724-.553c-.176-.255-.062-.517-.169-.809-.085-.229-.336-.274-.553-.468-.26-.231-.3-.533-.552-.553-.471-.037-.548.576-.726.937a1.42,1.42,0,0,1,1.362-1.532c.659.056,1.062,1.441,1.447.6.2.756.067,1.492.6,1.873.126.09.3.09.426.171.344.217.55.608.937.766A1.913,1.913,0,0,1,14.823,9.4m-3.193-12c.071-.371.2-.681.3-1.022a4.385,4.385,0,0,1,.6.936c-.314.014-.566.086-.895.086m3.406,4.044a11.327,11.327,0,0,0,.639,1.447c-.6.107-1.179-.324-1.787-.34-.511-.014-.928.308-1.405.255.026-.313.208-.472.3-.723.792-.172,1.462-.468,2.256-.638M8.482,7.488A13.86,13.86,0,0,0,7.247,8.6a17.288,17.288,0,0,1-1.576.937c-.692.5-1.021,1.349-1.659,1.787C4,10.491,3.952,9.7,3.926,8.893c1.046-.592,2.15-.779,3.065-1.277A4.953,4.953,0,0,0,8.568,5.573c.305.317.926.321,1.489.383C9.565,6.5,8.529,6.5,8.482,7.488m-4.726-1.7C4.747,5.778,5.1,4.7,6.141,5.02,5.989,6.06,5.025,6.656,4.735,7.7a3.02,3.02,0,0,1-.852.639c0-.889-.057-1.732-.127-2.555m-.51-4.3C2.385,1.6,2.476.318,2.011-.173,1.839-.355,1.668-.329,1.5-.556c.805-.553,2.357-.257,2.512.638.077.461-.312,1.343-.766,1.4m-.214,7.45a11.466,11.466,0,0,1-.511-2.9,3.956,3.956,0,0,1,.725-.128c-.031,1.024.244,1.741.211,2.768-.149.077-.246.207-.426.256m.342.808a.246.246,0,0,1,.083-.468,3,3,0,0,0-.083.468m-.6,2.938a5.566,5.566,0,0,0-.511,1.192c-.394-1.343.253-2.64.511-3.747.059.55.559.935.553,1.405,0,.3-.382.79-.553,1.15M1.8,11.149c-.533,1.29-.2,2.994-.81,4.426a8.953,8.953,0,0,1-2.171-4.6c.3.1.36.489.766.511.626.033,1.086-.914,1.447-1.4.165-.225.332-.489.6-.809.18-.218.655-.578.6-.809s-.389-.171-.68-.256A2.6,2.6,0,0,1,.1,6.977c.707.17,1.258-.483,1.83-.723a15.474,15.474,0,0,0,.682,2.98A8.2,8.2,0,0,0,1.8,11.149m-3.874,1.66A9.5,9.5,0,0,1-5.013,9.234a.694.694,0,0,1,.3-.383c.736.626,1.877.847,2.682,1.4.179.969.4,1.895.6,2.852-.141.035-.411-.159-.638-.3M-2.33-3.834A13.512,13.512,0,0,1-.969-3.2a2.921,2.921,0,0,1-1.873.852A1.052,1.052,0,0,0-2.33-3.834M-.5,3.912c.57.48.4,1.7.426,2.725-.293-.356-.373-.986-.851-1.022s-.78.539-1.277.639c.538-.811,1.136-1.561,1.7-2.342M6.141-4.643A12.748,12.748,0,0,1,4.947-3.579c-.077-.608-.39-1.19-1.148-.979a1.449,1.449,0,0,0-.043-1.532c.692.416,1.269,1.314,2.385,1.447M8.1,5.531A3.622,3.622,0,0,1,5.246,7.616,12.874,12.874,0,0,1,6.268,5.829a7.011,7.011,0,0,0,1.832-.3M9.929,1.912c-.02.661-.333,1.4-.426,2.128-.233.052-.362.2-.6.256A4.459,4.459,0,0,1,9.929,1.912M-8.716,8.042c.4-.606.8-1.213,1.192-1.83.32.645.327,1.6.766,2.129a4.122,4.122,0,0,1-1.958-.3m-.425-4.725c-.161-.161-.392-.355-.342-.468.317.165.74.226,1.065.383.651-.285.636-1.237.937-1.874A4.519,4.519,0,0,1-7.652,3.7c-.372-.038-.647.153-.937.084-.185-.044-.4-.311-.552-.468m-3.576,1.065A4.065,4.065,0,0,0-13.4,5.488c-.074.156-.15.472-.383.468a5.127,5.127,0,0,1-.171-1.574,4.129,4.129,0,0,1,1.532-.426c.12.18-.183.3-.3.426m34.393-.724c.006-.536.629-.878.341-1.617-.671-.717-2.1-.109-2.98,0A2.238,2.238,0,0,0,18.783.166c-.232-.257-.606-.283-.723-.553-.3-.679.246-1.743-.341-2.3-1.087.02-1.45.99-2.384,1.022-.05-.861.37-1.472.3-2.214-.081-.219-.438-.11-.6-.34-.145-.212-.062-.494-.084-.766-.051-.566-.262-1.176-.683-1.235-.447-.062-.586.132-.765.511-.444.053-.828.166-1.277.214.565-.419,1.565-1.282.98-2.171a10.182,10.182,0,0,0-1.363-.127c-.4.108-.472.75-.892.893-.222.076-.619-.026-.81.086a2.29,2.29,0,0,0,0-1.15c.465-.117,1.193-.308,1.107-.852-.094-.6-1.168-.287-1.916-.511-.2-.06-.343-.317-.553-.3-.376.035-.634.666-.81.808-.334.273-.491.245-.723.426-.124-.932.593-1.026.6-1.83-.583-.334-.795.212-1.32.254A5.2,5.2,0,0,1,4.735-10.6c-.475-.185-1.641-.631-1.917-.127-.226.414.2.879,0,1.362-.456.015-.723-1.416-1.148-1.4-.225.005-.186.22-.341.425-.6.8-1.552,1-2.086.171-.246-.379-.478-1.6-.936-1.15-.825.8-1.818,1.619-1.108,2.6a3.781,3.781,0,0,1-.68,1.023c-.316-.672-1.525-1.171-2-.3-.126.647.376,1.038.171,1.49a6.811,6.811,0,0,1-1.235-.341c-.328-.192-.432-.576-.765-.639a1.824,1.824,0,0,0-.852.171c-.42-.233-1.33-.844-1.959-.426-.8.535.208,2.39,1.15,2.128A4.466,4.466,0,0,0-6.119-3.494c-.414.5-1.378.061-1.874.426-.293.215-.159.491-.511.638-.6-.541-1.144-1.772-2-2-.457-.122-1.06,0-1.618-.17-.186.106-.226.556-.128.808.5.19,1.263.128,1.447.638-.458.408-.647,1.084-1.4,1.192-.286-.126-.161-.662-.341-.893a3.717,3.717,0,0,1-1.4-.256c-.378-.226-.537-.777-1.022-.723a3.519,3.519,0,0,0-.17,1.787c.1.688.538.569,1.021.767C-13.5-1.028-13.1-.173-12.59-.173c.325,0,.441-.283.681-.3.669.286.983,1.137,2.086.85A2.646,2.646,0,0,0-10.589,2C-11.137,1.563-11.53.6-12.5.55a4.039,4.039,0,0,0-.724.128c-.27.041-.559,0-.808.043a5.238,5.238,0,0,0-.978.468,4.327,4.327,0,0,1-1.108.127c-.181.026-.326.154-.511.128-.377-.056-.495-.517-.851-.468-.771.1-.344,2.038-.511,2.6.585.513,1.454-.343,2.086-.042C-16.053,4.994-17.851,4.9-18,6.169a1.97,1.97,0,0,0,.766,1.788c.692.359,1.362-.043,2.129-.213a15.964,15.964,0,0,0,1.66-.3c.619-.234.927-.812,1.788-.553.124.411.443.751.426,1.149-.031.7-.932,1.128-.894,1.788-.638-.186-1.289-1.074-2.171-.893A1.867,1.867,0,0,0-15.314,10.6c.184,1.486,3.668.276,4.64.894-.3,1.335,2,1.263,2.895.893A5.231,5.231,0,0,0-6.5,11.405a1.984,1.984,0,0,0,.085-1.746c-.058-.2-.315-.558-.043-.851.24.066.21.323.383.468a2.7,2.7,0,0,0,.809.3,9.506,9.506,0,0,0,3.362,4.342c.244.167.579.233.81.426.191.159.335.562.6.851A3.106,3.106,0,0,1,.138,16,3.171,3.171,0,0,1,.18,17.449C.116,18.6.28,19.978.223,21.28A9.631,9.631,0,0,1-.2,24.729c-.369.733-1.184,1.17-.979,2a6.913,6.913,0,0,0,1.787-.553c.368.328.4,1.168.937,1.192.641.029.61-1.045,1.149-1.319.344.2.853.62,1.362.383.273-.8-.434-1.041-.808-1.7a5.776,5.776,0,0,1-.384-2.384,70.8,70.8,0,0,1,.214-8.6c.612-.76,1.317-1.517,2.085-2.3.947-.968,1.777-2.318,3.532-2.384a2.967,2.967,0,0,1,.3.383,1.125,1.125,0,0,0-.042.767c.289.2.429-.255.595-.171.006.462-.053.989.215,1.192.568,0,.621-.514.85-.851a5.108,5.108,0,0,0,1.106-.851,6.332,6.332,0,0,1,.213,2.086c.522.208.632-.323,1.063-.383s.658.233.938.341a6.7,6.7,0,0,0,2.81.383c.18-.22-.065-.572,0-.765.362.119.484.48.851.6.171-.132.02-.364.042-.6.17-.47.584-.695.681-1.235-.063-.2-.366-.172-.638-.169.64-.529.779-1.727,1.66-1.916.861-.185,1.674.673,2.554.128a1.684,1.684,0,0,0-.426-1.362c-.31-.377-.991-.594-.725-1.235.437.263,1.138.832,1.787.468.2-1.005-.857-1.408-.851-2.214" transform="translate(18.007 11.424)"/>
        </g>
      </g>
      <g id="Group_4628" data-name="Group 4628" transform="translate(13.105 92.948)">
        <g id="Group_4627" data-name="Group 4627" transform="translate(0 0)">
          <path id="Path_2999" data-name="Path 2999" class="cls-3" d="M.237.953a4.056,4.056,0,0,1,2.8-2.008,4.043,4.043,0,0,1,3.153.57A4.688,4.688,0,0,1,8.056,2.574,10.588,10.588,0,0,1,8.3,4.119c.038.41.021.768.062,1.089.016.117-.027.171-.089.186-.084.019-.217.016-.589.079-.35.058-.925.2-1.139.228-.16.025-.249.023-.27-.071s.06-.124.207-.157a1.539,1.539,0,0,0,.871-.63,3.212,3.212,0,0,0,.163-2.277A2.807,2.807,0,0,0,6.412.743,3.6,3.6,0,0,0,3.476.4,3.615,3.615,0,0,0,.5,4.556c.213.933.447,1.475,1.026,1.785a1.794,1.794,0,0,0,.774.2c.175-.007.222,0,.241.088s-.053.112-.136.131a10.154,10.154,0,0,1-1.447.088.38.38,0,0,1-.367-.2A6.243,6.243,0,0,1-.083,4.81,5.379,5.379,0,0,1,.237.953" transform="translate(0.288 1.157)"/>
        </g>
      </g>
      <g id="Group_4630" data-name="Group 4630" transform="translate(15.526 101.206)">
        <g id="Group_4629" data-name="Group 4629" transform="translate(0 0)">
          <path id="Path_3000" data-name="Path 3000" class="cls-3" d="M2.323,3.233C4.572,2.372,5.472.544,4.842-1.1,4.4-2.258,3.254-3.327.754-2.369c-2.088.8-3.3,2.587-2.565,4.515.269.7,1.233,2.2,4.134,1.087M-.088-3.636A4.14,4.14,0,0,1,5.435-1c.957,2.5.1,4.613-2.2,5.493a4.249,4.249,0,0,1-5.707-2.58A4.094,4.094,0,0,1-.088-3.636" transform="translate(2.822 3.927)"/>
        </g>
      </g>
      <g id="Group_4632" data-name="Group 4632" transform="translate(18.514 108.902)">
        <g id="Group_4631" data-name="Group 4631" transform="translate(0 0)">
          <path id="Path_3001" data-name="Path 3001" class="cls-3" d="M1.7,1.988C.486,2.632-.17,2.98-.235,3.27c-.056.237.008.519.4,1.26.267.5.473.868.855.971a1.359,1.359,0,0,0,.7-.055c.091-.036.158-.048.2.029s-.008.1-.122.162A8.487,8.487,0,0,1,.63,6.073C.391,6.127.318,6.1.057,5.61c-.362-.684-.605-1.188-.823-1.62s-.38-.785-.586-1.174c-.056-.1-.167-.314-.3-.537s-.266-.456-.366-.646c-.066-.123-.072-.2-.006-.24.047-.025.1,0,.156.111a1.734,1.734,0,0,0,.22.323c.138.17.373.107.668,0C-.552,1.661.2,1.264,1.073.8L2.744-.086c1.444-.765,1.711-.907,2-1.086.313-.19.425-.347.325-.7A1.585,1.585,0,0,0,4.935-2.2c-.055-.1-.067-.172,0-.208s.121.022.2.164c.237.447.526,1.059.662,1.316.121.229.517.906.714,1.277.071.133.086.21.02.245S6.411.587,6.351.472A2.905,2.905,0,0,0,6.125.117C5.942-.115,5.74-.1,5.4.053,5.084.194,4.818.336,3.374,1.1Z" transform="translate(2.067 2.414)"/>
        </g>
      </g>
      <g id="Group_4634" data-name="Group 4634" transform="translate(21.829 114.272)">
        <g id="Group_4633" data-name="Group 4633" transform="translate(0 0)">
          <path id="Path_3002" data-name="Path 3002" class="cls-3" d="M1.717,2.122C.569,2.881-.051,3.29-.087,3.585c-.034.242.058.517.52,1.216.314.476.555.82.945.884a1.353,1.353,0,0,0,.692-.123c.086-.044.153-.062.2.01s0,.1-.105.172a8.507,8.507,0,0,1-1.12.548c-.233.076-.308.061-.616-.405C0,5.24-.289,4.763-.547,4.353S-1,3.609-1.244,3.24c-.065-.1-.2-.3-.347-.505s-.309-.428-.427-.607c-.077-.117-.092-.2-.029-.239.045-.03.1-.011.167.1a1.764,1.764,0,0,0,.25.3c.154.156.381.07.665-.066C-.559,2.014.15,1.546.976,1L2.555-.044c1.364-.9,1.615-1.068,1.89-1.275.293-.22.389-.386.256-.724a1.617,1.617,0,0,0-.169-.314c-.065-.1-.083-.164-.02-.205s.123.009.212.144c.278.421.626,1,.786,1.247.142.215.6.852.833,1.2.083.126.107.2.044.241S6.271.271,6.2.164a2.908,2.908,0,0,0-.258-.332c-.205-.213-.405-.183-.732.006-.3.171-.55.338-1.914,1.239Z" transform="translate(2.086 2.577)"/>
        </g>
      </g>
      <g id="Group_4636" data-name="Group 4636" transform="translate(25.719 119.282)">
        <g id="Group_4635" data-name="Group 4635" transform="translate(0 0)">
          <path id="Path_3003" data-name="Path 3003" class="cls-3" d="M2,1.25C3.263.218,3.5.028,3.75-.206c.271-.248.35-.423.184-.746A2.264,2.264,0,0,0,3.693-1.3c-.074-.092-.1-.156-.04-.2s.123,0,.224.122c.183.226.372.474.542.683.168.223.317.423.411.539C5.048.11,6.4,1.77,6.537,1.922a4.2,4.2,0,0,0,.342.317,1.017,1.017,0,0,1,.142.107c.034.042.008.077-.035.111-.058.048-.192.088-.6.376-.09.059-.471.341-.584.407-.049.025-.113.049-.16-.009s-.019-.11.056-.171a1.127,1.127,0,0,0,.259-.294c.1-.181.135-.346-.154-.8-.1-.156-.8-1.044-.931-1.211C4.842.708,4.8.712,4.745.76L2.635,2.478c-.059.047-.085.083-.044.133.15.183.93,1.142,1.1,1.32s.307.292.451.3c.114,0,.183,0,.217.044s.031.072-.019.114-.211.116-.663.429c-.174.128-.528.374-.586.422s-.159.129-.22.054a.086.086,0,0,1,.014-.137,2.669,2.669,0,0,0,.273-.277c.133-.177.163-.4-.055-.732-.113-.171-.777-1-.94-1.2-.034-.041-.074-.023-.124.018L1.384,3.5C1.1,3.728.326,4.344.09,4.55c-.562.485-.578.721.115,1.571a2.7,2.7,0,0,0,.738.7A.909.909,0,0,0,1.866,6.7c.105-.058.153-.069.2-.011s-.013.122-.1.189A8.385,8.385,0,0,1,.957,7.52c-.265.118-.326.043-.584-.273-.509-.626-.866-1.1-1.15-1.464s-.477-.638-.681-.887c-.075-.092-.224-.276-.4-.469-.156-.192-.35-.4-.486-.562-.088-.108-.111-.186-.052-.235.041-.034.094-.02.175.079a1.752,1.752,0,0,0,.278.274c.169.139.386.032.656-.132C-.9,3.608-.24,3.071.527,2.446Z" transform="translate(2.424 1.519)"/>
        </g>
      </g>
      <g id="Group_4638" data-name="Group 4638" transform="translate(31.739 125.693)">
        <g id="Group_4637" data-name="Group 4637" transform="translate(0 0)">
          <path id="Path_3004" data-name="Path 3004" class="cls-3" d="M2,4.1c-.2.209-.224.217-.369.182A6.085,6.085,0,0,1-.57,2.83C-2.468,1-3.283-1.515-1.225-3.652A4.02,4.02,0,0,1,2.562-4.886a5.2,5.2,0,0,1,2.568,1.5A12.746,12.746,0,0,1,6.381-1.94a7.073,7.073,0,0,0,.53.674c.086.1.071.144.019.2A14.409,14.409,0,0,0,5.653.149c-.12.124-.18.141-.242.08S5.378.124,5.43.055a1.511,1.511,0,0,0,.356-.9A3.442,3.442,0,0,0,4.64-3.109a3.1,3.1,0,0,0-2-1A3.2,3.2,0,0,0,.105-2.894,3.732,3.732,0,0,0,0,2.613a2.4,2.4,0,0,0,.741.549.383.383,0,0,0,.423-.144l.7-.728c.373-.388.656-.682.872-.922.246-.271.3-.462.092-.762a2.247,2.247,0,0,0-.28-.314c-.07-.067-.1-.128-.057-.174.06-.062.129-.025.238.08.4.387.868.88,1.1,1.1s.673.6.929.849c.1.1.14.165.08.227-.045.046-.106.017-.161-.035a1.622,1.622,0,0,0-.231-.177c-.247-.163-.451-.106-.72.158-.232.225-.53.535-.9.921Z" transform="translate(2.431 4.975)"/>
        </g>
      </g>
      <g id="Group_4640" data-name="Group 4640" transform="translate(37.732 130.366)">
        <g id="Group_4639" data-name="Group 4639" transform="translate(0 0)">
          <path id="Path_3005" data-name="Path 3005" class="cls-3" d="M1.672,1.4C2.654.093,2.834-.148,3.024-.436c.2-.305.237-.495,0-.768a2.131,2.131,0,0,0-.316-.277c-.094-.071-.133-.127-.088-.187s.119-.032.247.065c.232.174.475.371.689.532s.408.333.529.423C4.359-.44,6.069.845,6.239.959a4.317,4.317,0,0,0,.408.226.958.958,0,0,1,.163.069c.043.032.026.072-.007.116a6.882,6.882,0,0,0-.488.507c-.074.079-.375.444-.47.535-.041.036-.1.075-.156.03s-.045-.1.013-.179a1.148,1.148,0,0,0,.181-.348c.056-.2.047-.367-.343-.742C5.406,1.046,4.517.35,4.345.222,4.3.19,4.266.2,4.221.262L2.586,2.437c-.045.06-.062.1-.011.139.189.143,1.177.885,1.388,1.017s.368.209.509.181c.112-.023.178-.041.222-.008s.047.062.008.114-.177.163-.54.575c-.138.165-.423.49-.468.55s-.123.163-.2.105a.086.086,0,0,1-.02-.136,2.812,2.812,0,0,0,.2-.335c.086-.2.063-.424-.229-.7C3.294,3.8,2.45,3.155,2.244,3c-.043-.032-.077,0-.116.047l-.511.679C1.4,4.017.795,4.8.616,5.057c-.429.606-.387.838.489,1.5a2.722,2.722,0,0,0,.885.5c.3.065.54-.037.865-.345.088-.081.131-.1.191-.058s.017.12-.047.208a8.546,8.546,0,0,1-.829.869c-.229.178-.306.12-.632-.126C.893,7.122.434,6.749.071,6.462s-.617-.5-.874-.7c-.094-.071-.283-.214-.5-.36-.2-.149-.434-.3-.606-.429-.111-.084-.152-.155-.107-.215.032-.043.086-.043.189.034a1.79,1.79,0,0,0,.335.2c.2.095.383-.062.6-.285C-.57,4.381-.06,3.7.535,2.912Z" transform="translate(2.031 1.7)"/>
        </g>
      </g>
      <g id="Group_4642" data-name="Group 4642" transform="translate(47.551 136.994)">
        <g id="Group_4641" data-name="Group 4641" transform="translate(0 0)">
          <path id="Path_3006" data-name="Path 3006" class="cls-3" d="M3.109,2.624C4.2.478,3.647-1.484,2.076-2.286.974-2.847-.593-2.875-1.81-.49-2.827,1.5-2.532,3.646-.693,4.584c.671.343,2.389.808,3.8-1.96M-3.284-.867A4.141,4.141,0,0,1,2.589-2.6C4.973-1.387,5.75.76,4.631,2.954a4.25,4.25,0,0,1-5.969,1.9A4.1,4.1,0,0,1-3.284-.867" transform="translate(3.776 3.188)"/>
        </g>
      </g>
      <g id="Group_4644" data-name="Group 4644" transform="translate(55.788 139.896)">
        <g id="Group_4643" data-name="Group 4643" transform="translate(0 0)">
          <path id="Path_3007" data-name="Path 3007" class="cls-3" d="M1.43,2.484C1.078,3.455.8,4.213.7,4.656c-.076.3-.1.548.192.7a4.431,4.431,0,0,0,.491.225c.131.048.16.092.142.144-.026.07-.108.074-.259.02C.629,5.511,0,5.25-.26,5.154s-.911-.3-1.295-.436c-.141-.052-.205-.1-.176-.178.019-.05.07-.066.181-.026a1.714,1.714,0,0,0,.379.091c.217.033.347-.17.495-.449.2-.406.48-1.164.832-2.135L.8.244c.558-1.537.66-1.82.758-2.151.1-.351.083-.542-.226-.733a2.132,2.132,0,0,0-.383-.174C.851-2.852.788-2.9.81-2.958c.029-.081.118-.072.269-.017.262.1.553.212.815.308s.488.2.629.252c.384.14,2.436.885,2.672.959a2.123,2.123,0,0,0,.429.11.687.687,0,0,1,.183,0,.087.087,0,0,1,.038.117c-.026.071-.12.174-.246.426-.047.1-.283.686-.348.8-.039.077-.081.13-.153.1S5.027.016,5.057-.1a1.055,1.055,0,0,0,.079-.406c-.02-.167-.177-.4-.556-.545l-1.546-.6c-.061-.022-.1,0-.143.108L1.974.989c-.023.061-.023.095.038.117l1.3.459c.171.062.313.114.458.155a.564.564,0,0,0,.5-.023c.073-.043.108-.075.168-.053.041.014.05.052.028.113s-.165.3-.309.6c-.094.2-.283.653-.308.723-.033.091-.07.192-.171.156-.061-.022-.055-.1-.029-.171A1.175,1.175,0,0,0,3.7,2.725a.629.629,0,0,0-.383-.55C3.075,2.052,2,1.662,1.832,1.6c-.051-.018-.078-.005-.1.065Z" transform="translate(1.738 3.018)"/>
        </g>
      </g>
      <g id="Group_4646" data-name="Group 4646" transform="translate(65.83 142.833)">
        <g id="Group_4645" data-name="Group 4645" transform="translate(0 0)">
          <path id="Path_3008" data-name="Path 3008" class="cls-3" d="M3.22,2.017c.032.005.067-.011.077-.064l.038-.223C3.612.12,3.663-.177,3.7-.52c.041-.364-.015-.549-.353-.683a2.133,2.133,0,0,0-.408-.1c-.117-.02-.177-.053-.164-.127s.091-.082.239-.06c.573.1,1.235.245,1.521.295.254.044.928.127,1.341.2.148.026.219.059.206.135S6-.778,5.878-.8a1.881,1.881,0,0,0-.314-.021c-.295,0-.411.169-.5.537-.08.335-.131.632-.408,2.244L4.339,3.825C4.172,4.8,4.027,5.637,4,6.1c-.019.3,0,.546.315.643a4.352,4.352,0,0,0,.533.136c.117.02.165.061.156.114-.014.074-.1.092-.231.07-.689-.119-1.351-.266-1.648-.317-.244-.042-.917-.125-1.331-.2-.148-.026-.217-.07-.2-.144.01-.053.057-.077.185-.056a1.7,1.7,0,0,0,.389.023c.22-.006.312-.23.408-.53.13-.436.274-1.274.442-2.249l.16-.933a.062.062,0,0,0-.053-.074l-4.05-.7A.057.057,0,0,0-1,1.945l-.161.933c-.168.975-.312,1.813-.337,2.277-.02.3,0,.547.315.644a4.317,4.317,0,0,0,.533.135c.117.02.164.062.155.114-.013.074-.1.091-.23.069C-1.416,6-2.078,5.853-2.375,5.8c-.244-.042-.917-.126-1.341-.2-.138-.025-.207-.068-.194-.143.009-.053.057-.077.184-.056a1.79,1.79,0,0,0,.389.023c.22-.006.313-.231.408-.53.129-.436.274-1.274.441-2.249L-2.167.784c.277-1.611.328-1.908.365-2.251.041-.364-.015-.548-.352-.683a2.253,2.253,0,0,0-.408-.1c-.117-.02-.177-.052-.164-.126s.09-.083.239-.06c.572.1,1.235.245,1.521.295.254.044.927.127,1.341.2.149.026.22.06.207.134s-.08.084-.208.062a1.968,1.968,0,0,0-.313-.02c-.3,0-.411.168-.5.537C-.513-.9-.565-.6-.842,1.012l-.038.223a.066.066,0,0,0,.051.085Z" transform="translate(3.912 2.45)"/>
        </g>
      </g>
      <g id="Group_4648" data-name="Group 4648" transform="translate(76.684 144.344)">
        <g id="Group_4647" data-name="Group 4647" transform="translate(0 0)">
          <path id="Path_3009" data-name="Path 3009" class="cls-3" d="M.509,1.423C.578-.21.59-.51.583-.855.576-1.222.5-1.4.147-1.486a2.281,2.281,0,0,0-.418-.05c-.118,0-.181-.029-.178-.1s.079-.093.24-.086c.29.012.6.035.87.047s.525.044.675.05c.344.014,2.48.1,2.685.1a4.389,4.389,0,0,0,.465-.045.965.965,0,0,1,.174-.036c.053,0,.062.045.06.1,0,.075-.062.2-.115.694-.015.108-.056.579-.083.707-.014.053-.038.117-.113.114s-.094-.057-.09-.154A1.157,1.157,0,0,0,4.27-.54c-.067-.2-.169-.33-.7-.417-.181-.029-1.308-.1-1.523-.108-.053,0-.076.029-.08.1L1.851,1.758c0,.075.006.119.07.121.237.01,1.471.061,1.72.05a.749.749,0,0,0,.522-.14c.079-.083.124-.135.178-.133s.074.026.071.09-.053.234-.119.78c-.02.214-.07.642-.073.717s-.008.2-.105.2a.085.085,0,0,1-.092-.1A2.92,2.92,0,0,0,4,2.955c-.045-.217-.189-.384-.584-.444-.2-.03-1.266-.085-1.524-.1-.053,0-.065.041-.068.105l-.035.848c-.015.365-.068,1.353-.07,1.665-.009.742.156.911,1.252.956A2.729,2.729,0,0,0,3.98,5.9c.285-.117.423-.338.517-.774.026-.118.05-.159.125-.156s.083.089.078.2A8.48,8.48,0,0,1,4.51,6.354c-.086.277-.183.272-.592.255C3.113,6.576,2.524,6.53,2.062,6.5S1.269,6.435.946,6.421c-.118,0-.354-.015-.612-.015s-.527,0-.742-.009c-.139-.006-.213-.041-.211-.117,0-.053.047-.083.176-.079a1.708,1.708,0,0,0,.388-.027c.217-.034.28-.268.336-.577C.354,5.148.39,4.3.43,3.313Z" transform="translate(0.619 1.728)"/>
        </g>
      </g>
      <g id="Group_4650" data-name="Group 4650" transform="translate(82.351 144.149)">
        <g id="Group_4649" data-name="Group 4649" transform="translate(0 0)">
          <path id="Path_3010" data-name="Path 3010" class="cls-3" d="M2.194,2.242c.053,0,.062-.036.05-.068L1.112-.412c-.014-.043-.028-.1-.06-.093S1-.448.993-.406l-.82,2.7c-.008.044,0,.076.047.073ZM.039,2.917c-.054,0-.074.026-.091.092l-.483,1.57a2.084,2.084,0,0,0-.12.665c.013.193.117.326.45.305l.161-.01c.129-.008.162.011.166.075.005.086-.057.112-.175.12-.344.021-.808.018-1.14.039-.117.008-.705.077-1.263.112-.14.008-.205-.008-.211-.094,0-.065.038-.089.123-.094a3.33,3.33,0,0,0,.331-.043c.489-.1.67-.473.851-1.023L.907-2.275c.11-.32.166-.441.274-.448s.167.086.289.326c.3.574,2.287,4.842,3.077,6.429.468.94.789,1.071,1.017,1.109a2.316,2.316,0,0,0,.454.015c.086-.005.141,0,.144.077s-.089.113-.486.138-1.169.074-2.029.107c-.194,0-.323.009-.327-.066s.038-.088.144-.106a.175.175,0,0,0,.081-.253l-1-2.22a.1.1,0,0,0-.112-.068Z" transform="translate(2.665 2.724)"/>
        </g>
      </g>
      <g id="Group_4652" data-name="Group 4652" transform="translate(90.368 143.501)">
        <g id="Group_4651" data-name="Group 4651" transform="translate(0 0)">
          <path id="Path_3011" data-name="Path 3011" class="cls-3" d="M1.423,2.3c.229,1.357.353,2.088.608,2.241.207.129.5.156,1.322.017.562-.1.974-.176,1.19-.507a1.35,1.35,0,0,0,.168-.682c-.006-.1,0-.165.089-.18s.094.039.115.166A8.375,8.375,0,0,1,4.963,4.6c-.024.244-.068.306-.62.4-.764.129-1.318.2-1.8.271s-.864.114-1.3.186c-.117.02-.35.059-.6.113s-.516.109-.728.144c-.138.023-.217,0-.23-.07-.008-.053.029-.092.156-.114a1.725,1.725,0,0,0,.374-.107c.205-.078.218-.32.209-.635C.4,4.333.262,3.5.1,2.521L-.218.655C-.489-.957-.54-1.254-.618-1.589c-.082-.357-.2-.513-.558-.527a1.559,1.559,0,0,0-.356.027c-.117.02-.183.009-.2-.065s.058-.108.217-.138c.5-.084,1.171-.165,1.458-.214C.2-2.548.97-2.711,1.384-2.778c.148-.025.226-.017.239.058s-.048.107-.175.128a2.838,2.838,0,0,0-.408.1c-.277.1-.331.3-.29.67.036.343.086.641.359,2.251Z" transform="translate(1.728 2.79)"/>
        </g>
      </g>
      <g id="Group_4654" data-name="Group 4654" transform="translate(95.518 141.306)">
        <g id="Group_4653" data-name="Group 4653" transform="translate(0 0)">
          <path id="Path_3012" data-name="Path 3012" class="cls-3" d="M1.293.787l-1.534.462c-.6.185-.832.305-.925.575a1.268,1.268,0,0,0-.077.411c0,.088-.018.138-.081.155s-.107-.026-.138-.141C-1.507,2.084-1.567,1.086-1.569,1-1.574.855-1.56.784-1.5.767a2.479,2.479,0,0,0,.48,0C-.709.719-.309.633.033.54L4.14-.578a5.228,5.228,0,0,0,.7-.247,2.481,2.481,0,0,1,.265-.127c.073-.02.1.039.143.194.059.218.223.942.3,1.212.019.107.014.174-.047.192C5.415.668,5.38.622,5.327.469L5.286.358C5.192.094,4.833-.121,3.9.11L2.59.434,3.747,4.687c.259.954.482,1.773.656,2.205.11.282.234.492.556.45a4.429,4.429,0,0,0,.541-.1c.114-.031.174-.014.189.038.02.073-.056.126-.169.158-.684.186-1.347.332-1.637.412-.238.065-.883.274-1.3.386-.135.037-.216.026-.236-.047-.014-.053.02-.094.144-.128a1.754,1.754,0,0,0,.362-.144c.2-.1.2-.343.146-.653-.067-.449-.289-1.268-.55-2.223Z" transform="translate(1.57 0.956)"/>
        </g>
      </g>
      <g id="Group_4656" data-name="Group 4656" transform="translate(102.707 137.835)">
        <g id="Group_4655" data-name="Group 4655" transform="translate(0 0)">
          <path id="Path_3013" data-name="Path 3013" class="cls-3" d="M3.333,1.814a.066.066,0,0,0,.03-.095l-.089-.208c-.64-1.5-.758-1.78-.912-2.089C2.2-.9,2.052-1.029,1.7-.959a2.154,2.154,0,0,0-.4.135c-.109.047-.176.052-.206-.017s.032-.119.17-.18C1.8-1.248,2.432-1.484,2.7-1.6c.238-.1.848-.4,1.234-.558.139-.059.217-.069.246,0s-.022.114-.141.164a1.973,1.973,0,0,0-.274.153c-.246.162-.253.365-.126.72.116.324.233.6.873,2.105l.741,1.74c.387.91.72,1.691.95,2.1.147.265.3.457.613.369a4.509,4.509,0,0,0,.521-.174c.109-.047.171-.038.192.012.029.068-.038.132-.156.183-.643.274-1.279.509-1.556.627-.227.1-.838.392-1.223.556-.139.059-.22.059-.25-.011-.022-.049.006-.1.124-.146a1.719,1.719,0,0,0,.339-.192c.181-.123.138-.362.055-.666-.127-.436-.459-1.217-.847-2.127l-.37-.87a.061.061,0,0,0-.084-.035L-.219,3.957a.056.056,0,0,0-.034.084l.371.87c.386.91.72,1.691.95,2.1.148.265.3.457.614.371A4.67,4.67,0,0,0,2.2,7.2c.109-.046.171-.038.192.012.03.069-.037.133-.156.183C1.6,7.67.961,7.906.684,8.024c-.228.1-.838.391-1.234.559-.129.055-.21.055-.24-.015-.021-.049.005-.095.125-.146a1.809,1.809,0,0,0,.339-.191c.18-.124.138-.362.055-.665C-.4,7.129-.73,6.347-1.118,5.438L-1.858,3.7c-.641-1.5-.758-1.78-.913-2.088-.163-.329-.309-.453-.665-.383a2.088,2.088,0,0,0-.4.135c-.109.046-.177.051-.207-.018s.032-.118.17-.18C-3.337.937-2.7.7-2.434.587c.238-.1.848-.4,1.234-.558.138-.059.216-.068.245,0S-.976.143-1.1.195A1.916,1.916,0,0,0-1.37.346c-.246.163-.253.365-.126.72.115.325.233.6.872,2.105l.089.208a.066.066,0,0,0,.089.044Z" transform="translate(4.048 2.204)"/>
        </g>
      </g>
      <g id="Group_4658" data-name="Group 4658" transform="translate(115.487 133.356)">
        <g id="Group_4657" data-name="Group 4657" transform="translate(0 0)">
          <path id="Path_3014" data-name="Path 3014" class="cls-3" d="M1.636,3.995c-.185.03-.241,0-.37-.2C.943,3.3.628,2.739.544,2.589S.428,2.331.5,2.284s.144.023.19.094a2.275,2.275,0,0,0,.38.408,1.482,1.482,0,0,0,1.88.074,1.307,1.307,0,0,0,.541-1.812C3.2.606,2.8.28,1.671.179L1.045.123C-.449-.008-1.2-.417-1.676-1.148-2.319-2.14-1.952-3.39-.7-4.2A5.182,5.182,0,0,1,.6-4.829c.092-.035.156-.037.2.026.075.117.209.4.665,1.105.129.2.149.288.077.335s-.126,0-.2-.1a1.3,1.3,0,0,0-.62-.443,1.362,1.362,0,0,0-1.269.2,1.132,1.132,0,0,0-.471,1.626c.269.415.681.6,1.8.679l.375.025c1.624.113,2.415.483,2.971,1.34A2.164,2.164,0,0,1,4.3,2.074,3.1,3.1,0,0,1,3.1,3.375a3.729,3.729,0,0,1-1.468.62" transform="translate(1.987 4.853)"/>
        </g>
      </g>
      <g id="Group_4660" data-name="Group 4660" transform="translate(120.705 128.116)">
        <g id="Group_4659" data-name="Group 4659" transform="translate(0 0)">
          <path id="Path_3015" data-name="Path 3015" class="cls-3" d="M1.794,4.158A4.054,4.054,0,0,1-1.248,2.55,4.045,4.045,0,0,1-2.141-.526,4.692,4.692,0,0,1-.236-3.562a10.766,10.766,0,0,1,1.274-.9c.35-.217.677-.361.947-.54.1-.067.166-.053.207,0,.055.065.111.186.334.491.208.289.591.738.711.919.094.132.132.212.056.273s-.137,0-.232-.114a1.535,1.535,0,0,0-.952-.5A3.214,3.214,0,0,0,0-3.072a2.8,2.8,0,0,0-1.141,1.8,3.6,3.6,0,0,0,1,2.782A3.615,3.615,0,0,0,4.9,2.321c.74-.607,1.121-1.059,1.14-1.714a1.782,1.782,0,0,0-.166-.78c-.084-.153-.095-.2-.028-.255s.123,0,.177.063A10.247,10.247,0,0,1,6.749.892a.381.381,0,0,1-.019.419A6.229,6.229,0,0,1,5.39,2.728a5.372,5.372,0,0,1-3.6,1.43" transform="translate(2.179 5.052)"/>
        </g>
      </g>
      <g id="Group_4662" data-name="Group 4662" transform="translate(125.595 125.014)">
        <g id="Group_4661" data-name="Group 4661" transform="translate(0 0)">
          <path id="Path_3016" data-name="Path 3016" class="cls-3" d="M1.278,1.693C.122.539-.091.326-.35.1c-.274-.243-.479-.3-.684-.167a1.543,1.543,0,0,0-.3.243c-.075.077-.136.107-.2.047-.046-.046,0-.122.122-.244.289-.289.79-.745,1.011-.965.189-.19.614-.662.9-.951.1-.1.174-.144.22-.1.061.061.031.121-.045.2A1.8,1.8,0,0,0,.47-1.59c-.167.243-.1.433.153.714.229.258.441.471,1.6,1.625L3.559,2.086c.738.737,1.338,1.337,1.7,1.633.229.183.419.266.676.068a4.367,4.367,0,0,0,.418-.357c.083-.084.144-.1.183-.061.053.053.015.137-.068.22-.5.5-1,.959-1.208,1.164-.174.176-.631.677-.934.982-.1.1-.175.129-.229.077-.038-.038-.03-.092.061-.183a1.768,1.768,0,0,0,.243-.3c.121-.183.038-.357-.16-.6-.282-.356-.882-.956-1.62-1.694Z" transform="translate(1.553 2.056)"/>
        </g>
      </g>
      <g id="Group_4664" data-name="Group 4664" transform="translate(128.658 120.165)">
        <g id="Group_4663" data-name="Group 4663" transform="translate(0 0)">
          <path id="Path_3017" data-name="Path 3017" class="cls-3" d="M1.374,2.333C.122,1.281-.109,1.087-.387.882-.681.663-.867.619-1.154.842a2.2,2.2,0,0,0-.295.3c-.076.091-.135.126-.192.077s-.026-.12.078-.243c.187-.223.4-.454.569-.661s.355-.389.452-.5c.221-.264,1.6-1.9,1.721-2.067a4.03,4.03,0,0,0,.248-.4,1.042,1.042,0,0,1,.077-.159c.035-.041.074-.021.116.014a7.01,7.01,0,0,0,.48.515c.075.077.423.4.509.5.034.043.069.1.021.159s-.1.04-.178-.023a1.135,1.135,0,0,0-.338-.2c-.2-.067-.365-.068-.759.3C1.222-1.419.48-.568.341-.4c-.035.041-.023.079.034.126l2.084,1.75c.058.049.1.068.139.019C2.75,1.311,3.546.364,3.689.16s.229-.355.208-.5c-.017-.113-.031-.18,0-.222s.065-.044.115,0,.153.186.545.571c.158.147.467.448.525.5s.156.132.094.206a.085.085,0,0,1-.136.011A2.893,2.893,0,0,0,4.719.506C4.52.409,4.3.42,4.01.7,3.863.841,3.17,1.649,3,1.847c-.035.041-.009.077.041.119l.651.546c.28.236,1.031.88,1.276,1.073.583.461.817.432,1.523-.408a2.719,2.719,0,0,0,.551-.858.91.91,0,0,0-.3-.882c-.077-.092-.1-.137-.047-.194s.121-.011.2.058a8.679,8.679,0,0,1,.824.875c.166.238.1.312-.159.625-.519.617-.916,1.057-1.222,1.4s-.537.588-.744.836c-.077.09-.229.271-.386.476-.159.189-.323.417-.461.583-.089.107-.163.144-.221.1-.041-.035-.038-.088.045-.187A1.823,1.823,0,0,0,4.8,5.684c.1-.193-.041-.386-.253-.62-.311-.332-.962-.878-1.72-1.515Z" transform="translate(1.669 2.833)"/>
        </g>
      </g>
      <g id="Group_4666" data-name="Group 4666" transform="translate(133.121 111.934)">
        <g id="Group_4665" data-name="Group 4665" transform="translate(0 0)">
          <path id="Path_3018" data-name="Path 3018" class="cls-3" d="M2.762,4.337c.717.435,1.028.469,1.207.329a1.67,1.67,0,0,0,.366-.429c.064-.1.117-.141.171-.107.073.047.038.139-.043.265-.377.587-.638.932-.748,1.1-.053.081-.3.524-.6.994-.076.117-.138.193-.219.141-.054-.035-.038-.1.02-.192a1.854,1.854,0,0,0,.217-.435c.08-.282-.16-.487-.941-1l-5.3-3.526c-.18-.116-.289-.225-.231-.315s.233-.1.5-.154C-2.657.978-.3.552,1.861.076c1.011-.22,3.1-.6,3.341-.663L5.23-.632,1.114-3.154C.556-3.5.333-3.529.1-3.369a1.757,1.757,0,0,0-.362.444c-.07.108-.121.127-.175.092-.072-.047-.017-.151.07-.289.3-.471.608-.887.732-1.077.064-.1.257-.46.542-.9.076-.118.144-.2.215-.156.055.035.047.107-.023.215a1.151,1.151,0,0,0-.147.289c-.091.3.053.494.553.829L7.147-.154c.2.128.257.217.205.3a.65.65,0,0,1-.4.18c-.909.22-2.838.615-4.374.957-1.611.356-3.386.633-3.662.686l-.018.027Z" transform="translate(3.355 5.269)"/>
        </g>
      </g>
      <g id="Group_4668" data-name="Group 4668" transform="translate(138.978 104.698)">
        <g id="Group_4667" data-name="Group 4667" transform="translate(0 0)">
          <path id="Path_3019" data-name="Path 3019" class="cls-3" d="M2.611,3.808a4.054,4.054,0,0,1-3.439-.12A4.047,4.047,0,0,1-2.977,1.311a4.69,4.69,0,0,1,.39-3.564,10.656,10.656,0,0,1,.751-1.37c.22-.349.452-.62.617-.9.059-.1.126-.119.185-.092.078.036.182.119.515.3.313.168.855.406,1.041.517.142.077.211.133.17.221s-.123.061-.259,0A1.531,1.531,0,0,0-.641-3.617a3.206,3.206,0,0,0-1.521,1.7A2.8,2.8,0,0,0-2.4.2,3.594,3.594,0,0,0-.29,2.267,3.615,3.615,0,0,0,4.605.8a2.336,2.336,0,0,0,.278-2.04,1.79,1.79,0,0,0-.491-.629c-.142-.1-.172-.138-.137-.217s.109-.056.188-.02a10.182,10.182,0,0,1,1.2.814.38.38,0,0,1,.166.385A6.243,6.243,0,0,1,5.221.95,5.377,5.377,0,0,1,2.611,3.808" transform="translate(3.171 4.626)"/>
        </g>
      </g>
      <g id="Group_4670" data-name="Group 4670" transform="translate(141.13 98.941)">
        <g id="Group_4669" data-name="Group 4669" transform="translate(0 0)">
          <path id="Path_3020" data-name="Path 3020" class="cls-3" d="M1.474,2.195c-1.553-.508-1.84-.6-2.174-.687-.353-.093-.544-.065-.726.249a2.237,2.237,0,0,0-.16.389c-.037.112-.077.167-.149.144s-.068-.1-.019-.255c.09-.276.2-.569.281-.825s.183-.494.231-.637c.106-.328.771-2.362.824-2.559a4.512,4.512,0,0,0,.083-.459.911.911,0,0,1,.012-.177c.017-.052.061-.048.112-.032.072.023.177.114.638.3.1.044.542.211.658.272.048.027.1.067.08.138S1.082-1.87.99-1.9A1.132,1.132,0,0,0,.6-1.959c-.208.011-.364.073-.592.565C-.067-1.228-.438-.161-.5.044c-.017.051.008.081.08.1L2.161.993c.071.023.115.027.136-.035.073-.224.457-1.4.513-1.641a.751.751,0,0,0,.008-.541c-.059-.1-.1-.156-.079-.207s.043-.065.1-.045.211.115.72.326c.2.076.6.241.671.264s.195.063.165.156a.085.085,0,0,1-.123.062,2.808,2.808,0,0,0-.381-.079c-.221-.016-.421.077-.586.442C3.224-.118,2.884.89,2.8,1.135c-.016.051.022.074.083.1l.808.263c.347.114,1.285.432,1.584.517.713.21.919.1,1.259-.946a2.714,2.714,0,0,0,.191-1c-.036-.306-.21-.5-.605-.707C6.017-.7,5.982-.734,6.006-.805s.109-.056.211-.022a8.54,8.54,0,0,1,1.091.5c.242.159.212.25.086.639-.25.767-.455,1.323-.609,1.759s-.277.747-.377,1.053c-.037.114-.111.338-.18.587-.076.235-.143.507-.21.711-.044.133-.1.195-.169.171-.05-.016-.068-.067-.028-.19a1.8,1.8,0,0,0,.08-.38c.026-.218-.183-.343-.465-.48-.413-.192-1.221-.456-2.162-.762Z" transform="translate(1.791 2.666)"/>
        </g>
      </g>
      <g id="Group_4672" data-name="Group 4672" transform="translate(143.444 93.323)">
        <g id="Group_4671" data-name="Group 4671" transform="translate(0 0)">
          <path id="Path_3021" data-name="Path 3021" class="cls-3" d="M3.387,2.569c-.111.152-.171.172-.4.12-.578-.129-1.2-.31-1.364-.358s-.263-.1-.245-.186.117-.084.2-.065a2.321,2.321,0,0,0,.556.024A1.483,1.483,0,0,0,3.529.838,1.306,1.306,0,0,0,2.644-.834C2.129-.948,1.611-.9.736-.177L.25.221c-1.159.954-1.982,1.191-2.832,1C-3.737.967-4.352-.183-4.028-1.642A5.176,5.176,0,0,1-3.54-3c.042-.09.085-.135.159-.12.137.031.432.14,1.25.322.231.051.308.1.289.185s-.086.091-.212.063a1.306,1.306,0,0,0-.753.12A1.359,1.359,0,0,0-3.575-1.4a1.132,1.132,0,0,0,.8,1.489c.482.107.9-.053,1.758-.778l.286-.244C.51-1.99,1.335-2.28,2.332-2.059A2.165,2.165,0,0,1,3.939-.668,3.1,3.1,0,0,1,4,1.1a3.72,3.72,0,0,1-.613,1.472" transform="translate(4.114 3.121)"/>
        </g>
      </g>
      <g id="Group_4674" data-name="Group 4674" transform="translate(2.76 2.758)">
        <g id="Group_4673" data-name="Group 4673" transform="translate(0 0)">
          <path id="Path_3022" data-name="Path 3022" class="cls-3" d="M35.778,1.057a76.9,76.9,0,1,0,76.9,76.9,76.985,76.985,0,0,0-76.9-76.9m0,156.139a79.24,79.24,0,1,1,79.24-79.24,79.328,79.328,0,0,1-79.24,79.24" transform="translate(43.461 1.284)"/>
        </g>
      </g>
      <g id="Group_4676" data-name="Group 4676" transform="translate(0 -0.001)">
        <g id="Group_4675" data-name="Group 4675" transform="translate(0 0)">
          <path id="Path_3023" data-name="Path 3023" class="cls-3" d="M37.024.688A80.477,80.477,0,1,0,117.5,81.163,80.567,80.567,0,0,0,37.024.688m0,162.477a82,82,0,1,1,82-82,82.093,82.093,0,0,1-82,82" transform="translate(44.975 0.836)"/>
        </g>
      </g>
    </g>
  </g>
</svg>
