<svg xmlns="http://www.w3.org/2000/svg" xmlns:xlink="http://www.w3.org/1999/xlink" width="163.951" height="163.951" viewBox="0 0 163.951 163.951">
  <defs>
    <style>
      .cls-1 {
        fill: none;
      }

      .cls-2 {
        clip-path: url(#clip-path);
      }

      .cls-3, .cls-4 {
        fill: #2b2e34;
      }

      .cls-4 {
        fill-rule: evenodd;
      }
    </style>
    <clipPath id="clip-path">
      <path id="Path_3076" data-name="Path 3076" class="cls-1" d="M0,74H163.951V-89.951H0Z" transform="translate(0 89.951)"/>
    </clipPath>
  </defs>
  <g id="Group_4782" data-name="Group 4782" transform="translate(0 89.951)">
    <g id="Group_4781" data-name="Group 4781" class="cls-2" transform="translate(0 -89.951)">
      <g id="Group_4680" data-name="Group 4680" transform="translate(136.518 146.288)">
        <g id="Group_4679" data-name="Group 4679" transform="translate(0 0)">
          <path id="Path_3025" data-name="Path 3025" class="cls-3" d="M2.248,2.12q.31,0,.586-.02a1.49,1.49,0,0,0,.491-.114A.771.771,0,0,0,3.668,1.7.988.988,0,0,0,3.8,1.151.851.851,0,0,0,3.682.68a.77.77,0,0,0-.3-.269A1.3,1.3,0,0,0,2.968.283,3.281,3.281,0,0,0,2.5.249H1.293V2.12Zm.4-2.611a2.409,2.409,0,0,1,1.555.417,1.547,1.547,0,0,1,.5,1.265,1.429,1.429,0,0,1-.444,1.164,1.988,1.988,0,0,1-1.1.437l1.683,2.6H3.863l-1.6-2.531H1.293V5.391H.377V-.491ZM-1.5,4.146A4.189,4.189,0,0,0-.626,5.513a4.053,4.053,0,0,0,1.319.909,4.1,4.1,0,0,0,1.649.33,4.025,4.025,0,0,0,1.63-.33,4.073,4.073,0,0,0,1.312-.909,4.2,4.2,0,0,0,.874-1.366A4.562,4.562,0,0,0,6.475,2.43,4.438,4.438,0,0,0,6.158.747,4.158,4.158,0,0,0,5.284-.606a4.136,4.136,0,0,0-1.312-.9,4.025,4.025,0,0,0-1.63-.33A4.107,4.107,0,0,0-.626-.606,4.147,4.147,0,0,0-1.5.747,4.438,4.438,0,0,0-1.817,2.43,4.562,4.562,0,0,0-1.5,4.146m-.828-3.7a4.994,4.994,0,0,1,1.1-1.588A5.112,5.112,0,0,1,.384-2.194a5.047,5.047,0,0,1,1.959-.384,5,5,0,0,1,1.952.384A5.011,5.011,0,0,1,6.986.451a4.847,4.847,0,0,1,.4,1.979,4.955,4.955,0,0,1-.4,2.012,5.093,5.093,0,0,1-1.09,1.6A4.888,4.888,0,0,1,4.294,7.1a5.075,5.075,0,0,1-1.952.377A5.126,5.126,0,0,1,.384,7.1,4.951,4.951,0,0,1-1.231,6.044a5.04,5.04,0,0,1-1.1-1.6,4.968,4.968,0,0,1-.4-2.012,4.859,4.859,0,0,1,.4-1.979" transform="translate(2.733 2.577)"/>
        </g>
      </g>
      <g id="Group_4682" data-name="Group 4682" transform="translate(10.982 62.437)">
        <g id="Group_4681" data-name="Group 4681" transform="translate(0)">
          <path id="Path_3026" data-name="Path 3026" class="cls-4" d="M3.266,4.646l-6.99-2.914c-.182-.083-.264-.171-.243-.262a.17.17,0,0,1,.1-.113,1.282,1.282,0,0,1,.325-.1L3.5-.219-2.109-4.837q-.242-.173-.207-.312c.023-.1.156-.139.395-.114l7.14.7a3.144,3.144,0,0,0,.835.011.572.572,0,0,0,.427-.277,2.29,2.29,0,0,0,.284-.663c.02-.111.061-.165.123-.159a.108.108,0,0,1,.073.11.624.624,0,0,1-.022.21q-.04.16-.162.608c-.082.3-.167.606-.257.922s-.16.555-.212.714a1,1,0,0,1-.108.247q-.046.063-.094.047c-.052-.016-.083-.066-.092-.154s-.152-.136-.466-.175L.475-3.672l-.01.045L4.917.063c.225.186.372.317.443.391s.1.134.079.176-.079.092-.194.128-.268.077-.46.123l-.641.153-.871.2c-.305.071-.582.134-.827.188s-.416.09-.509.1-.307.056-.624.12L.246,1.863l-1.074.212-.01.045L3.452,3.8a4.474,4.474,0,0,0,.516.165.327.327,0,0,0,.265-.037.531.531,0,0,0,.176-.209,2.287,2.287,0,0,0,.172-.455c.023-.1.063-.15.12-.148.089.029.108.128.056.3-.062.242-.124.468-.188.681s-.109.375-.137.482-.064.283-.108.5-.088.421-.135.609c-.021.125-.079.182-.172.171-.053-.017-.064-.082-.034-.2a1.384,1.384,0,0,0,.03-.138,1.726,1.726,0,0,0,.02-.2.493.493,0,0,0-.243-.4,2.489,2.489,0,0,0-.523-.271" transform="translate(3.97 5.648)"/>
        </g>
      </g>
      <g id="Group_4684" data-name="Group 4684" transform="translate(14.557 54.755)">
        <g id="Group_4683" data-name="Group 4683" transform="translate(0 0)">
          <path id="Path_3027" data-name="Path 3027" class="cls-4" d="M2.391,1.9.516,1.139-.712.642Q-1.146.469-1.367.385c-.147-.056-.274-.1-.383-.138q-.538-.192-.743.121a1.624,1.624,0,0,0-.2.366c-.037.113-.1.155-.175.127-.061-.025-.055-.12.018-.29q.132-.322.31-.722t.282-.65c.057-.146.132-.347.225-.6s.182-.493.267-.707c.055-.146.114-.209.176-.19.076.035.089.106.037.214a2.056,2.056,0,0,0-.1.332.434.434,0,0,0,.064.371,1.013,1.013,0,0,0,.384.268q.154.074.372.168c.144.062.361.151.648.268l1.229.5L2.924.575q.781.317,1.384.553t.965.347a.822.822,0,0,0,.395.037.467.467,0,0,0,.3-.253C6.009,1.186,6.055,1.1,6.1,1s.09-.188.124-.271c.049-.114.1-.16.155-.136s.077.12.025.246q-.22.537-.414.98T5.7,2.491q-.081.205-.227.609t-.283.746c-.055.141-.12.2-.193.17-.058-.015-.063-.084-.016-.2a1.832,1.832,0,0,0,.112-.4.326.326,0,0,0-.076-.289,1.139,1.139,0,0,0-.331-.234q-.326-.176-.922-.427T2.391,1.9" transform="translate(2.906 2.304)"/>
        </g>
      </g>
      <g id="Group_4686" data-name="Group 4686" transform="translate(17.112 44.924)">
        <g id="Group_4685" data-name="Group 4685" transform="translate(0 0)">
          <path id="Path_3028" data-name="Path 3028" class="cls-4" d="M1.789,2.7l1.265.7q.808.448,1.346.737t.694.367q.205.107.45.212a.971.971,0,0,0,.374.1.932.932,0,0,0,.5-.259,3.081,3.081,0,0,0,.632-.835,5.064,5.064,0,0,0,.562-1.405,3.1,3.1,0,0,0,0-1.306A2.557,2.557,0,0,0,6.9-.238a5.625,5.625,0,0,0-1.331-.974,4.369,4.369,0,0,0-1.757-.555,3.379,3.379,0,0,0-1.289.128A3.952,3.952,0,0,0,.875-.623,5.775,5.775,0,0,0-.057.656c-.061.111-.123.238-.186.384a1.257,1.257,0,0,0-.105.309.207.207,0,0,0,.134.231q.271.16.83.472T1.789,2.7M3.021,5.027l-1.768-.98Q.5,3.632.093,3.406c-.271-.15-.478-.262-.617-.336s-.26-.135-.363-.182a.852.852,0,0,0-.443-.116A.573.573,0,0,0-1.7,3a1.311,1.311,0,0,0-.118.16c-.046.07-.089.142-.129.215-.057.115-.118.156-.185.12s-.055-.125.032-.271c.154-.275.31-.544.469-.809s.278-.47.363-.621.206-.387.353-.672.3-.582.473-.891Q-.1-.41.355-1.1A6.288,6.288,0,0,1,1.438-2.354a3.749,3.749,0,0,1,1.5-.805,3.893,3.893,0,0,1,1.4-.108,4.4,4.4,0,0,1,1.693.548A4.77,4.77,0,0,1,7.5-1.462,4.326,4.326,0,0,1,8.224-.071,3.813,3.813,0,0,1,8.372.88a5.041,5.041,0,0,1-.147,1.363,6.831,6.831,0,0,1-.682,1.708q-.322.563-.7,1.122t-.6.95q-.1.194-.3.577T5.566,7.3c-.071.133-.142.182-.211.146s-.053-.091.008-.206a1.9,1.9,0,0,0,.16-.384.325.325,0,0,0-.067-.307,1.7,1.7,0,0,0-.324-.29q-.3-.215-.857-.532t-1.254-.7" transform="translate(2.174 3.286)"/>
        </g>
      </g>
      <g id="Group_4688" data-name="Group 4688" transform="translate(22.549 32.028)">
        <g id="Group_4687" data-name="Group 4687" transform="translate(0 0)">
          <path id="Path_3029" data-name="Path 3029" class="cls-4" d="M3.9,5.714-3.247,2.892a1.677,1.677,0,0,0-.9-.2.661.661,0,0,0-.215.13,1.277,1.277,0,0,0-.159.155c-.067.1-.133.123-.2.075s-.027-.138.084-.26q.3-.356.56-.641c.173-.191.28-.31.322-.357s.123-.156.261-.338.316-.4.532-.661c.1-.123.181-.162.233-.118.055.061.037.135-.053.225a.606.606,0,0,0-.15.25.231.231,0,0,0,.112.259,2.014,2.014,0,0,0,.346.194q.256.12.618.286.286.136.944.422t1.431.617q.775.331,1.417.6t.9.375l.022-.026L-.3-1.679a1.769,1.769,0,0,1-.15-.33A.161.161,0,0,1-.43-2.164c.037-.046.105-.058.2-.037s.239.065.425.129L6.167-.182l.022-.026q-.179-.259-.547-.81T4.828-2.253q-.449-.681-.874-1.331t-.724-1.1A2.386,2.386,0,0,0,2.793-5.2a.285.285,0,0,0-.254-.073A.725.725,0,0,0,2.175-5c-.079.093-.147.121-.2.083s-.025-.139.09-.269q.3-.353.519-.592c.146-.157.238-.258.275-.3s.106-.137.221-.291.237-.307.365-.461c.082-.1.15-.137.2-.1s.054.117-.016.2a1.247,1.247,0,0,0-.214.345.7.7,0,0,0,.093.515c.1.206.247.46.426.761q.3.515.775,1.306T5.738-2.118q.55.9,1.063,1.727t.882,1.422a2.323,2.323,0,0,1,.221.391.193.193,0,0,1-.022.21c-.033.044-.1.058-.194.042a3.539,3.539,0,0,1-.465-.13L1.28-.325l-.015.018q.1.174.376.667t.648,1.158q.371.665.753,1.363t.692,1.283q.31.583.464.913a5.2,5.2,0,0,1,.216.491c.034.1.028.171-.016.217-.058.082-.223.058-.5-.07" transform="translate(4.745 6.945)"/>
        </g>
      </g>
      <g id="Group_4690" data-name="Group 4690" transform="translate(32.295 27.265)">
        <g id="Group_4689" data-name="Group 4689" transform="translate(0 0)">
          <path id="Path_3030" data-name="Path 3030" class="cls-4" d="M1.984,3.131.631,1.629Q.057.989-.256.644T-.73.126q-.163-.173-.284-.292A.85.85,0,0,0-1.4-.419a.573.573,0,0,0-.424.1,1.311,1.311,0,0,0-.165.114c-.066.052-.129.105-.191.161-.092.09-.164.108-.215.054s-.012-.136.118-.246c.236-.209.471-.414.706-.612s.418-.354.546-.468L-.593-1.7l.682-.615.659-.6q.289-.265.359-.332a4.745,4.745,0,0,0,.321-.382,1.051,1.051,0,0,1,.106-.157c.042-.03.082-.02.12.031a1.881,1.881,0,0,1,.114.174,5.174,5.174,0,0,0,.319.442c.025.034.07.092.134.171s.127.16.191.243.111.144.139.187a.127.127,0,0,1,0,.171c-.058.049-.119.032-.185-.051a1.651,1.651,0,0,0-.133-.129.936.936,0,0,0-.2-.132.476.476,0,0,0-.321-.058,1.4,1.4,0,0,0-.527.266c-.063.046-.181.143-.355.291s-.349.3-.525.449-.3.257-.363.317c-.043.036-.037.082.017.138L1.907.882c.049.067.1.08.144.04L2.444.568c.19-.173.378-.345.568-.52s.319-.3.39-.372a.8.8,0,0,0,.294-.5.316.316,0,0,1,.037-.234c.034-.036.075-.031.121.015.018.022.06.085.126.189s.188.269.366.5q.114.155.271.348c.1.13.174.214.209.254a.573.573,0,0,1,.086.114A.091.091,0,0,1,4.9.478C4.837.523,4.788.521,4.75.47A2.943,2.943,0,0,0,4.439.194.5.5,0,0,0,4.107.1a.888.888,0,0,0-.446.192c-.067.049-.185.147-.353.292s-.339.293-.51.443-.3.261-.372.33c-.036.038-.027.082.026.132l.606.675c.093.1.217.242.374.418s.311.349.464.52.271.3.354.384a1.435,1.435,0,0,0,.482.376.573.573,0,0,0,.488-.052,3.524,3.524,0,0,0,.7-.529c.118-.1.248-.227.389-.373a1.7,1.7,0,0,0,.321-.451A.742.742,0,0,0,6.682,2a1.623,1.623,0,0,0-.237-.526c-.07-.1-.078-.17-.021-.212s.132-.012.206.092c.063.071.144.175.246.313s.2.275.294.414.162.245.2.321a.33.33,0,0,1,.043.312,1.3,1.3,0,0,1-.305.325c-.426.383-.787.7-1.085.953s-.552.467-.762.642-.4.335-.562.482q-.163.149-.472.448t-.58.546q-.167.154-.248.068c-.045-.04-.02-.1.076-.191a1.843,1.843,0,0,0,.276-.31.322.322,0,0,0,.036-.313,1.693,1.693,0,0,0-.211-.38q-.218-.3-.636-.781T1.984,3.131" transform="translate(2.411 3.805)"/>
        </g>
      </g>
      <g id="Group_4692" data-name="Group 4692" transform="translate(40.346 22.563)">
        <g id="Group_4691" data-name="Group 4691" transform="translate(0 0)">
          <path id="Path_3031" data-name="Path 3031" class="cls-4" d="M2.549,3.924a5.293,5.293,0,0,1-.778.463A3.249,3.249,0,0,1,1,4.641a.337.337,0,0,1-.221,0A.539.539,0,0,1,.6,4.447q-.28-.4-.508-.768t-.308-.5c-.1-.156-.122-.262-.058-.324a.1.1,0,0,1,.115,0,.362.362,0,0,1,.09.1,1.62,1.62,0,0,0,.183.208,3.119,3.119,0,0,0,.237.212A1.541,1.541,0,0,0,1.4,3.736a1.842,1.842,0,0,0,.964-.356,1.753,1.753,0,0,0,.586-.659,1.35,1.35,0,0,0,.135-.7,1.225,1.225,0,0,0-.211-.6A1.706,1.706,0,0,0,2.216.844,3.3,3.3,0,0,0,.9.566L.228.531A5.383,5.383,0,0,1-1.649.157,2.508,2.508,0,0,1-2.726-.724a1.979,1.979,0,0,1-.3-1.695A2.983,2.983,0,0,1-1.8-4.024,6.126,6.126,0,0,1-1-4.5a5.479,5.479,0,0,1,.561-.236c.1-.046.167-.04.211.02s.108.172.216.348.286.445.537.807q.212.293.094.354c-.064.046-.135.01-.213-.1a1.159,1.159,0,0,0-.224-.217,1.406,1.406,0,0,0-.455-.233,1.406,1.406,0,0,0-.545-.063,1.67,1.67,0,0,0-.8.319,1.482,1.482,0,0,0-.63.848,1.112,1.112,0,0,0,.188.906,1.215,1.215,0,0,0,.639.473A4.707,4.707,0,0,0-.112-1.1l.4.013a6.26,6.26,0,0,1,2.03.356A2.582,2.582,0,0,1,3.512.235a2.428,2.428,0,0,1,.412.989,2.327,2.327,0,0,1-.15,1.267,2.829,2.829,0,0,1-.523.822,4.092,4.092,0,0,1-.7.611" transform="translate(3.098 4.77)"/>
        </g>
      </g>
      <g id="Group_4694" data-name="Group 4694" transform="translate(45.446 17.476)">
        <g id="Group_4693" data-name="Group 4693" transform="translate(0 0)">
          <path id="Path_3032" data-name="Path 3032" class="cls-4" d="M2.334,3.107.123-1.05l-1.489.844a3.447,3.447,0,0,0-.618.42.615.615,0,0,0-.209.4,1.358,1.358,0,0,0,.016.446q.039.135-.047.182T-2.4,1.124A3.285,3.285,0,0,1-2.54.741C-2.6.551-2.658.365-2.712.181s-.086-.294-.1-.337c-.043-.144-.037-.229.019-.257A.543.543,0,0,1-2.607-.44a1.011,1.011,0,0,0,.319-.082q.238-.1.512-.224c.183-.086.359-.173.53-.264L2.768-3.146a5.542,5.542,0,0,0,.672-.423,2.853,2.853,0,0,1,.247-.2q.09-.057.194.17.061.116.173.345l.23.468c.079.159.143.286.192.379s.049.177-.005.21-.141,0-.219-.143l-.07-.106a.538.538,0,0,0-.467-.233,2.229,2.229,0,0,0-1.031.3l-1.294.648L3.6,2.433q.375.708.682,1.268t.522.876a1.05,1.05,0,0,0,.289.314.428.428,0,0,0,.4.022c.079-.028.17-.064.269-.107s.19-.085.269-.127c.111-.057.179-.058.206-.005q.043.111-.139.2c-.342.18-.659.342-.948.485s-.511.254-.66.331q-.194.105-.566.32t-.7.39q-.2.109-.257.006c-.034-.049,0-.1.119-.167a1.86,1.86,0,0,0,.343-.235.331.331,0,0,0,.114-.3,1.391,1.391,0,0,0-.116-.418C3.34,5.062,3.2,4.758,3,4.38s-.417-.8-.669-1.274" transform="translate(2.837 3.777)"/>
        </g>
      </g>
      <g id="Group_4696" data-name="Group 4696" transform="translate(54.755 14.657)">
        <g id="Group_4695" data-name="Group 4695" transform="translate(0 0)">
          <path id="Path_3033" data-name="Path 3033" class="cls-4" d="M1.269,2.955.611,1.045Q.33.231.178-.209T-.056-.871Q-.138-1.093-.2-1.25a.849.849,0,0,0-.251-.382.574.574,0,0,0-.429-.076,1.425,1.425,0,0,0-.2.04c-.081.022-.161.046-.239.073-.119.047-.192.036-.218-.034s.043-.13.206-.18q.446-.151.889-.288t.686-.218L.785-2.5l.868-.3.841-.293c.246-.087.4-.142.46-.166A4.676,4.676,0,0,0,3.4-3.486a1.1,1.1,0,0,1,.159-.1c.05-.012.084.014.1.076a2,2,0,0,1,.036.2,5.093,5.093,0,0,0,.12.531c.01.043.029.112.056.211s.055.2.082.3S4-2.093,4-2.043a.124.124,0,0,1-.067.156c-.072.022-.121-.016-.15-.118a1.737,1.737,0,0,0-.072-.171.946.946,0,0,0-.128-.2.472.472,0,0,0-.273-.179,1.4,1.4,0,0,0-.589.039c-.076.017-.223.06-.441.129s-.437.137-.658.209-.374.121-.458.15c-.053.016-.067.061-.039.135L2.076.856c.019.08.058.111.117.093l.5-.173Q3.057.65,3.42.52c.242-.087.41-.151.5-.191a.8.8,0,0,0,.464-.343c.038-.114.08-.181.126-.2s.081,0,.105.061c.008.027.022.1.043.224s.068.321.144.6q.046.186.114.427c.045.16.076.265.093.315a.5.5,0,0,1,.034.14.089.089,0,0,1-.061.1c-.073.019-.116,0-.132-.064a3.1,3.1,0,0,0-.178-.375A.509.509,0,0,0,4.407.995a.888.888,0,0,0-.485,0c-.081.02-.228.064-.439.131s-.426.137-.642.209l-.471.158c-.048.021-.057.065-.028.132l.3.858c.045.132.1.309.179.531s.15.443.224.66.132.381.175.492a1.44,1.44,0,0,0,.3.535.579.579,0,0,0,.471.143,3.579,3.579,0,0,0,.849-.215c.15-.048.318-.112.5-.191a1.69,1.69,0,0,0,.471-.29.735.735,0,0,0,.224-.394,1.564,1.564,0,0,0-.012-.577c-.026-.118-.006-.186.064-.2s.128.041.155.165c.029.09.064.218.1.384s.075.332.108.5.052.289.061.374a.329.329,0,0,1-.082.3,1.322,1.322,0,0,1-.407.18q-.812.277-1.372.453T3.7,5.624c-.262.078-.5.153-.707.224-.138.049-.342.126-.609.228s-.517.194-.748.276c-.142.051-.227.04-.254-.034-.027-.054.021-.1.144-.147A1.881,1.881,0,0,0,1.9,5.992a.322.322,0,0,0,.155-.273,1.66,1.66,0,0,0-.046-.432c-.055-.242-.148-.566-.281-.969s-.286-.858-.461-1.363" transform="translate(1.542 3.592)"/>
        </g>
      </g>
      <g id="Group_4698" data-name="Group 4698" transform="translate(63.247 12.823)">
        <g id="Group_4697" data-name="Group 4697" transform="translate(0 0)">
          <path id="Path_3034" data-name="Path 3034" class="cls-4" d="M1.172.482,1.9,3.9c.019.114.067.174.144.181a2.22,2.22,0,0,0,.429,0,3.8,3.8,0,0,0,.449-.067A2.114,2.114,0,0,0,3.4,3.863a.855.855,0,0,0,.274-.215,1.49,1.49,0,0,0,.332-.687,2.718,2.718,0,0,0-.028-1.139A2.443,2.443,0,0,0,3.418.643,1.664,1.664,0,0,0,2.6.153,1.724,1.724,0,0,0,1.826.131,2.526,2.526,0,0,0,1.239.3a.136.136,0,0,0-.067.179M.8,5.268.384,3.291q-.178-.84-.277-1.3c-.066-.3-.116-.532-.152-.687s-.07-.285-.1-.394A.851.851,0,0,0-.348.5.574.574,0,0,0-.764.376a1.307,1.307,0,0,0-.2.016c-.083.012-.165.026-.246.043-.125.032-.2.012-.213-.061S-1.364.252-1.2.222q.464-.1.908-.176c.3-.052.508-.091.639-.117s.3-.068.5-.116l.6-.144c.2-.048.357-.085.479-.111A5.758,5.758,0,0,1,3.015-.584,2.686,2.686,0,0,1,4.1-.4a1.8,1.8,0,0,1,.621.461,2,2,0,0,1,.47.915A2.481,2.481,0,0,1,5.131,2.27a4.716,4.716,0,0,1-.892,1.54q.948.786,1.7,1.4T7.3,6.245a2.956,2.956,0,0,0,.932.443,1.711,1.711,0,0,0,.488.054,1.832,1.832,0,0,0,.322-.034c.09-.017.141,0,.154.061.013.084-.049.136-.19.158l-1.067.227a4.279,4.279,0,0,1-.737.106A1.573,1.573,0,0,1,6.7,7.2a2.769,2.769,0,0,1-.841-.446,13.571,13.571,0,0,1-1.048-.878q-.3-.268-.591-.542l-.525-.486c-.153-.141-.261-.236-.326-.286a.237.237,0,0,0-.218-.035l-.983.185c-.058.009-.082.045-.07.109l.033.157q.166.792.308,1.416t.259.977a1.1,1.1,0,0,0,.194.392.425.425,0,0,0,.376.132c.09-.007.188-.016.294-.03s.194-.027.266-.042c.09-.017.141,0,.153.061.015.076-.052.13-.2.159-.223.047-.449.093-.682.136l-.617.114c-.178.032-.3.055-.359.067-.076.016-.192.044-.349.083s-.326.082-.509.126S.91,8.65.755,8.683s-.23.011-.248-.064c-.019-.057.034-.1.16-.129a1.871,1.871,0,0,0,.4-.131.32.32,0,0,0,.187-.252,1.71,1.71,0,0,0,.007-.434c-.025-.248-.079-.58-.161-1S.916,5.79.8,5.268" transform="translate(1.425 0.586)"/>
        </g>
      </g>
      <g id="Group_4700" data-name="Group 4700" transform="translate(73.752 11.367)">
        <g id="Group_4699" data-name="Group 4699" transform="translate(0 0)">
          <path id="Path_3035" data-name="Path 3035" class="cls-4" d="M.743,1.157l.289,4.815a3.258,3.258,0,0,0,.156.939c.076.186.173.294.29.322a1.833,1.833,0,0,0,.6.06c.128-.008.2.02.2.085,0,.084-.09.126-.259.123-.738.014-1.214.019-1.426.016-.059,0-.2.014-.435.032s-.5.033-.805.046C-.8,7.613-.889,7.578-.9,7.488c0-.065.062-.1.181-.1.076,0,.161-.009.253-.021a1.5,1.5,0,0,0,.262-.055c.143-.042.234-.17.271-.381A5.618,5.618,0,0,0,.1,5.879l-.134-6.8C-.052-1.164-.007-1.3.1-1.314a.283.283,0,0,1,.191.093q.1.094.248.247c.058.06.27.269.634.63s.817.8,1.357,1.325,1.105,1.057,1.693,1.6q.424.4.992.95L6.251,4.548q.468.458.589.567l.057,0L6.6-.036a2.237,2.237,0,0,0-.122-.733.5.5,0,0,0-.3-.286,1.067,1.067,0,0,0-.31-.049c-.115,0-.215,0-.3,0-.129,0-.192-.028-.188-.1s.11-.119.3-.114q.455-.013.828-.011c.248,0,.434,0,.561,0,.067,0,.2-.014.4-.031s.44-.031.725-.043c.162-.017.251.014.268.094s-.066.105-.2.111a1.263,1.263,0,0,0-.344.046.463.463,0,0,0-.318.293,1.956,1.956,0,0,0-.072.7l.126,7.247q.016.367-.137.36a.345.345,0,0,1-.2-.072,1.616,1.616,0,0,1-.2-.167q-.384-.342-.965-.885T4.9,5.156q-.663-.624-1.29-1.2-.657-.61-1.262-1.21T1.319,1.709Q.894,1.273.777,1.155Z" transform="translate(0.903 1.406)"/>
        </g>
      </g>
      <g id="Group_4702" data-name="Group 4702" transform="translate(91.304 11.947)">
        <g id="Group_4701" data-name="Group 4701" transform="translate(0 0)">
          <path id="Path_3036" data-name="Path 3036" class="cls-4" d="M.074,2.306.422.666Q.6-.175.7-.631t.14-.688q.045-.232.069-.4a.852.852,0,0,0-.018-.457.577.577,0,0,0-.329-.286A1.166,1.166,0,0,0,.371-2.53C.29-2.552.21-2.572.128-2.59,0-2.611-.054-2.658-.042-2.732s.1-.09.268-.049c.308.067.612.138.915.212s.541.131.719.171c.095.019.224.044.391.074l.517.093c.181.034.34.064.481.093.168.029.242.081.225.153s-.086.093-.2.063a1.54,1.54,0,0,0-.159-.025l-.172-.01a.433.433,0,0,0-.354.127.991.991,0,0,0-.2.425q-.046.164-.1.395t-.152.686q-.1.455-.277,1.3L1.526,2.544A5.766,5.766,0,0,0,1.37,4.418a2.042,2.042,0,0,0,.444,1.076,1.992,1.992,0,0,0,.666.545,2.655,2.655,0,0,0,.64.214,2.438,2.438,0,0,0,.821.034,2.082,2.082,0,0,0,.858-.31A2.214,2.214,0,0,0,5.611,4.9a9.357,9.357,0,0,0,.432-1.575l.3-1.4q.179-.84.275-1.3c.064-.3.11-.533.141-.688s.052-.289.069-.4a.858.858,0,0,0-.019-.457.575.575,0,0,0-.328-.286,1.44,1.44,0,0,0-.185-.065c-.077-.022-.147-.04-.213-.054-.126-.021-.182-.069-.169-.142s.1-.09.257-.05c.2.041.391.086.585.133s.357.087.488.12l.212.055.3.053.493.088q.271.049.5.1c.159.028.23.079.215.151s-.091.093-.224.058a1.323,1.323,0,0,0-.161-.025c-.047,0-.1-.008-.172-.011a.438.438,0,0,0-.354.127.994.994,0,0,0-.2.426q-.045.164-.1.394C7.712.3,7.661.532,7.6.836s-.157.735-.276,1.3l-.257,1.2A7.823,7.823,0,0,1,6.49,5.151,2.936,2.936,0,0,1,5.278,6.488,3.284,3.284,0,0,1,3.944,6.9,4.054,4.054,0,0,1,2.77,6.8a6.153,6.153,0,0,1-.722-.191,3.8,3.8,0,0,1-.841-.4,2.8,2.8,0,0,1-.767-.718A2.709,2.709,0,0,1-.046,4.272a5.561,5.561,0,0,1,.12-1.966" transform="translate(0.089 2.803)"/>
        </g>
      </g>
      <g id="Group_4704" data-name="Group 4704" transform="translate(100.102 14.953)">
        <g id="Group_4703" data-name="Group 4703" transform="translate(0 0)">
          <path id="Path_3037" data-name="Path 3037" class="cls-4" d="M1.843,1.139.148,5.656a3.253,3.253,0,0,0-.238.921.47.47,0,0,0,.134.411,1.827,1.827,0,0,0,.523.3c.12.044.171.1.15.16-.038.076-.135.078-.287.007Q-.59,7.022-.88,6.889c-.055-.022-.192-.071-.411-.148s-.469-.173-.754-.286c-.153-.047-.215-.114-.191-.2.028-.059.1-.064.2-.017a2.273,2.273,0,0,0,.24.085,1.425,1.425,0,0,0,.26.056.423.423,0,0,0,.4-.237,5.556,5.556,0,0,0,.46-.95L1.976-1.074c.085-.23.179-.332.286-.306a.282.282,0,0,1,.136.164c.035.084.077.193.127.327.028.078.137.356.323.834s.42,1.065.7,1.763.58,1.416.894,2.154q.225.536.52,1.273T5.5,6.478q.241.607.307.756l.054.022L7.681,2.432a2.232,2.232,0,0,0,.187-.719.5.5,0,0,0-.161-.386,1.065,1.065,0,0,0-.264-.171c-.1-.05-.2-.09-.274-.12C7.048.988,7,.932,7.037.872s.148-.064.315.016c.282.115.535.224.761.326s.4.177.513.227L9,1.573c.188.065.415.151.68.257.155.049.224.114.206.194s-.1.071-.23.019a1.238,1.238,0,0,0-.333-.1.463.463,0,0,0-.411.138,1.969,1.969,0,0,0-.349.607L5.736,9.363c-.09.228-.18.319-.271.274a.348.348,0,0,1-.152-.146A1.664,1.664,0,0,1,5.2,9.256q-.211-.469-.521-1.2T4.012,6.482q-.353-.839-.689-1.624-.351-.824-.66-1.618T2.145,1.877q-.211-.57-.269-.725Z" transform="translate(2.24 1.384)"/>
        </g>
      </g>
      <g id="Group_4706" data-name="Group 4706" transform="translate(110.942 19.913)">
        <g id="Group_4705" data-name="Group 4705" transform="translate(0 0)">
          <path id="Path_3038" data-name="Path 3038" class="cls-4" d="M1.1,2.312,2.078.545,2.72-.615q.225-.408.336-.618c.073-.139.135-.259.182-.363.171-.341.161-.592-.029-.752a1.629,1.629,0,0,0-.34-.241c-.107-.051-.142-.114-.1-.189.032-.057.126-.04.286.053q.3.172.679.4t.61.358c.138.074.328.173.572.3s.467.241.669.351c.138.072.193.138.168.2-.045.072-.117.076-.217.011a2.036,2.036,0,0,0-.319-.137.439.439,0,0,0-.376.018,1,1,0,0,0-.312.349q-.093.142-.212.347c-.079.137-.194.34-.346.612S3.6.734,3.324,1.235L2.344,3q-.411.735-.717,1.306t-.462.916a.814.814,0,0,0-.085.387.462.462,0,0,0,.215.328c.067.051.146.107.236.168s.174.112.253.156c.107.062.146.118.116.169-.046.064-.128.063-.246,0Q1.147,6.144.732,5.9C.454,5.732.246,5.609.1,5.529s-.322-.171-.577-.3-.491-.254-.7-.372c-.134-.072-.182-.142-.146-.212s.09-.053.2.009a1.892,1.892,0,0,0,.384.159.323.323,0,0,0,.3-.04,1.138,1.138,0,0,0,.273-.3q.214-.3.535-.863t.728-1.3" transform="translate(1.336 2.81)"/>
        </g>
      </g>
      <g id="Group_4708" data-name="Group 4708" transform="translate(118.422 22.55)">
        <g id="Group_4707" data-name="Group 4707" transform="translate(0 0)">
          <path id="Path_3039" data-name="Path 3039" class="cls-4" d="M.059,4.1,1.842-3.275A1.75,1.75,0,0,0,1.9-4.008a1.1,1.1,0,0,0-.255-.486,1.441,1.441,0,0,0-.182-.182c-.063-.052-.114-.091-.153-.118-.079-.058-.1-.113-.05-.165s.158-.026.3.092c.25.183.491.367.725.549s.434.335.6.458c.122.087.286.2.5.338s.432.294.669.464a.637.637,0,0,1,.135.126.093.093,0,0,1,.017.114c-.049.057-.115.052-.2-.018a.826.826,0,0,0-.409-.2.277.277,0,0,0-.236.128,3.362,3.362,0,0,0-.306.87L1.591,3.342l.037.026c.3-.19.7-.444,1.2-.76S3.854,1.961,4.4,1.615,5.446.955,5.888.675s.753-.482.933-.6a1.437,1.437,0,0,0,.333-.283A.221.221,0,0,0,7.16-.475a1.529,1.529,0,0,0-.337-.316c-.1-.061-.135-.124-.1-.189q.072-.1.327.1.353.26.607.462c.168.135.285.227.348.275.089.063.224.153.4.27s.343.23.492.337c.129.086.173.162.135.225S8.913.734,8.821.66A1.432,1.432,0,0,0,8.61.528.822.822,0,0,0,8.284.44a.942.942,0,0,0-.371.077,4.867,4.867,0,0,0-.748.388q-.488.3-.911.541t-.9.514q-.478.271-1.134.654-1.191.7-2.036,1.2t-1.258.74q-.461.271-.651.36c-.128.06-.22.065-.276.017s-.082-.116-.068-.233A5.05,5.05,0,0,1,.059,4.1" transform="translate(0.072 4.987)"/>
        </g>
      </g>
      <g id="Group_4710" data-name="Group 4710" transform="translate(122.726 29.238)">
        <g id="Group_4709" data-name="Group 4709" transform="translate(0 0)">
          <path id="Path_3040" data-name="Path 3040" class="cls-4" d="M1.341,2.079,2.744.625l.921-.954q.323-.337.484-.509c.107-.116.2-.217.27-.3a.855.855,0,0,0,.227-.4.575.575,0,0,0-.126-.417,1.237,1.237,0,0,0-.125-.156c-.056-.062-.114-.123-.173-.18-.1-.085-.119-.155-.068-.209s.135-.022.253.1c.226.22.446.44.66.662s.383.391.506.512l.412.4.662.637.642.616c.188.179.307.292.357.335a4.558,4.558,0,0,0,.4.293,1.211,1.211,0,0,1,.164.094c.033.04.026.082-.022.123a2.02,2.02,0,0,1-.167.125,5.313,5.313,0,0,0-.419.348c-.033.028-.086.077-.162.146s-.15.139-.228.209-.137.12-.177.152a.126.126,0,0,1-.171.011c-.052-.054-.04-.117.037-.188a1.756,1.756,0,0,0,.12-.142.957.957,0,0,0,.117-.2A.476.476,0,0,0,7.177,1.4a1.412,1.412,0,0,0-.3-.507C6.824.835,6.719.724,6.56.56S6.239.232,6.075.067,5.8-.21,5.734-.271C5.7-.312,5.65-.3,5.6-.244L3.578,1.845c-.062.054-.073.1-.031.147l.383.368q.276.266.557.53t.4.362A.8.8,0,0,0,5.4,3.51a.323.323,0,0,1,.236.02c.04.032.037.073-.005.122-.021.019-.081.066-.18.14s-.255.206-.468.4c-.1.084-.206.182-.329.3s-.2.188-.239.227a.544.544,0,0,1-.109.094A.09.09,0,0,1,4.19,4.8c-.05-.056-.051-.1,0-.147a3.086,3.086,0,0,0,.253-.329.508.508,0,0,0,.072-.338.9.9,0,0,0-.223-.431c-.055-.064-.16-.174-.317-.332S3.657,2.9,3.5,2.745L3.141,2.4q-.061-.049-.13.036l-.63.652-.392.4-.485.5c-.159.164-.279.291-.36.379A1.436,1.436,0,0,0,.8,4.872a.574.574,0,0,0,.086.484,3.494,3.494,0,0,0,.577.66c.111.111.245.232.4.363a1.683,1.683,0,0,0,.473.288.73.73,0,0,0,.453.02A1.573,1.573,0,0,0,3.3,6.414c.093-.078.163-.09.21-.036s.021.132-.078.212q-.1.1-.294.268c-.13.11-.261.218-.392.321s-.235.179-.307.224a.333.333,0,0,1-.308.066,1.364,1.364,0,0,1-.345-.281Q1.169,6.589.76,6.171T.067,5.456q-.284-.3-.52-.527-.16-.151-.479-.439t-.586-.541q-.165-.156-.085-.242c.035-.048.1-.027.2.062a1.861,1.861,0,0,0,.329.254.321.321,0,0,0,.314.014A1.7,1.7,0,0,0-.4,3.8q.287-.239.736-.69t1-1.03" transform="translate(1.63 2.527)"/>
        </g>
      </g>
      <g id="Group_4712" data-name="Group 4712" transform="translate(128.323 35.587)">
        <g id="Group_4711" data-name="Group 4711" transform="translate(0 0)">
          <path id="Path_3041" data-name="Path 3041" class="cls-4" d="M3.424,1.073.711,3.27c-.093.068-.126.138-.1.211a2.241,2.241,0,0,0,.2.38,3.894,3.894,0,0,0,.265.37,2.1,2.1,0,0,0,.348.364.852.852,0,0,0,.316.147A1.494,1.494,0,0,0,2.5,4.726a2.712,2.712,0,0,0,1-.542A2.439,2.439,0,0,0,4.3,3.148,1.682,1.682,0,0,0,4.368,2.2a1.726,1.726,0,0,0-.335-.7,2.49,2.49,0,0,0-.419-.444.137.137,0,0,0-.19.021M-1.007,2.918.563,1.646,1.592.812q.362-.3.543-.447c.12-.1.223-.191.306-.268a.852.852,0,0,0,.273-.367A.574.574,0,0,0,2.639-.7a1.148,1.148,0,0,0-.1-.17c-.048-.068-.1-.135-.15-.2-.086-.1-.1-.169-.043-.217s.137,0,.239.131c.2.248.387.49.569.73s.312.41.394.515.2.236.331.394l.4.467c.131.153.237.279.316.376a5.75,5.75,0,0,1,.621.906A2.681,2.681,0,0,1,5.536,3.28a1.8,1.8,0,0,1-.129.762,1.987,1.987,0,0,1-.6.834,2.483,2.483,0,0,1-1.176.538,4.735,4.735,0,0,1-1.777-.1q-.271,1.2-.476,2.155t-.3,1.683A2.972,2.972,0,0,0,1.1,10.186a1.69,1.69,0,0,0,.174.459,1.8,1.8,0,0,0,.176.271c.055.073.061.128.015.165q-.1.075-.227-.1l-.687-.848a4.223,4.223,0,0,1-.43-.609,1.57,1.57,0,0,1-.174-.484,2.779,2.779,0,0,1,.016-.953A13.414,13.414,0,0,1,.271,6.759q.1-.384.215-.773C.56,5.727.625,5.5.68,5.3s.091-.34.107-.42A.242.242,0,0,0,.72,4.667L.109,3.876A.08.08,0,0,0-.02,3.863l-.126.1q-.629.508-1.122.918t-.752.675a1.059,1.059,0,0,0-.262.35.429.429,0,0,0,.052.4c.048.077.1.16.16.248s.113.161.159.218c.056.073.061.128.016.165-.063.049-.141.013-.234-.106-.144-.176-.286-.359-.431-.546l-.381-.5c-.11-.145-.184-.241-.224-.29s-.126-.15-.232-.273l-.343-.4c-.123-.143-.234-.275-.333-.4s-.116-.2-.056-.251c.042-.043.1-.014.188.085a1.818,1.818,0,0,0,.3.293.322.322,0,0,0,.31.052,1.7,1.7,0,0,0,.39-.191q.314-.2.815-.6t1.122-.9" transform="translate(4.162 1.305)"/>
        </g>
      </g>
      <g id="Group_4714" data-name="Group 4714" transform="translate(134.008 44.849)">
        <g id="Group_4713" data-name="Group 4713" transform="translate(0 0)">
          <path id="Path_3042" data-name="Path 3042" class="cls-4" d="M.278,2.362a5.18,5.18,0,0,1-.407-.808,3.178,3.178,0,0,1-.2-.781A.341.341,0,0,1-.31.551a.547.547,0,0,1,.2-.168c.28-.168.548-.318.8-.452s.426-.226.517-.273c.163-.091.271-.1.328-.036a.1.1,0,0,1,0,.114.335.335,0,0,1-.1.085,1.757,1.757,0,0,0-.221.168Q1.088.1.981.211A1.542,1.542,0,0,0,.545,1.23a1.849,1.849,0,0,0,.287.986,1.755,1.755,0,0,0,.618.631,1.337,1.337,0,0,0,.688.182,1.21,1.21,0,0,0,.609-.169,1.69,1.69,0,0,0,.626-.615A3.3,3.3,0,0,0,3.743.95L3.825.284a5.389,5.389,0,0,1,.5-1.846,2.5,2.5,0,0,1,.954-1.013,1.98,1.98,0,0,1,1.711-.179A2.97,2.97,0,0,1,8.509-1.418a5.9,5.9,0,0,1,.422.833,5.376,5.376,0,0,1,.2.577c.04.1.028.169-.035.209S8.914.3,8.73.391s-.464.255-.841.48c-.2.127-.325.15-.361.069s0-.135.118-.2A1.145,1.145,0,0,0,7.879.527,1.4,1.4,0,0,0,8.142.089a1.392,1.392,0,0,0,.1-.539,1.65,1.65,0,0,0-.262-.824,1.468,1.468,0,0,0-.8-.687,1.107,1.107,0,0,0-.916.125,1.221,1.221,0,0,0-.517.6A4.682,4.682,0,0,0,5.471.059l-.04.4a6.261,6.261,0,0,1-.5,2A2.588,2.588,0,0,1,3.891,3.581a2.433,2.433,0,0,1-1.016.342,2.323,2.323,0,0,1-1.253-.238,2.855,2.855,0,0,1-.783-.58,4.083,4.083,0,0,1-.561-.743" transform="translate(0.338 2.871)"/>
        </g>
      </g>
      <g id="Group_4716" data-name="Group 4716" transform="translate(137.34 50.813)">
        <g id="Group_4715" data-name="Group 4715" transform="translate(0 0)">
          <path id="Path_3043" data-name="Path 3043" class="cls-4" d="M1.529,1.419,3.36.565,4.56,0q.423-.2.634-.3c.142-.07.262-.132.362-.186.339-.175.478-.383.418-.626A1.656,1.656,0,0,0,5.841-1.5c-.057-.1-.049-.176.025-.215s.127.043.2.21q.145.317.316.719c.113.268.208.485.283.648.068.142.163.334.288.577s.236.47.335.678c.07.139.076.225.019.257-.078.032-.139-.007-.182-.117a1.993,1.993,0,0,0-.176-.3A.438.438,0,0,0,6.636.749a1.008,1.008,0,0,0-.458.1C6.072.889,5.947.941,5.8,1s-.358.16-.64.291l-1.2.559L2.131,2.71q-.764.354-1.348.635t-.913.47a.828.828,0,0,0-.3.264.462.462,0,0,0-.019.39c.025.081.055.173.093.275s.076.194.112.275c.052.114.049.182,0,.2-.076.025-.141-.025-.2-.149Q-.685,4.549-.875,4.1c-.128-.3-.224-.518-.293-.666s-.16-.327-.289-.582-.249-.494-.353-.715c-.067-.137-.063-.222.007-.257.05-.032.1.01.161.128a1.961,1.961,0,0,0,.217.355.325.325,0,0,0,.264.141,1.124,1.124,0,0,0,.4-.082c.234-.079.548-.207.941-.384s.844-.384,1.353-.622" transform="translate(1.858 1.725)"/>
        </g>
      </g>
      <g id="Group_4718" data-name="Group 4718" transform="translate(140.052 56.079)">
        <g id="Group_4717" data-name="Group 4717" transform="translate(0 0)">
          <path id="Path_3044" data-name="Path 3044" class="cls-4" d="M1.547,2.065,6,.532l-.6-1.6a3.319,3.319,0,0,0-.317-.675.617.617,0,0,0-.361-.27,1.351,1.351,0,0,0-.443-.053c-.093.011-.15-.013-.171-.075s.02-.123.14-.158a3.441,3.441,0,0,1,.4-.077c.2-.031.392-.058.58-.082S5.53-2.5,5.572-2.5c.15-.02.233,0,.252.06a.552.552,0,0,1,0,.184,1.024,1.024,0,0,0,.031.328q.058.249.143.54t.177.565l1.48,4.3a5.55,5.55,0,0,0,.313.731,2.971,2.971,0,0,1,.156.275c.028.065-.038.12-.2.165q-.122.042-.367.117l-.5.154c-.169.052-.3.095-.4.129s-.184.021-.208-.038q-.054-.112.176-.194l.115-.052a.537.537,0,0,0,.3-.425A2.243,2.243,0,0,0,6.9,3.27L6.465,1.89,2.013,3.423Q1.255,3.682.655,3.9c-.4.144-.717.271-.947.378a1.035,1.035,0,0,0-.356.237A.427.427,0,0,0-.732,4.9c.016.084.038.178.064.284s.055.2.082.285c.04.119.031.186-.026.2-.077.016-.138-.04-.18-.17-.124-.366-.234-.7-.33-1.013s-.171-.543-.224-.7c-.049-.139-.125-.342-.227-.609s-.2-.516-.276-.747c-.05-.143-.04-.228.034-.255.054-.027.1.021.147.144A1.869,1.869,0,0,0-1.49,2.7a.33.33,0,0,0,.274.159,1.443,1.443,0,0,0,.431-.049q.363-.083.969-.282t1.363-.461" transform="translate(1.88 2.511)"/>
        </g>
      </g>
      <g id="Group_4720" data-name="Group 4720" transform="translate(142.481 64.455)">
        <g id="Group_4719" data-name="Group 4719" transform="translate(0 0)">
          <path id="Path_3045" data-name="Path 3045" class="cls-4" d="M.971,2.218l.924-.18a2.718,2.718,0,0,0,.683-.211,2.982,2.982,0,0,0,.45-.278c.051-.037.2-.165.445-.385S4,.685,4.33.389s.633-.58.921-.849.5-.471.639-.607A2.838,2.838,0,0,0,6.561-2a1.507,1.507,0,0,0,.056-.262.8.8,0,0,0,0-.24c-.025-.1,0-.165.069-.189s.116.055.143.194c.014.075.035.2.064.378s.06.363.092.559.061.359.086.491.064.287.114.5.1.444.153.7c.022.114,0,.176-.068.189C7.217.327,7.16.252,7.1.09a.207.207,0,0,0-.234-.117,1.06,1.06,0,0,0-.357.209C6.419.247,6.232.4,5.948.644s-.6.515-.95.817l-.946.82-.542.473q.128.029.6.182t1.076.35c.4.132.764.25,1.092.356s.547.173.655.2a1.5,1.5,0,0,0,.616.044.293.293,0,0,0,.158-.079A.312.312,0,0,0,7.79,3.6.866.866,0,0,1,7.8,3.447a.091.091,0,0,1,.061-.079c.073-.017.12.04.14.173.061.378.12.734.172,1.066.018.089.045.213.082.374s.073.318.108.475.062.273.077.351c.029.129.013.2-.051.221s-.129-.058-.154-.193a.958.958,0,0,0-.078-.22,1.261,1.261,0,0,0-.153-.25,1.14,1.14,0,0,0-.263-.259,3.442,3.442,0,0,0-.408-.241q-.215-.113-.773-.332T5.334,4.07c-.448-.162-.859-.3-1.229-.429s-.63-.2-.773-.233a2.125,2.125,0,0,0-.606-.036,4.831,4.831,0,0,0-.555.086l-.924.179c-.1.018-.248.049-.452.092s-.429.1-.669.161a.9.9,0,0,0-.393.194A.472.472,0,0,0-.4,4.473c0,.085.013.182.024.288s.025.2.041.284c.022.123,0,.189-.055.2-.079.01-.132-.061-.159-.215q-.1-.545-.18-1.017C-.785,3.7-.824,3.458-.854,3.3S-.934,2.924-1,2.647s-.119-.529-.164-.752c-.04-.161-.018-.251.064-.271.058-.013.1.041.125.163a1.85,1.85,0,0,0,.123.386A.364.364,0,0,0-.6,2.385,1.093,1.093,0,0,0-.162,2.4c.246-.031.472-.065.679-.1s.359-.065.455-.084" transform="translate(1.181 2.696)"/>
        </g>
      </g>
      <g id="Group_4722" data-name="Group 4722" transform="translate(10.934 82.978)">
        <g id="Group_4721" data-name="Group 4721" transform="translate(0 0)">
          <path id="Path_3046" data-name="Path 3046" class="cls-4" d="M0,1.473C.743-.21,3.535-1.674,4.913-1.79a8.993,8.993,0,0,0,.526,5.668A7.3,7.3,0,0,1,0,1.473m.778-.065,3.419-.3A6.333,6.333,0,0,0,4.733,3.3l-.225-.007c-1.354-.049-3.25-.942-3.73-1.887" transform="translate(0 1.79)"/>
        </g>
      </g>
      <g id="Group_4724" data-name="Group 4724" transform="translate(146.487 83.115)">
        <g id="Group_4723" data-name="Group 4723" transform="translate(0 0)">
          <path id="Path_3047" data-name="Path 3047" class="cls-4" d="M2.44,1.42C1.667-.251-1.159-1.635-2.54-1.727a8.99,8.99,0,0,1-.426,5.678A7.372,7.372,0,0,0,2.44,1.42M1.652,1.4l-3.365-.21a6.664,6.664,0,0,1-.532,2.147l.226-.01C-.864,3.294,1.187,2.353,1.652,1.4" transform="translate(2.966 1.727)"/>
        </g>
      </g>
      <g id="Group_4726" data-name="Group 4726" transform="translate(64.511 53.753)">
        <g id="Group_4725" data-name="Group 4725" transform="translate(0)">
          <path id="Path_3048" data-name="Path 3048" class="cls-4" d="M5.561,0c1.912,0,6.05,1.487,6.05,3.247a1.357,1.357,0,0,1-.951,1.167c-2.387.8-2.8,1.814-4.777,1.814H1.855c-.2,0-1.71.254-1.71,1.151,0,3.216,6.338,2.81,7.113,2.911l10.013.135C22.25,10.28,28.2,13.5,28.186,19.12l.116,1.307c-9.564.423-4.2.168-6.633.144.39-3.2-3.11-4.161-5.145-4.042l-7.38-.283c-3.842-.254-15.9-1.1-15.9-9C-6.76,4.1-2.715,1.49-.176,1.49H1.55C1.888,1.49,5.222,0,5.561,0m-.08,1.139A8.261,8.261,0,0,0,3.644,2.1L5.5,2.3l1.742-.675s-.989-.219-1.758-.488" transform="translate(6.76)"/>
        </g>
      </g>
      <g id="Group_4728" data-name="Group 4728" transform="translate(75.883 95.724)">
        <g id="Group_4727" data-name="Group 4727" transform="translate(0)">
          <path id="Path_3049" data-name="Path 3049" class="cls-4" d="M4.308,0A7.905,7.905,0,0,1,12.4,7.941c0,4.738-3,8.965-9.088,9.91.117-.87.251-3.7.272-4.563,1.757-.02,4.447-3.912,4.447-5.435,0-2.082-2.251-3.668-3.791-3.656-6.231.051-6.325,4.729-7.6,5.541A1.9,1.9,0,0,1-5.237,7.785C-5.237,2.065.7,0,4.308,0" transform="translate(5.237)"/>
        </g>
      </g>
      <g id="Group_4730" data-name="Group 4730" transform="translate(84.447 101.539)">
        <g id="Group_4729" data-name="Group 4729" transform="translate(0 0)">
          <path id="Path_3050" data-name="Path 3050" class="cls-4" d="M0,0H1.373C2.846-.013,3.115,1.844,3.115,2.3,3.115,3.418,1.373,5.525.292,6A33.471,33.471,0,0,0,0,0" transform="translate(0 0)"/>
        </g>
      </g>
      <g id="Group_4732" data-name="Group 4732" transform="translate(13.149 97.918)">
        <g id="Group_4731" data-name="Group 4731" transform="translate(0 0)">
          <path id="Path_3051" data-name="Path 3051" class="cls-3" d="M.179,1.157A4.333,4.333,0,0,1,2.993-1.209,4.317,4.317,0,0,1,6.4-.859a5.013,5.013,0,0,1,2.24,3.106,11.258,11.258,0,0,1,.384,1.624c.075.434.085.816.155,1.156.027.123-.015.185-.081.2-.087.027-.23.036-.62.133-.369.09-.969.289-1.2.334-.168.041-.262.046-.293-.052s.054-.137.207-.185a1.636,1.636,0,0,0,.876-.741,3.425,3.425,0,0,0-.012-2.439A2.989,2.989,0,0,0,6.739.431,3.838,3.838,0,0,0,3.584.3,3.862,3.862,0,0,0,.752,4.974c.3.977.6,1.535,1.238,1.817a1.929,1.929,0,0,0,.84.148c.186-.022.237-.013.264.074s-.046.123-.134.15a10.951,10.951,0,0,1-1.535.212A.407.407,0,0,1,1.02,7.19a6.677,6.677,0,0,1-.867-1.9A5.742,5.742,0,0,1,.179,1.157" transform="translate(0.218 1.407)"/>
        </g>
      </g>
      <g id="Group_4734" data-name="Group 4734" transform="translate(16.9 107.474)">
        <g id="Group_4733" data-name="Group 4733" transform="translate(0 0)">
          <path id="Path_3052" data-name="Path 3052" class="cls-3" d="M2.628,3.406c2.3-1.156,3.058-3.2,2.211-4.88C4.245-2.653,2.913-3.667.358-2.381-1.775-1.307-2.874.725-1.883,2.694c.361.718,1.547,2.2,4.511.712m-3.3-7.042A4.422,4.422,0,0,1,5.481-1.424c1.286,2.555.6,4.892-1.751,6.075a4.541,4.541,0,0,1-6.343-2.13A4.374,4.374,0,0,1-.672-3.636" transform="translate(3.194 4.14)"/>
        </g>
      </g>
      <g id="Group_4736" data-name="Group 4736" transform="translate(21.456 115.753)">
        <g id="Group_4735" data-name="Group 4735" transform="translate(0 0)">
          <path id="Path_3053" data-name="Path 3053" class="cls-3" d="M1.834,2.3C.628,3.138-.022,3.59-.054,3.906c-.03.259.075.55.586,1.285.348.5.614.86,1.033.919A1.447,1.447,0,0,0,2.3,5.96c.091-.05.161-.07.213.005s.006.108-.108.187a9.037,9.037,0,0,1-1.182.613C.978,6.854.9,6.839.557,6.349c-.473-.678-.8-1.181-1.081-1.612s-.5-.783-.773-1.169c-.073-.1-.217-.311-.384-.53-.151-.218-.341-.449-.472-.638-.085-.122-.1-.208-.037-.254.047-.033.1-.015.18.1a1.917,1.917,0,0,0,.274.312c.169.162.409.065.708-.087C-.6,2.242.147,1.723,1.014,1.119L2.672-.036c1.432-1,1.7-1.182,1.984-1.41.307-.243.405-.423.255-.779a1.7,1.7,0,0,0-.188-.331c-.073-.1-.093-.173-.027-.219s.131.007.229.148c.309.443.694,1.057.871,1.312.158.226.665.894.921,1.261.092.132.119.211.053.257s-.124,0-.2-.111a3.036,3.036,0,0,0-.284-.348c-.224-.221-.437-.185-.78.026-.314.191-.578.375-2.01,1.372Z" transform="translate(2.229 2.792)"/>
        </g>
      </g>
      <g id="Group_4738" data-name="Group 4738" transform="translate(26.595 121.932)">
        <g id="Group_4737" data-name="Group 4737" transform="translate(0 0)">
          <path id="Path_3054" data-name="Path 3054" class="cls-3" d="M1.825,2.439C.729,3.419.139,3.948.145,4.265c0,.26.141.537.738,1.2.406.453.713.78,1.136.787a1.432,1.432,0,0,0,.712-.237c.085-.06.152-.089.213-.02s.019.107-.085.2a9.178,9.178,0,0,1-1.1.752c-.234.117-.316.113-.713-.332C.5,6,.115,5.54-.221,5.148s-.594-.716-.908-1.067c-.085-.095-.253-.283-.446-.48-.176-.2-.392-.4-.545-.576-.1-.111-.127-.194-.067-.248.043-.039.1-.028.191.076a1.918,1.918,0,0,0,.31.277c.187.141.414.016.692-.173C-.6,2.679.08,2.074.868,1.37L2.375.022c1.3-1.164,1.541-1.378,1.8-1.64.275-.278.351-.469.159-.8a1.72,1.72,0,0,0-.227-.306c-.085-.094-.113-.16-.053-.214s.131-.01.246.119c.36.4.817.965,1.023,1.2.183.206.768.808,1.066,1.141.108.12.144.2.085.249s-.123.017-.215-.086a3.214,3.214,0,0,0-.324-.31c-.25-.193-.457-.131-.772.12-.289.228-.529.442-1.83,1.606Z" transform="translate(2.218 2.965)"/>
        </g>
      </g>
      <g id="Group_4740" data-name="Group 4740" transform="translate(32.547 127.485)">
        <g id="Group_4739" data-name="Group 4739" transform="translate(0 0)">
          <path id="Path_3055" data-name="Path 3055" class="cls-3" d="M1.9,1.455C3.047.14,3.259-.1,3.483-.4c.239-.309.291-.509.058-.818a2.4,2.4,0,0,0-.314-.32c-.1-.083-.132-.146-.08-.206s.129-.025.259.088c.233.2.477.432.693.62.218.206.409.387.53.493.277.242,2,1.745,2.171,1.879a4.7,4.7,0,0,0,.417.272,1.077,1.077,0,0,1,.168.086c.043.037.022.08-.016.123-.052.061-.187.127-.56.5-.084.079-.433.444-.541.533-.047.035-.109.073-.17.019s-.04-.111.028-.19a1.225,1.225,0,0,0,.22-.356c.075-.209.079-.388-.308-.817C5.906,1.369,5.013.558,4.84.408,4.8.37,4.757.381,4.7.442L2.795,2.631c-.053.061-.075.1-.022.148.19.166,1.185,1.034,1.4,1.19s.375.251.529.233c.12-.016.193-.029.237.007s.045.071,0,.123-.2.161-.621.571c-.159.165-.488.489-.541.55s-.143.165-.221.1a.091.091,0,0,1-.01-.146,2.91,2.91,0,0,0,.237-.342c.108-.21.1-.446-.19-.76-.149-.161-1-.917-1.206-1.1-.043-.037-.082-.01-.127.042l-.6.684C1.405,4.223.7,5.012.492,5.27c-.5.612-.479.864.4,1.633a2.9,2.9,0,0,0,.9.606.972.972,0,0,0,.947-.3c.1-.08.148-.1.209-.047s.009.13-.067.216a8.915,8.915,0,0,1-.95.863c-.257.171-.335.1-.664-.183C.627,7.491.166,7.058-.2,6.725s-.618-.585-.877-.811c-.1-.083-.286-.25-.5-.422-.2-.173-.439-.352-.612-.5-.113-.1-.151-.178-.1-.238.038-.043.095-.039.2.052a1.868,1.868,0,0,0,.342.237c.2.117.412-.036.666-.257.36-.326.956-1.009,1.651-1.805Z" transform="translate(2.31 1.769)"/>
        </g>
      </g>
      <g id="Group_4742" data-name="Group 4742" transform="translate(40.695 134.006)">
        <g id="Group_4741" data-name="Group 4741" transform="translate(0 0)">
          <path id="Path_3056" data-name="Path 3056" class="cls-3" d="M2.592,4.3c-.168.26-.19.274-.35.266A6.5,6.5,0,0,1-.364,3.5c-2.364-1.526-3.736-4-2.017-6.66A4.3,4.3,0,0,1,1.334-5.23a5.575,5.575,0,0,1,3,1.048A13.839,13.839,0,0,1,5.944-2.925a7.5,7.5,0,0,0,.694.6c.11.085.1.135.06.2A15.6,15.6,0,0,0,5.61-.584c-.1.154-.16.184-.237.134s-.055-.1-.016-.188a1.606,1.606,0,0,0,.188-1.013A3.671,3.671,0,0,0,3.879-3.792a3.309,3.309,0,0,0-2.3-.634A3.415,3.415,0,0,0-.831-2.636C-2.17-.56-1.851,1.847.186,3.161a2.568,2.568,0,0,0,.888.423.41.41,0,0,0,.414-.239l.586-.907c.311-.482.547-.849.725-1.145.2-.334.215-.545-.06-.817A2.353,2.353,0,0,0,2.381.2C2.294.147,2.249.09,2.286.033c.049-.078.129-.054.265.034.5.323,1.091.745,1.38.932s.83.494,1.148.7c.126.082.181.144.131.221-.037.058-.108.04-.175,0a1.817,1.817,0,0,0-.28-.14c-.292-.12-.494-.018-.722.314-.2.283-.446.669-.757,1.152Z" transform="translate(3.151 5.231)"/>
        </g>
      </g>
      <g id="Group_4744" data-name="Group 4744" transform="translate(49.268 137.954)">
        <g id="Group_4743" data-name="Group 4743" transform="translate(0 0)">
          <path id="Path_3057" data-name="Path 3057" class="cls-3" d="M1.4,1.564c.729-1.585.864-1.878,1-2.221.143-.364.135-.57-.175-.8a2.428,2.428,0,0,0-.393-.218c-.114-.052-.168-.1-.134-.175s.116-.061.272.011c.282.129.58.28.841.4.266.135.5.257.648.322C3.786-.965,5.862-.01,6.065.071a4.519,4.519,0,0,0,.478.144,1.011,1.011,0,0,1,.186.034c.052.024.043.071.019.123a7.322,7.322,0,0,0-.4.64c-.058.1-.291.548-.369.664-.034.047-.084.1-.156.067s-.07-.1-.027-.19a1.217,1.217,0,0,0,.11-.4c.013-.221-.034-.395-.526-.7C5.216.35,4.13-.174,3.922-.271c-.052-.023-.087,0-.121.071L2.587,2.44c-.034.073-.043.12.02.148.23.106,1.429.657,1.679.747a.806.806,0,0,0,.573.074c.111-.049.177-.083.23-.059s.063.055.034.117-.147.21-.434.722c-.105.2-.329.608-.363.68s-.091.2-.185.156a.091.091,0,0,1-.05-.137,3.127,3.127,0,0,0,.131-.395c.043-.233-.031-.456-.4-.676-.189-.111-1.217-.6-1.467-.713-.052-.024-.082.013-.111.076L1.866,4c-.163.355-.615,1.31-.743,1.618-.31.729-.215.963.849,1.452A2.923,2.923,0,0,0,3.01,7.4c.329,0,.555-.162.825-.556.073-.105.114-.138.187-.1s.045.122,0,.227a9.107,9.107,0,0,1-.669,1.1c-.2.238-.292.194-.688.012-.783-.36-1.347-.645-1.791-.862S.114,6.827-.2,6.682c-.115-.052-.344-.159-.6-.263-.239-.11-.52-.214-.729-.31-.135-.062-.194-.127-.161-.2.024-.052.08-.064.2-.007a1.853,1.853,0,0,0,.4.131c.227.055.385-.15.566-.434C-.269,5.184.111,4.36.553,3.4Z" transform="translate(1.698 1.901)"/>
        </g>
      </g>
      <g id="Group_4746" data-name="Group 4746" transform="translate(62.847 143.193)">
        <g id="Group_4745" data-name="Group 4745" transform="translate(0 0)">
          <path id="Path_3058" data-name="Path 3058" class="cls-3" d="M3.458,2.43c.535-2.516-.583-4.384-2.424-4.775C-.257-2.62-1.881-2.213-2.475.582c-.5,2.336.4,4.462,2.557,4.921.786.168,2.686.172,3.376-3.073M-4.1.6A4.422,4.422,0,0,1,1.474-2.816c2.8.595,4.191,2.593,3.644,5.163A4.538,4.538,0,0,1-.509,5.964,4.372,4.372,0,0,1-4.1.6" transform="translate(4.203 2.953)"/>
        </g>
      </g>
      <g id="Group_4748" data-name="Group 4748" transform="translate(74.188 144.544)">
        <g id="Group_4747" data-name="Group 4747" transform="translate(0 0)">
          <path id="Path_3059" data-name="Path 3059" class="cls-3" d="M1.187,2.481c-.073,1.1-.129,1.959-.1,2.444.012.335.064.592.405.66a4.611,4.611,0,0,0,.57.084c.149.01.192.048.188.1-.005.08-.087.109-.259.1C1.266,5.823.546,5.741.248,5.722S-.773,5.689-1.209,5.66c-.161-.01-.239-.039-.233-.13,0-.057.052-.089.178-.081A1.853,1.853,0,0,0-.849,5.43c.233-.03.307-.279.374-.608.089-.477.146-1.336.218-2.436L-.124.369c.114-1.741.135-2.062.137-2.43,0-.391-.077-.581-.449-.687a2.481,2.481,0,0,0-.445-.064c-.114-.007-.193-.035-.188-.1.006-.092.1-.109.271-.1.3.02.63.054.927.073s.56.06.72.07c.435.029,2.761.182,3.026.188A2.2,2.2,0,0,0,4.347-2.7a.755.755,0,0,1,.188-.057.094.094,0,0,1,.073.109c-.005.08-.072.214-.126.509-.019.114-.087.789-.119.925-.018.09-.045.158-.125.153s-.1-.064-.1-.191a1.123,1.123,0,0,0-.04-.44.828.828,0,0,0-.734-.393L1.6-2.233c-.069,0-.105.028-.114.153L1.3.785c0,.069.005.1.074.108L2.839.979c.194.013.355.023.516.022A.6.6,0,0,0,3.862.827c.062-.065.088-.109.157-.1.046,0,.066.039.061.108s-.081.351-.138.7c-.038.227-.1.753-.1.833-.007.1-.014.218-.129.21-.069,0-.087-.086-.081-.166a1.272,1.272,0,0,0-.046-.36A.678.678,0,0,0,3.028,1.6c-.284-.053-1.5-.132-1.694-.146-.057,0-.082.017-.087.1Z" transform="translate(1.442 3.016)"/>
        </g>
      </g>
      <g id="Group_4750" data-name="Group 4750" transform="translate(86.632 144.233)">
        <g id="Group_4749" data-name="Group 4749" transform="translate(0 0)">
          <path id="Path_3060" data-name="Path 3060" class="cls-3" d="M.7,1.649C.483-.082.442-.4.373-.762.3-1.147.186-1.317-.2-1.35a2.446,2.446,0,0,0-.449.023c-.125.016-.2,0-.206-.077s.066-.114.237-.133c.6-.078,1.325-.135,1.644-.175.467-.061,1.123-.179,1.648-.248a2.8,2.8,0,0,1,2.2.378A2,2,0,0,1,5.618-.3,2.7,2.7,0,0,1,3.169,2.817a1.723,1.723,0,0,1-.241.019c-.059,0-.14-.005-.15-.085s.064-.135.3-.166A1.808,1.808,0,0,0,4.367.51a2.208,2.208,0,0,0-.89-1.623,1.707,1.707,0,0,0-1.2-.3,1.618,1.618,0,0,0-.438.1c-.055.031-.079.1-.064.228l.583,4.556c.134,1.048.249,1.948.369,2.43.075.316.176.557.523.559a4.905,4.905,0,0,0,.587-.029c.125-.016.186.011.194.068.01.079-.076.125-.2.141-.752.1-1.474.153-1.769.191-.262.034-.976.16-1.431.218C.483,7.072.4,7.048.388,6.969c-.007-.057.034-.1.171-.115a1.877,1.877,0,0,0,.4-.1c.222-.075.247-.333.251-.669C1.209,5.6,1.095,4.7.96,3.654Z" transform="translate(0.856 2.005)"/>
        </g>
      </g>
      <g id="Group_4752" data-name="Group 4752" transform="translate(94.244 141.199)">
        <g id="Group_4751" data-name="Group 4751" transform="translate(0 0)">
          <path id="Path_3061" data-name="Path 3061" class="cls-3" d="M3.5,1.877a.07.07,0,0,0,.044-.1l-.067-.232C3-.129,2.911-.438,2.788-.785c-.129-.369-.268-.52-.654-.494a2.413,2.413,0,0,0-.44.09c-.121.034-.194.032-.216-.046s.049-.122.2-.164c.6-.171,1.3-.336,1.6-.421.265-.076.95-.308,1.381-.432.154-.044.238-.044.26.033s-.038.119-.171.156a2.044,2.044,0,0,0-.311.125c-.282.141-.316.353-.228.746.079.359.167.669.647,2.346L5.413,3.1c.291,1.016.541,1.888.731,2.347.12.3.257.523.6.473A4.768,4.768,0,0,0,7.32,5.8c.121-.034.186-.017.2.038.022.078-.056.136-.189.173-.718.206-1.422.371-1.731.459-.254.073-.94.3-1.371.428-.155.044-.242.033-.263-.044-.016-.055.019-.1.151-.139A1.859,1.859,0,0,0,4.5,6.558c.209-.107.194-.366.147-.7-.077-.48-.327-1.352-.616-2.368l-.278-.971a.066.066,0,0,0-.085-.048L-.545,3.679a.06.06,0,0,0-.048.085l.278.971c.289,1.015.539,1.888.73,2.346.121.3.257.524.6.473a4.81,4.81,0,0,0,.575-.117c.122-.034.186-.017.2.038.022.077-.057.135-.189.173-.717.206-1.422.371-1.732.459-.254.073-.939.3-1.381.431-.144.041-.23.03-.253-.048-.016-.055.019-.1.152-.138A1.891,1.891,0,0,0-1.225,8.2c.208-.108.194-.367.147-.7-.078-.479-.327-1.351-.617-2.367L-2.25,3.186C-2.73,1.508-2.819,1.2-2.941.852-3.071.483-3.21.332-3.6.359a2.3,2.3,0,0,0-.44.09C-4.157.483-4.23.479-4.252.4s.049-.122.2-.165c.6-.17,1.3-.335,1.6-.421.265-.075.951-.307,1.382-.431.154-.045.238-.045.259.032s-.038.118-.17.156A2.162,2.162,0,0,0-1.289-.3c-.282.141-.317.354-.228.746.079.36.166.669.646,2.347l.067.232a.07.07,0,0,0,.087.059Z" transform="translate(4.256 2.282)"/>
        </g>
      </g>
      <g id="Group_4754" data-name="Group 4754" transform="translate(108.386 138.409)">
        <g id="Group_4753" data-name="Group 4753" transform="translate(0 0)">
          <path id="Path_3062" data-name="Path 3062" class="cls-3" d="M1.528,2.039c.052-.025.047-.061.022-.087L-.616-.156c-.03-.036-.065-.082-.1-.068S-.739-.147-.73-.1l.28,3c.01.046.034.072.076.052ZM-.331,3.575c-.051.025-.062.056-.052.129l.157,1.748a2.211,2.211,0,0,0,.15.706c.09.186.248.276.569.121L.646,6.2c.124-.061.166-.054.2.008.04.082-.012.133-.126.188-.331.161-.79.344-1.111.5-.114.055-.667.36-1.205.621-.134.064-.206.074-.246-.009-.03-.062,0-.1.084-.142s.233-.126.311-.176c.446-.292.472-.738.429-1.355l-.545-7.748c-.022-.36-.015-.5.089-.553s.2.019.418.206c.523.449,4.218,3.867,5.64,5.118.843.74,1.212.74,1.455.687a2.561,2.561,0,0,0,.455-.168c.083-.04.139-.055.174.017s-.043.149-.426.334-1.127.545-1.964.924c-.191.081-.315.14-.351.067s0-.1.1-.163A.186.186,0,0,0,4,4.275L2.113,2.483a.11.11,0,0,0-.138-.022Z" transform="translate(1.857 2.478)"/>
        </g>
      </g>
      <g id="Group_4756" data-name="Group 4756" transform="translate(114.167 133.182)">
        <g id="Group_4755" data-name="Group 4755" transform="translate(0 0)">
          <path id="Path_3063" data-name="Path 3063" class="cls-3" d="M2,2.171c.072.1.117.129.2.112a2.993,2.993,0,0,0,.785-.4c.379-.26.476-.383.562-.623a2.025,2.025,0,0,0-.415-1.8,1.838,1.838,0,0,0-2.639-.74A2.581,2.581,0,0,0,.019-.9c-.053.065-.046.116.005.191ZM.369,2.189C-.619.749-.8.484-1.028.193c-.24-.309-.42-.408-.777-.26a2.373,2.373,0,0,0-.39.225c-.1.071-.174.091-.22.025s.008-.13.15-.233c.5-.345,1.119-.726,1.317-.862C-.625-1.133.076-1.655.37-1.852a3.666,3.666,0,0,1,2.023-.787,1.985,1.985,0,0,1,1.534.856,3.219,3.219,0,0,1,.2,2.981c1.571.483,2.8.878,3.766,1.081A2.28,2.28,0,0,0,9.4,2.2a1.843,1.843,0,0,0,.285-.153c.076-.052.134-.049.165,0,.052.076,0,.141-.114.218l-.9.617A2.333,2.333,0,0,1,7.7,3.391a5.544,5.544,0,0,1-2.253-.5c-.737-.262-1.614-.606-1.834-.665a.241.241,0,0,0-.216.051l-.838.547a.079.079,0,0,0-.024.127l.091.133c.6.881,1.117,1.63,1.437,2,.218.256.417.425.727.268a5.278,5.278,0,0,0,.491-.28c.076-.052.133-.049.165,0,.046.065,0,.139-.124.224-.55.378-1.27.829-1.412.927-.181.123-.758.562-1.137.822-.123.085-.209.1-.254.035-.032-.048-.014-.1.1-.18a1.89,1.89,0,0,0,.315-.272c.164-.167.068-.408-.083-.709-.225-.43-.739-1.179-1.336-2.051Z" transform="translate(2.431 2.639)"/>
        </g>
      </g>
      <g id="Group_4758" data-name="Group 4758" transform="translate(123.53 123.72)">
        <g id="Group_4757" data-name="Group 4757" transform="translate(0 0)">
          <path id="Path_3064" data-name="Path 3064" class="cls-3" d="M.049,2.357C-.064,2.2-.09,2.073-.025,2.009s.154-.073.471.031l6.8,2.346L4.8-2.454c-.065-.2-.09-.3-.017-.374s.2-.041.4.1l5.769,4.266c.586.437.9.59,1.219.42a2.31,2.31,0,0,0,.584-.424c.073-.073.138-.123.186-.074.066.065-.007.187-.12.3-.2.2-1.345,1.3-1.694,1.6-.2.171-.276.2-.324.147s-.033-.1,0-.178-.049-.2-.31-.39L6.426-.127l-.032.033,1.93,5.452c.2.568.23.682.156.755s-.317-.008-.69-.121c-.569-.176-2.454-.773-2.78-.9-.244-.1-1.757-.628-2.65-.951l-.032.033L5.146,7.819a4.7,4.7,0,0,0,.358.405.374.374,0,0,0,.5.015,2.2,2.2,0,0,0,.381-.3c.064-.065.138-.106.178-.065.073.073.016.162-.1.283-.34.343-.729.684-.875.831s-.518.571-.778.831c-.08.081-.161.13-.234.057-.042-.04-.009-.105.073-.186a1.505,1.505,0,0,0,.218-.269c.179-.276-.074-.657-.31-.974Z" transform="translate(0.06 2.865)"/>
        </g>
      </g>
      <g id="Group_4760" data-name="Group 4760" transform="translate(133.23 117.329)">
        <g id="Group_4759" data-name="Group 4759" transform="translate(0 0)">
          <path id="Path_3065" data-name="Path 3065" class="cls-3" d="M2.2,1.122c.033-.047.011-.077-.024-.086L-.751.281C-.795.264-.849.242-.868.27s.015.08.046.117L.912,2.858c.031.035.066.046.092.007ZM1.347,3.38c-.031.047-.026.079.018.137l1,1.441a2.3,2.3,0,0,0,.481.539c.171.116.353.115.553-.178l.1-.142c.079-.114.116-.129.173-.09.076.052.056.122-.016.225-.208.3-.516.692-.717.986-.072.1-.4.645-.738,1.138-.085.123-.143.168-.218.114-.057-.039-.05-.09,0-.165a3.484,3.484,0,0,0,.183-.307c.242-.475.043-.876-.3-1.39L-2.451-.772c-.2-.3-.262-.431-.2-.524s.183-.084.466-.03C-1.505-1.195,3.4-.061,5.256.32c1.1.224,1.421.041,1.6-.126a2.52,2.52,0,0,0,.31-.372c.052-.076.094-.117.161-.072s.036.15-.2.5S6.419,1.285,5.88,2.031c-.126.164-.2.277-.271.232s-.049-.09.006-.191a.187.187,0,0,0-.159-.235L2.928,1.217a.112.112,0,0,0-.132.05Z" transform="translate(2.673 1.364)"/>
        </g>
      </g>
      <g id="Group_4762" data-name="Group 4762" transform="translate(137.596 106.391)">
        <g id="Group_4761" data-name="Group 4761" transform="translate(0 0)">
          <path id="Path_3066" data-name="Path 3066" class="cls-3" d="M2.736,4.11A4.335,4.335,0,0,1-.931,3.882a4.318,4.318,0,0,1-2.221-2.6,5,5,0,0,1,.519-3.79,11.569,11.569,0,0,1,.842-1.44c.245-.365.5-.648.684-.942.067-.108.138-.124.2-.093.082.04.191.132.54.331.329.189.9.459,1.1.582.149.086.221.147.175.241s-.133.062-.277-.01A1.639,1.639,0,0,0-.517-3.906,3.423,3.423,0,0,0-2.189-2.133,2.992,2.992,0,0,0-2.509.115,3.835,3.835,0,0,0-.315,2.381,3.858,3.858,0,0,0,4.952.955a2.492,2.492,0,0,0,.357-2.167A1.913,1.913,0,0,0,4.8-1.9c-.15-.111-.18-.153-.14-.235s.118-.058.2-.016a10.9,10.9,0,0,1,1.256.9.4.4,0,0,1,.166.414A6.656,6.656,0,0,1,5.6,1.138,5.744,5.744,0,0,1,2.736,4.11" transform="translate(3.326 4.996)"/>
        </g>
      </g>
      <g id="Group_4764" data-name="Group 4764" transform="translate(140.285 96.708)">
        <g id="Group_4763" data-name="Group 4763" transform="translate(0 0)">
          <path id="Path_3067" data-name="Path 3067" class="cls-3" d="M2.945,2.984a2.443,2.443,0,0,0-1.229-.112c-.2.022-3.071.726-3.762.929a2.8,2.8,0,0,0-1.038.5,1.15,1.15,0,0,0-.288.415c-.028.087-.075.157-.151.132s-.074-.108-.032-.239c.062-.2.354-1.008.47-1.369.073-.23.182-.69.337-1.181.034-.11.085-.155.151-.134s.052.1.043.28a.208.208,0,0,0,.149.215,1.055,1.055,0,0,0,.414-.013c.376-.049,3.5-.747,3.862-.825C1.642,1.393-.329-.75-.619-1.01a1.5,1.5,0,0,0-.52-.333.275.275,0,0,0-.347.143c-.052.092-.106.183-.171.162s-.082-.085-.04-.219c.114-.361.257-.7.358-1.019.076-.242.272-.974.337-1.179.038-.12.085-.19.15-.169s.082.123.043.242a1.254,1.254,0,0,0-.021.523A1.713,1.713,0,0,0-.48-2.1,36.492,36.492,0,0,0,2.339,1.1a2.755,2.755,0,0,0,1.042.511l.9.283c.176.055.635.2,1.105.313.325.079.6.057.745-.258a4.942,4.942,0,0,0,.216-.533c.038-.12.089-.165.144-.147.076.024.082.123.036.262-.218.69-.469,1.369-.562,1.665-.086.274-.271.974-.4,1.381-.049.153-.1.233-.185.206-.055-.018-.07-.082-.032-.2a1.8,1.8,0,0,0,.077-.4c.025-.232-.184-.407-.494-.529-.449-.179-.909-.324-1.084-.378Z" transform="translate(3.58 3.627)"/>
        </g>
      </g>
      <g id="Group_4766" data-name="Group 4766" transform="translate(2.541 2.542)">
        <g id="Group_4765" data-name="Group 4765" transform="translate(0 0)">
          <path id="Path_3068" data-name="Path 3068" class="cls-3" d="M35.853.972a77.281,77.281,0,1,0,77.28,77.281A77.368,77.368,0,0,0,35.853.972m0,156.715a79.434,79.434,0,1,1,79.434-79.434,79.524,79.524,0,0,1-79.434,79.434" transform="translate(43.581 1.181)"/>
        </g>
      </g>
      <g id="Group_4768" data-name="Group 4768" transform="translate(0 -0.001)">
        <g id="Group_4767" data-name="Group 4767" transform="translate(0 0)">
          <path id="Path_3069" data-name="Path 3069" class="cls-3" d="M37,.468a80.94,80.94,0,1,0,80.939,80.94A81.031,81.031,0,0,0,37,.468m0,162.916a81.977,81.977,0,1,1,81.976-81.977A82.069,82.069,0,0,1,37,163.385" transform="translate(44.975 0.569)"/>
        </g>
      </g>
      <g id="Group_4770" data-name="Group 4770" transform="translate(111.469 126.726)">
        <g id="Group_4769" data-name="Group 4769" transform="translate(0 0)">
          <path id="Path_3070" data-name="Path 3070" class="cls-3" d="M0,.023,0,.018.013-.011C.02-.034.021-.043,0,.023" transform="translate(0 0.028)"/>
        </g>
      </g>
      <g id="Group_4772" data-name="Group 4772" transform="translate(24.045 25.79)">
        <g id="Group_4771" data-name="Group 4771" transform="translate(0 0)">
          <path id="Path_3071" data-name="Path 3071" class="cls-3" d="M50.555,27.248l-24.5-4.2c.1,2.731.211,5.709.341,7.139l.007.087v.087l-.29,36.728,0,.254a2.574,2.574,0,0,1-.1.417q-.012.036-.027.072a.256.256,0,0,1-.009.025v0l-.006.014a.058.058,0,0,0,0-.008c-.008.017-.016.035-.025.052-.016.033-.035.063-.052.094l-.273.285a2.022,2.022,0,0,1-1.509.615,4.015,4.015,0,0,1-.581-.052l-.115-.019c-.638,0-1.081-.258-2.546-1.114a31.608,31.608,0,0,0-2.78-1.508C12.9,63.9,2.448,61.78-3.811,61.78c-.491.01-6.5.357-8.128.53-1.5.162-3.15.5-4.748.823l-.939.189a12.326,12.326,0,0,0-1.345.374c-.363.115-.74.234-1.082.321a88.332,88.332,0,0,0-9.442,3.741c-2.887,1.265-3.169,1.383-3.7,1.383a2.587,2.587,0,0,1-1.9-.8,3.159,3.159,0,0,1-.267-.476l-.038-.1c-.014-.039-.027-.079-.04-.118a3.049,3.049,0,0,1-.079-.3c-.01-.048-.018-.1-.026-.144,0-.007,0-.007,0-.012l-.009-.089c-.01-.105-.016-.212-.025-.317q-.019-.225-.06-.448c-.01-3.816-.042-21.876.2-34.478.054-2.739-.109-8.1-.075-8.68L-59.576,27.3c-.072-1.151-.109-2.321-.109-3.48A55.159,55.159,0,0,1-58.739,13.7l23.34,7.1c0-.14.01-.28.015-.418.059-1.648.115-3.206.242-4.139.024-.168.06-.464.108-.851L-58.7,13.461A54.742,54.742,0,0,1-54.495.492l19.834,12.071a46.379,46.379,0,0,1,.945-5.14L-54.4.272a55.33,55.33,0,0,1,7.312-11.51L-32.355,3.868A39.235,39.235,0,0,1-30.168-.341L-46.926-11.423a55.669,55.669,0,0,1,9.942-9.325L-27.5-4.231a41.36,41.36,0,0,1,2.841-3.247L-36.785-20.89a55.152,55.152,0,0,1,11.941-6.566L-20.4-11.417c.2-.171.4-.343.609-.514.23-.188,1.169-.843,2.478-1.727l-7.3-13.887a54.663,54.663,0,0,1,13.2-3.362l.248,13.213c.953-.6,1.883-1.185,2.736-1.7l-2.735-11.547a55.531,55.531,0,0,1,6.654-.415A55.387,55.387,0,0,1,2.44-30.9L-.235-19.6q1.329.669,2.694,1.465L2.7-30.868a54.707,54.707,0,0,1,13.148,3.423L8.726-13.9q1.492,1.14,2.983,2.4L16.1-27.346a55.144,55.144,0,0,1,11.852,6.59L16.029-7.577c.212.206.426.41.636.618l.085.085.073.095c.682.889,1.307,1.765,1.906,2.635l9.449-16.449a55.665,55.665,0,0,1,9.835,9.3L21.207-.179A37.021,37.021,0,0,1,23.315,4.2L38.2-11.064A55.288,55.288,0,0,1,45.413.364L24.427,7.621c.031.127.075.258.1.385.4,1.773.658,3.333.859,4.893L45.538.638a54.7,54.7,0,0,1,4.139,12.847L25.682,15.448a11.625,11.625,0,0,1,.234,2.923,2.215,2.215,0,0,1-.031.266c.031.681.064,1.5.1,2.38l23.75-7.226a55.209,55.209,0,0,1,.93,10.029c0,1.142-.037,2.294-.107,3.428M-4.512-33.121A57,57,0,0,0-61.452,23.82c0,1.226.04,2.465.117,3.68A57.026,57.026,0,0,0-4.512,80.76,57.026,57.026,0,0,0,52.311,27.5c.078-1.216.117-2.454.117-3.681A57,57,0,0,0-4.512-33.121" transform="translate(61.452 33.121)"/>
        </g>
      </g>
      <g id="Group_4774" data-name="Group 4774" transform="translate(83.335 79.594)">
        <g id="Group_4773" data-name="Group 4773" transform="translate(0 0)">
          <path id="Path_3072" data-name="Path 3072" class="cls-3" d="M.452.972C.452,2.382,1.269,3,2.16,3a1.792,1.792,0,0,0,.94-.26.6.6,0,0,0,.224-.285,3.408,3.408,0,0,0,.074-.73c0-1.373-.657-2.45-1.621-2.45C.985-.724.452-.03.452.972M-.166,6.664a5.906,5.906,0,0,0,3.353-3.5c.012-.025-.025-.062-.05-.037a3.9,3.9,0,0,1-1.781.618A2.1,2.1,0,0,1-.55,1.479,2.647,2.647,0,0,1,.6-.712a2.834,2.834,0,0,1,1.522-.47C3.632-1.181,4.5.155,4.5,1.752,4.5,4.239,2.519,6.193-.006,7c-.062-.013-.173-.273-.16-.335" transform="translate(0.55 1.181)"/>
        </g>
      </g>
      <g id="Group_4776" data-name="Group 4776" transform="translate(90.429 79.609)">
        <g id="Group_4775" data-name="Group 4775" transform="translate(0 0)">
          <path id="Path_3073" data-name="Path 3073" class="cls-3" d="M1.569,3.414c-.334,0-.866-.037-1.658-.037-.816,0-1.46.037-1.781.037a.447.447,0,0,1,0-.359c.284-.025.544-.049.755-.086.383-.074.458-.273.458-.681.025-.57.037-1.609.037-2.673,0-1.176-.024-2.215-.037-2.451-.025-.173-.075-.346-.334-.371-.148-.013-.458-.037-.718-.037a.471.471,0,0,1,.025-.322A6.457,6.457,0,0,0,.283-4.147c.049-.012.148.012.161.049a25.572,25.572,0,0,0-.062,2.97c0,.655.013,2.895.037,3.365.025.421.1.643.421.717.223.05.421.063.78.111a.573.573,0,0,1-.05.347" transform="translate(1.908 4.15)"/>
        </g>
      </g>
      <g id="Group_4778" data-name="Group 4778" transform="translate(51.641 39.005)">
        <g id="Group_4777" data-name="Group 4777" transform="translate(0 0)">
          <path id="Path_3074" data-name="Path 3074" class="cls-4" d="M7.506,21.565c.285-.025.544-.049.755-.086.384-.075.458-.273.458-.681.025-.569.037-1.609.037-2.672,0-1.176-.024-2.216-.037-2.451-.025-.173-.074-.346-.334-.372-.149-.012-.458-.037-.718-.037a.471.471,0,0,1,.025-.322,6.467,6.467,0,0,0,1.967-.582c.05-.012.149.012.161.049a25.709,25.709,0,0,0-.061,2.97c0,.655.012,2.895.037,3.365.024.421.1.643.42.717.223.05.42.062.779.111a.567.567,0,0,1-.049.347c-.334,0-.866-.037-1.658-.037-.817,0-1.461.037-1.782.037a.453.453,0,0,1,0-.359m6.564-6.719a2.829,2.829,0,0,1,1.522-.47c1.51,0,2.376,1.336,2.376,2.933,0,2.487-1.979,4.442-4.5,5.247-.062-.013-.173-.272-.161-.334a5.9,5.9,0,0,0,3.353-3.5c.013-.025-.025-.062-.049-.037a3.9,3.9,0,0,1-1.782.618,2.1,2.1,0,0,1-1.905-2.264,2.647,2.647,0,0,1,1.151-2.19m34.68-4.521c-.092.022-.2.124-.612.8A61.677,61.677,0,0,1,37.82,23.5c-3.636,2.475-9.609,5.045-13.476,5.384v.637c6.089.087,9.728,3.862,9.728,8.685,0,5.348-3.341,10.051-10.536,11.265a8.8,8.8,0,0,1,3.346,2.867l-.224.217a34.527,34.527,0,0,0-3.619-.539c-.338,0-1.184,0-2.78-.111l-.029-13.425c-1.458.956-1.95,2.712-2.94,3.58-1.686.274-4.07-1.751-3.8-5,.288-3.406,1.606-4.685,1.6-5.7V30.109a67.615,67.615,0,0,1-6.38-2.4A17.343,17.343,0,0,0,7,34.682a12.632,12.632,0,0,0,.135,3.462c.406,2.725.973,5.644,4.492,8.623a55,55,0,0,0,5.658,2.674A16.179,16.179,0,0,0,13.9,52.248,81.272,81.272,0,0,0,3.758,54.2C.136,55.584-3.507,56.3-7.478,58.434c0,0-.25-14.457,0-23.7.222-8.2.266-23.28.6-24.021,2.732,5.531,9.976,13.145,15.7,15.515,2.641,1.083,5.28,1.852,7.949,2.774,0,0,.115,3.171.158,3.369a9.445,9.445,0,0,1,3.361-2.056V9.347H30.676V8.888c-.242-2.8-4.049-2.231-5.5-2.316-1.219-.085-4.684-.405-5.093-.314V9.351l-7.609.174L2.034,9.27l-8.708.085L-6.631,7.9c.009-12.76,14.444-26.644,26.787-31.4l-.074,11.988a5.41,5.41,0,0,1,2.789,2.322c1.8-.23,3.513.4,5.247.5a5.929,5.929,0,0,1-2.573.51c.857.35,1.661.617,2.438.946a20.806,20.806,0,0,1-4.628-.951c-.2,1.3-1.413,2.264-3.212,2.691v3.48h8.023A17.712,17.712,0,0,1,36.268.22a13.037,13.037,0,0,1,4.054,8.886h8.355a54.373,54.373,0,0,0-1.118-7.27c-1.1-4.722-3.954-9.628-7.386-14.1C34.385-18,27.971-22.767,22.03-25.391c-.524-.22-.627-.4-1.561-.822-1.386.334-13.027,7.973-14.4,9.09A44.637,44.637,0,0,0-2.674-7.916,38.011,38.011,0,0,0-7.035.58C-7.844,2.8-8.49,8.87-8.642,9.936c-.236,1.744-.215,12.543-.271,15.393-.264,13.561-.208,33.209-.2,35.023a.8.8,0,0,0,.029.085c-.018-.04.007.013.012.021a.456.456,0,0,0,.031.052s.04.054.013.022c.013.016.028.031.043.046a.513.513,0,0,0,.048.043c-.028-.022.027.017.029.019.026.016.034.046.052.07a.811.811,0,0,0,.418.105c.474,0,8.784-4.013,12.676-5.063.8-.2,1.739-.574,2.568-.727,1.861-.372,3.937-.828,5.817-1.031,1.742-.186,7.963-.541,8.3-.541,6.567,0,17.192,2.158,22.641,4.595,1.552.683,3.844,2.187,4.473,2.431a.4.4,0,0,0,.259.092c.008,0,.013,0,.021,0s.032.014.049.02l.028.01a1.011,1.011,0,0,0,.171.027.449.449,0,0,0,.176-.013.468.468,0,0,0,.288-.224,0,0,0,0,0,0,0h0s0,0,0,0v0l.013-.022c.007-.013.025-.067.009-.014.01-.033.02-.064.028-.1l.009-.052c-.01.057,0-.009,0-.021,0-.046.007-.091.011-.137l.286-36.249c-.271-2.982-.449-12.048-.639-13.462" transform="translate(9.124 26.213)"/>
        </g>
      </g>
      <g id="Group_4780" data-name="Group 4780" transform="translate(74.687 80.052)">
        <g id="Group_4779" data-name="Group 4779" transform="translate(0 0)">
          <path id="Path_3075" data-name="Path 3075" class="cls-4" d="M.771,1.681a1.8,1.8,0,0,0,.94-.26.6.6,0,0,0,.223-.285,3.361,3.361,0,0,0,.074-.73c0-1.373-.656-2.45-1.621-2.45-.792,0-1.324.692-1.324,1.7,0,1.41.816,2.03,1.707,2.03" transform="translate(0.937 2.044)"/>
        </g>
      </g>
    </g>
  </g>
</svg>
