<svg xmlns="http://www.w3.org/2000/svg" xmlns:xlink="http://www.w3.org/1999/xlink" width="164" height="164" viewBox="0 0 164 164">
  <defs>
    <style>
      .cls-1 {
        fill: none;
      }

      .cls-2 {
        clip-path: url(#clip-path);
      }

      .cls-3, .cls-4 {
        fill: #2b2e34;
      }

      .cls-4 {
        fill-rule: evenodd;
      }
    </style>
    <clipPath id="clip-path">
      <path id="Path_3218" data-name="Path 3218" class="cls-1" d="M0,74.049H164v-164H0Z" transform="translate(0 89.951)"/>
    </clipPath>
  </defs>
  <g id="Group_5066" data-name="Group 5066" transform="translate(0 89.951)">
    <g id="Group_5065" data-name="Group 5065" class="cls-2" transform="translate(0 -89.951)">
      <g id="Group_4990" data-name="Group 4990" transform="translate(41.891 105.518)">
        <g id="Group_4989" data-name="Group 4989" transform="translate(0 0)">
          <path id="Path_3180" data-name="Path 3180" class="cls-3" d="M0,5.262,36.774-6.392V-3.6s-3.5,1.743-3.705,3.42c-.263,2.034.759,3.217,2.595,4.679,1.307,1.049,2,1.625,2,2.094V8.843s-3.354.577-2.885,3.149c.315,1.74,1.776,1.983,2.9,3.259.379.423,1.046,1.722-.322,2.077a2.551,2.551,0,0,0-1.752,1.265,3.021,3.021,0,0,0,2.664,1.423,1.936,1.936,0,0,0,1.515,2.192c1.671.594,2.465-.4,2.481-1.372a4.035,4.035,0,0,1,.465-2.293c.474-.674,1.951-1.687,1.978-3.129.037-1.606-2.389-2.01-2.3-3.422.065-1.119,2.325-1.539,2.979-2.289a3.669,3.669,0,0,0-.052-3.992,29.376,29.376,0,0,0-2.884-2.838V.123s1.539-1.163,2.838-2.094a3.27,3.27,0,0,0,1.281-3.444c2.183.651,33.754,10.677,33.754,10.677s-15.1,18.4-40.207,18.4C14.621,23.658,0,5.262,0,5.262" transform="translate(0 6.392)"/>
        </g>
      </g>
      <g id="Group_4992" data-name="Group 4992" transform="translate(2.593 2.601)">
        <g id="Group_4991" data-name="Group 4991" transform="translate(0 0)">
          <path id="Path_3181" data-name="Path 3181" class="cls-3" d="M35.854.783A77.667,77.667,0,1,0,113.525,78.45,77.757,77.757,0,0,0,35.854.783m0,157.069a79.4,79.4,0,1,1,79.406-79.4,79.5,79.5,0,0,1-79.406,79.4" transform="translate(43.553 0.952)"/>
        </g>
      </g>
      <g id="Group_4994" data-name="Group 4994" transform="translate(0 0)">
        <g id="Group_4993" data-name="Group 4993" transform="translate(0 0)">
          <path id="Path_3182" data-name="Path 3182" class="cls-3" d="M37.025.392a81.135,81.135,0,1,0,81.132,81.136A81.227,81.227,0,0,0,37.025.392m0,163.138a82,82,0,1,1,82-82,82.094,82.094,0,0,1-82,82" transform="translate(44.976 0.476)"/>
        </g>
      </g>
      <g id="Group_4996" data-name="Group 4996" transform="translate(61.077 91.752)">
        <g id="Group_4995" data-name="Group 4995" transform="translate(0 0)">
          <path id="Path_3183" data-name="Path 3183" class="cls-3" d="M.124.156a1.084,1.084,0,0,0,.037-.3A.724.724,0,0,0-.151-.189Z" transform="translate(0.151 0.189)"/>
        </g>
      </g>
      <g id="Group_4998" data-name="Group 4998" transform="translate(66.402 92.26)">
        <g id="Group_4997" data-name="Group 4997">
          <path id="Path_3184" data-name="Path 3184" class="cls-3" d="M0,0C.017.034.034.066.052.1.056.068.06.029.064.006.038,0,.025,0,0,0"/>
        </g>
      </g>
      <g id="Group_5000" data-name="Group 5000" transform="translate(115.162 94.362)">
        <g id="Group_4999" data-name="Group 4999" transform="translate(0 0)">
          <path id="Path_3185" data-name="Path 3185" class="cls-3" d="M.139,0A.738.738,0,0,0-.168.043a1.226,1.226,0,0,0,.032.3Z" transform="translate(0.168)"/>
        </g>
      </g>
      <g id="Group_5002" data-name="Group 5002" transform="translate(102.744 91.628)">
        <g id="Group_5001" data-name="Group 5001" transform="translate(0)">
          <path id="Path_3186" data-name="Path 3186" class="cls-3" d="M.138,0A.678.678,0,0,0-.168.048a1.006,1.006,0,0,0,.04.3Z" transform="translate(0.168)"/>
        </g>
      </g>
      <g id="Group_5004" data-name="Group 5004" transform="translate(110.096 96.666)">
        <g id="Group_5003" data-name="Group 5003" transform="translate(0)">
          <path id="Path_3187" data-name="Path 3187" class="cls-3" d="M.025,0-.006.033C-.054.162-.024.194.025,0" transform="translate(0.031)"/>
        </g>
      </g>
      <g id="Group_5006" data-name="Group 5006" transform="translate(9.322 56.983)">
        <g id="Group_5005" data-name="Group 5005" transform="translate(0 0)">
          <path id="Path_3188" data-name="Path 3188" class="cls-3" d="M5.191,7.395-5.922,2.535c-.287-.141-.412-.282-.379-.423a.257.257,0,0,1,.162-.183,1.835,1.835,0,0,1,.516-.153L5.695-.387-3.152-7.943c-.255-.186-.361-.355-.323-.5.04-.162.258-.215.638-.174L8.574-7.289a5.173,5.173,0,0,0,1.337.04.915.915,0,0,0,.694-.432,3.734,3.734,0,0,0,.471-1.054c.032-.177.1-.257.2-.247.073.022.108.078.116.175a1.035,1.035,0,0,1-.04.334c-.049.17-.141.492-.278.969s-.287.969-.441,1.475-.269.879-.355,1.137a1.935,1.935,0,0,1-.18.388c-.049.067-.1.088-.153.072-.082-.024-.129-.109-.143-.247.008-.124-.242-.221-.742-.293L.956-6l-.019.064L7.963.105a8.44,8.44,0,0,1,.694.638c.113.126.153.215.126.287s-.129.141-.315.194-.435.121-.742.189c-.242.056-.586.129-1.03.226l-1.4.307c-.49.1-.934.194-1.33.275s-.67.129-.818.153-.493.08-1,.17-1.083.2-1.711.306-1.208.227-1.73.312l-.016.076L5.509,6.055a7.618,7.618,0,0,0,.828.28.512.512,0,0,0,.42-.057.784.784,0,0,0,.291-.328,3.53,3.53,0,0,0,.285-.718c.04-.161.106-.242.194-.237.143.043.17.2.085.48-.109.384-.215.747-.319,1.086s-.189.593-.235.762c-.048.186-.112.457-.186.8s-.153.673-.236.971c-.033.2-.126.291-.275.272-.089-.028-.1-.134-.053-.315a2.291,2.291,0,0,0,.056-.222A2.991,2.991,0,0,0,6.4,8.5a.817.817,0,0,0-.376-.654,4.109,4.109,0,0,0-.834-.45" transform="translate(6.306 8.983)"/>
        </g>
      </g>
      <g id="Group_5008" data-name="Group 5008" transform="translate(18.442 40.877)">
        <g id="Group_5007" data-name="Group 5007" transform="translate(0 0)">
          <path id="Path_3189" data-name="Path 3189" class="cls-3" d="M3.634,3.491.893,1.776C.11,1.292-.488.916-.912.654s-.742-.46-.961-.59-.4-.234-.56-.323c-.533-.3-.934-.307-1.208-.016A2.648,2.648,0,0,0-4.055.25c-.089.17-.194.218-.312.153-.089-.056-.052-.207.11-.452.2-.314.431-.667.686-1.05s.471-.7.63-.954q.193-.314.519-.883c.218-.38.429-.731.622-1.046.126-.213.234-.294.331-.245.109.076.109.189,0,.342a3.245,3.245,0,0,0-.247.5.721.721,0,0,0,0,.6,1.542,1.542,0,0,0,.536.533c.145.1.328.231.537.368s.525.337.948.606S1.321-.643,2.1-.158L4.84,1.558c.764.477,1.437.9,2.031,1.255s1.068.634,1.423.819a1.344,1.344,0,0,0,.614.17.777.777,0,0,0,.545-.314c.085-.106.18-.227.283-.368s.2-.269.274-.391c.108-.166.2-.225.278-.174.1.081.094.218-.025.4-.331.525-.64,1-.928,1.434s-.5.746-.641.972c-.126.194-.3.5-.529.9s-.444.768-.654,1.1c-.124.207-.243.279-.351.215-.085-.04-.073-.15.032-.328a3.008,3.008,0,0,0,.29-.605.51.51,0,0,0-.045-.472,1.765,1.765,0,0,0-.452-.465c-.311-.245-.759-.552-1.34-.928S4.4,3.967,3.634,3.491" transform="translate(4.415 4.24)"/>
        </g>
      </g>
      <g id="Group_5010" data-name="Group 5010" transform="translate(27.668 24.954)">
        <g id="Group_5009" data-name="Group 5009" transform="translate(0 0)">
          <path id="Path_3190" data-name="Path 3190" class="cls-4" d="M2.882,3.743,4.437,5.468c.658.726,1.207,1.34,1.651,1.814s.73.79.863.92c.17.177.355.363.565.552a1.573,1.573,0,0,0,.518.347,1.433,1.433,0,0,0,.887-.124,4.957,4.957,0,0,0,1.392-.937A8.054,8.054,0,0,0,11.9,6.2a4.913,4.913,0,0,0,.673-1.978,4.111,4.111,0,0,0-.407-2.269A9.035,9.035,0,0,0,10.658-.212,7.013,7.013,0,0,0,8.284-1.973a5.581,5.581,0,0,0-2.019-.476,6.347,6.347,0,0,0-3.032.678A9.3,9.3,0,0,0,1.159-.325c-.153.137-.311.3-.484.484A2.1,2.1,0,0,0,.355.576.332.332,0,0,0,.435,1c.223.25.557.635,1.015,1.146s.936,1.042,1.432,1.6m.654,4.162L1.372,5.5C.758,4.818.282,4.294-.049,3.922s-.589-.647-.759-.828-.331-.344-.455-.468a1.368,1.368,0,0,0-.614-.409.894.894,0,0,0-.679.159,2.074,2.074,0,0,0-.263.186,3.953,3.953,0,0,0-.307.25c-.149.145-.259.177-.343.089s-.016-.218.189-.4c.379-.337.755-.662,1.134-.982s.666-.565.872-.746c.221-.2.517-.481.883-.836S.379-.781.791-1.157C1.364-1.685,2-2.227,2.7-2.763A9.634,9.634,0,0,1,4.99-4.1a6.013,6.013,0,0,1,2.688-.436,6.113,6.113,0,0,1,2.175.565,7,7,0,0,1,2.276,1.711A7.5,7.5,0,0,1,13.709.414,6.863,6.863,0,0,1,14.077,2.9a6.2,6.2,0,0,1-.271,1.523A8.12,8.12,0,0,1,12.873,6.4a10.967,10.967,0,0,1-1.925,2.228c-.522.456-1.07.9-1.647,1.335s-1.046.807-1.41,1.122c-.172.162-.427.4-.758.718s-.638.614-.929.877c-.178.165-.311.2-.4.108-.07-.065-.029-.165.124-.307a3.164,3.164,0,0,0,.441-.5.5.5,0,0,0,.056-.5,2.492,2.492,0,0,0-.336-.611c-.233-.322-.568-.742-1.017-1.251S4.113,8.54,3.536,7.905" transform="translate(3.501 4.547)"/>
        </g>
      </g>
      <g id="Group_5012" data-name="Group 5012" transform="translate(46.736 9.575)">
        <g id="Group_5011" data-name="Group 5011" transform="translate(0 0)">
          <path id="Path_3191" data-name="Path 3191" class="cls-3" d="M4.522,8.12l-7.828-9.5a2.7,2.7,0,0,0-1.1-.977,1.051,1.051,0,0,0-.4.016,2.132,2.132,0,0,0-.344.092c-.169.085-.281.073-.331-.049s.065-.213.32-.3c.46-.175.891-.328,1.279-.465s.634-.213.731-.242c.081-.035.294-.129.63-.269s.745-.322,1.254-.516c.239-.1.38-.085.417.01.032.129-.053.223-.248.283a.993.993,0,0,0-.4.226.368.368,0,0,0-.043.453,3.591,3.591,0,0,0,.334.54c.174.242.392.538.642.88.2.275.533.719,1,1.321S1.4.891,1.949,1.6l1.52,1.945c.46.581.778.99.964,1.219l.048-.024-.1-10.233a3.046,3.046,0,0,1,.045-.582c.027-.112.081-.182.148-.2.089-.036.191,0,.311.109a5.641,5.641,0,0,1,.5.505l6.891,7.277.057-.016c-.041-.334-.082-.851-.138-1.562S12.066-1.45,12-2.322s-.129-1.715-.195-2.539-.109-1.527-.158-2.1a3.773,3.773,0,0,0-.21-1.066.439.439,0,0,0-.3-.3,1.19,1.19,0,0,0-.722.094c-.186.076-.3.06-.352-.037-.036-.108.073-.213.335-.31.463-.17.86-.315,1.187-.421s.533-.183.622-.215c.073-.027.25-.1.53-.23s.576-.25.875-.367c.194-.076.315-.073.361.02.04.117-.016.206-.175.262a2.41,2.41,0,0,0-.567.315,1.124,1.124,0,0,0-.267.8c-.016.373-.013.836.008,1.4.008.632.032,1.449.068,2.434s.077,2.043.126,3.165.1,2.2.153,3.245.1,1.929.132,2.677a4.108,4.108,0,0,1,.005.713.306.306,0,0,1-.193.279c-.082.036-.183,0-.308-.088a7.307,7.307,0,0,1-.551-.541L5.535-2.374,5.5-2.362c.005.214.008.626.013,1.227s0,1.316,0,2.128.005,1.647,0,2.489S5.5,5.114,5.49,5.817s-.032,1.255-.059,1.647a7.93,7.93,0,0,1-.081.852.327.327,0,0,1-.186.29c-.145.065-.36-.092-.642-.484" transform="translate(5.493 9.864)"/>
        </g>
      </g>
      <g id="Group_5014" data-name="Group 5014" transform="translate(75.703 8.499)">
        <g id="Group_5013" data-name="Group 5013" transform="translate(0 0)">
          <path id="Path_3192" data-name="Path 3192" class="cls-3" d="M.905,3.99.846.757C.83-.165.817-.866.809-1.367S.789-2.243.781-2.493s-.024-.468-.037-.65a1.356,1.356,0,0,0-.2-.7A.934.934,0,0,0-.071-4.18a1.843,1.843,0,0,0-.315-.032c-.132-.008-.266-.008-.4-.008-.21.012-.311-.04-.315-.158s.129-.181.4-.169c.508-.012,1-.012,1.5,0s.875.008,1.151,0c.165,0,.472,0,.917-.016l1.469-.024c.536-.008,1.009-.024,1.432-.032s.675-.016.783-.029a5.849,5.849,0,0,0,.788-.124,1.724,1.724,0,0,1,.293-.077c.082.007.118.064.111.165a2.449,2.449,0,0,1-.046.327c-.028.165-.057.46-.081.869,0,.073-.011.189-.019.35s-.013.328-.024.492a2.669,2.669,0,0,1-.029.376.2.2,0,0,1-.177.2c-.121,0-.174-.088-.17-.258a2.7,2.7,0,0,0-.024-.3,2.083,2.083,0,0,0-.1-.358.728.728,0,0,0-.331-.408,2.17,2.17,0,0,0-.916-.23c-.12-.013-.367-.024-.734-.029s-.732,0-1.107,0-.626,0-.771,0c-.088,0-.124.059-.121.189l.078,4.652c-.008.137.032.2.132.2.153,0,.441-.008.848-.016s.824-.022,1.232-.032.7-.024.864-.046a1.277,1.277,0,0,0,.872-.286c.121-.153.213-.242.293-.247s.126.04.129.146a2.9,2.9,0,0,1-.043.363,9.627,9.627,0,0,0-.078.985c-.016.2-.032.435-.04.7s-.011.441-.011.53a.875.875,0,0,1-.016.229.147.147,0,0,1-.141.121c-.121-.008-.178-.064-.17-.162a4.018,4.018,0,0,0-.089-.662.781.781,0,0,0-.3-.463,1.46,1.46,0,0,0-.739-.234c-.134-.013-.379-.016-.739-.016s-.714-.005-1.082,0-.625,0-.791,0c-.089.008-.121.07-.108.186L3.22,3.949c0,.226,0,.525.01.9s.008.747.022,1.114.01.646.019.835a2.323,2.323,0,0,0,.186.96.947.947,0,0,0,.646.457,5.985,5.985,0,0,0,1.4.089c.253,0,.536-.013.859-.037a2.822,2.822,0,0,0,.863-.21,1.129,1.129,0,0,0,.533-.492,2.358,2.358,0,0,0,.271-.882c.02-.191.085-.288.2-.28s.17.121.153.328c0,.153-.008.363-.032.633s-.048.545-.077.813-.065.463-.092.6A.55.55,0,0,1,7.9,9.2a2.269,2.269,0,0,1-.708.067c-.915.016-1.69.021-2.317.008s-1.155-.011-1.594-.025-.832-.008-1.187,0c-.234,0-.586.019-1.039.049s-.887.036-1.279.049c-.239.008-.363-.049-.371-.178C-.6,9.075-.5,9.025-.3,9.019A2.99,2.99,0,0,0,.361,8.93a.5.5,0,0,0,.372-.34A2.5,2.5,0,0,0,.879,7.91c.04-.4.056-.933.056-1.615S.923,4.846.905,3.99" transform="translate(1.1 4.846)"/>
        </g>
      </g>
      <g id="Group_5016" data-name="Group 5016" transform="translate(91.578 10.271)">
        <g id="Group_5015" data-name="Group 5015" transform="translate(0 0)">
          <path id="Path_3193" data-name="Path 3193" class="cls-3" d="M1.255,6.278a8.648,8.648,0,0,1-1.393-.4,5.213,5.213,0,0,1-1.131-.622.545.545,0,0,1-.237-.266.857.857,0,0,1,.024-.424c.113-.509.229-.988.347-1.429s.2-.746.242-.9c.076-.286.177-.429.315-.424.08.024.124.064.132.138a.531.531,0,0,1-.016.21A2.728,2.728,0,0,0-.5,2.6c0,.17,0,.339.008.5A2.454,2.454,0,0,0,.221,4.727a2.927,2.927,0,0,0,1.473.744,2.792,2.792,0,0,0,1.414-.034,2.154,2.154,0,0,0,.964-.608,1.989,1.989,0,0,0,.468-.9A2.724,2.724,0,0,0,4.5,2.522,5.389,5.389,0,0,0,3.39.679L2.7-.145A8.454,8.454,0,0,1,1.085-2.752,4.02,4.02,0,0,1,.94-4.977a3.2,3.2,0,0,1,1.66-2.2A4.812,4.812,0,0,1,5.82-7.5a9.894,9.894,0,0,1,1.437.419,7.786,7.786,0,0,1,.892.4c.158.059.226.149.2.266-.024.1-.076.311-.169.63s-.21.826-.359,1.514c-.077.374-.177.544-.311.5-.124-.024-.156-.145-.113-.358a1.788,1.788,0,0,0,.013-.5,2.29,2.29,0,0,0-.225-.792,2.26,2.26,0,0,0-.525-.707,2.582,2.582,0,0,0-1.251-.593,2.344,2.344,0,0,0-1.679.189,1.778,1.778,0,0,0-.856,1.208,1.978,1.978,0,0,0,.145,1.264A7.484,7.484,0,0,0,4.233-2.317l.426.487A9.926,9.926,0,0,1,6.453.932a4.092,4.092,0,0,1,.178,2.446,3.88,3.88,0,0,1-.706,1.567A3.8,3.8,0,0,1,4.274,6.157a4.668,4.668,0,0,1-1.534.278,6.4,6.4,0,0,1-1.485-.156" transform="translate(1.524 7.626)"/>
        </g>
      </g>
      <g id="Group_5018" data-name="Group 5018" transform="translate(107.294 14.273)">
        <g id="Group_5017" data-name="Group 5017" transform="translate(0)">
          <path id="Path_3194" data-name="Path 3194" class="cls-3" d="M1.73,4.5,5.273-2.157,2.819-3.381A5.244,5.244,0,0,0,1.706-3.82a.975.975,0,0,0-.715.073,2.187,2.187,0,0,0-.577.424c-.094.112-.194.15-.283.1C.021-3.276.021-3.392.123-3.561a5.559,5.559,0,0,1,.382-.525c.2-.254.4-.5.589-.735s.315-.376.361-.432c.148-.18.275-.245.363-.2a.859.859,0,0,1,.2.218,1.787,1.787,0,0,0,.392.347c.234.153.48.315.759.48s.552.32.824.468L10.42-.523a9.7,9.7,0,0,0,1.166.516,4.066,4.066,0,0,1,.481.151c.1.043.089.18-.049.411-.07.117-.17.3-.3.536s-.278.481-.42.732-.251.439-.331.589c-.1.162-.189.227-.283.181-.124-.052-.129-.186-.008-.42l.081-.186a.88.88,0,0,0-.108-.832A3.578,3.578,0,0,0,9.318.055L7.3-1.075,3.759,5.582C3.356,6.328,3,7.014,2.69,7.619S2.145,8.722,2,9.1a1.7,1.7,0,0,0-.157.662.677.677,0,0,0,.322.554c.11.076.239.165.385.258a4.556,4.556,0,0,0,.412.245c.172.1.233.183.189.272-.067.1-.2.1-.391-.005q-.823-.441-1.5-.827C.809,10,.466,9.807.228,9.683q-.315-.165-.933-.468c-.412-.2-.795-.393-1.142-.578-.214-.108-.3-.218-.234-.331.032-.092.146-.092.331.008a3.016,3.016,0,0,0,.617.247.516.516,0,0,0,.492-.118,2.306,2.306,0,0,0,.453-.525c.222-.331.5-.794.828-1.388s.69-1.276,1.09-2.03" transform="translate(2.101 5.466)"/>
        </g>
      </g>
      <g id="Group_5020" data-name="Group 5020" transform="translate(119.376 25.394)">
        <g id="Group_5019" data-name="Group 5019" transform="translate(0 0)">
          <path id="Path_3195" data-name="Path 3195" class="cls-3" d="M2.125,3.365,4.334,1Q5.278-.011,5.779-.549c.344-.367.594-.642.763-.836s.31-.355.429-.492a1.366,1.366,0,0,0,.349-.642.924.924,0,0,0-.212-.662A2.222,2.222,0,0,0,6.9-3.432c-.092-.1-.186-.186-.286-.282-.159-.129-.194-.245-.11-.331s.21-.04.4.15q.552.526,1.073,1.045c.352.344.627.614.829.807.116.11.342.32.67.622L10.562-.416c.383.364.736.686,1.042.969s.5.46.581.525a6.226,6.226,0,0,0,.649.456,1.535,1.535,0,0,1,.266.15c.053.059.046.129-.028.2a3.212,3.212,0,0,1-.266.2,8.635,8.635,0,0,0-.654.573c-.057.049-.142.124-.258.237s-.239.226-.361.344-.221.194-.282.242a.194.194,0,0,1-.269.028c-.089-.09-.07-.189.051-.3a2.806,2.806,0,0,0,.186-.23,1.367,1.367,0,0,0,.186-.331.757.757,0,0,0,.049-.52,2.324,2.324,0,0,0-.5-.8c-.076-.1-.251-.27-.509-.528S9.916.274,9.654.013s-.453-.436-.56-.53c-.057-.068-.134-.049-.215.045l-3.173,3.4c-.1.085-.116.167-.049.239.118.106.322.295.627.574s.6.562.9.836.52.464.649.566a1.281,1.281,0,0,0,.837.407c.189-.041.315-.033.375.02s.061.117-.008.2a3.041,3.041,0,0,1-.283.226c-.157.121-.4.339-.738.659-.153.137-.328.3-.522.479s-.315.307-.371.368a.961.961,0,0,1-.17.153.148.148,0,0,1-.194-.013c-.076-.089-.081-.162-.007-.238a3.8,3.8,0,0,0,.4-.532.835.835,0,0,0,.108-.541,1.457,1.457,0,0,0-.375-.683c-.088-.1-.263-.27-.513-.52s-.513-.5-.778-.755-.458-.431-.578-.546c-.065-.052-.137-.033-.205.061L3.824,4.95c-.153.162-.363.379-.621.653s-.513.545-.763.811S2,6.89,1.88,7.032a2.232,2.232,0,0,0-.533.824.908.908,0,0,0,.153.77,5.44,5.44,0,0,0,.94,1.042c.182.177.4.363.65.573a2.577,2.577,0,0,0,.764.441,1.142,1.142,0,0,0,.727.027,2.537,2.537,0,0,0,.807-.455c.15-.126.259-.141.34-.064.073.1.032.218-.121.339-.1.113-.263.258-.465.444s-.412.356-.621.525-.367.29-.48.364a.516.516,0,0,1-.493.116,2.361,2.361,0,0,1-.566-.439c-.666-.63-1.223-1.16-1.666-1.6S.486,9.118.18,8.808s-.585-.581-.843-.828l-.783-.689c-.344-.3-.662-.587-.95-.853-.181-.165-.23-.29-.145-.382.053-.078.162-.049.315.092a3.128,3.128,0,0,0,.53.4.5.5,0,0,0,.508.017,2.518,2.518,0,0,0,.576-.391A16.1,16.1,0,0,0,.548,5.042c.471-.492,1-1.045,1.577-1.676" transform="translate(2.581 4.088)"/>
        </g>
      </g>
      <g id="Group_5022" data-name="Group 5022" transform="translate(130.067 39.236)">
        <g id="Group_5021" data-name="Group 5021" transform="translate(0)">
          <path id="Path_3196" data-name="Path 3196" class="cls-4" d="M5.751,1.805.961,4.69C.8,4.773.73,4.883.762,5a3.672,3.672,0,0,0,.226.649c.1.225.215.435.339.646a3.538,3.538,0,0,0,.468.654,1.454,1.454,0,0,0,.468.3A2.411,2.411,0,0,0,3.479,7.4a4.5,4.5,0,0,0,1.712-.638A3.894,3.894,0,0,0,6.68,5.294a2.583,2.583,0,0,0,.315-1.485,2.741,2.741,0,0,0-.371-1.195,4.121,4.121,0,0,0-.566-.8.226.226,0,0,0-.307-.013M-1.684,3.744,1.093,2.081c.783-.47,1.385-.841,1.813-1.095S3.652.534,3.867.4s.4-.256.544-.36a1.335,1.335,0,0,0,.514-.521A.867.867,0,0,0,4.9-1.177a1.589,1.589,0,0,0-.126-.3c-.06-.116-.125-.229-.194-.347-.117-.169-.121-.286-.019-.35s.218.019.35.258q.388.653.739,1.283c.235.421.4.719.513.9s.258.42.435.7.355.554.53.828.315.5.415.67a9.509,9.509,0,0,1,.787,1.574,4.4,4.4,0,0,1,.28,1.733,2.839,2.839,0,0,1-.376,1.182A3.232,3.232,0,0,1,7.1,8.152a4.046,4.046,0,0,1-1.99.585,7.607,7.607,0,0,1-2.794-.544c-.463,1.23-.872,2.332-1.238,3.3s-.642,1.85-.848,2.608A4.558,4.558,0,0,0,.04,15.746a2.792,2.792,0,0,0,.173.767,2.759,2.759,0,0,0,.215.468c.076.129.073.213-.013.267-.116.064-.229-.005-.334-.207l-.9-1.5a7.265,7.265,0,0,1-.544-1.057,2.362,2.362,0,0,1-.169-.807A4.384,4.384,0,0,1-1.3,12.17c.18-.567.439-1.248.783-2.045.17-.387.339-.786.516-1.178S.326,8.2.464,7.9s.218-.517.257-.641a.385.385,0,0,0-.056-.347L-.129,5.516a.132.132,0,0,0-.2-.052L-.549,5.6c-.747.449-1.4.848-1.987,1.208s-1.025.658-1.343.9a1.648,1.648,0,0,0-.489.5.669.669,0,0,0,0,.638c.052.129.116.275.194.428s.145.28.2.379c.076.129.073.215-.013.266-.108.061-.221-.008-.343-.221-.189-.311-.379-.635-.564-.96s-.352-.627-.5-.872-.234-.426-.286-.517-.166-.263-.306-.481-.3-.453-.458-.706-.31-.483-.435-.706c-.129-.2-.141-.339-.036-.407.076-.061.165,0,.278.177a2.786,2.786,0,0,0,.409.525.5.5,0,0,0,.48.153,2.442,2.442,0,0,0,.659-.215c.363-.165.834-.424,1.424-.762s1.248-.732,1.983-1.178" transform="translate(6.986 2.193)"/>
        </g>
      </g>
      <g id="Group_5024" data-name="Group 5024" transform="translate(138.334 60.63)">
        <g id="Group_5023" data-name="Group 5023" transform="translate(0 0)">
          <path id="Path_3197" data-name="Path 3197" class="cls-3" d="M4.775.838-2.737,2.63a5.087,5.087,0,0,0-1.437.513.768.768,0,0,0-.432.541,2.93,2.93,0,0,0,.08.964c.046.2.022.312-.084.347-.129.013-.218-.113-.263-.379C-5.1,3.459-5.248,2.7-5.293,2.372c-.024-.092-.084-.323-.174-.683s-.189-.774-.3-1.255C-5.834.193-5.8.047-5.665,0c.1-.016.169.073.2.255a4.025,4.025,0,0,0,.1.4,2.114,2.114,0,0,0,.159.4.684.684,0,0,0,.678.323A9.317,9.317,0,0,0-2.85,1.132L7.834-.97c.379-.089.6-.056.662.108a.458.458,0,0,1-.1.322c-.081.126-.19.279-.322.465C8,.034,7.729.422,7.261,1.1S6.223,2.611,5.55,3.612,4.189,5.65,3.491,6.728c-.343.52-.75,1.131-1.227,1.828L.96,10.469c-.4.573-.637.933-.731,1.081l.016.09L8.286,9.747a3.522,3.522,0,0,0,1.125-.4A.778.778,0,0,0,9.775,8.8a1.925,1.925,0,0,0-.008-.506c-.028-.186-.056-.342-.084-.471-.049-.207-.008-.312.1-.328.129,0,.218.142.259.432.1.477.182.913.255,1.308s.112.682.156.88c.024.108.073.315.159.626s.172.682.266,1.131c.076.245.052.4-.072.444-.106.024-.183-.07-.231-.287a1.891,1.891,0,0,0-.17-.53.745.745,0,0,0-.548-.423,3.281,3.281,0,0,0-1.118.081l-11.393,2.22c-.39.08-.589.04-.608-.121a.54.54,0,0,1,.057-.331A2.1,2.1,0,0,1-3,12.565c.286-.468.662-1.063,1.125-1.773S-.91,9.312-.377,8.5.669,6.9,1.162,6.131c.525-.8,1.041-1.574,1.558-2.322S3.685,2.425,4.068,1.9s.618-.863.718-1.006Z" transform="translate(5.8 1.018)"/>
        </g>
      </g>
      <g id="Group_5026" data-name="Group 5026" transform="translate(16.178 103.846)">
        <g id="Group_5025" data-name="Group 5025" transform="translate(0 0)">
          <path id="Path_3198" data-name="Path 3198" class="cls-3" d="M1.656,2.412l2.37-1.26C4.836.72,5.458.394,5.9.155s.768-.412.986-.536.412-.231.565-.331A1.388,1.388,0,0,0,8-1.2.925.925,0,0,0,8.011-1.9c-.025-.08-.061-.177-.113-.3s-.118-.247-.178-.364c-.1-.174-.1-.287,0-.352s.213.037.334.283c.23.444.465.893.683,1.337s.4.8.533,1.057c.068.138.177.318.307.557S9.851.8,10,1.056s.275.479.383.681c.138.233.15.379.04.436s-.2-.008-.282-.182A1.243,1.243,0,0,0,10,1.766c-.043-.061-.1-.138-.161-.223a.687.687,0,0,0-.521-.3,1.571,1.571,0,0,0-.726.191c-.167.068-.361.17-.587.282s-.557.291-1,.521-1.07.569-1.878,1L2.863,4.441A9.069,9.069,0,0,0,.4,6.176a3.279,3.279,0,0,0-.86,1.657A3.107,3.107,0,0,0-.444,9.214a3.957,3.957,0,0,0,.4,1,3.77,3.77,0,0,0,.8,1.044,3.241,3.241,0,0,0,1.262.732,3.518,3.518,0,0,0,2.147-.11,14.688,14.688,0,0,0,2.382-1.09L8.579,9.715c.807-.433,1.429-.765,1.873-1s.767-.409.99-.538.407-.23.56-.325a1.461,1.461,0,0,0,.546-.493.971.971,0,0,0,.01-.7,2.535,2.535,0,0,0-.108-.3c-.054-.112-.106-.221-.153-.314-.11-.177-.11-.294-.005-.355s.215.032.328.266c.153.279.3.57.439.853s.263.533.355.731.145.3.15.31c.04.073.12.207.242.42s.254.433.4.7.278.489.4.71.142.363.032.419-.205-.016-.3-.213a1.616,1.616,0,0,0-.137-.223,2.591,2.591,0,0,0-.165-.221.672.672,0,0,0-.521-.308,1.564,1.564,0,0,0-.722.194c-.167.076-.363.17-.59.283s-.554.291-.992.525-1.071.557-1.878.988l-1.736.926a12.66,12.66,0,0,1-2.822,1.166,4.7,4.7,0,0,1-2.893-.106A5.212,5.212,0,0,1,.014,11.889a6.4,6.4,0,0,1-1.095-1.538A10.473,10.473,0,0,1-1.59,9.27a5.9,5.9,0,0,1-.379-1.442A4.542,4.542,0,0,1-1.881,6.15a4.395,4.395,0,0,1,1-1.862A9.067,9.067,0,0,1,1.656,2.412" transform="translate(2.012 2.93)"/>
        </g>
      </g>
      <g id="Group_5028" data-name="Group 5028" transform="translate(25.999 121.264)">
        <g id="Group_5027" data-name="Group 5027" transform="translate(0 0)">
          <path id="Path_3199" data-name="Path 3199" class="cls-3" d="M4.1,1.61-1.028,7.387a5.126,5.126,0,0,0-.887,1.244.733.733,0,0,0-.033.689,2.755,2.755,0,0,0,.608.747c.153.132.2.242.129.322-.1.094-.242.044-.431-.153-.852-.816-1.393-1.348-1.636-1.6-.067-.062-.242-.215-.528-.453s-.6-.53-.96-.86c-.2-.156-.258-.29-.169-.412.072-.073.18-.04.314.094a3.968,3.968,0,0,0,.311.261A1.933,1.933,0,0,0-3.95,7.5a.681.681,0,0,0,.738-.12A9.339,9.339,0,0,0-1.985,6.228l7.55-7.852c.258-.294.459-.4.6-.294a.46.46,0,0,1,.116.323c.005.148.005.331,0,.56,0,.134,0,.61.005,1.428S6.3,2.229,6.319,3.44s.056,2.442.1,3.73c.019.625.032,1.351.043,2.2s.017,1.62.033,2.319.013,1.134.02,1.306l.065.061,5.5-6.16a3.759,3.759,0,0,0,.7-.967.808.808,0,0,0-.022-.67,1.7,1.7,0,0,0-.293-.4,3.257,3.257,0,0,0-.344-.339c-.148-.142-.186-.25-.1-.319.1-.089.254-.011.463.2.352.331.67.638.95.925s.492.492.637.63c.082.072.242.21.485.419s.533.461.872.771c.2.161.266.3.2.408-.077.085-.193.044-.355-.1a2.11,2.11,0,0,0-.444-.336.744.744,0,0,0-.694-.032,3.27,3.27,0,0,0-.869.715L5.193,16.138c-.258.291-.452.372-.561.254a.571.571,0,0,1-.141-.3,2.394,2.394,0,0,1-.037-.42c-.035-.549-.067-1.249-.093-2.1s-.056-1.762-.094-2.735-.059-1.91-.1-2.822c-.032-.958-.058-1.889-.061-2.8s0-1.687.011-2.333.017-1.066.017-1.244Z" transform="translate(4.975 1.956)"/>
        </g>
      </g>
      <g id="Group_5030" data-name="Group 5030" transform="translate(44.2 132.964)">
        <g id="Group_5029" data-name="Group 5029" transform="translate(0 0)">
          <path id="Path_3200" data-name="Path 3200" class="cls-3" d="M1.76,3.7,3.327.877c.444-.8.79-1.425,1.03-1.857s.423-.765.536-.988.218-.415.295-.584c.275-.541.259-.95-.048-1.2A2.661,2.661,0,0,0,4.6-4.14c-.174-.081-.231-.186-.167-.307.049-.086.2-.061.453.092.322.178.691.388,1.086.631s.73.431.979.574c.223.116.525.278.913.479s.747.385,1.075.557c.226.119.311.223.266.32-.07.114-.183.117-.344.016A3,3,0,0,0,8.353-2a.685.685,0,0,0-.6.027,1.594,1.594,0,0,0-.5.557c-.1.156-.213.342-.342.557S6.6-.306,6.354.13,5.769,1.175,5.326,1.979L3.754,4.815c-.439.783-.819,1.478-1.146,2.091S2.032,8,1.866,8.367a1.259,1.259,0,0,0-.132.623.736.736,0,0,0,.339.528c.108.081.237.17.383.263s.279.177.4.254c.177.1.236.186.189.271-.073.1-.206.1-.4-.005-.536-.307-1.028-.589-1.472-.855S.4,8.985.167,8.857c-.207-.111-.513-.272-.926-.482s-.783-.4-1.13-.6c-.21-.108-.291-.227-.23-.334.037-.088.145-.085.331.012a2.755,2.755,0,0,0,.615.257A.532.532,0,0,0-.7,7.654a1.9,1.9,0,0,0,.441-.481c.229-.323.516-.786.855-1.384S1.329,4.493,1.76,3.7" transform="translate(2.138 4.496)"/>
        </g>
      </g>
      <g id="Group_5032" data-name="Group 5032" transform="translate(57.656 137.001)">
        <g id="Group_5031" data-name="Group 5031" transform="translate(0 0)">
          <path id="Path_3201" data-name="Path 3201" class="cls-3" d="M1.317,6.521.166-5.581A2.87,2.87,0,0,0-.12-6.727a1.783,1.783,0,0,0-.637-.6A1.962,1.962,0,0,0-1.133-7.5a1.814,1.814,0,0,0-.291-.1c-.145-.044-.206-.121-.162-.227s.226-.12.506-.019c.476.148.94.3,1.383.455s.831.283,1.152.385c.225.064.532.153.923.245s.8.226,1.256.36a.931.931,0,0,1,.269.116c.073.049.1.106.08.162-.034.113-.145.137-.307.081a1.316,1.316,0,0,0-.721-.089.444.444,0,0,0-.29.32,5.367,5.367,0,0,0-.008,1.48l.576,8.906.078.02q.525-.667,1.416-1.776C5.322,2.081,5.947,1.3,6.6.494s1.235-1.541,1.756-2.2.889-1.122,1.1-1.4a2.213,2.213,0,0,0,.355-.6.353.353,0,0,0-.121-.4,2.542,2.542,0,0,0-.679-.307c-.186-.037-.266-.117-.255-.226.032-.135.218-.142.546-.029.447.138.826.263,1.155.379l.673.242c.17.049.417.11.751.194s.637.174.917.25c.242.07.35.159.323.275s-.146.138-.331.078a1.644,1.644,0,0,0-.385-.094,1.336,1.336,0,0,0-.54.037A1.439,1.439,0,0,0,11.34-3a8.058,8.058,0,0,0-.928.976c-.392.477-.759.9-1.1,1.3L8.217.518Q7.64,1.179,6.839,2.1C5.884,3.216,5.058,4.176,4.385,4.968S3.193,6.356,2.862,6.747c-.366.427-.637.726-.8.884s-.3.218-.407.165c-.106-.024-.183-.132-.226-.315a7.379,7.379,0,0,1-.113-.961" transform="translate(1.6 7.921)"/>
        </g>
      </g>
      <g id="Group_5034" data-name="Group 5034" transform="translate(74.684 141.365)">
        <g id="Group_5033" data-name="Group 5033" transform="translate(0 0)">
          <path id="Path_3202" data-name="Path 3202" class="cls-3" d="M.8,3.893.906.656C.938-.267.967-.969.979-1.464S1-2.341,1.012-2.592s0-.471-.008-.654A1.314,1.314,0,0,0,.85-3.959a.934.934,0,0,0-.6-.361,1.512,1.512,0,0,0-.311-.052,3.5,3.5,0,0,0-.4-.024c-.207,0-.3-.061-.3-.177s.134-.17.406-.153c.509.016,1,.043,1.5.081s.872.056,1.146.068c.166,0,.473.016.92.028s.941.033,1.47.049,1.009.032,1.425.043.682.016.783.016a6.52,6.52,0,0,0,.79-.08,1.7,1.7,0,0,1,.3-.06c.084.011.116.065.1.169a2.815,2.815,0,0,1-.061.323,7.163,7.163,0,0,0-.124.863c-.013.068-.021.186-.037.347s-.036.323-.052.5-.032.287-.045.364a.2.2,0,0,1-.194.2c-.116-.008-.17-.094-.156-.263,0-.067,0-.165-.008-.294a1.266,1.266,0,0,0-.081-.371.74.74,0,0,0-.3-.424,2.247,2.247,0,0,0-.9-.278c-.122-.022-.364-.037-.73-.065s-.735-.045-1.107-.064-.626-.032-.766-.032c-.094-.008-.138.052-.138.177L3.2,1.216c-.011.129.029.2.129.206.153,0,.432.012.845.028s.818.022,1.229.029.7.008.86,0a1.307,1.307,0,0,0,.9-.237c.121-.153.226-.226.3-.234s.124.049.129.149c-.005.049-.029.166-.07.363S7.44,2.044,7.4,2.5c-.032.2-.057.441-.081.7s-.037.444-.04.53a.784.784,0,0,1-.029.227A.134.134,0,0,1,7.1,4.07C6.977,4.063,6.929,4,6.94,3.9a4.926,4.926,0,0,0-.051-.662.783.783,0,0,0-.275-.477,1.439,1.439,0,0,0-.731-.274c-.132-.021-.374-.037-.73-.061s-.715-.04-1.081-.052-.63-.032-.8-.037c-.081,0-.121.061-.113.183L3.11,3.969c-.013.225-.021.525-.037.9s-.032.746-.04,1.114-.019.64-.019.831a2.211,2.211,0,0,0,.137.972.9.9,0,0,0,.622.485,5.55,5.55,0,0,0,1.389.169c.25.013.541.013.866,0A3.088,3.088,0,0,0,6.9,8.284a1.2,1.2,0,0,0,.56-.465,2.461,2.461,0,0,0,.314-.872c.029-.194.1-.278.21-.266s.166.129.138.336a6.112,6.112,0,0,1-.065.632c-.032.275-.076.538-.121.8s-.084.46-.124.6a.535.535,0,0,1-.3.407,2.153,2.153,0,0,1-.711.036c-.917-.036-1.687-.072-2.313-.112S3.336,9.3,2.9,9.273s-.832-.057-1.187-.067C1.475,9.2,1.133,9.2.673,9.2S-.213,9.189-.6,9.181c-.247-.013-.372-.073-.368-.2-.008-.1.094-.146.3-.141A3.143,3.143,0,0,0,0,8.793a.523.523,0,0,0,.387-.32A2.511,2.511,0,0,0,.563,7.8c.057-.4.1-.932.137-1.615s.065-1.444.1-2.3" transform="translate(0.968 4.729)"/>
        </g>
      </g>
      <g id="Group_5036" data-name="Group 5036" transform="translate(88.725 140.15)">
        <g id="Group_5035" data-name="Group 5035" transform="translate(0 0)">
          <path id="Path_3203" data-name="Path 3203" class="cls-4" d="M1.877.772,3.04,6.243c.029.177.1.278.23.29a2.949,2.949,0,0,0,.683-.005,5.365,5.365,0,0,0,.722-.108,3.18,3.18,0,0,0,.774-.234,1.3,1.3,0,0,0,.436-.347,2.314,2.314,0,0,0,.533-1.1,4.306,4.306,0,0,0-.043-1.82,3.834,3.834,0,0,0-.9-1.889A2.592,2.592,0,0,0,4.167.248,2.7,2.7,0,0,0,2.919.21a3.831,3.831,0,0,0-.937.275.218.218,0,0,0-.106.287M1.293,8.438.615,5.275c-.19-.9-.34-1.6-.441-2.085S-.015,2.342-.071,2.1s-.11-.461-.158-.635A1.34,1.34,0,0,0-.556.808.912.912,0,0,0-1.223.6,2.108,2.108,0,0,0-1.54.631a3.815,3.815,0,0,0-.4.069q-.3.077-.339-.1c-.029-.117.092-.2.359-.25L-.459.07C.012-.007.357-.067.558-.113s.48-.1.8-.189S2-.455,2.318-.527s.572-.137.766-.182A9.426,9.426,0,0,1,4.833-.936a4.268,4.268,0,0,1,1.728.3A2.874,2.874,0,0,1,7.554.1a3.15,3.15,0,0,1,.754,1.464A3.922,3.922,0,0,1,8.22,3.634,7.49,7.49,0,0,1,6.79,6.1Q8.3,7.36,9.519,8.35C10.323,9,11.053,9.555,11.7,10a4.983,4.983,0,0,0,1.493.71,2.554,2.554,0,0,0,.783.08,2.938,2.938,0,0,0,.513-.048c.145-.029.226.008.25.1.022.132-.084.218-.3.254l-1.713.363a6.458,6.458,0,0,1-1.181.166,2.691,2.691,0,0,1-.816-.1,4.564,4.564,0,0,1-1.348-.715A21.36,21.36,0,0,1,7.7,9.407c-.319-.287-.634-.578-.953-.872s-.593-.554-.84-.78S5.5,7.381,5.39,7.3a.4.4,0,0,0-.346-.058l-1.576.3c-.1.011-.132.073-.116.169l.056.259c.177.843.342,1.6.492,2.263s.291,1.187.417,1.562a1.781,1.781,0,0,0,.307.63.705.705,0,0,0,.605.218c.145-.016.3-.028.468-.056s.315-.04.432-.064c.142-.024.223.008.239.1.028.12-.08.207-.319.255-.355.072-.714.148-1.09.218s-.7.124-.985.181-.481.088-.581.1c-.121.032-.307.073-.554.135s-.528.129-.819.205-.562.129-.812.186c-.234.053-.364.016-.4-.1-.036-.092.054-.162.255-.205a2.55,2.55,0,0,0,.633-.215.491.491,0,0,0,.3-.4,2.808,2.808,0,0,0,.013-.7c-.037-.391-.121-.929-.255-1.594S1.47,9.269,1.293,8.438" transform="translate(2.28 0.938)"/>
        </g>
      </g>
      <g id="Group_5038" data-name="Group 5038" transform="translate(105.952 134.274)">
        <g id="Group_5037" data-name="Group 5037" transform="translate(0 0)">
          <path id="Path_3204" data-name="Path 3204" class="cls-3" d="M3.393,6.535a8.349,8.349,0,0,1-1.348.538,5.018,5.018,0,0,1-1.273.21.531.531,0,0,1-.35-.064.773.773,0,0,1-.239-.344C-.047,6.4-.245,5.95-.426,5.531s-.3-.71-.363-.863C-.915,4.4-.918,4.223-.8,4.146a.145.145,0,0,1,.183.021A.46.46,0,0,1-.5,4.344a2.885,2.885,0,0,0,.239.371c.1.141.21.27.323.4a2.476,2.476,0,0,0,1.566.836A2.969,2.969,0,0,0,3.24,5.627a2.813,2.813,0,0,0,1.093-.9,2.17,2.17,0,0,0,.384-1.068,1.909,1.909,0,0,0-.186-1,2.739,2.739,0,0,0-.888-1.085A5.375,5.375,0,0,0,1.625.806L.575.588A8.647,8.647,0,0,1-2.3-.477,3.947,3.947,0,0,1-3.784-2.14a3.168,3.168,0,0,1-.045-2.753A4.736,4.736,0,0,1-1.488-7.125,9.652,9.652,0,0,1-.1-7.681a7.406,7.406,0,0,1,.95-.23c.161-.053.269-.029.326.081.04.1.126.3.25.6s.344.78.654,1.416c.175.344.191.538.057.586-.113.052-.218-.021-.311-.225a1.978,1.978,0,0,0-.3-.393,2.41,2.41,0,0,0-.662-.483,2.313,2.313,0,0,0-.848-.234,2.7,2.7,0,0,0-1.353.3A2.39,2.39,0,0,0-2.541-5.079,1.792,1.792,0,0,0-2.473-3.6a1.975,1.975,0,0,0,.893.908,7.482,7.482,0,0,0,2.021.618l.635.116A10.247,10.247,0,0,1,4.2-.884,4.178,4.178,0,0,1,5.844.94a3.9,3.9,0,0,1,.4,1.672,3.713,3.713,0,0,1-.55,1.966A4.445,4.445,0,0,1,4.66,5.743a6.47,6.47,0,0,1-1.267.792" transform="translate(4.122 7.938)"/>
        </g>
      </g>
      <g id="Group_5040" data-name="Group 5040" transform="translate(115.366 128.307)">
        <g id="Group_5039" data-name="Group 5039" transform="translate(0)">
          <path id="Path_3205" data-name="Path 3205" class="cls-3" d="M2.833,4.116.937,1.5Q.124.378-.315-.222c-.3-.4-.516-.707-.667-.909s-.286-.367-.407-.5Q-1.954-2.356-2.5-2.1a2.941,2.941,0,0,0-.581.326c-.146.126-.258.135-.342.024-.061-.08.024-.2.269-.374.3-.218.645-.457,1.03-.724s.7-.471.932-.64c.21-.145.477-.356.829-.627S.3-4.635.6-4.852c.191-.153.328-.186.392-.106.076.106.035.215-.126.32a2.534,2.534,0,0,0-.415.371.683.683,0,0,0-.23.552,1.632,1.632,0,0,0,.295.691c.1.157.218.334.364.542s.358.516.654.914S2.239-.585,2.78.153l1.9,2.62c.525.727,1,1.367,1.408,1.924s.755.985,1.013,1.283a1.257,1.257,0,0,0,.514.393.747.747,0,0,0,.617-.094c.117-.061.255-.141.4-.226s.283-.178.4-.262c.162-.113.266-.134.323-.053.057.113,0,.226-.174.352-.5.358-.964.689-1.392.979s-.751.513-.961.667c-.194.141-.465.351-.834.633s-.7.537-1.012.772c-.191.145-.328.164-.4.064-.07-.07-.016-.166.149-.3a2.621,2.621,0,0,0,.492-.444.512.512,0,0,0,.143-.46,1.826,1.826,0,0,0-.247-.6c-.2-.343-.5-.8-.892-1.36s-.86-1.211-1.4-1.934" transform="translate(3.442 5)"/>
        </g>
      </g>
      <g id="Group_5042" data-name="Group 5042" transform="translate(122.842 116.615)">
        <g id="Group_5041" data-name="Group 5041" transform="translate(0 0)">
          <path id="Path_3206" data-name="Path 3206" class="cls-3" d="M4.368,5.025-1.238-.026-3.019,2.067a5.137,5.137,0,0,0-.7.968.986.986,0,0,0-.1.711,2.164,2.164,0,0,0,.272.665c.089.121.1.218.028.295s-.189.065-.334-.072c-.078-.082-.218-.251-.417-.506s-.383-.5-.566-.742-.291-.4-.325-.456c-.146-.194-.183-.328-.114-.4a.862.862,0,0,1,.262-.144,1.6,1.6,0,0,0,.428-.3c.207-.183.42-.384.65-.619s.444-.459.654-.686L1.6-4.622a11.366,11.366,0,0,0,.78-1.006,3.529,3.529,0,0,1,.261-.431c.07-.094.2-.041.385.148.106.1.254.233.447.427s.4.38.605.574.371.352.5.465c.133.137.17.245.108.319-.081.112-.218.077-.412-.093L4.109-4.34a.86.86,0,0,0-.826-.1A3.449,3.449,0,0,0,1.893-3.416L.3-1.732,5.9,3.313c.634.574,1.212,1.086,1.724,1.539s.934.786,1.265,1.029A1.723,1.723,0,0,0,9.5,6.2a.659.659,0,0,0,.611-.186c.1-.084.221-.186.347-.307s.242-.234.334-.339q.2-.218.312-.121c.08.1.043.226-.1.385-.415.46-.8.872-1.158,1.247s-.629.661-.815.86c-.153.177-.384.439-.675.795s-.576.667-.831.966c-.162.18-.291.229-.388.148-.076-.052-.049-.156.088-.315a2.744,2.744,0,0,0,.388-.541.521.521,0,0,0,.008-.511,2.149,2.149,0,0,0-.4-.562c-.262-.3-.646-.678-1.143-1.139s-1.065-.979-1.7-1.55" transform="translate(5.306 6.104)"/>
        </g>
      </g>
      <g id="Group_5044" data-name="Group 5044" transform="translate(132.254 102.021)">
        <g id="Group_5043" data-name="Group 5043" transform="translate(0 0)">
          <path id="Path_3207" data-name="Path 3207" class="cls-3" d="M5.469,5.434,4.116,4.767A4.6,4.6,0,0,0,3.04,4.385,4.523,4.523,0,0,0,2.192,4.3c-.1,0-.409.019-.941.068s-1.134.1-1.836.166-1.369.124-2,.2-1.093.118-1.4.162a4.435,4.435,0,0,0-1.76.546,2.231,2.231,0,0,0-.326.279,1.208,1.208,0,0,0-.23.315c-.064.148-.153.213-.27.172-.1-.056-.094-.18,0-.387.057-.108.146-.286.283-.545s.275-.526.424-.8.267-.522.359-.707.194-.432.335-.75.295-.666.477-1.051c.084-.162.177-.218.275-.169.081.033.081.186,0,.452a.329.329,0,0,0,.183.376,1.641,1.641,0,0,0,.662.076c.177,0,.562-.012,1.159-.052S-1.148,2.572-.4,2.523l2-.141c.593-.04.977-.073,1.149-.08-.091-.106-.29-.385-.6-.821S1.49.55,1.105,0,.371-1.057.053-1.509-.48-2.259-.59-2.4a2.409,2.409,0,0,0-.751-.651A.478.478,0,0,0-1.619-3.1a.464.464,0,0,0-.3.193.927.927,0,0,1-.162.175.127.127,0,0,1-.153.043c-.108-.049-.113-.169-.008-.355.282-.542.554-1.053.808-1.529.064-.126.15-.32.257-.554s.21-.477.315-.715.186-.407.239-.52c.089-.194.177-.275.278-.234.1.068.109.2.007.4a2.524,2.524,0,0,0-.113.35,2.419,2.419,0,0,0-.04.468A1.71,1.71,0,0,0-.4-4.786a5.946,5.946,0,0,0,.287.7c.106.23.334.617.67,1.166S1.259-1.78,1.675-1.142,2.482.074,2.833.59s.614.867.763,1.042a3.392,3.392,0,0,0,.743.633c.258.153.517.295.791.424l1.356.662c.146.065.364.169.67.318s.637.287,1.006.436a1.446,1.446,0,0,0,.694.137A.777.777,0,0,0,9.4,3.871c.08-.108.162-.242.25-.391a4.453,4.453,0,0,0,.223-.4c.089-.175.177-.248.261-.2.11.056.106.2,0,.427q-.4.795-.75,1.475c-.239.452-.417.8-.533,1.033s-.259.548-.444.969-.355.788-.513,1.122c-.108.239-.221.336-.343.28-.088-.037-.088-.15,0-.328a2.81,2.81,0,0,0,.215-.614.581.581,0,0,0-.118-.509,1.843,1.843,0,0,0-.535-.443c-.352-.2-.67-.375-.97-.525S5.61,5.5,5.469,5.434" transform="translate(6.644 6.601)"/>
        </g>
      </g>
      <g id="Group_5046" data-name="Group 5046" transform="translate(77.98 95.931)">
        <g id="Group_5045" data-name="Group 5045" transform="translate(0)">
          <path id="Path_3208" data-name="Path 3208" class="cls-3" d="M.394,0c.4,0,.477.335.713.4A1.718,1.718,0,0,1-.478.4C-.236.335,0,0,.394,0" transform="translate(0.478)"/>
        </g>
      </g>
      <g id="Group_5048" data-name="Group 5048" transform="translate(78.903 87.692)">
        <g id="Group_5047" data-name="Group 5047" transform="translate(0 0)">
          <path id="Path_3209" data-name="Path 3209" class="cls-4" d="M1.17,0C2.616.75,3.4,2.887,3.54,4.9A4.417,4.417,0,0,0,.508,4.211a3.892,3.892,0,0,0-1.929.7A6.094,6.094,0,0,1,1.17,0M1.138.957V3.415a6.83,6.83,0,0,0-1.811.476l.024-.186A3.416,3.416,0,0,1,1.138.957" transform="translate(1.421)"/>
        </g>
      </g>
      <g id="Group_5050" data-name="Group 5050" transform="translate(87.373 43.65)">
        <g id="Group_5049" data-name="Group 5049" transform="translate(0 0)">
          <path id="Path_3210" data-name="Path 3210" class="cls-4" d="M.862,1.074c0,1.4-.355,2.171-.884,2.171-.747,0-1.025-1.232-1.025-2.378C-1.047-.545-.7-1.3-.171-1.3.563-1.3.862-.061.862,1.074" transform="translate(1.047 1.305)"/>
        </g>
      </g>
      <g id="Group_5052" data-name="Group 5052" transform="translate(83.197 43.65)">
        <g id="Group_5051" data-name="Group 5051" transform="translate(0 0)">
          <path id="Path_3211" data-name="Path 3211" class="cls-4" d="M.865,1.074c0,1.4-.358,2.171-.893,2.171-.747,0-1.023-1.232-1.023-2.378,0-1.413.344-2.172.872-2.172C.561-1.3.865-.061.865,1.074" transform="translate(1.051 1.305)"/>
        </g>
      </g>
      <g id="Group_5054" data-name="Group 5054" transform="translate(74.778 43.352)">
        <g id="Group_5053" data-name="Group 5053" transform="translate(0 0)">
          <path id="Path_3212" data-name="Path 3212" class="cls-3" d="M.408,1.38c0,.63,0,1.19-.024,1.482-.019.2-.052.295-.234.343-.116.019-.407.043-.471.043-.025,0-.049.021-.049.07s.028.056.092.056c.38,0,.877-.02,1.009-.02.161,0,.537.02.99.02.06,0,.092-.013.092-.056s-.024-.07-.044-.07c-.048,0-.3-.024-.392-.04-.186-.043-.221-.145-.238-.346-.02-.291-.02-.852-.02-1.482V.169c0-1.009.024-1.655.024-1.708s-.007-.137-.06-.137A.308.308,0,0,0,.93-1.6C.715-1.421-.416-.6-.436-.578A.108.108,0,0,0-.5-.493c0,.044.024.076.04.076A.211.211,0,0,0-.37-.444,3.742,3.742,0,0,1,.316-.759c.089,0,.089.08.089.237,0,.222,0,.505,0,.86Z" transform="translate(0.496 1.676)"/>
        </g>
      </g>
      <g id="Group_5056" data-name="Group 5056" transform="translate(77.813 43.352)">
        <g id="Group_5055" data-name="Group 5055" transform="translate(0 0)">
          <path id="Path_3213" data-name="Path 3213" class="cls-3" d="M.751,0A1.525,1.525,0,0,0-.912,1.53,1.261,1.261,0,0,0,.417,2.792a1.209,1.209,0,0,0,.855-.3A.184.184,0,0,0,1.3,2.418a.056.056,0,0,0-.048-.057c-.024,0-.056.032-.132.073a1.042,1.042,0,0,1-.441.08c-.221,0-.859-.242-.859-1.243C-.181.715.129.3.595.3c.5,0,.984.508.984,1.671A3.647,3.647,0,0,1-.108,5a.181.181,0,0,0-.073.113.066.066,0,0,0,.056.067.167.167,0,0,0,.116-.027,4.024,4.024,0,0,0,2.4-3.372A1.614,1.614,0,0,0,.751,0" transform="translate(0.912 0)"/>
        </g>
      </g>
      <g id="Group_5058" data-name="Group 5058" transform="translate(12.656 87.49)">
        <g id="Group_5057" data-name="Group 5057" transform="translate(0 0)">
          <path id="Path_3214" data-name="Path 3214" class="cls-4" d="M0,1.65C.675-.135,3.489-1.806,4.91-2a9.341,9.341,0,0,0,.859,5.845A7.568,7.568,0,0,1,0,1.65M.8,1.54l3.528-.5a6.507,6.507,0,0,0,.674,2.237l-.23.007C3.368,3.313,1.356,2.492.8,1.54" transform="translate(0 2.004)"/>
        </g>
      </g>
      <g id="Group_5060" data-name="Group 5060" transform="translate(145.607 87.425)">
        <g id="Group_5059" data-name="Group 5059" transform="translate(0 0)">
          <path id="Path_3215" data-name="Path 3215" class="cls-4" d="M2.643,1.71C2.029-.09-.737-1.826-2.149-2.077A9.345,9.345,0,0,1-3.21,3.732,7.608,7.608,0,0,0,2.643,1.71m-.812-.1-3.45-.589A6.706,6.706,0,0,1-2.4,3.179l.237.016c1.192.1,3.415-.654,4-1.583" transform="translate(3.21 2.077)"/>
        </g>
      </g>
      <g id="Group_5062" data-name="Group 5062" transform="translate(26.279 26.316)">
        <g id="Group_5061" data-name="Group 5061">
          <path id="Path_3216" data-name="Path 3216" class="cls-3" d="M46.866,25.506A1.087,1.087,0,0,0,47.63,24.3a.837.837,0,0,0-.028-.138l5.945-.085c0,.207.016.413.016.621,0,.318-.019.632-.024.95Zm6.629,1.87-1.577-.088v-.024c0-.275-.02-.434-.126-.434-.067,0-.142.076-.257.189-.07.07-.159.153-.258.234l-2.159-.12a1.135,1.135,0,0,1,.189-.15,3.873,3.873,0,0,1,.468-.262c.254-.124.37-.18.334-.52-.013-.132-.04-.254-.153-.254a.482.482,0,0,0-.158.043.974.974,0,0,1-.473.078.667.667,0,0,0-.069,0,3.3,3.3,0,0,0-1.8.977l-2.122-.117a3.091,3.091,0,0,0,.917-.893c.144-.178.235-.3.3-.387l6.983.144c-.01.531-.014,1.061-.04,1.587m-.127,1.752-1.78-.163c.344-.157.34-.679.332-1.367,0-.052,0-.109,0-.164l1.573.087c-.028.539-.08,1.072-.123,1.607m-4.315-1.853,2.031.113a1.21,1.21,0,0,1-.367.158,2.781,2.781,0,0,0-.9.333.331.331,0,0,1-.124.057c-.035,0-.076-.051-.157-.165a1.4,1.4,0,0,0-.31-.3c-.1-.074-.163-.133-.174-.195m4.187,3.309a.718.718,0,0,0-.432-.217.452.452,0,0,0-.262.1.332.332,0,0,1-.186.082.2.2,0,0,0-.069.016l-1.261-.135a.939.939,0,0,0-.542-.409A.682.682,0,0,0,50.31,30a.936.936,0,0,0-.614.291l-1.7-.183a2.775,2.775,0,0,1-.209-.275c.025.006.061.016.1.029a1.7,1.7,0,0,0,.5.093.856.856,0,0,0,.629-.258c.315-.319.523-.462.676-.462a.454.454,0,0,1,.27.134c.032.025.067.052.1.077a.268.268,0,0,0,.159.051,1.072,1.072,0,0,0,.478-.2,2.678,2.678,0,0,1,.452-.224l2.2.2c-.037.438-.073.875-.117,1.311m-2.1.006.987.106c-.032.037-.066.077-.1.12-.106.135-.215.274-.35.275a.293.293,0,0,1-.171-.067,1.5,1.5,0,0,1-.367-.434M52.7,34.261a.764.764,0,0,0-.124-.135c-.153-.139-.421-.344-.7-.561-.415-.317-1.11-.851-1.081-.952,0,0,.008-.008.046-.008a1.335,1.335,0,0,1,.33.072,3.061,3.061,0,0,0,.813.169c.388,0,.41-.246.44-.587.007-.082.014-.165.028-.255.041-.28.368-.415.658-.534l.017-.007q-.175,1.411-.422,2.8m-2.466-.784c.447.1.406.369.346.776a3.434,3.434,0,0,0-.049.515c0,.223-.054.223-.083.223a.706.706,0,0,1-.214-.071c-.048-.02-.1-.043-.156-.064a2.221,2.221,0,0,0-.8-.68,4.629,4.629,0,0,1-.621-.453c-.126-.117-.179-.212-.155-.272s.11-.129.51-.129a6,6,0,0,1,1.219.155M49.1,30.948c-.089.108-.183.221-.282.337a3.084,3.084,0,0,1-.257.284.9.9,0,0,1-.009-.11,1.991,1.991,0,0,0-.439-1.193l1.454.156c-.149.152-.3.326-.466.526m-.7,16.937-9.916-1.793c0-.3.009-.568.014-.82a15.494,15.494,0,0,0-.055-2.212c-.084-.791.3-.911.706-1.037a.962.962,0,0,0,.666-.439c.166-.337.2-.346.3-.373a1.369,1.369,0,0,0,.632-.391,7.865,7.865,0,0,0,.9-.866c.063-.071.135-.153.235-.26a1.636,1.636,0,0,0,.143-.2,7.006,7.006,0,0,0,1.077-.911l.7-.759a1.164,1.164,0,0,1,.489-.229.111.111,0,0,1,.1.04c.034.046.058.158-.021.429a1.479,1.479,0,0,0,.85,1.629c.05.034.094.064.129.089a.138.138,0,0,0,.076.031c.075,0,.079-.083.084-.189.013-.261.037-.748.932-.748a.817.817,0,0,1,.608.16.465.465,0,0,1,.052.383c-.016.117-.031.227.031.3a.257.257,0,0,0,.2.069h0c.005.044.025.081.832.081a1.89,1.89,0,0,0,1.833-.83.762.762,0,0,0,.047-.745.453.453,0,0,1,.022-.4c.028-.075.046-.119.022-.152a.057.057,0,0,0-.049-.025,2.257,2.257,0,0,0-.628.345c-.062.04-.215.136-.31.189l.058-.073c.205-.256.584-.731.328-1.006a4.749,4.749,0,0,0-1.577-.826,5.974,5.974,0,0,1,.771-.672,3.53,3.53,0,0,1,.441-.035l.263-.014.1.067c.126.08.245.156.343.231.167.128.179.171.185.193.014.055.014.055.371.167.094.03.214.067.368.117a1.511,1.511,0,0,0,.438.08c.479,0,.512-.419.548-.863a3.746,3.746,0,0,1,.073-.557.771.771,0,0,1,.656-.52,1,1,0,0,0,.181-.06A54.405,54.405,0,0,1,48.4,47.884M-1.25,79.509A54.848,54.848,0,0,1-50.5,48.686l9.661-1.809c0,.1,0,.19,0,.294a15.711,15.711,0,0,0,.079,1.966c.053.54.072.742-.168,1.083-.418.585-.586.938-.513,1.079a.132.132,0,0,0,.129.068.765.765,0,0,0,.364-.144,2.317,2.317,0,0,0,.59-.184.789.789,0,0,0,.151-.108l.013-.013c.009.013.023.04.038.067.034.061.083.154.171.292.063.1.117.2.166.282.118.215.213.387.346.387s.242-.143.408-.476l.054-.108c.176-.357.256-.519.325-.525a.32.32,0,0,1,.13.064,1.723,1.723,0,0,0,.177.1.853.853,0,0,0,.348.144.115.115,0,0,0,.1-.047c.045-.068.054-.216-.195-.829a12.792,12.792,0,0,1-.75-2.291,9,9,0,0,1-.064-1.46l10.2-1.91a4.655,4.655,0,0,1-.435,2.528c-.713,1-.643,1.136-.62,1.181a.086.086,0,0,0,.082.046.34.34,0,0,0,.2-.1,5.538,5.538,0,0,0,.906-.307.8.8,0,0,0,.147-.107l.014-.013c.009.013.025.041.043.073.034.061.086.154.172.291.061.1.116.193.162.279.12.218.213.391.346.391s.241-.141.4-.472l.022-.046c.2-.4.287-.587.358-.593a.418.418,0,0,1,.164.084c.039.026.086.057.144.091l.013.007a1.294,1.294,0,0,0,.488.2.14.14,0,0,0,.126-.061c.067-.1.029-.316-.12-.686a4.1,4.1,0,0,1-.236-1.633,4.259,4.259,0,0,0-.052-.854,6.733,6.733,0,0,1-.092-.714l8.986-1.682a2.75,2.75,0,0,1-.418,1.638c-.715,1-.644,1.136-.621,1.181a.09.09,0,0,0,.083.047.357.357,0,0,0,.205-.1,6.79,6.79,0,0,0,.906-.311.753.753,0,0,0,.144-.107l.016-.014a.868.868,0,0,1,.043.076c.034.06.085.151.168.283.061.1.114.194.162.281.121.221.216.4.35.4s.245-.141.408-.47c.209-.434.3-.632.38-.642a.3.3,0,0,1,.126.067c.047.031.1.071.178.111l.018.01a1.314,1.314,0,0,0,.486.2.144.144,0,0,0,.127-.061c.066-.1.026-.315-.123-.683a4.173,4.173,0,0,1-.238-1.645,5.472,5.472,0,0,0-.034-.7l6.344-1.187a3.462,3.462,0,0,0-.069.556c0,3.261,5.231,4.965,5.236,7.281v2.67c-.912.952-3.815,1.908-3.815,3.785,0,2.656,4.445,3.851,4.454,6.079v2.662c-1.179.824-2.9.525-2.7,2.462C-5.493,68.56-2.4,68.2-2.372,71.3c.016,1.606-1.017.913-2.225,1.832a2.841,2.841,0,0,0,2.257.743c.1,1.529.049,1.99,1.308,2.425.057.016,1,.134,1.134-.471.177-.791-.121-1.757.255-2.486,1.012-1.983,2.193-1.894,2.193-3.213,0-1.942-2.222-1.506-2.222-3.592,0-2.213,3.492-1.294,3.492-4.009,0-2.177-1.134-2.1-3.5-4.626V54.451c0-1.594,4.379-1.489,4.082-4.8-.126-1.381-.845-1.841-3.094-3.859.032.024,2.822-2.712,2.822-3.488,0-.646-.178-.893-1.13-.893a4.356,4.356,0,0,0-2.161.9,3.761,3.761,0,0,1,.167-.944,4.1,4.1,0,0,1,.744-1.036l11.295,2.043c-.022.127-.039.244-.052.345a4.4,4.4,0,0,1-.352,1.3c-.152.373-.192.593-.125.693a.142.142,0,0,0,.126.06,1.347,1.347,0,0,0,.5-.21c.07-.039.126-.076.17-.106a.31.31,0,0,1,.144-.071c.059.005.15.194.331.569l.035.072c.163.336.284.479.4.479s.222-.165.346-.391c.048-.088.1-.189.165-.286.085-.135.135-.229.169-.29a.75.75,0,0,1,.042-.073.115.115,0,0,0,.014.013.735.735,0,0,0,.144.1.419.419,0,0,0,.211.055.863.863,0,0,0,.1-.007.66.66,0,0,1,.2,0,.838.838,0,0,0,.425.206.119.119,0,0,0,.116-.063c.042-.082.038-.275-.482-1.009a2.069,2.069,0,0,1-.358-.987l8.882,1.606c-.026.171-.054.332-.082.465a4.465,4.465,0,0,0-.052.869,4.238,4.238,0,0,1-.23,1.645c-.154.381-.192.594-.126.692a.138.138,0,0,0,.122.058,1.271,1.271,0,0,0,.474-.2l.029-.017a1.993,1.993,0,0,0,.175-.108.368.368,0,0,1,.135-.073c.064.013.134.156.3.5l.073.15c.162.333.281.474.4.474s.228-.176.348-.4c.046-.086.1-.184.158-.278.082-.132.132-.224.165-.286a.782.782,0,0,1,.046-.079l.018.014a.818.818,0,0,0,.15.1,5.783,5.783,0,0,0,.9.315.351.351,0,0,0,.2.1A.083.083,0,0,0,27.5,48.3c.024-.045.1-.181-.617-1.19A4.231,4.231,0,0,1,26.45,44.8L36.6,46.633a8.389,8.389,0,0,1-.064,1.324,12.49,12.49,0,0,1-.744,2.3c-.248.623-.239.771-.194.84a.111.111,0,0,0,.1.048A.864.864,0,0,0,36.045,51a1.972,1.972,0,0,0,.178-.108.286.286,0,0,1,.131-.065h0c.063.007.147.178.331.554l.04.083c.165.337.287.482.407.482s.221-.165.343-.391c.049-.089.1-.19.165-.287.082-.13.132-.221.165-.281.019-.033.035-.063.045-.077l.016.013a.644.644,0,0,0,.15.106,2.371,2.371,0,0,0,.579.189.816.816,0,0,0,.367.144.132.132,0,0,0,.129-.069c.073-.141-.1-.5-.511-1.089-.24-.337-.221-.538-.17-1.074a15.2,15.2,0,0,0,.074-1.993c0-.059,0-.11,0-.168L48,48.694A54.852,54.852,0,0,1-1.25,79.509m-54.242-47.1c.025.041.051.082.075.123.165.281.322.548.58.548.191,0,.414-.153.683-.469.21-.254.313-.291.353-.291.018,0,.041.005.058.05a2.449,2.449,0,0,1-.607,1.654c-.135.121-.19.214-.183.3.012.111.124.18.269.266a1.009,1.009,0,0,1,.541.617,1.126,1.126,0,0,1-.01.653,1.671,1.671,0,0,0,.089,1.143c.038.117.108.141.159.141.176,0,.426-.275.715-.59a4.465,4.465,0,0,1,.528-.523,4.883,4.883,0,0,1,.45-.3l.124.006a4.4,4.4,0,0,1,.583.043,6.626,6.626,0,0,1,.794.555,5.847,5.847,0,0,0-1.929.878.253.253,0,0,0-.085.2c.011.125.147.218.278.307.112.077.227.156.219.233s-.164.188-.459.3c-1.213.486-1.062.869-.917,1.239l.025.065a.916.916,0,0,0,.83.569,1.227,1.227,0,0,0,.8-.349c.263-.229.425-.379.523-.47a.221.221,0,0,0,.014.146.366.366,0,0,0,.306.16c.318.038.343.153.373.287.04.192.086.41.9.41.992,0,1.071-.629,1.122-1.045.022-.174.041-.322.115-.374a1.509,1.509,0,0,1,.539-.085c.5-.032,1.107-.073,1.227-.463a8.575,8.575,0,0,0,.906.51c.253.129.513.263.718.389l.141.324.013.006a2.519,2.519,0,0,1,.388.2c.1.111.18.193.245.266a8.926,8.926,0,0,0,.892.854,1.416,1.416,0,0,0,.632.385c.1.025.139.034.307.367a.982.982,0,0,0,.668.432c.408.127.792.247.707,1.035a15.17,15.17,0,0,0-.055,2.157q.008.332.013.715L-50.9,47.877a54.361,54.361,0,0,1-4.59-15.463m-.194-1.386.841-.1a.679.679,0,0,1-.064.441.2.2,0,0,1-.21.032,1.184,1.184,0,0,0-.293-.039.654.654,0,0,0-.221.044c-.016-.127-.038-.251-.053-.379m-.168-1.7,2.4-.2a1.29,1.29,0,0,0,.236.044,1.7,1.7,0,0,1,.813.543c.225.213.418.4.577.4a.189.189,0,0,0,.105-.031c.037-.025.07-.052.1-.078a.449.449,0,0,1,.272-.134c.146,0,.346.132.639.419l-2.074.249a.366.366,0,0,0-.245-.123.335.335,0,0,0-.192.07.452.452,0,0,1-.27.075,2.264,2.264,0,0,1-.694-.172c-.265-.094-.481-.168-.588-.1s-.1.266-.081.5l-.85.1c-.058-.517-.106-1.037-.15-1.559m-.14-1.892,1.643-.081a.553.553,0,0,0-.077.3A1.459,1.459,0,0,0-53.735,29l-2.129.18c-.047-.581-.1-1.161-.129-1.747m-.046-1.8,6.455-.092a1.092,1.092,0,0,0,.35.159.3.3,0,0,0,.21,0,5.645,5.645,0,0,0,.386.511A5.953,5.953,0,0,0-48,26.9l-1.206.059a1.173,1.173,0,0,0-.7-.255,1.957,1.957,0,0,0-.51.087,2.024,2.024,0,0,1-.323.07,1,1,0,0,1-.479-.077.522.522,0,0,0-.161-.042c-.115,0-.144.122-.158.254a.54.54,0,0,0,0,.079l-2.409.118c-.019,0-.043-.007-.061-.007a.512.512,0,0,0-.087.014l-1.9.094c-.025-.55-.033-1.1-.042-1.657m7.007-.011h0Zm-7.031-.926c0-.32.019-.636.024-.955l9.817.2a.71.71,0,0,0,.041.513c.064.186.186.531.086.67-.067.1-.239.092-.511-.01s-.415-.147-.5-.174c-.1-.032-.1-.032-.159-.091-.028-.028-.069-.07-.136-.133-.037-.032-.069-.062-.1-.089-.163-.152-.236-.221-.367-.221a.89.89,0,0,0-.231.045,1.337,1.337,0,0,0-.215.088.2.2,0,0,1-.082.031c-.037,0-.092-.037-.2-.114a2.026,2.026,0,0,0-.967-.326.408.408,0,0,0-.463.351,1.038,1.038,0,0,0,.269.915l-6.293.09c0-.265-.02-.528-.02-.793M-46.6,37.067c.032-.048.1-.065.242-.083a.524.524,0,0,1,.061,0c.064,0,.069.016.082.085.022.12.06.32.551.475l.156.055.4.92a2.935,2.935,0,0,1-1.282-.33.78.78,0,0,0-.034-.178c-.164-.564-.241-.84-.177-.938m-2.34-.317,1.043-1.622a1.052,1.052,0,0,1,.225.632c0,.361.845.932,1.137,1.119-.245.019-.851.058-1.4.058-.849,0-.994-.1-1.017-.14,0-.006-.01-.019.007-.047m.163-9.387a2.894,2.894,0,0,0-.257-.269l1.206-.059a1.449,1.449,0,0,0,.351.156c.04.014.086.028.134.046.079.028.159.053.236.077.19.058.387.119.4.2.007.04-.035.1-.124.169a.791.791,0,0,1-.539.168c-.051,0-.1,0-.153,0s-.106,0-.161,0a1.25,1.25,0,0,0-.316.034.6.6,0,0,0-.4.361c-.066.125-.12.223-.258.244l-.046.01s0,0,0-.007a1.133,1.133,0,0,0-.072-1.121m.058,5.41a.151.151,0,0,0,.108.049c.18,0,.3-.367.472-.928.08-.266.2-.67.275-.67,0,0,.026,0,.066.1a4.413,4.413,0,0,1-.132,2.063l-.888.1L-49.875,32.4Zm-1.969-4.525a2.377,2.377,0,0,0-.271.3c-.106.156-.181.189-.223.189-.061,0-.177-.073-.259-.566-.019-.114-.025-.192-.029-.245-.007-.1-.01-.15-.126-.15h-.092a2.606,2.606,0,0,1-.494-.052,5.013,5.013,0,0,1-.839-.269c-.142-.054-.279-.1-.412-.149l1.933-.094s0,0,0,.006c.046.054.124.057.223.061a1.162,1.162,0,0,1,.658.2c.15.1.225.194.234.29.016.154-.141.31-.307.474m-.069,5.617c.034.083-.013.185-.138.3a2.344,2.344,0,0,1-.819.385c-.348.115-.677.225-.765.419-.058.022-.112.045-.161.065a.721.721,0,0,1-.218.071c-.028,0-.082,0-.082-.214a3.529,3.529,0,0,0-.047-.514c-.06-.406-.1-.675.346-.778a3.138,3.138,0,0,1,.648-.058c.533,0,1.147.1,1.235.323m-1.07-2.974a.971.971,0,0,0-.257.037.451.451,0,0,1-.117.016.646.646,0,0,1-.453-.278l2.117-.254a.861.861,0,0,0,.5.168,1.745,1.745,0,0,0,.5-.091.92.92,0,0,1,.1-.028,4.271,4.271,0,0,1-.295.375,1.944,1.944,0,0,0-.481,1.244c0,.041,0,.087,0,.106a3.17,3.17,0,0,1-.26-.279c-.544-.629-.9-1.015-1.355-1.015m-4.161-9.045,11.464.642.009-.144L-55.978,21.7c.031-.588.083-1.17.134-1.752l14.773,1.306.011-.144L-55.833,19.8c.052-.58.115-1.158.185-1.733l17.085,2.155.018-.143-17.085-2.155c.072-.58.14-1.161.23-1.735l12.775,2.063.023-.142-12.772-2.063c.093-.58.2-1.155.31-1.729l14.032,2.78.028-.142L-55.04,14.18c.112-.575.239-1.143.369-1.712l15.42,3.615.032-.141-15.419-3.614c.132-.57.265-1.139.415-1.7l9.281,2.519L-44.9,13l-9.28-2.518c.151-.563.309-1.125.477-1.681l11.011,3.4.042-.138-11.013-3.4c.172-.561.362-1.114.551-1.668l11.959,4.165.047-.137-11.96-4.165c.191-.553.388-1.1.6-1.648l12.315,4.775.053-.135L-52.42,5.079c.21-.544.416-1.09.643-1.626l10.927,4.674.057-.132L-51.722,3.32c.23-.541.479-1.07.726-1.6l11.451,5.387.061-.131L-50.936,1.586c.247-.53.505-1.053.768-1.573l12.942,6.647.066-.129L-50.1-.115c.266-.522.533-1.045.816-1.557L-37.7,4.8l.07-.126L-49.215-1.8q.425-.768.874-1.518L-34.933,4.8l.074-.123L-48.268-3.442c.3-.5.617-.991.934-1.482l14.87,9.719.079-.121-14.87-9.719c.319-.492.643-.98.978-1.461l13.209,9.314.083-.118L-46.194-6.625c.334-.479.666-.96,1.015-1.428L-34.737-.129l.088-.115L-45.09-8.168c.351-.468.718-.923,1.084-1.379L-32.218.063l.092-.112L-43.916-9.66c.367-.455.745-.9,1.126-1.345L-30.257-.043l.1-.109L-42.7-11.115c.383-.443.768-.885,1.165-1.315L-30.093-1.7l.1-.106L-41.431-12.534q.6-.645,1.213-1.272L-29.546-3.062l.1-.1L-40.117-13.911c.412-.415.84-.816,1.265-1.219l9.695,10.463.106-.1-9.7-10.464q.641-.6,1.3-1.184l8.371,9.694.109-.094-8.371-9.694c.441-.388.881-.776,1.334-1.149L-27.364-6.92l.112-.091-8.64-10.735c.453-.371.917-.73,1.382-1.087l8.92,11.911.115-.088L-34.4-18.921c.466-.355.941-.7,1.419-1.038l7.653,11,.12-.082-7.655-11c.479-.34.961-.676,1.452-1l6.777,10.5.121-.079-6.777-10.5c.491-.323.982-.645,1.484-.953l6.874,11.521.124-.074-6.876-11.524c.5-.305,1.014-.591,1.526-.881l4.724,8.594.126-.07-4.727-8.6q.768-.431,1.551-.837L-21.4-13.9l.129-.065-5.084-10.045c.522-.27,1.043-.541,1.574-.794l5.491,11.872.132-.061L-24.646-24.86c.531-.251,1.066-.492,1.606-.727l5,11.883.133-.056-5-11.886c.539-.233,1.088-.45,1.636-.667L-16.972-15l.135-.051-4.3-11.311c.552-.215,1.106-.426,1.666-.625l4.114,11.816.136-.047-4.114-11.814c.551-.193,1.1-.388,1.661-.563l3.127,10.359.138-.042-3.128-10.363c.56-.174,1.128-.326,1.7-.483l2.758,10.44c-3.015,5.14-4.849,10.56-4.841,14.775V16.64a2.686,2.686,0,0,0-.329-.114c-.308-.088-.6-.179-.853-.26a5.341,5.341,0,0,0-1.256-.309.318.318,0,0,0-.3.127c-.025.04-.053.082-.079.123-.183.281-.388.6-.256.92a1.329,1.329,0,0,0,.1.191c.121.215.2.357-.236.949a1.994,1.994,0,0,0-.269.461.347.347,0,0,0-.1-.211c-.046-.046-.09-.1-.136-.156-.171-.208-.365-.444-.642-.444a.531.531,0,0,0-.18.033c-.472.162-.486.421-.353.812.065.186.189.531.089.671-.052.072-.161.088-.331.046.091-.155.132-.253.1-.315s-.1-.063-.225-.031a1.437,1.437,0,0,0-.358.147l-.035.019-.139-.045c-.117-.037-.117-.037-.171-.094-.028-.03-.069-.075-.143-.144l-.107-.1c-.152-.138-.227-.207-.351-.207a.84.84,0,0,0-.239.05,1.189,1.189,0,0,0-.213.085.208.208,0,0,1-.081.029c-.034,0-.082-.026-.2-.108a2.018,2.018,0,0,0-.963-.331.409.409,0,0,0-.464.355,1.033,1.033,0,0,0,.782,1.2.324.324,0,0,0,.211.007,5.417,5.417,0,0,0,.394.516,1.7,1.7,0,0,1-.351.346c-.441.323-.382.489-.267.656a.259.259,0,0,1,.063.136c0,.022,0,.043,0,.065a.378.378,0,0,1-.006.125c-.032,0-.142-.067-.516-.52a6.561,6.561,0,0,1-.468-.69,2.715,2.715,0,0,0-1.678-1.458c-.322-.09-.626-.183-.893-.267a5.24,5.24,0,0,0-1.219-.3.316.316,0,0,0-.295.123l-.067.1a1.079,1.079,0,0,0-.271.946,1.355,1.355,0,0,0,.1.19c.124.214.207.355-.229.944a1.878,1.878,0,0,0-.274.467.347.347,0,0,0-.1-.22c-.045-.046-.089-.1-.137-.156-.171-.205-.364-.438-.636-.438a.523.523,0,0,0-.178.033c-.48.172-.494.417-.354.81.064.186.184.532.085.673-.069.1-.243.091-.513-.013s-.4-.144-.483-.171c-.111-.037-.111-.037-.165-.091-.029-.028-.07-.07-.144-.135l-.106-.1c-.158-.148-.23-.215-.358-.215a.875.875,0,0,0-.238.049,1.244,1.244,0,0,0-.206.087.2.2,0,0,1-.082.031c-.035,0-.088-.033-.2-.112a2,2,0,0,0-.963-.327.412.412,0,0,0-.468.352,1.084,1.084,0,0,0,.218.852l-.058.031a.669.669,0,0,1-.358.116.926.926,0,0,1-.186-.022l-.167-.038a2.325,2.325,0,0,0-.472-.079.265.265,0,0,0-.305.3v.076a1.261,1.261,0,0,1-.555,1.22c-.437.326-.38.489-.267.655a.264.264,0,0,1,.061.139c0,.021,0,.043,0,.066a.408.408,0,0,1-.005.125c-.032,0-.142-.067-.512-.518a6.566,6.566,0,0,1-.472-.7,2.681,2.681,0,0,0-1.673-1.45c-.322-.091-.623-.185-.889-.269a5.2,5.2,0,0,0-1.226-.3.32.32,0,0,0-.3.124c-.022.034-.045.07-.069.106-.186.287-.4.614-.261.945a1.544,1.544,0,0,0,.1.193c.12.21.2.349-.237.937a2.048,2.048,0,0,0-.273.469.332.332,0,0,0-.1-.213c-.043-.047-.088-.1-.135-.158-.171-.211-.367-.45-.64-.45a.523.523,0,0,0-.178.033.884.884,0,0,0-.29.159l-9.919-.205c.012-.584.016-1.17.046-1.749m41.995-50.451,2.047,9.078c-.359.551-.7,1.106-1.032,1.666L-15.7-28.169q.849-.232,1.708-.436m1.872-.425,1.464,7.628q-.611.843-1.178,1.709l-2.017-8.945c.575-.135,1.149-.275,1.731-.392m1.877-.336L-9.3-23.18q-.639.8-1.239,1.621l-1.438-7.5c.574-.114,1.154-.214,1.734-.311m1.907-.277.576,4.656q-.727.808-1.416,1.658l-.925-6.063c.585-.1,1.174-.175,1.764-.251m1.888-.221.264,3.224q-.74.733-1.446,1.513l-.562-4.534c.579-.074,1.159-.147,1.744-.2m1.679-.128.134,1.9c-.481.424-.952.865-1.416,1.319l-.254-3.106c.51-.046,1.022-.084,1.535-.117m2.661-.109c-.816.583-1.612,1.218-2.39,1.9L-4.627-30c.834-.051,1.674-.082,2.516-.1m3.327,1.646a21.2,21.2,0,0,0-2.4-1.66c.848,0,1.69.025,2.528.064ZM3.1-29.929l-.287,2.848q-.715-.667-1.457-1.265l.131-1.7c.541.027,1.076.077,1.613.119m1.921.181-.569,4.32q-.736-.8-1.507-1.529l.3-2.961c.6.049,1.188.1,1.778.17m1.9.242-.98,5.8q-.662-.82-1.36-1.59l.586-4.438c.587.068,1.174.136,1.755.224m1.9.331L7.34-21.853q-.621-.87-1.279-1.7l1-5.936c.59.091,1.172.2,1.755.314m1.882.385-2.1,8.8c-.368-.578-.747-1.149-1.142-1.707l1.506-7.455q.874.166,1.739.359m1.881.443-2.546,9.435.141.037,2.545-9.432c.57.15,1.134.315,1.7.483L11.032-16.985l.139.043,3.385-10.842c.572.173,1.138.361,1.7.552L12.665-16.8l.138.047L16.4-27.186c.559.191,1.116.385,1.667.593l-4.573,11.8.134.053L18.2-26.54c.555.211,1.109.425,1.655.654L14.786-14.049l.133.057,5.069-11.841c.546.23,1.081.48,1.618.728L16.438-14.1l.132.061,5.17-11.006q.81.375,1.6.777l-6.9,13.439.129.066,6.9-13.44c.529.269,1.059.536,1.577.821L18.027-10.81l.126.071,7.021-12.57q.779.431,1.541.887L19.7-10.812l.124.075L26.84-22.35c.51.306,1.01.626,1.509.948L21.427-10.814l.121.079L28.47-21.324c.5.323.992.651,1.479.989l-6.7,9.518.118.083,6.7-9.518c.489.341.979.679,1.456,1.036L23.656-8.844l.115.088,7.866-10.369c.473.356.936.727,1.4,1.1L24.218-7.215l.113.091,8.817-10.814c.461.373.913.756,1.361,1.144L25.488-6.474l.109.1L34.62-16.7c.448.389.895.781,1.33,1.184L26.628-5.573l.105.1,9.322-9.94c.435.4.867.811,1.289,1.229L28.1-4.993l.1.1,9.247-9.2c.421.42.825.854,1.232,1.287L24.775.091l.1.105L38.778-12.695q.611.652,1.2,1.325L26.714.089l.1.11L40.07-11.259c.391.447.78.9,1.155,1.357L28.815.088,28.905.2l12.41-9.99q.568.7,1.113,1.416L29.668,1.173l.086.116L42.519-8.259c.358.474.7.96,1.042,1.446L31.325,1.7l.083.119L43.645-6.694q.512.73,1,1.476L32.583,2.558l.079.121L44.724-5.1c.323.5.649.993.956,1.5l-13.744,8.2.075.124,13.742-8.2c.308.511.6,1.03.893,1.551L33.112,5.527l.07.126L46.718-1.793c.288.52.562,1.049.834,1.58L33.434,6.914l.066.129L47.618-.085c.269.528.533,1.059.786,1.6L33.46,8.422l.061.132,14.942-6.91c.251.54.5,1.08.737,1.629L36.862,8.462l.055.134L49.26,3.406c.231.547.441,1.1.655,1.66l-13.947,5.3.051.135L49.968,5.2c.212.555.413,1.116.608,1.681l-13.585,4.63.046.137,13.585-4.63c.192.563.385,1.126.559,1.7L40.1,12.065l.043.139L51.221,8.856q.258.852.489,1.717L40.7,13.48l.037.14,11.011-2.908c.153.575.285,1.156.418,1.738L37.789,15.72l.032.141L52.2,12.592c.132.579.257,1.161.369,1.746L36.061,17.493l.028.141L52.594,14.48c.11.582.221,1.163.314,1.751L33.79,19.2l.022.144,19.12-2.969c.091.588.155,1.183.227,1.777L35.8,20.221l.017.144,17.358-2.07q.1.887.177,1.783l-15.26,1.285.012.144,15.26-1.285c.048.59.1,1.18.129,1.776l-11.48.569a1.123,1.123,0,0,0-.257-.863c-.028-.046-.057-.091-.083-.135a.324.324,0,0,0-.3-.123,5.149,5.149,0,0,0-1.23.306c-.26.082-.557.176-.872.266A2.719,2.719,0,0,0,37.6,23.477a6.37,6.37,0,0,1-.474.7c-.367.456-.474.525-.5.526a.327.327,0,0,1-.008-.129c0-.022,0-.045,0-.067a.268.268,0,0,1,.061-.138c.112-.168.171-.334-.262-.664a1.262,1.262,0,0,1-.555-1.217v-.077a.271.271,0,0,0-.308-.308,2.289,2.289,0,0,0-.463.077l-.166.038a.947.947,0,0,1-.189.022.68.68,0,0,1-.373-.126l-.034-.02a1.064,1.064,0,0,0,.208-.854.413.413,0,0,0-.468-.357,1.941,1.941,0,0,0-.958.332c-.1.074-.159.11-.193.11a.205.205,0,0,1-.079-.029,1.2,1.2,0,0,0-.212-.086.846.846,0,0,0-.242-.052c-.126,0-.2.071-.363.227l-.09.087c-.075.067-.117.11-.144.139-.055.055-.055.055-.17.093-.084.028-.225.073-.48.169s-.438.108-.507.013c-.1-.143.022-.495.089-.684.156-.451.067-.657-.354-.814a.538.538,0,0,0-.18-.033c-.283,0-.481.249-.655.469-.039.049-.077.1-.113.138a.365.365,0,0,0-.1.211,1.958,1.958,0,0,0-.27-.471c-.437-.59-.356-.73-.233-.943a1.362,1.362,0,0,0,.1-.188,1.079,1.079,0,0,0-.264-.952l-.07-.111a.314.314,0,0,0-.294-.126,5.015,5.015,0,0,0-1.191.294c-.272.085-.579.183-.911.275a2.7,2.7,0,0,0-1.662,1.455,6.536,6.536,0,0,1-.485.711c-.364.454-.471.522-.5.523a.375.375,0,0,1-.007-.128c0-.022,0-.043,0-.065a.261.261,0,0,1,.06-.134c.111-.169.168-.335-.268-.663a1.734,1.734,0,0,1-.349-.355,6.47,6.47,0,0,0,.394-.516.3.3,0,0,0,.206,0,1.039,1.039,0,0,0,.783-1.22A.41.41,0,0,0,23.9,18.2a1.984,1.984,0,0,0-.964.332c-.107.079-.159.114-.194.114a.188.188,0,0,1-.078-.031,1.2,1.2,0,0,0-.213-.089.828.828,0,0,0-.233-.048c-.126,0-.2.069-.361.22l-.1.094c-.073.067-.114.11-.141.14-.052.055-.052.055-.155.088l-.155.05-.038-.019a1.516,1.516,0,0,0-.356-.146c-.124-.031-.2-.02-.225.034s.009.162.1.311c-.167.042-.276.028-.328-.043-.1-.144.028-.506.091-.679.133-.386.117-.643-.359-.815a.511.511,0,0,0-.177-.033c-.274,0-.468.242-.64.455-.043.054-.086.107-.127.153a.336.336,0,0,0-.1.208,2,2,0,0,0-.267-.463c-.44-.593-.36-.733-.238-.946a1.434,1.434,0,0,0,.1-.192,1.042,1.042,0,0,0-.25-.931c-.028-.043-.055-.087-.08-.129a.318.318,0,0,0-.3-.125,5.041,5.041,0,0,0-1.2.3c-.271.086-.577.183-.906.275a2.4,2.4,0,0,0-1.458,1.133V-3.112c.013-4.454-2.228-10.969-5.838-16.706l2.136-8.938c.582.131,1.165.26,1.74.41M41.387,37.617l.061-.025A12.811,12.811,0,0,1,43.537,37a.473.473,0,0,1,.2.366c-.014.168-.2.283-.284.331-.016.01-.029.017-.037.023l-.009.007,0,.011a3.338,3.338,0,0,1-.795.915,4.832,4.832,0,0,0-.658.692.377.377,0,0,0-.272.147c-.01.012-.016.013-.016.013a3.933,3.933,0,0,1-.2-1.191c-.025-.259-.048-.5-.076-.7M40.1,40.242a11.672,11.672,0,0,1,1.071-2.529l.008,0c.028.259.078.59.126.911a6.943,6.943,0,0,1,.11.92.959.959,0,0,0-.362.411.769.769,0,0,1-.441.4,2.077,2.077,0,0,0-.5.37c-.041.038-.088.08-.111.1a3.884,3.884,0,0,1,.1-.579m-.727-13.5a1.539,1.539,0,0,0-.305.622,1.859,1.859,0,0,1-.159.406.639.639,0,0,1-.525.349.538.538,0,0,1-.471-.347l-.04-.079c-.191-.373-.348-.688-.141-1.042Zm.15-.137-1.691-.094a1.589,1.589,0,0,1,.2-.2,1.217,1.217,0,0,1,.816-.289,1.838,1.838,0,0,1,.694.145l.373.236a1.4,1.4,0,0,0-.393.2m1.687,3.481a.322.322,0,0,1-.034-.276c.108-.34.688-.641.944-.759L41.943,30.2c-.4.608-.4.752-.016,1.174a1.675,1.675,0,0,1,.255.318,20.712,20.712,0,0,1-2.494-1.757l1.562.213Zm-4.677,9.494c-.065-.1-.065-.1,0-.218.031-.055.072-.126.125-.235a2.664,2.664,0,0,0,.135-.8c.016-.205.034-.417.066-.6a11.626,11.626,0,0,1,.605,2.164l.02.1a6.3,6.3,0,0,1-.118,1.569,12.3,12.3,0,0,0-.566-1.488,3.422,3.422,0,0,0-.268-.489m.144-2.113a2.067,2.067,0,0,1-.174.433c-.031.043-.049.047-.055.047-.051,0-.138-.227-.164-.825.147.118.276.231.393.345m-.4-.53a4.094,4.094,0,0,1,.044-.8c.02-.088.034-.173.045-.254h.165a2.607,2.607,0,0,0,.5-.036c-.076.479-.186,1.009-.292,1.412ZM34.156,23.711a.888.888,0,0,0-.379-.412l-.028-.019c-.284-.186-.284-.186-.343-.264-.026-.034-.065-.085-.141-.171a4.037,4.037,0,0,0,.286-.388.313.313,0,0,0,.207,0,1.092,1.092,0,0,0,.163-.055,4.229,4.229,0,0,1,.225.378,1.358,1.358,0,0,1,.01.932m-.027.177h0Zm1.478,12.837a3.043,3.043,0,0,1,.512.275c-.037.863-.058,1.6-.058,1.749,0,.056,0,.114,0,.17a.687.687,0,0,1-.022.3.012.012,0,0,1-.01,0c-.025,0-.088-.025-.244-.195s-.331-.393-.5-.608a4.262,4.262,0,0,0-.779-.85c-.052-.028-.12-.063-.2-.1a4.115,4.115,0,0,1-.99-.62c.75-.022.753-.331.758-.583a.857.857,0,0,1,.013-.174Zm-.459-.882c.183.012.456.029,1.018.034l-.039.945a2.925,2.925,0,0,1-.846-.767l-.108-.178-.028.07c-.067.174-.278.189-.59.042a1.886,1.886,0,0,1-.185-.108l.023,0a2.9,2.9,0,0,1,.754-.034m-.073-1.525a2.2,2.2,0,0,1-.375-.56,1.617,1.617,0,0,1,.753.4,1.269,1.269,0,0,0,.629.259c-.094.053-.2.115-.314.183l-.115.069c-.251.16-.444.282-.519.314,0-.013.01-.029.016-.043a.557.557,0,0,0-.075-.62m-2.923,2.709A.716.716,0,0,0,32,37.05a1.393,1.393,0,0,1,.058-.341l.066.021-.079.23ZM31.7,29.671l0-.011a.757.757,0,0,1,.374-.459l.361-.127.209.856a2.77,2.77,0,0,0-.982,2.573L30.916,30.3Zm.268-5.13a.557.557,0,0,1-.608-.093c-.087-.07-.129-.129-.12-.17.015-.078.209-.138.4-.2.076-.024.156-.049.233-.076l.087-.029a1.67,1.67,0,0,0,.01.566M27.336,36.457c.1-.088.185-.167.257-.228a1.769,1.769,0,0,1-.638.852,1.632,1.632,0,0,0-.291.29l-.007.012.087.915a6.2,6.2,0,0,1-.637-.934l-.057-.093c.4-.006.912-.473,1.287-.815m-1.868-4.123a2.317,2.317,0,0,0,.088-1.036,3.777,3.777,0,0,1,.04-.885c.063.35.332,1.592.509,2.4-.063-.047-.126-.1-.191-.15a4.038,4.038,0,0,0-.445-.327m1.012.7a.8.8,0,0,1-.1-.043c.019-.246.03-.455.03-.617l.015-.21,2.064-1.625Zm3.714,2.706a1.275,1.275,0,0,1,.307,1.014,1,1,0,0,1-.07.268,1.668,1.668,0,0,1-.1-.26,2.781,2.781,0,0,0-.236-.59l-.046-.06c-.011-.016-.022-.029-.033-.043Zm-.272.245a.135.135,0,0,0-.058-.013c-.088,0-.153.087-.236.2a1.259,1.259,0,0,1-.3.306c-.173.12-.009.745.172,1.375.031.1.059.2.067.244a.382.382,0,0,1-.21.071c-.159,0-.29-.136-.428-.281a.766.766,0,0,0-.513-.317.484.484,0,0,0-.218.056,2.164,2.164,0,0,0-.5.367,1.152,1.152,0,0,1-.114.1,3.851,3.851,0,0,1,.1-.583l.053-.265c.207-.184.247-.509.309-1,.019-.15.04-.319.07-.505s.046-.311.066-.4a.833.833,0,0,1,.076.263c.005.03.011.061.017.091.04.213.063.3.133.3.047,0,.086-.047.164-.139a2.765,2.765,0,0,1,.331-.34.707.707,0,0,1,.426-.225.472.472,0,0,1,.162.037.536.536,0,0,0,.186.041.842.842,0,0,1,.422.276ZM24.345,25.362a2.23,2.23,0,0,0-.278-.417l-.1-.111a.884.884,0,0,1,.048-.194,1.459,1.459,0,0,0,.37.055.834.834,0,0,0,.62-.259c.317-.319.526-.461.679-.461a.453.453,0,0,1,.269.131c.034.026.069.053.106.08a.2.2,0,0,0,.2.007,1.6,1.6,0,0,1,.349.7c-.212.045-.349.086-.351.087l-.031.01,0,.016a1.083,1.083,0,0,0-.864.409l-.164.013c-.134.013-.26.025-.386.025a1.571,1.571,0,0,1-.2-.011,1.1,1.1,0,0,1-.277-.08m-4.384,7.561c-.07-.169-.247-.284-.63-.531-.1-.064-.209-.135-.336-.22a3.64,3.64,0,0,0,1.029-.667.292.292,0,0,1,.046-.013c.034.084.148.367.306.675Zm.731-.891c.357-.118.471-.24.523-.347.228.037.353.049.437.055-.023.153-.089.386-.193.756-.022.083-.04.156-.052.225-.214-.189-.454-.42-.715-.688m.522,1.139.205.086a1.242,1.242,0,0,0,.585.72l.084.058a1.51,1.51,0,0,1,.122.1,1.054,1.054,0,0,0,.308.211c-.117.239-.147.4-.089.5.089.144.348.114.8-.1a1.421,1.421,0,0,0,.295-.205l.05-.043.117,0-.027.7c-.048.055-.108.114-.171.176a2.173,2.173,0,0,0-.44.541l-.177-.221a4.246,4.246,0,0,0-.78-.854l-.174-.088a3.406,3.406,0,0,1-1.087-.727,2.709,2.709,0,0,0-.92-.528.3.3,0,0,1,.163-.075c.094-.018.138-.045.14-.217a2.478,2.478,0,0,0,.181-.762c.008-.072.015-.135.025-.185a1.986,1.986,0,0,0,.787.9m-6.133,2.387c.02-.028.032-.043.218-.061l.134-.017c-.186.34-.581,1.048-.72,1.048-.075,0-.2-.183-.322-.691.587-.145.649-.225.69-.278M14.016,32.02c.014-.1.053-.358.083-.48.011.049.023.12.034.189s.025.157.043.245c.037.212.061.3.131.3.049,0,.089-.046.169-.141a3.277,3.277,0,0,1,.243-.263l.1.152a7.634,7.634,0,0,0,.486.674.734.734,0,0,1-.08.058c-.253.174-.269.192-.269.341a1.4,1.4,0,0,1-.029.3c-.063.311-.334.5-.68.738a3.723,3.723,0,0,0-.308-1.3,5.343,5.343,0,0,1,.073-.807m2.877,2.328a2.325,2.325,0,0,0-.388.3,1.338,1.338,0,0,1-.11.1,3.982,3.982,0,0,1,.1-.579l.064-.337a.189.189,0,0,1,.01.022,1.626,1.626,0,0,0,.324.5M16.53,19.11a5.094,5.094,0,0,1,.825,1.17c.051.173.13.453.2.728a.424.424,0,0,0-.269-.092,1.076,1.076,0,0,0-.257.043l-.086.021Zm.128,8.5c.058.223.327,1.257.414,1.52l-.057.035a8.408,8.408,0,0,0-1.315.9c-.147-.034-.266-.066-.378-.1a3.473,3.473,0,0,0-.29-.707,3.78,3.78,0,0,1-.345-.873Zm-2.994-3.651a2.922,2.922,0,0,1,1.589-.336,5.975,5.975,0,0,1,.958.068,2.594,2.594,0,0,1-1.27.334.4.4,0,0,1-.205-.031.08.08,0,0,0-.049-.015c-.186,0-.531.652-.531,1.268,0,.3-.04.334-.075.334a.923.923,0,0,1-.314-.174c-.1-.065-.213-.145-.352-.229a.845.845,0,0,1,.248-1.217M6.9,26.787c-.029.056-.111.071-.233.046-.192-.041-.342-.082-.462-.116a1.07,1.07,0,0,0-.751-.025,9.2,9.2,0,0,1-1.259.264l.623-1.474,1.817.575c.108.162.347.577.266.73m-.308-4.43.684-1.1.364,1.227Zm3.223,8.1c0-.316-.144-.409-.679-.754l-.375-.245c-.242-.16-.248-.22-.245-.234.015-.056.258-.075.435-.089a1.251,1.251,0,0,0,.713-.181.692.692,0,0,1,.053-.052,1.345,1.345,0,0,0,.187.877.779.779,0,0,1-.088.825v-.021c0-.029,0-.07,0-.125m2.1-4.957c-.073.213-.144.487-.219.775-.223.855-.5,1.918-.966,1.918a.309.309,0,0,1-.068-.007.572.572,0,0,1-.076-.325,11.328,11.328,0,0,1,1.33-2.361M10.533,13.372a14.826,14.826,0,0,1-2.147.651,28.913,28.913,0,0,0-3.22-.651,8.018,8.018,0,0,1,2.546-.96,9.342,9.342,0,0,1,2.822.96M2.471,16.837a10.747,10.747,0,0,1-3.083.948,11.008,11.008,0,0,1-3.9-.953A13.972,13.972,0,0,1-1.021,15.9a17.48,17.48,0,0,1,3.492.933m-9.937-3.723a18.406,18.406,0,0,1-2.281.646,21.153,21.153,0,0,0-2.954-.674,26.315,26.315,0,0,1,2.688-.674,5.6,5.6,0,0,1,2.548.7m-1.075-11.2C-9.085,3.346-9.626,4-10.285,5.429c-1.13-2.435-1.969-4.415-4.144-6.487A12.4,12.4,0,0,1-8.541,1.917m-5.638-4.534c3.334-.662,6.818-1.2,10.184-1.946C-5.342-2.794-6.679-.925-7.845.742a18.489,18.489,0,0,0-6.334-3.358M4.086,1.966a68.447,68.447,0,0,0-5.51,5.881A62.7,62.7,0,0,0-6.659,1.7c.221-.447,3.224-6.329,5.369-6.329S3.456.976,4.086,1.966m7.1-3.326h.95c-1.9,2.591-3.23,4.306-4.7,6.518C6.788,4.009,6.25,3.628,5.7,2.475A11.289,11.289,0,0,1,11.187-1.36M5.152-13.948c1.281,0,1.587,1.426,1.587,2.422C6.739-9.968,6.2-8.8,5.055-8.8c-1.268,0-1.591-1.421-1.591-2.43,0-1.554.517-2.717,1.687-2.717M10.8-2.616C8.817-2.046,7.316-.485,5,1.008,3.841-.658,2.768-2.539,1.689-4.3ZM2.561-11.526C2.561-9.968,2.028-8.8.873-8.8c-1.268,0-1.587-1.421-1.587-2.43,0-1.554.522-2.717,1.687-2.717,1.28,0,1.587,1.426,1.587,2.422m-4.154-16.8v21.77L-16.3-3.58V-5.6c-.029-5.1,8.828-20.762,14.709-22.723M-9.856,22.688l.364-1.223.691,1.1Zm2.2,4.179a.952.952,0,0,0-.317-.061,1.691,1.691,0,0,0-.438.082c-.121.034-.273.074-.468.114-.127.026-.209.012-.238-.045-.079-.152.161-.566.269-.727l1.824-.572.628,1.47a9.823,9.823,0,0,1-1.259-.263m-.088,3.782a.146.146,0,0,0,.109.049c.176,0,.364-.31.415-.587.016-.085.029-.167.041-.238s.025-.144.034-.194c.032.12.072.38.088.479.028.184.049.355.067.505.076.606.12.972.524,1.1a1.539,1.539,0,0,1,.364.211c-.082.011-.164.026-.242.039a3.221,3.221,0,0,1-.555.067.9.9,0,0,1-.582-.187.72.72,0,0,0-.393-.19.233.233,0,0,0-.054.006h-.006a1.426,1.426,0,0,1-.038-.158l-.007-.034a1.381,1.381,0,0,1-.029-.3c0-.147-.016-.169-.269-.335a1.25,1.25,0,0,1-.3-.3c-.083-.109-.149-.2-.236-.2s-.146.063-.233.2a2.712,2.712,0,0,0-.241.589,2.246,2.246,0,0,1-.089.251.916.916,0,0,1-.072-.271,1.244,1.244,0,0,1,.305-1,.973.973,0,0,1,.507-.37.884.884,0,0,0,.272-.076,1.084,1.084,0,0,1,.331-.089.151.151,0,0,1,.115.041.328.328,0,0,1,.054.238,1.146,1.146,0,0,0,.116.747m-3.274-.372c0,.061,0,.1,0,.134a.016.016,0,0,0,0,.008,1.63,1.63,0,0,1-.138-.3c.083.031.141.07.141.155m-.143-.542a.984.984,0,0,1,.051-.132.183.183,0,0,0,.006-.148c-.055-.138-.276-.227-.512-.32a2.35,2.35,0,0,1-.342-.156c.078-.013.193-.037.348-.07a5.472,5.472,0,0,1,.71-.123h.031a1.473,1.473,0,0,0,.187.159c.1.077.18.137.177.211,0,.1-.156.246-.48.457-.069.046-.127.086-.177.122m-1.5-6.846.684.533-.8.474a2.083,2.083,0,0,0,.117-1.007m-.656-.608.183.064a.723.723,0,0,1,.33.337Zm-2.144,13.234h0m-1.974.4c.118-.055.117-.228.115-.409a.683.683,0,0,1,.1-.465.427.427,0,0,1,.389-.064c.013.026.026.053.04.079-.025.187-.04.483-.058.8a5.567,5.567,0,0,1-.114,1.1,7.049,7.049,0,0,1-.469-1.039m-4.419-1.4a1.112,1.112,0,0,1-.019.19l-.177-.222a.627.627,0,0,1,.2.032m-.32-.91a2.419,2.419,0,0,1,.147.235,1.4,1.4,0,0,1,.171.595.8.8,0,0,0-.155-.025l.1-.066Zm2.4-5.105c-.132-.012-.284-.019-.455-.019-.138,0-.272,0-.384.01l.7-.221a.4.4,0,0,0,.139.23m.563-7.316-.082-.019a1.059,1.059,0,0,0-.258-.043.435.435,0,0,0-.271.093c.073-.286.15-.56.2-.722a4.9,4.9,0,0,1,.827-1.159Zm.557,14a.9.9,0,0,1-.114-.1,2.389,2.389,0,0,0-.386-.3,1.625,1.625,0,0,0,.322-.485.206.206,0,0,0,.011-.027l.069.337a3.865,3.865,0,0,1,.1.573m1-5.779c-.241.067-.536.144-.908.223a2.492,2.492,0,0,0-.581-.767.193.193,0,0,0,.006-.064c.152.046.314.088.471.129.481.124.976.253,1.012.479m1.205-5.5a1.2,1.2,0,0,1,.542.239.834.834,0,0,1,.248,1.209c-.14.084-.259.164-.355.229a.908.908,0,0,1-.311.172c-.034,0-.076-.037-.076-.331a1.788,1.788,0,0,0-.049-.4Zm-4.474,4.645h0m.681,3.422a10.363,10.363,0,0,1-1.054.553,3.2,3.2,0,0,0-.928.536l-.424-.759c.156-.306.271-.588.305-.675a.244.244,0,0,1,.047.013,1.694,1.694,0,0,0,.735.123,4.851,4.851,0,0,1,1.318.209m-3.686-.1c.1-.007.24-.024.435-.052.047.1.158.216.521.343-.266.273-.506.5-.712.682-.013-.067-.028-.141-.048-.224a4.882,4.882,0,0,1-.2-.75m-1.109-.523a1.444,1.444,0,0,1,.667-.2c.129,0,.288.034.308.19a.6.6,0,0,1-.01.133,7.039,7.039,0,0,1-.964-.122m.129,3.7a.218.218,0,0,0,.2-.089c.057-.1.026-.256-.094-.492a.992.992,0,0,0,.306-.2,1.19,1.19,0,0,1,.132-.108l.064-.045a1.319,1.319,0,0,0,.6-.728l.2-.086a1.993,1.993,0,0,0,.8-.909l.026.054c.091.185.238.486.4.829,0,.037,0,.067,0,.091l-.037.03a6.263,6.263,0,0,0-.81.765,3.478,3.478,0,0,1-1.046.7c-.085.043-.159.082-.216.113a3.733,3.733,0,0,0-.748.794l-.216.266a2.175,2.175,0,0,0-.426-.514,2.581,2.581,0,0,1-.192-.2l-.031-.688h.123c.016.012.032.027.05.041a1.49,1.49,0,0,0,.295.2,1.8,1.8,0,0,0,.61.182m-3.626-9.862,0-.015-.031-.009s-.138-.036-.348-.081a1.628,1.628,0,0,1,.348-.7.19.19,0,0,0,.2-.013c.038-.026.073-.053.107-.079a.459.459,0,0,1,.27-.131c.153,0,.363.141.679.458a.867.867,0,0,0,.637.262,1.448,1.448,0,0,0,.365-.053.557.557,0,0,1,.043.186l-.1.12a2.094,2.094,0,0,0-.278.407.894.894,0,0,1-.279.08,1.535,1.535,0,0,1-.193.012c-.111,0-.224-.01-.34-.019-.07-.006-.141-.012-.213-.016a1.1,1.1,0,0,0-.875-.412m-3.8,10.992a1.217,1.217,0,0,0-.072.108,2.669,2.669,0,0,0-.242.584,1.566,1.566,0,0,1-.1.25.965.965,0,0,1-.07-.264,1.288,1.288,0,0,1,.308-1.009Zm.107-5.136c.01-.153.022-.321.034-.508l.269-.035a3.227,3.227,0,0,1,.425-.042c.268,0,.449.1.745.409a1.312,1.312,0,0,0,.88.2c.118,0,.233,0,.333,0s.311,0,.342.047a.021.021,0,0,1,0,.01,5.345,5.345,0,0,0-2.674.943.987.987,0,0,1-.333.179.034.034,0,0,1-.029-.013,3.242,3.242,0,0,1,.006-1.185M-32,35.481a.521.521,0,0,0,.189-.041.5.5,0,0,1,.165-.036.723.723,0,0,1,.429.221,2.853,2.853,0,0,1,.323.337c.08.1.12.141.168.141.07,0,.1-.092.136-.3l.009-.05a.829.829,0,0,1,.088-.3c.01.052.022.119.037.2.01.058.022.124.035.2.025.171.043.326.061.469.06.5.1.832.313,1.018l.054.266a4.1,4.1,0,0,1,.1.574,1.123,1.123,0,0,1-.114-.1,2.127,2.127,0,0,0-.5-.366.806.806,0,0,1-.44-.4,1.145,1.145,0,0,0-.432-.463c-.01-.1-.054-.141-.27-.276a1.341,1.341,0,0,1-.293-.306c-.082-.109-.147-.2-.235-.2a.137.137,0,0,0-.055.012l-.192-.34A.824.824,0,0,1-32,35.481m-2.278-11.314.084.029c.08.029.162.054.239.078.2.06.38.117.4.195.007.04-.035.1-.121.172a.571.571,0,0,1-.364.142.588.588,0,0,1-.245-.057,1.477,1.477,0,0,0,.011-.559m-.166,12.671.069-.022a1.186,1.186,0,0,1,.061.336.694.694,0,0,0-.148-.026l.1-.062Zm-1.975-.633a.837.837,0,0,1,.015.178c0,.262.008.555.752.576a4.128,4.128,0,0,1-.994.62c-.076.037-.141.07-.194.1a4.233,4.233,0,0,0-.775.833c-.175.216-.356.441-.514.611-.192.206-.238.2-.251.186a.678.678,0,0,1-.02-.295c0-.057,0-.116,0-.173,0-.153-.023-.881-.055-1.736a2.638,2.638,0,0,1,.509-.275Zm.541-13.619h0Zm.008.076a3.839,3.839,0,0,0,.281.384c-.079.085-.118.136-.144.17-.06.077-.061.079-.371.276a.865.865,0,0,0-.379.415,1.306,1.306,0,0,1,.01-.918c.042-.085.091-.167.137-.245.029-.049.058-.1.082-.14.043.017.088.031.132.046l.037.012a.3.3,0,0,0,.215,0m-1.622,13.293a3.132,3.132,0,0,1,.762.031l.032.007c-.07.044-.132.079-.187.107a.9.9,0,0,1-.364.1.215.215,0,0,1-.228-.148l-.028-.083-.105.2a3.149,3.149,0,0,1-.85.758l-.044-.939c.555-.006.83-.022,1.012-.032m.009-.9.015.042c-.075-.033-.268-.153-.521-.312-.158-.1-.3-.177-.428-.248a1.322,1.322,0,0,0,.629-.255,1.651,1.651,0,0,1,.759-.4,2.23,2.23,0,0,1-.376.554.546.546,0,0,0-.078.617m-2.343,5.009.021-.1a11.832,11.832,0,0,1,.6-2.154,5.88,5.88,0,0,0,.346,1.087c.193.389.162.438,0,.715a5.585,5.585,0,0,0-.279.522,12.742,12.742,0,0,0-.574,1.486,6.194,6.194,0,0,1-.114-1.559m1.2-2.843c-.026.593-.111.816-.161.816-.006,0-.023,0-.054-.045a1.982,1.982,0,0,1-.174-.429,3.9,3.9,0,0,1,.389-.342m-.449.126c-.108-.4-.219-.926-.3-1.4a3,3,0,0,0,.5.035h.169c.012.1.026.187.041.257a3.888,3.888,0,0,1,.037.8Zm-3.2-10.772.368-.23A1.9,1.9,0,0,1-41.2,26.2a1.237,1.237,0,0,1,.817.282c.608.5.415.88.173,1.36l-.046.091a.549.549,0,0,1-.478.343.642.642,0,0,1-.526-.346,1.814,1.814,0,0,1-.162-.406,1.2,1.2,0,0,0-.852-.95M-44.407,38.4a.041.041,0,0,0,.022.006h.018l.012-.011c.014-.016.014-.037.011-.089a.5.5,0,0,1,.076-.355c.082-.088.239-.085.466.006a5.35,5.35,0,0,1,1.011.526h0l0,.01c0,.007.1.724.332,1.826a4.049,4.049,0,0,1,.1.576.91.91,0,0,1-.116-.1,2.143,2.143,0,0,0-.5-.367c-.305-.153-.317-.215-.33-.287s-.032-.174-.29-.352a1.675,1.675,0,0,0-.756-.278,1.311,1.311,0,0,0-.376-.309L-45,38.585a1.035,1.035,0,0,0,.59-.189m-.48-10.74h0Zm.249,2.382a1.97,1.97,0,0,0,.3-1.865l1.409,1.213a9.809,9.809,0,0,1-1.99,1.074.066.066,0,0,1-.022,0c0-.007-.017-.075.306-.419m4.712,6.715a1.954,1.954,0,0,1-.638-.195,2.675,2.675,0,0,1-1.051-1.274c-.187-.362-.335-.648-.544-.648a.274.274,0,0,0-.139.042c-.08.045-.175.1-.275.166a2.581,2.581,0,0,1-.71.369s-.017,0-.02-.005c-.01-.022-.012-.141.434-.726.279-.366.48-.665.644-.906a2.062,2.062,0,0,1,.423-.533.751.751,0,0,0,.212.205,2.2,2.2,0,0,1,.115.262,2.962,2.962,0,0,1,.1,1.185c-.016.369-.029.66.094.789s.343.073.718-.18a4.131,4.131,0,0,1,.664-.37.828.828,0,0,0-.112.621.534.534,0,0,0,.313.309,3.94,3.94,0,0,0,.124.533c.126.389.227.811.293,1.1a1.044,1.044,0,0,0-.334.63,5.3,5.3,0,0,1-.289.851,4.379,4.379,0,0,0-.326,1.863c0,.164,0,.3-.012.429-.007.1-.013.185-.017.267-.02.367-.035.531-.189.531a3.88,3.88,0,0,1-1.327-1.115A1.2,1.2,0,0,0-41.9,40.8c-.107-.116-.116-.125-.3-1.354a6.089,6.089,0,0,0-.118-.6l.106.091c.194.17.322.281.465.281.216,0,.419-.245.957-1.03a12.182,12.182,0,0,1,.86-1.128c.129-.151.168-.2.151-.245s-.064-.049-.153-.061m11.2,5.309c.012.185.028.464.007,1.339l-.005.327-10.206,1.91c.007-.27.015-.533.022-.767.01-.37.019-.664.019-.835a5.447,5.447,0,0,0-.149-1.007,3.553,3.553,0,0,1-.126-1.333,2.007,2.007,0,0,0,.057-.377c.015-.189.021-.26.38-.64.149-.155.414-.468.718-.831a12.837,12.837,0,0,1,2.385-2.461A3.9,3.9,0,0,1-34.6,37.2l.282.355c-.079.279-.127.49-.076.559.031.04.085.037.155-.022a1.285,1.285,0,0,0,.187-.211,1.02,1.02,0,0,1,.088-.108s.026.029.043.2c.012.107.016.235.019.36.009.342.016.611.159.611.061,0,.129-.056.221-.183s.108-.186.082-.238a.138.138,0,0,0-.127-.056,1.007,1.007,0,0,0-.117.01l-.025,0a2.576,2.576,0,0,1,.207-.156,1.5,1.5,0,0,0,.514-.649c.006-.012.01-.025.016-.037.014.046.033.129.057.231s.045.2.077.332a3.265,3.265,0,0,1,.079,1.145c-.012.135-.018.2.017.239a.074.074,0,0,0,.057.025.562.562,0,0,0,.234-.1c.137-.08.221-.138.276-.174.075-.052.092-.062.129-.062a.711.711,0,0,1,.1.011c.052.007.125.018.229.028.187.017.2.033.221.059.049.063.126.157,1.006.347l.066.014c.872.185,1.15.248,1.245.124.046-.058.037-.146.006-.278a1.609,1.609,0,0,1,.507,1.476,5.1,5.1,0,0,0-.061,1.009m.325-3.755a4.146,4.146,0,0,0-.7.078l-.108.019-.1-.16a1.375,1.375,0,0,0-.118-.156c-.07-.078-.1-.108-.162-.482.072.058.144.129.219.2.206.2.421.408.649.407a.516.516,0,0,0,.406-.256c.113-.158.212-.313.308-.463.119-.185.231-.36.348-.509a5.144,5.144,0,0,0-.089,1.138c0,.168,0,.314-.013.443-.061.642-.266,1.387-.435,1.387-.068,0-.232-.2-.315-.411a.653.653,0,0,1,.1-.412,3.126,3.126,0,0,1,.346-.549c.082-.11.124-.164.1-.215s-.123-.061-.432-.061m10.925.966c.012.256.028.607.009,1.453l-.006.293c0,.221-.008.418-.013.606l-9.074,1.7c-.032-.655-.045-1.306-.045-1.617,0-.233-.029-.578-.06-.941A7.308,7.308,0,0,1-26.7,38.99a1.43,1.43,0,0,0,.043-.444c-.006-.193-.009-.31.323-.661.2-.2.583-.644,1-1.118a.177.177,0,0,0,.162-.177,8.721,8.721,0,0,1,2.013-1.913,3.634,3.634,0,0,1,1.02-.189l.287.36c-.088.3-.124.492-.078.557.031.04.084.038.153-.022a1.394,1.394,0,0,0,.19-.215.822.822,0,0,1,.088-.109s.026.028.042.195a.98.98,0,0,0,.937.706.578.578,0,0,0,.486-.236,1.512,1.512,0,0,0,.2-.343c.032-.079.043-.1.305-.292l.13.109a1.392,1.392,0,0,0,.635.388c.076.019.111.028.187.151,0,.091-.01.169-.015.233-.013.138-.019.207.018.245a.073.073,0,0,0,.057.024.456.456,0,0,0,.192-.079,3.032,3.032,0,0,0,.31.338,1.644,1.644,0,0,1,.6,1.569,6.087,6.087,0,0,0-.059,1.2m.753-4.344-.054-.012a5.3,5.3,0,0,1-.4-1.071,1.462,1.462,0,0,1-.031-.292c0-.146-.016-.165-.273-.341a.445.445,0,0,1-.081-.063,6.8,6.8,0,0,0,.487-.658l.019-.027-.193-.174a1.471,1.471,0,0,0,.647.3.174.174,0,0,0,.184-.151c.015-.085.028-.164.04-.235s.022-.143.034-.195c.031.121.072.382.088.482.024.153.337.319.7.511.3.16.679.359.693.485a5.736,5.736,0,0,1-.727.946,4.341,4.341,0,0,0-.794,1.077,1.736,1.736,0,0,1-.33-.462c0-.029.009-.054.013-.076l.009-.035ZM.836,38.518C.6,37.912.817,37.138.575,36.513c-.456-1.168-1.953-1.224-2.548-1.224-.993,0-1.2.059-2.409.915a1.338,1.338,0,0,1-.352.884c-.947.985-2.489.6-3.523,2.169a3.289,3.289,0,0,0-.309.7l-6.7,1.253c-.071-.753-.1-1.706-.1-2.173,0-.227-.027-.586-.059-1-.039-.509-.085-1.083-.083-1.517a.254.254,0,0,0,.3-.148,1.108,1.108,0,0,0-.137-.741c.083.048.2.114.374.2.077.042.135.04.174,0,.063-.073.04-.247.013-.432a.88.88,0,0,1-.015-.278,1.93,1.93,0,0,0,.639-.522c.12-.168.225-.333.325-.492.326-.514.585-.921,1.073-.921a2.172,2.172,0,0,1,.8.162,1,1,0,0,0,.483.093c.057-.009.109-.013.158-.016.121-.009.218-.016.269-.088s.044-.188-.017-.4a3.169,3.169,0,0,0-.6-.937,2.515,2.515,0,0,1-.237-.314,3.853,3.853,0,0,1,.617-.138,1.389,1.389,0,0,1,.218.347c.141.269.287.545.439.545a.139.139,0,0,0,.09-.035,1.354,1.354,0,0,0,.189-.216.834.834,0,0,1,.085-.108s.025.032.043.195a1.12,1.12,0,0,1-.077.446c-.029.089-.047.138-.022.172a.051.051,0,0,0,.046.022c.049,0,.141-.055.409-.242.113-.079.19-.1.236-.051.086.088.08.376.076.63-.005.278-.01.517.079.608.049.051.118.052.2,0a.633.633,0,0,0,.3-.6c.01-.194.023-.281.195-.281l.045,0A1.233,1.233,0,0,1-8.595,33a.067.067,0,0,0-.006.06c.023.061.144.138.848.29l.073.016c.868.187,1.147.252,1.244.127.058-.075.026-.2-.023-.4l-.013-.053a1.844,1.844,0,0,0-.139-.328,1.049,1.049,0,0,1-.071-.161.591.591,0,0,1,.163.073,1.7,1.7,0,0,0,.648.251.2.2,0,0,0,.192-.111,3.017,3.017,0,0,1,.231-.39.572.572,0,0,0,.734-.227,1.082,1.082,0,0,0,.114-.929c-.031-.145-.055-.271-.01-.328s.218-.061.515.011c.132.033.194-.007.216-.043.064-.111-.052-.331-.25-.682-.12-.21-.268-.472-.234-.541,0,0,0-.009.021-.012a1.93,1.93,0,0,1,.656.189A2.517,2.517,0,0,0-3,30.019a.169.169,0,0,0,.142-.055A.186.186,0,0,0-2.84,29.8a.73.73,0,0,1,.049-.691c.025-.046.051-.1.077-.156a.9.9,0,0,1,.227-.289,1.678,1.678,0,0,0,.351-.441.147.147,0,0,0,.022-.138c-.031-.059-.118-.066-.251-.076a1.181,1.181,0,0,1-.842-.341c-.168-.18-.177-.25-.166-.275.02-.053.169-.064.314-.075.26-.018.585-.042.7-.291.193-.414.365-.876.18-1.169-.161-.253-.564-.312-1.2-.176a3.322,3.322,0,0,0-.607.182,1.26,1.26,0,0,0-.005-.3,1.191,1.191,0,0,1,.163-.964.393.393,0,0,0,.038-.475c-.017-.037-.035-.079-.055-.123-.225-.5-.644-1.435-1.2-1.435a.56.56,0,0,0-.281.08c-.184.1-.333.207-.453.288A.925.925,0,0,1-6.1,23.1c-.035,0-.076-.037-.076-.331a1.56,1.56,0,0,0-.546-1.255.5.5,0,0,0-.1-.018c-.167-.02-.4-.047-.4-.605,0-.722-.189-1.153-.507-1.153a.444.444,0,0,0-.162.034c-.2.079-.192.156-.169.235.008.028.011.041,0,.053q-.04.065-.392.132a2.573,2.573,0,0,0-.679.238.581.581,0,0,1-.168.065,1,1,0,0,1,.035-.31c.034-.152.053-.27.067-.356.038-.224.046-.231.107-.231a1.12,1.12,0,0,1,.127.013l.068.008a1.933,1.933,0,0,0,.275.02.759.759,0,0,0,.575-.186.355.355,0,0,0,.06-.315c-.076-.375-.192-.592-.549-.592a1.322,1.322,0,0,0-.155.01,1.042,1.042,0,0,1-.38-.043,1.076,1.076,0,0,0-.256-.043.515.515,0,0,0-.425.254c-.057.073-.1.137-.145.19-.2.276-.22.3-.6.3a.817.817,0,0,0-.434.138.6.6,0,0,1-.057.032,2.3,2.3,0,0,1,.051-.335c.026-.129.044-.224.055-.294a1.2,1.2,0,0,1,.031-.15.159.159,0,0,1,.031.007.65.65,0,0,0,.165.022.827.827,0,0,0,.1-.007.38.38,0,0,0,.358-.363c0-.2-.189-.43-.713-.487a3.273,3.273,0,0,0-.355-.02,2.574,2.574,0,0,0-.653.084c-.159.037-.257.056-.343,0s-.108-.208-.127-.331-.038-.245-.13-.245c-.047,0-.1.035-.174.114a1.028,1.028,0,0,1-.685.265c-.134,0-.23-.033-.266-.092a.181.181,0,0,1,.019-.18c.031-.061.06-.117.087-.167.111-.209.171-.323.129-.393a.13.13,0,0,0-.114-.048.888.888,0,0,0-.193.03.824.824,0,0,0-.364.192.392.392,0,0,1-.281.12.829.829,0,0,1-.171-.022A2.775,2.775,0,0,1-15,16.923a1.493,1.493,0,0,0-.469-.144c-.083,0-.181.035-.181.2a.855.855,0,0,0,.239.47c.121.156.247.317.227.475a.442.442,0,0,1-.2.279c-.438.325-.381.491-.269.659a.263.263,0,0,1,.06.135c0,.022,0,.044,0,.067a.418.418,0,0,1,0,.122c-.032,0-.139-.067-.509-.519a5,5,0,0,1-.343-.486V-.884c3.342,2.147,4.2,5.565,5.493,8.038l-.795.88c.658.084,1.1-.226,1.332-.037-.957,1.526-1.9,2.249-2.389,3.565a7.753,7.753,0,0,1,2.926-.077c-1.2.506-2.9.32-3.754,1.647,1.167.352,2.543,1.163,3.217,1.163a24.86,24.86,0,0,0,3.48-1.163C-8.46,10.923-8.071,8.461-9.615,6.886c.791-1.53,1.6-2.455,2.3-3.993A57.289,57.289,0,0,1-2.361,9.042L-3.41,10.209A5.7,5.7,0,0,1-1.015,10.1C-4,9.893-3.822,13.079-4.754,14.774c1.481-.215,2.393-.48,3.063-.48s.444.23.67.392c-.88.515-2.2.437-3.239.694h-.014A1.818,1.818,0,0,0-5.84,16.9a26.542,26.542,0,0,0,4.421,1.962,12.7,12.7,0,0,0,4.429-1.978c-.186-.444-.409-.953-.635-1.5a51.66,51.66,0,0,1-2.588-6.6c0-.875,4.34-4.9,4.938-5.36a30.068,30.068,0,0,0,2.321,3.73l-.8.877c.657.084,1.137-.2,1.6-.037a5.693,5.693,0,0,0-2.64,3.842,5.251,5.251,0,0,1,1.832-.5c.67,0,.578-.04.812.114-1.208.538-2.41.424-3.22,1.945a13.255,13.255,0,0,0,2.946,1.167,26.076,26.076,0,0,0,3.476-1.146c-.8-2.26-2.668-5.974-2.668-6.644S11.316,2.3,13.016-.335V17.859a1.286,1.286,0,0,1-.421-1.118v-.073c0-.2-.1-.3-.31-.3a2.363,2.363,0,0,0-.459.073l-.173.038a.226.226,0,0,0-.171.115c-.048.11.035.257.1.376a.612.612,0,0,1,.07.146.208.208,0,0,1-.083-.007,1.906,1.906,0,0,1-.466-.209.635.635,0,0,0-.236-.106.059.059,0,0,0-.055.029c-.023.037-.007.1.058.226a1.328,1.328,0,0,1,.012.924.863.863,0,0,0-.379-.412.893.893,0,0,1-.162-.12l.009,0a.115.115,0,0,0,.082-.076c.011-.052-.025-.118-.116-.215a.523.523,0,0,0-.406-.159,1.98,1.98,0,0,0-.936.334l-.009.007a.188.188,0,0,0-.042-.15c-.079-.09-.265-.117-.571-.082-.393.046-.476.18-.476.284,0,.232.4.472.665.505.091.011.144.03.165.058s.014.1,0,.2a1.748,1.748,0,0,0,0,.687,2.452,2.452,0,0,1,.052.333L8.7,19.127a.8.8,0,0,0-.434-.144c-.379,0-.4-.023-.6-.308-.037-.053-.083-.114-.136-.186-.094-.126-.169-.183-.242-.183s-.131.061-.189.126a.394.394,0,0,1-.3.174.276.276,0,0,1-.042,0c-.482-.057-.612.164-.7.587a.3.3,0,0,0,.021.245c.064.079.215.046.406-.015a1.93,1.93,0,0,1,.319-.081,1.382,1.382,0,0,1,.147-.016.054.054,0,0,1,.028,0,.313.313,0,0,1,.005.1,2.06,2.06,0,0,0,.049.539c.016.079.059.287.033.314a.594.594,0,0,1-.158-.064,2.528,2.528,0,0,0-.68-.24c-.232-.044-.364-.089-.391-.134-.007-.013-.005-.026,0-.055.023-.079.027-.156-.17-.233a.456.456,0,0,0-.161-.032c-.319,0-.5.421-.5,1.154,0,.558-.227.59-.392.614a.521.521,0,0,0-.1.021,1.562,1.562,0,0,0-.545,1.262c0,.091-.016.131-.031.131-.049,0-.159-.113-.248-.2-.144-.147-.292-.3-.418-.3-.1,0-.165.088-.193.263-.22,1.25-.73,1.281-1.141,1.3-.207.013-.4.025-.491.216a.371.371,0,0,0,.069.477,1.093,1.093,0,0,1,.21.974,1.106,1.106,0,0,0,.3.948l-.016,0c-.126-.035-.358-.1-.743-.184-.67-.146-1.116-.058-1.316.257a1.347,1.347,0,0,0,.064,1.192c.162.361.155.373-.034.689-.066.11-.155.261-.265.473-.129.245-.163.412-.1.508.088.144.349.113.81-.1a1.33,1.33,0,0,0,.295-.205c.073-.061.135-.114.178-.114.011,0,.046,0,.091.1a1.043,1.043,0,0,0,.147.224c.1.129.18.222.086.557a2.566,2.566,0,0,1-.147.372c-.088.19-.156.34-.089.446.049.077.166.113.369.113.487,0,.742.406,1.066.921.1.162.207.329.329.5s.23.236.344.236c.189,0,.334-.21.489-.432.135-.193.275-.394.44-.447.478-.154.671-.5.825-1.476.015-.1.054-.358.085-.481.01.049.022.12.034.189s.026.154.042.24c.022.114.035.242.049.367.035.337.069.657.269.657a.4.4,0,0,0,.245-.123,2.608,2.608,0,0,0,.542-.806c.112-.225.209-.42.3-.42a.953.953,0,0,1,.492.358,1.286,1.286,0,0,1,.319,1.031.983.983,0,0,1-.07.265,1.564,1.564,0,0,1-.094-.257,2.775,2.775,0,0,0-.239-.591c-.085-.138-.156-.2-.23-.2s-.153.087-.236.2a1.281,1.281,0,0,1-.293.3c-.251.171-.269.193-.269.338a1.244,1.244,0,0,1-.029.3c-.022.108-.127.154-.349.154-.082,0-.171-.006-.264-.012s-.195-.013-.289-.013c-.241,0-.522.038-.563.342a1.347,1.347,0,0,0,.033.54c.01.038.021.082.013.091a.9.9,0,0,1-.311.022H3.972c-.307,0-.4,0-.429.06s.016.1.1.214a3.23,3.23,0,0,1,.346.555.72.72,0,0,1,.1.417l-.019.124.084-.094A2.177,2.177,0,0,1,4.7,33.4l.01-.006a.243.243,0,0,1,.076.221l-.014.056c-.049.2-.079.312-.022.385.1.122.367.06,1.225-.123l.08-.018c.507-.109.578-.185.577-.25,0-.093-.165-.134-.415-.186l-.01,0c.069-.007.12-.014.161-.019a.831.831,0,0,1,.1-.011c.038,0,.055.012.132.063.054.037.137.092.275.171a.564.564,0,0,0,.231.1.075.075,0,0,0,.056-.024c.035-.037.028-.1.016-.238a3.368,3.368,0,0,1,.079-1.161c.031-.133.055-.24.075-.327.024-.1.043-.187.056-.235.006.011.012.024.017.037a1.5,1.5,0,0,0,.512.652c.454.322.459.333.5.43a1.524,1.524,0,0,0,.2.343c.091.126.159.183.22.183.142,0,.15-.275.16-.623,0-.124.007-.252.018-.361a.527.527,0,0,1,.037-.192.688.688,0,0,1,.087.106,1.463,1.463,0,0,0,.186.216c.071.061.126.063.158.022.049-.067.013-.257-.075-.56l.129-.171a1.645,1.645,0,0,0,.536-.156,4.514,4.514,0,0,1,.62.149c.024.072-.008.123-.073.215l0,.007a2.274,2.274,0,0,1-.219.236,1.785,1.785,0,0,0-.538.8c-.062.216-.067.333-.019.4s.143.08.261.091c.049,0,.1.008.158.019a.109.109,0,0,0,.113-.034c.045-.06.012-.177-.029-.322-.049-.17-.109-.38-.031-.486a.252.252,0,0,1,.213-.075c.479,0,.736.4,1.06.909.1.164.213.332.337.5a.508.508,0,0,0,.4.263.587.587,0,0,0,.349-.144l.171.193c.061.064.111.121.151.171-.1-.013-.212-.031-.324-.052a3.923,3.923,0,0,0-.679-.077c-.3,0-.4,0-.426.059s.017.106.1.216a3.27,3.27,0,0,1,.348.553.787.787,0,0,1,.1.424l-.017.117.082-.086a2.135,2.135,0,0,1,.542-.38c.111-.059.205-.11.28-.153a.949.949,0,0,0-.188.366l-.011.045c-.055.2-.088.327-.029.4a.223.223,0,0,0,.188.064,1.92,1.92,0,0,0,.3-.034c.005.346.018.834.031,1.306.016.632.032,1.228.032,1.517,0,.525-.061,1.747-.152,2.613l-11.4-2.061c-.346-.289-.768-.5-.941-.935M-1.4,37.6V36.307h.675c.4-.008.557.346.872.706v1.1A16.231,16.231,0,0,1-1.4,37.6m1.224,19.91C-.6,57.248-1.419,56.3-1.4,55.788V49.176a3.476,3.476,0,0,1,1.224.872Zm-6.471-2.414c-.028-.942,2.144-2.1,2.975-2.51a6.213,6.213,0,0,0,.689,3.131c1.946,2.712,6.057,4.772,6.057,6.62,0,1.235-1.8,1.9-2.726,2.357,0,0-.008-1.719-.008-1.948,0-2.269-6.9-4.825-6.987-7.65m6.32,11.941a3.585,3.585,0,0,1-1.231-.882V61.543c.577.336,1.247,1.006,1.231,1.425Zm.016,5.444c0,.409-.156,1.833-.169,2.878,0,0,.013.205-.388.205s-.694-.285-.855-.8V70.073c1.3.016,1.412,1.877,1.412,2.406m.425-2.134C-1.33,69.177-4.6,67.91-4.9,66.239c-.129-.768.976-1.087,1.739-1.3A4.275,4.275,0,0,0-1.3,67.333c.517.323,3.086,1.876,3.033,2.906-.04.84-.662.916-1.523,1.647a5.318,5.318,0,0,0-.1-1.541M-2.453,41.478a11.7,11.7,0,0,1-1.881-.337l-.263.272c1.065,2.28,8.255,5.889,8.255,8.67,0,1.337-2.418,2.265-2.976,2.58a7.1,7.1,0,0,0-.193-2.726c-.5-2-8.59-5.643-8.59-8.46,0-2.511,2.572-3.512,4.061-3.512A9.612,9.612,0,0,1,1.173,39.85a4.971,4.971,0,0,1-3.625,1.627m2.7,2.336c.3,0,1.353-1.343,3.11-1.574A16.379,16.379,0,0,1,.723,45.315c-.31-.246-2.142-1.542-2.142-2.086,0-.417.162-.667.181-1.227.215-.024.557-.194,1.264-.352C.053,42.22.01,43.063,0,43.685c0,0-.148.129.251.129m14.924-6.175a1.675,1.675,0,0,1,.6-1.583,3.273,3.273,0,0,0,.3-.337.436.436,0,0,0,.191.08.077.077,0,0,0,.058-.024c.036-.038.03-.113.019-.246,0-.064-.011-.144-.014-.236.076-.125.111-.135.186-.153a1.41,1.41,0,0,0,.629-.389l.126-.109c.269.195.276.213.31.294a1.572,1.572,0,0,0,.2.338.854.854,0,0,0,.709.34c.379,0,.683-.2.708-.475a.913.913,0,0,1,.035-.2.481.481,0,0,1,.1.11,1.335,1.335,0,0,0,.184.213c.07.061.126.065.156.022s.022-.224-.075-.557l.279-.364a3.675,3.675,0,0,1,1.02.192,8.612,8.612,0,0,1,2.011,1.93.171.171,0,0,0,.158.177c.185.209.358.408.51.583.207.238.37.426.475.538.34.357.337.475.332.671a1.414,1.414,0,0,0,.043.44,14.467,14.467,0,0,1,.031,2.445c-.011.329-.021.611-.021.794,0,.333-.041.864-.1,1.4L15.26,41.891c-.013-.352-.021-.774-.031-1.3l-.005-.281c-.019-.852,0-1.2.007-1.458a6.254,6.254,0,0,0-.06-1.217m9.391-3.3c.131.268.312.759.489,1.238.085.23.172.465.256.68a.153.153,0,0,0-.07-.02.281.281,0,0,0-.266.118c-.135.236.167.762.489,1.318.116.2.236.411.325.592a.7.7,0,0,1,.092.415c-.021.055-.049.063-.07.063a.368.368,0,0,1-.152-.058.32.32,0,0,0-.13-.049,6.1,6.1,0,0,1-.944-2.32,5.06,5.06,0,0,1,.008-.608,7.059,7.059,0,0,0-.027-1.368m12,10.485c.008.281.018.6.025.93L26.429,43.912c0-.091,0-.174-.005-.271l-.006-.3c-.016-.881,0-1.174.014-1.348a4.822,4.822,0,0,0-.059-1.015,1.592,1.592,0,0,1,.483-1.47.025.025,0,0,0,.007.013l.013.018h.02c.022,0,.046,0,.089-.167L27,39.3a1.7,1.7,0,0,1,1.207-.814,2.069,2.069,0,0,1,.427-.055c.436,0,.467.236.5.462.02.159.043.324.238.324h.036c.106-.01.179-.02.233-.028a.746.746,0,0,1,.1-.01c.038,0,.056.011.135.064.053.037.135.092.266.171a.563.563,0,0,0,.233.106.071.071,0,0,0,.055-.024c.035-.038.029-.106.017-.24a3.379,3.379,0,0,1,.075-1.158c.032-.134.058-.242.078-.328s.043-.185.057-.231c.006.011.011.024.016.036a1.508,1.508,0,0,0,.514.656c.456.322.46.33.5.428a1.583,1.583,0,0,0,.2.346c.091.123.159.178.221.178.143,0,.152-.27.161-.614,0-.126.008-.257.02-.366a.359.359,0,0,0-.2-.4A3.388,3.388,0,0,0,32,37.454l.285-.355a3.5,3.5,0,0,1,1.015.186,10.121,10.121,0,0,1,2.043,2.268c.34.444.635.828.808,1.009.359.379.364.45.379.64a1.985,1.985,0,0,0,.06.381,6.15,6.15,0,0,1,0,1.577c-.022.3-.043.59-.043.819,0,.173.009.466.019.84m1.582-4.135a5.344,5.344,0,0,0-.386-2c-.4-.919-.456-.973-.828-1.282h0l.005-.028c.085-.364.171-.742.287-1.083a2.645,2.645,0,0,0,.117-.536.529.529,0,0,0,.317-.311.82.82,0,0,0-.112-.626,4.039,4.039,0,0,1,.66.366c.372.254.593.308.715.183s.111-.424.1-.8a3.009,3.009,0,0,1,.1-1.193c.041-.1.077-.191.112-.263a.713.713,0,0,0,.213-.2,1.922,1.922,0,0,1,.416.526c.163.243.367.545.649.917.445.591.442.712.43.735,0,.005-.013.005-.02.005a2.6,2.6,0,0,1-.724-.38c-.092-.057-.178-.113-.251-.156a.275.275,0,0,0-.141-.042c-.212,0-.36.29-.548.656a2.668,2.668,0,0,1-1.044,1.278,1.97,1.97,0,0,1-.635.2c-.087.012-.135.019-.15.062s.02.094.148.245a12.63,12.63,0,0,1,.856,1.138c.5.742.707.956.907.956.15,0,.273-.128.46-.322.1-.1.218-.227.369-.359a5.4,5.4,0,0,0-.349.9,6.014,6.014,0,0,0-.285,1.313.449.449,0,0,1-.109.292,3.489,3.489,0,0,1-1.37.976c-.03,0-.042-.006-.043-.01s.019-.1.043-.162a1.349,1.349,0,0,0,.114-.632c-.01-.106-.014-.225-.02-.364M44.992,24.7a.8.8,0,0,1-.143.119l-.015,0a.25.25,0,0,0-.1-.018,1.63,1.63,0,0,0-.5.13c-.268.1-.439.11-.506.016-.1-.14.022-.491.086-.68.006-.018.01-.034.016-.051l1.531-.022a.437.437,0,0,0-.126.166,1.072,1.072,0,0,1-.239.343m1.862,2.971a3.69,3.69,0,0,0-.479.676.25.25,0,0,0-.1-.027c-.139-.02-.191-.12-.257-.246a.591.591,0,0,0-.4-.367,1.274,1.274,0,0,0-.315-.034c-.053,0-.107,0-.16,0s-.1,0-.151,0a.789.789,0,0,1-.537-.168c-.088-.073-.13-.133-.123-.176.016-.08.2-.138.4-.2.076-.024.157-.05.235-.079l.023-.007,2.328.129a6.413,6.413,0,0,0-.463.493m-.293,9.06c-.122.232-1.271.334-1.781.357a5.12,5.12,0,0,0,.514-1.445,1.091,1.091,0,0,1,.22-.636l1.038,1.642a.076.076,0,0,1,.009.082m-.123-3.363-.89-.1a4.535,4.535,0,0,1-.123-2.084c.031-.088.058-.108.065-.108.069,0,.19.4.271.673.168.566.292.935.47.935a.158.158,0,0,0,.108-.052l1.15-.374Zm.062-9.194a.757.757,0,0,0-.114.154c-.088.177-.171.266-.246.266s-.159-.091-.245-.186a.863.863,0,0,0-.269-.221Zm7.045-.245-5.977.085a.352.352,0,0,0-.34-.242.991.991,0,0,0-.567.254l-2.8.04c.06-.284-.018-.478-.409-.618a.538.538,0,0,0-.18-.033c-.272,0-.463.233-.631.439-.047.058-.092.112-.137.16a.437.437,0,0,0-.047.072h-.118a2.314,2.314,0,0,0-.2-.323c-.436-.59-.356-.732-.234-.947.017-.031.035-.071.052-.106L53.5,22.142c.028.593.037,1.19.046,1.788M-1.25-30.984A55.742,55.742,0,0,0-56.93,24.7,55.744,55.744,0,0,0-1.25,80.377,55.745,55.745,0,0,0,54.431,24.7,55.743,55.743,0,0,0-1.25-30.984" transform="translate(56.93 30.984)"/>
        </g>
      </g>
      <g id="Group_5064" data-name="Group 5064" transform="translate(136.795 146.677)">
        <g id="Group_5063" data-name="Group 5063" transform="translate(0 0)">
          <path id="Path_3217" data-name="Path 3217" class="cls-3" d="M2.25,2.122q.31,0,.586-.02a1.491,1.491,0,0,0,.492-.114.772.772,0,0,0,.343-.29A.989.989,0,0,0,3.8,1.153.852.852,0,0,0,3.684.681a.771.771,0,0,0-.3-.269A1.3,1.3,0,0,0,2.971.284,3.283,3.283,0,0,0,2.506.25H1.295V2.122Zm.4-2.613A2.41,2.41,0,0,1,4.21-.073a1.548,1.548,0,0,1,.505,1.266A1.43,1.43,0,0,1,4.27,2.358a1.989,1.989,0,0,1-1.1.438L4.85,5.4H3.866l-1.6-2.532h-.97V5.4H.378V-.491ZM-1.5,4.149A4.191,4.191,0,0,0-.625,5.516a4.056,4.056,0,0,0,1.32.909,4.1,4.1,0,0,0,1.65.33,4.027,4.027,0,0,0,1.63-.33,4.075,4.075,0,0,0,1.313-.909,4.2,4.2,0,0,0,.875-1.367,4.565,4.565,0,0,0,.317-1.717A4.441,4.441,0,0,0,6.163.749,4.16,4.16,0,0,0,5.288-.606a4.138,4.138,0,0,0-1.313-.9,4.027,4.027,0,0,0-1.63-.33A4.109,4.109,0,0,0-.625-.606,4.15,4.15,0,0,0-1.5.749a4.441,4.441,0,0,0-.317,1.684A4.565,4.565,0,0,0-1.5,4.149m-.828-3.7a5,5,0,0,1,1.1-1.589A5.115,5.115,0,0,1,.385-2.194a5.05,5.05,0,0,1,1.96-.384A5,5,0,0,1,4.3-2.194,5.014,5.014,0,0,1,6.991.452a4.85,4.85,0,0,1,.4,1.98,4.958,4.958,0,0,1-.4,2.013A5.1,5.1,0,0,1,5.9,6.048,4.891,4.891,0,0,1,4.3,7.106a5.078,5.078,0,0,1-1.953.377,5.129,5.129,0,0,1-1.96-.377A4.953,4.953,0,0,1-1.231,6.048a5.043,5.043,0,0,1-1.1-1.6,4.97,4.97,0,0,1-.4-2.013,4.862,4.862,0,0,1,.4-1.98" transform="translate(2.733 2.578)"/>
        </g>
      </g>
    </g>
  </g>
</svg>
