<svg xmlns="http://www.w3.org/2000/svg" xmlns:xlink="http://www.w3.org/1999/xlink" width="523.999" height="346.5" viewBox="0 0 523.999 346.5">
  <defs>
    <clipPath id="clip-path">
      <path id="Path_3236" data-name="Path 3236" d="M0,38.977H261.759v-231H0Z" transform="translate(0 192.023)" fill="none"/>
    </clipPath>
  </defs>
  <g id="Group_5931" data-name="Group 5931" transform="translate(-678 -2171.023)">
    <g id="Group_5100" data-name="Group 5100" transform="translate(678 2363.046)">
      <path id="Path_3234" data-name="Path 3234" d="M.125,38.852H261.633V-191.9H.125Z" transform="translate(0)" fill="#fff"/>
      <g id="Group_5099" data-name="Group 5099" transform="translate(0 -192.023)" clip-path="url(#clip-path)">
        <path id="Path_3235" data-name="Path 3235" d="M.125,38.8H261.562V-191.9H.125Z" transform="translate(0.036 192.048)" fill="none" stroke="#c6c9ce" stroke-width="0.25"/>
      </g>
    </g>
    <g id="Group_5101" data-name="Group 5101" transform="translate(930.758 2364.046)">
      <path id="Path_3237" data-name="Path 3237" d="M9,37.977H271.241v-231H9Z" transform="translate(0 0)" fill="#42454a"/>
    </g>
    <g id="Group_5102" data-name="Group 5102" transform="translate(678 2594.179)">
      <path id="Path_3238" data-name="Path 3238" d="M0-76.656H261.759v-115.5H0Z" fill="#d1d3d8"/>
    </g>
    <g id="Group_5103" data-name="Group 5103" transform="translate(939.758 2594.179)">
      <path id="Path_3239" data-name="Path 3239" d="M0-76.656H262.241v-115.5H0Z" fill="#f3f3f4"/>
    </g>
    <g id="Group_5104" data-name="Group 5104" transform="translate(689 2259.468)">
      <path id="Path_3824" data-name="Path 3824" d="M.083-6.631,1.87,0H3.911L5-3.633,6.1,0H8.14L9.927-6.631H8.306L7.012-1.7,5.645-6.533H4.365L3-1.7,1.7-6.631ZM12.247,0V-2.607a.744.744,0,0,1,.781-.771.756.756,0,0,1,.786.771V0h1.538V-3.047a1.682,1.682,0,0,0-1.733-1.738,1.886,1.886,0,0,0-1.377.5V-6.875H10.7V0Zm4.317-6.128a.8.8,0,0,0,.84.84.807.807,0,0,0,.85-.84.809.809,0,0,0-.85-.845A.8.8,0,0,0,16.563-6.128Zm.1,1.44V0H18.2V-4.687ZM19.02-3.433h.747V-1.67A1.634,1.634,0,0,0,21.618.1a3,3,0,0,0,1.245-.264l-.107-1.25A2.265,2.265,0,0,1,22-1.255c-.405,0-.693-.156-.693-.664V-3.433h1.372V-4.687H21.256v-1.5H19.767v1.5H19.02Zm4.19,1.089A2.377,2.377,0,0,0,25.729.1,2.383,2.383,0,0,0,27.775-.923L26.8-1.782a1.407,1.407,0,0,1-1.05.581.949.949,0,0,1-1.035-.747h3.164a3.632,3.632,0,0,0,.044-.547,2.214,2.214,0,0,0-2.344-2.29A2.3,2.3,0,0,0,23.21-2.344Zm2.412-1.23a.841.841,0,0,1,.879.723H24.714A.854.854,0,0,1,25.622-3.574Z" transform="translate(9 -61.445)" fill="#42454a"/>
      <g id="Group">
        <path id="Path_3825" data-name="Path 3825" d="M.34-2.652A2.7,2.7,0,0,0,3.086.078,2.7,2.7,0,0,0,5.418-1.211L4.8-1.637A2.023,2.023,0,0,1,3.086-.7,1.855,1.855,0,0,1,1.2-2.652,1.844,1.844,0,0,1,3.066-4.605a1.957,1.957,0,0,1,1.7.961L5.4-4.09A2.7,2.7,0,0,0,3.066-5.383,2.686,2.686,0,0,0,.34-2.652ZM6.309,0h.828V-3.8L8.82-.375h.586L11.09-3.8V0h.828V-5.3h-.969L9.113-1.531,7.281-5.3H6.309Zm6.355-5.3,2.012,3.266V0h.816V-2.039L17.5-5.3h-.977l-1.445,2.4L13.641-5.3ZM18.25,0h.82V-1.6l.918-.988L21.691,0h1L20.566-3.141,22.559-5.3H21.5L19.07-2.668V-5.3h-.82Z" transform="translate(9 -47.934)" fill="#42454a"/>
        <path id="Path_3826" data-name="Path 3826" d="M.488-3.348a.469.469,0,0,0,.477.477.472.472,0,0,0,.48-.477.475.475,0,0,0-.48-.48A.472.472,0,0,0,.488-3.348ZM.488-.4A.469.469,0,0,0,.965.078.472.472,0,0,0,1.445-.4a.475.475,0,0,0-.48-.48A.472.472,0,0,0,.488-.4ZM6.27.078c1.293,0,2.113-1.066,2.113-2.73s-.82-2.73-2.113-2.73-2.117,1.07-2.117,2.73S4.977.078,6.27.078Zm0-4.687c.773,0,1.293.758,1.293,1.957S7.043-.7,6.27-.7s-1.3-.75-1.3-1.953S5.492-4.609,6.27-4.609Zm5,4.688c1.293,0,2.113-1.066,2.113-2.73s-.82-2.73-2.113-2.73-2.117,1.07-2.117,2.73S9.973.078,11.266.078Zm0-4.687c.773,0,1.293.758,1.293,1.957S12.039-.7,11.266-.7s-1.3-.75-1.3-1.953S10.488-4.609,11.266-4.609ZM19.34-5.973H18.5L15.434,1.563h.836ZM23.5.078c1.293,0,2.113-1.066,2.113-2.73s-.82-2.73-2.113-2.73-2.117,1.07-2.117,2.73S22.211.078,23.5.078Zm0-4.687c.773,0,1.293.758,1.293,1.957S24.277-.7,23.5-.7s-1.3-.75-1.3-1.953S22.727-4.609,23.5-4.609Zm5,4.688c1.293,0,2.113-1.066,2.113-2.73s-.82-2.73-2.113-2.73-2.117,1.07-2.117,2.73S27.207.078,28.5.078Zm0-4.687c.773,0,1.293.758,1.293,1.957S29.273-.7,28.5-.7s-1.3-.75-1.3-1.953S27.723-4.609,28.5-4.609Zm8.074-1.363h-.84L32.668,1.563H33.5ZM40.738.078c1.293,0,2.113-1.066,2.113-2.73s-.82-2.73-2.113-2.73-2.117,1.07-2.117,2.73S39.445.078,40.738.078Zm0-4.687c.773,0,1.293.758,1.293,1.957S41.512-.7,40.738-.7s-1.3-.75-1.3-1.953S39.961-4.609,40.738-4.609Zm5,4.688c1.293,0,2.113-1.066,2.113-2.73s-.82-2.73-2.113-2.73-2.117,1.07-2.117,2.73S44.441.078,45.734.078Zm0-4.687c.773,0,1.293.758,1.293,1.957S46.508-.7,45.734-.7s-1.3-.75-1.3-1.953S44.957-4.609,45.734-4.609Zm8.074-1.363h-.84L49.9,1.563h.836ZM57.973.078c1.293,0,2.113-1.066,2.113-2.73s-.82-2.73-2.113-2.73-2.117,1.07-2.117,2.73S56.68.078,57.973.078Zm0-4.687c.773,0,1.293.758,1.293,1.957S58.746-.7,57.973-.7s-1.3-.75-1.3-1.953S57.2-4.609,57.973-4.609Zm5,4.688c1.293,0,2.113-1.066,2.113-2.73s-.82-2.73-2.113-2.73-2.117,1.07-2.117,2.73S61.676.078,62.969.078Zm0-4.687c.773,0,1.293.758,1.293,1.957S63.742-.7,62.969-.7s-1.3-.75-1.3-1.953S62.191-4.609,62.969-4.609Z" transform="translate(32.233 -47.934)" fill="#42454a"/>
        <path id="Path_3827" data-name="Path 3827" d="M.688-5.3V0h.82V-2.082H2.832L4.031,0h.953L3.7-2.2a1.529,1.529,0,0,0,1.074-1.5A1.6,1.6,0,0,0,2.969-5.3Zm2.242.738c.652,0,.988.344.988.871s-.336.879-.988.879H1.508v-1.75ZM8.25.078a2.449,2.449,0,0,0,2.57-2.543,2.768,2.768,0,0,0-.016-.309H8.125v.742H9.953A1.582,1.582,0,0,1,8.25-.7,1.858,1.858,0,0,1,6.359-2.652,1.847,1.847,0,0,1,8.23-4.605a1.9,1.9,0,0,1,1.629.871L10.5-4.18a2.66,2.66,0,0,0-2.266-1.2A2.686,2.686,0,0,0,5.5-2.652,2.7,2.7,0,0,0,8.25.078Zm6-.078a1.565,1.565,0,0,0,1.66-1.535,1.3,1.3,0,0,0-.781-1.215,1.252,1.252,0,0,0,.582-1.07A1.5,1.5,0,0,0,14.1-5.3H11.809V0ZM12.633-3.047V-4.574H14.1a.761.761,0,0,1,.789.773.751.751,0,0,1-.789.754Zm0,.691h1.621a.821.821,0,0,1,.848.8.809.809,0,0,1-.848.816H12.633Zm4.121-.992a.469.469,0,0,0,.477.477.472.472,0,0,0,.48-.477.475.475,0,0,0-.48-.48A.472.472,0,0,0,16.754-3.348Zm0,2.949a.469.469,0,0,0,.477.477.472.472,0,0,0,.48-.477.475.475,0,0,0-.48-.48A.472.472,0,0,0,16.754-.4Zm3.574-3.75.691.332a1.157,1.157,0,0,1,1.063-.789.86.86,0,0,1,.934.867c0,.52-.406.852-1.059,1.352s-1.551,1.1-1.551,2.031V0h3.555V-.777H21.355c.016-.219.59-.656,1.035-.992.7-.531,1.484-.961,1.484-1.984a1.646,1.646,0,0,0-1.793-1.629A1.875,1.875,0,0,0,20.328-4.148ZM26.406.078a1.767,1.767,0,0,0,1.906-1.742,1.7,1.7,0,0,0-1.828-1.742,1.347,1.347,0,0,0-.82.246l.129-1.367h2.262V-5.3H25.09l-.25,2.754.621.254a1.389,1.389,0,0,1,.961-.387.982.982,0,0,1,1.051,1.02.979.979,0,0,1-1.051.973,1.234,1.234,0,0,1-1.172-.82l-.684.379A1.905,1.905,0,0,0,26.406.078Zm4.313,0a1.767,1.767,0,0,0,1.906-1.742A1.7,1.7,0,0,0,30.8-3.406a1.347,1.347,0,0,0-.82.246l.129-1.367h2.262V-5.3H29.4l-.25,2.754.621.254a1.389,1.389,0,0,1,.961-.387.982.982,0,0,1,1.051,1.02.979.979,0,0,1-1.051.973,1.234,1.234,0,0,1-1.172-.82l-.684.379A1.905,1.905,0,0,0,30.719.078Zm7.8-6.051h-.84L34.617,1.563h.836ZM40.48-4.148l.691.332a1.157,1.157,0,0,1,1.063-.789.86.86,0,0,1,.934.867c0,.52-.406.852-1.059,1.352s-1.551,1.1-1.551,2.031V0h3.555V-.777H41.508c.016-.219.59-.656,1.035-.992.7-.531,1.484-.961,1.484-1.984a1.646,1.646,0,0,0-1.793-1.629A1.875,1.875,0,0,0,40.48-4.148ZM46.559.078a1.767,1.767,0,0,0,1.906-1.742,1.7,1.7,0,0,0-1.828-1.742,1.347,1.347,0,0,0-.82.246l.129-1.367h2.262V-5.3H45.242l-.25,2.754.621.254a1.389,1.389,0,0,1,.961-.387.982.982,0,0,1,1.051,1.02.979.979,0,0,1-1.051.973,1.234,1.234,0,0,1-1.172-.82l-.684.379A1.905,1.905,0,0,0,46.559.078Zm4.313,0a1.767,1.767,0,0,0,1.906-1.742,1.7,1.7,0,0,0-1.828-1.742,1.347,1.347,0,0,0-.82.246l.129-1.367H52.52V-5.3H49.555L49.3-2.551l.621.254a1.389,1.389,0,0,1,.961-.387.982.982,0,0,1,1.051,1.02.979.979,0,0,1-1.051.973,1.234,1.234,0,0,1-1.172-.82l-.684.379A1.905,1.905,0,0,0,50.871.078Zm7.8-6.051h-.84L54.77,1.563h.836Zm1.957,1.824.691.332a1.157,1.157,0,0,1,1.063-.789.86.86,0,0,1,.934.867c0,.52-.406.852-1.059,1.352s-1.551,1.1-1.551,2.031V0h3.555V-.777H61.66c.016-.219.59-.656,1.035-.992.7-.531,1.484-.961,1.484-1.984a1.646,1.646,0,0,0-1.793-1.629A1.875,1.875,0,0,0,60.633-4.148ZM66.711.078a1.767,1.767,0,0,0,1.906-1.742,1.7,1.7,0,0,0-1.828-1.742,1.347,1.347,0,0,0-.82.246L66.1-4.527h2.262V-5.3H65.395l-.25,2.754.621.254a1.389,1.389,0,0,1,.961-.387.982.982,0,0,1,1.051,1.02.979.979,0,0,1-1.051.973,1.234,1.234,0,0,1-1.172-.82l-.684.379A1.905,1.905,0,0,0,66.711.078Zm4.313,0A1.767,1.767,0,0,0,72.93-1.664,1.7,1.7,0,0,0,71.1-3.406a1.347,1.347,0,0,0-.82.246l.129-1.367h2.262V-5.3H69.707l-.25,2.754.621.254a1.389,1.389,0,0,1,.961-.387.982.982,0,0,1,1.051,1.02.979.979,0,0,1-1.051.973,1.234,1.234,0,0,1-1.172-.82l-.684.379A1.905,1.905,0,0,0,71.023.078Z" transform="translate(9 -38.334)" fill="#42454a"/>
        <path id="Path_3831" data-name="Path 3831" d="M.117-5.3,1.594,0H2.918L3.98-3.93,5.047,0H6.371L7.848-5.3H7.023L5.707-.738,4.422-5.219H3.543L2.258-.738.938-5.3Z" transform="translate(9 -28.734)" fill="#42454a"/>
        <path id="Path_3830" data-name="Path 3830" d="M.688,0h3.8V-.746H1.508V-2.352H4V-3.1H1.508V-4.559h2.9V-5.3H.688Z" transform="translate(17.063 -28.734)" fill="#42454a"/>
        <path id="Path_3829" data-name="Path 3829" d="M3.133,0a1.565,1.565,0,0,0,1.66-1.535A1.3,1.3,0,0,0,4.012-2.75a1.252,1.252,0,0,0,.582-1.07A1.5,1.5,0,0,0,2.977-5.3H.688V0ZM1.512-3.047V-4.574H2.977a.761.761,0,0,1,.789.773.751.751,0,0,1-.789.754Zm0,.691H3.133a.821.821,0,0,1,.848.8.809.809,0,0,1-.848.816H1.512Z" transform="translate(22.001 -28.734)" fill="#42454a"/>
        <path id="Path_3832" data-name="Path 3832" d="M.488-3.348a.469.469,0,0,0,.477.477.472.472,0,0,0,.48-.477.475.475,0,0,0-.48-.48A.472.472,0,0,0,.488-3.348ZM.488-.4A.469.469,0,0,0,.965.078.472.472,0,0,0,1.445-.4a.475.475,0,0,0-.48-.48A.472.472,0,0,0,.488-.4Z" transform="translate(27.227 -28.734)" fill="#42454a"/>
        <path id="Path_3828" data-name="Path 3828" d="M3.031-3.094V0H3.8V-3.094H4.9V-3.75H3.793v-.363c0-.543.234-.785.738-.785a1.385,1.385,0,0,1,.5.1l.082-.641A1.365,1.365,0,0,0,4.5-5.578,1.33,1.33,0,0,0,3.043-4.156v.406H2.324v.656Zm3.179,0V0h.773V-3.094H8.077V-3.75H6.972v-.363c0-.543.234-.785.738-.785a1.385,1.385,0,0,1,.5.1L8.3-5.441a1.365,1.365,0,0,0-.621-.137A1.33,1.33,0,0,0,6.222-4.156v.406H5.5v.656Zm3.179,0V0h.773V-3.094h1.094V-3.75H10.151v-.363c0-.543.234-.785.738-.785a1.385,1.385,0,0,1,.5.1l.082-.641a1.365,1.365,0,0,0-.621-.137A1.33,1.33,0,0,0,9.4-4.156v.406H8.683v.656Zm3.179,0V0h.773V-3.094h1.094V-3.75H13.331v-.363c0-.543.234-.785.738-.785a1.385,1.385,0,0,1,.5.1l.082-.641a1.365,1.365,0,0,0-.621-.137,1.33,1.33,0,0,0-1.453,1.422v.406h-.719v.656Zm3.179,0V0h.773V-3.094h1.094V-3.75H16.51v-.363c0-.543.234-.785.738-.785a1.385,1.385,0,0,1,.5.1l.082-.641a1.365,1.365,0,0,0-.621-.137A1.33,1.33,0,0,0,15.76-4.156v.406h-.719v.656Zm3.179,0V0H19.7V-3.094H20.8V-3.75H19.69v-.363c0-.543.234-.785.738-.785a1.385,1.385,0,0,1,.5.1l.082-.641a1.365,1.365,0,0,0-.621-.137A1.33,1.33,0,0,0,18.94-4.156v.406h-.719v.656Z" transform="translate(29.161 -28.734)" fill="#42454a"/>
      </g>
    </g>
    <g id="Group_5105" data-name="Group 5105" transform="translate(950.76 2259.468)">
      <path id="Path_3838" data-name="Path 3838" d="M.361-3.32A3.4,3.4,0,0,0,3.857.1,3.15,3.15,0,0,0,7.183-3a6.924,6.924,0,0,0-.029-.693H3.7v1.348H5.449a1.547,1.547,0,0,1-1.592.938A1.8,1.8,0,0,1,2.007-3.32a1.8,1.8,0,0,1,1.851-1.9,1.923,1.923,0,0,1,1.611.9L6.7-5.239A3.5,3.5,0,0,0,3.857-6.729,3.392,3.392,0,0,0,.361-3.32ZM9.707,0V-2.256c0-.874.493-1.191,1.074-1.191a1.792,1.792,0,0,1,.591.1l.093-1.343a1.848,1.848,0,0,0-.571-.1,1.315,1.315,0,0,0-1.226.737l-.049-.64H8.169V0ZM13.54.1a1.555,1.555,0,0,0,1.25-.576V0h1.46V-2.783c0-1.25-.859-2-2.285-2a2.888,2.888,0,0,0-2.109.967l.85.913a1.546,1.546,0,0,1,1.128-.522c.557,0,.879.269.879.635V-2.7a3.542,3.542,0,0,0-.937-.122c-1.064,0-1.982.562-1.982,1.494C11.792-.439,12.549.1,13.54.1Zm-.273-1.519c0-.3.3-.469.781-.469a1.83,1.83,0,0,1,.664.122.792.792,0,0,1-.835.815C13.521-.952,13.267-1.143,13.267-1.421ZM18.691,0a.918.918,0,0,1-.913.718A1.349,1.349,0,0,1,17.231.6l-.21,1.211a2.3,2.3,0,0,0,1.011.244A2.051,2.051,0,0,0,20.024.688L22.2-4.687H20.479l-.967,3.135-.991-3.135H16.807Zm9.756-3.267h-3.56V-2.07h3.56Zm2.6-1.987h1.963V0h1.6V-5.249h1.958V-6.631H31.045Zm6.172-.879a.8.8,0,0,0,.84.84.807.807,0,0,0,.85-.84.809.809,0,0,0-.85-.845A.8.8,0,0,0,37.217-6.128Zm.1,1.44V0h1.538V-4.687ZM41.611,0V-2.607a.744.744,0,0,1,.781-.771.756.756,0,0,1,.786.771V0h1.538V-3.047a1.682,1.682,0,0,0-1.733-1.738,1.82,1.82,0,0,0-1.45.591l-.049-.493H40.073V0Zm3.657-3.433h.747V-1.67A1.634,1.634,0,0,0,47.866.1a3,3,0,0,0,1.245-.264L49-1.416a2.265,2.265,0,0,1-.757.161c-.405,0-.693-.156-.693-.664V-3.433h1.372V-4.687H47.5v-1.5H46.016v1.5h-.747ZM51.9-1.86C51.9-.469,53.149.1,54.438.1s2.544-.562,2.544-1.958a1.7,1.7,0,0,0-1.064-1.6,1.511,1.511,0,0,0,.928-1.416c0-1.3-1.152-1.851-2.407-1.851s-2.4.542-2.4,1.851a1.511,1.511,0,0,0,.928,1.416A1.7,1.7,0,0,0,51.9-1.86Zm1.724-2.876a.76.76,0,0,1,.815-.752.76.76,0,0,1,.815.752.793.793,0,0,1-.815.806A.775.775,0,0,1,53.623-4.736ZM54.438-2.8a.858.858,0,0,1,.938.835.857.857,0,0,1-.937.815.857.857,0,0,1-.937-.815A.858.858,0,0,1,54.438-2.8ZM60.576.1c1.948,0,2.783-1.484,2.783-3.364,0-1.753-.757-3.462-2.783-3.462-1.968,0-2.788,1.577-2.788,3.462S58.628.1,60.576.1Zm-1.2-3.418c0-.991.278-2.017,1.2-2.017.9,0,1.2.952,1.2,2.017,0,.986-.273,2.026-1.2,2.026C59.678-1.294,59.375-2.256,59.375-3.32Zm6.47.249a1.791,1.791,0,0,0,1.86-1.816,1.8,1.8,0,0,0-1.86-1.841,1.794,1.794,0,0,0-1.851,1.841A1.782,1.782,0,0,0,65.845-3.071Zm.127,2.944V0h.815l3.574-6.514v-.117h-.806Zm-.127-5.522a.721.721,0,0,1,.718.762.712.712,0,0,1-.718.742.725.725,0,0,1-.732-.742A.732.732,0,0,1,65.845-5.649ZM70.479.1a1.791,1.791,0,0,0,1.86-1.816,1.8,1.8,0,0,0-1.86-1.841,1.794,1.794,0,0,0-1.851,1.841A1.782,1.782,0,0,0,70.479.1Zm0-2.578a.721.721,0,0,1,.718.762.712.712,0,0,1-.718.742.725.725,0,0,1-.732-.742A.732.732,0,0,1,70.479-2.48Z" transform="translate(9 -61.445)" fill="#fff"/>
      <g id="Group-2" data-name="Group">
        <path id="Path_3837" data-name="Path 3837" d="M1.723,0v-1.82H2.984a1.733,1.733,0,0,0,1.9-1.73,1.724,1.724,0,0,0-1.9-1.75H.664V0Zm0-4.387h1.2a.8.8,0,0,1,.883.836.8.8,0,0,1-.883.816h-1.2ZM6.866.078a1.242,1.242,0,0,0,1.063-.5V0h.953V-2.309c0-.937-.684-1.52-1.781-1.52a2.053,2.053,0,0,0-1.6.781l.574.574a1.328,1.328,0,0,1,.992-.473.74.74,0,0,1,.813.715v.086a2.456,2.456,0,0,0-.789-.129c-1,0-1.645.492-1.645,1.2S6.014.078,6.866.078Zm.3-1.684a1.747,1.747,0,0,1,.719.145.8.8,0,0,1-.859.793c-.383,0-.625-.18-.625-.461S6.705-1.605,7.162-1.605ZM11.063,0V-2.1a.781.781,0,0,1,.832-.8.738.738,0,0,1,.777.8V0h1V-2.355a1.4,1.4,0,0,0-1.48-1.473,1.429,1.429,0,0,0-1.156.512l-.02-.434h-.953V0ZM15-2.918V-1.23A1.224,1.224,0,0,0,16.378.078a2.286,2.286,0,0,0,.906-.187L17.19-.941a1.779,1.779,0,0,1-.637.129A.5.5,0,0,1,16-1.375V-2.918h1.1V-3.75H15.976v-1.2H15v1.2h-.637v.832Zm4.7,3a1.932,1.932,0,0,0,2-1.953,1.934,1.934,0,0,0-2-1.953,1.937,1.937,0,0,0-2,1.953A1.934,1.934,0,0,0,19.7.078ZM18.689-1.875A1,1,0,0,1,19.7-2.918.993.993,0,0,1,20.7-1.875.994.994,0,0,1,19.7-.828,1,1,0,0,1,18.689-1.875ZM23.656,0V-2.1a.781.781,0,0,1,.832-.8.738.738,0,0,1,.777.8V0h1V-2.355a1.4,1.4,0,0,0-1.48-1.473,1.429,1.429,0,0,0-1.156.512l-.02-.434h-.953V0ZM29.15.082a1.934,1.934,0,0,0,1.668-.9l-.711-.531a1.1,1.1,0,0,1-.934.527.987.987,0,0,1-1-.75h2.711A2.72,2.72,0,0,0,30.92-2,1.731,1.731,0,0,0,29.1-3.828a1.872,1.872,0,0,0-1.93,1.949A1.9,1.9,0,0,0,29.15.082Zm-.961-2.328a.881.881,0,0,1,.926-.738.842.842,0,0,1,.871.738ZM34.022,0h2.613a1.494,1.494,0,0,0,1.648-1.473,1.331,1.331,0,0,0-.891-1.285,1.188,1.188,0,0,0,.711-1.1A1.49,1.49,0,0,0,36.463-5.3H34.022Zm2.262-4.4a.658.658,0,0,1,.73.66.629.629,0,0,1-.691.637H35.077V-4.4Zm.18,2.129a.661.661,0,0,1,.7.715.643.643,0,0,1-.7.652H35.077V-2.27ZM40.274-5.5h-1V0h1Zm2.4,5.578a1.242,1.242,0,0,0,1.063-.5V0h.953V-2.309c0-.937-.684-1.52-1.781-1.52a2.053,2.053,0,0,0-1.6.781l.574.574a1.328,1.328,0,0,1,.992-.473.74.74,0,0,1,.813.715v.086a2.456,2.456,0,0,0-.789-.129c-1,0-1.645.492-1.645,1.2S41.823.078,42.675.078Zm.3-1.684a1.747,1.747,0,0,1,.719.145.8.8,0,0,1-.859.793c-.383,0-.625-.18-.625-.461S42.515-1.605,42.972-1.605Zm4.6,1.684A1.936,1.936,0,0,0,49.318-.969L48.6-1.477a1.1,1.1,0,0,1-1,.648,1,1,0,0,1-1-1.035,1.007,1.007,0,0,1,1.02-1.055,1.082,1.082,0,0,1,.965.633l.762-.484A1.917,1.917,0,0,0,47.6-3.84a1.963,1.963,0,0,0-2,1.957A1.941,1.941,0,0,0,47.572.078ZM50.218-5.5V0h.992V-1.117L51.6-1.5,52.707,0h1.238L52.269-2.152l1.641-1.6H52.578l-1.367,1.4V-5.5ZM59.149.078A2.741,2.741,0,0,0,61.532-1.25l-.777-.562A1.892,1.892,0,0,1,59.149-.9a1.649,1.649,0,0,1-1.668-1.754,1.63,1.63,0,0,1,1.641-1.754,1.757,1.757,0,0,1,1.543.941l.832-.594a2.783,2.783,0,0,0-2.375-1.324A2.671,2.671,0,0,0,56.4-2.652,2.7,2.7,0,0,0,59.149.078Z" transform="translate(9 -47.934)" fill="#fff"/>
        <path id="Path_3835" data-name="Path 3835" d="M.34-2.652A2.7,2.7,0,0,0,3.086.078,2.7,2.7,0,0,0,5.418-1.211L4.8-1.637A2.023,2.023,0,0,1,3.086-.7,1.855,1.855,0,0,1,1.2-2.652,1.844,1.844,0,0,1,3.066-4.605a1.957,1.957,0,0,1,1.7.961L5.4-4.09A2.7,2.7,0,0,0,3.066-5.383,2.686,2.686,0,0,0,.34-2.652ZM6.309,0h.828V-3.8L8.82-.375h.586L11.09-3.8V0h.828V-5.3h-.969L9.113-1.531,7.281-5.3H6.309Zm6.355-5.3,2.012,3.266V0h.816V-2.039L17.5-5.3h-.977l-1.445,2.4L13.641-5.3ZM18.25,0h.82V-1.6l.918-.988L21.691,0h1L20.566-3.141,22.559-5.3H21.5L19.07-2.668V-5.3h-.82Z" transform="translate(9 -38.334)" fill="#fff"/>
        <path id="Path_3836" data-name="Path 3836" d="M.488-3.348a.469.469,0,0,0,.477.477.472.472,0,0,0,.48-.477.475.475,0,0,0-.48-.48A.472.472,0,0,0,.488-3.348ZM.488-.4A.469.469,0,0,0,.965.078.472.472,0,0,0,1.445-.4a.475.475,0,0,0-.48-.48A.472.472,0,0,0,.488-.4ZM6.27.078c1.293,0,2.113-1.066,2.113-2.73s-.82-2.73-2.113-2.73-2.117,1.07-2.117,2.73S4.977.078,6.27.078Zm0-4.687c.773,0,1.293.758,1.293,1.957S7.043-.7,6.27-.7s-1.3-.75-1.3-1.953S5.492-4.609,6.27-4.609Zm5,4.688c1.293,0,2.113-1.066,2.113-2.73s-.82-2.73-2.113-2.73-2.117,1.07-2.117,2.73S9.973.078,11.266.078Zm0-4.687c.773,0,1.293.758,1.293,1.957S12.039-.7,11.266-.7s-1.3-.75-1.3-1.953S10.488-4.609,11.266-4.609ZM19.34-5.973H18.5L15.434,1.563h.836ZM23.5.078c1.293,0,2.113-1.066,2.113-2.73s-.82-2.73-2.113-2.73-2.117,1.07-2.117,2.73S22.211.078,23.5.078Zm0-4.687c.773,0,1.293.758,1.293,1.957S24.277-.7,23.5-.7s-1.3-.75-1.3-1.953S22.727-4.609,23.5-4.609Zm5,4.688c1.293,0,2.113-1.066,2.113-2.73s-.82-2.73-2.113-2.73-2.117,1.07-2.117,2.73S27.207.078,28.5.078Zm0-4.687c.773,0,1.293.758,1.293,1.957S29.273-.7,28.5-.7s-1.3-.75-1.3-1.953S27.723-4.609,28.5-4.609Zm8.074-1.363h-.84L32.668,1.563H33.5ZM40.738.078c1.293,0,2.113-1.066,2.113-2.73s-.82-2.73-2.113-2.73-2.117,1.07-2.117,2.73S39.445.078,40.738.078Zm0-4.687c.773,0,1.293.758,1.293,1.957S41.512-.7,40.738-.7s-1.3-.75-1.3-1.953S39.961-4.609,40.738-4.609Zm5,4.688c1.293,0,2.113-1.066,2.113-2.73s-.82-2.73-2.113-2.73-2.117,1.07-2.117,2.73S44.441.078,45.734.078Zm0-4.687c.773,0,1.293.758,1.293,1.957S46.508-.7,45.734-.7s-1.3-.75-1.3-1.953S44.957-4.609,45.734-4.609Zm8.074-1.363h-.84L49.9,1.563h.836Zm3.824,4.125a1.4,1.4,0,0,0,1.258-.625c-.035,1.188-.719,1.8-1.59,1.8a1.874,1.874,0,0,1-.988-.3l-.277.7a2.3,2.3,0,0,0,1.32.359c1.648,0,2.371-1.211,2.371-2.922,0-1.4-.6-2.539-2.043-2.539a1.737,1.737,0,0,0-1.91,1.8A1.69,1.69,0,0,0,57.633-1.848Zm.082-2.82A1.03,1.03,0,0,1,58.758-3.6a1,1,0,0,1-1.047,1.023.968.968,0,0,1-1.1-1.035A1.009,1.009,0,0,1,57.715-4.668ZM62.609.078c1.293,0,2.113-1.066,2.113-2.73s-.82-2.73-2.113-2.73-2.117,1.07-2.117,2.73S61.316.078,62.609.078Zm0-4.687c.773,0,1.293.758,1.293,1.957S63.383-.7,62.609-.7s-1.3-.75-1.3-1.953S61.832-4.609,62.609-4.609Z" transform="translate(32.233 -38.334)" fill="#fff"/>
        <path id="Path_3834" data-name="Path 3834" d="M.688-5.3V0h.82V-2.082H2.832L4.031,0h.953L3.7-2.2a1.529,1.529,0,0,0,1.074-1.5A1.6,1.6,0,0,0,2.969-5.3Zm2.242.738c.652,0,.988.344.988.871s-.336.879-.988.879H1.508v-1.75ZM8.25.078a2.449,2.449,0,0,0,2.57-2.543,2.768,2.768,0,0,0-.016-.309H8.125v.742H9.953A1.582,1.582,0,0,1,8.25-.7,1.858,1.858,0,0,1,6.359-2.652,1.847,1.847,0,0,1,8.23-4.605a1.9,1.9,0,0,1,1.629.871L10.5-4.18a2.66,2.66,0,0,0-2.266-1.2A2.686,2.686,0,0,0,5.5-2.652,2.7,2.7,0,0,0,8.25.078Zm6-.078a1.565,1.565,0,0,0,1.66-1.535,1.3,1.3,0,0,0-.781-1.215,1.252,1.252,0,0,0,.582-1.07A1.5,1.5,0,0,0,14.1-5.3H11.809V0ZM12.633-3.047V-4.574H14.1a.761.761,0,0,1,.789.773.751.751,0,0,1-.789.754Zm0,.691h1.621a.821.821,0,0,1,.848.8.809.809,0,0,1-.848.816H12.633Zm4.121-.992a.469.469,0,0,0,.477.477.472.472,0,0,0,.48-.477.475.475,0,0,0-.48-.48A.472.472,0,0,0,16.754-3.348Zm0,2.949a.469.469,0,0,0,.477.477.472.472,0,0,0,.48-.477.475.475,0,0,0-.48-.48A.472.472,0,0,0,16.754-.4Zm3.461-.969h2.52V0h.809V-1.371h.781V-2.09h-.781V-5.3h-.969L20.215-2.051Zm2.52-2.926v2.2H21.168ZM25.617,0h.82V-5.3H24.605v.742h1.012Zm7.09-5.973h-.84L28.8,1.563h.836Zm1.844,4.605h2.52V0h.809V-1.371h.781V-2.09h-.781V-5.3H36.91L34.551-2.051Zm2.52-2.926v2.2H35.5ZM39.953,0h.82V-5.3H38.941v.742h1.012Zm7.09-5.973H46.2L43.137,1.563h.836Zm1.844,4.605h2.52V0h.809V-1.371H53V-2.09h-.781V-5.3h-.969L48.887-2.051Zm2.52-2.926v2.2H49.84ZM54.289,0h.82V-5.3H53.277v.742h1.012Z" transform="translate(9 -28.734)" fill="#fff"/>
        <path id="Path_3833" data-name="Path 3833" d="M.117-5.3,1.594,0H2.918L3.98-3.93,5.047,0H6.371L7.848-5.3H7.023L5.707-.738,4.422-5.219H3.543L2.258-.738.938-5.3ZM8.8,0h3.8V-.746H9.617V-2.352H12.1V-3.1H9.617V-4.559h2.9V-5.3H8.8Zm7.417,0a1.565,1.565,0,0,0,1.66-1.535,1.3,1.3,0,0,0-.781-1.215,1.252,1.252,0,0,0,.582-1.07A1.5,1.5,0,0,0,16.058-5.3H13.768V0ZM14.593-3.047V-4.574h1.465a.761.761,0,0,1,.789.773.751.751,0,0,1-.789.754Zm0,.691h1.621a.821.821,0,0,1,.848.8.809.809,0,0,1-.848.816H14.593Zm4.265-.992a.469.469,0,0,0,.477.477.472.472,0,0,0,.48-.477.475.475,0,0,0-.48-.48A.472.472,0,0,0,18.858-3.348Zm0,2.949a.469.469,0,0,0,.477.477.472.472,0,0,0,.48-.477.475.475,0,0,0-.48-.48A.472.472,0,0,0,18.858-.4Zm3.862-3.75.691.332a1.157,1.157,0,0,1,1.063-.789.86.86,0,0,1,.934.867c0,.52-.406.852-1.059,1.352S22.8-1.289,22.8-.355V0h3.555V-.777H23.747c.016-.219.59-.656,1.035-.992.7-.531,1.484-.961,1.484-1.984a1.646,1.646,0,0,0-1.793-1.629A1.875,1.875,0,0,0,22.72-4.148Zm6.3,2.3a1.4,1.4,0,0,0,1.258-.625c-.035,1.188-.719,1.8-1.59,1.8a1.874,1.874,0,0,1-.988-.3l-.277.7a2.3,2.3,0,0,0,1.32.359c1.648,0,2.371-1.211,2.371-2.922,0-1.4-.6-2.539-2.043-2.539a1.737,1.737,0,0,0-1.91,1.8A1.69,1.69,0,0,0,29.016-1.848Zm.082-2.82A1.03,1.03,0,0,1,30.141-3.6a1,1,0,0,1-1.047,1.023A.968.968,0,0,1,28-3.609,1.009,1.009,0,0,1,29.1-4.668Zm2.831.52.691.332a1.157,1.157,0,0,1,1.063-.789.86.86,0,0,1,.934.867c0,.52-.406.852-1.059,1.352s-1.551,1.1-1.551,2.031V0h3.555V-.777H32.957c.016-.219.59-.656,1.035-.992.7-.531,1.484-.961,1.484-1.984a1.646,1.646,0,0,0-1.793-1.629A1.875,1.875,0,0,0,31.93-4.148Zm6.3,2.3a1.4,1.4,0,0,0,1.258-.625c-.035,1.188-.719,1.8-1.59,1.8a1.874,1.874,0,0,1-.988-.3l-.277.7a2.3,2.3,0,0,0,1.32.359c1.648,0,2.371-1.211,2.371-2.922,0-1.4-.6-2.539-2.043-2.539a1.737,1.737,0,0,0-1.91,1.8A1.69,1.69,0,0,0,38.226-1.848Zm.082-2.82A1.03,1.03,0,0,1,39.351-3.6,1,1,0,0,1,38.3-2.574a.968.968,0,0,1-1.1-1.035A1.009,1.009,0,0,1,38.308-4.668Zm2.832.52.691.332a1.157,1.157,0,0,1,1.063-.789.86.86,0,0,1,.934.867c0,.52-.406.852-1.059,1.352s-1.551,1.1-1.551,2.031V0h3.555V-.777H42.167c.016-.219.59-.656,1.035-.992.7-.531,1.484-.961,1.484-1.984a1.646,1.646,0,0,0-1.793-1.629A1.875,1.875,0,0,0,41.14-4.148Zm6.3,2.3a1.4,1.4,0,0,0,1.258-.625c-.035,1.188-.719,1.8-1.59,1.8a1.874,1.874,0,0,1-.988-.3l-.277.7a2.3,2.3,0,0,0,1.32.359c1.648,0,2.371-1.211,2.371-2.922,0-1.4-.6-2.539-2.043-2.539a1.737,1.737,0,0,0-1.91,1.8A1.69,1.69,0,0,0,47.436-1.848Zm.082-2.82A1.03,1.03,0,0,1,48.561-3.6a1,1,0,0,1-1.047,1.023.968.968,0,0,1-1.1-1.035A1.009,1.009,0,0,1,47.518-4.668Z" transform="translate(9 -19.134)" fill="#fff"/>
      </g>
    </g>
    <g id="Group_5106" data-name="Group 5106" transform="translate(689 2490.468)">
      <path id="Path_3855" data-name="Path 3855" d="M.361-3.32A3.4,3.4,0,0,0,3.857.1,3.15,3.15,0,0,0,7.183-3a6.924,6.924,0,0,0-.029-.693H3.7v1.348H5.449a1.547,1.547,0,0,1-1.592.938A1.8,1.8,0,0,1,2.007-3.32a1.8,1.8,0,0,1,1.851-1.9,1.923,1.923,0,0,1,1.611.9L6.7-5.239A3.5,3.5,0,0,0,3.857-6.729,3.392,3.392,0,0,0,.361-3.32ZM9.707,0V-2.256c0-.874.493-1.191,1.074-1.191a1.792,1.792,0,0,1,.591.1l.093-1.343a1.848,1.848,0,0,0-.571-.1,1.315,1.315,0,0,0-1.226.737l-.049-.64H8.169V0ZM13.54.1a1.555,1.555,0,0,0,1.25-.576V0h1.46V-2.783c0-1.25-.859-2-2.285-2a2.888,2.888,0,0,0-2.109.967l.85.913a1.546,1.546,0,0,1,1.128-.522c.557,0,.879.269.879.635V-2.7a3.542,3.542,0,0,0-.937-.122c-1.064,0-1.982.562-1.982,1.494C11.792-.439,12.549.1,13.54.1Zm-.273-1.519c0-.3.3-.469.781-.469a1.83,1.83,0,0,1,.664.122.792.792,0,0,1-.835.815C13.521-.952,13.267-1.143,13.267-1.421ZM18.691,0a.918.918,0,0,1-.913.718A1.349,1.349,0,0,1,17.231.6l-.21,1.211a2.3,2.3,0,0,0,1.011.244A2.051,2.051,0,0,0,20.024.688L22.2-4.687H20.479l-.967,3.135-.991-3.135H16.807Zm9.756-3.267h-3.56V-2.07h3.56Zm2.6-1.987h1.963V0h1.6V-5.249h1.958V-6.631H31.045Zm6.172-.879a.8.8,0,0,0,.84.84.807.807,0,0,0,.85-.84.809.809,0,0,0-.85-.845A.8.8,0,0,0,37.217-6.128Zm.1,1.44V0h1.538V-4.687ZM41.611,0V-2.607a.744.744,0,0,1,.781-.771.756.756,0,0,1,.786.771V0h1.538V-3.047a1.682,1.682,0,0,0-1.733-1.738,1.82,1.82,0,0,0-1.45.591l-.049-.493H40.073V0Zm3.657-3.433h.747V-1.67A1.634,1.634,0,0,0,47.866.1a3,3,0,0,0,1.245-.264L49-1.416a2.265,2.265,0,0,1-.757.161c-.405,0-.693-.156-.693-.664V-3.433h1.372V-4.687H47.5v-1.5H46.016v1.5h-.747ZM51.9-1.86C51.9-.469,53.149.1,54.438.1s2.544-.562,2.544-1.958a1.7,1.7,0,0,0-1.064-1.6,1.511,1.511,0,0,0,.928-1.416c0-1.3-1.152-1.851-2.407-1.851s-2.4.542-2.4,1.851a1.511,1.511,0,0,0,.928,1.416A1.7,1.7,0,0,0,51.9-1.86Zm1.724-2.876a.76.76,0,0,1,.815-.752.76.76,0,0,1,.815.752.793.793,0,0,1-.815.806A.775.775,0,0,1,53.623-4.736ZM54.438-2.8a.858.858,0,0,1,.938.835.857.857,0,0,1-.937.815.857.857,0,0,1-.937-.815A.858.858,0,0,1,54.438-2.8ZM60.576.1c1.948,0,2.783-1.484,2.783-3.364,0-1.753-.757-3.462-2.783-3.462-1.968,0-2.788,1.577-2.788,3.462S58.628.1,60.576.1Zm-1.2-3.418c0-.991.278-2.017,1.2-2.017.9,0,1.2.952,1.2,2.017,0,.986-.273,2.026-1.2,2.026C59.678-1.294,59.375-2.256,59.375-3.32Zm6.47.249a1.791,1.791,0,0,0,1.86-1.816,1.8,1.8,0,0,0-1.86-1.841,1.794,1.794,0,0,0-1.851,1.841A1.782,1.782,0,0,0,65.845-3.071Zm.127,2.944V0h.815l3.574-6.514v-.117h-.806Zm-.127-5.522a.721.721,0,0,1,.718.762.712.712,0,0,1-.718.742.725.725,0,0,1-.732-.742A.732.732,0,0,1,65.845-5.649ZM70.479.1a1.791,1.791,0,0,0,1.86-1.816,1.8,1.8,0,0,0-1.86-1.841,1.794,1.794,0,0,0-1.851,1.841A1.782,1.782,0,0,0,70.479.1Zm0-2.578a.721.721,0,0,1,.718.762.712.712,0,0,1-.718.742.725.725,0,0,1-.732-.742A.732.732,0,0,1,70.479-2.48Z" transform="translate(9.048 -61.445)" fill="#42454a"/>
      <g id="Group-3" data-name="Group">
        <path id="Path_3854" data-name="Path 3854" d="M1.723,0v-1.82H2.984a1.733,1.733,0,0,0,1.9-1.73,1.724,1.724,0,0,0-1.9-1.75H.664V0Zm0-4.387h1.2a.8.8,0,0,1,.883.836.8.8,0,0,1-.883.816h-1.2ZM6.77.078a1.242,1.242,0,0,0,1.063-.5V0h.953V-2.309c0-.937-.684-1.52-1.781-1.52a2.053,2.053,0,0,0-1.6.781l.574.574a1.328,1.328,0,0,1,.992-.473.74.74,0,0,1,.813.715v.086A2.456,2.456,0,0,0,7-2.273c-1,0-1.645.492-1.645,1.2S5.918.078,6.77.078Zm.3-1.684a1.747,1.747,0,0,1,.719.145.8.8,0,0,1-.859.793c-.383,0-.625-.18-.625-.461S6.609-1.605,7.066-1.605ZM10.871,0V-2.1a.781.781,0,0,1,.832-.8.738.738,0,0,1,.777.8V0h1V-2.355A1.4,1.4,0,0,0,12-3.828a1.429,1.429,0,0,0-1.156.512l-.02-.434H9.871V0Zm3.84-2.918V-1.23A1.224,1.224,0,0,0,16.09.078,2.286,2.286,0,0,0,17-.109L16.9-.941a1.779,1.779,0,0,1-.637.129.5.5,0,0,1-.555-.562V-2.918h1.1V-3.75H15.688v-1.2h-.973v1.2h-.637v.832Zm4.6,3a1.932,1.932,0,0,0,2-1.953,1.934,1.934,0,0,0-2-1.953,1.937,1.937,0,0,0-2,1.953A1.934,1.934,0,0,0,19.313.078ZM18.3-1.875a1,1,0,0,1,1.008-1.043A.993.993,0,0,1,20.32-1.875.994.994,0,0,1,19.313-.828,1,1,0,0,1,18.3-1.875ZM23.176,0V-2.1a.781.781,0,0,1,.832-.8.738.738,0,0,1,.777.8V0h1V-2.355A1.4,1.4,0,0,0,24.3-3.828a1.429,1.429,0,0,0-1.156.512l-.02-.434h-.953V0Zm5.4.082a1.934,1.934,0,0,0,1.668-.9l-.711-.531a1.1,1.1,0,0,1-.934.527.987.987,0,0,1-1-.75h2.711A2.72,2.72,0,0,0,30.344-2a1.731,1.731,0,0,0-1.816-1.828A1.872,1.872,0,0,0,26.6-1.879,1.9,1.9,0,0,0,28.574.082Zm-.961-2.328a.881.881,0,0,1,.926-.738.842.842,0,0,1,.871.738Zm7.641.914V0h1.012V-1.332H37v-.9h-.734V-5.3H35.027L32.746-2.148v.816Zm-1.359-.9L35.254-4.1V-2.23ZM37.5-4.07l.887.422a1.034,1.034,0,0,1,.949-.785.736.736,0,0,1,.8.77c0,.434-.387.762-1.016,1.223-.645.473-1.508,1.113-1.508,2V0H41.3V-.922H38.844a3.488,3.488,0,0,1,.844-.742c.719-.523,1.539-1.059,1.539-2.012a1.747,1.747,0,0,0-1.9-1.707A1.966,1.966,0,0,0,37.5-4.07Zm4.488,1.438c0,1.461.676,2.711,2.234,2.711s2.238-1.25,2.238-2.711-.664-2.75-2.238-2.75S41.988-4.094,41.988-2.633Zm2.234-1.8c.832,0,1.16.875,1.16,1.785,0,.938-.328,1.785-1.16,1.785s-1.156-.848-1.156-1.785C43.066-3.562,43.391-4.437,44.223-4.437ZM51.832.078A2.741,2.741,0,0,0,54.215-1.25l-.777-.562A1.892,1.892,0,0,1,51.832-.9a1.649,1.649,0,0,1-1.668-1.754A1.63,1.63,0,0,1,51.8-4.406a1.757,1.757,0,0,1,1.543.941l.832-.594A2.783,2.783,0,0,0,51.8-5.383a2.671,2.671,0,0,0-2.723,2.73A2.7,2.7,0,0,0,51.832.078Z" transform="translate(9 -47.934)" fill="#42454a"/>
        <path id="Path_3853" data-name="Path 3853" d="M.34-2.652A2.7,2.7,0,0,0,3.086.078,2.7,2.7,0,0,0,5.418-1.211L4.8-1.637A2.023,2.023,0,0,1,3.086-.7,1.855,1.855,0,0,1,1.2-2.652,1.844,1.844,0,0,1,3.066-4.605a1.957,1.957,0,0,1,1.7.961L5.4-4.09A2.7,2.7,0,0,0,3.066-5.383,2.686,2.686,0,0,0,.34-2.652ZM6.309,0h.828V-3.8L8.82-.375h.586L11.09-3.8V0h.828V-5.3h-.969L9.113-1.531,7.281-5.3H6.309Zm6.355-5.3,2.012,3.266V0h.816V-2.039L17.5-5.3h-.977l-1.445,2.4L13.641-5.3ZM18.25,0h.82V-1.6l.918-.988L21.691,0h1L20.566-3.141,22.559-5.3H21.5L19.07-2.668V-5.3h-.82Z" transform="translate(9 -38.334)" fill="#42454a"/>
        <path id="Path_3851" data-name="Path 3851" d="M.488-3.348a.469.469,0,0,0,.477.477.472.472,0,0,0,.48-.477.475.475,0,0,0-.48-.48A.472.472,0,0,0,.488-3.348ZM.488-.4A.469.469,0,0,0,.965.078.472.472,0,0,0,1.445-.4a.475.475,0,0,0-.48-.48A.472.472,0,0,0,.488-.4Zm3.574-3.75.691.332a1.157,1.157,0,0,1,1.063-.789.86.86,0,0,1,.934.867c0,.52-.406.852-1.059,1.352S4.141-1.289,4.141-.355V0H7.7V-.777H5.09c.016-.219.59-.656,1.035-.992.7-.531,1.484-.961,1.484-1.984A1.646,1.646,0,0,0,5.816-5.383,1.875,1.875,0,0,0,4.063-4.148ZM9.207,0h.82V-5.3H8.2v.742H9.207ZM16.3-5.973h-.84L12.391,1.563h.836ZM19.113,0h.82V-5.3H18.1v.742h1.012Zm3.672-1.848a1.4,1.4,0,0,0,1.258-.625c-.035,1.188-.719,1.8-1.59,1.8a1.874,1.874,0,0,1-.988-.3l-.277.7a2.3,2.3,0,0,0,1.32.359c1.648,0,2.371-1.211,2.371-2.922,0-1.4-.6-2.539-2.043-2.539a1.737,1.737,0,0,0-1.91,1.8A1.69,1.69,0,0,0,22.785-1.848Zm.082-2.82A1.03,1.03,0,0,1,23.91-3.6a1,1,0,0,1-1.047,1.023.968.968,0,0,1-1.1-1.035A1.009,1.009,0,0,1,22.867-4.668Zm7.973-1.3H30L26.934,1.563h.836ZM33.656,0h.82V-5.3H32.645v.742h1.012Zm1.691-1.367h2.52V0h.809V-1.371h.781V-2.09h-.781V-5.3h-.969L35.348-2.051Zm2.52-2.926v2.2H36.3Zm7.426-1.68h-.84L41.387,1.563h.836ZM49.457.078c1.293,0,2.113-1.066,2.113-2.73s-.82-2.73-2.113-2.73-2.117,1.07-2.117,2.73S48.164.078,49.457.078Zm0-4.687c.773,0,1.293.758,1.293,1.957S50.23-.7,49.457-.7s-1.3-.75-1.3-1.953S48.68-4.609,49.457-4.609Z" transform="translate(32.233 -38.334)" fill="#42454a"/>
        <path id="Path_3852" data-name="Path 3852" d="M2.5.078c1.293,0,2.113-1.066,2.113-2.73s-.82-2.73-2.113-2.73S.383-4.312.383-2.652,1.207.078,2.5.078Zm0-4.687c.773,0,1.293.758,1.293,1.957S3.273-.7,2.5-.7s-1.3-.75-1.3-1.953S1.723-4.609,2.5-4.609Z" transform="translate(84.619 -38.334)" fill="#42454a"/>
        <path id="Path_3850" data-name="Path 3850" d="M.688-5.3V0h.82V-2.082H2.832L4.031,0h.953L3.7-2.2a1.529,1.529,0,0,0,1.074-1.5A1.6,1.6,0,0,0,2.969-5.3Zm2.242.738c.652,0,.988.344.988.871s-.336.879-.988.879H1.508v-1.75ZM8.25.078a2.449,2.449,0,0,0,2.57-2.543,2.768,2.768,0,0,0-.016-.309H8.125v.742H9.953A1.582,1.582,0,0,1,8.25-.7,1.858,1.858,0,0,1,6.359-2.652,1.847,1.847,0,0,1,8.23-4.605a1.9,1.9,0,0,1,1.629.871L10.5-4.18a2.66,2.66,0,0,0-2.266-1.2A2.686,2.686,0,0,0,5.5-2.652,2.7,2.7,0,0,0,8.25.078Zm6-.078a1.565,1.565,0,0,0,1.66-1.535,1.3,1.3,0,0,0-.781-1.215,1.252,1.252,0,0,0,.582-1.07A1.5,1.5,0,0,0,14.1-5.3H11.809V0ZM12.633-3.047V-4.574H14.1a.761.761,0,0,1,.789.773.751.751,0,0,1-.789.754Zm0,.691h1.621a.821.821,0,0,1,.848.8.809.809,0,0,1-.848.816H12.633Zm4.121-.992a.469.469,0,0,0,.477.477.472.472,0,0,0,.48-.477.475.475,0,0,0-.48-.48A.472.472,0,0,0,16.754-3.348Zm0,2.949a.469.469,0,0,0,.477.477.472.472,0,0,0,.48-.477.475.475,0,0,0-.48-.48A.472.472,0,0,0,16.754-.4Zm4.434.4h.82V-5.3H20.176v.742h1.012Zm3.672-1.848a1.4,1.4,0,0,0,1.258-.625c-.035,1.188-.719,1.8-1.59,1.8a1.874,1.874,0,0,1-.988-.3l-.277.7a2.3,2.3,0,0,0,1.32.359c1.648,0,2.371-1.211,2.371-2.922,0-1.4-.6-2.539-2.043-2.539A1.737,1.737,0,0,0,23-3.582,1.69,1.69,0,0,0,24.859-1.848Zm.082-2.82A1.03,1.03,0,0,1,25.984-3.6a1,1,0,0,1-1.047,1.023.968.968,0,0,1-1.1-1.035A1.009,1.009,0,0,1,24.941-4.668ZM29.5-1.848a1.4,1.4,0,0,0,1.258-.625c-.035,1.188-.719,1.8-1.59,1.8a1.874,1.874,0,0,1-.988-.3l-.277.7a2.3,2.3,0,0,0,1.32.359c1.648,0,2.371-1.211,2.371-2.922,0-1.4-.6-2.539-2.043-2.539a1.737,1.737,0,0,0-1.91,1.8A1.69,1.69,0,0,0,29.5-1.848Zm.082-2.82A1.03,1.03,0,0,1,30.621-3.6a1,1,0,0,1-1.047,1.023.968.968,0,0,1-1.1-1.035A1.009,1.009,0,0,1,29.578-4.668Zm7.973-1.3h-.84L33.645,1.563h.836Zm1.957,1.824.691.332a1.157,1.157,0,0,1,1.063-.789.86.86,0,0,1,.934.867c0,.52-.406.852-1.059,1.352s-1.551,1.1-1.551,2.031V0h3.555V-.777H40.535c.016-.219.59-.656,1.035-.992.7-.531,1.484-.961,1.484-1.984a1.646,1.646,0,0,0-1.793-1.629A1.875,1.875,0,0,0,39.508-4.148ZM46,.078c1.293,0,2.113-1.066,2.113-2.73s-.82-2.73-2.113-2.73-2.117,1.07-2.117,2.73S44.707.078,46,.078Zm0-4.687c.773,0,1.293.758,1.293,1.957S46.773-.7,46-.7s-1.3-.75-1.3-1.953S45.223-4.609,46-4.609ZM49.566,0h.82V-5.3H48.555v.742h1.012Zm7.09-5.973h-.84L52.75,1.563h.836ZM59.473,0h.82V-5.3H58.461v.742h1.012Zm3.672-1.848A1.4,1.4,0,0,0,64.4-2.473c-.035,1.188-.719,1.8-1.59,1.8a1.874,1.874,0,0,1-.988-.3l-.277.7a2.3,2.3,0,0,0,1.32.359c1.648,0,2.371-1.211,2.371-2.922,0-1.4-.6-2.539-2.043-2.539a1.737,1.737,0,0,0-1.91,1.8A1.69,1.69,0,0,0,63.145-1.848Zm.082-2.82A1.03,1.03,0,0,1,64.27-3.6a1,1,0,0,1-1.047,1.023.968.968,0,0,1-1.1-1.035A1.009,1.009,0,0,1,63.227-4.668Zm4.555,2.82a1.4,1.4,0,0,0,1.258-.625c-.035,1.188-.719,1.8-1.59,1.8a1.874,1.874,0,0,1-.988-.3l-.277.7A2.3,2.3,0,0,0,67.5.078c1.648,0,2.371-1.211,2.371-2.922,0-1.4-.6-2.539-2.043-2.539a1.737,1.737,0,0,0-1.91,1.8A1.69,1.69,0,0,0,67.781-1.848Zm.082-2.82A1.03,1.03,0,0,1,68.906-3.6a1,1,0,0,1-1.047,1.023.968.968,0,0,1-1.1-1.035A1.009,1.009,0,0,1,67.863-4.668Z" transform="translate(9 -28.734)" fill="#42454a"/>
        <path id="Path_3847" data-name="Path 3847" d="M.117-5.3,1.594,0H2.918L3.98-3.93,5.047,0H6.371L7.848-5.3H7.023L5.707-.738,4.422-5.219H3.543L2.258-.738.938-5.3ZM8.58,0h3.8V-.746H9.4V-2.352h2.488V-3.1H9.4V-4.559h2.9V-5.3H8.58Zm7.2,0a1.565,1.565,0,0,0,1.66-1.535,1.3,1.3,0,0,0-.781-1.215,1.252,1.252,0,0,0,.582-1.07A1.5,1.5,0,0,0,15.626-5.3H13.336V0ZM14.161-3.047V-4.574h1.465a.761.761,0,0,1,.789.773.751.751,0,0,1-.789.754Zm0,.691h1.621a.821.821,0,0,1,.848.8.809.809,0,0,1-.848.816H14.161Zm4.049-.992a.469.469,0,0,0,.477.477.472.472,0,0,0,.48-.477.475.475,0,0,0-.48-.48A.472.472,0,0,0,18.21-3.348Zm0,2.949a.469.469,0,0,0,.477.477.472.472,0,0,0,.48-.477.475.475,0,0,0-.48-.48A.472.472,0,0,0,18.21-.4Zm5.442.477a1.957,1.957,0,0,0,1.734-1.02l-.582-.41a1.308,1.308,0,0,1-1.152.7,1.194,1.194,0,0,1-1.207-1.23A1.186,1.186,0,0,1,23.667-3.1a1.288,1.288,0,0,1,1.125.707l.6-.406a1.908,1.908,0,0,0-1.707-1.027,1.961,1.961,0,0,0-2.02,1.949A1.941,1.941,0,0,0,23.652.078ZM25.771-5.3v.777h2.484A20.941,20.941,0,0,0,26.123,0h.891a23.015,23.015,0,0,1,2.18-4.633V-5.3Z" transform="translate(9 -19.134)" fill="#42454a"/>
        <path id="Path_3846" data-name="Path 3846" d="M2.3.078A1.957,1.957,0,0,0,4.039-.941l-.582-.41a1.308,1.308,0,0,1-1.152.7A1.194,1.194,0,0,1,1.1-1.879,1.186,1.186,0,0,1,2.32-3.1a1.288,1.288,0,0,1,1.125.707l.6-.406A1.908,1.908,0,0,0,2.336-3.828,1.961,1.961,0,0,0,.316-1.879,1.941,1.941,0,0,0,2.3.078Z" transform="translate(38.618 -19.134)" fill="#42454a"/>
        <path id="Path_3849" data-name="Path 3849" d="M2.16-1.848a1.4,1.4,0,0,0,1.258-.625c-.035,1.188-.719,1.8-1.59,1.8a1.874,1.874,0,0,1-.988-.3l-.277.7a2.3,2.3,0,0,0,1.32.359c1.648,0,2.371-1.211,2.371-2.922,0-1.4-.6-2.539-2.043-2.539A1.737,1.737,0,0,0,.3-3.582,1.69,1.69,0,0,0,2.16-1.848Zm.082-2.82A1.03,1.03,0,0,1,3.285-3.6,1,1,0,0,1,2.238-2.574a.968.968,0,0,1-1.1-1.035A1.009,1.009,0,0,1,2.242-4.668Z" transform="translate(43.046 -19.134)" fill="#42454a"/>
        <path id="Path_3848" data-name="Path 3848" d="M2.3.078A1.957,1.957,0,0,0,4.039-.941l-.582-.41a1.308,1.308,0,0,1-1.152.7A1.194,1.194,0,0,1,1.1-1.879,1.186,1.186,0,0,1,2.32-3.1a1.288,1.288,0,0,1,1.125.707l.6-.406A1.908,1.908,0,0,0,2.336-3.828,1.961,1.961,0,0,0,.316-1.879,1.941,1.941,0,0,0,2.3.078ZM4.424-5.3v.777H6.908A20.941,20.941,0,0,0,4.776,0h.891a23.015,23.015,0,0,1,2.18-4.633V-5.3Z" transform="translate(47.845 -19.134)" fill="#42454a"/>
      </g>
    </g>
    <g id="Group_5107" data-name="Group 5107" transform="translate(950.381 2490.468)">
      <path id="Path_3839" data-name="Path 3839" d="M.361-3.32A3.4,3.4,0,0,0,3.857.1,3.15,3.15,0,0,0,7.183-3a6.924,6.924,0,0,0-.029-.693H3.7v1.348H5.449a1.547,1.547,0,0,1-1.592.938A1.8,1.8,0,0,1,2.007-3.32a1.8,1.8,0,0,1,1.851-1.9,1.923,1.923,0,0,1,1.611.9L6.7-5.239A3.5,3.5,0,0,0,3.857-6.729,3.392,3.392,0,0,0,.361-3.32ZM9.707,0V-2.256c0-.874.493-1.191,1.074-1.191a1.792,1.792,0,0,1,.591.1l.093-1.343a1.848,1.848,0,0,0-.571-.1,1.315,1.315,0,0,0-1.226.737l-.049-.64H8.169V0ZM13.54.1a1.555,1.555,0,0,0,1.25-.576V0h1.46V-2.783c0-1.25-.859-2-2.285-2a2.888,2.888,0,0,0-2.109.967l.85.913a1.546,1.546,0,0,1,1.128-.522c.557,0,.879.269.879.635V-2.7a3.542,3.542,0,0,0-.937-.122c-1.064,0-1.982.562-1.982,1.494C11.792-.439,12.549.1,13.54.1Zm-.273-1.519c0-.3.3-.469.781-.469a1.83,1.83,0,0,1,.664.122.792.792,0,0,1-.835.815C13.521-.952,13.267-1.143,13.267-1.421ZM18.691,0a.918.918,0,0,1-.913.718A1.349,1.349,0,0,1,17.231.6l-.21,1.211a2.3,2.3,0,0,0,1.011.244A2.051,2.051,0,0,0,20.024.688L22.2-4.687H20.479l-.967,3.135-.991-3.135H16.807Zm9.756-3.267h-3.56V-2.07h3.56Zm2.6-1.987h1.963V0h1.6V-5.249h1.958V-6.631H31.045Zm6.172-.879a.8.8,0,0,0,.84.84.807.807,0,0,0,.85-.84.809.809,0,0,0-.85-.845A.8.8,0,0,0,37.217-6.128Zm.1,1.44V0h1.538V-4.687ZM41.611,0V-2.607a.744.744,0,0,1,.781-.771.756.756,0,0,1,.786.771V0h1.538V-3.047a1.682,1.682,0,0,0-1.733-1.738,1.82,1.82,0,0,0-1.45.591l-.049-.493H40.073V0Zm3.657-3.433h.747V-1.67A1.634,1.634,0,0,0,47.866.1a3,3,0,0,0,1.245-.264L49-1.416a2.265,2.265,0,0,1-.757.161c-.405,0-.693-.156-.693-.664V-3.433h1.372V-4.687H47.5v-1.5H46.016v1.5h-.747Zm7.793-.957a1.4,1.4,0,0,1,1.177-.962.8.8,0,0,1,.864.815c0,.518-.547.918-1.167,1.4-.791.625-1.943,1.47-1.943,2.549V0H56.8V-1.377H53.984a3.537,3.537,0,0,1,.771-.664c.933-.684,2.007-1.4,2.007-2.515a2.207,2.207,0,0,0-2.5-2.173,2.592,2.592,0,0,0-2.451,1.743ZM60.386.1c1.948,0,2.783-1.484,2.783-3.364,0-1.753-.757-3.462-2.783-3.462-1.968,0-2.788,1.577-2.788,3.462S58.438.1,60.386.1Zm-1.2-3.418c0-.991.278-2.017,1.2-2.017.9,0,1.2.952,1.2,2.017,0,.986-.273,2.026-1.2,2.026C59.487-1.294,59.185-2.256,59.185-3.32Zm6.47.249a1.791,1.791,0,0,0,1.86-1.816,1.8,1.8,0,0,0-1.86-1.841A1.794,1.794,0,0,0,63.8-4.888,1.782,1.782,0,0,0,65.654-3.071Zm.127,2.944V0H66.6l3.574-6.514v-.117h-.806Zm-.127-5.522a.721.721,0,0,1,.718.762.712.712,0,0,1-.718.742.725.725,0,0,1-.732-.742A.732.732,0,0,1,65.654-5.649ZM70.288.1a1.791,1.791,0,0,0,1.86-1.816,1.8,1.8,0,0,0-1.86-1.841,1.794,1.794,0,0,0-1.851,1.841A1.782,1.782,0,0,0,70.288.1Zm0-2.578a.721.721,0,0,1,.718.762.712.712,0,0,1-.718.742.725.725,0,0,1-.732-.742A.732.732,0,0,1,70.288-2.48Z" transform="translate(9 -61.445)" fill="#42454a"/>
      <g id="Group-4" data-name="Group">
        <path id="Path_3840" data-name="Path 3840" d="M1.723,0v-1.82H2.984a1.733,1.733,0,0,0,1.9-1.73,1.724,1.724,0,0,0-1.9-1.75H.664V0Zm0-4.387h1.2a.8.8,0,0,1,.883.836.8.8,0,0,1-.883.816h-1.2ZM6.77.078a1.242,1.242,0,0,0,1.063-.5V0h.953V-2.309c0-.937-.684-1.52-1.781-1.52a2.053,2.053,0,0,0-1.6.781l.574.574a1.328,1.328,0,0,1,.992-.473.74.74,0,0,1,.813.715v.086A2.456,2.456,0,0,0,7-2.273c-1,0-1.645.492-1.645,1.2S5.918.078,6.77.078Zm.3-1.684a1.747,1.747,0,0,1,.719.145.8.8,0,0,1-.859.793c-.383,0-.625-.18-.625-.461S6.609-1.605,7.066-1.605ZM10.871,0V-2.1a.781.781,0,0,1,.832-.8.738.738,0,0,1,.777.8V0h1V-2.355A1.4,1.4,0,0,0,12-3.828a1.429,1.429,0,0,0-1.156.512l-.02-.434H9.871V0Zm3.84-2.918V-1.23A1.224,1.224,0,0,0,16.09.078,2.286,2.286,0,0,0,17-.109L16.9-.941a1.779,1.779,0,0,1-.637.129.5.5,0,0,1-.555-.562V-2.918h1.1V-3.75H15.688v-1.2h-.973v1.2h-.637v.832Zm4.6,3a1.932,1.932,0,0,0,2-1.953,1.934,1.934,0,0,0-2-1.953,1.937,1.937,0,0,0-2,1.953A1.934,1.934,0,0,0,19.313.078ZM18.3-1.875a1,1,0,0,1,1.008-1.043A.993.993,0,0,1,20.32-1.875.994.994,0,0,1,19.313-.828,1,1,0,0,1,18.3-1.875ZM23.176,0V-2.1a.781.781,0,0,1,.832-.8.738.738,0,0,1,.777.8V0h1V-2.355A1.4,1.4,0,0,0,24.3-3.828a1.429,1.429,0,0,0-1.156.512l-.02-.434h-.953V0Zm5.4.082a1.934,1.934,0,0,0,1.668-.9l-.711-.531a1.1,1.1,0,0,1-.934.527.987.987,0,0,1-1-.75h2.711A2.72,2.72,0,0,0,30.344-2a1.731,1.731,0,0,0-1.816-1.828A1.872,1.872,0,0,0,26.6-1.879,1.9,1.9,0,0,0,28.574.082Zm-.961-2.328a.881.881,0,0,1,.926-.738.842.842,0,0,1,.871.738ZM35.656.078A2.741,2.741,0,0,0,38.039-1.25l-.777-.562A1.892,1.892,0,0,1,35.656-.9a1.649,1.649,0,0,1-1.668-1.754,1.63,1.63,0,0,1,1.641-1.754,1.757,1.757,0,0,1,1.543.941L38-4.059a2.783,2.783,0,0,0-2.375-1.324,2.671,2.671,0,0,0-2.723,2.73A2.7,2.7,0,0,0,35.656.078Zm4.855,0a1.932,1.932,0,0,0,2-1.953,1.934,1.934,0,0,0-2-1.953,1.937,1.937,0,0,0-2,1.953A1.934,1.934,0,0,0,40.512.078ZM39.5-1.875a1,1,0,0,1,1.008-1.043A.993.993,0,0,1,41.52-1.875.994.994,0,0,1,40.512-.828,1,1,0,0,1,39.5-1.875ZM45.1.078a1.932,1.932,0,0,0,2-1.953,1.934,1.934,0,0,0-2-1.953,1.937,1.937,0,0,0-2,1.953A1.934,1.934,0,0,0,45.1.078ZM44.094-1.875A1,1,0,0,1,45.1-2.918a.993.993,0,0,1,1.008,1.043A.994.994,0,0,1,45.1-.828,1,1,0,0,1,44.094-1.875ZM48.965-5.5h-1V0h1ZM54.547.078a2.47,2.47,0,0,0,2.586-2.543,3.927,3.927,0,0,0-.02-.426H54.441v.91h1.605A1.42,1.42,0,0,1,54.547-.9a1.649,1.649,0,0,1-1.668-1.754A1.63,1.63,0,0,1,54.52-4.406a1.743,1.743,0,0,1,1.492.863l.832-.594A2.792,2.792,0,0,0,54.52-5.383,2.671,2.671,0,0,0,51.8-2.652,2.7,2.7,0,0,0,54.547.078ZM57.977,0h1V-1.922c0-.773.465-1.012.906-1.012a1.405,1.405,0,0,1,.465.086l.078-.895a1.519,1.519,0,0,0-.488-.086,1.042,1.042,0,0,0-.977.59l-.02-.512h-.969Zm4.188.078a1.242,1.242,0,0,0,1.063-.5V0h.953V-2.309c0-.937-.684-1.52-1.781-1.52a2.053,2.053,0,0,0-1.6.781l.574.574a1.328,1.328,0,0,1,.992-.473.74.74,0,0,1,.813.715v.086a2.456,2.456,0,0,0-.789-.129c-1,0-1.645.492-1.645,1.2S61.313.078,62.164.078Zm.3-1.684a1.747,1.747,0,0,1,.719.145.8.8,0,0,1-.859.793c-.383,0-.625-.18-.625-.461S62-1.605,62.461-1.605ZM66.23,0A.874.874,0,0,1,65.4.77a1.273,1.273,0,0,1-.473-.1l-.125.8a1.621,1.621,0,0,0,.715.164A1.58,1.58,0,0,0,67.082.512l1.77-4.262H67.738L66.77-1.02l-.98-2.73H64.68Zm5.723,0h1.055V-5.3H70.824v.926h1.129Zm6.734.078A2.741,2.741,0,0,0,81.07-1.25l-.777-.562A1.892,1.892,0,0,1,78.688-.9,1.649,1.649,0,0,1,77.02-2.652,1.63,1.63,0,0,1,78.66-4.406a1.757,1.757,0,0,1,1.543.941l.832-.594A2.783,2.783,0,0,0,78.66-5.383a2.671,2.671,0,0,0-2.723,2.73A2.7,2.7,0,0,0,78.688.078Z" transform="translate(9 -47.934)" fill="#42454a"/>
        <path id="Path_3842" data-name="Path 3842" d="M.34-2.652A2.7,2.7,0,0,0,3.086.078,2.7,2.7,0,0,0,5.418-1.211L4.8-1.637A2.023,2.023,0,0,1,3.086-.7,1.855,1.855,0,0,1,1.2-2.652,1.844,1.844,0,0,1,3.066-4.605a1.957,1.957,0,0,1,1.7.961L5.4-4.09A2.7,2.7,0,0,0,3.066-5.383,2.686,2.686,0,0,0,.34-2.652ZM6.309,0h.828V-3.8L8.82-.375h.586L11.09-3.8V0h.828V-5.3h-.969L9.113-1.531,7.281-5.3H6.309Zm6.355-5.3,2.012,3.266V0h.816V-2.039L17.5-5.3h-.977l-1.445,2.4L13.641-5.3ZM18.25,0h.82V-1.6l.918-.988L21.691,0h1L20.566-3.141,22.559-5.3H21.5L19.07-2.668V-5.3h-.82Z" transform="translate(9 -38.334)" fill="#42454a"/>
        <path id="Path_3841" data-name="Path 3841" d="M.488-3.348a.469.469,0,0,0,.477.477.472.472,0,0,0,.48-.477.475.475,0,0,0-.48-.48A.472.472,0,0,0,.488-3.348ZM.488-.4A.469.469,0,0,0,.965.078.472.472,0,0,0,1.445-.4a.475.475,0,0,0-.48-.48A.472.472,0,0,0,.488-.4Zm3.574-3.75.691.332a1.157,1.157,0,0,1,1.063-.789.86.86,0,0,1,.934.867c0,.52-.406.852-1.059,1.352S4.141-1.289,4.141-.355V0H7.7V-.777H5.09c.016-.219.59-.656,1.035-.992.7-.531,1.484-.961,1.484-1.984A1.646,1.646,0,0,0,5.816-5.383,1.875,1.875,0,0,0,4.063-4.148ZM9.207,0h.82V-5.3H8.2v.742H9.207ZM16.3-5.973h-.84L12.391,1.563h.836ZM19.113,0h.82V-5.3H18.1v.742h1.012Zm3.672-1.848a1.4,1.4,0,0,0,1.258-.625c-.035,1.188-.719,1.8-1.59,1.8a1.874,1.874,0,0,1-.988-.3l-.277.7a2.3,2.3,0,0,0,1.32.359c1.648,0,2.371-1.211,2.371-2.922,0-1.4-.6-2.539-2.043-2.539a1.737,1.737,0,0,0-1.91,1.8A1.69,1.69,0,0,0,22.785-1.848Zm.082-2.82A1.03,1.03,0,0,1,23.91-3.6a1,1,0,0,1-1.047,1.023.968.968,0,0,1-1.1-1.035A1.009,1.009,0,0,1,22.867-4.668Zm7.973-1.3H30L26.934,1.563h.836ZM33.656,0h.82V-5.3H32.645v.742h1.012Zm1.691-1.367h2.52V0h.809V-1.371h.781V-2.09h-.781V-5.3h-.969L35.348-2.051Zm2.52-2.926v2.2H36.3Zm7.426-1.68h-.84L41.387,1.563h.836ZM49.457.078c1.293,0,2.113-1.066,2.113-2.73s-.82-2.73-2.113-2.73-2.117,1.07-2.117,2.73S48.164.078,49.457.078Zm0-4.687c.773,0,1.293.758,1.293,1.957S50.23-.7,49.457-.7s-1.3-.75-1.3-1.953S48.68-4.609,49.457-4.609Z" transform="translate(32.233 -38.334)" fill="#42454a"/>
        <path id="Path_3843" data-name="Path 3843" d="M2.5.078c1.293,0,2.113-1.066,2.113-2.73s-.82-2.73-2.113-2.73S.383-4.312.383-2.652,1.207.078,2.5.078Zm0-4.687c.773,0,1.293.758,1.293,1.957S3.273-.7,2.5-.7s-1.3-.75-1.3-1.953S1.723-4.609,2.5-4.609Z" transform="translate(84.619 -38.334)" fill="#42454a"/>
        <path id="Path_3844" data-name="Path 3844" d="M.688-5.3V0h.82V-2.082H2.832L4.031,0h.953L3.7-2.2a1.529,1.529,0,0,0,1.074-1.5A1.6,1.6,0,0,0,2.969-5.3Zm2.242.738c.652,0,.988.344.988.871s-.336.879-.988.879H1.508v-1.75ZM8.25.078a2.449,2.449,0,0,0,2.57-2.543,2.768,2.768,0,0,0-.016-.309H8.125v.742H9.953A1.582,1.582,0,0,1,8.25-.7,1.858,1.858,0,0,1,6.359-2.652,1.847,1.847,0,0,1,8.23-4.605a1.9,1.9,0,0,1,1.629.871L10.5-4.18a2.66,2.66,0,0,0-2.266-1.2A2.686,2.686,0,0,0,5.5-2.652,2.7,2.7,0,0,0,8.25.078Zm6-.078a1.565,1.565,0,0,0,1.66-1.535,1.3,1.3,0,0,0-.781-1.215,1.252,1.252,0,0,0,.582-1.07A1.5,1.5,0,0,0,14.1-5.3H11.809V0ZM12.633-3.047V-4.574H14.1a.761.761,0,0,1,.789.773.751.751,0,0,1-.789.754Zm0,.691h1.621a.821.821,0,0,1,.848.8.809.809,0,0,1-.848.816H12.633Zm4.121-.992a.469.469,0,0,0,.477.477.472.472,0,0,0,.48-.477.475.475,0,0,0-.48-.48A.472.472,0,0,0,16.754-3.348Zm0,2.949a.469.469,0,0,0,.477.477.472.472,0,0,0,.48-.477.475.475,0,0,0-.48-.48A.472.472,0,0,0,16.754-.4Zm3.574-3.75.691.332a1.157,1.157,0,0,1,1.063-.789.86.86,0,0,1,.934.867c0,.52-.406.852-1.059,1.352s-1.551,1.1-1.551,2.031V0h3.555V-.777H21.355c.016-.219.59-.656,1.035-.992.7-.531,1.484-.961,1.484-1.984a1.646,1.646,0,0,0-1.793-1.629A1.875,1.875,0,0,0,20.328-4.148Zm4.293,3.035A1.929,1.929,0,0,0,26.488.078a1.628,1.628,0,0,0,1.789-1.551,1.293,1.293,0,0,0-.887-1.242,1.238,1.238,0,0,0,.762-1.172,1.581,1.581,0,0,0-1.777-1.5A1.847,1.847,0,0,0,24.621-4.23l.684.367a1.2,1.2,0,0,1,1.086-.762c.543,0,.922.309.922.75a.849.849,0,0,1-.957.832H25.7v.715h.66c.641,0,1.082.344,1.082.844a.864.864,0,0,1-.965.793,1.232,1.232,0,0,1-1.164-.8ZM28.871-5.3v.777h2.484A20.941,20.941,0,0,0,29.223,0h.891a23.015,23.015,0,0,1,2.18-4.633V-5.3Zm9.152-.668h-.84L34.117,1.563h.836ZM39.98-4.148l.691.332a1.157,1.157,0,0,1,1.063-.789.86.86,0,0,1,.934.867c0,.52-.406.852-1.059,1.352s-1.551,1.1-1.551,2.031V0h3.555V-.777H41.008c.016-.219.59-.656,1.035-.992.7-.531,1.484-.961,1.484-1.984a1.646,1.646,0,0,0-1.793-1.629A1.875,1.875,0,0,0,39.98-4.148Zm4.172,2.781h2.52V0h.809V-1.371h.781V-2.09H47.48V-5.3h-.969L44.152-2.051Zm2.52-2.926v2.2H45.105ZM51.02.078c1.293,0,2.113-1.066,2.113-2.73s-.82-2.73-2.113-2.73S48.9-4.312,48.9-2.652,49.727.078,51.02.078Zm0-4.687c.773,0,1.293.758,1.293,1.957S51.793-.7,51.02-.7s-1.3-.75-1.3-1.953S50.242-4.609,51.02-4.609Zm8.074-1.363h-.84L55.188,1.563h.836Zm1.957,1.824.691.332A1.157,1.157,0,0,1,62.8-4.605a.86.86,0,0,1,.934.867c0,.52-.406.852-1.059,1.352s-1.551,1.1-1.551,2.031V0h3.555V-.777H62.078c.016-.219.59-.656,1.035-.992.7-.531,1.484-.961,1.484-1.984A1.646,1.646,0,0,0,62.8-5.383,1.875,1.875,0,0,0,61.051-4.148Zm4.293,3.035A1.929,1.929,0,0,0,67.211.078,1.628,1.628,0,0,0,69-1.473a1.293,1.293,0,0,0-.887-1.242,1.238,1.238,0,0,0,.762-1.172,1.581,1.581,0,0,0-1.777-1.5A1.847,1.847,0,0,0,65.344-4.23l.684.367a1.2,1.2,0,0,1,1.086-.762c.543,0,.922.309.922.75a.849.849,0,0,1-.957.832h-.66v.715h.66c.641,0,1.082.344,1.082.844a.864.864,0,0,1-.965.793,1.232,1.232,0,0,1-1.164-.8ZM69.594-5.3v.777h2.484A20.941,20.941,0,0,0,69.945,0h.891a23.015,23.015,0,0,1,2.18-4.633V-5.3Z" transform="translate(9 -28.734)" fill="#42454a"/>
        <path id="Path_3845" data-name="Path 3845" d="M.117-5.3,1.594,0H2.918L3.98-3.93,5.047,0H6.371L7.848-5.3H7.023L5.707-.738,4.422-5.219H3.543L2.258-.738.938-5.3ZM8.8,0h3.8V-.746H9.617V-2.352H12.1V-3.1H9.617V-4.559h2.9V-5.3H8.8Zm7.417,0a1.565,1.565,0,0,0,1.66-1.535,1.3,1.3,0,0,0-.781-1.215,1.252,1.252,0,0,0,.582-1.07A1.5,1.5,0,0,0,16.058-5.3H13.768V0ZM14.593-3.047V-4.574h1.465a.761.761,0,0,1,.789.773.751.751,0,0,1-.789.754Zm0,.691h1.621a.821.821,0,0,1,.848.8.809.809,0,0,1-.848.816H14.593Zm4.265-.992a.469.469,0,0,0,.477.477.472.472,0,0,0,.48-.477.475.475,0,0,0-.48-.48A.472.472,0,0,0,18.858-3.348Zm0,2.949a.469.469,0,0,0,.477.477.472.472,0,0,0,.48-.477.475.475,0,0,0-.48-.48A.472.472,0,0,0,18.858-.4Zm3.89-1.473A1.905,1.905,0,0,0,24.712.078a1.933,1.933,0,0,0,1.7-.953l-.57-.414a1.261,1.261,0,0,1-1.125.641,1.106,1.106,0,0,1-1.164-1h2.91a1.889,1.889,0,0,0,.031-.359,1.751,1.751,0,0,0-1.8-1.816A1.885,1.885,0,0,0,22.747-1.871Zm.82-.359a1.09,1.09,0,0,1,1.109-.9,1,1,0,0,1,1.027.9Zm3.714.336A1.875,1.875,0,0,0,29.165.078,1.587,1.587,0,0,0,30.5-.512V0h.773V-5.5H30.5v2.262a1.587,1.587,0,0,0-1.336-.59A1.842,1.842,0,0,0,27.282-1.895Zm1.977-1.238A1.212,1.212,0,0,1,30.5-1.895,1.242,1.242,0,0,1,29.259-.617a1.214,1.214,0,0,1-1.2-1.277A1.181,1.181,0,0,1,29.259-3.133Zm3.628.039V0h.773V-3.094h1.094V-3.75H33.649v-.363c0-.543.234-.785.738-.785a1.385,1.385,0,0,1,.5.1l.082-.641a1.365,1.365,0,0,0-.621-.137A1.33,1.33,0,0,0,32.9-4.156v.406H32.18v.656ZM37.515.078c1.293,0,2.113-1.066,2.113-2.73s-.82-2.73-2.113-2.73S35.4-4.312,35.4-2.652,36.222.078,37.515.078Zm0-4.687c.773,0,1.293.758,1.293,1.957S38.289-.7,37.515-.7s-1.3-.75-1.3-1.953S36.738-4.609,37.515-4.609Zm2.96,2.738A1.905,1.905,0,0,0,42.441.078a1.933,1.933,0,0,0,1.7-.953l-.57-.414a1.261,1.261,0,0,1-1.125.641,1.106,1.106,0,0,1-1.164-1h2.91a1.889,1.889,0,0,0,.031-.359,1.751,1.751,0,0,0-1.8-1.816A1.885,1.885,0,0,0,40.476-1.871Zm.82-.359a1.09,1.09,0,0,1,1.109-.9,1,1,0,0,1,1.027.9Zm3.714.336A1.875,1.875,0,0,0,46.893.078a1.587,1.587,0,0,0,1.336-.59V0H49V-5.5h-.773v2.262a1.587,1.587,0,0,0-1.336-.59A1.842,1.842,0,0,0,45.01-1.895Zm1.977-1.238a1.212,1.212,0,0,1,1.238,1.238A1.242,1.242,0,0,1,46.987-.617a1.214,1.214,0,0,1-1.2-1.277A1.181,1.181,0,0,1,46.987-3.133Z" transform="translate(9 -19.134)" fill="#42454a"/>
      </g>
    </g>
  </g>
</svg>
