<svg xmlns="http://www.w3.org/2000/svg" xmlns:xlink="http://www.w3.org/1999/xlink" width="523.999" height="345.5" viewBox="0 0 523.999 345.5">
  <defs>
    <clipPath id="clip-path">
      <path id="Path_3233" data-name="Path 3233" d="M0,0H120.24V-15.563H0Z" fill="none"/>
    </clipPath>
  </defs>
  <g id="Group_5930" data-name="Group 5930" transform="translate(-678 -1465.954)">
    <g id="Group_5090" data-name="Group 5090" transform="translate(678 1612.221)">
      <path id="Path_3229" data-name="Path 3229" d="M0,83.733H262.759v-230H0Z" fill="#269691"/>
    </g>
    <g id="Group_5091" data-name="Group 5091" transform="translate(939.758 1603.271)">
      <path id="Path_3230" data-name="Path 3230" d="M0,92.683H262.241v-230H0Z" transform="translate(0 0)" fill="#6f2f6e"/>
    </g>
    <g id="Group_5092" data-name="Group 5092" transform="translate(678 1750.593)">
      <path id="Path_3231" data-name="Path 3231" d="M0,60.861H261.759v-115.5H0Z" fill="#1f7c79"/>
    </g>
    <g id="Group_5093" data-name="Group 5093" transform="translate(939.758 1750.593)">
      <path id="Path_3232" data-name="Path 3232" d="M0,60.861H262.241v-115.5H0Z" fill="#5c2459"/>
    </g>
    <g id="Group_5094" data-name="Group 5094" transform="translate(688.768 1554.399)">
      <path id="Path_3813" data-name="Path 3813" d="M.361-3.32A3.4,3.4,0,0,0,3.857.1,3.15,3.15,0,0,0,7.183-3a6.924,6.924,0,0,0-.029-.693H3.7v1.348H5.449a1.547,1.547,0,0,1-1.592.938A1.8,1.8,0,0,1,2.007-3.32a1.8,1.8,0,0,1,1.851-1.9,1.923,1.923,0,0,1,1.611.9L6.7-5.239A3.5,3.5,0,0,0,3.857-6.729,3.392,3.392,0,0,0,.361-3.32ZM9.847,0V-2.256c0-.874.493-1.191,1.074-1.191a1.792,1.792,0,0,1,.591.1L11.6-4.687a1.848,1.848,0,0,0-.571-.1,1.315,1.315,0,0,0-1.226.737l-.049-.64H8.309V0ZM12-2.344A2.377,2.377,0,0,0,14.523.1,2.383,2.383,0,0,0,16.569-.923l-.977-.859a1.407,1.407,0,0,1-1.05.581.949.949,0,0,1-1.035-.747h3.164a3.632,3.632,0,0,0,.044-.547,2.214,2.214,0,0,0-2.344-2.29A2.3,2.3,0,0,0,12-2.344Zm2.412-1.23a.841.841,0,0,1,.879.723H13.508A.854.854,0,0,1,14.416-3.574Zm3.114,1.23A2.377,2.377,0,0,0,20.049.1,2.383,2.383,0,0,0,22.095-.923l-.977-.859a1.407,1.407,0,0,1-1.05.581.949.949,0,0,1-1.035-.747H22.2a3.632,3.632,0,0,0,.044-.547A2.214,2.214,0,0,0,19.9-4.785,2.3,2.3,0,0,0,17.529-2.344Zm2.412-1.23a.841.841,0,0,1,.879.723H19.033A.854.854,0,0,1,19.941-3.574ZM24.8,0V-2.607a.744.744,0,0,1,.781-.771.756.756,0,0,1,.786.771V0h1.538V-3.047a1.682,1.682,0,0,0-1.733-1.738,1.82,1.82,0,0,0-1.45.591l-.049-.493H23.265V0Z" transform="translate(9 -61.445)" fill="#fff"/>
      <g id="Group">
        <path id="Path_3810" data-name="Path 3810" d="M1.723,0v-1.82H2.984a1.733,1.733,0,0,0,1.9-1.73,1.724,1.724,0,0,0-1.9-1.75H.664V0Zm0-4.387h1.2a.8.8,0,0,1,.883.836.8.8,0,0,1-.883.816h-1.2ZM6.77.078a1.242,1.242,0,0,0,1.063-.5V0h.953V-2.309c0-.937-.684-1.52-1.781-1.52a2.053,2.053,0,0,0-1.6.781l.574.574a1.328,1.328,0,0,1,.992-.473.74.74,0,0,1,.813.715v.086A2.456,2.456,0,0,0,7-2.273c-1,0-1.645.492-1.645,1.2S5.918.078,6.77.078Zm.3-1.684a1.747,1.747,0,0,1,.719.145.8.8,0,0,1-.859.793c-.383,0-.625-.18-.625-.461S6.609-1.605,7.066-1.605ZM10.871,0V-2.1a.781.781,0,0,1,.832-.8.738.738,0,0,1,.777.8V0h1V-2.355A1.4,1.4,0,0,0,12-3.828a1.429,1.429,0,0,0-1.156.512l-.02-.434H9.871V0Zm3.84-2.918V-1.23A1.224,1.224,0,0,0,16.09.078,2.286,2.286,0,0,0,17-.109L16.9-.941a1.779,1.779,0,0,1-.637.129.5.5,0,0,1-.555-.562V-2.918h1.1V-3.75H15.688v-1.2h-.973v1.2h-.637v.832Zm4.6,3a1.932,1.932,0,0,0,2-1.953,1.934,1.934,0,0,0-2-1.953,1.937,1.937,0,0,0-2,1.953A1.934,1.934,0,0,0,19.313.078ZM18.3-1.875a1,1,0,0,1,1.008-1.043A.993.993,0,0,1,20.32-1.875.994.994,0,0,1,19.313-.828,1,1,0,0,1,18.3-1.875ZM23.176,0V-2.1a.781.781,0,0,1,.832-.8.738.738,0,0,1,.777.8V0h1V-2.355A1.4,1.4,0,0,0,24.3-3.828a1.429,1.429,0,0,0-1.156.512l-.02-.434h-.953V0Zm5.4.082a1.934,1.934,0,0,0,1.668-.9l-.711-.531a1.1,1.1,0,0,1-.934.527.987.987,0,0,1-1-.75h2.711A2.72,2.72,0,0,0,30.344-2a1.731,1.731,0,0,0-1.816-1.828A1.872,1.872,0,0,0,26.6-1.879,1.9,1.9,0,0,0,28.574.082Zm-.961-2.328a.881.881,0,0,1,.926-.738.842.842,0,0,1,.871.738ZM32.777-5.3v.957h2.352a19.818,19.818,0,0,0-2,4.348h1.141a19.146,19.146,0,0,1,2.059-4.516V-5.3Z" transform="translate(9 -47.934)" fill="#fff"/>
        <path id="Path_3812" data-name="Path 3812" d="M.188-5.3v.957H2.539A19.818,19.818,0,0,0,.543,0H1.684A19.146,19.146,0,0,1,3.742-4.516V-5.3Z" transform="translate(46.552 -47.934)" fill="#fff"/>
        <path id="Path_3811" data-name="Path 3811" d="M1.246,0H2.3V-5.3H.117v.926H1.246ZM5.434.078a1.824,1.824,0,0,0,2-1.855A1.68,1.68,0,0,0,5.6-3.516a1.435,1.435,0,0,0-1.207.539,1.415,1.415,0,0,1,1.48-1.512A2.117,2.117,0,0,1,6.9-4.234l.25-.84A2.723,2.723,0,0,0,5.8-5.383c-1.617,0-2.477,1.156-2.477,2.957C3.324-1.055,3.918.078,5.434.078Zm-.012-2.73a.872.872,0,0,1,.957.91.9.9,0,0,1-.957.922.886.886,0,0,1-.93-.93A.871.871,0,0,1,5.422-2.652ZM12.715.078A2.741,2.741,0,0,0,15.1-1.25l-.777-.562A1.892,1.892,0,0,1,12.715-.9a1.649,1.649,0,0,1-1.668-1.754,1.63,1.63,0,0,1,1.641-1.754,1.757,1.757,0,0,1,1.543.941l.832-.594a2.783,2.783,0,0,0-2.375-1.324,2.671,2.671,0,0,0-2.723,2.73A2.7,2.7,0,0,0,12.715.078Z" transform="translate(50.739 -47.934)" fill="#fff"/>
        <path id="Path_3809" data-name="Path 3809" d="M.34-2.652A2.7,2.7,0,0,0,3.086.078,2.7,2.7,0,0,0,5.418-1.211L4.8-1.637A2.023,2.023,0,0,1,3.086-.7,1.855,1.855,0,0,1,1.2-2.652,1.844,1.844,0,0,1,3.066-4.605a1.957,1.957,0,0,1,1.7.961L5.4-4.09A2.7,2.7,0,0,0,3.066-5.383,2.686,2.686,0,0,0,.34-2.652ZM6.309,0h.828V-3.8L8.82-.375h.586L11.09-3.8V0h.828V-5.3h-.969L9.113-1.531,7.281-5.3H6.309Zm6.355-5.3,2.012,3.266V0h.816V-2.039L17.5-5.3h-.977l-1.445,2.4L13.641-5.3ZM18.25,0h.82V-1.6l.918-.988L21.691,0h1L20.566-3.141,22.559-5.3H21.5L19.07-2.668V-5.3h-.82Z" transform="translate(9 -38.334)" fill="#fff"/>
        <path id="Path_3808" data-name="Path 3808" d="M.488-3.348a.469.469,0,0,0,.477.477.472.472,0,0,0,.48-.477.475.475,0,0,0-.48-.48A.472.472,0,0,0,.488-3.348ZM.488-.4A.469.469,0,0,0,.965.078.472.472,0,0,0,1.445-.4a.475.475,0,0,0-.48-.48A.472.472,0,0,0,.488-.4ZM5.93-1.848a1.4,1.4,0,0,0,1.258-.625c-.035,1.188-.719,1.8-1.59,1.8a1.874,1.874,0,0,1-.988-.3l-.277.7a2.3,2.3,0,0,0,1.32.359C7.3.078,8.023-1.133,8.023-2.844c0-1.4-.6-2.539-2.043-2.539a1.737,1.737,0,0,0-1.91,1.8A1.69,1.69,0,0,0,5.93-1.848Zm.082-2.82A1.03,1.03,0,0,1,7.055-3.6,1,1,0,0,1,6.008-2.574a.968.968,0,0,1-1.1-1.035A1.009,1.009,0,0,1,6.012-4.668ZM10.883.078a1.763,1.763,0,0,0,1.879-1.8,1.7,1.7,0,0,0-1.84-1.734,1.517,1.517,0,0,0-1.316.625c.066-1.3.7-1.809,1.609-1.809a2.091,2.091,0,0,1,1.008.258l.238-.7a2.452,2.452,0,0,0-1.262-.3c-1.676,0-2.41,1.211-2.41,2.922C8.789-1.059,9.4.078,10.883.078Zm-.07-2.809A.99.99,0,0,1,11.922-1.7,1.025,1.025,0,0,1,10.828-.637a1.039,1.039,0,0,1-1.09-1.07A1,1,0,0,1,10.813-2.73Zm7.816-3.242h-.84L14.723,1.563h.836ZM20.5-5.3v.777h2.484A20.941,20.941,0,0,0,20.855,0h.891a23.015,23.015,0,0,1,2.18-4.633V-5.3Zm6,5.383c1.293,0,2.113-1.066,2.113-2.73s-.82-2.73-2.113-2.73-2.117,1.07-2.117,2.73S25.215.078,26.508.078Zm0-4.687c.773,0,1.293.758,1.293,1.957S27.281-.7,26.508-.7s-1.3-.75-1.3-1.953S25.73-4.609,26.508-4.609Zm8.074-1.363h-.84L30.676,1.563h.836ZM37.4,0h.82V-5.3H36.387v.742H37.4ZM41.41.078c1.293,0,2.113-1.066,2.113-2.73s-.82-2.73-2.113-2.73-2.117,1.07-2.117,2.73S40.117.078,41.41.078Zm0-4.687c.773,0,1.293.758,1.293,1.957S42.184-.7,41.41-.7s-1.3-.75-1.3-1.953S40.633-4.609,41.41-4.609Zm8.074-1.363h-.84L45.578,1.563h.836ZM53.648.078c1.293,0,2.113-1.066,2.113-2.73s-.82-2.73-2.113-2.73-2.117,1.07-2.117,2.73S52.355.078,53.648.078Zm0-4.687c.773,0,1.293.758,1.293,1.957S54.422-.7,53.648-.7s-1.3-.75-1.3-1.953S52.871-4.609,53.648-4.609ZM57.215,0h.82V-5.3H56.2v.742h1.012Z" transform="translate(32.233 -38.334)" fill="#fff"/>
        <path id="Path_3805" data-name="Path 3805" d="M.688-5.3V0h.82V-2.082H2.832L4.031,0h.953L3.7-2.2a1.529,1.529,0,0,0,1.074-1.5A1.6,1.6,0,0,0,2.969-5.3Zm2.242.738c.652,0,.988.344.988.871s-.336.879-.988.879H1.508v-1.75ZM8.25.078a2.449,2.449,0,0,0,2.57-2.543,2.768,2.768,0,0,0-.016-.309H8.125v.742H9.953A1.582,1.582,0,0,1,8.25-.7,1.858,1.858,0,0,1,6.359-2.652,1.847,1.847,0,0,1,8.23-4.605a1.9,1.9,0,0,1,1.629.871L10.5-4.18a2.66,2.66,0,0,0-2.266-1.2A2.686,2.686,0,0,0,5.5-2.652,2.7,2.7,0,0,0,8.25.078Zm6-.078a1.565,1.565,0,0,0,1.66-1.535,1.3,1.3,0,0,0-.781-1.215,1.252,1.252,0,0,0,.582-1.07A1.5,1.5,0,0,0,14.1-5.3H11.809V0ZM12.633-3.047V-4.574H14.1a.761.761,0,0,1,.789.773.751.751,0,0,1-.789.754Zm0,.691h1.621a.821.821,0,0,1,.848.8.809.809,0,0,1-.848.816H12.633Zm4.121-.992a.469.469,0,0,0,.477.477.472.472,0,0,0,.48-.477.475.475,0,0,0-.48-.48A.472.472,0,0,0,16.754-3.348Zm0,2.949a.469.469,0,0,0,.477.477.472.472,0,0,0,.48-.477.475.475,0,0,0-.48-.48A.472.472,0,0,0,16.754-.4ZM20.246-5.3v.777H22.73A20.941,20.941,0,0,0,20.6,0h.891a23.015,23.015,0,0,1,2.18-4.633V-5.3ZM29.4-5.973h-.84L25.492,1.563h.836ZM32.215,0h.82V-5.3H31.2v.742h1.012Zm1.691-1.367h2.52V0h.809V-1.371h.781V-2.09h-.781V-5.3h-.969L33.906-2.051Zm2.52-2.926v2.2H34.859Z" transform="translate(9 -28.734)" fill="#fff"/>
        <path id="Path_3806" data-name="Path 3806" d="M.18-1.367H2.7V0h.809V-1.371h.781V-2.09H3.508V-5.3H2.539L.18-2.051ZM2.7-4.293v2.2H1.133Z" transform="translate(47.536 -28.734)" fill="#fff"/>
        <path id="Path_3807" data-name="Path 3807" d="M4.063-5.973h-.84L.156,1.563H.992ZM6.879,0H7.7V-5.3H5.867v.742H6.879ZM8.57-1.367h2.52V0H11.9V-1.371h.781V-2.09H11.9V-5.3H10.93L8.57-2.051Zm2.52-2.926v2.2H9.523Zm2.148,3.18A1.929,1.929,0,0,0,15.105.078a1.628,1.628,0,0,0,1.789-1.551,1.293,1.293,0,0,0-.887-1.242,1.238,1.238,0,0,0,.762-1.172,1.581,1.581,0,0,0-1.777-1.5A1.847,1.847,0,0,0,13.238-4.23l.684.367a1.2,1.2,0,0,1,1.086-.762c.543,0,.922.309.922.75a.849.849,0,0,1-.957.832h-.66v.715h.66c.641,0,1.082.344,1.082.844a.864.864,0,0,1-.965.793,1.232,1.232,0,0,1-1.164-.8Z" transform="translate(52.802 -28.734)" fill="#fff"/>
        <path id="Path_3814" data-name="Path 3814" d="M.117-5.3,1.594,0H2.918L3.98-3.93,5.047,0H6.371L7.848-5.3H7.023L5.707-.738,4.422-5.219H3.543L2.258-.738.938-5.3ZM8.748,0h3.8V-.746H9.569V-2.352h2.488V-3.1H9.569V-4.559h2.9V-5.3H8.748Zm7.369,0a1.565,1.565,0,0,0,1.66-1.535A1.3,1.3,0,0,0,17-2.75a1.252,1.252,0,0,0,.582-1.07A1.5,1.5,0,0,0,15.962-5.3H13.672V0ZM14.5-3.047V-4.574h1.465a.761.761,0,0,1,.789.773.751.751,0,0,1-.789.754Zm0,.691h1.621a.821.821,0,0,1,.848.8.809.809,0,0,1-.848.816H14.5Zm4.217-.992a.469.469,0,0,0,.477.477.472.472,0,0,0,.48-.477.475.475,0,0,0-.48-.48A.472.472,0,0,0,18.714-3.348Zm0,2.949a.469.469,0,0,0,.477.477.472.472,0,0,0,.48-.477.475.475,0,0,0-.48-.48A.472.472,0,0,0,18.714-.4Zm5.973.477C25.98.078,26.8-.988,26.8-2.652s-.82-2.73-2.113-2.73-2.117,1.07-2.117,2.73S23.394.078,24.687.078Zm0-4.687c.773,0,1.293.758,1.293,1.957S25.46-.7,24.687-.7s-1.3-.75-1.3-1.953S23.91-4.609,24.687-4.609ZM27.4-5.3v.777h2.484A20.941,20.941,0,0,0,27.756,0h.891a23.015,23.015,0,0,1,2.18-4.633V-5.3Zm5.83,3.457a1.4,1.4,0,0,0,1.258-.625c-.035,1.188-.719,1.8-1.59,1.8a1.874,1.874,0,0,1-.988-.3l-.277.7a2.3,2.3,0,0,0,1.32.359c1.648,0,2.371-1.211,2.371-2.922,0-1.4-.6-2.539-2.043-2.539a1.737,1.737,0,0,0-1.91,1.8A1.69,1.69,0,0,0,33.235-1.848Zm.082-2.82A1.03,1.03,0,0,1,34.36-3.6a1,1,0,0,1-1.047,1.023.968.968,0,0,1-1.1-1.035A1.009,1.009,0,0,1,33.317-4.668ZM38.307.078c1.293,0,2.113-1.066,2.113-2.73s-.82-2.73-2.113-2.73-2.117,1.07-2.117,2.73S37.014.078,38.307.078Zm0-4.687c.773,0,1.293.758,1.293,1.957S39.081-.7,38.307-.7s-1.3-.75-1.3-1.953S37.53-4.609,38.307-4.609ZM43.192.078c1.164,0,1.934-.625,1.934-1.566a1.333,1.333,0,0,0-.93-1.3,1.194,1.194,0,0,0,.734-1.148c0-.883-.687-1.457-1.738-1.457s-1.723.574-1.723,1.457a1.2,1.2,0,0,0,.7,1.145,1.337,1.337,0,0,0-.906,1.3C41.266-.547,42.044.078,43.192.078ZM42.278-3.9a.813.813,0,0,1,.914-.766c.566,0,.93.332.93.766,0,.477-.363.781-.93.781S42.278-3.422,42.278-3.9Zm.914,1.488c.688,0,1.121.336,1.121.867,0,.516-.434.9-1.121.9-.668,0-1.105-.383-1.105-.9C42.087-2.074,42.524-2.41,43.192-2.41Zm3.272-.684V0h.773V-3.094h1.094V-3.75H47.226v-.363c0-.543.234-.785.738-.785a1.385,1.385,0,0,1,.5.1l.082-.641a1.365,1.365,0,0,0-.621-.137,1.33,1.33,0,0,0-1.453,1.422v.406h-.719v.656Z" transform="translate(9 -19.134)" fill="#fff"/>
      </g>
    </g>
    <g id="Group_5095" data-name="Group 5095" transform="translate(950.768 1554.399)">
      <path id="Path_3817" data-name="Path 3817" d="M2.4,0V-2.168H4.1A2.229,2.229,0,0,0,6.362-4.414,2.2,2.2,0,0,0,4.1-6.631H.8V0Zm0-5.264H3.75a.869.869,0,0,1,.967.85.907.907,0,0,1-.967.879H2.4ZM8.931.146a1.82,1.82,0,0,0,1.45-.591L10.43,0h1.411V-4.687H10.3v2.656a.744.744,0,0,1-.781.771.756.756,0,0,1-.786-.771V-4.687H7.2v3.1A1.682,1.682,0,0,0,8.931.146ZM14.752,0V-2.256c0-.874.493-1.191,1.074-1.191a1.792,1.792,0,0,1,.591.1l.093-1.343a1.848,1.848,0,0,0-.571-.1,1.315,1.315,0,0,0-1.226.737l-.049-.64h-1.45V0Zm2.564,1.953h1.538v-2.3A2.046,2.046,0,0,0,20.231.1a2.218,2.218,0,0,0,2.188-2.432,2.229,2.229,0,0,0-2.187-2.451,1.7,1.7,0,0,0-1.421.591l-.049-.493H17.316Zm2.52-5.361a1,1,0,0,1,1.035,1.064,1.019,1.019,0,0,1-1.035,1.064,1,1,0,0,1-1-1.064A1,1,0,0,1,19.835-3.408Zm5.157-3.467H23.454V0h1.538Zm1.031,4.531A2.377,2.377,0,0,0,28.542.1,2.383,2.383,0,0,0,30.588-.923l-.977-.859a1.407,1.407,0,0,1-1.05.581.949.949,0,0,1-1.035-.747h3.164a3.632,3.632,0,0,0,.044-.547,2.214,2.214,0,0,0-2.344-2.29A2.3,2.3,0,0,0,26.023-2.344Zm2.412-1.23a.841.841,0,0,1,.879.723H27.527A.854.854,0,0,1,28.435-3.574Z" transform="translate(9 -61.445)" fill="#fff"/>
      <g id="Group-2" data-name="Group">
        <path id="Path_3818" data-name="Path 3818" d="M1.723,0v-1.82H2.984a1.733,1.733,0,0,0,1.9-1.73,1.724,1.724,0,0,0-1.9-1.75H.664V0Zm0-4.387h1.2a.8.8,0,0,1,.883.836.8.8,0,0,1-.883.816h-1.2ZM6.77.078a1.242,1.242,0,0,0,1.063-.5V0h.953V-2.309c0-.937-.684-1.52-1.781-1.52a2.053,2.053,0,0,0-1.6.781l.574.574a1.328,1.328,0,0,1,.992-.473.74.74,0,0,1,.813.715v.086A2.456,2.456,0,0,0,7-2.273c-1,0-1.645.492-1.645,1.2S5.918.078,6.77.078Zm.3-1.684a1.747,1.747,0,0,1,.719.145.8.8,0,0,1-.859.793c-.383,0-.625-.18-.625-.461S6.609-1.605,7.066-1.605ZM10.871,0V-2.1a.781.781,0,0,1,.832-.8.738.738,0,0,1,.777.8V0h1V-2.355A1.4,1.4,0,0,0,12-3.828a1.429,1.429,0,0,0-1.156.512l-.02-.434H9.871V0Zm3.84-2.918V-1.23A1.224,1.224,0,0,0,16.09.078,2.286,2.286,0,0,0,17-.109L16.9-.941a1.779,1.779,0,0,1-.637.129.5.5,0,0,1-.555-.562V-2.918h1.1V-3.75H15.688v-1.2h-.973v1.2h-.637v.832Zm4.6,3a1.932,1.932,0,0,0,2-1.953,1.934,1.934,0,0,0-2-1.953,1.937,1.937,0,0,0-2,1.953A1.934,1.934,0,0,0,19.313.078ZM18.3-1.875a1,1,0,0,1,1.008-1.043A.993.993,0,0,1,20.32-1.875.994.994,0,0,1,19.313-.828,1,1,0,0,1,18.3-1.875ZM23.176,0V-2.1a.781.781,0,0,1,.832-.8.738.738,0,0,1,.777.8V0h1V-2.355A1.4,1.4,0,0,0,24.3-3.828a1.429,1.429,0,0,0-1.156.512l-.02-.434h-.953V0Zm5.4.082a1.934,1.934,0,0,0,1.668-.9l-.711-.531a1.1,1.1,0,0,1-.934.527.987.987,0,0,1-1-.75h2.711A2.72,2.72,0,0,0,30.344-2a1.731,1.731,0,0,0-1.816-1.828A1.872,1.872,0,0,0,26.6-1.879,1.9,1.9,0,0,0,28.574.082Zm-.961-2.328a.881.881,0,0,1,.926-.738.842.842,0,0,1,.871.738ZM32.859-4.07l.887.422a1.034,1.034,0,0,1,.949-.785.736.736,0,0,1,.8.77c0,.434-.387.762-1.016,1.223-.645.473-1.508,1.113-1.508,2V0h3.68V-.922H34.2a3.488,3.488,0,0,1,.844-.742c.719-.523,1.539-1.059,1.539-2.012a1.747,1.747,0,0,0-1.9-1.707A1.966,1.966,0,0,0,32.859-4.07Zm6.793,2.738V0h1.012V-1.332H41.4v-.9h-.734V-5.3H39.426L37.145-2.148v.816Zm-1.359-.9L39.652-4.1V-2.23Zm5.426.422a1.541,1.541,0,0,0,1.242-.516,1.4,1.4,0,0,1-1.445,1.5,1.957,1.957,0,0,1-1.094-.34l-.3.844a2.433,2.433,0,0,0,1.434.4c1.668,0,2.48-1.172,2.48-3,0-1.348-.609-2.465-2.164-2.465a1.832,1.832,0,0,0-2.027,1.836A1.719,1.719,0,0,0,43.719-1.809ZM43.9-4.48a.917.917,0,0,1,.965.906.9.9,0,0,1-.969.887.885.885,0,0,1-.992-.891A.905.905,0,0,1,43.9-4.48ZM51.406.078A2.741,2.741,0,0,0,53.789-1.25l-.777-.562A1.892,1.892,0,0,1,51.406-.9a1.649,1.649,0,0,1-1.668-1.754,1.63,1.63,0,0,1,1.641-1.754,1.757,1.757,0,0,1,1.543.941l.832-.594a2.783,2.783,0,0,0-2.375-1.324,2.671,2.671,0,0,0-2.723,2.73A2.7,2.7,0,0,0,51.406.078Z" transform="translate(9 -47.934)" fill="#fff"/>
        <path id="Path_3819" data-name="Path 3819" d="M.34-2.652A2.7,2.7,0,0,0,3.086.078,2.7,2.7,0,0,0,5.418-1.211L4.8-1.637A2.023,2.023,0,0,1,3.086-.7,1.855,1.855,0,0,1,1.2-2.652,1.844,1.844,0,0,1,3.066-4.605a1.957,1.957,0,0,1,1.7.961L5.4-4.09A2.7,2.7,0,0,0,3.066-5.383,2.686,2.686,0,0,0,.34-2.652ZM6.309,0h.828V-3.8L8.82-.375h.586L11.09-3.8V0h.828V-5.3h-.969L9.113-1.531,7.281-5.3H6.309Zm6.355-5.3,2.012,3.266V0h.816V-2.039L17.5-5.3h-.977l-1.445,2.4L13.641-5.3ZM18.25,0h.82V-1.6l.918-.988L21.691,0h1L20.566-3.141,22.559-5.3H21.5L19.07-2.668V-5.3h-.82Z" transform="translate(9 -38.334)" fill="#fff"/>
        <path id="Path_3820" data-name="Path 3820" d="M.488-3.348a.469.469,0,0,0,.477.477.472.472,0,0,0,.48-.477.475.475,0,0,0-.48-.48A.472.472,0,0,0,.488-3.348ZM.488-.4A.469.469,0,0,0,.965.078.472.472,0,0,0,1.445-.4a.475.475,0,0,0-.48-.48A.472.472,0,0,0,.488-.4ZM5.855.078A1.767,1.767,0,0,0,7.762-1.664,1.7,1.7,0,0,0,5.934-3.406a1.347,1.347,0,0,0-.82.246l.129-1.367H7.5V-5.3H4.539l-.25,2.754L4.91-2.3a1.389,1.389,0,0,1,.961-.387.982.982,0,0,1,1.051,1.02.979.979,0,0,1-1.051.973A1.234,1.234,0,0,1,4.7-1.512l-.684.379A1.905,1.905,0,0,0,5.855.078ZM8.293-5.3v.777h2.484A20.941,20.941,0,0,0,8.645,0h.891a23.015,23.015,0,0,1,2.18-4.633V-5.3Zm9.152-.668h-.84L13.539,1.563h.836ZM21.27-1.848a1.4,1.4,0,0,0,1.258-.625c-.035,1.188-.719,1.8-1.59,1.8a1.874,1.874,0,0,1-.988-.3l-.277.7a2.3,2.3,0,0,0,1.32.359c1.648,0,2.371-1.211,2.371-2.922,0-1.4-.6-2.539-2.043-2.539a1.737,1.737,0,0,0-1.91,1.8A1.69,1.69,0,0,0,21.27-1.848Zm.082-2.82A1.03,1.03,0,0,1,22.395-3.6a1,1,0,0,1-1.047,1.023.968.968,0,0,1-1.1-1.035A1.009,1.009,0,0,1,21.352-4.668Zm2.7,3.555A1.929,1.929,0,0,0,25.914.078,1.628,1.628,0,0,0,27.7-1.473a1.293,1.293,0,0,0-.887-1.242,1.238,1.238,0,0,0,.762-1.172,1.581,1.581,0,0,0-1.777-1.5A1.847,1.847,0,0,0,24.047-4.23l.684.367a1.2,1.2,0,0,1,1.086-.762c.543,0,.922.309.922.75a.849.849,0,0,1-.957.832h-.66v.715h.66c.641,0,1.082.344,1.082.844a.864.864,0,0,1-.965.793,1.232,1.232,0,0,1-1.164-.8Zm9.617-4.859h-.84L29.758,1.563h.836Zm1.957,1.824.691.332a1.157,1.157,0,0,1,1.063-.789.86.86,0,0,1,.934.867c0,.52-.406.852-1.059,1.352S35.7-1.289,35.7-.355V0h3.555V-.777H36.648c.016-.219.59-.656,1.035-.992.7-.531,1.484-.961,1.484-1.984a1.646,1.646,0,0,0-1.793-1.629A1.875,1.875,0,0,0,35.621-4.148ZM41.906.078c1.164,0,1.934-.625,1.934-1.566a1.333,1.333,0,0,0-.93-1.3,1.194,1.194,0,0,0,.734-1.148c0-.883-.687-1.457-1.738-1.457s-1.723.574-1.723,1.457a1.2,1.2,0,0,0,.7,1.145,1.337,1.337,0,0,0-.906,1.3C39.98-.547,40.758.078,41.906.078ZM40.992-3.9a.813.813,0,0,1,.914-.766c.566,0,.93.332.93.766,0,.477-.363.781-.93.781S40.992-3.422,40.992-3.9Zm.914,1.488c.688,0,1.121.336,1.121.867,0,.516-.434.9-1.121.9-.668,0-1.105-.383-1.105-.9C40.8-2.074,41.238-2.41,41.906-2.41Zm7.879-3.562h-.84L45.879,1.563h.836ZM52.6,0h.82V-5.3H51.59v.742H52.6Zm1.8-4.148.691.332a1.157,1.157,0,0,1,1.063-.789.86.86,0,0,1,.934.867c0,.52-.406.852-1.059,1.352s-1.551,1.1-1.551,2.031V0h3.555V-.777H55.434c.016-.219.59-.656,1.035-.992.7-.531,1.484-.961,1.484-1.984A1.646,1.646,0,0,0,56.16-5.383,1.875,1.875,0,0,0,54.406-4.148Z" transform="translate(32.233 -38.334)" fill="#fff"/>
        <path id="Path_3821" data-name="Path 3821" d="M.688-5.3V0h.82V-2.082H2.832L4.031,0h.953L3.7-2.2a1.529,1.529,0,0,0,1.074-1.5A1.6,1.6,0,0,0,2.969-5.3Zm2.242.738c.652,0,.988.344.988.871s-.336.879-.988.879H1.508v-1.75ZM8.25.078a2.449,2.449,0,0,0,2.57-2.543,2.768,2.768,0,0,0-.016-.309H8.125v.742H9.953A1.582,1.582,0,0,1,8.25-.7,1.858,1.858,0,0,1,6.359-2.652,1.847,1.847,0,0,1,8.23-4.605a1.9,1.9,0,0,1,1.629.871L10.5-4.18a2.66,2.66,0,0,0-2.266-1.2A2.686,2.686,0,0,0,5.5-2.652,2.7,2.7,0,0,0,8.25.078Zm6-.078a1.565,1.565,0,0,0,1.66-1.535,1.3,1.3,0,0,0-.781-1.215,1.252,1.252,0,0,0,.582-1.07A1.5,1.5,0,0,0,14.1-5.3H11.809V0ZM12.633-3.047V-4.574H14.1a.761.761,0,0,1,.789.773.751.751,0,0,1-.789.754Zm0,.691h1.621a.821.821,0,0,1,.848.8.809.809,0,0,1-.848.816H12.633Zm4.121-.992a.469.469,0,0,0,.477.477.472.472,0,0,0,.48-.477.475.475,0,0,0-.48-.48A.472.472,0,0,0,16.754-3.348Zm0,2.949a.469.469,0,0,0,.477.477.472.472,0,0,0,.48-.477.475.475,0,0,0-.48-.48A.472.472,0,0,0,16.754-.4Zm3.574-3.75.691.332a1.157,1.157,0,0,1,1.063-.789.86.86,0,0,1,.934.867c0,.52-.406.852-1.059,1.352s-1.551,1.1-1.551,2.031V0h3.555V-.777H21.355c.016-.219.59-.656,1.035-.992.7-.531,1.484-.961,1.484-1.984a1.646,1.646,0,0,0-1.793-1.629A1.875,1.875,0,0,0,20.328-4.148ZM26.406.078a1.767,1.767,0,0,0,1.906-1.742,1.7,1.7,0,0,0-1.828-1.742,1.347,1.347,0,0,0-.82.246l.129-1.367h2.262V-5.3H25.09l-.25,2.754.621.254a1.389,1.389,0,0,1,.961-.387.982.982,0,0,1,1.051,1.02.979.979,0,0,1-1.051.973,1.234,1.234,0,0,1-1.172-.82l-.684.379A1.905,1.905,0,0,0,26.406.078Zm4.313,0a1.767,1.767,0,0,0,1.906-1.742A1.7,1.7,0,0,0,30.8-3.406a1.347,1.347,0,0,0-.82.246l.129-1.367h2.262V-5.3H29.4l-.25,2.754.621.254a1.389,1.389,0,0,1,.961-.387.982.982,0,0,1,1.051,1.02.979.979,0,0,1-1.051.973,1.234,1.234,0,0,1-1.172-.82l-.684.379A1.905,1.905,0,0,0,30.719.078Zm7.8-6.051h-.84L34.617,1.563h.836ZM40.48-4.148l.691.332a1.157,1.157,0,0,1,1.063-.789.86.86,0,0,1,.934.867c0,.52-.406.852-1.059,1.352s-1.551,1.1-1.551,2.031V0h3.555V-.777H41.508c.016-.219.59-.656,1.035-.992.7-.531,1.484-.961,1.484-1.984a1.646,1.646,0,0,0-1.793-1.629A1.875,1.875,0,0,0,40.48-4.148ZM46.559.078a1.767,1.767,0,0,0,1.906-1.742,1.7,1.7,0,0,0-1.828-1.742,1.347,1.347,0,0,0-.82.246l.129-1.367h2.262V-5.3H45.242l-.25,2.754.621.254a1.389,1.389,0,0,1,.961-.387.982.982,0,0,1,1.051,1.02.979.979,0,0,1-1.051.973,1.234,1.234,0,0,1-1.172-.82l-.684.379A1.905,1.905,0,0,0,46.559.078Zm4.313,0a1.767,1.767,0,0,0,1.906-1.742,1.7,1.7,0,0,0-1.828-1.742,1.347,1.347,0,0,0-.82.246l.129-1.367H52.52V-5.3H49.555L49.3-2.551l.621.254a1.389,1.389,0,0,1,.961-.387.982.982,0,0,1,1.051,1.02.979.979,0,0,1-1.051.973,1.234,1.234,0,0,1-1.172-.82l-.684.379A1.905,1.905,0,0,0,50.871.078Zm7.8-6.051h-.84L54.77,1.563h.836Zm1.957,1.824.691.332a1.157,1.157,0,0,1,1.063-.789.86.86,0,0,1,.934.867c0,.52-.406.852-1.059,1.352s-1.551,1.1-1.551,2.031V0h3.555V-.777H61.66c.016-.219.59-.656,1.035-.992.7-.531,1.484-.961,1.484-1.984a1.646,1.646,0,0,0-1.793-1.629A1.875,1.875,0,0,0,60.633-4.148ZM66.711.078a1.767,1.767,0,0,0,1.906-1.742,1.7,1.7,0,0,0-1.828-1.742,1.347,1.347,0,0,0-.82.246L66.1-4.527h2.262V-5.3H65.395l-.25,2.754.621.254a1.389,1.389,0,0,1,.961-.387.982.982,0,0,1,1.051,1.02.979.979,0,0,1-1.051.973,1.234,1.234,0,0,1-1.172-.82l-.684.379A1.905,1.905,0,0,0,66.711.078Zm4.313,0A1.767,1.767,0,0,0,72.93-1.664,1.7,1.7,0,0,0,71.1-3.406a1.347,1.347,0,0,0-.82.246l.129-1.367h2.262V-5.3H69.707l-.25,2.754.621.254a1.389,1.389,0,0,1,.961-.387.982.982,0,0,1,1.051,1.02.979.979,0,0,1-1.051.973,1.234,1.234,0,0,1-1.172-.82l-.684.379A1.905,1.905,0,0,0,71.023.078Z" transform="translate(9 -28.734)" fill="#fff"/>
        <path id="Path_3822" data-name="Path 3822" d="M.117-5.3,1.594,0H2.918L3.98-3.93,5.047,0H6.371L7.848-5.3H7.023L5.707-.738,4.422-5.219H3.543L2.258-.738.938-5.3ZM8.62,0h3.8V-.746H9.441V-2.352h2.488V-3.1H9.441V-4.559h2.9V-5.3H8.62Zm7.241,0a1.565,1.565,0,0,0,1.66-1.535,1.3,1.3,0,0,0-.781-1.215,1.252,1.252,0,0,0,.582-1.07A1.5,1.5,0,0,0,15.706-5.3H13.416V0ZM14.241-3.047V-4.574h1.465a.761.761,0,0,1,.789.773.751.751,0,0,1-.789.754Zm0,.691h1.621a.821.821,0,0,1,.848.8.809.809,0,0,1-.848.816H14.241Zm4.089-.992a.469.469,0,0,0,.477.477.472.472,0,0,0,.48-.477.475.475,0,0,0-.48-.48A.472.472,0,0,0,18.33-3.348Zm0,2.949a.469.469,0,0,0,.477.477.472.472,0,0,0,.48-.477.475.475,0,0,0-.48-.48A.472.472,0,0,0,18.33-.4Zm5.51.477c1.164,0,1.934-.625,1.934-1.566a1.333,1.333,0,0,0-.93-1.3,1.194,1.194,0,0,0,.734-1.148c0-.883-.687-1.457-1.738-1.457s-1.723.574-1.723,1.457a1.2,1.2,0,0,0,.7,1.145,1.337,1.337,0,0,0-.906,1.3C21.914-.547,22.692.078,23.84.078ZM22.926-3.9a.813.813,0,0,1,.914-.766c.566,0,.93.332.93.766,0,.477-.363.781-.93.781S22.926-3.422,22.926-3.9ZM23.84-2.41c.688,0,1.121.336,1.121.867,0,.516-.434.9-1.121.9-.668,0-1.105-.383-1.105-.9C22.735-2.074,23.172-2.41,23.84-2.41ZM28.609.078c1.293,0,2.113-1.066,2.113-2.73s-.82-2.73-2.113-2.73-2.117,1.07-2.117,2.73S27.316.078,28.609.078Zm0-4.687c.773,0,1.293.758,1.293,1.957S29.382-.7,28.609-.7s-1.3-.75-1.3-1.953S27.831-4.609,28.609-4.609Zm2.757.461.691.332a1.157,1.157,0,0,1,1.063-.789.86.86,0,0,1,.934.867c0,.52-.406.852-1.059,1.352s-1.551,1.1-1.551,2.031V0H35V-.777H32.393c.016-.219.59-.656,1.035-.992.7-.531,1.484-.961,1.484-1.984A1.646,1.646,0,0,0,33.12-5.383,1.875,1.875,0,0,0,31.366-4.148ZM35.537-5.3v.777h2.484A20.941,20.941,0,0,0,35.889,0h.891a23.015,23.015,0,0,1,2.18-4.633V-5.3ZM41.466.078a1.763,1.763,0,0,0,1.879-1.8A1.7,1.7,0,0,0,41.5-3.457a1.517,1.517,0,0,0-1.316.625c.066-1.3.7-1.809,1.609-1.809a2.091,2.091,0,0,1,1.008.258l.238-.7a2.452,2.452,0,0,0-1.262-.3c-1.676,0-2.41,1.211-2.41,2.922C39.372-1.059,39.985.078,41.466.078ZM41.4-2.73A.99.99,0,0,1,42.5-1.7,1.025,1.025,0,0,1,41.411-.637a1.039,1.039,0,0,1-1.09-1.07A1,1,0,0,1,41.4-2.73Z" transform="translate(9 -19.134)" fill="#fff"/>
        <path id="Path_3823" data-name="Path 3823" d="M2.3.078A1.957,1.957,0,0,0,4.039-.941l-.582-.41a1.308,1.308,0,0,1-1.152.7A1.194,1.194,0,0,1,1.1-1.879,1.186,1.186,0,0,1,2.32-3.1a1.288,1.288,0,0,1,1.125.707l.6-.406A1.908,1.908,0,0,0,2.336-3.828,1.961,1.961,0,0,0,.316-1.879,1.941,1.941,0,0,0,2.3.078Z" transform="translate(53.76 -19.134)" fill="#fff"/>
      </g>
    </g>
    <g id="Group_5097" data-name="Group 5097" transform="translate(959.768 1731.517)">
      <g id="Group_5096" data-name="Group 5096" clip-path="url(#clip-path)">
        <path id="Path_3816" data-name="Path 3816" d="M.27-4.07l.887.422a1.034,1.034,0,0,1,.949-.785.736.736,0,0,1,.8.77c0,.434-.387.762-1.016,1.223C1.25-1.969.387-1.328.387-.441V0h3.68V-.922H1.613a3.488,3.488,0,0,1,.844-.742C3.176-2.187,4-2.723,4-3.676a1.747,1.747,0,0,0-1.9-1.707A1.966,1.966,0,0,0,.27-4.07ZM4.878-2.633c0,1.461.676,2.711,2.234,2.711S9.35-1.172,9.35-2.633s-.664-2.75-2.238-2.75S4.878-4.094,4.878-2.633Zm2.234-1.8c.832,0,1.16.875,1.16,1.785,0,.938-.328,1.785-1.16,1.785S5.956-1.715,5.956-2.652C5.956-3.562,6.28-4.437,7.112-4.437Zm4.413,2a1.449,1.449,0,0,0,1.5-1.465,1.451,1.451,0,0,0-1.5-1.477,1.448,1.448,0,0,0-1.492,1.477A1.445,1.445,0,0,0,11.525-2.441ZM11.642-.1V0h.613l2.859-5.211V-5.3H14.51Zm-.117-4.535a.7.7,0,0,1,.711.73.7.7,0,0,1-.711.719.7.7,0,0,1-.715-.719A.707.707,0,0,1,11.525-4.637Zm3.7,4.715a1.45,1.45,0,0,0,1.5-1.465,1.452,1.452,0,0,0-1.5-1.477,1.45,1.45,0,0,0-1.492,1.477A1.448,1.448,0,0,0,15.224.078Zm0-2.2a.7.7,0,0,1,.711.73.7.7,0,0,1-.711.719.7.7,0,0,1-.711-.719A.706.706,0,0,1,15.224-2.117Zm4.228.941A2.254,2.254,0,0,0,21.582.078c.945,0,2-.512,2-1.551s-.828-1.316-1.824-1.668c-.664-.234-1.051-.3-1.051-.723,0-.348.363-.566.773-.566a1.4,1.4,0,0,1,1.176.777l.813-.578A2.233,2.233,0,0,0,21.5-5.383a1.7,1.7,0,0,0-1.879,1.523c0,1.023.832,1.336,1.852,1.656.633.2,1.027.387,1.027.738s-.4.59-.91.59a1.477,1.477,0,0,1-1.363-.863ZM25.592,0V-2.1a.779.779,0,0,1,.828-.8.733.733,0,0,1,.766.8V0h1V-2.355a1.394,1.394,0,0,0-1.473-1.473,1.45,1.45,0,0,0-1.125.477V-5.5h-1V0Zm4.972.078a1.242,1.242,0,0,0,1.063-.5V0h.953V-2.309c0-.937-.684-1.52-1.781-1.52a2.053,2.053,0,0,0-1.6.781l.574.574a1.328,1.328,0,0,1,.992-.473.74.74,0,0,1,.813.715v.086a2.456,2.456,0,0,0-.789-.129c-1,0-1.645.492-1.645,1.2S29.712.078,30.564.078Zm.3-1.684a1.747,1.747,0,0,1,.719.145.8.8,0,0,1-.859.793c-.383,0-.625-.18-.625-.461S30.4-1.605,30.861-1.605Zm2.655-.273A1.823,1.823,0,0,0,35.332.078,1.564,1.564,0,0,0,36.551-.4l.02.4h.984V-5.5H36.57v2.2a1.485,1.485,0,0,0-1.238-.531A1.812,1.812,0,0,0,33.516-1.879ZM35.539-2.93a1,1,0,0,1,1.02,1.047A1.021,1.021,0,0,1,35.539-.82a1.013,1.013,0,0,1-1.016-1.062A.993.993,0,0,1,35.539-2.93ZM40.515.082a1.934,1.934,0,0,0,1.668-.9l-.711-.531a1.1,1.1,0,0,1-.934.527.987.987,0,0,1-1-.75h2.711A2.72,2.72,0,0,0,42.284-2a1.731,1.731,0,0,0-1.816-1.828,1.872,1.872,0,0,0-1.93,1.949A1.9,1.9,0,0,0,40.515.082Zm-.961-2.328a.881.881,0,0,1,.926-.738.842.842,0,0,1,.871.738Z" transform="translate(0 -9.563)" fill="#fff"/>
      </g>
    </g>
    <g id="Group_5098" data-name="Group 5098" transform="translate(697.768 1731.517)">
      <g id="Group_5096-2" data-name="Group 5096" clip-path="url(#clip-path)">
        <path id="Path_3815" data-name="Path 3815" d="M.27-4.07l.887.422a1.034,1.034,0,0,1,.949-.785.736.736,0,0,1,.8.77c0,.434-.387.762-1.016,1.223C1.25-1.969.387-1.328.387-.441V0h3.68V-.922H1.613a3.488,3.488,0,0,1,.844-.742C3.176-2.187,4-2.723,4-3.676a1.747,1.747,0,0,0-1.9-1.707A1.966,1.966,0,0,0,.27-4.07ZM4.878-2.633c0,1.461.676,2.711,2.234,2.711S9.35-1.172,9.35-2.633s-.664-2.75-2.238-2.75S4.878-4.094,4.878-2.633Zm2.234-1.8c.832,0,1.16.875,1.16,1.785,0,.938-.328,1.785-1.16,1.785S5.956-1.715,5.956-2.652C5.956-3.562,6.28-4.437,7.112-4.437Zm4.413,2a1.449,1.449,0,0,0,1.5-1.465,1.451,1.451,0,0,0-1.5-1.477,1.448,1.448,0,0,0-1.492,1.477A1.445,1.445,0,0,0,11.525-2.441ZM11.642-.1V0h.613l2.859-5.211V-5.3H14.51Zm-.117-4.535a.7.7,0,0,1,.711.73.7.7,0,0,1-.711.719.7.7,0,0,1-.715-.719A.707.707,0,0,1,11.525-4.637Zm3.7,4.715a1.45,1.45,0,0,0,1.5-1.465,1.452,1.452,0,0,0-1.5-1.477,1.45,1.45,0,0,0-1.492,1.477A1.448,1.448,0,0,0,15.224.078Zm0-2.2a.7.7,0,0,1,.711.73.7.7,0,0,1-.711.719.7.7,0,0,1-.711-.719A.706.706,0,0,1,15.224-2.117Zm4.228.941A2.254,2.254,0,0,0,21.582.078c.945,0,2-.512,2-1.551s-.828-1.316-1.824-1.668c-.664-.234-1.051-.3-1.051-.723,0-.348.363-.566.773-.566a1.4,1.4,0,0,1,1.176.777l.813-.578A2.233,2.233,0,0,0,21.5-5.383a1.7,1.7,0,0,0-1.879,1.523c0,1.023.832,1.336,1.852,1.656.633.2,1.027.387,1.027.738s-.4.59-.91.59a1.477,1.477,0,0,1-1.363-.863ZM25.592,0V-2.1a.779.779,0,0,1,.828-.8.733.733,0,0,1,.766.8V0h1V-2.355a1.394,1.394,0,0,0-1.473-1.473,1.45,1.45,0,0,0-1.125.477V-5.5h-1V0Zm4.972.078a1.242,1.242,0,0,0,1.063-.5V0h.953V-2.309c0-.937-.684-1.52-1.781-1.52a2.053,2.053,0,0,0-1.6.781l.574.574a1.328,1.328,0,0,1,.992-.473.74.74,0,0,1,.813.715v.086a2.456,2.456,0,0,0-.789-.129c-1,0-1.645.492-1.645,1.2S29.712.078,30.564.078Zm.3-1.684a1.747,1.747,0,0,1,.719.145.8.8,0,0,1-.859.793c-.383,0-.625-.18-.625-.461S30.4-1.605,30.861-1.605Zm2.655-.273A1.823,1.823,0,0,0,35.332.078,1.564,1.564,0,0,0,36.551-.4l.02.4h.984V-5.5H36.57v2.2a1.485,1.485,0,0,0-1.238-.531A1.812,1.812,0,0,0,33.516-1.879ZM35.539-2.93a1,1,0,0,1,1.02,1.047A1.021,1.021,0,0,1,35.539-.82a1.013,1.013,0,0,1-1.016-1.062A.993.993,0,0,1,35.539-2.93ZM40.515.082a1.934,1.934,0,0,0,1.668-.9l-.711-.531a1.1,1.1,0,0,1-.934.527.987.987,0,0,1-1-.75h2.711A2.72,2.72,0,0,0,42.284-2a1.731,1.731,0,0,0-1.816-1.828,1.872,1.872,0,0,0-1.93,1.949A1.9,1.9,0,0,0,40.515.082Zm-.961-2.328a.881.881,0,0,1,.926-.738.842.842,0,0,1,.871.738Z" transform="translate(0 -9.563)" fill="#fff"/>
      </g>
    </g>
  </g>
</svg>
