<svg xmlns="http://www.w3.org/2000/svg" xmlns:xlink="http://www.w3.org/1999/xlink" width="87.794" height="21.948" viewBox="0 0 87.794 21.948">
  <defs>
    <clipPath id="clip-path">
      <rect id="Rectangle_37" data-name="Rectangle 37" width="10.593" height="8.871" fill="#3a4e90"/>
    </clipPath>
  </defs>
  <g id="Group_6658" data-name="Group 6658" transform="translate(-446.135 -973.49)">
    <g id="Rectangle_363" data-name="Rectangle 363" transform="translate(446.135 973.49)" fill="none" stroke="#3a4e90" stroke-width="1">
      <rect width="87.794" height="21.948" stroke="none"/>
      <rect x="0.5" y="0.5" width="86.794" height="20.948" fill="none"/>
    </g>
    <g id="Group_6651" data-name="Group 6651" transform="translate(457.061 980.029)">
      <g id="Group_175" data-name="Group 175" transform="translate(0 0)" clip-path="url(#clip-path)">
        <path id="Path_174" data-name="Path 174" d="M16.9,6.838a.4.4,0,0,1-.3-.115L13.815,3.948a.386.386,0,0,1,.115-.618.543.543,0,0,1,.277-.08.438.438,0,0,1,.316.133L16.36,5.216V.376c0-.258.257-.376.5-.376s.5.118.5.376V5.344L19.107,3.47a.56.56,0,0,1,.417-.171c.023,0,.046,0,.069,0a.6.6,0,0,1,.453.241.25.25,0,0,1-.063.314l-2.6,2.776a.662.662,0,0,1-.471.2Z" transform="translate(-11.474 0)" fill="#3a4e90"/>
        <path id="Path_175" data-name="Path 175" d="M.477,63.812c-.328,0-.477-.2-.477-.391s.149-.391.477-.391H2.614a.536.536,0,0,1,.343.108.35.35,0,0,1,.134.281c0,.191-.149.394-.477.394Z" transform="translate(0 -54.94)" fill="#3a4e90"/>
        <path id="Path_176" data-name="Path 176" d="M23.509,63.812c-.328,0-.477-.2-.477-.391s.149-.391.477-.391h2.146a.521.521,0,0,1,.334.1.353.353,0,0,1,.133.284c0,.191-.149.394-.477.394Z" transform="translate(-19.285 -54.94)" fill="#3a4e90"/>
        <path id="Path_177" data-name="Path 177" d="M46.6,63.812c-.328,0-.477-.2-.477-.391s.149-.391.477-.391h2.137a.424.424,0,0,1,.477.391c0,.189-.149.391-.477.391Z" transform="translate(-38.62 -54.94)" fill="#3a4e90"/>
      </g>
    </g>
    <path id="Path_4554" data-name="Path 4554" d="M4.632,6.934A3.375,3.375,0,0,0,8.04,3.585,3.363,3.363,0,0,0,4.632.246H1.707V6.934ZM3.327,5.575V1.61H4.475A1.887,1.887,0,0,1,6.366,3.585a1.9,1.9,0,0,1-1.891,1.99Zm5.412-1A2.437,2.437,0,0,0,11.28,7.032,2.437,2.437,0,0,0,13.821,4.57,2.437,2.437,0,0,0,11.28,2.108,2.437,2.437,0,0,0,8.739,4.57Zm1.536,0a1.005,1.005,0,1,1,2.009,0,1.006,1.006,0,1,1-2.009,0ZM14.24,2.206l1.394,4.728h1.812l.724-2.369L18.9,6.934h1.812L22.1,2.206H20.524L19.7,5.318,18.78,2.3H17.564l-.921,3.019-.822-3.112ZM24.33,6.934V4.3a.75.75,0,0,1,.788-.778.762.762,0,0,1,.793.778v2.63h1.551V3.861a1.7,1.7,0,0,0-1.748-1.753,1.836,1.836,0,0,0-1.463.6l-.049-.5H22.779V6.934ZM30.186,0H28.634V6.934h1.551ZM31.2,4.57a2.542,2.542,0,0,0,5.082,0,2.542,2.542,0,0,0-5.082,0Zm1.536,0a1.005,1.005,0,1,1,2.009,0,1.006,1.006,0,1,1-2.009,0Zm6.008,2.462a1.568,1.568,0,0,0,1.261-.581v.483h1.472V4.127c0-1.261-.867-2.019-2.3-2.019a2.913,2.913,0,0,0-2.127.975L37.9,4a1.559,1.559,0,0,1,1.138-.527c.561,0,.886.271.886.64V4.21a3.572,3.572,0,0,0-.946-.123c-1.074,0-2,.566-2,1.507C36.981,6.491,37.745,7.032,38.744,7.032ZM38.469,5.5c0-.305.305-.473.788-.473a1.846,1.846,0,0,1,.67.123.8.8,0,0,1-.842.822C38.725,5.973,38.469,5.781,38.469,5.5Zm6.175,1.532a1.994,1.994,0,0,0,1.389-.463l.049.364h1.5V0H46.077V2.7a1.716,1.716,0,0,0-1.433-.6A2.248,2.248,0,0,0,42.438,4.58,2.236,2.236,0,0,0,44.644,7.032ZM44,4.57a1.028,1.028,0,1,1,2.054,0,1.006,1.006,0,0,1-1.01,1.074A1.028,1.028,0,0,1,44,4.57Z" transform="translate(473.327 980.304)" fill="#3a4e90"/>
  </g>
</svg>
