<svg id="Group_71" data-name="Group 71" xmlns="http://www.w3.org/2000/svg" xmlns:xlink="http://www.w3.org/1999/xlink" width="406.68" height="146.617" viewBox="0 0 406.68 146.617">
  <defs>
    <clipPath id="clip-path">
      <path id="Path_69" data-name="Path 69" d="M0,41.89H406.68V-104.727H0Z" transform="translate(0 104.727)" fill="#3c4c8d"/>
    </clipPath>
  </defs>
  <g id="Group_51" data-name="Group 51" transform="translate(11.259 24.363)">
    <path id="Path_47" data-name="Path 47" d="M8.969,3.7-22.424-9.257V27.834H2.266V15.992H15.672V27.834h24.69V-9.257Z" transform="translate(22.424 9.257)" fill="#cbaf8b"/>
  </g>
  <g id="Group_52" data-name="Group 52" transform="translate(11.259 74.861)">
    <path id="Path_48" data-name="Path 48" d="M10.884,0V11.843H-2.522V0h-24.69V37.091L4.181,24.132l31.393,12.96V0Z" transform="translate(27.212)" fill="#cbaf8b"/>
  </g>
  <g id="Group_70" data-name="Group 70" clip-path="url(#clip-path)">
    <g id="Group_53" data-name="Group 53" transform="translate(104.343 30.702)">
      <path id="Path_49" data-name="Path 49" d="M2.389,4.636.672,3.144V21.452H-5.972V-11.591h.134L9.667,4.048l15.5-15.639h.134V21.452H18.662V3.144L16.946,4.636c-2.4,2.621-4.837,5.243-7.279,7.819C7.226,9.879,4.83,7.257,2.389,4.636" transform="translate(5.972 11.591)" fill="#3c4c8d"/>
    </g>
    <path id="Path_50" data-name="Path 50" d="M109.178-49.845H102.4v-22.6h6.782Zm0-22.6-3.391-10.125a3.466,3.466,0,0,1,3.752,3.661,3.478,3.478,0,0,1-3.752,3.616,3.455,3.455,0,0,1-3.752-3.616,3.444,3.444,0,0,1,3.752-3.661" transform="translate(40.813 113.589)" fill="#3c4c8d"/>
    <g id="Group_54" data-name="Group 54" transform="translate(155.501 31.199)">
      <path id="Path_51" data-name="Path 51" d="M1.821,6.07c0,3.706,2.26,6.238,5.379,6.238,2.713,0,5.425-2.08,5.425-6.238S9.913-.169,7.2-.169c-3.119,0-5.379,2.486-5.379,6.238m17.764,11.3H13.438L13.3,15.292a5.976,5.976,0,0,1,.091-1.492H13.3A8.247,8.247,0,0,1,5.981,18C.148,18-4.553,13.483-4.553,6.07-4.553-1.389.148-5.864,5.8-5.864a8.626,8.626,0,0,1,7.1,3.3h.091a9.25,9.25,0,0,1-.136-1.854V-15.175h6.735Z" transform="translate(4.553 15.175)" fill="#3c4c8d"/>
    </g>
    <g id="Group_55" data-name="Group 55" transform="translate(183.161 41.143)">
      <path id="Path_52" data-name="Path 52" d="M6.535,2.17C7.3,4.386,7.981,6.826,8.478,8.588c.588-1.31,1.446-4.474,2.171-6.464l2.576-7.549h7.052L10.83,17.449H6.445L1.97,5.062-2.461,17.449h-4.43L-16.338-5.424h7.052C-7.658-.632-5.715,4.7-4.585,8.588L-.018-5.288H3.958Z" transform="translate(16.338 5.424)" fill="#3c4c8d"/>
    </g>
    <g id="Group_56" data-name="Group 56" transform="translate(221.487 40.51)">
      <path id="Path_53" data-name="Path 53" d="M3.268,1.524C.556,1.524-.981,3.6-1.162,6.045H7.381C7.472,3.6,6.025,1.524,3.268,1.524M13.844,6.768a25.686,25.686,0,0,1-.181,2.757H-1.162C-.89,12.6,1.459,14.362,5.12,14.362a18.832,18.832,0,0,0,7.82-1.673V18.43a19.822,19.822,0,0,1-8.453,1.627c-7.773,0-12.656-5.018-12.656-11.934,0-6.87,5.018-11.934,11.481-11.934,6.961,0,10.532,4.973,10.532,10.578" transform="translate(8.169 3.81)" fill="#3c4c8d"/>
    </g>
    <g id="Group_57" data-name="Group 57" transform="translate(247.475 40.511)">
      <path id="Path_54" data-name="Path 54" d="M2.054,4.068c-4.2-1.175-7.188-2.939-7.188-7.322,0-4.2,3.345-6.916,8.589-6.916a19.4,19.4,0,0,1,7.322,1.4v5.785A17.072,17.072,0,0,0,5.036-4.655a7.8,7.8,0,0,0-2.079.09c-.949.181-1.9.633-1.9,1.628,0,1.13,1.128,1.716,3.525,2.44C9.738.949,12.178,2.757,12.178,6.826c0,4.339-3.571,6.871-9.311,6.871A19.092,19.092,0,0,1-4.818,12.2V6.283A18.759,18.759,0,0,0,2.776,8.362c1.674,0,3.21-.451,3.21-1.807,0-1.221-1.357-1.718-3.933-2.486" transform="translate(5.134 10.17)" fill="#3c4c8d"/>
    </g>
    <g id="Group_58" data-name="Group 58" transform="translate(267.315 34.363)">
      <path id="Path_55" data-name="Path 55" d="M.93,1.937v-6.78H7.485v6.78h6.01V7.225H7.485v9.086c0,2.4,1.4,3.21,2.892,3.21a9.081,9.081,0,0,0,3.842-.949v5.559a13.991,13.991,0,0,1-5.741,1.04c-3.57,0-7.052-1.673-7.547-6.419C.885,18.029.794,17.26.794,16.447V7.225H-2.325V1.937Z" transform="translate(2.325 4.843)" fill="#3c4c8d"/>
    </g>
    <g id="Group_59" data-name="Group 59" transform="translate(286.839 40.51)">
      <path id="Path_56" data-name="Path 56" d="M3.268,1.524C.554,1.524-.981,3.6-1.162,6.045H7.379C7.472,3.6,6.025,1.524,3.268,1.524M13.844,6.768a25.686,25.686,0,0,1-.181,2.757H-1.162c.27,3.074,2.621,4.837,6.282,4.837a18.832,18.832,0,0,0,7.82-1.673V18.43a19.822,19.822,0,0,1-8.453,1.627c-7.774,0-12.656-5.018-12.656-11.934,0-6.87,5.018-11.934,11.481-11.934,6.961,0,10.532,4.973,10.532,10.578" transform="translate(8.169 3.81)" fill="#3c4c8d"/>
    </g>
    <g id="Group_60" data-name="Group 60" transform="translate(314.408 40.511)">
      <path id="Path_57" data-name="Path 57" d="M0,.181H6.149L6.285,2.4a12.478,12.478,0,0,0,.045,1.491A7.89,7.89,0,0,1,13.018-.452a6,6,0,0,1,1.446.136v6.6a3.69,3.69,0,0,0-1.491-.27c-3.436,0-6.238,3.028-6.238,7.141v9.628H0Z" transform="translate(0 0.452)" fill="#3c4c8d"/>
    </g>
    <g id="Group_61" data-name="Group 61" transform="translate(333.661 40.511)">
      <path id="Path_58" data-name="Path 58" d="M1.77.181,1.95,2.757A5.064,5.064,0,0,1,1.77,4.339h.091A8.976,8.976,0,0,1,9.635-.452c5.109,0,7.865,3.118,7.865,9.086V22.781H10.72V9.764c0-2.215-.633-4.068-3.074-4.068-3.163,0-5.288,2.442-5.288,5.831V22.781H-4.424V.181Z" transform="translate(4.424 0.452)" fill="#3c4c8d"/>
    </g>
    <g id="Group_62" data-name="Group 62" transform="translate(103.889 74.793)">
      <path id="Path_59" data-name="Path 59" d="M7.775,5.915c0,7.594-5.018,12.477-13.606,12.477-8.544,0-13.606-4.883-13.606-12.477v-20.7h6.962V5.237c0,4.249,2.4,6.78,6.644,6.78,4.294,0,6.644-2.531,6.644-6.78V-14.788H7.775Z" transform="translate(19.438 14.788)" fill="#3c4c8d"/>
    </g>
    <g id="Group_63" data-name="Group 63" transform="translate(138.012 84.106)">
      <path id="Path_60" data-name="Path 60" d="M1.77.181,1.95,2.757A5.064,5.064,0,0,1,1.77,4.339h.091A8.976,8.976,0,0,1,9.635-.452c5.109,0,7.865,3.118,7.865,9.086V22.782H10.72V9.764c0-2.215-.633-4.068-3.074-4.068-3.163,0-5.288,2.442-5.288,5.831V22.782H-4.424V.181Z" transform="translate(4.424 0.452)" fill="#3c4c8d"/>
    </g>
    <path id="Path_61" data-name="Path 61" d="M125.964-18.7h-6.782v-22.6h6.782Zm0-22.6-3.391-10.125a3.465,3.465,0,0,1,3.752,3.661,3.478,3.478,0,0,1-3.752,3.616,3.454,3.454,0,0,1-3.751-3.616,3.442,3.442,0,0,1,3.751-3.661" transform="translate(47.528 126.045)" fill="#3c4c8d"/>
    <g id="Group_64" data-name="Group 64" transform="translate(176.925 84.739)">
      <path id="Path_62" data-name="Path 62" d="M6.935,0l-9.99,22.872H-7.3L-17.339,0h7.052C-8.48,4.61-6.31,9.855-5.223,13.605c.5-1.219,1.446-4.43,2.26-6.464L-.116,0Z" transform="translate(17.339)" fill="#3c4c8d"/>
    </g>
    <g id="Group_65" data-name="Group 65" transform="translate(202.867 84.105)">
      <path id="Path_63" data-name="Path 63" d="M3.268,1.524C.556,1.524-.981,3.6-1.162,6.045H7.381C7.472,3.6,6.025,1.524,3.268,1.524M13.844,6.768a25.686,25.686,0,0,1-.181,2.757H-1.162c.272,3.074,2.621,4.837,6.283,4.837a18.838,18.838,0,0,0,7.82-1.673V18.43a19.822,19.822,0,0,1-8.453,1.627c-7.774,0-12.657-5.018-12.657-11.934,0-6.87,5.018-11.934,11.483-11.934,6.959,0,10.531,4.973,10.531,10.578" transform="translate(8.169 3.81)" fill="#3c4c8d"/>
    </g>
    <g id="Group_66" data-name="Group 66" transform="translate(230.435 84.106)">
      <path id="Path_64" data-name="Path 64" d="M0,.181H6.149L6.283,2.4a12.479,12.479,0,0,0,.045,1.491A7.891,7.891,0,0,1,13.018-.452a6.139,6.139,0,0,1,1.446.134v6.6a3.7,3.7,0,0,0-1.491-.27c-3.437,0-6.238,3.028-6.238,7.141v9.629H0Z" transform="translate(0 0.452)" fill="#3c4c8d"/>
    </g>
    <g id="Group_67" data-name="Group 67" transform="translate(248.197 84.106)">
      <path id="Path_65" data-name="Path 65" d="M2.054,4.068c-4.2-1.175-7.188-2.939-7.188-7.323,0-4.2,3.346-6.915,8.589-6.915a19.436,19.436,0,0,1,7.323,1.4v5.786A17.082,17.082,0,0,0,5.037-4.657a7.842,7.842,0,0,0-2.078.091c-.951.181-1.9.633-1.9,1.628,0,1.13,1.13,1.716,3.527,2.44C9.738.949,12.18,2.757,12.18,6.826c0,4.339-3.571,6.87-9.313,6.87A19.088,19.088,0,0,1-4.816,12.2V6.283A18.759,18.759,0,0,0,2.777,8.362c1.673,0,3.21-.451,3.21-1.807,0-1.221-1.357-1.718-3.934-2.486" transform="translate(5.134 10.17)" fill="#3c4c8d"/>
    </g>
    <path id="Path_66" data-name="Path 66" d="M200.44-18.7h-6.782v-22.6h6.782Zm0-22.6-3.391-10.125A3.464,3.464,0,0,1,200.8-47.77a3.477,3.477,0,0,1-3.751,3.616A3.454,3.454,0,0,1,193.3-47.77a3.442,3.442,0,0,1,3.752-3.661" transform="translate(77.317 126.045)" fill="#3c4c8d"/>
    <g id="Group_68" data-name="Group 68" transform="translate(282.047 77.959)">
      <path id="Path_67" data-name="Path 67" d="M.93,1.937v-6.78H7.485v6.78H13.5V7.225H7.485v9.086c0,2.4,1.4,3.21,2.892,3.21a9.075,9.075,0,0,0,3.842-.949v5.559a13.983,13.983,0,0,1-5.74,1.04c-3.571,0-7.052-1.673-7.549-6.419C.885,18.029.8,17.26.8,16.447V7.225H-2.325V1.937Z" transform="translate(2.325 4.843)" fill="#3c4c8d"/>
    </g>
    <g id="Group_69" data-name="Group 69" transform="translate(300.533 84.739)">
      <path id="Path_68" data-name="Path 68" d="M.258,7.632a7.255,7.255,0,0,0,2.666.452c2.985,0,4.522-1.989,5.741-4.565l-9.311-22.6H6.767l2.621,7.864c.951,2.758,1.9,5.561,2.667,8.408.588-1.266,2.08-6.735,2.713-8.408l2.621-7.864h7.323L15.942,3.338C13.366,10.028,9.976,13.374,5.23,13.915a12.168,12.168,0,0,1-2.848.046,7.965,7.965,0,0,1-2.124-.407Z" transform="translate(0.646 19.081)" fill="#3c4c8d"/>
    </g>
  </g>
</svg>
