<svg xmlns="http://www.w3.org/2000/svg" xmlns:xlink="http://www.w3.org/1999/xlink" width="282.467" height="93.505" viewBox="0 0 282.467 93.505">
  <defs>
    <clipPath id="clip-path">
      <path id="Path_3881" data-name="Path 3881" d="M0,44.177H282.467V-49.328H0Z" transform="translate(0 49.328)" fill="none"/>
    </clipPath>
  </defs>
  <g id="Group_5935" data-name="Group 5935" transform="translate(0 49.328)">
    <g id="Group_5935-2" data-name="Group 5935" transform="translate(30.283 -33.79)">
      <path id="Path_3859" data-name="Path 3859" d="M9.459,3.9-10.562-4.36V19.295H5.185V11.743h8.549v7.552H29.48V-4.36Z" transform="translate(10.562 4.36)" fill="#3a4e90"/>
    </g>
    <g id="Group_5936" data-name="Group 5936" transform="translate(30.284 -1.585)">
      <path id="Path_3860" data-name="Path 3860" d="M11.479,0V7.552H2.928V0H-12.817V23.655L7.2,15.39l20.021,8.265V0Z" transform="translate(12.817)" fill="#3a4e90"/>
    </g>
    <g id="Group_5954" data-name="Group 5954" transform="translate(0 -49.328)" clip-path="url(#clip-path)">
      <g id="Group_5937" data-name="Group 5937" transform="translate(89.648 19.579)">
        <path id="Path_3861" data-name="Path 3861" d="M2.519,4.89,1.426,3.938V15.613H-2.813V-5.46h.085L7.162,4.515,17.049-5.46h.087V15.613H12.9V3.938L11.8,4.89c-1.53,1.672-3.086,3.344-4.642,4.987C5.6,8.234,4.076,6.562,2.519,4.89" transform="translate(2.813 5.46)" fill="#3a4e90"/>
      </g>
      <path id="Path_3862" data-name="Path 3862" d="M64.8-18.022H60.477V-32.436H64.8Zm0-14.414M62.64-38.892a2.211,2.211,0,0,1,2.394,2.335,2.218,2.218,0,0,1-2.394,2.305,2.2,2.2,0,0,1-2.392-2.305,2.2,2.2,0,0,1,2.392-2.335" transform="translate(53.957 58.674)" fill="#3a4e90"/>
      <g id="Group_5938" data-name="Group 5938" transform="translate(122.274 19.896)">
        <path id="Path_3863" data-name="Path 3863" d="M1.921,6.4c0,2.364,1.441,3.979,3.431,3.979,1.729,0,3.459-1.327,3.459-3.979S7.081,2.423,5.352,2.423c-1.99,0-3.431,1.587-3.431,3.979m11.33,7.207H9.331l-.087-1.327A3.862,3.862,0,0,1,9.3,11.33H9.244a5.259,5.259,0,0,1-4.671,2.682c-3.719,0-6.718-2.883-6.718-7.611,0-4.756,3-7.611,6.6-7.611A5.5,5.5,0,0,1,8.984.895h.057A5.984,5.984,0,0,1,8.956-.286V-7.148h4.3Z" transform="translate(2.145 7.148)" fill="#3a4e90"/>
      </g>
      <g id="Group_5939" data-name="Group 5939" transform="translate(139.915 26.239)">
        <path id="Path_3864" data-name="Path 3864" d="M6.892,2.288c.491,1.412.923,2.968,1.24,4.094.375-.836.921-2.855,1.384-4.123l1.643-4.815h4.5L9.631,12.032h-2.8L3.98,4.133l-2.826,7.9H-1.671L-7.7-2.555h4.5C-2.16.5-.92,3.9-.2,6.383l2.912-8.85H5.248Z" transform="translate(7.695 2.555)" fill="#3a4e90"/>
      </g>
      <g id="Group_5940" data-name="Group 5940" transform="translate(164.357 25.836)">
        <path id="Path_3865" data-name="Path 3865" d="M3.446,1.607A2.842,2.842,0,0,0,.622,4.49H6.07A2.567,2.567,0,0,0,3.446,1.607M10.193,4.95a16.377,16.377,0,0,1-.116,1.759H.622c.172,1.96,1.67,3.084,4.005,3.084A12,12,0,0,0,9.614,8.726v3.662a12.639,12.639,0,0,1-5.391,1.037c-4.957,0-8.071-3.2-8.071-7.609A7.312,7.312,0,0,1,3.475-1.794,6.385,6.385,0,0,1,10.193,4.95" transform="translate(3.848 1.794)" fill="#3a4e90"/>
      </g>
      <g id="Group_5941" data-name="Group 5941" transform="translate(180.932 25.836)">
        <path id="Path_3866" data-name="Path 3866" d="M2.166,4.29C-.515,3.541-2.418,2.417-2.418-.381c0-2.68,2.133-4.409,5.476-4.409A12.362,12.362,0,0,1,7.729-3.9V-.206A10.86,10.86,0,0,0,4.067-1.274a5.069,5.069,0,0,0-1.325.057c-.607.116-1.209.4-1.209,1.039,0,.72.718,1.1,2.248,1.556C7.066,2.3,8.622,3.454,8.622,6.049c0,2.768-2.277,4.381-5.937,4.381a12.205,12.205,0,0,1-4.9-.95V5.7A11.972,11.972,0,0,0,2.626,7.029c1.067,0,2.047-.288,2.047-1.154,0-.777-.864-1.094-2.508-1.585" transform="translate(2.418 4.79)" fill="#3a4e90"/>
      </g>
      <g id="Group_5942" data-name="Group 5942" transform="translate(193.585 21.915)">
        <path id="Path_3867" data-name="Path 3867" d="M.981,2.043V-2.281H5.16V2.043H8.993V5.415H5.16V11.21c0,1.528.893,2.047,1.844,2.047a5.8,5.8,0,0,0,2.451-.6V16.2a8.936,8.936,0,0,1-3.662.663c-2.277,0-4.5-1.067-4.813-4.094C.952,12.306.893,11.815.893,11.3V5.415H-1.1V2.043Z" transform="translate(1.095 2.281)" fill="#3a4e90"/>
      </g>
      <g id="Group_5943" data-name="Group 5943" transform="translate(206.036 25.836)">
        <path id="Path_3868" data-name="Path 3868" d="M3.446,1.607A2.84,2.84,0,0,0,.622,4.49H6.068A2.564,2.564,0,0,0,3.446,1.607M10.193,4.95a16.377,16.377,0,0,1-.116,1.759H.622c.172,1.96,1.67,3.084,4.005,3.084A12,12,0,0,0,9.614,8.726v3.662a12.639,12.639,0,0,1-5.391,1.037c-4.957,0-8.071-3.2-8.071-7.609A7.312,7.312,0,0,1,3.475-1.794,6.385,6.385,0,0,1,10.193,4.95" transform="translate(3.848 1.794)" fill="#3a4e90"/>
      </g>
      <g id="Group_5944" data-name="Group 5944" transform="translate(223.619 25.835)">
        <path id="Path_3869" data-name="Path 3869" d="M0,.191H3.922L4.007,1.6a8.011,8.011,0,0,0,.028.952A5.036,5.036,0,0,1,8.3-.213a3.782,3.782,0,0,1,.923.087V4.082a2.365,2.365,0,0,0-.952-.172C6.083,3.91,4.3,5.841,4.3,8.465V14.6H0Z" transform="translate(0 0.213)" fill="#3a4e90"/>
      </g>
      <g id="Group_5945" data-name="Group 5945" transform="translate(235.897 25.835)">
        <path id="Path_3870" data-name="Path 3870" d="M1.866.191l.116,1.643a3.228,3.228,0,0,1-.116,1.008h.059A5.718,5.718,0,0,1,6.882-.213c3.259,0,5.016,1.988,5.016,5.795V14.6H7.574V6.3c0-1.412-.4-2.6-1.96-2.6A3.4,3.4,0,0,0,2.242,7.426V14.6H-2.084V.191Z" transform="translate(2.084 0.213)" fill="#3a4e90"/>
      </g>
      <g id="Group_5946" data-name="Group 5946" transform="translate(89.358 47.7)">
        <path id="Path_3871" data-name="Path 3871" d="M8.2,6.238C8.2,11.081,5,14.2-.478,14.2c-5.448,0-8.678-3.114-8.678-7.958v-13.2h4.441V5.806c0,2.709,1.528,4.324,4.237,4.324,2.739,0,4.239-1.615,4.239-4.324V-6.965H8.2Z" transform="translate(9.156 6.965)" fill="#3a4e90"/>
      </g>
      <g id="Group_5947" data-name="Group 5947" transform="translate(111.121 53.639)">
        <path id="Path_3872" data-name="Path 3872" d="M1.866.191l.116,1.643a3.228,3.228,0,0,1-.116,1.008h.059A5.718,5.718,0,0,1,6.882-.213c3.259,0,5.016,1.988,5.016,5.795V14.6H7.574V6.3c0-1.412-.4-2.6-1.96-2.6A3.4,3.4,0,0,0,2.242,7.426V14.6H-2.084V.191Z" transform="translate(2.084 0.213)" fill="#3a4e90"/>
      </g>
      <path id="Path_3873" data-name="Path 3873" d="M72.71-3.353H68.384V-17.767H72.71Zm0-14.414-2.163-6.458a2.211,2.211,0,0,1,2.394,2.335,2.218,2.218,0,0,1-2.394,2.305,2.2,2.2,0,0,1-2.392-2.305,2.2,2.2,0,0,1,2.392-2.335" transform="translate(61.039 71.81)" fill="#3a4e90"/>
      <g id="Group_5948" data-name="Group 5948" transform="translate(135.938 54.042)">
        <path id="Path_3874" data-name="Path 3874" d="M7.314,0,.943,14.587H-1.768L-8.167,0h4.5C-2.516,2.94-1.132,6.284-.441,8.676-.124,7.9.483,5.852,1,4.555L2.816,0Z" transform="translate(8.167)" fill="#3a4e90"/>
      </g>
      <g id="Group_5949" data-name="Group 5949" transform="translate(152.482 53.639)">
        <path id="Path_3875" data-name="Path 3875" d="M3.446,1.607A2.842,2.842,0,0,0,.622,4.49H6.07A2.567,2.567,0,0,0,3.446,1.607M10.193,4.95a16.377,16.377,0,0,1-.116,1.759H.622c.172,1.96,1.67,3.084,4.007,3.084A12,12,0,0,0,9.616,8.726v3.662a12.653,12.653,0,0,1-5.391,1.037c-4.959,0-8.073-3.2-8.073-7.609A7.312,7.312,0,0,1,3.477-1.794,6.384,6.384,0,0,1,10.193,4.95" transform="translate(3.848 1.794)" fill="#3a4e90"/>
      </g>
      <g id="Group_5950" data-name="Group 5950" transform="translate(170.065 53.639)">
        <path id="Path_3876" data-name="Path 3876" d="M0,.191H3.922L4.007,1.6a8.011,8.011,0,0,0,.028.952A5.031,5.031,0,0,1,8.3-.213a3.8,3.8,0,0,1,.923.087V4.082a2.365,2.365,0,0,0-.952-.172C6.083,3.91,4.3,5.841,4.3,8.463V14.6H0Z" transform="translate(0 0.213)" fill="#3a4e90"/>
      </g>
      <g id="Group_5951" data-name="Group 5951" transform="translate(181.393 53.64)">
        <path id="Path_3877" data-name="Path 3877" d="M2.166,4.29C-.515,3.541-2.418,2.415-2.418-.381c0-2.68,2.134-4.409,5.476-4.409A12.362,12.362,0,0,1,7.729-3.9V-.206a10.862,10.862,0,0,0-3.66-1.067,5.061,5.061,0,0,0-1.325.057c-.607.116-1.211.4-1.211,1.039,0,.72.72,1.1,2.248,1.556C7.066,2.3,8.624,3.454,8.624,6.049c0,2.768-2.278,4.381-5.939,4.381a12.187,12.187,0,0,1-4.9-.95V5.7A11.964,11.964,0,0,0,2.628,7.029c1.065,0,2.047-.288,2.047-1.154,0-.777-.866-1.1-2.51-1.585" transform="translate(2.418 4.79)" fill="#3a4e90"/>
      </g>
      <path id="Path_3878" data-name="Path 3878" d="M107.789-3.353h-4.326V-17.767h4.326Zm0-14.414-2.163-6.458a2.209,2.209,0,0,1,2.392,2.335,2.216,2.216,0,0,1-2.392,2.305,2.2,2.2,0,0,1-2.392-2.305,2.2,2.2,0,0,1,2.392-2.335" transform="translate(92.455 71.81)" fill="#3a4e90"/>
      <g id="Group_5952" data-name="Group 5952" transform="translate(202.981 49.719)">
        <path id="Path_3879" data-name="Path 3879" d="M.981,2.043V-2.281H5.16V2.043H9V5.415H5.16V11.21c0,1.528.895,2.047,1.844,2.047a5.8,5.8,0,0,0,2.451-.6V16.2a8.925,8.925,0,0,1-3.66.663c-2.278,0-4.5-1.067-4.815-4.094C.952,12.306.9,11.815.9,11.3V5.415H-1.1V2.043Z" transform="translate(1.095 2.281)" fill="#3a4e90"/>
      </g>
      <g id="Group_5953" data-name="Group 5953" transform="translate(214.77 54.042)">
        <path id="Path_3880" data-name="Path 3880" d="M.272,8.05a4.619,4.619,0,0,0,1.7.288c1.9,0,2.883-1.268,3.66-2.912L-.3-8.988H4.424L6.1-3.972C6.7-2.213,7.307-.426,7.8,1.39c.375-.808,1.327-4.3,1.731-5.363L11.2-8.988h4.671L10.275,5.31c-1.643,4.267-3.806,6.4-6.832,6.746a7.638,7.638,0,0,1-1.816.028,5.02,5.02,0,0,1-1.355-.26Z" transform="translate(0.304 8.988)" fill="#3a4e90"/>
      </g>
    </g>
  </g>
</svg>
