<svg xmlns="http://www.w3.org/2000/svg" xmlns:xlink="http://www.w3.org/1999/xlink" width="280.717" height="92.926" viewBox="0 0 280.717 92.926">
  <defs>
    <clipPath id="clip-path">
      <path id="Path_4551" data-name="Path 4551" d="M0,43.6H280.717V-49.328H0Z" transform="translate(0 49.328)" fill="none"/>
    </clipPath>
  </defs>
  <g id="Group_6635" data-name="Group 6635" transform="translate(0 49.328)">
    <g id="Group_6615" data-name="Group 6615" transform="translate(30.096 -33.887)">
      <path id="Path_4529" data-name="Path 4529" d="M9.335,3.854l-19.9-8.214V19.148H5.087V11.643h8.5v7.505H29.232V-4.36Z" transform="translate(10.562 4.36)" fill="#2c2c2c"/>
    </g>
    <g id="Group_6616" data-name="Group 6616" transform="translate(30.096 -1.881)">
      <path id="Path_4530" data-name="Path 4530" d="M11.328,0V7.505H2.83V0H-12.817V23.508l19.9-8.214,19.9,8.214V0Z" transform="translate(12.817)" fill="#2c2c2c"/>
    </g>
    <g id="Group_6634" data-name="Group 6634" transform="translate(0 -49.328)" clip-path="url(#clip-path)">
      <g id="Group_6617" data-name="Group 6617" transform="translate(89.092 19.458)">
        <path id="Path_4531" data-name="Path 4531" d="M2.486,4.826,1.4,3.88v11.6H-2.813V-5.46h.085L7.1,4.453,16.926-5.46h.087V15.483H12.8V3.88l-1.087.946C10.193,6.487,8.646,8.149,7.1,9.782,5.551,8.149,4.033,6.487,2.486,4.826" transform="translate(2.813 5.46)" fill="#2c2c2c"/>
      </g>
      <path id="Path_4532" data-name="Path 4532" d="M64.775-18.151h-4.3V-32.476h4.3Zm0-14.325-2.149-6.416A2.2,2.2,0,0,1,65-36.571a2.206,2.206,0,0,1-2.379,2.291,2.19,2.19,0,0,1-2.377-2.291,2.182,2.182,0,0,1,2.377-2.321" transform="translate(53.25 58.552)" fill="#2c2c2c"/>
      <g id="Group_6618" data-name="Group 6618" transform="translate(121.518 19.773)">
        <path id="Path_4533" data-name="Path 4533" d="M1.895,6.318c0,2.349,1.434,3.954,3.41,3.954,1.718,0,3.438-1.319,3.438-3.954S7.023,2.364,5.3,2.364c-1.976,0-3.41,1.577-3.41,3.954m11.26,7.162h-3.9l-.087-1.319a3.838,3.838,0,0,1,.057-.946H9.172A5.226,5.226,0,0,1,4.53,13.881c-3.7,0-6.674-2.865-6.674-7.564,0-4.727,2.978-7.564,6.56-7.564A5.467,5.467,0,0,1,8.914.845h.057A5.947,5.947,0,0,1,8.886-.328v-6.82h4.269Z" transform="translate(2.144 7.148)" fill="#2c2c2c"/>
      </g>
      <g id="Group_6619" data-name="Group 6619" transform="translate(139.049 26.076)">
        <path id="Path_4534" data-name="Path 4534" d="M6.8,2.258c.488,1.4.917,2.95,1.232,4.069.373-.831.916-2.837,1.375-4.1l1.633-4.785h4.47l-5.989,14.5H6.745L3.908,4.091,1.1,11.941H-1.708L-7.7-2.555h4.47C-2.194.482-.962,3.863-.246,6.327l2.894-8.8H5.168Z" transform="translate(7.695 2.555)" fill="#2c2c2c"/>
      </g>
      <g id="Group_6620" data-name="Group 6620" transform="translate(163.339 25.676)">
        <path id="Path_4535" data-name="Path 4535" d="M3.4,1.586A2.824,2.824,0,0,0,.594,4.451H6.008A2.551,2.551,0,0,0,3.4,1.586m6.7,3.323a16.276,16.276,0,0,1-.115,1.748H.594C.766,8.6,2.254,9.722,4.577,9.722A11.929,11.929,0,0,0,9.533,8.661V12.3a12.572,12.572,0,0,1-5.36,1.032c-4.926,0-8.021-3.182-8.021-7.564A7.267,7.267,0,0,1,3.431-1.794a6.345,6.345,0,0,1,6.674,6.7" transform="translate(3.848 1.794)" fill="#2c2c2c"/>
      </g>
      <g id="Group_6621" data-name="Group 6621" transform="translate(179.811 25.676)">
        <path id="Path_4536" data-name="Path 4536" d="M2.137,4.234C-.527,3.489-2.418,2.372-2.418-.408-2.418-3.072-.3-4.79,3.024-4.79A12.285,12.285,0,0,1,7.666-3.9V-.235A10.8,10.8,0,0,0,4.029-1.3a5.048,5.048,0,0,0-1.319.057c-.6.115-1.2.4-1.2,1.032,0,.716.714,1.089,2.234,1.547C7.007,2.257,8.553,3.4,8.553,5.982c0,2.75-2.262,4.354-5.9,4.354a12.13,12.13,0,0,1-4.872-.944V5.637A11.9,11.9,0,0,0,2.595,6.956c1.061,0,2.035-.286,2.035-1.147,0-.772-.859-1.087-2.492-1.575" transform="translate(2.418 4.79)" fill="#2c2c2c"/>
      </g>
      <g id="Group_6622" data-name="Group 6622" transform="translate(192.386 21.78)">
        <path id="Path_4537" data-name="Path 4537" d="M.968,2.016v-4.3H5.122v4.3H8.933V5.367H5.122v5.759c0,1.518.889,2.035,1.833,2.035a5.766,5.766,0,0,0,2.436-.6v3.523a8.877,8.877,0,0,1-3.638.659c-2.264,0-4.47-1.061-4.785-4.069-.028-.458-.087-.946-.087-1.46V5.367H-1.1V2.016Z" transform="translate(1.095 2.281)" fill="#2c2c2c"/>
      </g>
      <g id="Group_6623" data-name="Group 6623" transform="translate(204.76 25.676)">
        <path id="Path_4538" data-name="Path 4538" d="M3.4,1.586A2.824,2.824,0,0,0,.594,4.451H6.008A2.551,2.551,0,0,0,3.4,1.586m6.7,3.323a16.276,16.276,0,0,1-.115,1.748H.594C.766,8.6,2.254,9.722,4.575,9.722A11.922,11.922,0,0,0,9.531,8.661V12.3a12.554,12.554,0,0,1-5.358,1.032c-4.926,0-8.021-3.182-8.021-7.564A7.267,7.267,0,0,1,3.429-1.794a6.345,6.345,0,0,1,6.676,6.7" transform="translate(3.848 1.794)" fill="#2c2c2c"/>
      </g>
      <g id="Group_6624" data-name="Group 6624" transform="translate(222.234 25.675)">
        <path id="Path_4539" data-name="Path 4539" d="M0,.188H3.9l.085,1.4a7.961,7.961,0,0,0,.028.946A5,5,0,0,1,8.251-.213a3.759,3.759,0,0,1,.917.087V4.056a2.351,2.351,0,0,0-.946-.171c-2.178,0-3.954,1.92-3.954,4.527v6.1H0Z" transform="translate(0 0.213)" fill="#2c2c2c"/>
      </g>
      <g id="Group_6625" data-name="Group 6625" transform="translate(234.436 25.675)">
        <path id="Path_4540" data-name="Path 4540" d="M1.842.188l.115,1.633a3.208,3.208,0,0,1-.115,1H1.9A5.683,5.683,0,0,1,6.827-.213c3.238,0,4.987,1.976,4.987,5.759v8.967h-4.3V6.262c0-1.4-.4-2.579-1.948-2.579a3.381,3.381,0,0,0-3.351,3.7v7.134h-4.3V.188Z" transform="translate(2.084 0.213)" fill="#2c2c2c"/>
      </g>
      <g id="Group_6626" data-name="Group 6626" transform="translate(88.804 47.405)">
        <path id="Path_4541" data-name="Path 4541" d="M8.092,6.156c0,4.813-3.18,7.908-8.624,7.908-5.414,0-8.624-3.1-8.624-7.908V-6.965h4.414V5.726c0,2.692,1.518,4.3,4.21,4.3,2.722,0,4.212-1.605,4.212-4.3V-6.965H8.092Z" transform="translate(9.156 6.965)" fill="#2c2c2c"/>
      </g>
      <g id="Group_6627" data-name="Group 6627" transform="translate(110.432 53.306)">
        <path id="Path_4542" data-name="Path 4542" d="M1.842.188l.115,1.633a3.208,3.208,0,0,1-.115,1H1.9A5.683,5.683,0,0,1,6.827-.213c3.238,0,4.987,1.976,4.987,5.759v8.967h-4.3V6.262c0-1.4-.4-2.579-1.948-2.579a3.381,3.381,0,0,0-3.351,3.7v7.134h-4.3V.188Z" transform="translate(2.084 0.213)" fill="#2c2c2c"/>
      </g>
      <path id="Path_4543" data-name="Path 4543" d="M72.682-3.482h-4.3V-17.807h4.3Zm0-14.325-2.149-6.418A2.2,2.2,0,0,1,72.912-21.9a2.2,2.2,0,0,1-2.379,2.291A2.189,2.189,0,0,1,68.155-21.9a2.182,2.182,0,0,1,2.377-2.321" transform="translate(60.238 71.515)" fill="#2c2c2c"/>
      <g id="Group_6628" data-name="Group 6628" transform="translate(135.096 53.708)">
        <path id="Path_4544" data-name="Path 4544" d="M7.218,0,.887,14.5H-1.807L-8.167,0H-3.7C-2.551,2.922-1.176,6.245-.488,8.622c.315-.772.917-2.807,1.432-4.1L2.748,0Z" transform="translate(8.167)" fill="#2c2c2c"/>
      </g>
      <g id="Group_6629" data-name="Group 6629" transform="translate(151.538 53.307)">
        <path id="Path_4545" data-name="Path 4545" d="M3.4,1.586A2.826,2.826,0,0,0,.592,4.451H6.006A2.55,2.55,0,0,0,3.4,1.586m6.7,3.323a15.783,15.783,0,0,1-.115,1.748H.592C.766,8.6,2.254,9.722,4.575,9.722A11.922,11.922,0,0,0,9.531,8.661V12.3a12.561,12.561,0,0,1-5.358,1.03c-4.926,0-8.021-3.18-8.021-7.562A7.267,7.267,0,0,1,3.429-1.794a6.344,6.344,0,0,1,6.674,6.7" transform="translate(3.848 1.794)" fill="#2c2c2c"/>
      </g>
      <g id="Group_6630" data-name="Group 6630" transform="translate(169.011 53.306)">
        <path id="Path_4546" data-name="Path 4546" d="M0,.188H3.9l.085,1.4a7.961,7.961,0,0,0,.028.946A5,5,0,0,1,8.251-.213a3.773,3.773,0,0,1,.917.087V4.056a2.351,2.351,0,0,0-.946-.171c-2.178,0-3.952,1.92-3.952,4.525v6.1H0Z" transform="translate(0 0.213)" fill="#2c2c2c"/>
      </g>
      <g id="Group_6631" data-name="Group 6631" transform="translate(180.269 53.307)">
        <path id="Path_4547" data-name="Path 4547" d="M2.137,4.234C-.527,3.489-2.418,2.37-2.418-.408-2.418-3.072-.3-4.79,3.024-4.79A12.285,12.285,0,0,1,7.666-3.9V-.235A10.8,10.8,0,0,0,4.029-1.3a5.034,5.034,0,0,0-1.317.057c-.6.115-1.2.4-1.2,1.032,0,.716.716,1.089,2.234,1.547C7.009,2.257,8.555,3.4,8.555,5.982c0,2.75-2.264,4.354-5.9,4.354a12.112,12.112,0,0,1-4.87-.944V5.637A11.889,11.889,0,0,0,2.6,6.956c1.059,0,2.035-.286,2.035-1.147,0-.772-.861-1.089-2.494-1.575" transform="translate(2.418 4.79)" fill="#2c2c2c"/>
      </g>
      <path id="Path_4548" data-name="Path 4548" d="M107.761-3.482h-4.3V-17.807h4.3Zm0-14.325-2.149-6.418a2.2,2.2,0,0,1,2.379,2.321,2.2,2.2,0,0,1-2.379,2.291,2.189,2.189,0,0,1-2.377-2.291,2.182,2.182,0,0,1,2.377-2.321" transform="translate(91.242 71.515)" fill="#2c2c2c"/>
      <g id="Group_6632" data-name="Group 6632" transform="translate(201.723 49.411)">
        <path id="Path_4549" data-name="Path 4549" d="M.968,2.016v-4.3H5.122v4.3H8.933V5.367H5.122v5.759c0,1.518.889,2.035,1.833,2.035a5.759,5.759,0,0,0,2.436-.6v3.523a8.87,8.87,0,0,1-3.638.659c-2.264,0-4.47-1.061-4.785-4.069-.028-.458-.085-.946-.085-1.46V5.367H-1.1V2.016Z" transform="translate(1.095 2.281)" fill="#2c2c2c"/>
      </g>
      <g id="Group_6633" data-name="Group 6633" transform="translate(213.44 53.707)">
        <path id="Path_4550" data-name="Path 4550" d="M.269,7.944a4.59,4.59,0,0,0,1.69.286C3.85,8.23,4.824,6.97,5.6,5.337L-.3-8.988h4.7L6.056-4c.6,1.748,1.2,3.525,1.69,5.329C8.119.524,9.064-2.943,9.466-4l1.66-4.985h4.644L10.21,5.222c-1.633,4.241-3.783,6.36-6.789,6.7a7.59,7.59,0,0,1-1.8.028A4.989,4.989,0,0,1,.269,11.7Z" transform="translate(0.304 8.988)" fill="#2c2c2c"/>
      </g>
    </g>
  </g>
</svg>
