<svg xmlns="http://www.w3.org/2000/svg" xmlns:xlink="http://www.w3.org/1999/xlink" width="285.246" height="94.426" viewBox="0 0 285.246 94.426">
  <defs>
    <clipPath id="clip-path">
      <path id="Path_138" data-name="Path 138" d="M0,45.1H285.246V-49.328H0Z" transform="translate(0 49.328)" fill="none"/>
    </clipPath>
  </defs>
  <g id="Group_5863" data-name="Group 5863" transform="translate(-931.592 -910.044)">
    <rect id="Rectangle_12" data-name="Rectangle 12" width="254.764" height="80.654" transform="translate(948.102 913.884)" fill="#0d55a0"/>
    <g id="Group_137" data-name="Group 137" transform="translate(931.592 910.044)">
      <g id="Group_117" data-name="Group 117" transform="translate(30.581 15.69)">
        <path id="Path_116" data-name="Path 116" d="M9.656,3.986-10.562-4.36V19.528H5.34V11.9h8.633v7.626h15.9V-4.36Z" transform="translate(10.562 4.36)" fill="#cbaf8b"/>
      </g>
      <g id="Group_118" data-name="Group 118" transform="translate(30.582 48.212)">
        <path id="Path_117" data-name="Path 117" d="M11.718,0V7.626H3.083V0h-15.9V23.888L7.4,15.542l20.218,8.346V0Z" transform="translate(12.817)" fill="#cbaf8b"/>
      </g>
      <g id="Group_136" data-name="Group 136" transform="translate(0 0)" clip-path="url(#clip-path)">
        <g id="Group_119" data-name="Group 119" transform="translate(90.53 19.771)">
          <path id="Path_118" data-name="Path 118" d="M2.572,4.992l-1.1-.961v11.79h-4.28V-5.46h.086L7.26,4.613,17.244-5.46h.088V15.821h-4.28V4.031l-1.1.961C10.4,6.68,8.831,8.368,7.26,10.028,5.686,8.368,4.143,6.68,2.572,4.992" transform="translate(2.813 5.46)" fill="#fff"/>
        </g>
        <path id="Path_119" data-name="Path 119" d="M64.848-17.815H60.48V-32.371h4.368Zm0-14.556-2.184-6.522a2.234,2.234,0,0,1,2.418,2.358,2.242,2.242,0,0,1-2.418,2.33,2.225,2.225,0,0,1-2.416-2.33,2.218,2.218,0,0,1,2.416-2.358" transform="translate(55.081 58.868)" fill="#fff"/>
        <g id="Group_120" data-name="Group 120" transform="translate(123.479 20.092)">
          <path id="Path_120" data-name="Path 120" d="M1.96,6.535c0,2.387,1.457,4.016,3.465,4.016,1.746,0,3.493-1.338,3.493-4.016S7.171,2.517,5.425,2.517c-2.008,0-3.465,1.6-3.465,4.018M13.4,13.813H9.443l-.088-1.34a3.9,3.9,0,0,1,.057-.961H9.355a5.31,5.31,0,0,1-4.717,2.709c-3.756,0-6.782-2.912-6.782-7.686,0-4.8,3.026-7.686,6.665-7.686A5.555,5.555,0,0,1,9.093.974H9.15A6.043,6.043,0,0,1,9.064-.218v-6.93H13.4Z" transform="translate(2.144 7.148)" fill="#fff"/>
        </g>
        <g id="Group_121" data-name="Group 121" transform="translate(141.292 26.496)">
          <path id="Path_121" data-name="Path 121" d="M7.035,2.336c.5,1.428.932,3,1.252,4.135.379-.844.93-2.883,1.4-4.163l1.66-4.862h4.542L9.8,12.177H6.978L4.095,4.2,1.243,12.177H-1.612L-7.695-2.555h4.542C-2.105.531-.854,3.967-.126,6.471l2.94-8.938H5.375Z" transform="translate(7.695 2.555)" fill="#fff"/>
        </g>
        <g id="Group_122" data-name="Group 122" transform="translate(165.974 26.09)">
          <path id="Path_122" data-name="Path 122" d="M3.518,1.64A2.87,2.87,0,0,0,.666,4.552h5.5A2.592,2.592,0,0,0,3.518,1.64m6.813,3.377a16.538,16.538,0,0,1-.117,1.776H.666C.84,8.773,2.352,9.908,4.712,9.908A12.157,12.157,0,0,0,9.749,8.832v3.7A12.781,12.781,0,0,1,4.3,13.575c-5.006,0-8.151-3.231-8.151-7.684a7.384,7.384,0,0,1,7.4-7.686c4.481,0,6.782,3.2,6.782,6.811" transform="translate(3.848 1.794)" fill="#fff"/>
        </g>
        <g id="Group_123" data-name="Group 123" transform="translate(182.713 26.089)">
          <path id="Path_123" data-name="Path 123" d="M2.211,4.38C-.5,3.622-2.418,2.489-2.418-.337c0-2.707,2.155-4.454,5.53-4.454a12.476,12.476,0,0,1,4.717.9V-.162a11.012,11.012,0,0,0-3.7-1.076,5.129,5.129,0,0,0-1.34.057c-.613.117-1.221.408-1.221,1.049,0,.727.725,1.1,2.27,1.572,3.317.93,4.889,2.1,4.889,4.717,0,2.795-2.3,4.424-6,4.424a12.287,12.287,0,0,1-4.95-.961V5.806a12.09,12.09,0,0,0,4.891,1.34c1.078,0,2.067-.291,2.067-1.166,0-.785-.873-1.106-2.533-1.6" transform="translate(2.418 4.791)" fill="#fff"/>
        </g>
        <g id="Group_124" data-name="Group 124" transform="translate(195.49 22.13)">
          <path id="Path_124" data-name="Path 124" d="M1,2.085V-2.281H5.222V2.085H9.094V5.491H5.222v5.852c0,1.543.9,2.067,1.863,2.067A5.859,5.859,0,0,0,9.56,12.8v3.58a9.02,9.02,0,0,1-3.7.67c-2.3,0-4.542-1.078-4.862-4.135-.029-.465-.088-.961-.088-1.484V5.491H-1.1V2.085Z" transform="translate(1.095 2.281)" fill="#fff"/>
        </g>
        <g id="Group_125" data-name="Group 125" transform="translate(208.064 26.09)">
          <path id="Path_125" data-name="Path 125" d="M3.518,1.64A2.87,2.87,0,0,0,.666,4.552h5.5A2.592,2.592,0,0,0,3.518,1.64m6.813,3.377a16.538,16.538,0,0,1-.117,1.776H.666C.84,8.773,2.352,9.908,4.711,9.908A12.149,12.149,0,0,0,9.747,8.832v3.7A12.764,12.764,0,0,1,4.3,13.575c-5.006,0-8.151-3.231-8.151-7.684A7.384,7.384,0,0,1,3.547-1.794c4.483,0,6.784,3.2,6.784,6.811" transform="translate(3.848 1.794)" fill="#fff"/>
        </g>
        <g id="Group_126" data-name="Group 126" transform="translate(225.819 26.089)">
          <path id="Path_126" data-name="Path 126" d="M0,.195H3.961l.086,1.426a8.09,8.09,0,0,0,.029.961A5.085,5.085,0,0,1,8.384-.213a3.819,3.819,0,0,1,.932.088v4.25a2.389,2.389,0,0,0-.961-.174c-2.213,0-4.018,1.951-4.018,4.6v6.2H0Z" transform="translate(0 0.213)" fill="#fff"/>
        </g>
        <g id="Group_127" data-name="Group 127" transform="translate(238.219 26.089)">
          <path id="Path_127" data-name="Path 127" d="M1.905.195l.117,1.66a3.26,3.26,0,0,1-.117,1.018h.059A5.778,5.778,0,0,1,6.97-.213c3.291,0,5.067,2.008,5.067,5.852v9.112H7.669V6.366c0-1.426-.408-2.619-1.979-2.619A3.434,3.434,0,0,0,2.284,7.5v7.249H-2.084V.195Z" transform="translate(2.084 0.213)" fill="#fff"/>
        </g>
        <g id="Group_128" data-name="Group 128" transform="translate(90.237 48.17)">
          <path id="Path_128" data-name="Path 128" d="M8.371,6.368c0,4.891-3.231,8.034-8.763,8.034-5.5,0-8.763-3.143-8.763-8.034V-6.965h4.485v12.9c0,2.735,1.543,4.366,4.278,4.366,2.766,0,4.28-1.631,4.28-4.366v-12.9H8.371Z" transform="translate(9.156 6.965)" fill="#fff"/>
        </g>
        <g id="Group_129" data-name="Group 129" transform="translate(112.214 54.166)">
          <path id="Path_129" data-name="Path 129" d="M1.905.195l.117,1.66a3.26,3.26,0,0,1-.117,1.018h.059A5.778,5.778,0,0,1,6.97-.213c3.291,0,5.067,2.008,5.067,5.852v9.112H7.669V6.366c0-1.426-.408-2.619-1.979-2.619A3.434,3.434,0,0,0,2.284,7.5v7.249H-2.084V.195Z" transform="translate(2.084 0.213)" fill="#fff"/>
        </g>
        <path id="Path_130" data-name="Path 130" d="M72.755-3.149H68.387V-17.705h4.368Zm0-14.556-2.184-6.52a2.232,2.232,0,0,1,2.418,2.358,2.24,2.24,0,0,1-2.418,2.328,2.225,2.225,0,0,1-2.416-2.328,2.217,2.217,0,0,1,2.416-2.358" transform="translate(62.31 72.278)" fill="#fff"/>
        <g id="Group_130" data-name="Group 130" transform="translate(137.276 54.574)">
          <path id="Path_131" data-name="Path 131" d="M7.467,0,1.033,14.73H-1.7L-8.167,0h4.542c1.164,2.969,2.561,6.348,3.26,8.763C-.045,7.977.568,5.909,1.09,4.6L2.924,0Z" transform="translate(8.167)" fill="#fff"/>
        </g>
        <g id="Group_131" data-name="Group 131" transform="translate(153.983 54.167)">
          <path id="Path_132" data-name="Path 132" d="M3.518,1.64A2.871,2.871,0,0,0,.664,4.552h5.5A2.591,2.591,0,0,0,3.518,1.64m6.811,3.377a16.038,16.038,0,0,1-.117,1.776H.664C.84,8.773,2.352,9.908,4.711,9.908A12.149,12.149,0,0,0,9.747,8.832v3.7A12.764,12.764,0,0,1,4.3,13.575c-5.006,0-8.151-3.231-8.151-7.684A7.384,7.384,0,0,1,3.547-1.794c4.483,0,6.782,3.2,6.782,6.811" transform="translate(3.848 1.794)" fill="#fff"/>
        </g>
        <g id="Group_132" data-name="Group 132" transform="translate(171.738 54.166)">
          <path id="Path_133" data-name="Path 133" d="M0,.195H3.961l.086,1.426a8.09,8.09,0,0,0,.029.961A5.083,5.083,0,0,1,8.384-.213a3.833,3.833,0,0,1,.932.088v4.25a2.389,2.389,0,0,0-.961-.174C6.143,3.95,4.34,5.9,4.34,8.55v6.2H0Z" transform="translate(0 0.213)" fill="#fff"/>
        </g>
        <g id="Group_133" data-name="Group 133" transform="translate(183.178 54.165)">
          <path id="Path_134" data-name="Path 134" d="M2.211,4.38C-.5,3.622-2.418,2.489-2.418-.337c0-2.707,2.155-4.454,5.53-4.454a12.476,12.476,0,0,1,4.717.9V-.162a11.012,11.012,0,0,0-3.7-1.076,5.115,5.115,0,0,0-1.338.057c-.613.117-1.223.408-1.223,1.049,0,.727.727,1.1,2.27,1.572,3.319.93,4.891,2.1,4.891,4.717,0,2.795-2.3,4.424-6,4.424a12.269,12.269,0,0,1-4.948-.961V5.806a12.081,12.081,0,0,0,4.891,1.34c1.076,0,2.067-.291,2.067-1.166,0-.785-.875-1.1-2.534-1.6" transform="translate(2.418 4.791)" fill="#fff"/>
        </g>
        <path id="Path_135" data-name="Path 135" d="M107.834-3.149h-4.368V-17.705h4.368Zm0-14.556-2.184-6.52a2.232,2.232,0,0,1,2.418,2.358,2.24,2.24,0,0,1-2.418,2.328,2.225,2.225,0,0,1-2.416-2.328,2.217,2.217,0,0,1,2.416-2.358" transform="translate(94.38 72.278)" fill="#fff"/>
        <g id="Group_134" data-name="Group 134" transform="translate(204.978 50.207)">
          <path id="Path_136" data-name="Path 136" d="M1,2.085V-2.281H5.222V2.085H9.094V5.491H5.222v5.852c0,1.543.9,2.067,1.863,2.067A5.852,5.852,0,0,0,9.56,12.8v3.58a9.013,9.013,0,0,1-3.7.67c-2.3,0-4.542-1.078-4.862-4.135-.029-.465-.086-.961-.086-1.484V5.491H-1.1V2.085Z" transform="translate(1.095 2.281)" fill="#fff"/>
        </g>
        <g id="Group_135" data-name="Group 135" transform="translate(216.884 54.574)">
          <path id="Path_137" data-name="Path 137" d="M.278,8.217A4.664,4.664,0,0,0,2,8.508c1.922,0,2.912-1.281,3.7-2.94L-.3-8.988H4.47L6.158-3.923C6.769-2.147,7.382-.341,7.876,1.492c.379-.815,1.34-4.338,1.748-5.415L11.31-8.988h4.719L10.379,5.451c-1.66,4.309-3.844,6.462-6.9,6.813a7.713,7.713,0,0,1-1.834.029A5.07,5.07,0,0,1,.278,12.03Z" transform="translate(0.304 8.988)" fill="#fff"/>
        </g>
      </g>
    </g>
  </g>
</svg>
