<svg xmlns="http://www.w3.org/2000/svg" xmlns:xlink="http://www.w3.org/1999/xlink" width="304.727" height="41.123" viewBox="0 0 304.727 41.123">
  <defs>
    <clipPath id="clip-path">
      <path id="Path_4012" data-name="Path 4012" d="M0,2.431H304.727V-38.692H0Z" transform="translate(0 38.692)" fill="none"/>
    </clipPath>
  </defs>
  <g id="Group_6089" data-name="Group 6089" transform="translate(0 38.692)">
    <g id="Group_6069" data-name="Group 6069" transform="translate(2.83 -35.664)">
      <path id="Path_3990" data-name="Path 3990" d="M.716.3l-12.11-5V9.6H-1.87V5.036H3.3V9.6h9.524V-4.7Z" transform="translate(11.394 4.703)" fill="#c9ad8a"/>
    </g>
    <g id="Group_6070" data-name="Group 6070" transform="translate(2.831 -16.186)">
      <path id="Path_3991" data-name="Path 3991" d="M.869,0V4.568H-4.3V0h-9.523V14.308l12.109-5,12.11,5V0Z" transform="translate(13.826)" fill="#c9ad8a"/>
    </g>
    <g id="Group_6088" data-name="Group 6088" transform="translate(0 -38.692)" clip-path="url(#clip-path)">
      <g id="Group_6071" data-name="Group 6071" transform="translate(41.837 11.389)">
        <path id="Path_3992" data-name="Path 3992" d="M.259.5l-.9-.782v9.6H-4.126V-8.008h.071L4.077.195l8.132-8.2h.07V9.322H8.795v-9.6L7.893.5C6.636,1.878,5.356,3.253,4.077,4.6,2.8,3.253,1.54,1.878.259.5" transform="translate(4.126 8.008)" fill="#3a4e90"/>
      </g>
      <path id="Path_3993" data-name="Path 3993" d="M62.111-10.655H58.554V-22.509h3.557Zm0-11.854M60.333-27.82A1.817,1.817,0,0,1,62.3-25.9,1.823,1.823,0,0,1,60.333-24a1.812,1.812,0,0,1-1.967-1.9,1.806,1.806,0,0,1,1.967-1.921" transform="translate(3.666 39.375)" fill="#3a4e90"/>
      <g id="Group_6072" data-name="Group 6072" transform="translate(68.669 11.65)">
        <path id="Path_3994" data-name="Path 3994" d="M.2.659C.2,2.6,1.384,3.93,3.018,3.93A2.945,2.945,0,0,0,5.863.659,2.945,2.945,0,0,0,3.018-2.613C1.384-2.613.2-1.31.2.659M9.514,6.585H6.291l-.071-1.09a3.134,3.134,0,0,1,.048-.782H6.219A4.326,4.326,0,0,1,2.38,6.918c-3.06,0-5.525-2.371-5.525-6.259C-3.145-3.254-.68-5.6,2.284-5.6A4.524,4.524,0,0,1,6.006-3.87h.048a4.846,4.846,0,0,1-.071-.971v-5.643H9.514Z" transform="translate(3.145 10.484)" fill="#3a4e90"/>
      </g>
      <g id="Group_6073" data-name="Group 6073" transform="translate(83.175 16.866)">
        <path id="Path_3995" data-name="Path 3995" d="M.709.235c.4,1.162.759,2.442,1.019,3.367.308-.688.759-2.348,1.138-3.39L4.218-3.747h3.7l-4.954,12H.662l-2.347-6.5-2.324,6.5H-6.332l-4.955-12h3.7c.853,2.513,1.873,5.31,2.465,7.349l2.4-7.278H-.642Z" transform="translate(11.287 3.747)" fill="#3a4e90"/>
      </g>
      <g id="Group_6074" data-name="Group 6074" transform="translate(103.275 16.534)">
        <path id="Path_3996" data-name="Path 3996" d="M.355.165A2.337,2.337,0,0,0-1.969,2.536H2.512A2.11,2.11,0,0,0,.355.165M5.9,2.916a13.5,13.5,0,0,1-.095,1.445H-1.969C-1.826,5.974-.595,6.9,1.327,6.9a9.883,9.883,0,0,0,4.1-.877V9.032a10.407,10.407,0,0,1-4.434.853c-4.077,0-6.638-2.632-6.638-6.259A6.013,6.013,0,0,1,.379-2.632,5.25,5.25,0,0,1,5.9,2.916" transform="translate(5.644 2.632)" fill="#3a4e90"/>
      </g>
      <g id="Group_6075" data-name="Group 6075" transform="translate(116.906 16.534)">
        <path id="Path_3997" data-name="Path 3997" d="M.223.441C-1.983-.175-3.547-1.1-3.547-3.4c0-2.2,1.755-3.626,4.505-3.626a10.18,10.18,0,0,1,3.84.734v3.034a8.939,8.939,0,0,0-3.011-.877A4.173,4.173,0,0,0,.7-4.087c-.5.1-1,.333-1,.855,0,.592.592.9,1.849,1.28,2.7.759,3.982,1.707,3.982,3.841,0,2.275-1.873,3.6-4.884,3.6A10.015,10.015,0,0,1-3.38,4.709V1.6A9.826,9.826,0,0,0,.6,2.693c.879,0,1.685-.237,1.685-.948,0-.64-.711-.9-2.063-1.3" transform="translate(3.547 7.026)" fill="#3a4e90"/>
      </g>
      <g id="Group_6076" data-name="Group 6076" transform="translate(127.312 13.309)">
        <path id="Path_3998" data-name="Path 3998" d="M.1.21V-3.346H3.539V.21H6.691V2.984H3.539V7.749c0,1.257.734,1.684,1.517,1.684a4.772,4.772,0,0,0,2.015-.5V11.85A7.33,7.33,0,0,1,4.06,12.4C2.187,12.4.361,11.519.1,9.029.078,8.65.03,8.247.03,7.82V2.984H-1.606V.21Z" transform="translate(1.606 3.346)" fill="#3a4e90"/>
      </g>
      <g id="Group_6077" data-name="Group 6077" transform="translate(137.551 16.534)">
        <path id="Path_3999" data-name="Path 3999" d="M.355.165A2.337,2.337,0,0,0-1.969,2.536H2.512A2.11,2.11,0,0,0,.355.165M5.9,2.916a13.5,13.5,0,0,1-.095,1.445H-1.969C-1.827,5.974-.595,6.9,1.326,6.9a9.879,9.879,0,0,0,4.1-.877V9.032a10.4,10.4,0,0,1-4.433.853c-4.078,0-6.638-2.632-6.638-6.259A6.013,6.013,0,0,1,.378-2.632,5.25,5.25,0,0,1,5.9,2.916" transform="translate(5.644 2.632)" fill="#3a4e90"/>
      </g>
      <g id="Group_6078" data-name="Group 6078" transform="translate(152.011 16.534)">
        <path id="Path_4000" data-name="Path 4000" d="M0,.02H3.225L3.3,1.181a6.582,6.582,0,0,0,.023.782A4.135,4.135,0,0,1,6.828-.312a3.235,3.235,0,0,1,.759.07V3.22A1.952,1.952,0,0,0,6.8,3.078,3.481,3.481,0,0,0,3.532,6.824v5.049H0Z" transform="translate(0 0.312)" fill="#3a4e90"/>
      </g>
      <g id="Group_6079" data-name="Group 6079" transform="translate(162.109 16.534)">
        <path id="Path_4001" data-name="Path 4001" d="M.192.02.287,1.37a2.635,2.635,0,0,1-.095.83H.24A4.708,4.708,0,0,1,4.317-.312C7-.312,8.443,1.324,8.443,4.453v7.421H4.886V5.046c0-1.162-.333-2.134-1.612-2.134A2.8,2.8,0,0,0,.5,5.97v5.9H-3.056V.02Z" transform="translate(3.056 0.312)" fill="#3a4e90"/>
      </g>
      <g id="Group_6080" data-name="Group 6080" transform="translate(183.678 11.65)">
        <path id="Path_4002" data-name="Path 4002" d="M.844.642c0,3.982-2.632,6.544-7.136,6.544-4.481,0-7.137-2.561-7.137-6.544V-10.216h3.652V.286A3.213,3.213,0,0,0-6.292,3.842,3.2,3.2,0,0,0-2.808.286v-10.5H.844Z" transform="translate(13.429 10.216)" fill="#3a4e90"/>
      </g>
      <g id="Group_6081" data-name="Group 6081" transform="translate(201.575 16.534)">
        <path id="Path_4003" data-name="Path 4003" d="M.192.02.287,1.37a2.635,2.635,0,0,1-.095.83H.24A4.708,4.708,0,0,1,4.317-.312C7-.312,8.443,1.324,8.443,4.453v7.421H4.886V5.046c0-1.162-.333-2.134-1.612-2.134A2.8,2.8,0,0,0,.5,5.97v5.9H-3.056V.02Z" transform="translate(3.056 0.312)" fill="#3a4e90"/>
      </g>
      <path id="Path_4004" data-name="Path 4004" d="M207.391-10.655h-3.557V-22.509h3.557Zm0-11.854-1.779-5.311a1.817,1.817,0,0,1,1.968,1.921,1.824,1.824,0,0,1-1.968,1.9,1.812,1.812,0,0,1-1.967-1.9,1.806,1.806,0,0,1,1.967-1.921" transform="translate(12.793 39.375)" fill="#3a4e90"/>
      <g id="Group_6082" data-name="Group 6082" transform="translate(221.983 16.866)">
        <path id="Path_4005" data-name="Path 4005" d="M.752,0-4.486,12h-2.23L-11.979,0h3.7c.948,2.418,2.085,5.168,2.655,7.136.26-.64.759-2.323,1.185-3.39L-2.946,0Z" transform="translate(11.979)" fill="#3a4e90"/>
      </g>
      <g id="Group_6083" data-name="Group 6083" transform="translate(235.59 16.534)">
        <path id="Path_4006" data-name="Path 4006" d="M.355.165A2.337,2.337,0,0,0-1.969,2.536h4.48A2.109,2.109,0,0,0,.355.165M5.9,2.916a13.5,13.5,0,0,1-.095,1.445H-1.969C-1.827,5.974-.595,6.9,1.326,6.9a9.883,9.883,0,0,0,4.1-.877V9.032a10.4,10.4,0,0,1-4.433.853c-4.078,0-6.638-2.632-6.638-6.259A6.013,6.013,0,0,1,.378-2.632,5.25,5.25,0,0,1,5.9,2.916" transform="translate(5.644 2.632)" fill="#3a4e90"/>
      </g>
      <g id="Group_6084" data-name="Group 6084" transform="translate(250.049 16.534)">
        <path id="Path_4007" data-name="Path 4007" d="M0,.02H3.225L3.3,1.181a6.582,6.582,0,0,0,.023.782A4.136,4.136,0,0,1,6.828-.312a3.227,3.227,0,0,1,.759.07V3.22A1.939,1.939,0,0,0,6.8,3.078,3.481,3.481,0,0,0,3.533,6.824v5.049H0Z" transform="translate(0 0.312)" fill="#3a4e90"/>
      </g>
      <g id="Group_6085" data-name="Group 6085" transform="translate(259.365 16.534)">
        <path id="Path_4008" data-name="Path 4008" d="M.223.441C-1.983-.175-3.546-1.1-3.546-3.4c0-2.2,1.754-3.626,4.5-3.626a10.175,10.175,0,0,1,3.84.734v3.034a8.939,8.939,0,0,0-3.011-.877A4.177,4.177,0,0,0,.7-4.087c-.5.1-1,.333-1,.855,0,.592.593.9,1.85,1.28,2.7.759,3.982,1.707,3.982,3.841,0,2.275-1.873,3.6-4.885,3.6A10.015,10.015,0,0,1-3.38,4.709V1.6A9.831,9.831,0,0,0,.6,2.693c.878,0,1.684-.237,1.684-.948,0-.64-.711-.9-2.063-1.3" transform="translate(3.546 7.026)" fill="#3a4e90"/>
      </g>
      <path id="Path_4009" data-name="Path 4009" d="M258.842-10.655h-3.557V-22.509h3.557Zm0-11.854-1.778-5.311a1.817,1.817,0,0,1,1.967,1.921,1.824,1.824,0,0,1-1.967,1.9,1.812,1.812,0,0,1-1.968-1.9,1.806,1.806,0,0,1,1.968-1.921" transform="translate(16.025 39.375)" fill="#3a4e90"/>
      <g id="Group_6086" data-name="Group 6086" transform="translate(277.118 13.309)">
        <path id="Path_4010" data-name="Path 4010" d="M.1.21V-3.346H3.539V.21H6.691V2.984H3.539V7.749c0,1.257.734,1.684,1.518,1.684a4.763,4.763,0,0,0,2.014-.5V11.85A7.326,7.326,0,0,1,4.06,12.4,3.606,3.606,0,0,1,.1,9.029C.078,8.65.031,8.247.031,7.82V2.984H-1.606V.21Z" transform="translate(1.606 3.346)" fill="#3a4e90"/>
      </g>
      <g id="Group_6087" data-name="Group 6087" transform="translate(286.813 16.865)">
        <path id="Path_4011" data-name="Path 4011" d="M.028.828a3.811,3.811,0,0,0,1.4.237C2.991,1.065,3.8.023,4.438-1.329L-.446-13.183H3.442L4.816-9.058c.5,1.446,1,2.916,1.4,4.41.308-.663,1.09-3.532,1.422-4.41l1.375-4.125h3.841L8.254-1.424C6.9,2.084,5.124,3.839,2.636,4.124a6.342,6.342,0,0,1-1.494.023A4.187,4.187,0,0,1,.028,3.934Z" transform="translate(0.446 13.183)" fill="#3a4e90"/>
      </g>
    </g>
  </g>
</svg>
