<svg xmlns="http://www.w3.org/2000/svg" xmlns:xlink="http://www.w3.org/1999/xlink" width="304.736" height="41.124" viewBox="0 0 304.736 41.124">
  <defs>
    <clipPath id="clip-path">
      <path id="Path_4035" data-name="Path 4035" d="M0,2.432H304.736V-38.692H0Z" transform="translate(0 38.692)" fill="none"/>
    </clipPath>
  </defs>
  <g id="Group_6110" data-name="Group 6110" transform="translate(0 38.692)">
    <g id="Group_6090" data-name="Group 6090" transform="translate(2.83 -35.664)">
      <path id="Path_4013" data-name="Path 4013" d="M.716.3l-12.11-5V9.6H-1.87V5.036H3.3V9.6h9.524V-4.7Z" transform="translate(11.394 4.703)" fill="#3a4e90"/>
    </g>
    <g id="Group_6091" data-name="Group 6091" transform="translate(2.831 -16.185)">
      <path id="Path_4014" data-name="Path 4014" d="M.869,0V4.568H-4.3V0h-9.523V14.308l12.109-5,12.11,5V0Z" transform="translate(13.826)" fill="#3a4e90"/>
    </g>
    <g id="Group_6109" data-name="Group 6109" transform="translate(0 -38.692)" clip-path="url(#clip-path)">
      <g id="Group_6092" data-name="Group 6092" transform="translate(41.838 11.39)">
        <path id="Path_4015" data-name="Path 4015" d="M.259.5l-.9-.782v9.6H-4.126V-8.008h.071L4.077.2l8.132-8.2h.07V9.323H8.8v-9.6L7.894.5C6.636,1.879,5.357,3.253,4.077,4.6,2.8,3.253,1.54,1.879.259.5" transform="translate(4.126 8.008)" fill="#3a4e90"/>
      </g>
      <path id="Path_4016" data-name="Path 4016" d="M62.112-10.655H58.554V-22.509h3.557Zm0-11.854M60.333-27.82A1.818,1.818,0,0,1,62.3-25.9,1.824,1.824,0,0,1,60.333-24a1.813,1.813,0,0,1-1.968-1.9,1.807,1.807,0,0,1,1.968-1.921" transform="translate(3.668 39.375)" fill="#3a4e90"/>
      <g id="Group_6093" data-name="Group 6093" transform="translate(68.671 11.65)">
        <path id="Path_4017" data-name="Path 4017" d="M.2.659C.2,2.6,1.384,3.93,3.018,3.93A2.945,2.945,0,0,0,5.864.659,2.945,2.945,0,0,0,3.018-2.613C1.384-2.613.2-1.309.2.659M9.515,6.585H6.291L6.22,5.495a3.134,3.134,0,0,1,.048-.782H6.22A4.327,4.327,0,0,1,2.38,6.918c-3.06,0-5.525-2.371-5.525-6.259C-3.145-3.253-.68-5.6,2.284-5.6A4.526,4.526,0,0,1,6.006-3.87h.048a4.846,4.846,0,0,1-.071-.971v-5.643H9.515Z" transform="translate(3.145 10.484)" fill="#3a4e90"/>
      </g>
      <g id="Group_6094" data-name="Group 6094" transform="translate(83.178 16.866)">
        <path id="Path_4018" data-name="Path 4018" d="M.709.235c.4,1.162.759,2.442,1.019,3.367.308-.688.759-2.348,1.138-3.39L4.219-3.747h3.7l-4.954,12H.663l-2.347-6.5-2.324,6.5H-6.332l-4.955-12h3.7c.853,2.513,1.873,5.31,2.465,7.35l2.4-7.278H-.643Z" transform="translate(11.287 3.747)" fill="#3a4e90"/>
      </g>
      <g id="Group_6095" data-name="Group 6095" transform="translate(103.278 16.534)">
        <path id="Path_4019" data-name="Path 4019" d="M.355.165A2.337,2.337,0,0,0-1.969,2.537H2.512A2.11,2.11,0,0,0,.355.165M5.9,2.916a13.5,13.5,0,0,1-.095,1.445H-1.969C-1.826,5.974-.594,6.9,1.327,6.9a9.884,9.884,0,0,0,4.1-.877V9.033a10.411,10.411,0,0,1-4.434.853c-4.077,0-6.639-2.632-6.639-6.259A6.014,6.014,0,0,1,.379-2.632,5.25,5.25,0,0,1,5.9,2.916" transform="translate(5.644 2.632)" fill="#3a4e90"/>
      </g>
      <g id="Group_6096" data-name="Group 6096" transform="translate(116.909 16.535)">
        <path id="Path_4020" data-name="Path 4020" d="M.223.442C-1.982-.175-3.547-1.1-3.547-3.4c0-2.2,1.755-3.626,4.505-3.626a10.181,10.181,0,0,1,3.84.734v3.034a8.947,8.947,0,0,0-3.011-.877A4.173,4.173,0,0,0,.7-4.087c-.5.1-1,.333-1,.855,0,.592.592.9,1.849,1.28,2.7.759,3.982,1.707,3.982,3.841,0,2.276-1.873,3.6-4.884,3.6a10.025,10.025,0,0,1-4.03-.782V1.6A9.836,9.836,0,0,0,.6,2.694c.879,0,1.685-.237,1.685-.948,0-.64-.712-.9-2.063-1.3" transform="translate(3.547 7.026)" fill="#3a4e90"/>
      </g>
      <g id="Group_6097" data-name="Group 6097" transform="translate(127.316 13.31)">
        <path id="Path_4021" data-name="Path 4021" d="M.1.21V-3.346H3.539V.21H6.692V2.984H3.539V7.749c0,1.257.734,1.684,1.517,1.684a4.772,4.772,0,0,0,2.015-.5v2.915A7.33,7.33,0,0,1,4.06,12.4C2.187,12.4.361,11.519.1,9.03.078,8.65.03,8.248.03,7.82V2.984H-1.606V.21Z" transform="translate(1.606 3.346)" fill="#3a4e90"/>
      </g>
      <g id="Group_6098" data-name="Group 6098" transform="translate(137.555 16.534)">
        <path id="Path_4022" data-name="Path 4022" d="M.355.165A2.337,2.337,0,0,0-1.969,2.537h4.48A2.109,2.109,0,0,0,.355.165M5.9,2.916a13.5,13.5,0,0,1-.095,1.445H-1.969C-1.827,5.974-.594,6.9,1.326,6.9a9.879,9.879,0,0,0,4.1-.877V9.033a10.4,10.4,0,0,1-4.433.853c-4.078,0-6.639-2.632-6.639-6.259A6.013,6.013,0,0,1,.378-2.632,5.25,5.25,0,0,1,5.9,2.916" transform="translate(5.644 2.632)" fill="#3a4e90"/>
      </g>
      <g id="Group_6099" data-name="Group 6099" transform="translate(152.015 16.535)">
        <path id="Path_4023" data-name="Path 4023" d="M0,.02H3.225L3.3,1.181a6.582,6.582,0,0,0,.023.782A4.138,4.138,0,0,1,6.828-.312a3.227,3.227,0,0,1,.759.07V3.22A1.939,1.939,0,0,0,6.8,3.078,3.481,3.481,0,0,0,3.533,6.824v5.05H0Z" transform="translate(0 0.312)" fill="#3a4e90"/>
      </g>
      <g id="Group_6100" data-name="Group 6100" transform="translate(162.113 16.535)">
        <path id="Path_4024" data-name="Path 4024" d="M.192.02.287,1.37a2.668,2.668,0,0,1-.095.83H.24A4.708,4.708,0,0,1,4.317-.312C7-.312,8.443,1.324,8.443,4.453v7.421H4.887V5.046c0-1.162-.333-2.134-1.612-2.134A2.8,2.8,0,0,0,.5,5.971v5.9H-3.056V.02Z" transform="translate(3.056 0.312)" fill="#3a4e90"/>
      </g>
      <g id="Group_6101" data-name="Group 6101" transform="translate(183.684 11.65)">
        <path id="Path_4025" data-name="Path 4025" d="M.844.642c0,3.982-2.632,6.544-7.136,6.544-4.481,0-7.137-2.561-7.137-6.544V-10.216h3.652V.286A3.213,3.213,0,0,0-6.292,3.842,3.2,3.2,0,0,0-2.808.286v-10.5H.844Z" transform="translate(13.429 10.216)" fill="#3a4e90"/>
      </g>
      <g id="Group_6102" data-name="Group 6102" transform="translate(201.581 16.535)">
        <path id="Path_4026" data-name="Path 4026" d="M.192.02.287,1.37a2.668,2.668,0,0,1-.095.83H.24A4.708,4.708,0,0,1,4.317-.312C7-.312,8.443,1.324,8.443,4.453v7.421H4.887V5.046c0-1.162-.333-2.134-1.612-2.134A2.8,2.8,0,0,0,.5,5.971v5.9H-3.056V.02Z" transform="translate(3.056 0.312)" fill="#3a4e90"/>
      </g>
      <path id="Path_4027" data-name="Path 4027" d="M207.392-10.655h-3.557V-22.509h3.557Zm0-11.854-1.779-5.311a1.818,1.818,0,0,1,1.968,1.921,1.824,1.824,0,0,1-1.968,1.9,1.812,1.812,0,0,1-1.967-1.9,1.806,1.806,0,0,1,1.967-1.921" transform="translate(12.799 39.375)" fill="#3a4e90"/>
      <g id="Group_6103" data-name="Group 6103" transform="translate(221.99 16.866)">
        <path id="Path_4028" data-name="Path 4028" d="M.753,0l-5.24,12H-6.716L-11.979,0h3.7c.948,2.418,2.086,5.169,2.656,7.136.26-.64.759-2.323,1.185-3.39L-2.946,0Z" transform="translate(11.979)" fill="#3a4e90"/>
      </g>
      <g id="Group_6104" data-name="Group 6104" transform="translate(235.597 16.534)">
        <path id="Path_4029" data-name="Path 4029" d="M.355.165A2.337,2.337,0,0,0-1.969,2.537H2.512A2.11,2.11,0,0,0,.355.165M5.9,2.916a13.214,13.214,0,0,1-.095,1.445H-1.969C-1.826,5.974-.593,6.9,1.327,6.9a9.884,9.884,0,0,0,4.1-.877V9.033a10.407,10.407,0,0,1-4.434.853c-4.077,0-6.637-2.632-6.637-6.259A6.013,6.013,0,0,1,.379-2.632,5.25,5.25,0,0,1,5.9,2.916" transform="translate(5.643 2.632)" fill="#3a4e90"/>
      </g>
      <g id="Group_6105" data-name="Group 6105" transform="translate(250.056 16.535)">
        <path id="Path_4030" data-name="Path 4030" d="M0,.02H3.225L3.3,1.181a6.582,6.582,0,0,0,.023.782A4.135,4.135,0,0,1,6.828-.312a3.227,3.227,0,0,1,.759.07V3.22A1.939,1.939,0,0,0,6.8,3.078,3.48,3.48,0,0,0,3.533,6.824v5.05H0Z" transform="translate(0 0.312)" fill="#3a4e90"/>
      </g>
      <g id="Group_6106" data-name="Group 6106" transform="translate(259.372 16.535)">
        <path id="Path_4031" data-name="Path 4031" d="M.223.442C-1.982-.175-3.547-1.1-3.547-3.4c0-2.2,1.755-3.626,4.505-3.626a10.176,10.176,0,0,1,3.84.734v3.034a8.939,8.939,0,0,0-3.011-.877A4.177,4.177,0,0,0,.7-4.087c-.5.1-1,.333-1,.855,0,.592.593.9,1.85,1.28,2.7.759,3.982,1.707,3.982,3.841,0,2.276-1.873,3.6-4.885,3.6A10.015,10.015,0,0,1-3.38,4.709V1.6A9.831,9.831,0,0,0,.6,2.694c.878,0,1.684-.237,1.684-.948,0-.64-.711-.9-2.063-1.3" transform="translate(3.547 7.026)" fill="#3a4e90"/>
      </g>
      <path id="Path_4032" data-name="Path 4032" d="M258.843-10.655h-3.557V-22.509h3.557Zm0-11.854-1.778-5.311a1.818,1.818,0,0,1,1.967,1.921,1.824,1.824,0,0,1-1.967,1.9,1.812,1.812,0,0,1-1.968-1.9,1.807,1.807,0,0,1,1.968-1.921" transform="translate(16.033 39.375)" fill="#3a4e90"/>
      <g id="Group_6107" data-name="Group 6107" transform="translate(277.126 13.31)">
        <path id="Path_4033" data-name="Path 4033" d="M.1.21V-3.346H3.539V.21H6.692V2.984H3.539V7.749c0,1.257.734,1.684,1.517,1.684a4.768,4.768,0,0,0,2.015-.5v2.915A7.326,7.326,0,0,1,4.06,12.4,3.606,3.606,0,0,1,.1,9.03C.078,8.65.031,8.248.031,7.82V2.984H-1.606V.21Z" transform="translate(1.606 3.346)" fill="#3a4e90"/>
      </g>
      <g id="Group_6108" data-name="Group 6108" transform="translate(286.822 16.866)">
        <path id="Path_4034" data-name="Path 4034" d="M.028.829a3.811,3.811,0,0,0,1.4.237C2.991,1.066,3.8.023,4.438-1.329L-.446-13.183H3.442L4.816-9.058c.5,1.447,1,2.916,1.4,4.41.307-.663,1.09-3.532,1.422-4.41l1.375-4.125h3.841L8.254-1.424C6.9,2.085,5.124,3.84,2.636,4.124a6.342,6.342,0,0,1-1.494.023A4.187,4.187,0,0,1,.028,3.934Z" transform="translate(0.446 13.183)" fill="#3a4e90"/>
      </g>
    </g>
  </g>
</svg>
