<svg xmlns="http://www.w3.org/2000/svg" xmlns:xlink="http://www.w3.org/1999/xlink" width="304.822" height="41.135" viewBox="0 0 304.822 41.135">
  <defs>
    <clipPath id="clip-path">
      <path id="Path_4058" data-name="Path 4058" d="M0,2.443H304.822V-38.692H0Z" transform="translate(0 38.692)" fill="none"/>
    </clipPath>
  </defs>
  <g id="Group_6131" data-name="Group 6131" transform="translate(0 38.692)">
    <g id="Group_6111" data-name="Group 6111" transform="translate(2.831 -35.663)">
      <path id="Path_4036" data-name="Path 4036" d="M.72.3l-12.114-5V9.608h9.527V5.039H3.306V9.608h9.527V-4.7Z" transform="translate(11.394 4.703)" fill="#2c2c2c"/>
    </g>
    <g id="Group_6112" data-name="Group 6112" transform="translate(2.832 -16.179)">
      <path id="Path_4037" data-name="Path 4037" d="M.873,0V4.569H-4.3V0h-9.526V14.312l12.112-5,12.114,5V0Z" transform="translate(13.826)" fill="#2c2c2c"/>
    </g>
    <g id="Group_6130" data-name="Group 6130" transform="translate(0 -38.692)" clip-path="url(#clip-path)">
      <g id="Group_6113" data-name="Group 6113" transform="translate(41.85 11.393)">
        <path id="Path_4038" data-name="Path 4038" d="M.261.506l-.9-.782v9.6H-4.126V-8.008h.071L4.079.2l8.134-8.205h.07V9.328H8.8v-9.6L7.9.506c-1.258,1.376-2.538,2.75-3.818,4.1C2.8,3.256,1.542,1.881.261.506" transform="translate(4.126 8.008)" fill="#2c2c2c"/>
      </g>
      <path id="Path_4039" data-name="Path 4039" d="M62.113-10.65H58.554V-22.507h3.558Zm0-11.857M60.334-27.82A1.818,1.818,0,0,1,62.3-25.9,1.824,1.824,0,0,1,60.334-24a1.812,1.812,0,0,1-1.968-1.9,1.807,1.807,0,0,1,1.968-1.921" transform="translate(3.686 39.379)" fill="#2c2c2c"/>
      <g id="Group_6114" data-name="Group 6114" transform="translate(68.69 11.654)">
        <path id="Path_4040" data-name="Path 4040" d="M.2.662C.2,2.607,1.385,3.934,3.02,3.934A2.946,2.946,0,0,0,5.866.662,2.946,2.946,0,0,0,3.02-2.61C1.385-2.61.2-1.307.2.662M9.518,6.59H6.294L6.222,5.5a3.135,3.135,0,0,1,.048-.782H6.222A4.327,4.327,0,0,1,2.381,6.923C-.68,6.923-3.145,4.551-3.145.662-3.145-3.251-.68-5.6,2.286-5.6A4.526,4.526,0,0,1,6.009-3.868h.048a4.848,4.848,0,0,1-.071-.972v-5.644H9.518Z" transform="translate(3.145 10.484)" fill="#2c2c2c"/>
      </g>
      <g id="Group_6115" data-name="Group 6115" transform="translate(83.201 16.871)">
        <path id="Path_4041" data-name="Path 4041" d="M.713.237c.4,1.162.759,2.443,1.02,3.368.308-.688.759-2.348,1.139-3.391l1.352-3.96h3.7l-4.955,12H.666l-2.347-6.5-2.325,6.5H-6.331l-4.956-12h3.7C-6.734-1.234-5.714,1.564-5.122,3.6l2.4-7.28H-.638Z" transform="translate(11.287 3.747)" fill="#2c2c2c"/>
      </g>
      <g id="Group_6116" data-name="Group 6116" transform="translate(103.308 16.539)">
        <path id="Path_4042" data-name="Path 4042" d="M.356.166A2.338,2.338,0,0,0-1.968,2.538H2.515A2.111,2.111,0,0,0,.356.166M5.905,2.918A13.5,13.5,0,0,1,5.81,4.364H-1.968C-1.825,5.976-.593,6.9,1.329,6.9a9.886,9.886,0,0,0,4.1-.877V9.036A10.41,10.41,0,0,1,1,9.89c-4.078,0-6.64-2.632-6.64-6.261A6.015,6.015,0,0,1,.381-2.632a5.252,5.252,0,0,1,5.524,5.55" transform="translate(5.644 2.632)" fill="#2c2c2c"/>
      </g>
      <g id="Group_6117" data-name="Group 6117" transform="translate(116.942 16.539)">
        <path id="Path_4043" data-name="Path 4043" d="M.224.444C-1.982-.173-3.547-1.1-3.547-3.4c0-2.2,1.755-3.627,4.507-3.627A10.183,10.183,0,0,1,4.8-6.291v3.035a8.942,8.942,0,0,0-3.012-.877A4.174,4.174,0,0,0,.7-4.086c-.5.1-1,.333-1,.855,0,.592.592.9,1.85,1.28,2.7.759,3.984,1.707,3.984,3.842,0,2.276-1.873,3.6-4.885,3.6a10.018,10.018,0,0,1-4.03-.782V1.606A9.829,9.829,0,0,0,.6,2.7c.879,0,1.685-.237,1.685-.948,0-.64-.711-.9-2.064-1.3" transform="translate(3.547 7.026)" fill="#2c2c2c"/>
      </g>
      <g id="Group_6118" data-name="Group 6118" transform="translate(127.352 13.314)">
        <path id="Path_4044" data-name="Path 4044" d="M.1.211V-3.346H3.541V.211H6.694V2.986H3.541V7.752c0,1.258.735,1.684,1.517,1.684a4.774,4.774,0,0,0,2.016-.5v2.916a7.332,7.332,0,0,1-3.012.545c-1.873,0-3.7-.877-3.96-3.367C.078,8.654.03,8.251.03,7.823V2.986H-1.606V.211Z" transform="translate(1.606 3.346)" fill="#2c2c2c"/>
      </g>
      <g id="Group_6119" data-name="Group 6119" transform="translate(137.594 16.539)">
        <path id="Path_4045" data-name="Path 4045" d="M.356.166A2.338,2.338,0,0,0-1.968,2.538H2.515A2.111,2.111,0,0,0,.356.166M5.905,2.918A13.5,13.5,0,0,1,5.81,4.364H-1.968C-1.826,5.976-.593,6.9,1.328,6.9a9.882,9.882,0,0,0,4.1-.877V9.036A10.4,10.4,0,0,1,1,9.89c-4.079,0-6.64-2.632-6.64-6.261A6.015,6.015,0,0,1,.38-2.632a5.252,5.252,0,0,1,5.525,5.55" transform="translate(5.644 2.632)" fill="#2c2c2c"/>
      </g>
      <g id="Group_6120" data-name="Group 6120" transform="translate(152.059 16.539)">
        <path id="Path_4046" data-name="Path 4046" d="M0,.02H3.226L3.3,1.182a6.584,6.584,0,0,0,.023.782A4.136,4.136,0,0,1,6.83-.312a3.237,3.237,0,0,1,.759.07V3.221a1.952,1.952,0,0,0-.784-.141A3.482,3.482,0,0,0,3.533,6.826v5.051H0Z" transform="translate(0 0.312)" fill="#2c2c2c"/>
      </g>
      <g id="Group_6121" data-name="Group 6121" transform="translate(162.159 16.539)">
        <path id="Path_4047" data-name="Path 4047" d="M.193.02.288,1.371a2.636,2.636,0,0,1-.095.83H.241A4.709,4.709,0,0,1,4.319-.312C7-.312,8.446,1.324,8.446,4.454v7.423H4.889V5.047c0-1.162-.333-2.135-1.613-2.135A2.8,2.8,0,0,0,.5,5.972v5.9H-3.056V.02Z" transform="translate(3.056 0.312)" fill="#2c2c2c"/>
      </g>
      <g id="Group_6122" data-name="Group 6122" transform="translate(183.736 11.654)">
        <path id="Path_4048" data-name="Path 4048" d="M.848.645c0,3.984-2.632,6.546-7.138,6.546-4.482,0-7.139-2.562-7.139-6.546V-10.216h3.653V.289A3.214,3.214,0,0,0-6.29,3.846,3.2,3.2,0,0,0-2.8.289v-10.5H.848Z" transform="translate(13.429 10.216)" fill="#2c2c2c"/>
      </g>
      <g id="Group_6123" data-name="Group 6123" transform="translate(201.638 16.539)">
        <path id="Path_4049" data-name="Path 4049" d="M.193.02.288,1.371a2.636,2.636,0,0,1-.095.83H.241A4.709,4.709,0,0,1,4.319-.312C7-.312,8.446,1.324,8.446,4.454v7.423H4.889V5.047c0-1.162-.333-2.135-1.613-2.135A2.8,2.8,0,0,0,.5,5.972v5.9H-3.056V.02Z" transform="translate(3.056 0.312)" fill="#2c2c2c"/>
      </g>
      <path id="Path_4050" data-name="Path 4050" d="M207.393-10.65h-3.558V-22.507h3.558Zm0-11.857-1.78-5.313a1.819,1.819,0,0,1,1.969,1.921,1.825,1.825,0,0,1-1.969,1.9,1.812,1.812,0,0,1-1.968-1.9,1.807,1.807,0,0,1,1.968-1.921" transform="translate(12.86 39.379)" fill="#2c2c2c"/>
      <g id="Group_6124" data-name="Group 6124" transform="translate(222.052 16.871)">
        <path id="Path_4051" data-name="Path 4051" d="M.756,0l-5.24,12h-2.23L-11.979,0h3.7c.948,2.419,2.086,5.17,2.656,7.138.26-.64.759-2.324,1.185-3.391L-2.943,0Z" transform="translate(11.979)" fill="#2c2c2c"/>
      </g>
      <g id="Group_6125" data-name="Group 6125" transform="translate(235.664 16.539)">
        <path id="Path_4052" data-name="Path 4052" d="M.356.166A2.337,2.337,0,0,0-1.968,2.538H2.514A2.11,2.11,0,0,0,.356.166M5.905,2.918A13.5,13.5,0,0,1,5.81,4.364H-1.968C-1.826,5.976-.593,6.9,1.328,6.9a9.886,9.886,0,0,0,4.1-.877V9.036A10.4,10.4,0,0,1,1,9.89c-4.079,0-6.64-2.632-6.64-6.261A6.015,6.015,0,0,1,.38-2.632a5.252,5.252,0,0,1,5.525,5.55" transform="translate(5.644 2.632)" fill="#2c2c2c"/>
      </g>
      <g id="Group_6126" data-name="Group 6126" transform="translate(250.127 16.539)">
        <path id="Path_4053" data-name="Path 4053" d="M0,.02H3.226L3.3,1.182a6.584,6.584,0,0,0,.023.782A4.138,4.138,0,0,1,6.83-.312a3.228,3.228,0,0,1,.759.07V3.221a1.939,1.939,0,0,0-.782-.141A3.482,3.482,0,0,0,3.534,6.826v5.051H0Z" transform="translate(0 0.312)" fill="#2c2c2c"/>
      </g>
      <g id="Group_6127" data-name="Group 6127" transform="translate(259.446 16.539)">
        <path id="Path_4054" data-name="Path 4054" d="M.224.444C-1.982-.173-3.546-1.1-3.546-3.4c0-2.2,1.754-3.627,4.506-3.627A10.179,10.179,0,0,1,4.8-6.291v3.035a8.942,8.942,0,0,0-3.012-.877A4.178,4.178,0,0,0,.7-4.086c-.5.1-1,.333-1,.855,0,.592.593.9,1.851,1.28,2.7.759,3.984,1.707,3.984,3.842,0,2.276-1.873,3.6-4.886,3.6a10.018,10.018,0,0,1-4.03-.782V1.606A9.834,9.834,0,0,0,.6,2.7c.878,0,1.684-.237,1.684-.948,0-.64-.711-.9-2.064-1.3" transform="translate(3.546 7.026)" fill="#2c2c2c"/>
      </g>
      <path id="Path_4055" data-name="Path 4055" d="M258.844-10.65h-3.558V-22.507h3.558Zm0-11.857-1.779-5.313a1.818,1.818,0,0,1,1.968,1.921,1.824,1.824,0,0,1-1.968,1.9,1.813,1.813,0,0,1-1.969-1.9,1.807,1.807,0,0,1,1.969-1.921" transform="translate(16.109 39.379)" fill="#2c2c2c"/>
      <g id="Group_6128" data-name="Group 6128" transform="translate(277.205 13.314)">
        <path id="Path_4056" data-name="Path 4056" d="M.1.211V-3.346H3.541V.211H6.694V2.986H3.541V7.752c0,1.258.735,1.684,1.518,1.684a4.765,4.765,0,0,0,2.015-.5v2.916a7.328,7.328,0,0,1-3.012.545A3.607,3.607,0,0,1,.1,9.033c-.023-.38-.07-.782-.07-1.21V2.986H-1.606V.211Z" transform="translate(1.606 3.346)" fill="#2c2c2c"/>
      </g>
      <g id="Group_6129" data-name="Group 6129" transform="translate(286.903 16.871)">
        <path id="Path_4057" data-name="Path 4057" d="M.028.833a3.812,3.812,0,0,0,1.4.237c1.565,0,2.372-1.043,3.012-2.4L-.446-13.183H3.443L4.818-9.057c.5,1.447,1,2.917,1.4,4.411.308-.663,1.091-3.533,1.422-4.411l1.376-4.126h3.842L8.257-1.42c-1.351,3.509-3.131,5.265-5.62,5.55a6.344,6.344,0,0,1-1.495.023A4.189,4.189,0,0,1,.028,3.939Z" transform="translate(0.446 13.183)" fill="#2c2c2c"/>
      </g>
    </g>
  </g>
</svg>
