<svg xmlns="http://www.w3.org/2000/svg" xmlns:xlink="http://www.w3.org/1999/xlink" width="115.364" height="33.312" viewBox="0 0 115.364 33.312">
  <defs>
    <clipPath id="clip-path">
      <path id="Path_4098" data-name="Path 4098" d="M0,0H115.364V-33.312H0Z" fill="none"/>
    </clipPath>
  </defs>
  <g id="Group_6180" data-name="Group 6180" transform="translate(0 33.312)">
    <g id="Group_6174" data-name="Group 6174" transform="translate(9.914 -26.057)">
      <path id="Path_4093" data-name="Path 4093" d="M0,0-8.56-3.533V6.58h6.732V3.351H1.828V6.58H8.56V-3.533Z" fill="#c9ad8a"/>
    </g>
    <g id="Group_6175" data-name="Group 6175" transform="translate(11.742 -15.821)">
      <path id="Path_4094" data-name="Path 4094" d="M0,0V3.229H-3.655V0h-6.733V10.113l8.56-3.533,8.56,3.533V0Z" fill="#c9ad8a"/>
    </g>
    <g id="Group_6179" data-name="Group 6179" clip-path="url(#clip-path)">
      <g id="Group_6176" data-name="Group 6176" transform="translate(34.692 -17.583)">
        <path id="Path_4095" data-name="Path 4095" d="M0,0-1.227-1.066V12.011H-5.973v-23.6h.1L5.2-.42,16.273-11.591h.1v23.6H11.624V-1.066L10.4,0C8.686,1.872,6.942,3.745,5.2,5.585,3.455,3.745,1.744,1.872,0,0" fill="#3a4e90"/>
      </g>
      <g id="Group_6177" data-name="Group 6177" transform="translate(60.389 -28.819)">
        <path id="Path_4096" data-name="Path 4096" d="M0,0,3.164,7.911c.775,1.937,1.453,3.777,1.938,5.262.354-.839,1.065-2.647,1.678-4.068L8.071,6.167l2.681-6h.193c1.97,4.423,4.423,9.718,5.619,13.011C17.4,11.107,20.341,3.552,21.7,0H27.25L16.821,23.6H16.6l-4.553-10.4c-.42-.9-.84-1.873-1.194-2.777-.356.9-.776,1.873-1.163,2.777L5.1,23.6H4.875L-5.521,0Z" fill="#3a4e90"/>
      </g>
      <g id="Group_6178" data-name="Group 6178" transform="translate(111.171 -14.032)">
        <path id="Path_4097" data-name="Path 4097" d="M0,0C0,5.424-3.584,8.912-9.718,8.912c-6.1,0-9.719-3.488-9.719-8.912V-14.788h4.973v14.3c0,3.035,1.71,4.843,4.746,4.843,3.067,0,4.746-1.808,4.746-4.843v-14.3H0Z" fill="#3a4e90"/>
      </g>
    </g>
  </g>
</svg>
