<svg xmlns="http://www.w3.org/2000/svg" xmlns:xlink="http://www.w3.org/1999/xlink" width="156.986" height="186.412" viewBox="0 0 156.986 186.412">
  <defs>
    <clipPath id="clip-path">
      <path id="Path_4137" data-name="Path 4137" d="M0,55.608H156.986V-98.065H0Z" transform="translate(0 98.065)" fill="none"/>
    </clipPath>
    <clipPath id="clip-path-2">
      <path id="Path_4138" data-name="Path 4138" d="M0,88.346H156.984V-98.066H0Z" transform="translate(0 98.066)" fill="none"/>
    </clipPath>
  </defs>
  <g id="Group_6230" data-name="Group 6230" transform="translate(0 98.066)">
    <g id="Group_6223" data-name="Group 6223" transform="translate(63.567 -72.008)">
      <path id="Path_4132" data-name="Path 4132" d="M7.7,3.18-8.552-3.53V15.677H4.233V9.544h6.942v6.132H23.961V-3.53Z" transform="translate(8.552 3.53)" fill="#2c2c2c"/>
    </g>
    <g id="Group_6224" data-name="Group 6224" transform="translate(63.567 -45.86)">
      <path id="Path_4133" data-name="Path 4133" d="M9.349,0V6.132H2.407V0H-10.378V19.207L5.878,12.5l16.256,6.71V0Z" transform="translate(10.378)" fill="#2c2c2c"/>
    </g>
    <g id="Group_6228" data-name="Group 6228" transform="translate(0 -98.064)" clip-path="url(#clip-path)">
      <g id="Group_6225" data-name="Group 6225" transform="translate(23.921 87.412)">
        <path id="Path_4134" data-name="Path 4134" d="M3.762,7.3,2.131,5.885V23.262H-4.176V-8.1h.131L10.672,6.742,25.388-8.1h.129V23.262H19.211V5.885L17.582,7.3c-2.277,2.488-4.593,4.977-6.91,7.423C8.353,12.277,6.079,9.789,3.762,7.3" transform="translate(4.176 8.104)" fill="#2c2c2c"/>
      </g>
      <g id="Group_6226" data-name="Group 6226" transform="translate(58.672 87.884)">
        <path id="Path_4135" data-name="Path 4135" d="M3.477,0l4.2,10.514c1.03,2.574,1.931,5.018,2.576,6.993.471-1.116,1.416-3.519,2.232-5.406l1.716-3.906,3.56-7.98h.257c2.619,5.878,5.879,12.915,7.469,17.292C26.6,14.76,30.51,4.72,32.312,0h7.379L25.834,31.366h-.3L19.483,17.549c-.559-1.2-1.118-2.488-1.587-3.69-.471,1.2-1.03,2.488-1.547,3.69l-6.09,13.818h-.3L-3.86,0Z" transform="translate(3.86)" fill="#2c2c2c"/>
      </g>
      <g id="Group_6227" data-name="Group 6227" transform="translate(106.81 87.885)">
        <path id="Path_4136" data-name="Path 4136" d="M12.242,9.313c0,7.208-4.764,11.842-12.916,11.842-8.111,0-12.915-4.634-12.915-11.842V-10.338h6.607V8.669c0,4.034,2.273,6.436,6.307,6.436,4.075,0,6.307-2.4,6.307-6.436V-10.338h6.609Z" transform="translate(13.589 10.338)" fill="#2c2c2c"/>
      </g>
    </g>
  </g>
</svg>
