<svg xmlns="http://www.w3.org/2000/svg" xmlns:xlink="http://www.w3.org/1999/xlink" width="156.619" height="185.976" viewBox="0 0 156.619 185.976">
  <defs>
    <clipPath id="clip-path">
      <path id="Path_4123" data-name="Path 4123" d="M0,55.249H156.619V-98.065H0Z" transform="translate(0 98.065)" fill="none"/>
    </clipPath>
    <clipPath id="clip-path-2">
      <path id="Path_4124" data-name="Path 4124" d="M0,87.91H156.617V-98.066H0Z" transform="translate(0 98.066)" fill="none"/>
    </clipPath>
  </defs>
  <g id="Group_6214" data-name="Group 6214" transform="translate(0 98.066)">
    <g id="Group_6207" data-name="Group 6207" transform="translate(63.418 -72.069)">
      <path id="Path_4118" data-name="Path 4118" d="M7.666,3.164-8.552-3.53V15.632H4.2V9.514h6.926v6.118H23.885V-3.53Z" transform="translate(8.552 3.53)" fill="#c9ad8a"/>
    </g>
    <g id="Group_6208" data-name="Group 6208" transform="translate(63.418 -45.982)">
      <path id="Path_4119" data-name="Path 4119" d="M9.3,0V6.118H2.377V0H-10.378V19.162L5.84,12.467l16.218,6.694V0Z" transform="translate(10.378)" fill="#c9ad8a"/>
    </g>
    <g id="Group_6212" data-name="Group 6212" transform="translate(0 -98.064)" clip-path="url(#clip-path)">
      <g id="Group_6209" data-name="Group 6209" transform="translate(23.865 87.207)">
        <path id="Path_4120" data-name="Path 4120" d="M3.744,7.265,2.116,5.852V23.189H-4.176V-8.1h.131L10.637,6.707,25.319-8.1h.129V23.189H19.156V5.852L17.531,7.265c-2.272,2.482-4.582,4.965-6.894,7.406C8.323,12.23,6.055,9.747,3.744,7.265" transform="translate(4.176 8.104)" fill="#3a4e90"/>
      </g>
      <g id="Group_6210" data-name="Group 6210" transform="translate(58.534 87.678)">
        <path id="Path_4121" data-name="Path 4121" d="M3.46,0,7.655,10.489c1.028,2.568,1.927,5.007,2.57,6.977.47-1.113,1.413-3.51,2.226-5.393l1.712-3.9L17.716.214h.256c2.613,5.864,5.866,12.884,7.451,17.252,1.109-2.74,5.007-12.757,6.8-17.466h7.362L25.764,31.293h-.3L19.428,17.508c-.558-1.2-1.115-2.482-1.584-3.681-.47,1.2-1.028,2.482-1.544,3.681L10.225,31.293h-.3L-3.86,0Z" transform="translate(3.86)" fill="#3a4e90"/>
      </g>
      <g id="Group_6211" data-name="Group 6211" transform="translate(106.56 87.679)">
        <path id="Path_4122" data-name="Path 4122" d="M12.182,9.267c0,7.191-4.752,11.815-12.886,11.815-8.092,0-12.884-4.624-12.884-11.815V-10.338H-7V8.624c0,4.024,2.268,6.421,6.292,6.421,4.066,0,6.292-2.4,6.292-6.421V-10.338h6.594Z" transform="translate(13.589 10.338)" fill="#3a4e90"/>
      </g>
    </g>
  </g>
</svg>
