<svg xmlns="http://www.w3.org/2000/svg" xmlns:xlink="http://www.w3.org/1999/xlink" width="157.531" height="186.412" viewBox="0 0 157.531 186.412">
  <defs>
    <clipPath id="clip-path">
      <path id="Path_4137" data-name="Path 4137" d="M0,55.608H156.986V-98.065H0Z" transform="translate(0 98.065)" fill="none"/>
    </clipPath>
    <clipPath id="clip-path-2">
      <path id="Path_4138" data-name="Path 4138" d="M0,88.346H156.984V-98.066H0Z" transform="translate(0 98.066)" fill="none"/>
    </clipPath>
    <clipPath id="clip-path-3">
      <path id="Path_4145" data-name="Path 4145" d="M7.461,48.781H138.036V-71.97H7.461Z" transform="translate(-7.461 71.97)" fill="none"/>
    </clipPath>
  </defs>
  <g id="Group_6648" data-name="Group 6648" transform="translate(-864.547 -3764.921)">
    <g id="Group_6647" data-name="Group 6647" transform="translate(-5.23)">
      <path id="Path_4146" data-name="Path 4146" d="M0,67.471H157.531V-81.108H0Z" transform="translate(869.777 3846.149)" fill="#0d55a0"/>
      <g id="Group_6237" data-name="Group 6237" transform="translate(869.588 3843.323)">
        <g id="Group_6231" data-name="Group 6231" transform="translate(65.859 -52.333)">
          <path id="Path_4140" data-name="Path 4140" d="M7.114,2.936-8.552-3.53V14.979H3.769V9.07h6.69v5.91H22.78V-3.53Z" transform="translate(8.552 3.53)" fill="#c9ad8a"/>
        </g>
        <g id="Group_6232" data-name="Group 6232" transform="translate(65.859 -26.122)">
          <path id="Path_4141" data-name="Path 4141" d="M8.633,0V5.91H1.943V0H-10.378V18.509L5.288,12.043l15.666,6.466V0Z" transform="translate(10.378)" fill="#c9ad8a"/>
        </g>
        <g id="Group_6236" data-name="Group 6236" transform="translate(13.668 -64.368)" clip-path="url(#clip-path-3)">
          <g id="Group_6233" data-name="Group 6233" transform="translate(13.984 72.796)">
            <path id="Path_4142" data-name="Path 4142" d="M3.474,7.081,1.9,5.685V22.816h-6.08V-8.1h.126L10.133,6.53,24.315-8.1h.125V22.816H18.361V5.685l-1.57,1.4C14.6,9.536,12.366,11.987,10.133,14.4,7.9,11.987,5.707,9.536,3.474,7.081" transform="translate(4.176 8.103)" fill="#fff"/>
          </g>
          <g id="Group_6234" data-name="Group 6234" transform="translate(47.474 73.259)">
            <path id="Path_4143" data-name="Path 4143" d="M3.211,0,7.263,10.364c.993,2.537,1.861,4.949,2.482,6.894.454-1.1,1.365-3.469,2.151-5.329L13.55,8.078,16.981.212h.247c2.524,5.794,5.666,12.731,7.2,17.046C25.5,14.55,29.262,4.653,31,0H38.11L24.756,30.92h-.291L18.635,17.3c-.539-1.186-1.077-2.455-1.53-3.639-.454,1.184-.993,2.453-1.491,3.639L9.745,30.92H9.454L-3.86,0Z" transform="translate(3.86)" fill="#fff"/>
          </g>
          <g id="Group_6235" data-name="Group 6235" transform="translate(93.864 73.259)">
            <path id="Path_4144" data-name="Path 4144" d="M11.3,9.035c0,7.106-4.591,11.674-12.448,11.674-7.817,0-12.446-4.568-12.446-11.674V-10.339h6.368V8.4c0,3.976,2.191,6.345,6.078,6.345,3.928,0,6.078-2.369,6.078-6.345V-10.339H11.3Z" transform="translate(13.589 10.339)" fill="#fff"/>
          </g>
        </g>
      </g>
    </g>
  </g>
</svg>
