<svg xmlns="http://www.w3.org/2000/svg" xmlns:xlink="http://www.w3.org/1999/xlink" width="344" height="343.794" viewBox="0 0 344 343.794">
  <defs>
    <clipPath id="clip-path">
      <path id="Path_1123" data-name="Path 1123" d="M0,110.993H344V-232.8H0Z" transform="translate(0 232.802)" fill="none"/>
    </clipPath>
    <clipPath id="clip-path-2">
      <rect id="Rectangle_156" data-name="Rectangle 156" width="394.21" height="364.469" fill="none"/>
    </clipPath>
  </defs>
  <g id="Group_1211" data-name="Group 1211" transform="translate(0 232.802)">
    <g id="Group_1210" data-name="Group 1210" transform="translate(0 -232.802)" clip-path="url(#clip-path)">
      <g id="Group_1209" data-name="Group 1209" transform="translate(-25.105 -19.198)" style="mix-blend-mode: multiply;isolation: isolate">
        <g id="Group_1208" data-name="Group 1208">
          <g id="Group_1207" data-name="Group 1207" clip-path="url(#clip-path-2)">
            <g id="Group_1175" data-name="Group 1175" transform="translate(314.866 146.08)">
              <path id="Path_1091" data-name="Path 1091" d="M11.016,7.551c-.2-.817-.408-2.652-.817-4.488-.2-.613-.2-1.02-.611-.817-.2,0-.2.2-.2.613a6.943,6.943,0,0,1,.2,2.039c-.2,1.02-.817,1.428-3.06,2.041L-10.2,10.815v-.2C-9.792,9.8-5.3,3.675-3.469.411.815-6.321,5.711-13.256,6.12-13.869c.611-.815,1.019-1.224.815-1.632,0-.408-.611-.408-1.428-.2l-22.439,4.488c-3.265.611-4.489.815-4.9-.2-.2-.408-.408-1.224-.611-1.632,0-.409-.2-.613-.409-.613-.408,0-.2.409-.2.817a27.524,27.524,0,0,0,1.02,4.08c.2.611.408,2.243.817,4.692.2.611.2.815.611.815.2,0,.2-.2.2-.611a6.292,6.292,0,0,1-.2-2.039c0-.817,1.02-1.428,3.877-2.245L-.816-11.421C-1.429-10.4-5.1-5.3-8.364-.405-11.425,4.288-15.3,10.2-17.138,13.06a2.2,2.2,0,0,0-.611,1.428c0,.408.408.408,1.224.2L7.343,10c2.041-.409,3.061-.2,3.469.611.2.408.2.817.408,1.02,0,.408.2.611.408.611s.205-.408.205-1.019c-.409-1.837-.817-3.265-.817-3.673" transform="translate(23.104 15.839)" fill="#42454a"/>
            </g>
            <g id="Group_1176" data-name="Group 1176" transform="translate(80.844 273.232)">
              <path id="Path_1092" data-name="Path 1092" d="M13.2,6.15c.408.2.611.408,1.02.611.408.409.611.409.815.205s0-.613-.408-.817C13.2,4.925,12.178,3.905,11.77,3.7L8.506.438C8.1.03,7.69-.174,7.486.03s-.2.408.2.611A11.671,11.671,0,0,1,9.118,2.273c.408,1.02.2,1.632-1.428,3.469L-3.734,18.594l-.2-.2c0-.817,0-8.568-.2-12.241-.2-7.957-.2-16.525-.2-17.136,0-1.02,0-1.632-.2-1.836s-.817,0-1.224.611L-21.482,4.314c-2.245,2.447-3.264,3.06-4.08,2.652a6.253,6.253,0,0,1-1.428-1.02c-.2-.2-.408-.408-.611-.2s0,.611.408.815a39.846,39.846,0,0,0,3.06,2.652c.611.408,1.632,1.632,3.467,3.264.409.409.613.613.817.409s0-.409-.2-.613a4.9,4.9,0,0,1-1.224-1.632c-.408-.815,0-1.836,1.836-4.08l10-11.832c0,1.02,0,7.548.2,13.464.205,5.712.409,12.649.613,16.117,0,.611,0,1.224.408,1.428q.306.306,1.224-.613L9.935,7.578C11.363,5.946,12.178,5.742,13.2,6.15" transform="translate(27.683 12.899)" fill="#42454a"/>
            </g>
            <g id="Group_1177" data-name="Group 1177" transform="translate(181.906 315.334)">
              <path id="Path_1093" data-name="Path 1093" d="M3.161.658a46.6,46.6,0,0,1,5.508.408c1.836.2,2.243.817,2.447,1.428a3.455,3.455,0,0,1,.205,1.428c0,.409,0,.613.408.613a.439.439,0,0,0,.408-.409c0-.408.2-2.039.2-2.447A23.318,23.318,0,0,1,12.75-.77c0-.2,0-.408-.2-.408a.75.75,0,0,0-.613.2c-.408,0-1.02.2-1.632.2-.817,0-8.364-.2-9.589-.2a11.708,11.708,0,0,1-2.447-.2c-1.02,0-2.041-.2-3.061-.2-.611,0-.815,0-.815.408,0,.2.2.408.611.408.613,0,1.224,0,1.428.2A2.022,2.022,0,0,1-1.939,1.883c0,1.224,0,2.243-.2,8.161l-.815,6.731c-.2,3.469-.2,6.529-.409,8.161-.2,1.02-.408,2.039-1.223,2.039-.409,0-.817.2-1.428.2-.409,0-.613,0-.613.205s.2.408.817.408h4.9c1.224,0,2.448.2,4.08.2s3.673.2,6.733.408c1.428,0,1.836,0,2.039-1.019a27.117,27.117,0,0,0,.613-4.284c0-.409,0-.613-.205-.613s-.408.2-.408.613c-.408,1.632-.815,2.447-1.836,2.856a11.311,11.311,0,0,1-3.673.408c-3.875-.2-4.488-.817-4.488-3.469,0-1.019.2-4.692.2-5.916v-3.06c0-.2,0-.408.2-.408,1.02,0,4.693.2,5.508.2,1.428.2,1.837.817,2.041,1.632a3.472,3.472,0,0,0,.2,1.428c0,.2,0,.408.408.408s.408-.408.408-.815c0-.2.205-1.836.205-2.652.2-2.039.408-2.652.408-2.856a.712.712,0,0,0-.2-.408c-.2,0-.409.2-.613.408-.408.408-1.019.408-1.836.613a60.942,60.942,0,0,1-6.12-.205c-.2,0-.2-.2-.2-.408l.408-9.792c0-.2,0-.408.2-.408" transform="translate(6.631 1.381)" fill="#42454a"/>
            </g>
            <g id="Group_1178" data-name="Group 1178" transform="translate(118.177 297.909)">
              <path id="Path_1094" data-name="Path 1094" d="M7.4,1.608A36.474,36.474,0,0,1,3.322-.637C2.3-1.248.262-2.472-.962-3.084c-.611-.2-.815-.409-1.02-.2s0,.408.409.611A4.265,4.265,0,0,1-.349-1.86q.917.917,0,2.447c-.613,1.02-1.02,2.041-3.877,7.14l-3.264,6.121c-1.837,3.264-3.265,5.916-4.284,7.344q-.919,1.528-1.837,1.223a1.761,1.761,0,0,1-1.223-.611q-.614-.306-.613,0c-.2.2,0,.408.408.611,1.428.817,3.469,1.837,4.284,2.245s3.06,1.836,5.1,3.06c.408.2.611.2.815,0,0-.2,0-.408-.408-.611s-1.224-.817-1.632-1.02c-1.02-.611-.817-1.428-.408-2.448.611-1.428,2.039-4.08,3.875-7.548l3.265-5.916c2.856-5.1,3.264-6.12,4.08-7.14C4.75,1.812,5.158,1.4,6.178,1.812c.408.2.817.2,1.02.408.408.205.611.205.815,0s-.2-.408-.611-.611" transform="translate(15.526 3.373)" fill="#42454a"/>
            </g>
            <g id="Group_1179" data-name="Group 1179" transform="translate(146.002 306.205)">
              <path id="Path_1095" data-name="Path 1095" d="M9.813,2.947c-1.02-.408-2.856-.817-3.467-1.02A21.984,21.984,0,0,0,2.469.7Q1.55.4,1.245.7c0,.205.2.409.611.409.409.2,1.02.408,1.428.611.205.2.409.613.205.817,0,.408-.409.815-.817,1.224-1.632,2.243-10,12.647-12.852,16.116h-.2L-11.607,1.315a7.265,7.265,0,0,1,0-3.06c.2-.409.2-.613.613-.613a1.794,1.794,0,0,1,1.428.2c.408,0,.611,0,.611-.2s-.2-.408-.817-.611c-1.836-.613-3.671-1.02-4.488-1.224-1.224-.408-3.264-1.224-5.3-1.836-.613-.2-1.02-.2-1.02,0s0,.408.408.408a3.549,3.549,0,0,1,1.428.611c1.224.817,1.632,1.428,1.836,3.673l2.652,25.5c.2,2.039.2,2.447.613,2.652.611.2,1.019-.409,2.447-2.245,1.428-1.632,4.284-5.1,8.364-9.792C.634,10.9,2.062,9.067,4.713,6.211,6.346,4.171,7.161,3.764,7.774,3.559a3.159,3.159,0,0,1,2.039.205c.408.2.611.2.611-.205q0-.306-.611-.611" transform="translate(20.583 6.181)" fill="#42454a"/>
            </g>
            <g id="Group_1180" data-name="Group 1180" transform="translate(302.319 233.12)">
              <path id="Path_1096" data-name="Path 1096" d="M11.378,6.454c-.2,0-.408,0-.611.408a7.185,7.185,0,0,1-1.02,1.632c-.613,1.02-1.632.817-2.652.409A29.458,29.458,0,0,1,3.626,7.271L.77,5.843A8.557,8.557,0,0,1-2.5,3.6,121.1,121.1,0,0,1-10.247-8.437a5.477,5.477,0,0,1-.817-2.652,3.143,3.143,0,0,1,.409-1.632c.2-.409.2-.613,0-.817-.205,0-.409.2-.613.408A28.937,28.937,0,0,0-12.9-9.458c-.408,1.02-1.224,2.039-1.632,3.264-.2.408-.2.613,0,.817.2,0,.408-.2.611-.409.409-.611.817-.408,1.224-.2a4.685,4.685,0,0,1,1.632,1.428c.817,1.02,6.325,9.181,6.936,9.792-1.224,0-12.036.817-13.26.817a3.025,3.025,0,0,1-1.428-.2,1.064,1.064,0,0,1-.408-.817c.2-.611.2-.817,0-1.02s-.409,0-.613.409a35.527,35.527,0,0,0-1.632,3.671c-.611,1.224-1.836,3.673-2.243,4.284-.205.408-.205.613,0,.817s.408,0,.611-.409a3.454,3.454,0,0,1,1.224-1.223A14.922,14.922,0,0,1-18.2,10.331c2.448-.409,12.241-1.224,12.852-1.224a7.014,7.014,0,0,1,4.08,1.02l2.856,1.632a30.852,30.852,0,0,1,3.469,1.836c1.019.611,1.632,1.224,1.428,2.039a2.9,2.9,0,0,1-.409,1.224q-.306.614,0,.613c.2.2.409-.2.613-.613.611-1.224,1.632-3.467,2.039-4.284.408-1.019,1.632-3.06,2.652-5.3.2-.409.2-.817,0-.817" transform="translate(23.864 13.538)" fill="#42454a"/>
            </g>
            <g id="Group_1181" data-name="Group 1181" transform="translate(282.191 263.994)">
              <path id="Path_1097" data-name="Path 1097" d="M10.961,7.618,9.532,9.046c-.817.817-1.632.408-2.652-.2-1.428-1.02-3.671-3.06-6.324-5.3L-11.275-7.07l3.264-3.469c2.447-2.447,3.875-2.652,4.692-1.836l.408.2c.409.408.613.408.817.2s0-.408-.2-.611c-.817-.613-2.652-2.448-3.265-3.06-.408-.409-.611-.409-.815-.2,0,.2-.2.408-.613.815s-.815,1.224-1.632,2.041l-10.2,11.424a16.2,16.2,0,0,1-2.652,2.651c-.611.613-1.224.613-1.428,1.02-.2.2,0,.408.205.817.2.2,2.243,3.06,2.651,3.467.409.2.409.408.613.2a.382.382,0,0,0,0-.611,3.145,3.145,0,0,1-.613-1.428c-.2-1.02.2-1.836,1.633-3.469L-14.744-3.2-2.3,7.006c2.652,2.447,4.9,4.488,5.916,5.712.815.815,1.224,1.632.815,2.243a12.469,12.469,0,0,1-.815,1.224c-.2.408-.408.611-.2.611.2.205.408,0,.815-.408,1.02-1.224,2.652-3.06,3.06-3.671.613-.817,2.448-2.448,4.08-4.489.2-.408.408-.611.2-.815s-.408,0-.611.2" transform="translate(22.989 15.977)" fill="#42454a"/>
            </g>
            <g id="Group_1182" data-name="Group 1182" transform="translate(266.568 288.116)">
              <path id="Path_1098" data-name="Path 1098" d="M8.5,7.338a7.166,7.166,0,0,1-1.632,1.02c-1.02.611-1.632.2-2.448-.613C3.4,6.521,1.56,4.074-.684,1.015l-4.08-5.508C-8.233-9.187-8.844-10-9.456-11.226c-.817-1.224-.817-1.836-.205-2.652l.817-.815c.408-.2.408-.409.2-.613s-.408,0-.815.2c-1.224.817-2.858,2.245-3.673,2.856s-2.856,2.041-4.08,2.856c-.408.409-.611.613-.611.817.2.2.408.2.815,0s.817-.613,1.224-.613c.817-.408,1.428,0,2.245,1.02s1.428,1.836,4.9,6.529l4.284,5.3A51.277,51.277,0,0,1,.335,10.6c.613,1.02.817,1.632.2,2.245L-.48,13.867c-.408.2-.408.408-.408.611.2.2.408.2.815-.2,1.224-.817,3.06-2.448,3.877-2.856.815-.613,2.856-2.041,4.9-3.469.408-.2.613-.611.408-.815s-.408-.2-.611.2" transform="translate(17.82 15.391)" fill="#42454a"/>
            </g>
            <g id="Group_1183" data-name="Group 1183" transform="translate(211.487 313.061)">
              <path id="Path_1099" data-name="Path 1099" d="M11.262,7.847a2.224,2.224,0,0,0-1.02.2A7.961,7.961,0,0,1,5.55,6.419C2.9,4.583-.57,1.727-4.65-1.742c3.06-3.875,3.877-6.731,3.264-9.383a7.512,7.512,0,0,0-3.671-4.692c-2.245-1.02-4.9-.613-7.344-.205-1.224.205-4.08,1.02-5.3,1.224-.817.2-3.264.613-5.1,1.02-.611.2-.815.2-.815.408s.2.2.611.2a4.6,4.6,0,0,1,1.428-.2c1.224,0,1.632.613,2.041,1.837s.611,2.243,1.836,7.955l1.428,6.529a47.39,47.39,0,0,1,1.428,7.955c0,1.224,0,2.041-.613,2.245a2.9,2.9,0,0,1-1.223.408c-.409,0-.613.2-.613.408s.408.409.817.2a31.9,31.9,0,0,1,4.488-1.019c.611-.2,3.467-.613,5.508-1.02.408,0,.815-.2.611-.611,0-.205-.2-.205-.611-.205s-1.224.205-1.837.205c-1.224,0-1.632-.613-1.836-1.837a52.466,52.466,0,0,1-1.836-7.955l-.2-.613c0-.2,0-.408.2-.408L-8.73.1a1.548,1.548,0,0,1,.817.2c.611.408,2.856,2.652,4.9,4.488C-.366,7.235,1.47,8.663,3.305,9.275c1.02.408,2.041.408,4.284-.2l3.469-.817a.54.54,0,0,0,.611-.611c0,.2-.2.2-.408.2M-6.689-2.353A4.547,4.547,0,0,1-9.138-1.129a7.021,7.021,0,0,1-2.856.2c-.2,0-.408-.2-.408-.613L-14.85-12.961a.75.75,0,0,1,.2-.613,8.276,8.276,0,0,1,2.039-.611c2.245-.409,6.121.408,7.14,5.712.409,3.06-.408,5.1-1.223,6.12" transform="translate(23.622 16.458)" fill="#42454a"/>
            </g>
            <g id="Group_1184" data-name="Group 1184" transform="translate(247.713 300.441)">
              <path id="Path_1100" data-name="Path 1100" d="M3.453,4.084l-1.224-.2c-3.877-.817-5.3-1.632-6.12-3.264-1.02-2.041-.2-4.284,2.448-5.508a5.4,5.4,0,0,1,4.692-.2A4.554,4.554,0,0,1,5.288-3.26c.2.408.409.611.613.408s.2-.408-.2-1.224C4.473-6.729,4.064-7.748,3.86-8.361a.749.749,0,0,0-.611-.2,22.089,22.089,0,0,0-4.9,1.632C-6.544-4.485-8.379-.4-6.544,3.472c1.428,2.856,3.877,4.488,9.18,5.712l2.245.408c3.877.815,5.3,2.243,6.12,3.877a4.635,4.635,0,0,1-2.652,6.12,5.661,5.661,0,0,1-6.731-1.02A8.462,8.462,0,0,1,.393,16.936c-.2-.2-.408-.611-.613-.408a.91.91,0,0,0,0,1.019,46.127,46.127,0,0,0,2.041,4.692c0,1.224.2,1.224.815,1.224a12.072,12.072,0,0,0,5.508-1.632,11.718,11.718,0,0,0,4.9-4.08,8.32,8.32,0,0,0,.408-7.548c-1.632-3.264-4.284-4.9-10-6.12" transform="translate(7.242 8.565)" fill="#42454a"/>
            </g>
            <g id="Group_1185" data-name="Group 1185" transform="translate(123.711 39.979)">
              <path id="Path_1101" data-name="Path 1101" d="M.215,5.055a2.169,2.169,0,0,1,1.632-.2A4.873,4.873,0,0,1,4.092,6.891L20.208,26.883c.611.817,1.02,1.224,1.428,1.02s.408-.611.611-2.448c.2-3.875.2-18.564.2-20.6l14.486,15.1c1.019,1.224,1.428,1.428,1.836,1.428.408-.2.408-.611.408-2.039-.408-6.12-1.02-18.972-1.02-24.073,0-2.448-.2-3.875.613-4.488.408-.2.815-.611,1.224-.611.408-.205.408-.205.408-.613,0-.2-.408-.2-.817,0-1.223.408-2.651,1.224-2.856,1.224-.408.2-1.836.613-3.875,1.428q-.919.306-.613.611c0,.205.408.205.817,0,1.428-.611,1.836-.2,2.039.409a5.457,5.457,0,0,1,.409,2.243c.408,4.693,1.223,15.3,1.428,17.953h-.205L22.247-1.881c-.815-1.02-1.224-1.428-1.632-1.224-.2.2-.408.409-.408,1.632l.2,21.421h-.2C18.78,18.111,11.232,8.522,9.8,6.483a18.915,18.915,0,0,1-2.041-3.06.928.928,0,0,1,0-1.02A1.549,1.549,0,0,1,8.579,2c.408-.2.611-.2.611-.613,0-.2-.408-.2-.815,0A34.726,34.726,0,0,0,4.5,3.016c-.408.2-2.448.815-4.284,1.428-.408.2-.817.408-.611.611a.382.382,0,0,0,.611,0" transform="translate(0.451 10.602)" fill="#42454a"/>
            </g>
            <g id="Group_1186" data-name="Group 1186" transform="translate(250.168 49.64)">
              <path id="Path_1102" data-name="Path 1102" d="M.157,9.51c1.428.817,3.467,1.836,4.284,2.245,1.02.408,3.06,1.836,5.3,2.856.408.2.611.2.815,0,0-.205,0-.409-.408-.613s-1.224-.815-1.632-1.02c-1.02-.611-.817-1.632-.408-2.447a79.943,79.943,0,0,1,3.671-7.344l7.344-13.873,4.284,2.448c3.06,1.632,3.469,3.06,3.06,4.08l-.2.408c-.2.611-.2.815,0,.815.2.2.408,0,.613-.408.408-.815,1.836-3.264,2.243-3.877.2-.408.408-.815.2-.815s-.408-.2-1.019-.408a10.555,10.555,0,0,1-2.448-1.02L12.4-16.6a22.813,22.813,0,0,1-3.265-2.041,6.349,6.349,0,0,1-1.224-1.223c-.2-.205-.408,0-.815.408-.2.2-2.448,3.06-2.856,3.467q-.306.614,0,.613c.2.2.408,0,.611-.2A3.125,3.125,0,0,1,6.073-16.4c.817-.408,1.836-.2,3.877.817l5.1,2.651L7.705.942a78.918,78.918,0,0,1-4.08,7.14C3.013,9.1,2.4,9.714,1.585,9.51A1.764,1.764,0,0,1,.361,8.9q-.611-.308-.611,0c-.2.2,0,.408.408.611" transform="translate(0.33 19.947)" fill="#42454a"/>
            </g>
            <g id="Group_1187" data-name="Group 1187" transform="translate(59.589 237.199)">
              <path id="Path_1103" data-name="Path 1103" d="M10.049,8.233c1.224-.611,2.039-.611,2.652.2.2.408.408.613.611,1.02s.409.611.613.408.2-.408,0-.815a28.4,28.4,0,0,0-2.245-3.877A40.206,40.206,0,0,0,9.642,1.3c-.2-.408-.409-.611-.613-.611-.2.2-.2.408,0,.815a6.748,6.748,0,0,0,.613,1.224c.408,1.224,0,1.836-1.224,2.448C7.4,5.784,6.377,6.4,1.277,9.049l-4.284,2.243c-3.469,1.836-6.529,3.469-9.385,2.448a7.748,7.748,0,0,1-4.284-3.673,7.359,7.359,0,0,1-.815-4.9c.408-2.448,2.039-4.488,6.936-7.14l4.692-2.448c5.1-2.652,6.12-3.264,7.344-3.877S3.52-8.9,4.133-8.087c.2.408.408.611.611,1.019s.409.409.613.409.2-.409,0-.817C4.745-8.7,3.52-10.739,3.113-11.556,2.5-12.575,1.481-14.82.664-16.655q-.306-.614-.611-.613c-.2.2-.2.409,0,.817a4.322,4.322,0,0,1,.611,1.428c.409,1.224,0,1.836-1.223,2.448C-1.579-11.963-2.6-11.352-7.7-8.7l-5.712,2.448c-4.9,2.652-6.733,5.3-7.344,7.752-1.02,3.673.611,6.936,1.632,8.772A11.272,11.272,0,0,0-13,15.984c3.877,1.633,8.161-.2,12.036-2.243l3.673-1.836c5.1-2.652,6.12-3.265,7.344-3.673" transform="translate(21.078 17.268)" fill="#42454a"/>
            </g>
            <g id="Group_1188" data-name="Group 1188" transform="translate(297.628 101.741)">
              <path id="Path_1104" data-name="Path 1104" d="M.51,5.467a4.466,4.466,0,0,1-.817-1.02c-.2-.408-.408-.408-.611-.408-.2.2-.2.408,0,.817C-.1,6.078,1.122,8.119,1.531,8.73c.2.409,1.632,3.06,2.856,4.9.2.408.408.611.815.408q.306,0,0-.611L4.387,11.79c-.409-1.019.2-1.632,1.019-2.447a70.452,70.452,0,0,1,6.936-4.488l.409-.205c.2-.2.408,0,.408.205l1.632,2.856c.2.2.2.408.2.815-.2.817-1.632,3.673-2.652,5.916-1.428,3.469-2.243,5.508-2.039,7.344,0,1.224.408,2.041,1.428,3.877l1.836,3.06c.2.408.408.613.613.408.611,0,.611-.2.408-.408s-.2-.611-.408-1.02c-.205-.611-.817-2.039,0-5.1.815-3.264,2.447-7.14,4.284-12.445,4.692,1.632,7.548,1.428,9.995,0a7.4,7.4,0,0,0,3.265-4.9c.2-2.448-1.02-4.9-2.245-6.936-.611-1.02-2.243-3.467-2.856-4.692-.408-.613-1.632-2.856-2.652-4.488-.2-.409-.408-.613-.815-.613-.2.2-.2.408,0,.817a4.309,4.309,0,0,1,.611,1.428c.409,1.224,0,1.836-1.02,2.652-1.019.611-2.039,1.223-6.935,4.284L10.1,1.183c-3.06,1.836-5.712,3.467-7.14,4.08-1.02.408-1.837.611-2.448.2m15.1-2.448,10-6.12a.382.382,0,0,1,.611,0c.2.2.611.817,1.224,1.632C28.663.571,29.071,4.446,24.379,7.3c-2.448,1.632-4.693,1.632-5.916,1.02a3.854,3.854,0,0,1-2.041-2.039A15.451,15.451,0,0,1,15.2,3.631c0-.2,0-.409.409-.613" transform="translate(1.071 11.466)" fill="#42454a"/>
            </g>
            <g id="Group_1189" data-name="Group 1189" transform="translate(275.664 73.713)">
              <path id="Path_1105" data-name="Path 1105" d="M.554,6.941c-.2-.2-.611-.408-1.02-.817s-.611-.408-.611-.2c-.2.2,0,.409.2.817.611.611,1.428,1.224,2.039,1.836A8.868,8.868,0,0,0,2.8,10c.815.817,1.632,1.632,2.856,2.856s2.651,2.652,4.692,4.692c1.02,1.02,1.428,1.224,2.243.613a20.461,20.461,0,0,0,3.265-2.856c.2-.2.408-.408.2-.613s-.408-.2-.613.205c-1.224,1.019-2.243,1.223-3.264.815a10.228,10.228,0,0,1-2.856-2.039C6.47,11.022,6.47,10.205,8.1,8.166c.817-.817,3.265-3.469,4.08-4.284l2.039-2.245c.205-.2.205-.2.409-.2.611.613,3.467,3.264,3.875,3.877a2.06,2.06,0,0,1,.613,2.652A4.447,4.447,0,0,1,18.3,8.981c-.2.205-.2.409,0,.409.2.2.613,0,.817-.2s1.224-1.224,1.836-1.837C22.382,5.921,23,5.717,23,5.513c.2-.2.2-.2,0-.408s-.409,0-.817,0a3.311,3.311,0,0,1-1.836-.817C19.73,3.678,16.466.822,15.855.209c-.2-.2,0-.2,0-.408l6.731-7.14c.2-.2.409-.2.409,0,.611.611,3.467,3.264,3.875,3.877,1.224,1.428,1.224,2.039,1.02,2.856A6.336,6.336,0,0,1,27.074.618a.749.749,0,0,0-.2.611c.2.2.409,0,.613,0A14.844,14.844,0,0,0,29.319-.4c1.224-1.224,1.836-1.428,1.836-1.632.2-.2.2-.2,0-.409a.749.749,0,0,0-.611-.2,13.957,13.957,0,0,0-1.428-1.019C28.5-4.075,23-9.378,21.975-10.2l-1.632-1.632L18.1-14.072c-.408-.408-.611-.611-.815-.408s0,.408.2.611l1.019,1.02c.817,1.02.613,1.632-.2,2.652A76.66,76.66,0,0,1,12.8-4.075L8.511.209C6.062,2.861,4.022,5.106,2.8,6.125c-.817.613-1.633,1.224-2.245.817" transform="translate(1.162 14.559)" fill="#42454a"/>
            </g>
            <g id="Group_1190" data-name="Group 1190" transform="translate(184.763 37.888)">
              <path id="Path_1106" data-name="Path 1106" d="M.2.461H1.625c1.224.2,1.632.817,1.632,2.245,0,1.223.2,2.243.2,8.159L3.053,17.19c0,3.467.2,6.527,0,8.159-.2,1.224-.408,2.041-1.02,2.041-.408,0-.815.2-1.428.2-.408,0-.611.2-.611.408s.2.408.817.408c.815,0,1.836-.2,2.651-.2H16.517c1.428,0,1.837,0,2.041-1.019a30.487,30.487,0,0,0,.408-4.284c0-.409,0-.613-.408-.613-.2,0-.408.2-.408.613-.205,1.632-.613,2.447-1.633,2.856a22.978,22.978,0,0,1-3.671.611c-3.877,0-4.488-.408-4.692-3.06,0-1.02,0-4.692-.2-5.916v-3.06c0-.2,0-.409.2-.409h5.508c1.427.205,2.039.613,2.243,1.428a3.478,3.478,0,0,1,.2,1.428c0,.205,0,.409.408.409s.409-.409.409-.817a14.656,14.656,0,0,1,.2-2.652c.2-2.039.2-2.652.2-2.856a.2.2,0,0,0-.2-.2c-.2,0-.408.2-.613.408a2.487,2.487,0,0,1-1.836.613c-.815,0-5.3.2-6.12.2-.2,0-.2-.2-.2-.408l-.2-9.792c0-.2,0-.408.2-.408h5.508c1.836.2,2.243.611,2.651,1.428a3.449,3.449,0,0,1,.205,1.428c0,.408,0,.611.408.611a.438.438,0,0,0,.408-.408c0-.409.2-2.245.2-2.448a11.245,11.245,0,0,1,.2-2.448c0-.2,0-.408-.2-.408s-.408.2-.611.2-1.02.2-1.632.2c-.817,0-8.364.2-9.589.2H.4c-.611,0-.815,0-.815.409,0,.2.2.408.611.408" transform="translate(0.414 0.967)" fill="#42454a"/>
            </g>
            <g id="Group_1191" data-name="Group 1191" transform="translate(217.282 41.52)">
              <path id="Path_1107" data-name="Path 1107" d="M.171,8.575a15.98,15.98,0,0,0,5.3,2.245,11.183,11.183,0,0,0,6.324-.205A7.813,7.813,0,0,0,16.7,4.9c.815-3.671-.205-6.527-4.08-10.811L11.8-6.929c-2.652-3.06-3.264-4.488-2.856-6.324.408-2.245,2.448-3.469,5.3-2.856a4.99,4.99,0,0,1,3.671,2.652,3.463,3.463,0,0,1,.409,2.652c0,.408,0,.611.2.815.2,0,.408-.2.611-1.02.613-2.856,1.02-4.079,1.02-4.488,0-.2-.2-.408-.408-.611a19,19,0,0,0-4.9-1.632c-5.3-1.02-9.383,1.224-10.2,5.3-.611,3.061.2,5.916,3.673,10.2L9.76-.6c2.652,3.06,2.856,4.9,2.447,6.731C11.8,8.168,9.554,10,6.291,9.392A5.242,5.242,0,0,1,1.8,4.495V2.455c0-.2,0-.613-.2-.613s-.408.409-.611.817c-.205.611-.817,2.856-1.224,4.9-.2.409-.2.817.408,1.02" transform="translate(0.359 17.986)" fill="#42454a"/>
            </g>
            <g id="Group_1192" data-name="Group 1192" transform="translate(45.223 139.277)">
              <path id="Path_1108" data-name="Path 1108" d="M8.628,11.921a7.233,7.233,0,0,1-.2,1.224q-.306.611,0,.611a.54.54,0,0,0,.611-.611,35.08,35.08,0,0,1,.817-3.673c.2-.611.815-2.243,1.224-3.875.2-.613.2-1.02-.2-1.02-.205-.2-.409.2-.409.408-.2.2-.2.817-.611,1.428a1.16,1.16,0,0,1-1.428.817,14.054,14.054,0,0,0-1.632-.613L-7.488.7V.5C-4.224-.115,1.08-.931,1.9-1.135c1.224-.2,7.549-1.632,9.589-2.041,1.224-.408,2.245-.408,2.245-.815.2-.2-.205-.408-1.633-1.836L-2.592-18.475v-.2L14.34-16.436c1.224.2,1.632.409,1.632.613s0,.408.2.408.409-.2.613-1.02a75.143,75.143,0,0,0,2.243-7.548c0-.408,0-1.02-.2-1.02s-.408.2-.408.613a9.716,9.716,0,0,1-1.02,2.243c-.611,1.02-1.836,1.02-4.284.817l-23.868-2.856c-.817,0-1.428,0-1.428.408-.205.2,0,.613.611,1.02L7-7.051-16.669-2.563c-1.019.2-1.428.408-1.428.611s.205.613.817.817L6.18,9.676c1.224.409,2.448,1.224,2.448,2.245" transform="translate(18.097 25.004)" fill="#42454a"/>
            </g>
            <g id="Group_1193" data-name="Group 1193" transform="translate(83.292 71.929)">
              <path id="Path_1109" data-name="Path 1109" d="M.223,5.014c.408-.408,1.02-.817,1.224-1.02A1.784,1.784,0,0,1,4.1,4.607c.815.815,1.632,1.632,5.508,5.916l4.488,5.1a70.459,70.459,0,0,1,5.3,6.121c.613,1.019,1.02,1.632.613,2.243a4.57,4.57,0,0,1-1.02,1.02c-.408.2-.408.408-.2.611s.408,0,.817-.2a15.7,15.7,0,0,0,1.836-1.836,8.926,8.926,0,0,1,1.632-1.428c.611-.611,1.836-1.428,2.856-2.448A23.334,23.334,0,0,0,29.4,16.846c5.3-4.692,6.529-9.383,6.529-12.036A15.087,15.087,0,0,0,31.844-6a12.318,12.318,0,0,0-8.772-4.488C16.952-10.9,12.259-6.614,8.588-3.35,6.956-1.718,5.119-.086,4.3.73S1.651,2.975.02,4.4c-.408.408-.613.611-.408.815s.408,0,.611-.2M7.975.323A6.625,6.625,0,0,1,9.608-1.514C11.851-3.554,15.32-6.206,20.216-6c2.243,0,5.916,1.02,9.18,4.693,2.652,2.856,4.488,5.916,4.08,9.18-.408,3.06-1.836,5.3-4.692,7.957-2.245,2.039-3.877,2.447-4.692,2.243a8.877,8.877,0,0,1-2.245-1.836c-.611-.613-2.448-2.652-5.3-5.712L13.28,6.85C11.24,4.607,9,2.158,8.18,1.138,7.975.73,7.771.526,7.975.323" transform="translate(0.469 10.517)" fill="#42454a"/>
            </g>
            <g id="Group_1194" data-name="Group 1194" transform="translate(64.266 104.928)">
              <path id="Path_1110" data-name="Path 1110" d="M.241,3.055a4.42,4.42,0,0,1,.817-1.02q.917-.917,2.447,0c1.02.613,2.041,1.224,6.936,4.284l5.916,3.877a75.233,75.233,0,0,1,6.936,4.692c.817.613,1.224,1.224,1.02,2.041-.2.408-.2.815-.613,1.224q-.306.611,0,.611c.2.2.409,0,.817-.408.815-1.224,2.039-3.469,2.448-4.08.611-.817,1.836-2.856,3.264-5.1.2-.408.2-.611,0-.815s-.408,0-.613.408A8.512,8.512,0,0,1,28.394,10.4c-.817.817-1.428.817-2.448.2-1.428-.815-4.08-2.447-7.14-4.284L13.093,2.443C8.2-.618,7.177-1.23,6.157-2.046S4.729-3.474,5.136-4.493c.205-.409.205-.613.409-1.02s.2-.611,0-.817-.409,0-.613.613C4.117-4.493,3.1-2.454,2.486-1.637,1.873-.618.445,1.219-.167,2.443c-.409.611-.409.815-.2,1.019s.408,0,.611-.408" transform="translate(0.505 6.407)" fill="#42454a"/>
            </g>
            <g id="Group_1195" data-name="Group 1195" transform="translate(30.282 24.375)">
              <path id="Path_1111" data-name="Path 1111" d="M53.891,0C-38.151,0-113.034,74.881-113.034,166.924S-38.151,333.849,53.891,333.849s166.925-74.884,166.925-166.925S145.934,0,53.891,0m0,328.445c-89.064,0-161.522-72.458-161.522-161.522S-35.173,5.4,53.891,5.4,215.413,77.86,215.413,166.924,142.955,328.445,53.891,328.445" transform="translate(113.034)" fill="#42454a"/>
            </g>
            <g id="Group_1196" data-name="Group 1196" transform="translate(208.631 111.125)">
              <path id="Path_1112" data-name="Path 1112" d="M.658,3.03c1.02,0,1.836-1.632,1.836-4.488,0-2.245-.611-4.9-2.039-4.9-1.224,0-1.836,1.633-1.836,4.489,0,2.243.408,4.9,2.039,4.9" transform="translate(1.381 6.355)" fill="#42454a"/>
            </g>
            <g id="Group_1197" data-name="Group 1197" transform="translate(199.859 111.126)">
              <path id="Path_1113" data-name="Path 1113" d="M0,1.449c0,2.245.408,4.9,2.039,4.9,1.02,0,1.837-1.632,1.837-4.488,0-2.243-.613-4.9-2.041-4.9C.611-3.039,0-1.407,0,1.449" transform="translate(0 3.039)" fill="#42454a"/>
            </g>
            <g id="Group_1198" data-name="Group 1198" transform="translate(188.435 110.514)">
              <path id="Path_1114" data-name="Path 1114" d="M.922,1.91A2.849,2.849,0,0,0,2.758,1.3V.889a.2.2,0,0,0-.2.2,4.121,4.121,0,0,1-1.02.205C1.126,1.3-.3.889-.3-1.354c0-1.224.613-2.041,1.632-2.041S3.371-2.374,3.371.074A7.448,7.448,0,0,1-.1,6.4l-.2.2a.2.2,0,0,0,.2.2h.2c1.633-.815,5.1-3.264,5.1-7.14C5-2.374,3.778-4.006,1.533-4.006A3.274,3.274,0,0,0-1.934-.742,2.621,2.621,0,0,0,.922,1.91" transform="translate(1.934 4.006)" fill="#42454a"/>
            </g>
            <g id="Group_1199" data-name="Group 1199" transform="translate(182.111 110.31)">
              <path id="Path_1115" data-name="Path 1115" d="M.527.658c.2,0,.2,0,.2.408V8.41c0,.409,0,.409-.408.613H-.7v.2c0,.2,0,.2.2.2h4.08c.2,0,.2,0,.2-.2v-.2H2.975a1.061,1.061,0,0,1-.409-.817V-1.177a.2.2,0,0,0-.2-.2.712.712,0,0,0-.408.2C1.547-.973-.9.862-.9.862a.2.2,0,0,0-.2.2v.2h.2C-.7,1.27.323.658.527.658" transform="translate(1.105 1.381)" fill="#42454a"/>
            </g>
            <g id="Group_1200" data-name="Group 1200" transform="translate(190.678 203.335)">
              <path id="Path_1116" data-name="Path 1116" d="M1.778,0C-1.485,1.836-3.73,6.324-3.73,10.2A12.277,12.277,0,0,1,.35,8.772c1.836-.2,4.9.2,6.324,1.428C6.47,5.916,4.838,1.428,1.778,0M-2.1,7.957V7.548c.2-1.428,1.02-4.692,3.673-5.712l.2,5.1A15.038,15.038,0,0,0-2.1,7.957" transform="translate(3.73)" fill="#42454a"/>
            </g>
            <g id="Group_1201" data-name="Group 1201" transform="translate(113.361 240.463)">
              <path id="Path_1117" data-name="Path 1117" d="M30.56,3.03c-2.652,1.836-5.916,4.284-5.916,4.284v5.712a69,69,0,0,1,6.12,5.916c2.041,2.448,1.632,6.733.2,8.364-1.428,1.428-6.12,2.448-6.324,4.692,0,2.856,4.9,3.877,4.9,7.14,0,3.06-3.06,5.3-4.08,6.529s-1.019,3.06-1.019,4.692c0,2.041-1.632,4.08-5.1,2.856-2.245-.613-3.467-1.836-3.264-4.488a6.429,6.429,0,0,1-5.508-3.06,5.607,5.607,0,0,1,3.673-2.652c2.856-.613,1.428-3.469.611-4.284C12.4,36.078,9.343,35.671,8.732,32c-.817-5.3,6.12-6.527,6.12-6.527V20.778c0-.815-1.632-2.039-4.284-4.284-3.877-3.06-6.12-5.507-5.508-9.791.408-3.469,7.753-7.14,7.753-7.14V-6.355L-64.1,18.127s30.6,38.352,83.845,38.555c52.43,0,84.05-38.555,84.05-38.555S37.7-2.682,33.212-4.11A6.774,6.774,0,0,1,30.56,3.03" transform="translate(64.098 6.355)" fill="#42454a"/>
            </g>
            <g id="Group_1202" data-name="Group 1202" transform="translate(188.842 220.471)">
              <path id="Path_1118" data-name="Path 1118" d="M0,.264a3.133,3.133,0,0,0,3.264,0c-.408-.2-.611-.817-1.428-.817S.611.06,0,.264" transform="translate(0 0.553)" fill="#42454a"/>
            </g>
            <g id="Group_1203" data-name="Group 1203" transform="translate(52.16 202.927)">
              <path id="Path_1119" data-name="Path 1119" d="M3.293,0C.437.408-5.479,3.877-6.907,7.548c2.652,3.265,8.976,4.9,12.036,4.693C2.885,6.936,2.682,5.1,3.293,0M-5.275,7.344l7.344-1.02A12.769,12.769,0,0,0,3.5,11.017H3.089c-3.06,0-7.14-1.837-8.364-3.673" transform="translate(6.907)" fill="#42454a"/>
            </g>
            <g id="Group_1204" data-name="Group 1204" transform="translate(330.217 202.519)">
              <path id="Path_1120" data-name="Path 1120" d="M.725,0c.408,5.1,0,6.936-2.245,12.241,3.265.611,9.385-1.02,12.241-4.284C9.5,4.08,3.581.611.725,0m0,11.017H.317A12.893,12.893,0,0,0,1.949,6.529l7.14,1.223C7.865,9.792,3.173,11.424.725,11.017" transform="translate(1.52)" fill="#42454a"/>
            </g>
            <g id="Group_1205" data-name="Group 1205" transform="translate(80.187 74.074)">
              <path id="Path_1121" data-name="Path 1121" d="M37.78,0A117.021,117.021,0,1,0,154.8,117.021,117.152,117.152,0,0,0,37.78,0M92.4,65.979,121.39,39.173c.806.865,1.595,1.747,2.373,2.636L96.181,65.648l.291.337,27.583-23.839c.784.9,1.568,1.8,2.324,2.732L100.473,65.642l.279.347,25.9-20.762c.78.964,1.551,1.936,2.3,2.925L102.314,68.085l.266.357L129.23,48.5c.721.958,1.4,1.945,2.094,2.925L105.993,69.1l.255.365L131.581,51.79q.992,1.422,1.94,2.877L108.447,70.728l.239.375,25.076-16.063c.642.991,1.291,1.979,1.9,2.99L107.027,75.213l.227.381,28.632-17.179c.607,1.012,1.19,2.036,1.766,3.067L109.48,77.046l.216.388,28.178-15.567c.6,1.081,1.165,2.181,1.728,3.284L110.305,79.9l.2.4,29.3-14.748c.532,1.05,1.053,2.1,1.554,3.172L110.107,83.157l.188.4,31.247-14.437c.507,1.093,1.019,2.181,1.492,3.292L117.459,83.154l.171.411L143.2,72.827c.471,1.118.9,2.255,1.339,3.391L115.628,87.231l.159.416,28.92-11.015c.408,1.074.789,2.159,1.164,3.247l-28.194,9.595.143.419L146.013,80.3c.384,1.128.768,2.257,1.118,3.4L124.21,90.694l.131.427,22.912-6.99c.356,1.183.7,2.373,1.016,3.572l-22.826,6.049.115.431,22.834-6.05c.3,1.133.551,2.283.812,3.431l-29.874,6.879.1.434L149.305,92c.267,1.192.52,2.388.749,3.594l-34.388,6.521.084.437,34.382-6.521c.213,1.137.434,2.271.613,3.419l-39.558,6.132.068.44,39.555-6.13c.18,1.186.315,2.385.458,3.583l-35.993,4.351.053.442,36-4.351c.136,1.195.248,2.4.347,3.6l-31.7,2.757.04.442,31.691-2.756c.095,1.2.2,2.4.254,3.6L128.484,112.8a2.712,2.712,0,0,0-.642-1.961c-.368-.548-1.512-.173-3.408.452-.5.162-1.04.343-1.62.521a6.02,6.02,0,0,0-3.462,3.017,12.564,12.564,0,0,1-1.078,1.506,5.1,5.1,0,0,1-1.028,1.02,1.1,1.1,0,0,1,0-.185c0-.05,0-.1,0-.148a.505.505,0,0,1,.1-.244c.229-.365.346-.73-.555-1.478a2.939,2.939,0,0,1-1.181-2.766.679.679,0,0,0-.216-.554c-.319-.258-.895-.142-1.623,0l-.152.031a1.1,1.1,0,0,1-1.224-.3,1.945,1.945,0,0,0,.357-1.852.8.8,0,0,0-.486-.65,3.464,3.464,0,0,0-2.547.571c-.371.247-.375.245-.529.162a2.075,2.075,0,0,0-.391-.176c-.687-.226-.734-.174-1.546.641-.114.112-.186.192-.239.25-.112.123-.112.123-.319.185-.177.055-.473.145-1.034.356-.478.18-.8.207-.951.077-.217-.195-.069-.765.049-1.223l.037-.146c.195-.789.25-1.3-.673-1.765-.851-.427-1.5.527-1.915,1.162l-.071.1a.986.986,0,0,0-.168.629,4.178,4.178,0,0,0-.66-1.246c-.92-1.229-.766-1.45-.462-1.89a3.127,3.127,0,0,0,.279-.459,2.747,2.747,0,0,0-.468-2.023c-.052-.1-.1-.2-.161-.315-.374-.549-1.515-.171-3.407.452-.5.164-1.038.344-1.62.521a5.951,5.951,0,0,0-3.465,3.016,12.146,12.146,0,0,1-1.078,1.508,5.021,5.021,0,0,1-1.028,1.02,1.265,1.265,0,0,1,0-.182c0-.05,0-.1,0-.151a.521.521,0,0,1,.1-.245c.227-.363.343-.727-.577-1.49a1.761,1.761,0,0,1-.583-.551c-.044-.059-.089-.117-.133-.167.489-.608.744-.907.861-1.04a.527.527,0,0,0,.453-.066,2.226,2.226,0,0,0,1.709-2.58.8.8,0,0,0-.486-.648,3.443,3.443,0,0,0-2.549.572c-.377.248-.374.245-.527.161a2.1,2.1,0,0,0-.393-.176c-.543-.179-.691-.05-1.1.284-.115.095-.255.21-.449.356-.165.165-.258.273-.32.346-.1.114-.1.114-.288.154-.072.016-.168.037-.3.068a1.3,1.3,0,0,0-.419-.222,4.073,4.073,0,0,1-.394-.168c-.177-.059-.391-.111-.505.021s-.032.362.095.625c-.242.056-.515.074-.635-.069-.165-.2-.058-.724.307-1.458.2-.79.25-1.3-.675-1.765-.855-.427-1.5.526-1.915,1.162l-.069.1a.914.914,0,0,0-.165.477,3.811,3.811,0,0,0-.461-.89c-.92-1.227-.766-1.449-.462-1.889a3.176,3.176,0,0,0,.279-.462,2.58,2.58,0,0,0-.629-2.132c-.372-.549-1.514-.173-3.407.452-.5.164-1.038.343-1.62.521a5.944,5.944,0,0,0-3.462,3.016c-.058.089-.118.177-.176.266V59.084c-.115-9.311-4.9-22.9-12.476-34.881L63.032,5.547c1.15.26,2.305.509,3.442.8L61.228,25.978l.431.115L66.9,6.474c1.137.3,2.262.629,3.385.963L63.27,30.049l.427.131L70.716,7.56c1.17.351,2.324.734,3.476,1.122L66.741,30.451l.422.143L74.615,8.825c1.128.385,2.255.775,3.367,1.195l-9.6,24.5.413.161,9.6-24.5c1.137.434,2.273.871,3.392,1.341L71.234,36.148l.411.174L82.2,11.687c1.087.459,2.15.963,3.218,1.455l-10.714,22.8.4.189,10.718-22.8q1.644.766,3.258,1.583L74.709,42.866l.394.2L89.478,15.11c1.023.521,2.05,1.035,3.054,1.586L77.977,42.859l.39.217L92.919,16.919c1.034.572,2.056,1.164,3.069,1.766L81.449,42.853l.382.229L96.375,18.907c1.06.636,2.1,1.3,3.137,1.971L85.126,42.845l.371.244L99.885,21.118c.972.631,1.936,1.271,2.887,1.932L88.8,42.838l.363.258,13.969-19.79c1.026.718,2.056,1.43,3.055,2.18L89.827,46.913l.354.269,16.358-21.421c.914.69,1.808,1.406,2.7,2.122L90.853,50.376l.343.281,18.392-22.5c.924.749,1.828,1.52,2.729,2.295L93.508,52l.335.292,18.808-21.55c.932.808,1.856,1.623,2.76,2.46L95.963,53.831l.322.3,19.448-20.625c.833.777,1.666,1.557,2.475,2.358L99.027,55.05l.315.316,19.188-19.189c.873.871,1.71,1.775,2.553,2.674L92.1,65.653ZM43.936,147.72l-.006.033c-.713-.564-1.583-.973-1.868-1.967-.408-1.224,0-2.856-.611-4.284-1.02-2.448-4.08-2.652-5.3-2.652-2.039,0-2.447.2-5.1,1.837a3.662,3.662,0,0,1-.817,1.836c-2.039,2.039-5.3,1.224-7.344,4.488a6.359,6.359,0,0,0-.7,1.614L8.227,151.251c-.115-1.463-.117-3.085-.117-4.037,0-.453-.038-1.209-.084-2.084-.052-1.032-.114-2.2-.118-3.091h.044a.541.541,0,0,0,.526-.3,2.014,2.014,0,0,0-.126-1.43,2.965,2.965,0,0,0,.61.273.308.308,0,0,0,.326.043c.171-.109.134-.411.061-.893a2.435,2.435,0,0,1-.052-.592,6.334,6.334,0,0,0,1.441-1.041c.323-.43.6-.852.833-1.226.665-1.038,1.144-1.787,2.134-1.787a4.572,4.572,0,0,1,1.833.391,2.25,2.25,0,0,0,.836.217h.013c.149-.037.276-.059.387-.08.242-.044.419-.078.518-.222.109-.162.084-.413-.01-.874a3.561,3.561,0,0,0-.154-.326.571.571,0,0,0,.1-.1,2.363,2.363,0,0,0,.313-.393c.015-.021.03-.044.044-.066a2.961,2.961,0,0,1,.08.319,3.1,3.1,0,0,1-.158.868c-.075.261-.121.418,0,.5s.3,0,.955-.461c.171-.123.3-.168.381-.128.205.106.2.8.2,1.31,0,.725.006,1.176.251,1.316a.357.357,0,0,0,.377-.038,1.321,1.321,0,0,0,.755-1.288c.024-.368.034-.538.394-.539.092.018.149.034.188.044a.186.186,0,0,0-.016.16c.052.136.233.285,1.87.613l.292.059c1.735.347,2.259.452,2.493.224.159-.157.114-.415.043-.809l-.04-.23a3.152,3.152,0,0,0-.366-.809c-.035-.061-.075-.13-.1-.183a2.29,2.29,0,0,1,.291.1,2.584,2.584,0,0,0,1.533.579.41.41,0,0,0,.267-.216,6.326,6.326,0,0,1,.545-.9,1.374,1.374,0,0,0,.644.055,1.267,1.267,0,0,0,.834-.56,2.167,2.167,0,0,0,.319-2c-.062-.3-.114-.566-.012-.662s.445-.092,1,.046c.075.025.31.1.439-.046.189-.226-.077-.74-.521-1.558a4.5,4.5,0,0,1-.48-1.044l.021-.006a3.361,3.361,0,0,1,1.341.356c.893.334,1.452.521,1.7.307a.386.386,0,0,0,.09-.408,1.332,1.332,0,0,1,.025-1.341,3,3,0,0,0,.177-.4,1.891,1.891,0,0,1,.422-.455,3.142,3.142,0,0,0,.793-.96.316.316,0,0,0,.062-.307c-.068-.134-.25-.139-.524-.146a2.2,2.2,0,0,1-1.791-.707c-.306-.359-.3-.489-.285-.529.046-.111.393-.139.7-.162.549-.043,1.233-.1,1.432-.6.239-.4.975-1.747.433-2.5-.375-.517-1.242-.626-2.592-.326a7.784,7.784,0,0,0-1.305.315,2.54,2.54,0,0,0,.013-.628c-.229-1.369.064-1.806.279-2.125a.855.855,0,0,0,.12-.958c-.741-1.862-1.508-2.943-2.279-3.213a1.1,1.1,0,0,0-.947.1,11.3,11.3,0,0,0-.953.62,2.043,2.043,0,0,1-.589.349.037.037,0,0,1-.022,0c-.028-.015-.1-.109-.1-.66a4.175,4.175,0,0,0-1.054-2.735.637.637,0,0,0-.281-.133c-.3-.09-.7-.214-.7-1.212,0-1.193-.264-2.07-.707-2.345a.675.675,0,0,0-.672-.01c-.264.055-.4.117-.455.208a.258.258,0,0,0-.013.222c.013.047.016.062.006.078-.03.052-.167.161-.737.3a4.742,4.742,0,0,0-1.409.421,1.766,1.766,0,0,1-.325.127h0c-.024-.031-.038-.164.028-.62.037-.261.062-.468.08-.632.058-.508.059-.518.349-.5.077,0,.167,0,.245,0a2.072,2.072,0,0,0,1.784-.173.788.788,0,0,0,.193-.778,1.758,1.758,0,0,0-.641-1.226,1.14,1.14,0,0,0-.923-.09,2.232,2.232,0,0,1-.953-.05c-.483-.1-.945-.2-1.353.49-.223.223-.368.4-.486.541-.307.369-.372.446-1.063.446a1.71,1.71,0,0,0-.929.289c-.013.009-.03.019-.046.028,0-.136.043-.4.069-.6s.044-.362.061-.5c.024-.207.041-.366.059-.44l.012,0a1.021,1.021,0,0,0,.6.012.855.855,0,0,0,.688-.851c-.015-.2-.164-.859-1.521-1.01a5.681,5.681,0,0,0-2.237.162,1.01,1.01,0,0,1-.56.061,1.6,1.6,0,0,1-.239-.679c-.065-.313-.117-.561-.3-.6-.159-.032-.313.124-.437.289a1.721,1.721,0,0,1-1.75.569c-.055-.03-.216-.121-.092-.442.442-.594.641-.93.511-1.128-.115-.167-.39-.128-.636-.063a1.884,1.884,0,0,0-.889.419.9.9,0,0,1-.926.191,3.687,3.687,0,0,1-1.209-.307c-.439-.167-.786-.3-1-.151a.416.416,0,0,0-.154.369,1.716,1.716,0,0,0,.517.972c.445.545.828,1.015.137,1.592-.9.749-.783,1.112-.557,1.477a.521.521,0,0,1,.106.244c0,.049,0,.1,0,.151a1.51,1.51,0,0,1,0,.182,2.5,2.5,0,0,1-.5-.447V63.776C12.89,68.264,14.726,75.4,17.378,80.5L15.746,82.34c1.428.2,2.245-.408,2.856,0-2.039,3.264-4.08,4.692-5.1,7.548a21.416,21.416,0,0,1,6.12-.2c-2.448,1.02-6.12.611-7.753,3.467,2.448.817,5.3,2.448,6.733,2.448s4.9-1.632,7.344-2.448C22.683,88.46,23.5,83.361,20.438,80.1c1.633-3.264,3.265-5.1,4.9-8.364a125.472,125.472,0,0,1,10.4,12.852l-2.245,2.448a14.139,14.139,0,0,1,5.1-.2c-6.324-.408-5.916,6.12-7.752,9.792,3.06-.408,5.1-1.02,6.324-1.02,1.428,0,1.02.408,1.428.817-1.836,1.019-4.692,1.019-6.733,1.428a3.889,3.889,0,0,0-3.264,3.264c2.652,1.836,8.976,4.08,9.18,4.08,1.428,0,6.936-2.245,9.181-4.08a20.608,20.608,0,0,0-1.428-3.06C43.083,92.54,40.023,85.4,40.023,84.176c0-1.836,8.976-10.2,10.4-11.22,1.428,3.265,3.265,5.1,4.9,7.753l-1.632,1.836c1.428.2,2.447-.408,3.264,0-3.877,3.06-4.488,4.284-5.508,7.957,1.428-.409,2.448-1.02,3.877-1.02s1.224,0,1.632.2c-2.448,1.224-5.1.817-6.733,4.08,1.836.815,4.692,2.448,6.12,2.448s4.9-1.633,7.345-2.448C62.055,89.073,58.18,81.32,58.18,79.892S64.3,70.508,67.767,65v36.955a3.621,3.621,0,0,1-.291-1.661.68.68,0,0,0-.216-.555c-.319-.258-.9-.143-1.623,0l-.136.027a.521.521,0,0,0-.4.272c-.124.273.084.636.235.9.012.019.024.041.037.064L65.348,101a3.855,3.855,0,0,1-.858-.4c-.374-.21-.592-.337-.74-.211-.115.1-.071.3.034.558a3.66,3.66,0,0,1,.112,1.8,2,2,0,0,0-.762-.722,2.5,2.5,0,0,1-.328-.221.256.256,0,0,0,.155-.18c.018-.111-.047-.232-.2-.384a1.008,1.008,0,0,0-.775-.391,3.215,3.215,0,0,0-1.963.7.365.365,0,0,0-.084-.149c-.189-.214-.642-.286-1.365-.21-.848.095-1.012.4-1,.647.028.487.852,1.009,1.385,1.009h.006c.391.1.378.19.325.636a4.567,4.567,0,0,0,0,1.307c.028.192.066.458.071.594-.016-.009-.032-.019-.046-.028a1.715,1.715,0,0,0-.929-.289c-.793,0-.793,0-1.208-.545-.089-.118-.2-.261-.323-.418-.168-.282-.306-.408-.459-.425-.171-.027-.3.106-.433.244a.813.813,0,0,1-.814.332,1.158,1.158,0,0,0-.929.087,1.765,1.765,0,0,0-.639,1.227c-.066.325-.038.526.09.634.186.159.5.046.9-.1a5.7,5.7,0,0,1,.574-.192,2.091,2.091,0,0,1,.312-.062,1.012,1.012,0,0,1,0,.151,3.748,3.748,0,0,0,.158,1.243,3.985,3.985,0,0,1,.062.61,1.985,1.985,0,0,1-.216-.09,4.6,4.6,0,0,0-1.54-.445c-.583-.146-.721-.254-.75-.307-.01-.016-.009-.03.006-.078a.256.256,0,0,0-.015-.22c-.058-.093-.189-.154-.453-.21a.664.664,0,0,0-.672.01c-.445.275-.707,1.152-.707,2.345,0,1-.408,1.122-.7,1.212a.737.737,0,0,0-.26.114,3.78,3.78,0,0,0-1.075,2.754.5.5,0,0,1-.038.255h0c-.089,0-.357-.272-.52-.434-.35-.353-.679-.7-.972-.594-.164.055-.261.236-.3.552-.384,2.553-1.376,2.618-2.252,2.676-.495.033-.958.062-1.208.561a.839.839,0,0,0,.152.979,2.644,2.644,0,0,1,.452,2.113,2.57,2.57,0,0,0,.539,1.908c-.275-.084-.728-.216-1.418-.378-1.409-.312-2.344-.159-2.785.458a2.574,2.574,0,0,0,.2,2.555c.286.719.264.759-.117,1.435-.128.229-.291.515-.492.917-.276.555-.329.907-.161,1.108.245.294.827.127,1.39-.035.117-.034.23-.065.331-.092l.037-.016a5.086,5.086,0,0,0,.446-.341c.185-.154.384-.331.49-.3.037.01.08.075.114.176a1.506,1.506,0,0,0,.3.5c.207.25.354.431.1,1.072a3.676,3.676,0,0,1-.315.837c-.177.371-.315.662-.173.888.109.171.356.25.8.25.992,0,1.472.752,2.137,1.791.238.371.508.793.827,1.22a.949.949,0,0,0,.718.492h.006c.418,0,.758-.453,1.115-.93a2.8,2.8,0,0,1,.955-.95c1.119-.447,1.5-1.156,1.7-3.154.018-.168.052-.459.084-.7a.209.209,0,0,0,.006.03c.024.14.053.3.09.478.047.241.071.523.1.793.055.639.1,1.19.428,1.329.183.077.4.007.681-.217a4.49,4.49,0,0,0,1.113-1.7c.217-.476.421-.926.648-.926a2.016,2.016,0,0,1,.89.672,3.057,3.057,0,0,1,.83,2.258,3.421,3.421,0,0,1-.081.473c-.056-.117-.128-.322-.189-.495a7.07,7.07,0,0,0-.535-1.248c-.188-.313-.334-.449-.493-.453H54.92c-.188,0-.31.182-.453.39a1.78,1.78,0,0,1-.642.642c-.549.414-.589.489-.589.774a1.952,1.952,0,0,1-.066.521c-.066.343-.515.331-1.229.276-.765-.058-1.707-.13-1.833.75a3.155,3.155,0,0,0,.027,1.1.848.848,0,0,1,.024.189,2.677,2.677,0,0,1-.752.043c-.623,0-.812,0-.886.14-.066.12.013.241.159.461a5.592,5.592,0,0,1,.623,1.2,2.07,2.07,0,0,1,.193.967v.282l.2-.2a3.708,3.708,0,0,1,1.174-.787.316.316,0,0,1,.056.276l-.038.22c-.069.394-.115.654.044.811.233.229.759.123,2.49-.226l.3-.061c1-.214,1.205-.377,1.2-.552,0-.13-.118-.217-.346-.291a1.2,1.2,0,0,1,.4.171c.121.064.281.146.49.251.3.183.45.255.567.183s.1-.222.066-.492a6.143,6.143,0,0,1,.154-2.416c.071-.289.127-.523.171-.706.03-.124.056-.235.077-.323a2.868,2.868,0,0,0,1,1.3c.845.6.876.688.948.87a2.51,2.51,0,0,0,.456.741c.164.2.375.431.582.351.279-.1.275-.642.248-1.518-.006-.186-.012-.371-.012-.539a2.372,2.372,0,0,1,.015-.318l.087.1a2.517,2.517,0,0,0,.518.5c.143.143.251.131.31.089.188-.115.124-.628.034-1.05l.288-.573-.061-.061c-.018-.018-.019-.027-.019-.027,0-.047.223-.182.549-.182a3.63,3.63,0,0,1,1.311.365.6.6,0,0,1-.186.474,3.9,3.9,0,0,1-.566.623,3.957,3.957,0,0,0-1.081,1.459c-.089.44-.114.694,0,.854s.275.177.52.223c.109.019.236.043.377.077a.23.23,0,0,0,.248-.031c.117-.108.062-.315-.019-.625-.087-.335-.207-.793-.035-1.015a.552.552,0,0,1,.456-.159c.992,0,1.472.752,2.137,1.791.238.372.508.793.828,1.223a1.26,1.26,0,0,0,.839.605.951.951,0,0,0,.682-.309l.524.523c-.2-.016-.425-.046-.654-.077a9.9,9.9,0,0,0-1.3-.114c-.639,0-.811,0-.879.142-.062.124.03.239.21.467a6.557,6.557,0,0,1,.768,1.192,2.076,2.076,0,0,1,.193.967v.282l.2-.2a3.722,3.722,0,0,1,1.178-.787c.13-.044.244-.089.343-.133a2.742,2.742,0,0,0-.288.605l-.058.22c-.089.322-.145.535-.015.682s.387.168,1.09.077c.006.916.066,2.261.118,3.457.046,1.007.086,1.877.086,2.324,0,.973-.1,3.16-.288,4.912Zm-2.893,9.49c.408,0,2.652-2.856,6.324-3.264a51.942,51.942,0,0,1-5.508,6.527c-.611-.408-4.488-3.264-4.488-4.284,0-.815.408-1.428.408-2.652a25.975,25.975,0,0,0,2.652-.815v4.284s-.2.2.613.2m-5.916-4.9c-.817,0-2.448-.409-3.877-.613l-.613.613c2.245,4.692,17.342,12.239,17.342,18.155,0,2.856-5.1,4.692-6.325,5.3a15.48,15.48,0,0,0-.408-5.712c-1.02-4.284-17.953-11.832-17.953-17.748,0-5.3,5.3-7.345,8.568-7.345,2.652,0,8.364,1.428,10.813,3.877-1.632,2.245-5.1,3.469-7.548,3.469m-8.773,28.561c0-2.041,4.489-4.284,6.325-5.3,0,1.836.2,4.692,1.428,6.527,4.08,5.712,12.649,10,12.649,13.873,0,2.652-3.673,4.08-5.712,4.9v-4.079c0-4.693-14.484-10.2-14.689-15.912m3.673,23.256c-.2-1.632,2.039-2.245,3.673-2.652,1.019,2.243,1.632,3.671,3.875,5.1,1.02.409,6.529,3.673,6.325,5.917,0,1.836-1.428,1.836-3.265,3.467a18.673,18.673,0,0,0-.2-3.264c-3.06-2.448-9.792-5.1-10.4-8.568m9.18,18.972s0,.408-.815.408-1.428-.611-1.836-1.632v-9.792c2.651,0,2.856,3.877,2.856,5.1a31.172,31.172,0,0,1-.205,5.916m.409-17.136a22.979,22.979,0,0,1-2.652-2.039v-9.589c1.224.611,2.652,2.039,2.652,3.06Zm.408-20.2c-1.02-.408-2.652-2.448-2.652-3.469V168.43a10.381,10.381,0,0,1,2.652,1.836Zm-2.652-41.617V141.5H38.8c.817,0,1.224.817,1.836,1.428v2.245c-1.223-.409-2.243-.613-3.264-1.02M-76.54,117.021c0-.533.033-1.059.04-1.589l20.557.36c-.433.39-.388.839-.232,1.461l.04.152c.115.455.26,1.023.046,1.217-.142.128-.471.1-.951-.077-.563-.213-.858-.3-1.035-.356-.207-.063-.207-.063-.319-.186-.052-.056-.126-.134-.251-.258-.182-.136-.32-.251-.436-.347-.411-.337-.569-.459-1.1-.284a2.059,2.059,0,0,0-.4.176c-.151.086-.155.084-.526-.161a3.476,3.476,0,0,0-2.552-.573.808.808,0,0,0-.484.65,2.206,2.206,0,0,0,.273,1.466l-12.628.149c-.01-.6-.05-1.2-.05-1.8m14.7,17.24a.323.323,0,0,0,.306.09c.357-.087.6-.786.966-1.926.17-.536.452-1.431.607-1.458,0,0,.046.018.112.171.538,1.431-.064,3.878-.186,4.339l-1.9.19-2.078-2.078Zm-.253,8.127,2.163-3.345a2.083,2.083,0,0,1,.481,1.235c0,.71,1.552,1.881,2.223,2.354-2.329.142-4.72.111-4.888-.2-.006-.012.016-.041.021-.047M-69.7,135.9a6.3,6.3,0,0,1,1.614-.185c.979,0,1.964.173,2.192.558.1.168.018.388-.242.651a6.2,6.2,0,0,1-1.63.793c-.793.3-1.48.558-1.65,1.04-.118.041-.224.09-.325.133-.167.072-.356.155-.411.115-.024-.015-.075-.078-.075-.362a6.382,6.382,0,0,0-.136-1.173c-.151-.818-.241-1.313.663-1.571m12.75,7.859c.056-.074.192-.1.478-.1.245,0,.25.028.273.183.053.332.183.685,1.1,1.028l.369.188.371.821a6.253,6.253,0,0,1-2.385-.718c-.219-.765-.323-1.243-.21-1.4m3.211-1.394a.513.513,0,0,1-.043.114c-.013-.077,0-.118.009-.126h0a.074.074,0,0,1,.032.013m1.388-17.455,2.621,2.295a18.153,18.153,0,0,1-3.98,2.141h-.03c.012-.059.093-.258.623-.828a4.46,4.46,0,0,0,.765-3.606m14.177,12.618-.028.024a1.251,1.251,0,0,0-.05,1.363s0,0,0,.006c-.205-.1-.6-.329-1.035-.585a4.236,4.236,0,0,1-.5-.3c-.092-.061-.185-.123-.291-.185a10.576,10.576,0,0,0,1.173-.52l.035-.019a4.3,4.3,0,0,1,1.576-.783,2.451,2.451,0,0,1-.886,1m-1.5,8.581c-.061-.682-.152-1.706-.157-2.927a5.044,5.044,0,0,1,.951-.555l3.134-1.37a1.746,1.746,0,0,1-.006.338,1.054,1.054,0,0,0,.189.855,1.825,1.825,0,0,0,1.286.387,7.3,7.3,0,0,1-2.069,1.328c-.074.034-.136.064-.195.1a15.7,15.7,0,0,0-2.234,2.521c-.157.2-.306.39-.446.563a1.7,1.7,0,0,1-.411.424,2.735,2.735,0,0,1-.006-.53c.006-.137.012-.285.012-.433s-.019-.371-.049-.7m2.993-4.929-.044.009c-.7.279-1.037.137-1.149.061a.239.239,0,0,1-.12-.157v-.281l-.4.4-.022.031a6.948,6.948,0,0,1-1.633,1.465l-.176-1.909c.846,0,1.37-.022,1.757-.037a5.989,5.989,0,0,1,2.127.226.583.583,0,0,1-.338.191m2.209-27.314c-.133.164-.161.2-.842.607a1.958,1.958,0,0,0-.769.735,3.157,3.157,0,0,1,.121-1.613l.009-.043a1.43,1.43,0,0,1,.338-.7c.024,0,.052.01.078.018a.419.419,0,0,0,.535-.192.538.538,0,0,0,.307.05,4.7,4.7,0,0,0,.512.808c-.149.155-.229.251-.289.325M-48.063,147c.416.372.7.626,1.025.626a.559.559,0,0,0,.069,0c.456-.053.9-.592,2.02-2.187a22.333,22.333,0,0,1,1.769-2.415c.253-.3.328-.393.281-.509s-.152-.117-.335-.137a4.138,4.138,0,0,1-1.353-.371,5.628,5.628,0,0,1-2.106-2.577c-.371-.7-.663-1.257-1.046-1.365a.532.532,0,0,0-.428.071c-.143.086-.317.2-.5.315a5.631,5.631,0,0,1-1.463.781c-.015-.035-.035-.273.892-1.537a22.027,22.027,0,0,0,1.431-2.1,3.725,3.725,0,0,1,.636-.886.515.515,0,0,0,.208.191,1.118,1.118,0,0,1,.171.121.951.951,0,0,0,.111.306.652.652,0,0,1,.09.254l.007.043a6.3,6.3,0,0,1,.233,2.456c-.028.859-.052,1.539.335,1.749.291.162.735.01,1.44-.478a7.292,7.292,0,0,1,1.2-.616c.041-.019.081-.037.121-.053a1.753,1.753,0,0,0-.279,1.342.664.664,0,0,0,.415.338,2.464,2.464,0,0,0,.207,1.164q.3,1.19.594,2.375a1.854,1.854,0,0,0-.632,1.264,8.2,8.2,0,0,1-.569,1.8,9.78,9.78,0,0,0-.631,4.227c0,.183.01.353.01.508,0,1.161-.013,1.72-.292,1.72a7.843,7.843,0,0,1-2.751-2.383,2.446,2.446,0,0,0-.238-.393c-.188-.26-.257-.357-.567-2.835-.043-.328-.084-.611-.13-.855l.058.05m4.142-23.107a1.251,1.251,0,0,1-1.025.707,1.248,1.248,0,0,1-1.022-.707,3.884,3.884,0,0,1-.349-.9,2.4,2.4,0,0,0-1.657-1.911l.738-.3a2.952,2.952,0,0,1,3.14.2c1.341.957.8,1.861.174,2.906m.824,25.384c.037-.146.086-.365.146-.629a24.061,24.061,0,0,1,1.153-4.018,6.6,6.6,0,0,1,.512,2.171l.012.052c.411.823.351.917-.033,1.527a11.228,11.228,0,0,0-.582,1.026,24.9,24.9,0,0,0-1.081,2.943,13.1,13.1,0,0,1-.128-3.072m2.02-4.639a3.185,3.185,0,0,0-.167-.487,1.711,1.711,0,0,1,.771-.628c-.021,1.088-.2,1.57-.31,1.617-.019.016-.083-.034-.1-.053a1.108,1.108,0,0,1-.192-.449m.4-1.771-.789.631v-.04l-.053.052c-.12-.52-.241-1.173-.36-1.806-.058-.307-.115-.614-.173-.908h1.375Zm6.031-30.34Zm3.218,3.844c-.009-.062-.019-.123-.028-.182l.25.123.136.034c.446.109,1.056.258,1.093.453.016.075-.075.195-.263.338a1.14,1.14,0,0,1-1.2.222,2.2,2.2,0,0,0,.015-.988m4.364,14.412c.024-.357.05-.761.077-1.22.278-.038.518-.08.734-.117.972-.174,1.342-.238,2.134.707.476.478,1.481.44,2.285.411a4.242,4.242,0,0,1,.892.018,10.866,10.866,0,0,0-5.5,2.014,2.291,2.291,0,0,1-.61.351.034.034,0,0,1-.019,0,6.271,6.271,0,0,1,.006-2.161m-1.345,11.937a4.019,4.019,0,0,1,.688-2.01l.253.509a.3.3,0,0,0-.152.241,7.466,7.466,0,0,0-.52,1.227c-.062.171-.133.375-.188.49a3.821,3.821,0,0,1-.081-.458m3.783-2.087c.188.205.285.315.43.284s.192-.216.269-.607a3.062,3.062,0,0,0,.168-.45c.016-.05.035-.111.056-.164.009.044.024.09.037.137a2.35,2.35,0,0,1,.126.656c.034.272.062.526.087.763.13,1.171.219,1.958.728,2.344v.368a8.871,8.871,0,0,1,.151,1.217c-.058-.044-.146-.127-.223-.2a4.187,4.187,0,0,0-.984-.735,1.651,1.651,0,0,1-.883-.82,2.426,2.426,0,0,0-.893-.976c-.034-.23-.255-.443-.66-.644a2.583,2.583,0,0,1-.576-.6c-.2-.264-.4-.511-.653-.462l-.325-.65a1.722,1.722,0,0,1,.879-.52,1.13,1.13,0,0,0,.306-.052c.264-.074.533-.142,1.252.434a5.783,5.783,0,0,1,.709.679m4.408-22.673a3.91,3.91,0,0,1,.718-1.441h.394l.028-.019c.062-.04.118-.08.171-.118.47-.334.7-.509,1.927.716a2.063,2.063,0,0,0,2.137.443c.05,0,.069.041.072.244l-.17.168a2.973,2.973,0,0,0-.319.422,2.849,2.849,0,0,1-.292.394.646.646,0,0,1-.53.168l-.038.006a1.976,1.976,0,0,1-1,.043,5.408,5.408,0,0,0-.546-.049,2.615,2.615,0,0,0-1.883-.815,2.949,2.949,0,0,1-.67-.162m1.17,26.868c.232-.309.434-.617.631-.916a11.613,11.613,0,0,1,.7-.991,7.364,7.364,0,0,0,.09,3.271c-.337,2.028-.73,2.939-.9,2.939a2.451,2.451,0,0,1-.7-.93,1.982,1.982,0,0,1,.195-.749,5.353,5.353,0,0,1,.62-1.189c.143-.22.223-.34.159-.461-.077-.14-.266-.14-.889-.14a5.8,5.8,0,0,0-.936.1,6.072,6.072,0,0,1-.828.1l-.177-.356a3,3,0,0,0-.254-.328c-.143-.167-.185-.216-.3-.955.1.09.2.189.306.291a2.243,2.243,0,0,0,1.365.837h.046a1.238,1.238,0,0,0,.87-.527m7.139-13.79a2.307,2.307,0,0,1,1.53-.282.491.491,0,0,1,.3.162v.26a9.613,9.613,0,0,1-1.833-.14m2.07,1.174c.052-.013.1-.032.161-.053a1.921,1.921,0,0,1,.687-.136l.074.086a1.956,1.956,0,0,0,1.01.682,6.047,6.047,0,0,1-1.422,1.409.747.747,0,0,1-.109-.486c-.08-.312-.157-.561-.223-.78a3.566,3.566,0,0,1-.177-.722m2.866.916a12.606,12.606,0,0,0,.561-1.308h.078a4.348,4.348,0,0,0,1.76.315,10.227,10.227,0,0,1,2.519.4c-.61.36-1.345.7-2,1A6.618,6.618,0,0,0-6.1,134.708Zm4.681-7.939,1-.273a.734.734,0,0,0,.123.281c-.2-.012-.413-.016-.62-.016-.171,0-.341,0-.5.009M.159,109.934l-.018-.006c-.442-.154-.833-.285-1.193.027a4.711,4.711,0,0,1,.378-1.45,16.494,16.494,0,0,1,1.713-2.27Zm.676,27.688.108.433.021.109c.081.445.142.781.162.963l-.068-.065a4.128,4.128,0,0,0-.811-.641,2.251,2.251,0,0,0,.588-.8M.507,126.03c.247.066.505.127.761.189.96.227,1.951.464,2.1.888a7.017,7.017,0,0,0-1.446.284l-.4.1A4.525,4.525,0,0,0,.507,126.03M7.5,118.57c-.357.205-.634.394-.858.548-.27.185-.492.344-.583.31-.04-.016-.074-.1-.1-.192v-3.6a2.3,2.3,0,0,1,.947.455,1.737,1.737,0,0,1,.6,2.479M5.221,138.546a4.313,4.313,0,0,1-.592-1.889l.019-.038-.009-.041a1.807,1.807,0,0,1-.063-.517c0-.285-.041-.36-.58-.762l-.124-.126c.222-.258.574-.789.957-1.36l.053-.081-.551-.508c.725.493,1.325.793,1.684.669a.4.4,0,0,0,.258-.325c.035-.174.063-.338.09-.478,0-.009,0-.018,0-.027.034.242.063.527.084.687,0,.377.691.724,1.492,1.124.554.278,1.305.651,1.362.889a15.776,15.776,0,0,1-1.336,1.616,10.585,10.585,0,0,0-1.883,2.477,4.857,4.857,0,0,1-.821-1.224l.018-.068ZM3.99,139.77c-.018-.4-.038-.812.188-.994A.97.97,0,0,1,5,138.731a15.214,15.214,0,0,0-.093,1.8,12.328,12.328,0,0,1-.155,2.251c-.146-.251-.514-1.189-.882-2.138a1.381,1.381,0,0,0,.118-.87m8.564-27.635.5.1a1.639,1.639,0,0,1,.65.763Zm1.316,1.122,1.463,1.1-1.607.964a3.71,3.71,0,0,0,.143-2.065m3.4,15.595a2.7,2.7,0,0,1-.015.3,5.842,5.842,0,0,1-.292-.641c.189.074.307.158.307.341m.052-1.524c-.1.062-.182.121-.257.174l.009-.013.012-.028c.148-.443-.394-.693-.917-.935a3.386,3.386,0,0,1-.82-.465,8.515,8.515,0,0,1,2.158-.39,2.932,2.932,0,0,0,.443.347c.195.131.362.247.362.371,0,.186-.325.495-.989.939m-1.827,4.643a3.637,3.637,0,0,1,1.248-.35,3.59,3.59,0,0,1,.465,1.88.814.814,0,0,1-.149.443c-.015.013-.031.027-.046.041a13.985,13.985,0,0,0-1.082-1.458c-.171-.211-.36-.445-.436-.557m4.293-18.957.7-2.44,1.393,2.265Zm4.367,8.791a1.6,1.6,0,0,0-1.375-.046,8.26,8.26,0,0,1-1.128.245c-.248.034-.4,0-.464-.1-.168-.278.241-1.066.554-1.523l3.738-1.18,1.305,2.983c-.5-.059-1.824-.22-2.63-.381m1.9,11.534a3.157,3.157,0,0,1-2.477-.292,1.3,1.3,0,0,0-.771-.372.682.682,0,0,0-.126.013c-.018-.068-.047-.211-.084-.4a1.873,1.873,0,0,1-.065-.515c0-.284-.04-.359-.61-.784a1.744,1.744,0,0,1-.622-.629c-.143-.21-.267-.391-.453-.391h-.009c-.159,0-.307.14-.493.453a6.776,6.776,0,0,0-.536,1.249c-.062.174-.134.377-.188.492a3.421,3.421,0,0,1-.081-.473,3.037,3.037,0,0,1,.828-2.255,1.988,1.988,0,0,1,.89-.673,1.667,1.667,0,0,0,.464-.115c.309-.1.693-.23.889-.089a.591.591,0,0,1,.162.5c0,1.116.174,1.676.533,1.712.408.043.812-.732.924-1.286.031-.2.059-.378.083-.536.006-.037.012-.075.016-.112.031.238.062.507.08.654.111.5.177.961.233,1.365.151,1.053.26,1.815,1.066,1.986a5.56,5.56,0,0,1,.636.43l.038.027-.331.043m-88.029-13.666Zm1.837,2.447a3.349,3.349,0,0,0,1.158.734c.127.053.263.108.446.2l.136.034c.443.109,1.053.258,1.093.453.016.075-.075.195-.251.326a2.059,2.059,0,0,1-1.456.328,3.335,3.335,0,0,0-.944.059,1.363,1.363,0,0,0-.992.83c-.019.035-.034.053-.052.084l-.2.016a2.069,2.069,0,0,0-.276-1.914,4.956,4.956,0,0,0-1.226-1.025Zm-6.533,4.181a.4.4,0,0,1-.195-.183l.582-.05c-.151.157-.289.253-.387.233m-1.023,2.722c.233-.236.4-.408.617-.411h0a1.287,1.287,0,0,1,.681.34l-1.4.171Zm1.751.322c.072.068.136.126.214.2a2.4,2.4,0,0,0,2.567.45l.013,0c-.121.146-.322.372-.545.62a4.027,4.027,0,0,0-.97,2.587c0,.044-.006.092-.009.134l-.477-.478-.245-.279c-1.277-1.468-1.915-2.206-3.128-1.8a1.494,1.494,0,0,1-1.273-.631c-.1-.1-.213-.2-.322-.291Zm13.334,16.4a.106.106,0,0,0,.087.01c.1-.024.1-.118.1-.226-.006-.176-.016-.542.2-.694.161-.114.437-.1.818.04A11.267,11.267,0,0,1-49.2,146.08c.077.529.27,1.791.57,3.6a7.668,7.668,0,0,1,.146,1.3,2.972,2.972,0,0,1-.318-.279,6.68,6.68,0,0,0-.873-.722c-.6-.4-.62-.527-.639-.66-.032-.2-.095-.378-.585-.769a3.512,3.512,0,0,0-1.633-.631,3.357,3.357,0,0,0-1.015-.808l-.442-.981a2.389,2.389,0,0,0,1.375-.382m-10.93-26.631a2.19,2.19,0,0,0,1.118.673.611.611,0,0,0,.4.087,7.283,7.283,0,0,0,.777,1.1c.26.291.474.52.67.721l-6.357.3a.343.343,0,0,0-.316-.01c-.007.006-.009.019-.015.025l-9.122.436c-.05-1.056-.068-2.121-.089-3.184Zm-3.85,3.354c0,.015,0,.025,0,.04a.673.673,0,0,0,.044.563c.108.142.294.154.532.17a2.407,2.407,0,0,1,1.3.406c.363.26.548.5.564.728.024.331-.309.647-.659.982-.077.072-.14.152-.216.227l-1.223.106a4.16,4.16,0,0,1-.12-.53,2.211,2.211,0,0,1-.049-.477c0-.232-.081-.257-.294-.264a5.858,5.858,0,0,1-1.187-.167,9.12,9.12,0,0,1-1.955-.573c-1.029-.38-2.005-.74-2.518-.384a.977.977,0,0,0-.347.868,3.672,3.672,0,0,0,.542,2.039l-3.132.272c-.1-1.192-.208-2.378-.269-3.578Zm-5.25,4.151a2.378,2.378,0,0,0,1.686.721c.592,0,1.205.585,1.746,1.1a3.026,3.026,0,0,0,1,.734l-4.452.546c-.168-.05-.335-.1-.487-.155-.583-.193-.923-.3-1.128-.2a.734.734,0,0,0-.255.58l-1.248.154c-.121-1.056-.193-2.124-.285-3.188Zm-1.9,3.782c0,.1.009.2.015.309.028.447.058.955-.124,1.094-.068.053-.183.055-.362,0a2.788,2.788,0,0,0-.54-.04c-.053-.406-.121-.808-.168-1.215ZM-41.2,155.954a5.98,5.98,0,0,1-.27-2.788,3.283,3.283,0,0,0,.185-.9c.025-.359.04-.523.817-1.3l.372-.452c1.375-1.664,5.027-6.09,6.095-6.446a10.557,10.557,0,0,1,2.215-.4l.456-.213a2.212,2.212,0,0,1,.037.388h-.774l.883.886c-.018.068-.035.137-.053.2-.114.428-.189.71-.034.821.134.09.3-.022.365-.066a2.537,2.537,0,0,0,.536-.515c.028-.034.059-.069.087-.1.006.061.012.158.012.316s-.006.35-.012.535c-.025.877-.028,1.419.25,1.521.208.081.421-.148.589-.359.2-.294.248-.495.165-.632-.092-.155-.31-.149-.492-.136.065-.053.159-.126.3-.223a2.871,2.871,0,0,0,1-1.3c.021.089.047.2.077.325.044.183.1.416.171.706a6.142,6.142,0,0,1,.154,2.416c-.03.269-.047.418.066.492s.263,0,.56-.179a6.97,6.97,0,0,0,.728-.415c.193-.124.2-.12.5-.055.086.021.193.043.351.072.439,0,.459.027.49.068.106.142.279.375,2.14.747l.351.069c1.777.356,2.246.45,2.454.239.1-.106.1-.255.063-.465a3.266,3.266,0,0,1,.914,2.88c-.058.406-.1.712-.139.953a5.348,5.348,0,0,0-.106,1.453c.013.393.038,1.054.04,2.41l-21.233,4c0-.222.009-.443.013-.647.016-.774.031-1.441.031-1.824a9.783,9.783,0,0,0-.349-2.07m25.848-2.825c0-.541-.058-1.31-.117-2.124a19.973,19.973,0,0,1-.092-3.552,3.122,3.122,0,0,0,.174-1.037c.01-.391.016-.648.628-1.384a13.9,13.9,0,0,1,.986-1.207c.323-.366.688-.783,1.049-1.233l.024-.032v-.04c0-.052.019-.074.069-.121a.39.39,0,0,0,.134-.239c1.36-1.53,3.392-3.813,4.2-4.017a12.061,12.061,0,0,1,2.059-.4l.041.121.226-.037v-.322h-.1l-.572-1.71-.131.1a10.92,10.92,0,0,0-1.639,1.639,8.3,8.3,0,0,1-1.759,1.121c-.34.182-.659.353-.864.49A10.665,10.665,0,0,0-13,141.29a4.7,4.7,0,0,0-1.053-1.212c-.1-.089-.193-.173-.281-.257v-1.466h.292a1.444,1.444,0,0,1,.735.374l.03.022c.529.266,1.475.659,1.8.306.2-.2.143-.585-.157-1.162a1.787,1.787,0,0,0,.57-.343,1.577,1.577,0,0,1,.334-.229,3.015,3.015,0,0,0,1.477-1.655l.372-.189A5.384,5.384,0,0,0-7.308,133.6l.9,1.812a2.3,2.3,0,0,1-.024.371c-.021.157-.006.183.111.354.064.1.171.251.341.536a2,2,0,0,1,.388,1.248h-.775l.811.811,0,0c-.257.833-.254,1.031-.126,1.109s.245-.052.269-.078a2.585,2.585,0,0,0,.538-.515c.027-.034.058-.069.086-.1.006.062.012.165.015.338a2.221,2.221,0,0,0,1.63,1.483,1.324,1.324,0,0,0,1.431-.413,4.3,4.3,0,0,0,.5-.728c.086-.159.111-.205.645-.634l.316.155a3.69,3.69,0,0,0,1.419.888.56.56,0,0,1,.377.282c0,.233-.012.419-.019.566-.021.3-.028.439.087.505s.222,0,.434-.134c.173.205.365.39.566.586A3.608,3.608,0,0,1,4,145.36a11.194,11.194,0,0,0-.242,2.893c.013.514.037,1.289.037,2.627l-.037.857c-.006.13-.01.233-.016.357l-19.012,3.578c-.05-1.029-.084-1.98-.084-2.543M50.836,67.652c-2.448-3.469-4.693-7.344-6.936-11.017L62.871,60.1c-4.08,1.224-7.344,4.489-12.036,7.549m12.852-4.9h2.039c-4.08,5.3-6.733,8.976-9.792,13.669-1.428-2.448-2.448-3.265-3.671-5.712,2.856-3.673,7.752-7.14,11.424-7.957M10.647,60.1c6.935-1.428,14.28-2.447,21.215-4.079-2.651,3.671-5.508,7.548-7.955,11.015-3.673-2.856-8.772-5.916-13.26-6.936m11.628,9.385c-1.02,3.06-2.041,4.488-3.469,7.344-2.447-5.1-4.08-9.18-8.772-13.667,4.284.611,8.364,2.856,12.241,6.324m15.3-13.669c4.488,0,10,11.63,11.22,13.873-4.488,4.692-7.955,7.752-11.424,12.241-3.06-4.693-6.936-8.161-11.017-12.852.409-1.02,6.733-13.261,11.22-13.261m7.957-14.28c0,3.265-1.224,5.712-3.469,5.712-2.651,0-3.264-3.06-3.264-5.1,0-3.264,1.02-5.712,3.469-5.712,2.651,0,3.264,3.06,3.264,5.1m5.508-5.1c2.652,0,3.264,3.06,3.264,5.1,0,3.265-1.224,5.712-3.467,5.712-2.652,0-3.265-3.06-3.265-5.1,0-3.264,1.02-5.712,3.469-5.712m4.916-16.126,3.05-15.605q1.805.341,3.592.738L58.218,23.7c-.734-1.143-1.48-2.279-2.262-3.385m-.362-.483c-.828-1.155-1.676-2.292-2.555-3.4L55.167,4.021c1.142.176,2.267.4,3.4.608Zm-2.93-3.84c-.9-1.113-1.821-2.2-2.77-3.244L51.115,3.5c1.208.142,2.416.282,3.611.461ZM49.5,12.334c-.984-1.063-1.985-2.088-3.013-3.063l.586-6.16c1.205.1,2.406.2,3.6.337ZM46.075,8.9c-.945-.882-1.9-1.731-2.884-2.525l.244-3.531c1.072.053,2.131.151,3.2.233ZM42.77,6.053a45.158,45.158,0,0,0-4.819-3.348c1.689,0,3.367.053,5.039.128Zm-11.835.5-.219-3.611c1.65-.1,3.312-.158,4.981-.188q-2.437,1.763-4.763,3.8m-.422.36c-.945.839-1.871,1.712-2.785,2.608L27.264,3.2c1-.092,2-.164,3.01-.23Zm-3.2,3.008q-1.462,1.453-2.861,2.995l-1.2-9.259c1.187-.151,2.373-.3,3.571-.418Zm-3.255,3.422q-1.438,1.6-2.8,3.274L19.388,4.2c1.133-.185,2.276-.338,3.42-.489Zm-3.178,3.73c-.89,1.106-1.75,2.234-2.589,3.379L15.334,4.927c1.2-.239,2.406-.446,3.617-.647Zm-2.952,3.862c-.814,1.125-1.593,2.268-2.354,3.422L11.312,5.829c1.19-.284,2.378-.577,3.583-.823Zm-2.7,3.925c-.7,1.078-1.365,2.166-2.016,3.261L7.516,6.8q1.67-.461,3.361-.87ZM36.963,6.247V51.74L6.158,58.064V53.779c0-10.608,18.564-43.452,30.805-47.533m-12.241,86.7c-1.428.2-3.264,1.428-4.692,1.428-1.224,0-2.448-1.224-6.12-1.428,1.632-.2,4.284-1.428,5.712-1.428a12.044,12.044,0,0,1,5.1,1.428M45.531,100.7c-1.836.815-5.1,2.039-6.529,2.039-1.019,0-5.712-.611-8.159-2.039a27.588,27.588,0,0,1,7.344-1.837c1.428,0,4.9,1.02,7.344,1.837m16.729-7.14c-1.428.2-3.061,1.428-4.489,1.428-1.019,0-3.467-1.02-6.731-1.428,1.836-.817,3.875-2.041,5.3-2.041s4.08,1.224,5.917,2.041m79.756,35.38,2.877.313a9.646,9.646,0,0,0-1.4,1.5c-.229.279-.474.577-.735.876-.223.223-.384.384-.486.484,0-.041-.006-.09-.009-.134a4.028,4.028,0,0,0-.972-2.589c-.205-.23-.39-.434-.511-.58l.154.016a3.069,3.069,0,0,0,1.08.118m-6.425,6.137c-.118-.442-.728-2.908-.188-4.349a.668.668,0,0,1,.118-.227,4.379,4.379,0,0,1,.493,1.322c.275.966.56,1.966,1,2.106a.4.4,0,0,0,.369-.075l2.22-.684-2.112,2.286Zm.093,3.764,1.958,3.329.006.012c.049.065.034.1.027.111-.183.388-2.23.636-3.611.713a10.124,10.124,0,0,0,1.14-2.934,2.065,2.065,0,0,1,.48-1.23m-63.855,1.1c.041-.049.072-.087.427-.161h.205c-.137.238-.275.492-.408.74-.356.657-.8,1.475-1.015,1.475a3.245,3.245,0,0,1-.681-1.435c1.254-.347,1.373-.5,1.471-.619m-2.109-7.4c.018-.168.052-.459.084-.7a.208.208,0,0,0,.006.03c.024.14.053.3.089.478.084.418.131.592.273.623s.226-.092.387-.31a6.13,6.13,0,0,1,.458-.56l.326.492c.408.613.744,1.112.957,1.362l-.114.114c-.549.413-.589.489-.589.774a1.962,1.962,0,0,1-.066.515,2.314,2.314,0,0,1-1.4,1.472,8.352,8.352,0,0,0-.61-2.691,4.455,4.455,0,0,1,.2-1.6M73.887,115.3a5.906,5.906,0,0,1-2.587.4.189.189,0,0,0-.195-.019,3.887,3.887,0,0,0-1,2.751c-.059.351-.136.548-.23.586-.134.056-.436-.164-.817-.44-.168-.123-.362-.263-.583-.411a1.736,1.736,0,0,1,.6-2.482c1.029-.857,4.091-.665,5.1-.6l.109.006a1.582,1.582,0,0,1-.387.214m1.921,11.054c-.117.087-.427.288-.756.5a11.48,11.48,0,0,0-2.044,1.477,1.165,1.165,0,0,1-.639-.142,7.14,7.14,0,0,0-.724-1.732,8.517,8.517,0,0,1-.694-1.6l4.083-1.555c.235.827.73,2.632.774,3.058m-.879-20.723a8.845,8.845,0,0,1,1.508,2.261,4.73,4.73,0,0,1,.378,1.48.7.7,0,0,0-.326-.065c-.1,0-.207.01-.319.021s-.227.024-.354.028Zm-.13,31.507.154-.641a3.936,3.936,0,0,0,.582.893,4.165,4.165,0,0,0-.831.651l-.068.065c.021-.182.083-.52.164-.969m-9.68-18.231c-.112.38-.227.831-.344,1.305-.456,1.815-1.072,4.265-2.112,4.265a.692.692,0,0,1-.095-.006,1.053,1.053,0,0,0-.074-.214,1.226,1.226,0,0,1-.12-.5,21.5,21.5,0,0,1,2.744-4.847m-5.6,8.906c-.286-.179-.641-.4-1.075-.69-.549-.366-.527-.489-.526-.489.025-.1.605-.157.916-.183a2.645,2.645,0,0,0,1.465-.372.974.974,0,0,1,.164-.146,4.365,4.365,0,0,0,.366,1.663c.031.1.064.189.092.275l.013.027c.368.546.2.908-.18,1.666a2.434,2.434,0,0,1-.015-.3c0-.687-.281-.862-1.22-1.447m.289,3.692Zm-5.028-9.8c-.063.1-.222.136-.464.1a8.452,8.452,0,0,1-1.128-.247,1.589,1.589,0,0,0-1.365.041,16.418,16.418,0,0,0-2.63.362l1.3-2.959,3.738,1.18c.313.456.724,1.245.554,1.523m1.4-9.1-2.093-.174,1.393-2.267Zm4.237,19.511Zm35.14,2.257c.037-.4.065-.851.065-1.236v-.353l4-3.166-3.949,4.807c-.038-.015-.075-.032-.115-.052m.629,11.424a13.115,13.115,0,0,1-1.4-2.013l-.127-.205c.041,0,.087.006.131.007.914,0,2.084-1.028,2.865-1.716.114-.1.219-.192.315-.273a3.61,3.61,0,0,1-1.307,1.654,3.509,3.509,0,0,0-.645.632L96,143.92Zm-4.5-8.134c.306.636.691,1.663,1.046,2.6.186.49.368.97.536,1.4a.374.374,0,0,0-.207-.078.605.605,0,0,0-.57.258c-.292.507.347,1.614,1.022,2.787.238.409.483.833.667,1.2a2.077,2.077,0,0,1,.193.939c-.078.133-.176.117-.421,0a.711.711,0,0,0-.266-.089s0,0,0,0c-.366-.134-1.936-3.806-1.936-4.782,0-.276.012-.607.024-.966a18.862,18.862,0,0,0-.086-3.278m2.62-4.209c-.2-.165-.4-.334-.607-.495a4.943,4.943,0,0,0,.159-2.186c-.01-.362-.022-.8-.012-1.128.177.96.6,2.8.921,4.187-.149-.12-.3-.248-.462-.378m1.416-15.819c-.282.086-.459.14-.515.289a2.619,2.619,0,0,0-1.785.815,4.663,4.663,0,0,0-.548.049,2.018,2.018,0,0,1-1-.043l-.035-.006a.65.65,0,0,1-.255-.09.972.972,0,0,0-.3-.112,3.115,3.115,0,0,1-.26-.354,2.7,2.7,0,0,0-.325-.428l-.167-.171a.625.625,0,0,1,.121-.431,2.043,2.043,0,0,0,2.087-.458c1.215-1.217,1.455-1.054,1.926-.718.055.038.112.078.174.12l.027.019h.38a7.278,7.278,0,0,1,.585,1.147c.047.106.09.207.134.3-.09.03-.17.053-.238.074m6.03,23.986c-.416.416.326,2.652.551,3.3-.5.279-.842-.081-1.23-.5a1.658,1.658,0,0,0-1.1-.691.976.976,0,0,0-.439.112,4.181,4.181,0,0,0-.986.735,2.835,2.835,0,0,1-.223.2,9.138,9.138,0,0,1,.151-1.217l.01-.059-.154-.152c.456-.4.542-1.167.668-2.289.027-.239.056-.495.09-.783a2.3,2.3,0,0,1,.124-.644l.038-.134c.019.053.038.114.055.164a3.273,3.273,0,0,0,.167.449c.078.391.13.567.269.607s.245-.08.431-.285a5.906,5.906,0,0,1,.709-.678c.727-.58.992-.507,1.254-.434a1.128,1.128,0,0,0,.3.053,1.685,1.685,0,0,1,.879.518l-.323.648c-.276-.049-.456.2-.654.465a2.641,2.641,0,0,1-.594.616m1.472-.6.254-.508a4,4,0,0,1,.688,1.994,3.582,3.582,0,0,1-.083.473c-.056-.115-.127-.32-.189-.495a7.276,7.276,0,0,0-.518-1.221.29.29,0,0,0-.152-.242m-17.8-8.294c-.066.22-.145.473-.226.817a.627.627,0,0,1-.092.254c-.022.044-.044.089-.062.133-.165-.157-.329-.3-.489-.443a6.188,6.188,0,0,1-.888-.895,1.975,1.975,0,0,0,1.007-.679c.027-.031.052-.062.075-.089a1.948,1.948,0,0,1,.687.134,1.5,1.5,0,0,0,.162.055,3.586,3.586,0,0,1-.176.713m-.368,2.757.359.179A2.1,2.1,0,0,0,86.461,137a2.6,2.6,0,0,1,.4.3l.031.022a1.6,1.6,0,0,1,.337.23,1.813,1.813,0,0,0,.579.344c-.248.6-.269.979-.065,1.173.32.31,1.078-.006,1.7-.319a2.83,2.83,0,0,0,.811-.6H90.5v1.466c-.089.083-.182.168-.281.257a4.751,4.751,0,0,0-1.053,1.212,10.611,10.611,0,0,0-1.955-2.13c-.219-.145-.536-.316-.876-.5a8.429,8.429,0,0,1-1.747-1.108,5.574,5.574,0,0,0-1.932-1.184.866.866,0,0,1,.165-.037c.244-.033.356-.118.36-.523a5.693,5.693,0,0,0,.4-1.812c.532.975,1.029,1.543,1.474,1.689M82.1,134.436c-.152-.346-.57-.6-1.341-1.057-.21-.127-.449-.269-.715-.434a5.92,5.92,0,0,0,2.072-1.323h.08l.23.309c.154.284.351.682.511,1Zm24.328-7.164a2.005,2.005,0,0,1,.741-.955h.9l.366,1.66c-1.912,1.1-2.121,3.718-2.087,5.1l-1.52-4.4,1.574-1.376Zm.775-10.317a1.135,1.135,0,0,1-1.217-.232c-.176-.131-.267-.251-.251-.326.04-.195.65-.344,1.094-.453l.158-.043.227-.114c-.007.059-.018.12-.028.182a2.172,2.172,0,0,0,.016.986m7.836,20.977c-.434.253-.823.478-1.028.579a.005.005,0,0,0,0,0,1.25,1.25,0,0,0-.047-1.363l-.022-.027-.032-.012a1.464,1.464,0,0,1-.927-.989,4.052,4.052,0,0,1,1.653.8,10.771,10.771,0,0,0,1.248.549,7.132,7.132,0,0,1-.845.47m16.568,6.013a.909.909,0,0,1-.6.5h-.08l-.028.074a7.177,7.177,0,0,1-1.605,1.865,9.863,9.863,0,0,0-1.413,1.53.8.8,0,0,0-.634.257,8.575,8.575,0,0,1-.434-2.494c-.058-.582-.1-1.031-.155-1.37l.108-.043a31.128,31.128,0,0,1,3.82-1.066c.233-.055.434-.1.6-.14.372.325.515.625.422.891m-7.623,5.733a19.036,19.036,0,0,1,2.169-5.145c.046.421.128.992.241,1.76a15.39,15.39,0,0,1,.238,2.069,2.394,2.394,0,0,0-.707.836c-.133.248-.239.443-.883.765a4.169,4.169,0,0,0-.985.735c-.077.071-.164.154-.223.2a9.131,9.131,0,0,1,.151-1.218m-6.987-5.7a3.419,3.419,0,0,0-.158.461,1.062,1.062,0,0,1-.208.47c-.068.1-.106.111-.1.111-.095-.028-.273-.569-.294-1.686a3.659,3.659,0,0,1,.764.645m-.069,3.853c.075-.124.179-.294.313-.563l.012-.052a19.487,19.487,0,0,1,.145-2.7,26.08,26.08,0,0,1,1.112,3.93c.061.266.109.484.145.626a13.041,13.041,0,0,1-.127,3.076,25,25,0,0,0-1.081-2.946c-.222-.445-.382-.707-.49-.882-.165-.27-.165-.27-.028-.493m.412-3.939a.005.005,0,0,1,0,0h0Zm0-1.842c-.081.455-.165.911-.247,1.339l-.068-.034v.151l-.789-.631V140.8h.292l.038-.006a3.533,3.533,0,0,1,1.044-.2c-.09.459-.18.954-.272,1.449m-1.525,4.984a2.526,2.526,0,0,1-.007.533,1.752,1.752,0,0,1-.409-.424c-.145-.179-.3-.378-.464-.586a15.364,15.364,0,0,0-2.218-2.5l-.035-.016a6.2,6.2,0,0,1-2.636-1.409c1.613-.061,1.632-.737,1.65-1.286a2.294,2.294,0,0,1,.021-.294l3.131,1.37L116,143c0,1.344-.115,2.586-.168,3.188-.021.216-.032.359-.032.411,0,.148.006.3.012.431m.192-4.54a6.9,6.9,0,0,1-1.617-1.45l-.424-.433v.281a.237.237,0,0,1-.12.157c-.114.074-.452.219-1.149-.062l-.044-.007a.6.6,0,0,1-.337-.189,4.4,4.4,0,0,1,1.8-.229c.377.016.938.037,1.889.038Zm-4.37-27.5a1.974,1.974,0,0,0-.759-.719c-.678-.408-.706-.442-.84-.605-.061-.074-.14-.171-.291-.326a4.677,4.677,0,0,0,.514-.809.592.592,0,0,0,.381-.083h.535a1.438,1.438,0,0,1,.341.7l.009.043a3.67,3.67,0,0,1,.111,1.8m8.217,37.72a4.213,4.213,0,0,0,.26-1.415,12.782,12.782,0,0,0-.827-4.943c-.746-1.685-1-2.025-1.645-2.528l.064-.13-.2-.1c.189-.756.377-1.509.558-2.243a2.505,2.505,0,0,0,.214-1.178,1.015,1.015,0,0,0,.855-.648,1.223,1.223,0,0,0-.177-.984,7.243,7.243,0,0,1,1.181.61c.7.489,1.15.639,1.443.48.387-.211.362-.889.334-1.749a6.327,6.327,0,0,1,.233-2.456l.009-.043a.647.647,0,0,1,.089-.254.946.946,0,0,0,.112-.3,1.082,1.082,0,0,1,.17-.121.487.487,0,0,0,.208-.193,3.838,3.838,0,0,1,.642.89,21.665,21.665,0,0,0,1.424,2.091c.93,1.267.908,1.5.9,1.53a.07.07,0,0,1-.034.006,6.2,6.2,0,0,1-1.438-.777c-.183-.12-.356-.23-.5-.316a.542.542,0,0,0-.428-.071c-.382.108-.676.663-1.046,1.365a5.643,5.643,0,0,1-2.1,2.577,4.144,4.144,0,0,1-1.356.372c-.185.021-.294.032-.335.137s.028.208.281.508a22.7,22.7,0,0,1,1.772,2.419c1.057,1.511,1.509,1.98,1.932,2.008.353.025.61-.255,1-.682.133-.143.284-.306.458-.477a12.119,12.119,0,0,0-.554,1.5,10.2,10.2,0,0,0-.651,2.878,1.072,1.072,0,0,1-.158.574,6.235,6.235,0,0,1-2.753,1.974h-.024a1.531,1.531,0,0,1,.084-.3m3.888-31.821a2.867,2.867,0,0,0-.411.216l-3.609-.195c.052-.043.087-.084.146-.126a2.373,2.373,0,0,1,1.585-.572,3.594,3.594,0,0,1,1.561.387Zm-.985.631a2.837,2.837,0,0,0-.672,1.279,3.781,3.781,0,0,1-.351.9,1.091,1.091,0,0,1-2.044,0c-.505-.845-.939-1.6-.381-2.363Zm5.29,7.292c-.827,1.243-.821,1.512.027,2.571a5.22,5.22,0,0,1,.462.548,47.473,47.473,0,0,1-5.1-3.55l3.348.2-.162-.2a.535.535,0,0,1-.127-.476c.149-.642,1.394-1.245,1.926-1.5Zm13.783,6.738c.263-.418,2.36-.208,3.448.152a.882.882,0,0,1,.626.292c.192.264.114.722.021,1.252a6.857,6.857,0,0,0-.133,1.2c0,.284-.053.349-.075.362-.056.04-.245-.043-.412-.117-.1-.043-.205-.09-.322-.131-.174-.521-.891-1-1.644-1.512a9.028,9.028,0,0,1-1.227-.927c-.145-.146-.377-.413-.282-.567m8.361-5.587c-.306,0-.535.286-.777.592-.371.462-.619.727-.991.45a3.469,3.469,0,0,1-.756-.908,5.76,5.76,0,0,0-.436-.588l3.23.351a.524.524,0,0,1-.27.1m-82.009,9.3h0m83.235-9.742-5-.543c-.024-.006-.041-.021-.066-.025a1.363,1.363,0,0,0-.663-.055l-2.689-.292a2.363,2.363,0,0,0,.337-.276c1.224-1.224,1.458-1.051,1.929-.716.053.038.109.078.171.118.408.272.942-.056,1.506-.408a4.042,4.042,0,0,1,1.208-.592,1.076,1.076,0,0,0,.433-.089l3.051.285c-.074.864-.123,1.735-.217,2.593m-4.714-6.081a5.655,5.655,0,0,0-2.007.651c-.281.152-.276.145-.532-.2a2.839,2.839,0,0,0-.656-.589c-.211-.154-.394-.285-.394-.418a.465.465,0,0,1,.139-.251l4.579.248a2.926,2.926,0,0,1-1.13.557m-8.233.041a14.739,14.739,0,0,0-.919,1.255.308.308,0,0,0-.213-.074c-.2,0-.276-.134-.415-.391a1.361,1.361,0,0,0-.985-.83,3.412,3.412,0,0,0-.951-.061,2.051,2.051,0,0,1-1.456-.328c-.176-.131-.267-.25-.251-.325.04-.195.647-.346,1.091-.455l.22-.055.174-.044,4.754.257c-.357.329-.712.675-1.05,1.05m-1.035-7.112c-.146.34-.284.526-.412.552s-.322-.137-.514-.317a2.883,2.883,0,0,0-.493-.369l1.552-.019a1.92,1.92,0,0,0-.133.154m-2.413.065a2.213,2.213,0,0,1-.622.713,1.422,1.422,0,0,1-.235.21l-.034-.013c-.182-.081-.447-.142-1.323.186-.477.18-.806.207-.95.077-.216-.193-.069-.761.046-1.217l.028-.1,3.215-.04c-.043.058-.084.121-.126.189M72.407,151.137l-.035-.864c0-1.35.024-2.127.037-2.639a10.925,10.925,0,0,0-.241-2.88,3.609,3.609,0,0,1,1.382-3.329c.2-.2.393-.382.566-.585.2.134.331.2.433.134.118-.066.108-.205.09-.507-.009-.146-.021-.332-.021-.564a.563.563,0,0,1,.354-.281,3.033,3.033,0,0,0,1.23-.883l.325-.162c.532.428.557.476.642.634a4.28,4.28,0,0,0,.5.73,2.054,2.054,0,0,0,2.06.657,1.241,1.241,0,0,0,1-.933c0-.159.006-.257.012-.318.028.031.061.068.089.1a2.508,2.508,0,0,0,.517.5c.146.145.245.124.313.089.189-.118.121-.644.028-1.069l.792-1.054h-.728a2.107,2.107,0,0,1,.095-.663l.3.437.452.242.052.012a10.562,10.562,0,0,1,2.215.4c.8.2,2.76,2.4,4.2,4.015a.375.375,0,0,0,.133.238c.05.049.071.071.071.123v.04l.024.032c.762.954,1.626,2.035,2.05,2.459.716.718.7.97.668,1.353a2.3,2.3,0,0,0,.114,1.031,44.084,44.084,0,0,1,.031,5.157c-.018.656-.031,1.221-.031,1.557,0,.542-.061,1.3-.145,2.1l-19.5-3.543c-.025-.527-.049-1.1-.077-1.769m23.85,6.087-.018-.424c0-1.876.044-2.46.071-2.81a11.711,11.711,0,0,0-.071-2.1,3.754,3.754,0,0,1,.967-3.081l.059,0h.01c.09,0,.126-.071.171-.282a3.366,3.366,0,0,1,2.578-1.819,2.076,2.076,0,0,1,1.5.058,1.01,1.01,0,0,1,.337.753c.034.233.065.453.226.566a.452.452,0,0,0,.357.055c.275,0,.434-.015.542-.024.183-.018.188-.019.542.165.121.063.281.146.49.251.3.182.447.254.567.183s.1-.223.064-.492a6.262,6.262,0,0,1,.154-2.416c.072-.289.128-.523.171-.706.03-.124.056-.236.078-.325a2.862,2.862,0,0,0,1,1.3c.842.6.874.687.947.87a2.51,2.51,0,0,0,.455.74c.164.205.374.431.585.351.276-.1.275-.644.248-1.521-.006-.185-.012-.368-.012-.535a.834.834,0,0,0-.384-.769,4.717,4.717,0,0,0-.087-.546l.84-.84h-.775a2.228,2.228,0,0,1,.038-.388l.4.2.052.012a10.486,10.486,0,0,1,2.206.4c.885.294,3.259,3.462,4.678,5.353.5.665.929,1.239,1.186,1.546.675.809.7.972.78,1.362a5.716,5.716,0,0,0,.214.827,21.534,21.534,0,0,1,.04,3.5c-.021.583-.04,1.134-.04,1.586,0,.381.013,1.063.03,1.855.007.31.015.647.021.994Zm54.025-20c-.2-.158-.43-.332-.688-.529-.88-.668-2.713-2.06-2.682-2.342.006,0,.114-.081.793.114,1.3.374,1.98.424,2.344.177.316-.219.35-.626.4-1.142.016-.173.033-.359.061-.557a1.071,1.071,0,0,1,.543-.722c-.223,1.678-.47,3.346-.766,5m1.384-10.748-2.674-.251a5.536,5.536,0,0,0,.3-2.525c0-.241-.007-.492-.007-.749l2.646.143c-.059,1.136-.17,2.255-.263,3.382m-2.4-3.971c-.024-.32-.084-.465-.2-.517-.177-.075-.35.09-.639.368l-.1.1-4.585-.248a7.544,7.544,0,0,1,.927-.515c.582-.281.9-.436.743-1.207,0-.272-.024-.458-.145-.539s-.263-.024-.445.053a1.91,1.91,0,0,1-1.136.168c-.774-.164-2.236.594-3.7,1.836l-4.365-.238a12.32,12.32,0,0,0,1.605-1.616c.261-.326.43-.56.555-.744l14.249.26c-.024,1-.035,2-.083,2.986Zm-10.9-3.535c.012,0,.016,0,.027-.006a2.423,2.423,0,0,0,1.71-2.573,1.973,1.973,0,0,0-.062-.216l12.034-.146c0,.329.025.656.025.986,0,.74-.047,1.468-.062,2.2Zm13.7-3.385-12.151.148a.81.81,0,0,0-.509-.48,1.8,1.8,0,0,0-1.366.5l-6.018.074a1.116,1.116,0,0,0-.752-1.365c-.851-.425-1.5.526-1.917,1.161l-.069.1c-.032.049-.025.087-.047.134l-.261,0a4.637,4.637,0,0,0-.315-.551c-.923-1.229-.769-1.45-.465-1.892.034-.046.072-.121.108-.176l23.673-1.245c.052,1.189.075,2.385.09,3.583M-43.675,36.91l22.135,22.329.315-.312L-43.369,36.588c.834-.84,1.7-1.653,2.553-2.468L-20.73,55.767l.326-.3-20.09-21.651c.865-.812,1.738-1.616,2.627-2.4l17.337,20.065.335-.291L-37.531,31.121c.852-.747,1.7-1.5,2.573-2.228l17.891,22.169.346-.279-17.89-22.169c.966-.792,1.955-1.555,2.946-2.316L-13.2,51.056l.354-.266L-31.317,26.025c.908-.691,1.834-1.359,2.763-2.023l15.762,22.763.366-.253L-28.191,23.745c.944-.67,1.889-1.336,2.853-1.977L-11.369,43.5l.375-.242L-24.962,21.527c.984-.65,1.971-1.292,2.977-1.911L-7.7,43.491l.382-.23L-21.61,19.375c1.006-.614,2.035-1.189,3.061-1.772l9.823,17.72.391-.214L-18.163,17.38q1.575-.886,3.179-1.723L-4.446,36.54l.4-.2-10.54-20.886c1.017-.527,2.029-1.062,3.063-1.558L-.163,38.572l.4-.186L-11.119,13.712c1.063-.507,2.141-.986,3.222-1.461L2.485,36.934l.411-.173L-7.491,12.068c1.057-.458,2.13-.886,3.2-1.311L4.727,34.276l.415-.159L-3.876,10.593c1.155-.453,2.311-.9,3.484-1.314L8.193,33.861l.419-.148L.028,9.135c1.121-.393,2.243-.786,3.379-1.144L9.821,29.566l.425-.127L3.829,7.848C4.9,7.512,6,7.224,7.086,6.92l5.808,21.726c-6.287,10.723-10.1,22.023-10,30.845v42.655A5.006,5.006,0,0,0,.887,101c-.58-.177-1.122-.357-1.619-.52-1.893-.626-3.035-1-3.407-.453a2.568,2.568,0,0,0-.62,2.158,3.427,3.427,0,0,0,.269.436c.306.44.459.662-.465,1.9a3.858,3.858,0,0,0-.456.883.94.94,0,0,0-.165-.476l-.066-.1c-.419-.636-1.059-1.592-1.918-1.167-.924.462-.87.976-.663,1.788.353.712.461,1.233.3,1.434-.118.145-.391.126-.636.069.128-.263.216-.486.1-.623s-.331-.08-.52-.016c-.152.075-.273.123-.381.164a1.288,1.288,0,0,0-.418.22c-.127-.031-.222-.052-.292-.068-.192-.04-.192-.04-.289-.152-.062-.072-.155-.18-.323-.346l-.03-.022c-.211-.106-.368-.2-.493-.273a.964.964,0,0,0-1.02-.142,2.08,2.08,0,0,0-.394.176c-.149.084-.155.084-.526-.162a3.456,3.456,0,0,0-2.552-.57.8.8,0,0,0-.484.648,2.227,2.227,0,0,0,1.709,2.58c.205.1.347.123.452.066.118.134.374.433.861,1.041-.041.049-.083.1-.127.161a1.84,1.84,0,0,1-.61.57c-.9.749-.783,1.111-.554,1.477a.515.515,0,0,1,.106.244c0,.049,0,.1,0,.149a1.091,1.091,0,0,1,0,.183,5.007,5.007,0,0,1-1.028-1.02,12.331,12.331,0,0,1-1.081-1.508,5.944,5.944,0,0,0-3.462-3.016c-.582-.179-1.124-.357-1.621-.521-1.893-.625-3.035-1-3.405-.45a2.549,2.549,0,0,0-.617,2.155,3.222,3.222,0,0,0,.269.439c.3.44.458.662-.461,1.884a4.477,4.477,0,0,0-.493.7,1.054,1.054,0,0,0-.134-.286l-.069-.1c-.416-.634-1.056-1.592-1.917-1.162-.924.462-.87.976-.673,1.765l.04.152c.117.455.261,1.023.047,1.215-.145.13-.473.1-.951-.075-.564-.213-.859-.3-1.037-.356-.207-.063-.207-.063-.318-.186-.052-.056-.124-.136-.25-.26-.182-.136-.323-.251-.439-.346-.408-.338-.564-.459-1.1-.284a2.122,2.122,0,0,0-.391.176c-.155.084-.157.086-.527-.162a3.468,3.468,0,0,0-2.55-.572.8.8,0,0,0-.484.641,1.946,1.946,0,0,0,.359,1.859,1.109,1.109,0,0,1-1.243.3c-.2-.04-.394-.089-.576-.133-.533-.136-.957-.244-1.207-.046a.59.59,0,0,0-.189.5,2.936,2.936,0,0,1-1.184,2.766c-.9.749-.783,1.112-.555,1.477a.521.521,0,0,1,.106.244c0,.049,0,.1,0,.151a1.263,1.263,0,0,1,0,.182,4.969,4.969,0,0,1-1.028-1.02,12.477,12.477,0,0,1-1.08-1.508,5.952,5.952,0,0,0-3.463-3.016c-.582-.177-1.124-.357-1.62-.52-1.9-.628-3.044-1-3.407-.45a2.561,2.561,0,0,0-.619,2.155,3.292,3.292,0,0,0,.269.437c.3.44.458.662-.467,1.895a3.9,3.9,0,0,0-.453.879.589.589,0,0,0-.168-.471l-.064-.095a3.414,3.414,0,0,0-1.051-1.162v-.124l-21.856-.384c.021-1.2.032-2.4.09-3.586l23.587,1.353.025-.443-23.59-1.354c.062-1.2.173-2.394.273-3.586l30.424,2.731.04-.443-30.43-2.731c.1-1.2.233-2.394.375-3.584l35.311,4.513.055-.44-35.31-4.513c.142-1.137.267-2.279.442-3.4l26.238,4.275.072-.437-26.232-4.275c.182-1.149.4-2.285.611-3.42l29.01,5.684.083-.437-29.014-5.684c.219-1.125.462-2.24.713-3.354l31.883,7.433.1-.433-31.882-7.431c.263-1.144.52-2.29.818-3.422l19.123,5.164.115-.43-19.117-5.163c.3-1.134.626-2.261.963-3.382l22.725,6.932.131-.427L-71.59,83.759c.335-1.1.7-2.183,1.071-3.268l24.786,8.587.148-.421-24.792-8.589c.408-1.187.824-2.369,1.269-3.538L-43.7,86.423l.161-.413-25.408-9.893c.422-1.1.84-2.2,1.3-3.278l22.515,9.705.176-.409L-67.48,72.428c.427-1,.892-1.986,1.347-2.974L-42.489,80.5l.186-.4L-65.95,69.049q.762-1.641,1.574-3.252L-37.6,79.478l.2-.4L-64.172,65.4c.545-1.072,1.087-2.146,1.664-3.2l23.879,13.4.22-.388L-62.286,61.816c.572-1.032,1.162-2.051,1.763-3.063l27.806,16.841.23-.381L-60.3,58.368c.577-.961,1.184-1.9,1.788-2.846l30.89,20.068.244-.372L-58.272,55.148c.648-1.006,1.3-2,1.983-2.986l27.435,19.343.254-.363L-56.032,51.8c.663-.95,1.326-1.9,2.016-2.832l21.688,16.413.267-.354L-53.755,48.609c.716-.957,1.469-1.886,2.215-2.819l24.3,19.992.284-.343-24.312-20c.719-.893,1.455-1.769,2.2-2.64l26.111,22.773.291-.334L-48.775,42.466c.774-.9,1.545-1.794,2.345-2.666l23.67,22.3.307-.323-23.67-22.3q1.205-1.3,2.448-2.567M-75.1,135.036a1.042,1.042,0,0,0,.679.4c.022,0,.044,0,.068,0,.421,0,.895-.329,1.447-1.006.481-.589.681-.614.74-.6s.089.1.1.164a4.923,4.923,0,0,1-1.218,3.336.785.785,0,0,0-.315.608c.028.255.282.419.579.61a2.228,2.228,0,0,1,1.134,1.344,1.919,1.919,0,0,1,0,1.2,3.649,3.649,0,0,0,.208,2.482.469.469,0,0,0,.346.328.289.289,0,0,0,.071.007c.422,0,.97-.6,1.6-1.3a10.956,10.956,0,0,1,1-1.016,4.582,4.582,0,0,0,.524-.315,4.547,4.547,0,0,1,.453-.276,4.761,4.761,0,0,0,1.419.195,5.659,5.659,0,0,1,1.59,1.054,11.4,11.4,0,0,0-3.918,1.806.633.633,0,0,0-.227.495c.027.291.313.493.589.688.216.152.437.309.421.439-.012.092-.149.289-.947.6-2.462.948-2.206,1.787-1.982,2.527.025.087.052.176.074.263A1.715,1.715,0,0,0-69.5,150.2a2.4,2.4,0,0,0,2.29-.656c.517-.442.851-.743,1.065-.942a.441.441,0,0,0,.047.224.753.753,0,0,0,.634.335c.616.077.666.289.73.557.117.495.334.873,1.936.873,2.079,0,2.214-1.282,2.3-2.132.037-.347.068-.648.21-.743a3.352,3.352,0,0,1,1.1-.17c.935-.066,2.1-.148,2.53-.774a1.153,1.153,0,0,0,.095-1.023s0,0,0-.006c.437.266.964.536,1.506.812.462.236.93.477,1.334.712l.823,1.828.022.052.056.013a1.983,1.983,0,0,1,.728.3v.056l.043.034a9.4,9.4,0,0,1,.984.885c.285.284.639.639,1.461,1.356a2.9,2.9,0,0,0,1.421.836c.219.047.291.063.591.762a1.856,1.856,0,0,0,1.3.811c.859.254,1.67.495,1.551,2.189a41.834,41.834,0,0,0-.056,4.6c0,.077,0,.162.006.242L-65.885,165.2A113.388,113.388,0,0,1-75.1,135.036m112.88,96.3A114.452,114.452,0,0,1-64.673,167.72l19.914-3.748c0,.255,0,.508,0,.787,0,1.828.09,2.989.157,3.838.1,1.31.134,1.706-.338,2.416-1.283,1.747-1.267,2.184-1.112,2.37.192.224.626.058,1.031-.146a4.5,4.5,0,0,0,1.233-.412,1.625,1.625,0,0,0,.309-.139c.01.018.018.038.028.059a6.342,6.342,0,0,0,.349.653,7.152,7.152,0,0,1,.467.673c.257.4.462.725.737.725h.025c.261-.019.495-.313.808-1.019a4.876,4.876,0,0,1,.673-1.345,2.921,2.921,0,0,0,.6.387c.449.223.749.377.924.208.165-.151.159-.492-.359-1.784l-.224-.566a19.44,19.44,0,0,1-1.4-4.3,30.415,30.415,0,0,1-.087-3.123l21.165-3.984c-.128,2.917-.261,4.277-.889,5.22-1.61,2.342-1.394,2.524-1.279,2.62.182.148.5-.1.605-.195a6.926,6.926,0,0,0,1.827-.617,1.653,1.653,0,0,0,.31-.139l.028.062a6.377,6.377,0,0,0,.349.651,7.823,7.823,0,0,1,.465.67c.257.4.462.728.737.728h.028c.258-.019.492-.313.8-1.019a4.8,4.8,0,0,1,.675-1.344,2.91,2.91,0,0,0,.594.385l.136.068c.5.255.979.5,1.227.267.213-.193.155-.657-.183-1.5a9.477,9.477,0,0,1-.535-3.705,11.816,11.816,0,0,0-.069-1.571c-.052-.362-.1-.873-.151-1.458L3.6,154.869a5.931,5.931,0,0,1-.8,3.091c-1.611,2.344-1.394,2.524-1.279,2.621.186.149.5-.1.605-.2a6.943,6.943,0,0,0,1.827-.616,1.734,1.734,0,0,0,.312-.139c.007.018.018.04.028.061a5.8,5.8,0,0,0,.349.651,7.789,7.789,0,0,1,.464.67c.257.406.462.728.737.728h.028c.258-.019.492-.313.8-1.019a4.831,4.831,0,0,1,.675-1.345,2.859,2.859,0,0,0,.6.39c.133.053.263.111.387.164.48.21.826.365,1.023.174.159-.154.179-.468-.239-1.509a9.484,9.484,0,0,1-.535-3.707c0-.335-.027-.636-.043-.95l13.12-2.469c0,.007,0,.021,0,.028,0,6.733,11.017,10.4,11.017,15.3v5.508c-1.836,2.039-7.957,4.079-7.957,7.955,0,5.508,9.385,7.957,9.385,12.649v5.508c-2.448,1.632-6.12,1.019-5.712,5.1.408,4.488,6.936,3.876,6.936,10.4,0,3.265-2.041,1.837-4.693,3.877a6.233,6.233,0,0,0,4.693,1.632c.2,3.265.2,4.08,2.652,5.1.2,0,2.039.2,2.447-1.02.409-1.632-.2-3.671.613-5.1,2.039-4.08,4.488-3.877,4.488-6.733,0-4.08-4.692-3.06-4.692-7.548,0-4.693,7.344-2.652,7.344-8.364,0-4.488-2.448-4.488-7.344-9.589v-6.733c.2-3.264,9.383-3.06,8.772-9.995-.2-2.856-1.837-3.877-6.529-8.161,0,0,5.916-5.712,5.916-7.344,0-1.428-.408-1.837-2.447-1.837-1.428,0-2.652.817-4.489,1.837a5.453,5.453,0,0,1,.409-2.041,6.184,6.184,0,0,1,.988-1.525l24.3,4.414a17.144,17.144,0,0,1-.716,3.188c-.416,1.043-.4,1.357-.239,1.511.191.188.541.035,1.026-.176.121-.053.251-.111.391-.167a2.929,2.929,0,0,0,.594-.385,4.794,4.794,0,0,1,.678,1.348c.312.7.543,1,.8,1.015h.027c.275,0,.48-.322.738-.727a7.94,7.94,0,0,1,.473-.685,6.445,6.445,0,0,0,.341-.641.524.524,0,0,1,.028-.058,1.6,1.6,0,0,0,.294.131c.445.22.648.021,1.009.2.133.109.854.6,1.131.365.188-.161.216-.542-.97-2.159a4.308,4.308,0,0,1-.663-1.862l18.941,3.441c-.049.35-.095.672-.13.917a11.584,11.584,0,0,0-.068,1.571,9.459,9.459,0,0,1-.536,3.707c-.419,1.041-.4,1.356-.239,1.509.2.192.546.034,1.026-.176.121-.053.251-.109.391-.167a2.932,2.932,0,0,0,.594-.385,4.794,4.794,0,0,1,.678,1.348c.312.7.543,1,.8,1.015.3.032.5-.307.765-.727a7.93,7.93,0,0,1,.473-.684,6.356,6.356,0,0,0,.34-.639c.01-.021.021-.041.028-.061a1.484,1.484,0,0,0,.3.133,6.945,6.945,0,0,0,1.843.623c.108.093.416.34.6.2.115-.1.332-.278-1.277-2.62-.591-.885-.744-2.153-.867-4.7l21.141,3.84a24.774,24.774,0,0,1-.087,2.748,19.316,19.316,0,0,1-1.391,4.287l-.233.582c-.577,1.443-.5,1.76-.332,1.89s.43.037.9-.315a2.9,2.9,0,0,0,.6-.387,4.887,4.887,0,0,1,.675,1.35c.312.7.543,1,.8,1.015h.027c.275,0,.48-.322.737-.727a7.45,7.45,0,0,1,.474-.685,6.645,6.645,0,0,0,.341-.639c.009-.021.018-.043.027-.061a1.524,1.524,0,0,0,.3.133,4.515,4.515,0,0,0,1.246.418c.4.2.842.369,1.029.146.155-.186.171-.623-1.106-2.366-.422-.632-.385-1.019-.292-2.05a29.7,29.7,0,0,0,.106-4.413v-.236l18.79,3.413A114.457,114.457,0,0,1,37.78,231.34m83.59-69.554c.006-.27.012-.53.018-.781a46.38,46.38,0,0,0-.055-4.823c-.12-1.694.691-1.933,1.551-2.189a1.863,1.863,0,0,0,1.3-.818c.3-.693.368-.707.588-.755a2.906,2.906,0,0,0,1.422-.834,15.545,15.545,0,0,0,1.688-1.641c.2-.22.4-.449.762-.814l.382-.381a10.627,10.627,0,0,0,2.277-1.868l1.41-1.617c.331-.257.889-.563,1.072-.431.062.041.182.214-.03.917-.58,1.933,1.081,2.97,1.88,3.469.08.049.151.092.208.13a.292.292,0,0,0,.263.05c.115-.058.123-.2.133-.4.03-.548.08-1.463,1.911-1.463a1.7,1.7,0,0,1,1.249.322.9.9,0,0,1,.087.744c-.04.253-.075.492.078.65a.63.63,0,0,0,.445.134c.019.115.149.191,1.813.191,2.378,0,3.361-1.016,3.735-1.621a1.993,1.993,0,0,0,.245-1.812,1.1,1.1,0,0,1,.095-.851c.071-.18.123-.31.022-.391-.123-.1-.241-.056-1.5.786-.112.065-.3.173-.468.267.445-.512,1.223-1.469.607-2.085a10.615,10.615,0,0,0-3.335-1.8,11.031,11.031,0,0,1,1.416-1.264,4.761,4.761,0,0,0,1.419-.195,4.709,4.709,0,0,1,.456.278,3.781,3.781,0,0,0,.5.3c.365.291.391.38.4.413.035.115.043.12.539.294.2.071.5.176.932.334a1.837,1.837,0,0,0,1.626.013c.48-.338.495-1.06.511-1.828a8.277,8.277,0,0,1,.053-.922,1.316,1.316,0,0,1,.95-.944,113.384,113.384,0,0,1-8.679,26.868Z" transform="translate(79.241)" fill="#42454a"/>
            </g>
            <g id="Group_1206" data-name="Group 1206" transform="translate(25.105 19.197)">
              <path id="Path_1122" data-name="Path 1122" d="M55.563,0c-94.9,0-172.1,77.2-172.1,172.1A170.543,170.543,0,0,0-66.129,293.632,170.6,170.6,0,0,0,55.179,343.795h.384c94.783,0,171.9-77.112,171.9-171.9S150.346,0,55.563,0m0,341.094A167.887,167.887,0,0,1-64.223,291.721,167.866,167.866,0,0,1-113.839,172.1c0-93.407,75.995-169.4,169.4-169.4,93.3,0,169.2,75.9,169.2,169.2s-75.9,169.2-169.2,169.2" transform="translate(116.54)" fill="#42454a"/>
            </g>
          </g>
        </g>
      </g>
    </g>
  </g>
</svg>
